<?xml version="1.0" encoding="UTF-8" standalone="no"?>
<!DOCTYPE svg PUBLIC "-//W3C//DTD SVG 1.1//EN" "http://www.w3.org/Graphics/SVG/1.1/DTD/svg11.dtd">
<!-- Created with Vectornator (http://vectornator.io/) -->
<svg   stroke-miterlimit="10" style="fill-rule:nonzero;clip-rule:evenodd;stroke-linecap:round;stroke-linejoin:round;" version="1.1" viewBox="0 0 1000 1000"   xml:space="preserve" xmlns="http://www.w3.org/2000/svg" xmlns:vectornator="http://vectornator.io" xmlns:xlink="http://www.w3.org/1999/xlink">
<defs/>
<g id="Layer-1" vectornator:layerName="Layer 1">
<path d="M5 500C5 226.619 226.619 5 500 5C773.381 5 995 226.619 995 500C995 773.381 773.381 995 500 995C226.619 995 5 773.381 5 500Z" class="fill-highlight" fill="#6272a4" fill-opacity="0.00388025" fill-rule="nonzero" opacity="1" class="stroke-red"  class="stroke-red" stroke="#ff5555" stroke-linecap="butt" stroke-linejoin="miter" stroke-width="10" vectornator:layerName="Oval 1"/>
<g opacity="1" vectornator:layerName="Group 1">
<g opacity="1" vectornator:layerName="g5538">
<path d="M326.23 126.931C327.501 125.659 328.712 125.659 329.98 126.931" class="fill-orange" fill="#ffb86c" fill-rule="nonzero" opacity="1" class="stroke-orange" class="stroke-orange" stroke="#ffb86c" stroke-linecap="round" stroke-linejoin="miter" stroke-width="3.27731" vectornator:layerName="path"/>
<path d="M326.23 199.565C327.501 198.296 327.501 197.084 326.23 195.815" class="fill-orange" fill="#ffb86c" fill-rule="nonzero" opacity="1" class="stroke-orange" class="stroke-orange" stroke="#ffb86c" stroke-linecap="round" stroke-linejoin="miter" stroke-width="3.27731" vectornator:layerName="path"/>
<path d="M250.028 199.565C251.299 198.296 251.299 197.084 250.028 195.815" class="fill-orange" fill="#ffb86c" fill-rule="nonzero" opacity="1" class="stroke-orange" class="stroke-orange" stroke="#ffb86c" stroke-linecap="round" stroke-linejoin="miter" stroke-width="3.27731" vectornator:layerName="path"/>
<path d="M378.907 156.106C378.907 152.293 378.301 149.872 377.033 148.6" class="fill-orange" fill="#ffb86c" fill-rule="nonzero" opacity="1" class="stroke-orange" class="stroke-orange" stroke="#ffb86c" stroke-linecap="round" stroke-linejoin="miter" stroke-width="3.27731" vectornator:layerName="path"/>
<path d="M279.059 141.457C280.327 140.185 281.538 140.185 282.808 141.457" class="fill-orange" fill="#ffb86c" fill-rule="nonzero" opacity="1" class="stroke-orange" class="stroke-orange" stroke="#ffb86c" stroke-linecap="round" stroke-linejoin="miter" stroke-width="3.27731" vectornator:layerName="path"/>
<path d="M355.26 141.457C356.531 140.185 357.739 140.185 359.01 141.457" class="fill-orange" fill="#ffb86c" fill-rule="nonzero" opacity="1" class="stroke-orange" class="stroke-orange" stroke="#ffb86c" stroke-linecap="round" stroke-linejoin="miter" stroke-width="3.27731" vectornator:layerName="path"/>
<path d="M253.778 134.074C252.507 135.343 251.299 135.343 250.028 134.074" class="fill-orange" fill="#ffb86c" fill-rule="nonzero" opacity="1" class="stroke-orange" class="stroke-orange" stroke="#ffb86c" stroke-linecap="round" stroke-linejoin="miter" stroke-width="3.27731" vectornator:layerName="path"/>
<path d="M230.131 121.926C230.131 124.044 230.737 125.659 232.005 126.931" class="fill-orange" fill="#ffb86c" fill-rule="nonzero" opacity="1" class="stroke-orange" class="stroke-orange" stroke="#ffb86c" stroke-linecap="round" stroke-linejoin="miter" stroke-width="3.27731" vectornator:layerName="path"/>
<path d="M355.26 185.039C356.531 183.767 357.739 183.767 359.01 185.039" class="fill-orange" fill="#ffb86c" fill-rule="nonzero" opacity="1" class="stroke-orange" class="stroke-orange" stroke="#ffb86c" stroke-linecap="round" stroke-linejoin="miter" stroke-width="3.27731" vectornator:layerName="path"/>
<path d="M242.892 152.23C241.621 153.502 241.621 154.714 242.892 155.983" class="fill-orange" fill="#ffb86c" fill-rule="nonzero" opacity="1" class="stroke-orange" class="stroke-orange" stroke="#ffb86c" stroke-linecap="round" stroke-linejoin="miter" stroke-width="3.27731" vectornator:layerName="path"/>
<path d="M269.109 179.411C269.746 181.952 270.651 183.767 271.922 185.039" class="fill-orange" fill="#ffb86c" fill-rule="nonzero" opacity="1" class="stroke-orange" class="stroke-orange" stroke="#ffb86c" stroke-linecap="round" stroke-linejoin="miter" stroke-width="3.27731" vectornator:layerName="path"/>
<path d="M319.096 195.815C317.825 197.084 317.825 198.296 319.096 199.565" class="fill-orange" fill="#ffb86c" fill-rule="nonzero" opacity="1" class="stroke-orange" class="stroke-orange" stroke="#ffb86c" stroke-linecap="round" stroke-linejoin="miter" stroke-width="3.27731" vectornator:layerName="path"/>
<path d="M289.943 185.039C291.213 183.767 292.424 183.767 293.692 185.039" class="fill-orange" fill="#ffb86c" fill-rule="nonzero" opacity="1" class="stroke-orange" class="stroke-orange" stroke="#ffb86c" stroke-linecap="round" stroke-linejoin="miter" stroke-width="3.27731" vectornator:layerName="path"/>
<path d="M319.096 152.23C317.825 153.502 317.825 154.714 319.096 155.983" class="fill-orange" fill="#ffb86c" fill-rule="nonzero" opacity="1" class="stroke-orange" class="stroke-orange" stroke="#ffb86c" stroke-linecap="round" stroke-linejoin="miter" stroke-width="3.27731" vectornator:layerName="path"/>
<path d="M326.23 170.512C327.501 169.24 328.712 169.24 329.98 170.512" class="fill-orange" fill="#ffb86c" fill-rule="nonzero" opacity="1" class="stroke-orange" class="stroke-orange" stroke="#ffb86c" stroke-linecap="round" stroke-linejoin="miter" stroke-width="3.27731" vectornator:layerName="path"/>
<path d="M315.346 170.512C316.614 169.24 317.825 169.24 319.096 170.512" class="fill-orange" fill="#ffb86c" fill-rule="nonzero" opacity="1" class="stroke-orange" class="stroke-orange" stroke="#ffb86c" stroke-linecap="round" stroke-linejoin="miter" stroke-width="3.27731" vectornator:layerName="path"/>
<path d="M359.01 148.6C357.739 149.872 356.531 149.872 355.26 148.6" class="fill-orange" fill="#ffb86c" fill-rule="nonzero" opacity="1" class="stroke-orange" class="stroke-orange" stroke="#ffb86c" stroke-linecap="round" stroke-linejoin="miter" stroke-width="3.27731" vectornator:layerName="path"/>
<path d="M239.142 170.512C240.413 169.24 241.621 169.24 242.892 170.512" class="fill-orange" fill="#ffb86c" fill-rule="nonzero" opacity="1" class="stroke-orange" class="stroke-orange" stroke="#ffb86c" stroke-linecap="round" stroke-linejoin="miter" stroke-width="3.27731" vectornator:layerName="path"/>
<path d="M282.808 148.6C281.538 149.872 280.327 149.872 279.059 148.6" class="fill-orange" fill="#ffb86c" fill-rule="nonzero" opacity="1" class="stroke-orange" class="stroke-orange" stroke="#ffb86c" stroke-linecap="round" stroke-linejoin="miter" stroke-width="3.27731" vectornator:layerName="path"/>
<path d="M279.059 185.039C280.327 183.767 281.538 183.767 282.808 185.039" class="fill-orange" fill="#ffb86c" fill-rule="nonzero" opacity="1" class="stroke-orange" class="stroke-orange" stroke="#ffb86c" stroke-linecap="round" stroke-linejoin="miter" stroke-width="3.27731" vectornator:layerName="path"/>
<path d="M345.313 179.411C345.947 181.952 346.855 183.767 348.123 185.039" class="fill-orange" fill="#ffb86c" fill-rule="nonzero" opacity="1" class="stroke-orange" class="stroke-orange" stroke="#ffb86c" stroke-linecap="round" stroke-linejoin="miter" stroke-width="3.27731" vectornator:layerName="path"/>
<path d="M311.596 141.337C315.406 142.606 317.825 143.818 319.096 145.09" class="fill-orange" fill="#ffb86c" fill-rule="nonzero" opacity="1" class="stroke-orange" class="stroke-orange" stroke="#ffb86c" stroke-linecap="round" stroke-linejoin="miter" stroke-width="3.27731" vectornator:layerName="path"/>
<path d="M242.892 195.815C241.621 197.084 241.621 198.296 242.892 199.565" class="fill-orange" fill="#ffb86c" fill-rule="nonzero" opacity="1" class="stroke-orange" class="stroke-orange" stroke="#ffb86c" stroke-linecap="round" stroke-linejoin="miter" stroke-width="3.27731" vectornator:layerName="path"/>
<path d="M250.028 126.931C251.299 125.659 252.507 125.659 253.778 126.931" class="fill-orange" fill="#ffb86c" fill-rule="nonzero" opacity="1" class="stroke-orange" class="stroke-orange" stroke="#ffb86c" stroke-linecap="round" stroke-linejoin="miter" stroke-width="3.27731" vectornator:layerName="path"/>
<path d="M250.028 170.512C251.299 169.24 252.507 169.24 253.778 170.512" class="fill-orange" fill="#ffb86c" fill-rule="nonzero" opacity="1" class="stroke-orange" class="stroke-orange" stroke="#ffb86c" stroke-linecap="round" stroke-linejoin="miter" stroke-width="3.27731" vectornator:layerName="path"/>
<path d="M366.147 185.039C367.418 183.767 368.626 183.767 369.897 185.039" class="fill-orange" fill="#ffb86c" fill-rule="nonzero" opacity="1" class="stroke-orange" class="stroke-orange" stroke="#ffb86c" stroke-linecap="round" stroke-linejoin="miter" stroke-width="3.27731" vectornator:layerName="path"/>
<path d="M329.98 134.074C328.712 135.343 327.501 135.343 326.23 134.074" class="fill-orange" fill="#ffb86c" fill-rule="nonzero" opacity="1" class="stroke-orange" class="stroke-orange" stroke="#ffb86c" stroke-linecap="round" stroke-linejoin="miter" stroke-width="3.27731" vectornator:layerName="path"/>
<path d="M306.455 154.228C303.914 151.687 302.1 149.872 300.829 148.6" class="fill-orange" fill="#ffb86c" fill-rule="nonzero" opacity="1" class="stroke-orange" class="stroke-orange" stroke="#ffb86c" stroke-linecap="round" stroke-linejoin="miter" stroke-width="3.27731" vectornator:layerName="path"/>
<path d="M235.755 166.759C231.945 168.031 230.737 169.24 232.005 170.512" class="fill-orange" fill="#ffb86c" fill-rule="nonzero" opacity="1" class="stroke-orange" class="stroke-orange" stroke="#ffb86c" stroke-linecap="round" stroke-linejoin="miter" stroke-width="3.27731" vectornator:layerName="path"/>
<path d="M235.392 141.337C239.202 142.606 241.621 143.818 242.892 145.09" class="fill-orange" fill="#ffb86c" fill-rule="nonzero" opacity="1" class="stroke-orange" class="stroke-orange" stroke="#ffb86c" stroke-linecap="round" stroke-linejoin="miter" stroke-width="3.27731" vectornator:layerName="path"/>
<path d="M326.353 188.549C325.082 189.821 323.871 191.033 322.603 192.302" class="fill-orange" fill="#ffb86c" fill-rule="nonzero" opacity="1" class="stroke-orange" class="stroke-orange" stroke="#ffb86c" stroke-linecap="round" stroke-linejoin="miter" stroke-width="3.27731" vectornator:layerName="path"/>
<path d="M326.353 155.863C325.082 157.135 323.871 158.344 322.603 159.616" class="fill-orange" fill="#ffb86c" fill-rule="nonzero" opacity="1" class="stroke-orange" class="stroke-orange" stroke="#ffb86c" stroke-linecap="round" stroke-linejoin="miter" stroke-width="3.27731" vectornator:layerName="path"/>
<path d="M230.131 137.704C230.131 138.976 231.945 140.185 235.755 141.457" class="fill-orange" fill="#ffb86c" fill-rule="nonzero" opacity="1" class="stroke-orange" class="stroke-orange" stroke="#ffb86c" stroke-linecap="round" stroke-linejoin="miter" stroke-width="3.27731" vectornator:layerName="path"/>
<path d="M322.723 159.496C321.452 160.765 320.244 161.977 318.973 163.249" class="fill-orange" fill="#ffb86c" fill-rule="nonzero" opacity="1" class="stroke-orange" class="stroke-orange" stroke="#ffb86c" stroke-linecap="round" stroke-linejoin="miter" stroke-width="3.27731" vectornator:layerName="path"/>
<path d="M250.148 155.863C248.88 157.135 247.669 158.344 246.398 159.616" class="fill-orange" fill="#ffb86c" fill-rule="nonzero" opacity="1" class="stroke-orange" class="stroke-orange" stroke="#ffb86c" stroke-linecap="round" stroke-linejoin="miter" stroke-width="3.27731" vectornator:layerName="path"/>
<path d="M319.096 163.126C317.825 164.398 316.011 163.792 313.47 161.251" class="fill-orange" fill="#ffb86c" fill-rule="nonzero" opacity="1" class="stroke-orange" class="stroke-orange" stroke="#ffb86c" stroke-linecap="round" stroke-linejoin="miter" stroke-width="3.27731" vectornator:layerName="path"/>
<path d="M242.892 163.126C241.621 164.398 239.202 165.607 235.392 166.879" class="fill-orange" fill="#ffb86c" fill-rule="nonzero" opacity="1" class="stroke-orange" class="stroke-orange" stroke="#ffb86c" stroke-linecap="round" stroke-linejoin="miter" stroke-width="3.27731" vectornator:layerName="path"/>
<path d="M313.712 161.491C311.171 158.95 308.752 156.529 306.213 153.988" class="fill-orange" fill="#ffb86c" fill-rule="nonzero" opacity="1" class="stroke-orange" class="stroke-orange" stroke="#ffb86c" stroke-linecap="round" stroke-linejoin="miter" stroke-width="3.27731" vectornator:layerName="path"/>
<path d="M235.635 130.441C234.364 131.713 233.156 132.922 231.885 134.194" class="fill-orange" fill="#ffb86c" fill-rule="nonzero" opacity="1" class="stroke-orange" class="stroke-orange" stroke="#ffb86c" stroke-linecap="round" stroke-linejoin="miter" stroke-width="3.27731" vectornator:layerName="path"/>
<path d="M322.603 130.561C323.871 129.292 325.082 128.08 326.353 126.808" class="fill-orange" fill="#ffb86c" fill-rule="nonzero" opacity="1" class="stroke-orange" class="stroke-orange" stroke="#ffb86c" stroke-linecap="round" stroke-linejoin="miter" stroke-width="3.27731" vectornator:layerName="path"/>
<path d="M239.142 177.655C240.413 178.925 241.621 178.925 242.892 177.655" class="fill-orange" fill="#ffb86c" fill-rule="nonzero" opacity="1" class="stroke-orange" class="stroke-orange" stroke="#ffb86c" stroke-linecap="round" stroke-linejoin="miter" stroke-width="3.27731" vectornator:layerName="path"/>
<path d="M318.973 134.194C320.244 132.922 321.452 131.713 322.723 130.441" class="fill-orange" fill="#ffb86c" fill-rule="nonzero" opacity="1" class="stroke-orange" class="stroke-orange" stroke="#ffb86c" stroke-linecap="round" stroke-linejoin="miter" stroke-width="3.27731" vectornator:layerName="path"/>
<path d="M246.398 174.143C247.669 172.873 248.88 171.661 250.148 170.39" class="fill-orange" fill="#ffb86c" fill-rule="nonzero" opacity="1" class="stroke-orange" class="stroke-orange" stroke="#ffb86c" stroke-linecap="round" stroke-linejoin="miter" stroke-width="3.27731" vectornator:layerName="path"/>
<path d="M260.915 170.512C262.183 169.24 263.394 168.634 264.665 168.634" class="fill-orange" fill="#ffb86c" fill-rule="nonzero" opacity="1" class="stroke-orange" class="stroke-orange" stroke="#ffb86c" stroke-linecap="round" stroke-linejoin="miter" stroke-width="3.27731" vectornator:layerName="path"/>
<path d="M340.866 125.053C339.595 125.053 338.387 125.659 337.116 126.931" class="fill-orange" fill="#ffb86c" fill-rule="nonzero" opacity="1" class="stroke-orange" class="stroke-orange" stroke="#ffb86c" stroke-linecap="round" stroke-linejoin="miter" stroke-width="3.27731" vectornator:layerName="path"/>
<path d="M315.346 134.074C316.614 135.343 317.825 135.343 319.096 134.074" class="fill-orange" fill="#ffb86c" fill-rule="nonzero" opacity="1" class="stroke-orange" class="stroke-orange" stroke="#ffb86c" stroke-linecap="round" stroke-linejoin="miter" stroke-width="3.27731" vectornator:layerName="path"/>
<path d="M337.236 126.808C335.968 128.08 334.757 129.292 333.489 130.561" class="fill-orange" fill="#ffb86c" fill-rule="nonzero" opacity="1" class="stroke-orange" class="stroke-orange" stroke="#ffb86c" stroke-linecap="round" stroke-linejoin="miter" stroke-width="3.27731" vectornator:layerName="path"/>
<path d="M260.915 177.655C262.183 178.925 262.789 180.137 262.789 181.409" class="fill-orange" fill="#ffb86c" fill-rule="nonzero" opacity="1" class="stroke-orange" class="stroke-orange" stroke="#ffb86c" stroke-linecap="round" stroke-linejoin="miter" stroke-width="3.27731" vectornator:layerName="path"/>
<path d="M333.609 130.441C332.339 131.713 331.13 132.922 329.86 134.194" class="fill-orange" fill="#ffb86c" fill-rule="nonzero" opacity="1" class="stroke-orange" class="stroke-orange" stroke="#ffb86c" stroke-linecap="round" stroke-linejoin="miter" stroke-width="3.27731" vectornator:layerName="path"/>
<path d="M257.528 184.919C253.718 186.188 251.299 187.4 250.028 188.672" class="fill-orange" fill="#ffb86c" fill-rule="nonzero" opacity="1" class="stroke-orange" class="stroke-orange" stroke="#ffb86c" stroke-linecap="round" stroke-linejoin="miter" stroke-width="3.27731" vectornator:layerName="path"/>
<path d="M326.23 163.126C327.501 164.398 329.314 165.004 331.856 165.004" class="fill-orange" fill="#ffb86c" fill-rule="nonzero" opacity="1" class="stroke-orange" class="stroke-orange" stroke="#ffb86c" stroke-linecap="round" stroke-linejoin="miter" stroke-width="3.27731" vectornator:layerName="path"/>
<path d="M246.521 192.182C245.25 193.454 244.042 194.663 242.771 195.935" class="fill-orange" fill="#ffb86c" fill-rule="nonzero" opacity="1" class="stroke-orange" class="stroke-orange" stroke="#ffb86c" stroke-linecap="round" stroke-linejoin="miter" stroke-width="3.27731" vectornator:layerName="path"/>
<path d="M322.723 148.6C321.452 149.872 320.244 151.081 318.973 152.353" class="fill-orange" fill="#ffb86c" fill-rule="nonzero" opacity="1" class="stroke-orange" class="stroke-orange" stroke="#ffb86c" stroke-linecap="round" stroke-linejoin="miter" stroke-width="3.27731" vectornator:layerName="path"/>
<path d="M355.26 192.182C356.531 193.454 357.739 193.454 359.01 192.182" class="fill-orange" fill="#ffb86c" fill-rule="nonzero" opacity="1" class="stroke-orange" class="stroke-orange" stroke="#ffb86c" stroke-linecap="round" stroke-linejoin="miter" stroke-width="3.27731" vectornator:layerName="path"/>
<path d="M326.353 144.967C325.082 146.239 323.871 147.451 322.603 148.72" class="fill-orange" fill="#ffb86c" fill-rule="nonzero" opacity="1" class="stroke-orange" class="stroke-orange" stroke="#ffb86c" stroke-linecap="round" stroke-linejoin="miter" stroke-width="3.27731" vectornator:layerName="path"/>
<path d="M250.028 206.708C251.299 207.98 253.113 208.586 255.652 208.586" class="fill-orange" fill="#ffb86c" fill-rule="nonzero" opacity="1" class="stroke-orange" class="stroke-orange" stroke="#ffb86c" stroke-linecap="round" stroke-linejoin="miter" stroke-width="3.27731" vectornator:layerName="path"/>
<path d="M319.096 126.931C317.825 125.659 316.614 125.659 315.346 126.931" class="fill-orange" fill="#ffb86c" fill-rule="nonzero" opacity="1" class="stroke-orange" class="stroke-orange" stroke="#ffb86c" stroke-linecap="round" stroke-linejoin="miter" stroke-width="3.27731" vectornator:layerName="path"/>
<path d="M262.669 208.586C265.208 208.586 266.721 207.374 267.355 204.833" class="fill-orange" fill="#ffb86c" fill-rule="nonzero" opacity="1" class="stroke-orange" class="stroke-orange" stroke="#ffb86c" stroke-linecap="round" stroke-linejoin="miter" stroke-width="3.27731" vectornator:layerName="path"/>
<path d="M315.466 126.808C314.195 128.08 312.987 129.292 311.716 130.561" class="fill-orange" fill="#ffb86c" fill-rule="nonzero" opacity="1" class="stroke-orange" class="stroke-orange" stroke="#ffb86c" stroke-linecap="round" stroke-linejoin="miter" stroke-width="3.27731" vectornator:layerName="path"/>
<path d="M269.109 197.81C269.746 195.269 270.651 193.454 271.922 192.182" class="fill-orange" fill="#ffb86c" fill-rule="nonzero" opacity="1" class="stroke-orange" class="stroke-orange" stroke="#ffb86c" stroke-linecap="round" stroke-linejoin="miter" stroke-width="3.27731" vectornator:layerName="path"/>
<path d="M311.836 130.441C310.568 131.713 309.357 132.922 308.086 134.194" class="fill-orange" fill="#ffb86c" fill-rule="nonzero" opacity="1" class="stroke-orange" class="stroke-orange" stroke="#ffb86c" stroke-linecap="round" stroke-linejoin="miter" stroke-width="3.27731" vectornator:layerName="path"/>
<path d="M275.429 188.672C276.7 187.4 277.908 186.188 279.179 184.919" class="fill-orange" fill="#ffb86c" fill-rule="nonzero" opacity="1" class="stroke-orange" class="stroke-orange" stroke="#ffb86c" stroke-linecap="round" stroke-linejoin="miter" stroke-width="3.27731" vectornator:layerName="path"/>
<path d="M308.209 134.074C306.938 135.343 306.333 136.555 306.333 137.824" class="fill-orange" fill="#ffb86c" fill-rule="nonzero" opacity="1" class="stroke-orange" class="stroke-orange" stroke="#ffb86c" stroke-linecap="round" stroke-linejoin="miter" stroke-width="3.27731" vectornator:layerName="path"/>
<path d="M337.116 170.512C338.387 169.24 339.595 168.634 340.866 168.634" class="fill-orange" fill="#ffb86c" fill-rule="nonzero" opacity="1" class="stroke-orange" class="stroke-orange" stroke="#ffb86c" stroke-linecap="round" stroke-linejoin="miter" stroke-width="3.27731" vectornator:layerName="path"/>
<path d="M306.333 137.704C306.333 138.976 308.149 140.185 311.959 141.457" class="fill-orange" fill="#ffb86c" fill-rule="nonzero" opacity="1" class="stroke-orange" class="stroke-orange" stroke="#ffb86c" stroke-linecap="round" stroke-linejoin="miter" stroke-width="3.27731" vectornator:layerName="path"/>
<path d="M289.943 192.182C291.213 193.454 292.424 193.454 293.692 192.182" class="fill-orange" fill="#ffb86c" fill-rule="nonzero" opacity="1" class="stroke-orange" class="stroke-orange" stroke="#ffb86c" stroke-linecap="round" stroke-linejoin="miter" stroke-width="3.27731" vectornator:layerName="path"/>
<path d="M333.729 141.337C329.92 142.606 327.501 143.818 326.23 145.09" class="fill-orange" fill="#ffb86c" fill-rule="nonzero" opacity="1" class="stroke-orange" class="stroke-orange" stroke="#ffb86c" stroke-linecap="round" stroke-linejoin="miter" stroke-width="3.27731" vectornator:layerName="path"/>
<path d="M338.993 137.704C338.993 138.976 337.176 140.185 333.367 141.457" class="fill-orange" fill="#ffb86c" fill-rule="nonzero" opacity="1" class="stroke-orange" class="stroke-orange" stroke="#ffb86c" stroke-linecap="round" stroke-linejoin="miter" stroke-width="3.27731" vectornator:layerName="path"/>
<path d="M337.116 134.074C338.387 135.343 338.993 136.555 338.993 137.824" class="fill-orange" fill="#ffb86c" fill-rule="nonzero" opacity="1" class="stroke-orange" class="stroke-orange" stroke="#ffb86c" stroke-linecap="round" stroke-linejoin="miter" stroke-width="3.27731" vectornator:layerName="path"/>
<path d="M326.23 177.655C327.501 178.925 328.712 178.925 329.98 177.655" class="fill-orange" fill="#ffb86c" fill-rule="nonzero" opacity="1" class="stroke-orange" class="stroke-orange" stroke="#ffb86c" stroke-linecap="round" stroke-linejoin="miter" stroke-width="3.27731" vectornator:layerName="path"/>
<path d="M326.23 152.23C327.501 153.502 327.501 154.714 326.23 155.983" class="fill-orange" fill="#ffb86c" fill-rule="nonzero" opacity="1" class="stroke-orange" class="stroke-orange" stroke="#ffb86c" stroke-linecap="round" stroke-linejoin="miter" stroke-width="3.27731" vectornator:layerName="path"/>
<path d="M315.346 177.655C316.614 178.925 317.825 178.925 319.096 177.655" class="fill-orange" fill="#ffb86c" fill-rule="nonzero" opacity="1" class="stroke-orange" class="stroke-orange" stroke="#ffb86c" stroke-linecap="round" stroke-linejoin="miter" stroke-width="3.27731" vectornator:layerName="path"/>
<path d="M250.028 152.23C251.299 153.502 251.299 154.714 250.028 155.983" class="fill-orange" fill="#ffb86c" fill-rule="nonzero" opacity="1" class="stroke-orange" class="stroke-orange" stroke="#ffb86c" stroke-linecap="round" stroke-linejoin="miter" stroke-width="3.27731" vectornator:layerName="path"/>
<path d="M322.603 174.143C323.871 172.873 325.082 171.661 326.353 170.39" class="fill-orange" fill="#ffb86c" fill-rule="nonzero" opacity="1" class="stroke-orange" class="stroke-orange" stroke="#ffb86c" stroke-linecap="round" stroke-linejoin="miter" stroke-width="3.27731" vectornator:layerName="path"/>
<path d="M246.521 159.496C245.25 160.765 244.042 161.977 242.771 163.249" class="fill-orange" fill="#ffb86c" fill-rule="nonzero" opacity="1" class="stroke-orange" class="stroke-orange" stroke="#ffb86c" stroke-linecap="round" stroke-linejoin="miter" stroke-width="3.27731" vectornator:layerName="path"/>
<path d="M232.005 134.074C230.737 135.343 230.131 136.555 230.131 137.824" class="fill-orange" fill="#ffb86c" fill-rule="nonzero" opacity="1" class="stroke-orange" class="stroke-orange" stroke="#ffb86c" stroke-linecap="round" stroke-linejoin="miter" stroke-width="3.27731" vectornator:layerName="path"/>
<path d="M337.116 177.655C338.387 178.925 338.993 180.137 338.993 181.409" class="fill-orange" fill="#ffb86c" fill-rule="nonzero" opacity="1" class="stroke-orange" class="stroke-orange" stroke="#ffb86c" stroke-linecap="round" stroke-linejoin="miter" stroke-width="3.27731" vectornator:layerName="path"/>
<path d="M239.265 126.808C237.994 128.08 236.783 129.292 235.515 130.561" class="fill-orange" fill="#ffb86c" fill-rule="nonzero" opacity="1" class="stroke-orange" class="stroke-orange" stroke="#ffb86c" stroke-linecap="round" stroke-linejoin="miter" stroke-width="3.27731" vectornator:layerName="path"/>
<path d="M333.729 184.919C329.92 186.188 327.501 187.4 326.23 188.672" class="fill-orange" fill="#ffb86c" fill-rule="nonzero" opacity="1" class="stroke-orange" class="stroke-orange" stroke="#ffb86c" stroke-linecap="round" stroke-linejoin="miter" stroke-width="3.27731" vectornator:layerName="path"/>
<path d="M242.771 177.776C244.042 176.504 245.25 175.294 246.521 174.022" class="fill-orange" fill="#ffb86c" fill-rule="nonzero" opacity="1" class="stroke-orange" class="stroke-orange" stroke="#ffb86c" stroke-linecap="round" stroke-linejoin="miter" stroke-width="3.27731" vectornator:layerName="path"/>
<path d="M322.723 192.182C321.452 193.454 320.244 194.663 318.973 195.935" class="fill-orange" fill="#ffb86c" fill-rule="nonzero" opacity="1" class="stroke-orange" class="stroke-orange" stroke="#ffb86c" stroke-linecap="round" stroke-linejoin="miter" stroke-width="3.27731" vectornator:layerName="path"/>
<path d="M242.892 126.931C241.621 125.659 240.413 125.659 239.142 126.931" class="fill-orange" fill="#ffb86c" fill-rule="nonzero" opacity="1" class="stroke-orange" class="stroke-orange" stroke="#ffb86c" stroke-linecap="round" stroke-linejoin="miter" stroke-width="3.27731" vectornator:layerName="path"/>
<path d="M239.142 134.074C240.413 135.343 241.621 135.343 242.892 134.074" class="fill-orange" fill="#ffb86c" fill-rule="nonzero" opacity="1" class="stroke-orange" class="stroke-orange" stroke="#ffb86c" stroke-linecap="round" stroke-linejoin="miter" stroke-width="3.27731" vectornator:layerName="path"/>
<path d="M326.23 206.708C327.501 207.98 329.314 208.586 331.856 208.586" class="fill-orange" fill="#ffb86c" fill-rule="nonzero" opacity="1" class="stroke-orange" class="stroke-orange" stroke="#ffb86c" stroke-linecap="round" stroke-linejoin="miter" stroke-width="3.27731" vectornator:layerName="path"/>
<path d="M293.692 141.457C292.424 140.185 291.213 140.185 289.943 141.457" class="fill-orange" fill="#ffb86c" fill-rule="nonzero" opacity="1" class="stroke-orange" class="stroke-orange" stroke="#ffb86c" stroke-linecap="round" stroke-linejoin="miter" stroke-width="3.27731" vectornator:layerName="path"/>
<path d="M338.87 208.586C341.412 208.586 342.923 207.374 343.557 204.833" class="fill-orange" fill="#ffb86c" fill-rule="nonzero" opacity="1" class="stroke-orange" class="stroke-orange" stroke="#ffb86c" stroke-linecap="round" stroke-linejoin="miter" stroke-width="3.27731" vectornator:layerName="path"/>
<path d="M290.065 141.337C288.794 142.606 287.586 143.818 286.316 145.09" class="fill-orange" fill="#ffb86c" fill-rule="nonzero" opacity="1" class="stroke-orange" class="stroke-orange" stroke="#ffb86c" stroke-linecap="round" stroke-linejoin="miter" stroke-width="3.27731" vectornator:layerName="path"/>
<path d="M345.313 197.81C345.947 195.269 346.855 193.454 348.123 192.182" class="fill-orange" fill="#ffb86c" fill-rule="nonzero" opacity="1" class="stroke-orange" class="stroke-orange" stroke="#ffb86c" stroke-linecap="round" stroke-linejoin="miter" stroke-width="3.27731" vectornator:layerName="path"/>
<path d="M286.435 144.967C285.167 146.239 283.957 147.451 282.686 148.72" class="fill-orange" fill="#ffb86c" fill-rule="nonzero" opacity="1" class="stroke-orange" class="stroke-orange" stroke="#ffb86c" stroke-linecap="round" stroke-linejoin="miter" stroke-width="3.27731" vectornator:layerName="path"/>
<path d="M351.63 188.672C352.901 187.4 354.112 186.188 355.38 184.919" class="fill-orange" fill="#ffb86c" fill-rule="nonzero" opacity="1" class="stroke-orange" class="stroke-orange" stroke="#ffb86c" stroke-linecap="round" stroke-linejoin="miter" stroke-width="3.27731" vectornator:layerName="path"/>
<path d="M369.774 148.72C371.045 147.451 372.256 146.239 373.524 144.967" class="fill-orange" fill="#ffb86c" fill-rule="nonzero" opacity="1" class="stroke-orange" class="stroke-orange" stroke="#ffb86c" stroke-linecap="round" stroke-linejoin="miter" stroke-width="3.27731" vectornator:layerName="path"/>
<path d="M366.147 192.182C367.418 193.454 368.626 193.454 369.897 192.182" class="fill-orange" fill="#ffb86c" fill-rule="nonzero" opacity="1" class="stroke-orange" class="stroke-orange" stroke="#ffb86c" stroke-linecap="round" stroke-linejoin="miter" stroke-width="3.27731" vectornator:layerName="path"/>
<path d="M298.126 144.281C302.802 140.176 301.234 114.85 309.963 126.364" fill="none" opacity="1" class="stroke-orange" class="stroke-orange" stroke="#ffb86c" stroke-linecap="round" stroke-linejoin="miter" stroke-width="3.27731" vectornator:layerName="path"/>
<path d="M297.976 188.022C302.652 183.918 301.084 158.592 309.812 170.106" fill="none" opacity="1" class="stroke-orange" class="stroke-orange" stroke="#ffb86c" stroke-linecap="round" stroke-linejoin="miter" stroke-width="3.27731" vectornator:layerName="path"/>
<path d="M373.404 188.672C374.674 187.4 375.883 186.188 377.153 184.919" class="fill-orange" fill="#ffb86c" fill-rule="nonzero" opacity="1" class="stroke-orange" class="stroke-orange" stroke="#ffb86c" stroke-linecap="round" stroke-linejoin="miter" stroke-width="3.27731" vectornator:layerName="path"/>
<path d="M271.922 141.457C270.651 140.185 269.746 138.37 269.109 135.829" class="fill-orange" fill="#ffb86c" fill-rule="nonzero" opacity="1" class="stroke-orange" class="stroke-orange" stroke="#ffb86c" stroke-linecap="round" stroke-linejoin="miter" stroke-width="3.27731" vectornator:layerName="path"/>
<path d="M378.907 177.896C378.907 174.083 378.907 170.452 378.907 166.636" class="fill-orange" fill="#ffb86c" fill-rule="nonzero" opacity="1" class="stroke-orange" class="stroke-orange" stroke="#ffb86c" stroke-linecap="round" stroke-linejoin="miter" stroke-width="3.27731" vectornator:layerName="path"/>
<path d="M269.169 136.069C268.535 133.528 267.929 131.107 267.295 128.563" class="fill-orange" fill="#ffb86c" fill-rule="nonzero" opacity="1" class="stroke-orange" class="stroke-orange" stroke="#ffb86c" stroke-linecap="round" stroke-linejoin="miter" stroke-width="3.27731" vectornator:layerName="path"/>
<path d="M351.63 145.09C352.901 143.818 354.112 142.606 355.38 141.337" class="fill-orange" fill="#ffb86c" fill-rule="nonzero" opacity="1" class="stroke-orange" class="stroke-orange" stroke="#ffb86c" stroke-linecap="round" stroke-linejoin="miter" stroke-width="3.27731" vectornator:layerName="path"/>
<path d="M267.355 128.806C266.721 126.265 265.813 125.053 264.542 125.053" class="fill-orange" fill="#ffb86c" fill-rule="nonzero" opacity="1" class="stroke-orange" class="stroke-orange" stroke="#ffb86c" stroke-linecap="round" stroke-linejoin="miter" stroke-width="3.27731" vectornator:layerName="path"/>
<path d="M345.313 154.228C345.947 151.687 346.855 149.872 348.123 148.6" class="fill-orange" fill="#ffb86c" fill-rule="nonzero" opacity="1" class="stroke-orange" class="stroke-orange" stroke="#ffb86c" stroke-linecap="round" stroke-linejoin="miter" stroke-width="3.27731" vectornator:layerName="path"/>
<path d="M264.665 125.053C263.394 125.053 262.183 125.659 260.915 126.931" class="fill-orange" fill="#ffb86c" fill-rule="nonzero" opacity="1" class="stroke-orange" class="stroke-orange" stroke="#ffb86c" stroke-linecap="round" stroke-linejoin="miter" stroke-width="3.27731" vectornator:layerName="path"/>
<path d="M366.267 141.337C364.996 142.606 363.788 143.818 362.517 145.09" class="fill-orange" fill="#ffb86c" fill-rule="nonzero" opacity="1" class="stroke-orange" class="stroke-orange" stroke="#ffb86c" stroke-linecap="round" stroke-linejoin="miter" stroke-width="3.27731" vectornator:layerName="path"/>
<path d="M261.035 126.808C259.764 128.08 258.556 129.292 257.285 130.561" class="fill-orange" fill="#ffb86c" fill-rule="nonzero" opacity="1" class="stroke-orange" class="stroke-orange" stroke="#ffb86c" stroke-linecap="round" stroke-linejoin="miter" stroke-width="3.27731" vectornator:layerName="path"/>
<path d="M343.497 161.491C344.133 158.95 344.736 156.529 345.373 153.988" class="fill-orange" fill="#ffb86c" fill-rule="nonzero" opacity="1" class="stroke-orange" class="stroke-orange" stroke="#ffb86c" stroke-linecap="round" stroke-linejoin="miter" stroke-width="3.27731" vectornator:layerName="path"/>
<path d="M257.408 130.441C256.137 131.713 254.926 132.922 253.658 134.194" class="fill-orange" fill="#ffb86c" fill-rule="nonzero" opacity="1" class="stroke-orange" class="stroke-orange" stroke="#ffb86c" stroke-linecap="round" stroke-linejoin="miter" stroke-width="3.27731" vectornator:layerName="path"/>
<path d="M331.613 165.004C334.152 165.004 336.574 165.004 339.113 165.004" class="fill-orange" fill="#ffb86c" fill-rule="nonzero" opacity="1" class="stroke-orange" class="stroke-orange" stroke="#ffb86c" stroke-linecap="round" stroke-linejoin="miter" stroke-width="3.27731" vectornator:layerName="path"/>
<path d="M293.572 148.72C294.843 147.451 296.051 146.239 297.322 144.967" class="fill-orange" fill="#ffb86c" fill-rule="nonzero" opacity="1" class="stroke-orange" class="stroke-orange" stroke="#ffb86c" stroke-linecap="round" stroke-linejoin="miter" stroke-width="3.27731" vectornator:layerName="path"/>
<path d="M345.373 136.069C344.736 133.528 344.133 131.107 343.497 128.563" class="fill-orange" fill="#ffb86c" fill-rule="nonzero" opacity="1" class="stroke-orange" class="stroke-orange" stroke="#ffb86c" stroke-linecap="round" stroke-linejoin="miter" stroke-width="3.27731" vectornator:layerName="path"/>
<path d="M289.943 148.6C291.213 149.872 292.424 149.872 293.692 148.6" class="fill-orange" fill="#ffb86c" fill-rule="nonzero" opacity="1" class="stroke-orange" class="stroke-orange" stroke="#ffb86c" stroke-linecap="round" stroke-linejoin="miter" stroke-width="3.27731" vectornator:layerName="path"/>
<path d="M362.517 188.672C363.788 187.4 364.996 186.188 366.267 184.919" class="fill-orange" fill="#ffb86c" fill-rule="nonzero" opacity="1" class="stroke-orange" class="stroke-orange" stroke="#ffb86c" stroke-linecap="round" stroke-linejoin="miter" stroke-width="3.27731" vectornator:layerName="path"/>
<path d="M275.429 145.09C276.7 143.818 277.908 142.606 279.179 141.337" class="fill-orange" fill="#ffb86c" fill-rule="nonzero" opacity="1" class="stroke-orange" class="stroke-orange" stroke="#ffb86c" stroke-linecap="round" stroke-linejoin="miter" stroke-width="3.27731" vectornator:layerName="path"/>
<path d="M250.148 188.549C248.88 189.821 247.669 191.033 246.398 192.302" class="fill-orange" fill="#ffb86c" fill-rule="nonzero" opacity="1" class="stroke-orange" class="stroke-orange" stroke="#ffb86c" stroke-linecap="round" stroke-linejoin="miter" stroke-width="3.27731" vectornator:layerName="path"/>
<path d="M322.603 203.198C323.871 201.926 325.082 200.717 326.353 199.445" class="fill-orange" fill="#ffb86c" fill-rule="nonzero" opacity="1" class="stroke-orange" class="stroke-orange" stroke="#ffb86c" stroke-linecap="round" stroke-linejoin="miter" stroke-width="3.27731" vectornator:layerName="path"/>
<path d="M343.497 172.147C344.133 174.689 344.736 177.11 345.373 179.651" class="fill-orange" fill="#ffb86c" fill-rule="nonzero" opacity="1" class="stroke-orange" class="stroke-orange" stroke="#ffb86c" stroke-linecap="round" stroke-linejoin="miter" stroke-width="3.27731" vectornator:layerName="path"/>
<path d="M318.973 206.831C320.244 205.559 321.452 204.347 322.723 203.078" class="fill-orange" fill="#ffb86c" fill-rule="nonzero" opacity="1" class="stroke-orange" class="stroke-orange" stroke="#ffb86c" stroke-linecap="round" stroke-linejoin="miter" stroke-width="3.27731" vectornator:layerName="path"/>
<path d="M267.295 205.076C267.929 202.532 268.535 200.111 269.169 197.57" class="fill-orange" fill="#ffb86c" fill-rule="nonzero" opacity="1" class="stroke-orange" class="stroke-orange" stroke="#ffb86c" stroke-linecap="round" stroke-linejoin="miter" stroke-width="3.27731" vectornator:layerName="path"/>
<path d="M313.47 204.833C316.011 207.374 317.825 207.98 319.096 206.708" class="fill-orange" fill="#ffb86c" fill-rule="nonzero" opacity="1" class="stroke-orange" class="stroke-orange" stroke="#ffb86c" stroke-linecap="round" stroke-linejoin="miter" stroke-width="3.27731" vectornator:layerName="path"/>
<path d="M340.746 168.634C342.014 168.634 342.923 169.846 343.557 172.388" class="fill-orange" fill="#ffb86c" fill-rule="nonzero" opacity="1" class="stroke-orange" class="stroke-orange" stroke="#ffb86c" stroke-linecap="round" stroke-linejoin="miter" stroke-width="3.27731" vectornator:layerName="path"/>
<path d="M306.213 197.57C308.752 200.111 311.171 202.532 313.712 205.076" class="fill-orange" fill="#ffb86c" fill-rule="nonzero" opacity="1" class="stroke-orange" class="stroke-orange" stroke="#ffb86c" stroke-linecap="round" stroke-linejoin="miter" stroke-width="3.27731" vectornator:layerName="path"/>
<path d="M293.572 192.302C294.843 191.033 296.051 189.821 297.322 188.549" class="fill-orange" fill="#ffb86c" fill-rule="nonzero" opacity="1" class="stroke-orange" class="stroke-orange" stroke="#ffb86c" stroke-linecap="round" stroke-linejoin="miter" stroke-width="3.27731" vectornator:layerName="path"/>
<path d="M300.829 192.182C302.1 193.454 303.914 195.269 306.455 197.81" class="fill-orange" fill="#ffb86c" fill-rule="nonzero" opacity="1" class="stroke-orange" class="stroke-orange" stroke="#ffb86c" stroke-linecap="round" stroke-linejoin="miter" stroke-width="3.27731" vectornator:layerName="path"/>
<path d="M329.86 177.776C331.13 176.504 332.339 175.294 333.609 174.022" class="fill-orange" fill="#ffb86c" fill-rule="nonzero" opacity="1" class="stroke-orange" class="stroke-orange" stroke="#ffb86c" stroke-linecap="round" stroke-linejoin="miter" stroke-width="3.27731" vectornator:layerName="path"/>
<path d="M246.398 130.561C247.669 129.292 248.88 128.08 250.148 126.808" class="fill-orange" fill="#ffb86c" fill-rule="nonzero" opacity="1" class="stroke-orange" class="stroke-orange" stroke="#ffb86c" stroke-linecap="round" stroke-linejoin="miter" stroke-width="3.27731" vectornator:layerName="path"/>
<path d="M318.973 177.776C320.244 176.504 321.452 175.294 322.723 174.022" class="fill-orange" fill="#ffb86c" fill-rule="nonzero" opacity="1" class="stroke-orange" class="stroke-orange" stroke="#ffb86c" stroke-linecap="round" stroke-linejoin="miter" stroke-width="3.27731" vectornator:layerName="path"/>
<path d="M260.915 134.074C262.183 135.343 262.789 136.555 262.789 137.824" class="fill-orange" fill="#ffb86c" fill-rule="nonzero" opacity="1" class="stroke-orange" class="stroke-orange" stroke="#ffb86c" stroke-linecap="round" stroke-linejoin="miter" stroke-width="3.27731" vectornator:layerName="path"/>
<path d="M306.333 181.409C306.333 180.137 306.938 178.925 308.209 177.655" class="fill-orange" fill="#ffb86c" fill-rule="nonzero" opacity="1" class="stroke-orange" class="stroke-orange" stroke="#ffb86c" stroke-linecap="round" stroke-linejoin="miter" stroke-width="3.27731" vectornator:layerName="path"/>
<path d="M262.789 137.704C262.789 138.976 260.975 140.185 257.165 141.457" class="fill-orange" fill="#ffb86c" fill-rule="nonzero" opacity="1" class="stroke-orange" class="stroke-orange" stroke="#ffb86c" stroke-linecap="round" stroke-linejoin="miter" stroke-width="3.27731" vectornator:layerName="path"/>
<path d="M311.959 185.039C308.149 183.767 306.333 182.558 306.333 181.286" class="fill-orange" fill="#ffb86c" fill-rule="nonzero" opacity="1" class="stroke-orange" class="stroke-orange" stroke="#ffb86c" stroke-linecap="round" stroke-linejoin="miter" stroke-width="3.27731" vectornator:layerName="path"/>
<path d="M286.316 188.672C287.586 187.4 288.794 186.188 290.065 184.919" class="fill-orange" fill="#ffb86c" fill-rule="nonzero" opacity="1" class="stroke-orange" class="stroke-orange" stroke="#ffb86c" stroke-linecap="round" stroke-linejoin="miter" stroke-width="3.27731" vectornator:layerName="path"/>
<path d="M242.771 134.194C244.042 132.922 245.25 131.713 246.521 130.441" class="fill-orange" fill="#ffb86c" fill-rule="nonzero" opacity="1" class="stroke-orange" class="stroke-orange" stroke="#ffb86c" stroke-linecap="round" stroke-linejoin="miter" stroke-width="3.27731" vectornator:layerName="path"/>
<path d="M282.686 192.302C283.957 191.033 285.167 189.821 286.435 188.549" class="fill-orange" fill="#ffb86c" fill-rule="nonzero" opacity="1" class="stroke-orange" class="stroke-orange" stroke="#ffb86c" stroke-linecap="round" stroke-linejoin="miter" stroke-width="3.27731" vectornator:layerName="path"/>
<path d="M343.497 205.076C344.133 202.532 344.736 200.111 345.373 197.57" class="fill-orange" fill="#ffb86c" fill-rule="nonzero" opacity="1" class="stroke-orange" class="stroke-orange" stroke="#ffb86c" stroke-linecap="round" stroke-linejoin="miter" stroke-width="3.27731" vectornator:layerName="path"/>
<path d="M279.059 192.182C280.327 193.454 281.538 193.454 282.808 192.182" class="fill-orange" fill="#ffb86c" fill-rule="nonzero" opacity="1" class="stroke-orange" class="stroke-orange" stroke="#ffb86c" stroke-linecap="round" stroke-linejoin="miter" stroke-width="3.27731" vectornator:layerName="path"/>
<path d="M373.404 145.09C374.674 143.818 375.883 142.606 377.153 141.337" class="fill-orange" fill="#ffb86c" fill-rule="nonzero" opacity="1" class="stroke-orange" class="stroke-orange" stroke="#ffb86c" stroke-linecap="round" stroke-linejoin="miter" stroke-width="3.27731" vectornator:layerName="path"/>
<path d="M257.528 141.337C253.718 142.606 251.299 143.818 250.028 145.09" class="fill-orange" fill="#ffb86c" fill-rule="nonzero" opacity="1" class="stroke-orange" class="stroke-orange" stroke="#ffb86c" stroke-linecap="round" stroke-linejoin="miter" stroke-width="3.27731" vectornator:layerName="path"/>
<path d="M369.774 192.302C371.045 191.033 372.256 189.821 373.524 188.549" class="fill-orange" fill="#ffb86c" fill-rule="nonzero" opacity="1" class="stroke-orange" class="stroke-orange" stroke="#ffb86c" stroke-linecap="round" stroke-linejoin="miter" stroke-width="3.27731" vectornator:layerName="path"/>
<path d="M250.148 144.967C248.88 146.239 247.669 147.451 246.398 148.72" class="fill-orange" fill="#ffb86c" fill-rule="nonzero" opacity="1" class="stroke-orange" class="stroke-orange" stroke="#ffb86c" stroke-linecap="round" stroke-linejoin="miter" stroke-width="3.27731" vectornator:layerName="path"/>
<path d="M378.907 167.002C378.907 163.186 378.907 159.556 378.907 155.743" class="fill-orange" fill="#ffb86c" fill-rule="nonzero" opacity="1" class="stroke-orange" class="stroke-orange" stroke="#ffb86c" stroke-linecap="round" stroke-linejoin="miter" stroke-width="3.27731" vectornator:layerName="path"/>
<path d="M246.521 148.6C245.25 149.872 244.042 151.081 242.771 152.353" class="fill-orange" fill="#ffb86c" fill-rule="nonzero" opacity="1" class="stroke-orange" class="stroke-orange" stroke="#ffb86c" stroke-linecap="round" stroke-linejoin="miter" stroke-width="3.27731" vectornator:layerName="path"/>
<path d="M369.897 141.457C368.626 140.185 367.418 140.185 366.147 141.457" class="fill-orange" fill="#ffb86c" fill-rule="nonzero" opacity="1" class="stroke-orange" class="stroke-orange" stroke="#ffb86c" stroke-linecap="round" stroke-linejoin="miter" stroke-width="3.27731" vectornator:layerName="path"/>
<path d="M267.295 172.147C267.929 174.689 268.535 177.11 269.169 179.651" class="fill-orange" fill="#ffb86c" fill-rule="nonzero" opacity="1" class="stroke-orange" class="stroke-orange" stroke="#ffb86c" stroke-linecap="round" stroke-linejoin="miter" stroke-width="3.27731" vectornator:layerName="path"/>
<path d="M338.87 165.004C341.412 165.004 342.923 163.792 343.557 161.251" class="fill-orange" fill="#ffb86c" fill-rule="nonzero" opacity="1" class="stroke-orange" class="stroke-orange" stroke="#ffb86c" stroke-linecap="round" stroke-linejoin="miter" stroke-width="3.27731" vectornator:layerName="path"/>
<path d="M264.542 168.634C265.813 168.634 266.721 169.846 267.355 172.388" class="fill-orange" fill="#ffb86c" fill-rule="nonzero" opacity="1" class="stroke-orange" class="stroke-orange" stroke="#ffb86c" stroke-linecap="round" stroke-linejoin="miter" stroke-width="3.27731" vectornator:layerName="path"/>
<path d="M343.557 128.806C342.923 126.265 342.014 125.053 340.746 125.053" class="fill-orange" fill="#ffb86c" fill-rule="nonzero" opacity="1" class="stroke-orange" class="stroke-orange" stroke="#ffb86c" stroke-linecap="round" stroke-linejoin="miter" stroke-width="3.27731" vectornator:layerName="path"/>
<path d="M236.434 220.175C239.791 217.497 241.621 207.98 242.892 206.708" class="fill-orange" fill="#ffb86c" fill-rule="nonzero" opacity="1" class="stroke-orange" class="stroke-orange" stroke="#ffb86c" stroke-linecap="round" stroke-linejoin="miter" stroke-width="3.27731" vectornator:layerName="path"/>
<path d="M358.89 192.302C360.158 191.033 361.369 189.821 362.64 188.549" class="fill-orange" fill="#ffb86c" fill-rule="nonzero" opacity="1" class="stroke-orange" class="stroke-orange" stroke="#ffb86c" stroke-linecap="round" stroke-linejoin="miter" stroke-width="3.27731" vectornator:layerName="path"/>
<path d="M242.771 206.831C244.042 205.559 245.25 204.347 246.521 203.078" class="fill-orange" fill="#ffb86c" fill-rule="nonzero" opacity="1" class="stroke-orange" class="stroke-orange" stroke="#ffb86c" stroke-linecap="round" stroke-linejoin="miter" stroke-width="3.27731" vectornator:layerName="path"/>
<path d="M271.802 192.302C273.07 191.033 274.281 189.821 275.549 188.549" class="fill-orange" fill="#ffb86c" fill-rule="nonzero" opacity="1" class="stroke-orange" class="stroke-orange" stroke="#ffb86c" stroke-linecap="round" stroke-linejoin="miter" stroke-width="3.27731" vectornator:layerName="path"/>
<path d="M246.398 203.198C247.669 201.926 248.88 200.717 250.148 199.445" class="fill-orange" fill="#ffb86c" fill-rule="nonzero" opacity="1" class="stroke-orange" class="stroke-orange" stroke="#ffb86c" stroke-linecap="round" stroke-linejoin="miter" stroke-width="3.27731" vectornator:layerName="path"/>
<path d="M271.802 148.72C273.07 147.451 274.281 146.239 275.549 144.967" class="fill-orange" fill="#ffb86c" fill-rule="nonzero" opacity="1" class="stroke-orange" class="stroke-orange" stroke="#ffb86c" stroke-linecap="round" stroke-linejoin="miter" stroke-width="3.27731" vectornator:layerName="path"/>
<path d="M308.086 177.776C309.357 176.504 310.568 175.294 311.836 174.022" class="fill-orange" fill="#ffb86c" fill-rule="nonzero" opacity="1" class="stroke-orange" class="stroke-orange" stroke="#ffb86c" stroke-linecap="round" stroke-linejoin="miter" stroke-width="3.27731" vectornator:layerName="path"/>
<path d="M269.109 154.228C269.746 151.687 270.651 149.872 271.922 148.6" class="fill-orange" fill="#ffb86c" fill-rule="nonzero" opacity="1" class="stroke-orange" class="stroke-orange" stroke="#ffb86c" stroke-linecap="round" stroke-linejoin="miter" stroke-width="3.27731" vectornator:layerName="path"/>
<path d="M319.096 188.672C317.825 187.4 315.406 186.188 311.596 184.919" class="fill-orange" fill="#ffb86c" fill-rule="nonzero" opacity="1" class="stroke-orange" class="stroke-orange" stroke="#ffb86c" stroke-linecap="round" stroke-linejoin="miter" stroke-width="3.27731" vectornator:layerName="path"/>
<path d="M267.295 161.491C267.929 158.95 268.535 156.529 269.169 153.988" class="fill-orange" fill="#ffb86c" fill-rule="nonzero" opacity="1" class="stroke-orange" class="stroke-orange" stroke="#ffb86c" stroke-linecap="round" stroke-linejoin="miter" stroke-width="3.27731" vectornator:layerName="path"/>
<path d="M348.003 192.302C349.274 191.033 350.482 189.821 351.753 188.549" class="fill-orange" fill="#ffb86c" fill-rule="nonzero" opacity="1" class="stroke-orange" class="stroke-orange" stroke="#ffb86c" stroke-linecap="round" stroke-linejoin="miter" stroke-width="3.27731" vectornator:layerName="path"/>
<path d="M242.892 188.672C241.621 187.4 239.202 186.188 235.392 184.919" class="fill-orange" fill="#ffb86c" fill-rule="nonzero" opacity="1" class="stroke-orange" class="stroke-orange" stroke="#ffb86c" stroke-linecap="round" stroke-linejoin="miter" stroke-width="3.27731" vectornator:layerName="path"/>
<path d="M377.033 185.039C378.301 183.767 378.907 181.346 378.907 177.533" class="fill-orange" fill="#ffb86c" fill-rule="nonzero" opacity="1" class="stroke-orange" class="stroke-orange" stroke="#ffb86c" stroke-linecap="round" stroke-linejoin="miter" stroke-width="3.27731" vectornator:layerName="path"/>
<path d="M235.755 185.039C231.945 183.767 230.131 182.558 230.131 181.286" class="fill-orange" fill="#ffb86c" fill-rule="nonzero" opacity="1" class="stroke-orange" class="stroke-orange" stroke="#ffb86c" stroke-linecap="round" stroke-linejoin="miter" stroke-width="3.27731" vectornator:layerName="path"/>
<path d="M362.64 144.967C361.369 146.239 360.158 147.451 358.89 148.72" class="fill-orange" fill="#ffb86c" fill-rule="nonzero" opacity="1" class="stroke-orange" class="stroke-orange" stroke="#ffb86c" stroke-linecap="round" stroke-linejoin="miter" stroke-width="3.27731" vectornator:layerName="path"/>
<path d="M230.131 181.409C230.131 180.137 230.737 178.925 232.005 177.655" class="fill-orange" fill="#ffb86c" fill-rule="nonzero" opacity="1" class="stroke-orange" class="stroke-orange" stroke="#ffb86c" stroke-linecap="round" stroke-linejoin="miter" stroke-width="3.27731" vectornator:layerName="path"/>
<path d="M262.789 181.286C262.789 182.558 260.975 183.767 257.165 185.039" class="fill-orange" fill="#ffb86c" fill-rule="nonzero" opacity="1" class="stroke-orange" class="stroke-orange" stroke="#ffb86c" stroke-linecap="round" stroke-linejoin="miter" stroke-width="3.27731" vectornator:layerName="path"/>
<path d="M231.885 177.776C233.156 176.504 234.364 175.294 235.635 174.022" class="fill-orange" fill="#ffb86c" fill-rule="nonzero" opacity="1" class="stroke-orange" class="stroke-orange" stroke="#ffb86c" stroke-linecap="round" stroke-linejoin="miter" stroke-width="3.27731" vectornator:layerName="path"/>
<path d="M333.489 174.143C334.757 172.873 335.968 171.661 337.236 170.39" class="fill-orange" fill="#ffb86c" fill-rule="nonzero" opacity="1" class="stroke-orange" class="stroke-orange" stroke="#ffb86c" stroke-linecap="round" stroke-linejoin="miter" stroke-width="3.27731" vectornator:layerName="path"/>
<path d="M235.515 174.143C236.783 172.873 237.994 171.661 239.265 170.39" class="fill-orange" fill="#ffb86c" fill-rule="nonzero" opacity="1" class="stroke-orange" class="stroke-orange" stroke="#ffb86c" stroke-linecap="round" stroke-linejoin="miter" stroke-width="3.27731" vectornator:layerName="path"/>
<path d="M338.993 181.286C338.993 182.558 337.176 183.767 333.367 185.039" class="fill-orange" fill="#ffb86c" fill-rule="nonzero" opacity="1" class="stroke-orange" class="stroke-orange" stroke="#ffb86c" stroke-linecap="round" stroke-linejoin="miter" stroke-width="3.27731" vectornator:layerName="path"/>
<path d="M262.669 165.004C265.208 165.004 266.721 163.792 267.355 161.251" class="fill-orange" fill="#ffb86c" fill-rule="nonzero" opacity="1" class="stroke-orange" class="stroke-orange" stroke="#ffb86c" stroke-linecap="round" stroke-linejoin="miter" stroke-width="3.27731" vectornator:layerName="path"/>
<path d="M366.147 148.6C367.418 149.872 368.626 149.872 369.897 148.6" class="fill-orange" fill="#ffb86c" fill-rule="nonzero" opacity="1" class="stroke-orange" class="stroke-orange" stroke="#ffb86c" stroke-linecap="round" stroke-linejoin="miter" stroke-width="3.27731" vectornator:layerName="path"/>
<path d="M255.412 165.004C257.951 165.004 260.37 165.004 262.911 165.004" class="fill-orange" fill="#ffb86c" fill-rule="nonzero" opacity="1" class="stroke-orange" class="stroke-orange" stroke="#ffb86c" stroke-linecap="round" stroke-linejoin="miter" stroke-width="3.27731" vectornator:layerName="path"/>
<path d="M348.123 141.457C346.855 140.185 345.947 138.37 345.313 135.829" class="fill-orange" fill="#ffb86c" fill-rule="nonzero" opacity="1" class="stroke-orange" class="stroke-orange" stroke="#ffb86c" stroke-linecap="round" stroke-linejoin="miter" stroke-width="3.27731" vectornator:layerName="path"/>
<path d="M250.028 163.126C251.299 164.398 253.113 165.004 255.652 165.004" class="fill-orange" fill="#ffb86c" fill-rule="nonzero" opacity="1" class="stroke-orange" class="stroke-orange" stroke="#ffb86c" stroke-linecap="round" stroke-linejoin="miter" stroke-width="3.27731" vectornator:layerName="path"/>
<path d="M311.716 174.143C312.987 172.873 314.195 171.661 315.466 170.39" class="fill-orange" fill="#ffb86c" fill-rule="nonzero" opacity="1" class="stroke-orange" class="stroke-orange" stroke="#ffb86c" stroke-linecap="round" stroke-linejoin="miter" stroke-width="3.27731" vectornator:layerName="path"/>
<path d="M348.003 148.72C349.274 147.451 350.482 146.239 351.753 144.967" class="fill-orange" fill="#ffb86c" fill-rule="nonzero" opacity="1" class="stroke-orange" class="stroke-orange" stroke="#ffb86c" stroke-linecap="round" stroke-linejoin="miter" stroke-width="3.27731" vectornator:layerName="path"/>
<path d="M255.412 208.586C257.951 208.586 260.37 208.586 262.911 208.586" class="fill-orange" fill="#ffb86c" fill-rule="nonzero" opacity="1" class="stroke-orange" class="stroke-orange" stroke="#ffb86c" stroke-linecap="round" stroke-linejoin="miter" stroke-width="3.27731" vectornator:layerName="path"/>
<path d="M331.613 208.586C334.152 208.586 336.574 208.586 339.113 208.586" class="fill-orange" fill="#ffb86c" fill-rule="nonzero" opacity="1" class="stroke-orange" class="stroke-orange" stroke="#ffb86c" stroke-linecap="round" stroke-linejoin="miter" stroke-width="3.27731" vectornator:layerName="path"/>
<path d="M250.028 177.655C251.299 178.925 252.507 178.925 253.778 177.655" class="fill-orange" fill="#ffb86c" fill-rule="nonzero" opacity="1" class="stroke-orange" class="stroke-orange" stroke="#ffb86c" stroke-linecap="round" stroke-linejoin="miter" stroke-width="3.27731" vectornator:layerName="path"/>
<path d="M253.658 177.776C254.926 176.504 256.137 175.294 257.408 174.022" class="fill-orange" fill="#ffb86c" fill-rule="nonzero" opacity="1" class="stroke-orange" class="stroke-orange" stroke="#ffb86c" stroke-linecap="round" stroke-linejoin="miter" stroke-width="3.27731" vectornator:layerName="path"/>
<path d="M257.285 174.143C258.556 172.873 259.764 171.661 261.035 170.39" class="fill-orange" fill="#ffb86c" fill-rule="nonzero" opacity="1" class="stroke-orange" class="stroke-orange" stroke="#ffb86c" stroke-linecap="round" stroke-linejoin="miter" stroke-width="3.27731" vectornator:layerName="path"/>
<path d="M377.033 141.457C378.301 140.185 378.907 138.573 378.907 136.452" class="fill-orange" fill="#ffb86c" fill-rule="nonzero" opacity="1" class="stroke-orange" class="stroke-orange" stroke="#ffb86c" stroke-linecap="round" stroke-linejoin="miter" stroke-width="3.27731" vectornator:layerName="path"/>
<path d="M377.033 192.182C382.682 197.736 373.61 202.509 380.944 208.198" fill="none" opacity="1" class="stroke-orange" class="stroke-orange" stroke="#ffb86c" stroke-linecap="round" stroke-linejoin="miter" stroke-width="3.27731" vectornator:layerName="path"/>
<path d="M378.931 136.349C380.978 122.244 360.856 125.69 374.934 114.496" fill="none" opacity="1" class="stroke-orange" class="stroke-orange" stroke="#ffb86c" stroke-linecap="round" stroke-linejoin="miter" stroke-width="3.27731" vectornator:layerName="path"/>
</g>
<path d="M297.008 256.828C259.077 253.388 227.347 226.563 217.625 189.715C213.821 175.298 213.821 158.061 217.625 143.644C226.799 108.872 255.194 83.1836 290.99 77.2722C297.616 76.1779 312.45 76.1779 319.077 77.2722C358.18 83.7299 387.911 113.486 394.363 152.624C396.117 163.259 395.309 178.846 392.441 189.715C383.288 224.407 354.707 250.306 319.244 256.044C315.022 256.728 301.252 257.213 297.008 256.828ZM318.241 251.401C368.243 243.152 400.205 194.882 388.096 145.9C379.845 112.523 352.46 87.5093 318.073 81.9385C311.535 80.8793 298.163 80.8781 291.826 81.9363C254.564 88.1579 226.361 116.417 220.374 153.531C219.362 159.806 219.287 172.789 220.227 178.894C226.377 218.813 258.088 248.677 298.011 252.148C302.021 252.496 314.365 252.041 318.241 251.401L318.241 251.401Z" class="fill-highlight" fill="#6272a4" fill-rule="nonzero" opacity="1" stroke="none" vectornator:layerName="path"/>
</g>
<path d="M178.87 593.689C178.87 392.118 342.38 228.712 544.081 228.712C745.781 228.712 909.292 392.118 909.292 593.689C909.292 795.26 745.781 958.665 544.081 958.665C342.38 958.665 178.87 795.26 178.87 593.689Z" class="fill-purple" fill="#bd93f9" fill-opacity="0" fill-rule="nonzero" opacity="1" class="stroke-pink" stroke="#ff79c6" stroke-linecap="butt" stroke-linejoin="miter" stroke-width="10" vectornator:layerName="Oval 5"/>
<g opacity="1" vectornator:layerName="Group 2">
<path d="M291.449 473.798L290.261 472.586L292.433 469.956C295.92 465.735 299.382 462.886 306.851 458.092C312.58 454.415 315.582 452.231 320.307 448.304C325.621 443.887 328.731 441.824 335.172 438.443C341.528 435.108 345.347 432.07 346.821 429.177C347.293 428.251 347.086 426.692 346.391 425.941C345.898 425.408 346.192 424.793 347.363 423.911C348.917 422.74 348.976 422.752 349.888 424.429C352.783 429.753 348.743 435.521 338.228 441.074C329.826 445.512 326.878 447.533 318.362 454.696C316.597 456.18 315.519 456.954 312.249 459.083C300.89 466.48 298.853 468.091 295.161 472.601C292.881 475.386 292.977 475.355 291.449 473.798ZM386.067 471.047C383.272 463.591 382.792 455.263 384.62 445.949C384.83 444.879 385.34 442.313 385.752 440.248C386.584 436.079 386.744 432.012 386.18 429.345L385.845 427.758L386.967 426.237C388.534 424.114 388.54 424.116 389.39 426.684C390.348 429.581 390.508 436.116 389.708 439.692C386.789 452.751 386.547 459.445 388.723 466.924L389.567 469.823L388.295 471.026C386.724 472.511 386.617 472.512 386.067 471.047ZM330.646 452.775C327.581 451.944 327.557 451.749 330.303 449.986C331.564 449.176 331.658 449.159 333.238 449.451C336.855 450.12 342.018 448.68 346.931 445.631C353.36 441.643 356.443 437.833 360.29 429.125C365.342 417.69 368.422 413.834 373.723 412.305C376.391 411.535 381.437 413.061 380.981 414.498C380.731 415.286 379.442 417.206 379.237 417.094C373.357 413.881 369.759 416.995 363.89 430.376C359.348 440.732 355.067 445.638 346.684 450.094C341.108 453.058 335.281 454.032 330.646 452.775ZM313.361 446.657C311.759 446.134 306.302 445.254 304.663 445.254C303.052 445.254 298.403 443.935 296.235 442.863C289.893 439.726 288.79 433.522 293.3 426.357C296.439 421.369 297.261 417.642 295.642 415.725C295.144 415.135 295.306 414.878 296.845 413.819C298.298 412.818 298.416 412.862 299.376 414.754C301.156 418.265 300.372 421.923 296.458 428.365C294.208 432.069 293.782 435.187 295.224 437.412C295.64 438.054 296.082 438.58 296.207 438.58C296.332 438.58 296.773 438.825 297.187 439.124C298.483 440.06 302.117 441.082 305.654 441.505C310.633 442.1 312.351 442.424 315.444 443.354C318.777 444.357 318.916 444.465 317.936 445.299C317.515 445.657 316.97 446.158 316.724 446.413C316.035 447.13 315.031 447.203 313.361 446.657ZM305.998 433.303C302.8 432.942 298.912 432.11 298.918 431.789C298.921 431.624 299.296 430.894 299.752 430.168C300.699 428.657 300.569 428.682 304.608 429.267C311.876 430.321 314.096 429.718 318.265 425.557C322.798 421.031 324.511 416.954 322.907 414.504C322.388 413.711 322.54 413.45 324.187 412.308C325.444 411.435 325.651 411.505 326.488 413.084C328.788 417.424 325.453 424.879 318.853 430.15C314.939 433.276 312.043 433.986 305.998 433.303ZM326.419 432.282C324.013 431.497 323.52 430.981 324.43 430.201C324.712 429.959 325.149 429.466 325.402 429.104C325.823 428.504 326.031 428.454 327.816 428.527C330.115 428.621 331.213 427.972 335.727 423.853C337.103 422.599 339.978 420.155 342.118 418.423C349.298 412.61 350.17 410.816 348.069 406.178L347.213 404.288L348.469 403.032C349.967 401.532 350.099 401.59 351.338 404.288C354.396 410.951 353.001 414.63 345.035 420.913C342.705 422.751 340.488 424.631 336.95 427.769C332.354 431.845 329.211 433.193 326.419 432.282ZM373.098 429.953C369.968 429.313 368.99 428.298 369.781 426.51C370.514 424.852 370.771 424.766 372.404 425.635C374.041 426.506 374.53 426.513 376.295 425.69C380.103 423.916 384.458 417.608 385.714 412.048C386.686 407.748 386.555 405.589 384.617 394.044C383.37 386.616 383.415 379.363 384.74 374.006C385.526 370.828 386.441 368.224 386.771 368.224C387.423 368.224 389.743 370.811 389.5 371.266C387.224 375.522 386.992 385.768 388.914 397.145C390.434 406.142 390.438 409.866 388.933 414.525C385.898 423.919 378.559 431.069 373.098 429.953L373.098 429.953ZM286.169 425.525C280.88 420.313 282.39 415.229 291.191 408.614C297.289 404.031 298.405 401.887 297.094 397.272C296.965 396.817 297.22 396.518 298.379 395.767C300.073 394.668 300.256 394.775 300.989 397.3C302.495 402.486 300.592 406.109 293.469 411.612C289.316 414.821 287.149 417.273 286.962 418.975C286.808 420.375 287.044 420.906 288.493 422.427C290.292 424.315 290.237 424.038 289.164 425.784C288.101 427.513 288.194 427.521 286.169 425.525ZM313.524 422.764C309.777 417.353 311.289 412.609 318.518 407.097C324.085 402.852 325.412 400.334 323.795 397.092L323.336 396.171L324.53 395.137C326.105 393.773 326.476 393.81 327.184 395.407C329.644 400.958 327.816 404.868 320.036 410.693C315.44 414.135 314.481 416.456 316.229 419.913C317.046 421.529 317.055 421.483 315.615 423.076C314.701 424.088 314.41 424.044 313.524 422.764ZM338.25 414.267C335.152 407.714 338.024 401.177 347.029 394.288C352.509 390.095 357.703 389.783 361.344 393.427C363.202 395.287 365.031 400.233 365.032 403.402C365.033 404.166 365.181 406.56 365.363 408.72L365.692 412.648L364.324 414.209C363.572 415.067 362.873 415.771 362.771 415.773C362.438 415.779 361.999 413.212 361.702 409.52C360.93 399.948 360.589 398.386 358.834 396.385C355.898 393.038 351.868 394.384 345.288 400.909C341.205 404.957 339.907 408.655 341.39 412.011C342.147 413.725 342.199 413.547 340.597 414.744C338.891 416.019 339.097 416.061 338.25 414.267ZM285.751 405.733C281.958 401.297 283.906 396.398 291.499 391.277C292.902 390.331 295.863 388.282 298.079 386.723C305.287 381.653 307.12 380.812 310.265 381.134C312.362 381.349 315.063 382.655 317.031 384.405L318.223 385.465L316.973 386.577C315.508 387.879 315.329 387.908 314.27 387.016C310.25 383.63 307.819 384.127 300.024 389.926C298.878 390.779 296.502 392.458 294.745 393.658C287.251 398.774 286.448 400.348 289.328 404.266C289.737 404.822 289.696 404.903 288.523 405.865C286.983 407.128 286.943 407.126 285.751 405.733ZM313.806 404.963C312.149 403.13 311.868 399.195 313.199 396.471C314.935 392.92 324.286 384.864 328.578 383.224C333.588 381.309 336.607 382.729 340.979 389.058C343.384 392.539 343.376 392.482 341.632 393.895C340.394 394.898 340.495 394.968 337.996 391.368C333.35 384.677 331.494 384.609 323.821 390.854C316.505 396.808 315.146 398.955 316.554 402.328C317.046 403.507 317.071 403.454 315.503 404.581C314.312 405.437 314.248 405.451 313.806 404.963ZM289.726 386.082C288.464 383.28 288.306 382.516 288.075 378.096C287.948 375.648 287.684 372.975 287.488 372.155L287.133 370.664L288.609 369.254L290.085 367.845L290.426 368.66C291.192 370.493 291.688 373.665 291.688 376.726C291.688 380.182 292.025 382.255 292.853 383.893C293.537 385.244 293.438 385.473 291.721 386.531L290.318 387.395L289.726 386.082Z" class="fill-orange" fill="#ffb86c" fill-rule="nonzero" opacity="1" class="stroke-orange" class="stroke-orange" stroke="#ffb86c" stroke-linecap="butt" stroke-linejoin="miter" stroke-width="0.374539" vectornator:layerName="path"/>
<path d="M331.702 495.113C300.183 492.255 273.816 469.964 265.738 439.345C262.577 427.364 262.577 413.041 265.738 401.061C273.361 372.166 296.956 350.82 326.701 345.908C332.208 344.999 344.534 344.999 350.04 345.908C382.534 351.274 407.24 376.001 412.601 408.523C414.058 417.36 413.387 430.313 411.004 439.345C403.398 468.172 379.649 489.694 350.179 494.462C346.671 495.03 335.229 495.433 331.702 495.113ZM349.346 490.604C390.896 483.749 417.455 443.638 407.393 402.936C400.537 375.201 377.781 354.415 349.207 349.786C343.774 348.905 332.662 348.905 327.396 349.784C296.433 354.954 272.997 378.437 268.022 409.277C267.181 414.491 267.118 425.279 267.9 430.353C273.01 463.524 299.361 488.34 332.536 491.224C335.868 491.513 346.125 491.135 349.346 490.604L349.346 490.604Z" class="fill-highlight" fill="#6272a4" fill-rule="nonzero" opacity="1" stroke="none" vectornator:layerName="path"/>
</g>
<path d="M345.796 649.707C345.796 507.133 461.449 391.555 604.114 391.555C746.78 391.555 862.433 507.133 862.433 649.707C862.433 792.281 746.78 907.859 604.114 907.859C461.449 907.859 345.796 792.281 345.796 649.707Z" class="fill-purple" fill="#bd93f9" fill-opacity="0" fill-rule="nonzero" opacity="1" class="stroke-blue" stroke="#8be9fd" stroke-linecap="butt" stroke-linejoin="miter" stroke-width="10" vectornator:layerName="Oval 2"/>
<g opacity="1" vectornator:layerName="Group 3">
<path d="M681.994 600.625C680.374 599.344 680.324 599.13 680.944 596.164C681.301 594.45 681.498 592.87 682.239 585.735C682.967 578.73 684.071 575.923 689.788 566.545C694.111 559.453 694.491 557.248 691.947 554.019C691.35 553.262 690.616 552.324 690.316 551.935L689.769 551.227L691.012 549.929L692.255 548.631L693.838 550.38C696.55 553.377 697.091 554.64 697.073 557.926C697.051 561.778 696.27 563.564 691.058 571.692C687.442 577.331 686.461 580.692 685.54 590.602C685.362 592.514 685.042 594.954 684.83 596.025C684.617 597.095 684.307 598.659 684.141 599.501C683.669 601.887 683.621 601.912 681.994 600.625ZM771.76 601.564C771.959 601.238 771.436 599.307 769.706 593.974C767.302 586.565 765.883 584.399 759.918 579.041L757.731 577.076L759.192 576.026C761.034 574.701 761.033 574.7 765.166 578.783C768.997 582.566 770.484 584.959 772.596 590.741C774.562 596.12 775.182 598.56 774.724 599.112C774.247 599.686 771.539 601.928 771.76 601.564ZM736.766 577.654C733.643 576.969 729.957 574.695 726.455 571.293L724.702 569.591L725.941 568.277C727.441 566.688 727.005 566.621 729.319 568.791C731.887 571.198 734.914 573.211 736.783 573.755C744.073 575.876 758.188 570.081 761.331 563.677C762.233 561.838 762.336 559.216 761.577 557.449C760.961 556.014 760.963 556.008 762.548 555.185C764.336 554.256 764.298 554.251 764.824 555.493C766.252 558.871 766.229 562.169 764.755 565.2C760.968 572.986 745.949 579.669 736.766 577.654ZM703.34 575.851C701.56 575.599 698.101 574.687 696.195 573.969C694.666 573.392 694.614 573.135 695.68 571.444C696.55 570.065 696.453 570.068 700.284 571.299C707.709 573.685 712.084 571.792 721.095 562.293C729.411 553.528 731.012 550.23 730.33 543.261L730.01 539.984L731.312 538.735C732.887 537.225 732.905 537.223 733.285 538.53C734.515 542.763 734.479 549.169 733.207 552.195C731.476 556.317 729.061 559.526 723.067 565.672C714.557 574.398 709.929 576.786 703.34 575.851ZM749.139 567.59C747.555 565.712 746.549 561.02 747.258 558.82C748.611 554.623 751.347 552.454 762.244 546.939C772.164 541.919 773.504 540.577 773.489 535.679C773.483 533.609 773.335 532.763 772.632 530.78L771.783 528.384L772.352 527.602C774.304 524.92 774.445 524.961 775.857 528.626C778.297 534.959 777.778 540.274 774.372 543.837C772.707 545.578 770.238 547.096 763.712 550.391C755.197 554.69 752.519 556.539 751.214 559.021C750.537 560.309 750.863 562.97 751.931 564.863C753.006 566.769 753.051 566.548 751.417 567.377C749.777 568.209 749.669 568.219 749.139 567.59ZM682.173 565.643C678.183 561.576 677.367 557.309 679.659 552.504C680.375 551.002 682.794 547.499 683.815 546.484C684.602 545.702 688.091 541.683 689.211 540.268C691.911 536.858 692.063 534.962 690.042 529.901C689.748 529.164 689.795 529.088 691.034 528.302C692.729 527.225 692.893 527.251 693.57 528.692C696.891 535.765 695.934 538.637 686.871 548.797C681.321 555.019 680.793 558.878 684.913 563.101L686.435 564.661L685.649 566.087C684.636 567.925 684.38 567.892 682.173 565.643ZM715.411 558.978C710.753 552.644 709.606 549.402 709.628 542.632C709.657 533.716 712.608 526.887 717.438 524.56C718.013 524.283 718.7 523.95 718.965 523.82C720.68 522.977 725.846 524.348 725.846 525.646C725.846 526.096 724.654 528.866 724.46 528.866C724.365 528.866 723.863 528.553 723.345 528.171C718.296 524.442 712.647 533.695 713.372 544.508C713.675 549.02 714.798 551.794 718.187 556.402C719.709 558.471 719.693 558.278 718.45 559.698C717.135 561.199 717.024 561.173 715.411 558.978ZM751.479 545.465C745.844 539.591 745.518 532.921 750.277 520.849C753.059 513.792 758.981 511.321 764.953 514.727C766.612 515.673 766.689 515.97 765.706 517.649C764.862 519.09 765.06 519.075 762.697 517.876C757.306 515.142 754.089 518.577 751.361 529.979C749.938 535.928 750.692 539.186 754.395 543.078C756.796 545.603 756.752 545.343 754.951 546.378C753.118 547.429 753.447 547.516 751.479 545.465ZM680.103 542.141C673.549 533.728 677.894 526.131 693.893 518.033C702.98 513.434 706.712 514.815 710.469 524.171C710.863 525.154 710.849 525.214 709.815 526.868C709.234 527.799 708.652 528.532 708.522 528.496C708.393 528.46 707.57 526.863 706.694 524.946C704.735 520.661 704.103 519.774 702.711 519.356C700.518 518.699 694.801 521.29 687.19 526.39C680.78 530.686 679.278 535.331 682.905 539.645C683.859 540.779 683.808 541.073 682.425 542.431L681.238 543.597L680.103 542.141ZM718.536 538.97C717.498 538.793 717.38 538.357 717.892 536.595L718.321 535.118L720.501 535.217C725.401 535.44 727.019 533.64 730.707 523.861C733.342 516.874 734.786 515.152 737.981 515.181C739.859 515.198 740.716 515.529 743.212 517.207C746.713 519.56 746.688 519.518 745.925 521.668C745.353 523.279 745.19 523.309 743.599 522.094C737.314 517.293 737.159 517.369 733.492 527.059C731.429 532.51 730.859 533.565 728.891 535.581C726.054 538.487 722.508 539.647 718.536 538.97ZM757.66 529.808C755.321 529.468 755.253 529.358 756.008 527.14L756.44 525.871L758.717 526.007C763.305 526.281 766.978 523.666 769.539 518.299C771.666 513.841 772.148 511.086 772.534 501.183C772.949 490.547 772.882 490.754 775.184 492.971L776.593 494.328L776.513 495.954C776.469 496.849 776.293 500.459 776.121 503.977C775.802 510.526 775.266 514.137 774.163 517.154C770.974 525.882 764.544 530.812 757.66 529.808ZM683.626 518.368C681.658 514.116 681.136 511.233 680.818 502.865C680.678 499.194 680.448 495.44 680.305 494.522L680.046 492.854L681.47 491.529C683.145 489.971 683.416 489.983 683.648 491.624C684.344 496.551 684.72 500.904 684.727 504.116C684.737 508.773 685.054 511.035 686.126 514.099C686.587 515.415 687.029 516.68 687.109 516.91C687.208 517.195 686.777 517.618 685.767 518.231C683.974 519.319 684.063 519.313 683.626 518.368Z" class="fill-orange" fill="#ffb86c" fill-rule="nonzero" opacity="1" class="stroke-orange" class="stroke-orange" stroke="#ffb86c" stroke-linecap="butt" stroke-linejoin="miter" stroke-width="0.284896" vectornator:layerName="path"/>
<path d="M720.849 620.716C689.329 617.858 662.962 595.568 654.884 564.948C651.723 552.968 651.723 538.644 654.884 526.664C662.507 497.77 686.102 476.424 715.847 471.512C721.354 470.602 733.68 470.602 739.187 471.512C771.68 476.878 796.386 501.604 801.747 534.126C803.204 542.964 802.533 555.916 800.15 564.948C792.544 593.776 768.795 615.297 739.326 620.065C735.817 620.633 724.375 621.036 720.849 620.716ZM738.492 616.207C780.042 609.353 806.601 569.241 796.539 528.539C789.683 500.804 766.928 480.018 738.353 475.389C732.92 474.509 721.808 474.508 716.542 475.387C685.579 480.557 662.143 504.04 657.168 534.88C656.327 540.095 656.264 550.883 657.046 555.956C662.156 589.127 688.507 613.944 721.682 616.827C725.014 617.117 735.271 616.739 738.492 616.207L738.492 616.207Z" class="fill-highlight" fill="#6272a4" fill-rule="nonzero" opacity="1" stroke="none" vectornator:layerName="path"/>
</g>
<g opacity="1" vectornator:layerName="g21848">
<path d="M483.361 751.527C481.893 750.424 481.891 750.321 483.254 747.292C487.865 737.048 493.634 728.606 499.933 722.888C507.932 715.625 509.448 714.028 510.726 711.518C512.006 709.005 512.045 707.414 510.879 705.346C509.948 703.695 509.969 703.648 512.033 702.763C513.556 702.109 513.777 702.251 514.789 704.539C517.134 709.846 514.458 715.006 505.033 723.349C496.368 731.019 490.413 739.573 485.847 750.905C485.101 752.757 485.023 752.777 483.361 751.527ZM569.364 751.601C569.272 751.256 569.08 750.537 568.937 750.001C568.795 749.466 568.304 747.777 567.847 746.247C567.39 744.718 566.681 742.215 566.272 740.685C565.863 739.156 565.291 737.029 565.002 735.958C563.676 731.054 563.54 729.979 563.557 724.556C563.567 721.243 563.758 717.82 564.067 715.379C564.592 711.231 564.533 707.156 563.909 704.485L563.573 703.046L564.84 701.34C566.184 699.53 566.216 699.531 566.876 701.39C568.205 705.13 568.456 710.043 567.692 717.326C566.661 727.157 566.904 729.107 570.905 743.104C571.81 746.269 572.55 749.061 572.55 749.308C572.55 749.577 572.689 749.684 572.897 749.576C573.409 749.312 572.033 750.451 570.693 751.402L569.531 752.227L569.364 751.601ZM516.359 723.592C514.329 723.222 512.257 722.463 512.257 722.089C512.257 721.904 512.805 721.213 513.476 720.555L514.694 719.358L516.22 719.699C517.087 719.893 518.751 719.987 520.072 719.916C525.65 719.616 528.618 716.68 534.482 705.659C542.053 691.428 549.139 685.904 556.414 688.558C558.518 689.326 558.635 689.562 557.742 691.255C556.97 692.719 556.767 692.77 554.768 692.012C551.62 690.819 547.47 693.144 543.341 698.416C541.342 700.968 540.322 702.683 535.825 711.043C530.492 720.957 524.191 725.02 516.359 723.592ZM499.856 714.615C495.303 709.89 496.135 705.324 502.538 699.909C506.576 696.494 510.494 694.745 517.348 693.299C522.222 692.27 522.869 691.976 523.93 690.3C524.625 689.204 524.925 688.238 525.468 685.346C525.56 684.854 526.723 684.154 528.721 683.387C530.32 682.773 528.662 690.437 526.626 693.069C524.922 695.272 523.891 695.72 517.119 697.196C511.64 698.391 507.827 700.255 504.21 703.506C500.124 707.179 499.821 709.132 502.841 712.328L504.176 713.74L503.044 714.907C501.616 716.38 501.552 716.374 499.856 714.615ZM548.516 705.393C545.125 703.656 544.635 702.582 546.379 700.71C547.264 699.76 547.55 699.756 548.398 700.678C550.534 703.003 552.777 702.778 555.971 699.92C561.94 694.579 564.749 686.258 563.927 676.354C562.917 664.172 563.301 660.769 567.265 646.83C568.002 644.239 569.175 639.935 569.33 639.252C569.559 638.249 569.737 638.28 571.427 639.617C572.414 640.398 572.81 640.891 572.711 641.216C572.633 641.474 572.385 642.374 572.161 643.215C571.938 644.056 571.512 645.621 571.216 646.691C567.193 661.212 567.129 661.614 567.447 670.051C568.011 685.015 567.642 688.214 564.661 694.245C560.234 703.202 553.42 707.907 548.516 705.393ZM496.142 696.309C487.482 692.71 485.455 688.912 487.988 681.035C489.745 675.574 494.998 668.662 498.724 666.909C501.088 665.797 504.151 666.142 506.214 667.754C507.426 668.701 507.444 668.776 506.674 669.661C506.355 670.028 505.886 670.612 505.632 670.958L505.172 671.588L504.199 670.928C501.796 669.298 500.656 669.554 497.816 672.363C493.307 676.822 490.557 682.756 490.822 687.451C490.927 689.309 494.309 691.63 500.11 693.825C502.897 694.879 502.865 694.785 500.943 696.3C499.202 697.671 499.418 697.671 496.142 696.309ZM539.525 686.528C538.381 673.711 537.792 673.231 529.508 678.36C522.927 682.436 519.272 683.196 515.031 681.373C512.981 680.491 512.861 680.157 514.07 678.681C515.262 677.225 515.16 677.252 516.741 677.97C519.312 679.138 521.906 678.539 526.628 675.687C532.346 672.234 535.417 671.075 537.422 671.612C541.116 672.602 542.454 675.56 543.068 684.094L543.318 687.57L541.888 688.879C539.889 690.709 539.9 690.72 539.525 686.528ZM497.811 682.469C495.982 681.895 495.842 681.507 496.844 679.795C497.6 678.505 497.999 678.317 498.929 678.815C499.772 679.267 502.06 679.204 503.03 678.701C504.453 677.965 505.777 676.665 508.72 673.112C516.066 664.247 520.656 662.644 524.876 667.472C526.903 669.791 527.27 670.663 526.473 671.266C525.126 672.286 523.84 672.85 523.716 672.477C523.379 671.467 521.689 669.434 520.829 669.007C518.889 668.041 516.325 669.797 512.046 675.025C505.98 682.435 502.876 684.059 497.811 682.469ZM486.148 671.785C485.07 669.405 484.648 667.047 484.858 664.578C485.453 657.563 485.397 656.09 484.385 652.114C483.452 648.449 481.283 641.321 481.02 641.058C480.947 640.985 481.577 640.364 482.419 639.678C483.261 638.991 484.02 638.499 484.104 638.583C484.598 639.078 487.78 649.698 488.643 653.737C489.283 656.728 489.281 656.555 488.751 664.661C488.619 666.679 488.682 667.697 489.007 668.805L489.437 670.274L488.333 671.9C486.983 673.891 487.105 673.897 486.148 671.785Z" class="fill-orange" fill="#ffb86c" fill-rule="nonzero" opacity="1" class="stroke-orange" class="stroke-orange" stroke="#ffb86c" stroke-linecap="butt" stroke-linejoin="miter" stroke-width="0.300364" vectornator:layerName="path"/>
<path d="M520.314 770.128C488.794 767.27 462.428 744.979 454.35 714.36C451.189 702.379 451.189 688.056 454.35 676.076C461.973 647.182 485.568 625.835 515.313 620.923C520.82 620.014 533.146 620.014 538.652 620.923C571.146 626.289 595.852 651.016 601.213 683.538C602.67 692.376 601.999 705.328 599.616 714.36C592.01 743.188 568.26 764.709 538.791 769.477C535.283 770.045 523.841 770.448 520.314 770.128ZM537.958 765.619C579.508 758.764 606.067 718.653 596.005 677.951C589.149 650.216 566.393 629.43 537.819 624.801C532.385 623.921 521.274 623.92 516.008 624.799C485.045 629.969 461.609 653.452 456.634 684.292C455.793 689.506 455.73 700.294 456.512 705.368C461.622 738.539 487.973 763.355 521.148 766.239C524.48 766.529 534.737 766.15 537.958 765.619L537.958 765.619Z" class="fill-highlight" fill="#6272a4" fill-rule="nonzero" opacity="1" stroke="none" vectornator:layerName="path"/>
</g>
<path d="M386.148 689.305C386.148 609.782 450.655 545.317 530.228 545.317C609.802 545.317 674.309 609.782 674.309 689.305C674.309 768.827 609.802 833.293 530.228 833.293C450.655 833.293 386.148 768.827 386.148 689.305Z" class="fill-purple" fill="#bd93f9" fill-opacity="0" fill-rule="nonzero" opacity="1" class="stroke-purple" stroke="#bd93f9" stroke-linecap="butt" stroke-linejoin="miter" stroke-width="10" vectornator:layerName="Oval 3"/>
</g>
</svg>
