<?xml version="1.0" encoding="UTF-8" standalone="no"?>
<!DOCTYPE svg PUBLIC "-//W3C//DTD SVG 1.1//EN" "http://www.w3.org/Graphics/SVG/1.1/DTD/svg11.dtd">
<!-- Created with Vectornator (http://vectornator.io/) -->
<svg height="100%" stroke-miterlimit="10" style="fill-rule:nonzero;clip-rule:evenodd;stroke-linecap:round;stroke-linejoin:round;" version="1.1" viewBox="0 0 1000 565" width="100%" xml:space="preserve" xmlns="http://www.w3.org/2000/svg" xmlns:vectornator="http://vectornator.io" xmlns:xlink="http://www.w3.org/1999/xlink">
<defs>
<filter color-interpolation-filters="sRGB" filterUnits="userSpaceOnUse" height="96.427" id="Filter" width="117.113" x="97.5623" y="120.607">
<feDropShadow dx="-11.1167" dy="-1.17027" flood-color="#282a36" flood-opacity="0.79054" in="SourceGraphic" result="Shadow" stdDeviation="6.2226"/>
</filter>
<filter color-interpolation-filters="sRGB" filterUnits="userSpaceOnUse" height="95.9989" id="Filter_2" width="116.685" x="113.512" y="127.787">
<feDropShadow dx="4.61875" dy="5.79565" flood-color="#282a36" flood-opacity="0.79054" in="SourceGraphic" result="Shadow" stdDeviation="6.13699"/>
</filter>
</defs>
<clipPath id="ArtboardFrame">
<rect height="565" width="1000" x="0" y="0"/>
</clipPath>
<g clip-path="url(#ArtboardFrame)" id="Layer-1" vectornator:layerName="Layer 1" visibility="hidden">
<path d="M-110.735-138.315L1054.77-138.315L1054.77 1059.06L-110.735 1059.06L-110.735-138.315Z" fill="#282a36" fill-rule="nonzero" opacity="1" stroke="none"/>
</g>
<g clip-path="url(#ArtboardFrame)" id="Layer-2" vectornator:layerName="Layer 2">
<clipPath id="ClipPath">
<path d="M-5.67857 422.286C-15.1533 363.362 37.4745 311.285 37.4745 311.285L45.7601 327.155L83.3826 310.902L78.0578 296.807L118.787 287.625L120.831 303.677L171.345 300.115L168.703 278.82C168.703 278.82 191.356 277.174 199.154 276.846C200.742 276.779 204.834 298.678 204.834 298.678L249.862 297.561C249.862 297.561 246.081 274.988 248.472 274.906C263.067 274.407 296.126 270.461 296.126 270.461L295.891 298.122L335.994 297.573L337.57 269.565C337.57 269.565 353.166 268.682 359.529 268.609C362.861 268.571 362.235 296.745 362.235 296.745L398.024 296.839C398.024 296.839 396.726 259.835 400.675 259.782C425.344 259.452 615.338 252.059 615.338 252.059L605.581 297.676L650.982 298.464L657.961 263.037C657.961 263.037 651.501 260.434 670.861 262.292C674.447 262.636 669.886 298.638 669.886 298.638L720.786 299.692L722.916 270.083L945.427 297.762L938.701 316.152L975.732 336.865C975.732 336.865 983.686 309.803 984.149 309.956C1081.87 342.361 1007.47 367.842 1007.47 422.286C1007.47 476.963 1024.87 514.579 926.42 546.982C895.499 557.16 152.273 571.97 75.3735 546.982C-24.3261 514.585 3.79617 481.21-5.67857 422.286Z"/>
</clipPath>
<g clip-path="url(#ClipPath)">
<path d="M2.58643 430.108C2.58643 377.312-8.29625 337.878 88.4696 306.697C134.474 291.873 423.24 291.455 647.955 295.638C791.119 298.302 908.286 302.834 920.116 306.697C1015.61 337.882 999.321 374.304 999.321 426.697C999.321 479.315 1016.32 515.514 920.116 546.697C889.899 556.492 163.616 570.744 88.4696 546.697C-8.9573 515.52 2.58643 483.113 2.58643 430.108Z" fill="#8be9fd" fill-rule="nonzero" opacity="1" stroke="#ffb86c" stroke-linecap="round" stroke-linejoin="round" stroke-width="4.86072"/>
</g>
</g>
<g id="Twist" vectornator:layerName="Twist" visibility="hidden">
<path d="M280.436 445.075C308.805 435.319 331.996 379.756 360.366 370" fill="none" opacity="1" stroke="#8be9fd" stroke-linecap="round" stroke-linejoin="round" stroke-width="10.4833"/>
<path d="M310.944 410.79C309.597 406.873 312.739 402.241 317.962 400.445C323.184 398.649 328.51 400.368 329.857 404.285C331.204 408.202 328.062 412.834 322.84 414.63C317.617 416.426 312.291 414.707 310.944 410.79Z" fill="#282a36" fill-rule="nonzero" opacity="1" stroke="none"/>
<path d="M375 412.554C346.631 422.31 294.171 392.765 265.801 402.521" fill="none" opacity="1" stroke="#8be9fd" stroke-linecap="round" stroke-linejoin="round" stroke-width="10.4833"/>
</g>
<g clip-path="url(#ArtboardFrame)" id="Layer-8" vectornator:layerName="Layer 8">
<path d="M615.185 75.5562C585.482 71.3474 550.772 23.4869 521.069 19.2781L521.07 19.2694C491.367 15.0605 466.522 49.6816 416.532 52.6884C394.226 54.03 399.163 245.927 400.463 286.664C400.617 291.504 399.987 296.818 399.987 296.818L362.266 297.004C362.266 297.004 361.532-12.3116 421.532 7.68839C457.539 19.691 421.743 7.68839 421.743 7.68839C446.348 11.1748 474.388 44.6141 500.172 58.3828C505.515 61.2358 510.76 63.2442 515.859 63.9666L515.858 63.9753C545.561 68.1841 580.787 25.9199 620.787 30.9199C705.131 41.4629 654.828 263.977 647.328 298.977L609.093 298.301C609.093 298.301 655.723 95.8384 615.723 75.8384" fill="#8be9fd" fill-rule="nonzero" opacity="1" stroke="none"/>
<clipPath id="ClipPath_2">
<path d="M472.635 44.3151C472.635 17.5795 493.626-4.09395 519.519-4.09395C545.412-4.09395 566.402 17.5795 566.402 44.3151C566.402 71.0507 545.412 92.7242 519.519 92.7242C493.626 92.7242 472.635 71.0507 472.635 44.3151Z"/>
</clipPath>
<g clip-path="url(#ClipPath_2)">
<path d="M615.185 75.5562C585.482 71.3474 550.772 23.4869 521.069 19.2781L521.07 19.2694C479.068 15.5907 464.341 52.1362 416.532 52.6884C391.533 52.9771 416.532 152.688 416.532 152.688L376.532 152.688C376.532 152.688 361.532-12.3116 421.532 7.68839C457.539 19.691 421.743 7.68839 421.743 7.68839C446.348 11.1748 474.388 44.6141 500.172 58.3828C505.515 61.2358 510.76 63.2442 515.859 63.9666L515.858 63.9753C545.561 68.1841 580.787 25.9199 620.787 30.9199C705.131 41.4629 672.195 121.445 664.695 156.445L624.122 155.094C624.122 155.094 655.723 95.8384 615.723 75.8384" fill="#ff5555" fill-rule="nonzero" opacity="1" stroke="none"/>
</g>
</g>
<g id="Layer-9" vectornator:layerName="Layer 9">
<path d="M937.568 220.134C907.865 215.925 873.156 168.065 843.452 163.856L843.454 163.847C813.75 159.638 788.906 194.26 738.915 197.266C716.534 198.612 716.679 306.074 716.679 306.074L668.911 308.775C668.911 308.775 683.915 132.266 743.915 152.266C779.923 164.269 744.126 152.266 744.126 152.266C768.731 155.753 796.771 189.192 822.555 202.961C827.898 205.814 833.144 207.822 838.242 208.544L838.241 208.553C867.944 212.762 903.171 170.498 943.171 175.498C1027.51 186.041 981.96 305.379 974.46 340.379L938.417 316.984C938.417 316.984 978.106 240.416 938.106 220.416" fill="#8be9fd" fill-rule="nonzero" opacity="1" stroke="none"/>
<clipPath id="ClipPath_3">
<path d="M795.018 188.893C795.018 162.157 816.009 140.484 841.902 140.484C867.795 140.484 888.786 162.157 888.786 188.893C888.786 215.629 867.795 237.302 841.902 237.302C816.009 237.302 795.018 215.629 795.018 188.893Z"/>
</clipPath>
<g clip-path="url(#ClipPath_3)">
<path d="M937.568 220.134C907.865 215.925 873.156 168.065 843.452 163.856L843.454 163.847C801.451 160.169 786.724 196.714 738.915 197.266C713.917 197.555 738.915 297.266 738.915 297.266L698.915 297.266C698.915 297.266 683.915 132.266 743.915 152.266C779.923 164.269 744.126 152.266 744.126 152.266C768.731 155.753 796.771 189.192 822.555 202.961C827.898 205.814 833.144 207.822 838.242 208.544L838.241 208.553C867.944 212.762 903.171 170.498 943.171 175.498C1027.51 186.041 994.578 266.023 987.078 301.023L946.505 299.671C946.505 299.671 978.106 240.416 938.106 220.416" fill="#ff5555" fill-rule="nonzero" opacity="1" stroke="none"/>
</g>
</g>
<g id="Layer-12" vectornator:layerName="Layer 12">
<path d="M690.507 321.975C671.87 258.381 696.476 207.175 731.149 184.312C745.65 174.75 882.79 182.155 947.061 202.986C986.654 215.819 969.004 236.95 969.991 258.034C977.063 409.222 775.16 387.681 693.17 327.198C691.077 325.654 691.31 324.716 690.507 321.975Z" fill="none" opacity="1" stroke="#ff79c6" stroke-dasharray="20.0" stroke-linecap="round" stroke-linejoin="round" stroke-width="4.86"/>
<path d="M394.875 314.025C383.401 250.374 370.073 111.934 401.435 54.8191C408.394 42.1462 434.808 35.8722 467.687 34.5425C498.28 33.3053 535.841 39.948 567.163 46.1001C599.546 52.4608 620.676 55.2643 635.765 70.2563C672.8 107.053 652.603 340.694 561.001 366.645C527.731 376.071 409.744 396.516 394.875 314.025Z" fill="none" opacity="1" stroke="#ff79c6" stroke-dasharray="10.0" stroke-linecap="round" stroke-linejoin="round" stroke-width="4.86072"/>
</g>
<g clip-path="url(#ArtboardFrame)" id="Layer-6" vectornator:layerName="Layer 6">
<path d="M740.381 196.778C770.084 200.987 815.216 159.453 844.919 163.662" fill="none" opacity="1" stroke="#ffb86c" stroke-linecap="round" stroke-linejoin="round" stroke-width="4.86072"/>
<path d="M782.346 178.808C782.928 174.707 787.831 172.01 793.3 172.785C798.768 173.56 802.73 177.513 802.149 181.614C801.567 185.715 796.664 188.412 791.195 187.637C785.727 186.862 781.765 182.909 782.346 178.808Z" fill="#282a36" fill-rule="nonzero" opacity="1" stroke="none"/>
<path d="M839.708 208.359C810.004 204.15 775.295 156.29 745.592 152.081" fill="none" opacity="1" stroke="#ffb86c" stroke-linecap="round" stroke-linejoin="round" stroke-width="4.86072"/>
<path d="M839.707 208.368C869.41 212.577 914.542 171.043 944.245 175.252" fill="none" opacity="1" stroke="#ffb86c" stroke-linecap="round" stroke-linejoin="round" stroke-width="4.86072"/>
<path d="M881.673 190.398C882.254 186.297 887.158 183.6 892.626 184.375C898.094 185.15 902.056 189.102 901.475 193.204C900.894 197.305 895.99 200.001 890.521 199.226C885.053 198.452 881.091 194.499 881.673 190.398Z" fill="#282a36" fill-rule="nonzero" opacity="1" stroke="none"/>
<path d="M939.034 219.949C924.131 217.837 907.969 204.738 891.81 191.676C875.763 178.703 859.719 165.768 844.918 163.671" fill="none" opacity="1" stroke="#ffb86c" stroke-linecap="round" stroke-linejoin="round" stroke-width="4.86072"/>
<clipPath id="ClipPath_4">
<path d="M78.3747 14.3826L1052.76 14.3826L1035.66 303.861L975.819 337.906L939.156 316.779C939.156 316.779 858.744 299.996 721.418 299.866C714.398 299.859 679.981 298.816 672.551 298.8C640.727 298.731 678.703 307.916 637.873 306.829C501.778 303.203 266.147 285.724 266.147 285.724L164.541 290.974L82.3154 323.555L78.3747 14.3826Z"/>
</clipPath>
<g clip-path="url(#ClipPath_4)">
<path d="M745.381 152.081C685.381 132.081 671.591 301.899 671.591 301.899L718.991 302.627C718.991 302.627 715.505 194.593 740.381 197.081" fill="none" opacity="1" stroke="#ffb86c" stroke-linecap="butt" stroke-linejoin="round" stroke-width="4.86072"/>
<path d="M939.572 220.231C979.572 240.231 938.323 321.137 938.323 321.137L973 340.571C980.5 305.571 1028.98 185.856 944.636 175.313" fill="none" opacity="1" stroke="#ffb86c" stroke-linecap="round" stroke-linejoin="round" stroke-width="4.86072"/>
</g>
</g>
<g clip-path="url(#ArtboardFrame)" id="Layer-7" vectornator:layerName="Layer 7">
<path d="M416.532 52.3856C444.614 53.516 491.367 15.0605 521.07 19.2694" fill="none" opacity="1" stroke="#ffb86c" stroke-linecap="round" stroke-linejoin="round" stroke-width="4.86072"/>
<path d="M458.497 34.4153C459.079 30.3142 463.983 27.6176 469.451 28.3924C474.919 29.1673 478.881 33.12 478.3 37.2212C477.719 41.3224 472.815 44.0189 467.346 43.2441C461.878 42.4693 457.916 38.5165 458.497 34.4153Z" fill="#282a36" fill-rule="nonzero" opacity="1" stroke="none"/>
<path d="M515.859 63.9666C486.155 59.7577 451.446 11.8972 421.743 7.68839" fill="none" opacity="1" stroke="#ffb86c" stroke-linecap="round" stroke-linejoin="round" stroke-width="4.86072"/>
<path d="M515.858 63.9753C545.561 68.1841 590.693 26.6502 620.396 30.859" fill="none" opacity="1" stroke="#ffb86c" stroke-linecap="round" stroke-linejoin="round" stroke-width="4.86072"/>
<path d="M557.824 46.005C558.405 41.9038 563.309 39.2073 568.777 39.9821C574.245 40.7569 578.207 44.7097 577.626 48.8109C577.045 52.912 572.141 55.6086 566.672 54.8337C561.204 54.0589 557.242 50.1062 557.824 46.005Z" fill="#282a36" fill-rule="nonzero" opacity="1" stroke="none"/>
<path d="M615.185 75.5562C585.482 71.3474 550.772 23.4869 521.069 19.2781" fill="none" opacity="1" stroke="#ffb86c" stroke-linecap="round" stroke-linejoin="round" stroke-width="4.86072"/>
<clipPath id="ClipPath_5">
<path d="M4.84781-28.012L978.159 21.076L961.053 310.555L739.32 298.859C739.32 298.859 656.052 299.343 555.86 297.501C510.976 296.676 456.177 294.599 403.406 294.116C385.829 293.955 368.8 294.295 351.922 294.151C264.465 293.405 191.541 292.417 191.541 292.417L89.9351 297.667L7.70963 330.248L4.84781-28.012Z"/>
</clipPath>
<g clip-path="url(#ClipPath_5)">
<path d="M422.158 7.66658C363.196-4.71764 359.745 296.988 359.745 296.988L400.332 296.636C400.332 296.636 392.361 49.868 417.237 52.3556" fill="none" opacity="1" stroke="#ffb86c" stroke-linecap="butt" stroke-linejoin="round" stroke-width="4.86072"/>
<path d="M615.759 75.8566C655.759 95.8566 607.371 300.43 607.371 300.43L648.226 301.006C655.726 266.006 705.927 41.5785 621.584 31.0355" fill="none" opacity="1" stroke="#ffb86c" stroke-linecap="round" stroke-linejoin="round" stroke-width="4.86072"/>
</g>
</g>
<g id="Layer-4" vectornator:layerName="Layer 4">
<clipPath id="ClipPath_6">
<path d="M5.96213 21.076L978.159 21.076L961.091 314.245L741.377 296.406C741.377 296.406 691.886 298.88 554.869 298.748C460.608 298.657 249.639 294.914 249.639 294.914L249.985 297.702C249.985 297.702 198.197 298.942 198.197 298.942L87.433 303.105L83.5714 310.925L45.5887 327.346L9.89394 334.19L5.96213 21.076Z"/>
</clipPath>
<g clip-path="url(#ClipPath_6)">
<path d="M142.586 136.554C126.389 136.584 110.016 140.035 94.4608 146.585C63.9163 159.446 37.2421 181.023 26.1483 213.523C6.78766 270.241 45.1791 330.711 45.1791 330.711L86.8317 312.704C86.8317 312.704 67.2421 266.023 75.2108 233.523C78.6261 219.593 96.2531 203.363 115.023 195.46C133.911 187.508 152.971 186.973 165.555 194.679C192.242 211.023 202.989 306.488 202.989 306.488L253.194 304.127C253.194 304.127 237.242 176.023 189.555 147.366C175.469 138.902 158.774 136.523 142.586 136.554Z" fill="#8be9fd" fill-rule="nonzero" opacity="1" stroke="#ffb86c" stroke-linecap="butt" stroke-linejoin="round" stroke-width="4.86072"/>
</g>
</g>
<g id="Layer-10" vectornator:layerName="Layer 10">
<path d="M76.8044 336.101C76.8044 336.101 50.3361 282.698 47.6983 253.682C42.9393 201.333 78.6256 166.588 126.66 158.582C201.058 146.183 266.027 308.866 206.774 345.899C181.047 361.978 154.763 359.993 122.271 357.543C89.7783 355.093 76.8044 336.101 76.8044 336.101Z" fill="none" opacity="1" stroke="#ff79c6" stroke-dasharray="10.0" stroke-linecap="round" stroke-linejoin="round" stroke-width="4.86072"/>
</g>
<g id="Layer-3" vectornator:layerName="Layer 3">
<clipPath id="ClipPath_7">
<path d="M3.76667 21.0851L7.70417 330.241L118.079 303.616L122.423 303.679L170.642 300.21L175.423 300.335L293.36 296.835L295.86 296.491L295.954 298.179L336.329 297.71L336.204 296.804C381.884 296.44 431.306 295.989 478.36 295.648C478.335 292.856 478.239 290.407 478.36 286.679C478.44 284.22 478.593 282.32 478.954 278.054C478.964 277.934 479.138 275.558 479.204 274.679C479.292 273.514 479.646 271.322 480.048 269.679C480.419 268.16 480.817 266.959 481.548 265.835C483.871 262.262 488.965 261.202 492.267 265.054C492.497 265.323 492.679 265.644 492.892 265.929C492.927 265.63 492.916 265.596 492.954 265.273C493.013 264.77 493.089 264.109 493.11 263.929C493.216 263.027 493.547 260.809 493.548 260.804C493.753 259.44 493.811 258.815 493.892 258.116C493.892 257.766 493.891 256.907 493.892 256.866C493.876 256.777 493.891 256.757 494.079 255.523C494.187 255.062 494.193 255.072 494.798 253.804L495.079 253.398L495.735 252.585L497.517 251.398L500.392 250.866L503.017 251.648L503.954 252.304L513.36 252.304C513.389 250.801 513.418 249.064 513.423 248.616C513.44 247.082 513.472 245.856 513.579 243.179C513.601 242.638 513.807 237.894 513.829 237.491C513.837 237.351 513.844 237.002 513.86 236.835C513.865 236.656 513.866 236.676 514.142 235.554C514.311 234.91 514.327 234.887 515.954 232.835L516.36 232.523L516.86 232.179L517.454 231.866L518.173 231.616L518.985 231.429L519.892 231.335L520.767 231.398L521.61 231.585L522.392 231.835L523.048 232.179L523.579 232.523L523.829 232.71C524.338 233.18 524.43 233.332 524.61 233.554C524.7 232.886 524.734 232.096 524.829 231.429C524.886 231.032 525.359 227.268 525.392 227.023C525.469 226.443 525.484 226.378 525.548 226.085C525.557 225.894 525.579 225.878 526.235 224.335C526.496 223.893 526.467 223.885 527.235 222.991L527.767 222.554L528.485 222.054L529.485 221.616L530.767 221.304L532.267 221.304L533.704 221.648L534.892 222.241L535.767 222.929L536.329 223.585L536.735 224.116L536.829 224.273C537.03 223.432 537.044 223.189 537.298 222.148C537.376 221.828 537.474 221.477 537.517 221.304C537.527 221.199 537.545 220.689 537.548 220.648C537.626 219.347 537.718 218.662 538.017 217.648C538.621 215.598 539.907 213.827 542.017 212.773C542.894 212.334 543.821 212.025 544.985 212.023C546.391 212.02 547.653 212.652 548.767 213.523C549.29 211.729 549.675 209.951 550.267 208.148C550.298 208.051 550.451 207.229 550.454 207.21C550.644 206.139 550.757 205.616 550.985 204.866C551.37 203.602 551.919 202.458 552.767 201.398C553.964 199.901 555.536 198.829 558.11 198.991C559.711 199.092 560.865 199.662 561.767 200.46C562.611 199.994 563.548 199.662 564.735 199.679C565.335 199.687 565.824 199.923 566.36 200.085C566.586 199.361 566.56 199.144 566.829 198.304C566.978 197.837 568.518 193.536 568.704 193.023C568.796 192.769 569.081 192.009 569.142 191.866C569.189 191.757 569.186 191.749 569.329 191.46C569.445 191.235 569.462 191.227 570.048 190.398L570.735 189.679L574.954 188.179L576.673 189.085C576.951 188.216 577.17 187.564 577.485 186.585C577.485 186.585 577.484 186.531 577.485 186.523C577.498 186.409 577.578 185.664 577.579 185.648C577.739 183.994 577.823 183.346 578.173 182.304C579.46 178.475 583.69 175.873 588.079 178.616C588.408 178.822 588.501 179.084 588.767 179.304C588.903 179 588.983 178.698 589.235 178.335C589.909 177.343 589.891 177.342 592.485 175.96C594.469 175.587 594.478 175.594 596.548 176.148C596.822 176.296 596.761 176.353 596.954 176.46C597.731 173.648 599.864 171.481 603.079 171.116C603.295 170.175 603.441 169.168 603.673 168.241C603.711 168.092 603.702 168.093 603.767 167.866C603.767 167.661 603.794 167.654 604.923 165.71C606.028 164.158 606.355 164.081 611.267 163.835C612.24 162.44 613.717 161.477 615.392 161.241C616.179 161.131 617.012 161.18 617.829 161.398C617.839 161.4 617.851 161.395 617.86 161.398C618.153 159.644 618.381 157.834 618.704 156.054C619.309 152.727 622.503 150.512 625.829 151.116C629.156 151.721 631.371 154.915 630.767 158.241C627.964 173.659 626.295 186.219 623.079 213.929C622.511 218.827 622.284 220.611 621.985 223.148C621.644 226.051 621.048 230.119 620.329 233.679C619.805 236.275 619.26 238.486 618.642 240.241C618.22 241.437 617.739 242.435 617.173 243.335C616.041 245.136 614.559 246.495 612.173 246.929C610.653 247.205 609.298 246.932 608.079 246.398C608.108 248.242 607.627 250.066 606.298 251.616C604.407 253.823 601.308 254.402 598.704 253.116C598.122 254.328 597.384 255.499 596.298 256.585C594.527 258.356 591.95 259.153 589.329 258.273C588.823 258.103 588.459 257.829 588.048 257.585C587.948 259.099 587.885 260.588 587.517 261.866C586.663 264.824 584.929 267.238 582.11 268.648C581.766 268.82 581.449 268.78 581.11 268.898C580.326 272.092 579.409 274.718 577.86 276.46C575.307 279.333 571.276 279.654 568.329 277.398C568.317 277.388 568.31 277.376 568.298 277.366C568.144 277.932 568.059 278.558 567.892 279.116C567.886 279.147 567.837 279.436 567.829 279.491C567.78 279.86 567.766 280.116 567.704 280.429C567.597 280.97 567.451 281.484 567.235 282.023C566.442 284.004 564.87 285.631 562.517 286.273C562.485 286.281 562.455 286.264 562.423 286.273C562.349 288.569 562.187 290.378 561.673 292.116C561.332 293.269 560.719 294.246 560.11 295.21C691.95 295.25 740.829 292.929 740.829 292.929L961.048 310.554L973.298 103.241L978.173 21.0851L3.76667 21.0851Z"/>
</clipPath>
<g clip-path="url(#ClipPath_7)">
<path d="M157.954 137.335C149.75 143.723 142.448 151.41 136.454 160.616C131.2 168.687 127.289 178.005 124.235 187.835C128.037 187.767 131.942 187.677 134.454 187.773C138.012 187.908 140.759 188.247 143.954 188.835C150.418 190.025 156.564 192.296 163.454 196.116C163.992 196.414 164.645 196.667 166.173 197.21C166.356 197.275 166.359 197.299 166.548 197.366C170.66 198.832 173.153 200.198 175.142 202.648C176.231 198.714 177.512 195.06 179.11 192.054C183.952 182.946 196.24 174.532 210.235 169.366C209.268 167.272 208.986 166.789 207.829 164.273C207.433 163.41 207.413 163.416 207.017 162.554C203.262 154.388 200.696 149 198.11 143.616C191.775 142.43 184.558 141.648 176.673 141.273C173.624 141.127 171.442 140.581 166.892 139.148C166.333 138.972 166.115 138.893 165.829 138.804C163.861 138.193 162.62 137.887 161.454 137.71C160.664 137.59 159.732 137.477 157.985 137.335C157.979 137.34 157.961 137.33 157.954 137.335Z" fill="#8be9fd" fill-rule="nonzero" filter="url(#Filter)" stroke="none" vectornator:shadowAngle="3.24648" vectornator:shadowColor="#282a36" vectornator:shadowOffset="11.1781" vectornator:shadowOpacity="0.79054" vectornator:shadowRadius="12.4452"/>
<path d="M157.954 137.335C149.75 143.723 142.448 151.41 136.454 160.616C131.2 168.687 127.289 178.005 124.235 187.835C128.037 187.767 131.942 187.677 134.454 187.773C138.012 187.908 140.759 188.247 143.954 188.835C150.418 190.025 156.564 192.296 163.454 196.116C163.992 196.414 164.645 196.667 166.173 197.21C166.356 197.275 166.359 197.299 166.548 197.366C170.66 198.832 173.153 200.198 175.142 202.648C176.231 198.714 177.512 195.06 179.11 192.054C183.952 182.946 196.24 174.532 210.235 169.366C209.268 167.272 208.986 166.789 207.829 164.273C207.433 163.41 207.413 163.416 207.017 162.554C203.262 154.388 200.696 149 198.11 143.616C191.775 142.43 184.558 141.648 176.673 141.273C173.624 141.127 171.442 140.581 166.892 139.148C166.333 138.972 166.115 138.893 165.829 138.804C163.861 138.193 162.62 137.887 161.454 137.71C160.664 137.59 159.732 137.477 157.985 137.335C157.979 137.34 157.961 137.33 157.954 137.335Z" fill="#8be9fd" fill-rule="nonzero" filter="url(#Filter_2)" stroke="none" vectornator:shadowAngle="0.897928" vectornator:shadowColor="#282a36" vectornator:shadowOffset="7.41096" vectornator:shadowOpacity="0.79054" vectornator:shadowRadius="12.274"/>
<path d="M268.234 114.611C252.525 110.662 235.807 109.986 219.119 112.515C186.351 117.48 155.195 131.844 136.459 160.624C103.761 210.85 118.699 306.493 118.699 306.493L174.139 302.694C174.139 302.694 163.399 221.609 179.106 192.062C185.838 179.398 206.911 167.994 227.048 164.943C247.31 161.873 265.918 166.036 276.223 176.597C298.079 198.994 293.099 301.921 293.099 301.921L338.006 301.749C338.006 301.749 350.297 176.119 311.108 136.628C299.533 124.963 283.933 118.557 268.234 114.611Z" fill="#8be9fd" fill-rule="nonzero" opacity="1" stroke="#ffb86c" stroke-linecap="butt" stroke-linejoin="round" stroke-width="4.86072"/>
</g>
</g>
<g id="Layer-11" vectornator:layerName="Layer 11">
<path d="M151.762 330.897C151.762 330.897 141.998 310.144 141.069 298.062C138.982 270.935 138.951 246.59 145.679 219.677C149.786 203.252 155.904 181.375 171.825 165.836C201.042 137.32 249.55 122.603 282.277 148.784C317.952 177.325 328.698 246.554 319.284 298.389C314.343 325.598 308.044 344.867 287.813 357.741C263.38 373.289 218.933 378.187 189.536 367.163C172.068 360.612 151.762 330.897 151.762 330.897Z" fill="none" opacity="1" stroke="#ff79c6" stroke-dasharray="20.0" stroke-linecap="round" stroke-linejoin="round" stroke-width="4.86"/>
</g>
</svg>
