<!-- Created with Vectornator (http://vectornator.io/) -->
<svg xmlns:inkscape="http://www.inkscape.org/namespaces/inkscape" xmlns:sodipodi="http://sodipodi.sourceforge.net/DTD/sodipodi-0.dtd" xmlns="http://www.w3.org/2000/svg" xmlns:svg="http://www.w3.org/2000/svg" xmlns:vectornator="http://vectornator.io" stroke-miterlimit="10" style="clip-rule:evenodd;fill-rule:nonzero;stroke-linecap:round;stroke-linejoin:round" version="1.1" viewBox="0 0 1000 565" xml:space="preserve" id="svg45" sodipodi:docname="Band_SCC.svg"><sodipodi:namedview id="namedview45" pagecolor="#ffffff" bordercolor="#000000" borderopacity="0.25" inkscape:showpageshadow="2" inkscape:pageopacity="0.0" inkscape:pagecheckerboard="0" inkscape:deskcolor="#d1d1d1"/>
    <defs id="defs1">
        <filter color-interpolation-filters="sRGB" filterUnits="userSpaceOnUse" height="96.427002" id="Filter" width="117.113" x="97.562302" y="120.607">
            <feDropShadow dx="-11.1167" dy="-1.17027" flood-color="#282a36" flood-opacity="0.79054" in="SourceGraphic" result="Shadow" stdDeviation="6.2226"/>
        </filter>
        <filter color-interpolation-filters="sRGB" filterUnits="userSpaceOnUse" height="95.998901" id="Filter_2" width="116.685" x="113.512" y="127.787">
            <feDropShadow dx="4.61875" dy="5.79565" flood-color="#282a36" flood-opacity="0.79054" in="SourceGraphic" result="Shadow" stdDeviation="6.13699"/>
        </filter>
        <filter color-interpolation-filters="sRGB" filterUnits="userSpaceOnUse" height="125.813" id="Filter_3" width="76.635696" x="305.99399" y="147.537">
            <feDropShadow dx="4.02674" dy="6.22155" flood-color="#282a36" flood-opacity="0.79054" in="SourceGraphic" result="Shadow" stdDeviation="6.13699"/>
        </filter>
        <filter color-interpolation-filters="sRGB" filterUnits="userSpaceOnUse" height="125.813" id="Filter_4" width="76.635696" x="296.13101" y="136.74899">
            <feDropShadow dx="-5.8367" dy="-4.56675" flood-color="#282a36" flood-opacity="0.79054" in="SourceGraphic" result="Shadow" stdDeviation="6.13699"/>
        </filter>
        <filter color-interpolation-filters="sRGB" filterUnits="userSpaceOnUse" height="103.975" id="Filter_5" width="204.59" x="603.289" y="129.29601">
            <feDropShadow dx="-1.35097" dy="-11.0961" flood-color="#282a36" flood-opacity="0.9" in="SourceGraphic" result="Shadow" stdDeviation="6.65068"/>
        </filter>
        <filter color-interpolation-filters="sRGB" filterUnits="userSpaceOnUse" height="103.975" id="Filter_6" width="204.59" x="605.83301" y="149.00999">
            <feDropShadow dx="-2.92622" dy="10.7883" flood-color="#282a36" flood-opacity="0.9" in="SourceGraphic" result="Shadow" stdDeviation="6.65068"/>
        </filter>
    </defs>
    <clipPath id="ArtboardFrame_8">
        <rect height="565" width="1000" x="0" y="0" id="rect1"/>
    </clipPath>
    <g clip-path="url(#ArtboardFrame_8)" id="Layer-1" vectornator:layerName="Layer 1" visibility="hidden">
        <path d="M -110.735,-138.315 H 1054.77 V 1059.06 H -110.735 Z" class="fill-background" fill-rule="nonzero" opacity="1" stroke="none" id="path1"/>
    </g>
    <g clip-path="url(#ArtboardFrame_8)" id="Layer-2" vectornator:layerName="Layer 2">
        <clipPath id="ClipPath">
            <path d="M -5.67857,422.286 C -15.1533,363.362 37.4745,311.285 37.4745,311.285 l 8.2856,15.87 37.6225,-16.253 -5.3248,-14.095 40.7292,-9.182 2.044,16.052 50.514,-3.562 -2.642,-21.295 c 0,0 22.653,-1.646 30.451,-1.974 1.588,-0.067 5.68,21.832 5.68,21.832 l 45.028,-1.117 c 0,0 -3.781,-22.573 -1.39,-22.655 14.595,-0.499 47.654,-4.445 47.654,-4.445 l 3.413,29.485 37.823,0.059 0.208,-30.44 c 0,0 15.596,-0.883 21.959,-0.956 3.332,-0.038 2.706,28.136 2.706,28.136 l 36.312,-2.174 c 0,0 -1.821,-34.736 2.128,-34.789 24.669,-0.33 124.224,-9.107 124.224,-9.107 l -37.771,46.309 38.161,0.336 48.63,-36.252 c 0,0 21.122,0.323 40.482,2.181 3.586,0.344 -3.941,35.06 -3.941,35.06 l 35.081,0.666 10.517,-36.321 225.477,16.968 -6.369,26.449 35.787,2.755 c 0,0 9.326,-27.003 9.789,-26.85 97.728,32.405 86.728,85.866 86.728,140.31 0,54.677 17.4,92.293 -81.05,124.696 -30.921,10.178 -774.147,24.988 -851.0465,0 C -24.3261,514.585 3.79617,481.21 -5.67857,422.286 Z" id="path2"/>
        </clipPath>
        <g clip-path="url(#ClipPath)" id="g3">
            <path d="m 2.58643,430.108 c 0,-52.796 -10.88268,-92.23 85.88317,-123.411 75.3144,-24.268 801.2464,-9.927 831.6464,0 95.494,31.185 79.205,67.607 79.205,120 0,52.618 16.999,88.817 -79.205,120 -30.217,9.795 -756.5,24.047 -831.6464,0 C -8.9573,515.52 2.58643,483.113 2.58643,430.108 Z" class="fill-blue stroke-orange stroke-orange" fill="#8be9fd" fill-rule="nonzero" opacity="1" stroke="#ffb86c" stroke-linecap="round" stroke-linejoin="round" stroke-width="4.86072" id="path3"/>
        </g>
    </g>
    <g id="Layer-4" vectornator:layerName="Layer 4">
        <clipPath id="ClipPath_2">
            <path d="M 5.96213,21.076 H 978.159 L 961.091,314.245 741.377,296.406 c 0,0 -49.491,2.474 -186.508,2.342 -94.261,-0.091 -305.23,-3.834 -305.23,-3.834 l 0.346,2.788 c 0,0 -51.788,1.24 -51.788,1.24 l -110.764,4.163 -3.8616,7.82 -37.9827,16.421 -35.69476,6.844 z" id="path4"/>
        </clipPath>
        <g clip-path="url(#ClipPath_2)" id="g5">
            <path d="m 142.586,136.554 c -16.197,0.03 -32.57,3.481 -48.1252,10.031 -30.5445,12.861 -57.2187,34.438 -68.3125,66.938 -19.36064,56.718 19.0308,117.188 19.0308,117.188 l 41.6526,-18.007 c 0,0 -19.5896,-46.681 -11.6209,-79.181 3.4153,-13.93 21.0423,-30.16 39.8122,-38.063 18.888,-7.952 37.948,-8.487 50.532,-0.781 26.687,16.344 37.434,111.809 37.434,111.809 l 50.205,-2.361 c 0,0 -15.952,-128.104 -63.639,-156.761 -14.086,-8.464 -30.781,-10.843 -46.969,-10.812 z" class="fill-blue stroke-orange stroke-orange" fill="#8be9fd" fill-rule="nonzero" opacity="1" stroke="#ffb86c" stroke-linecap="butt" stroke-linejoin="round" stroke-width="4.86072" id="path5"/>
        </g>
    </g>
    <g id="Layer-10" vectornator:layerName="Layer 10">
        <g opacity="1" id="g8">
            <path d="M 66.6274,329.895 C 128.007,383.647 202.848,338.022 211.906,316.051 230.063,272.007 243.387,208.98 163.368,163.255 69.7225,109.743 11.6166,274.301 59.713,323.353" fill="none" class="stroke-pink" stroke="#ff79c6" stroke-dasharray="20" stroke-linecap="round" stroke-linejoin="round" stroke-width="7.37512" id="path6"/>
            <g class="fill-pink" fill="#ff79c6" stroke="none" id="g7">
                <path d="m 99.0638,326.198 -34.8494,-2.515 -4.4953,-0.325 0.572,4.471 4.4351,34.657 c 0.2586,2.02 2.1057,3.449 4.1259,3.19 2.0201,-0.259 3.4481,-2.106 3.1896,-4.126 l -4.4351,-34.657 -3.9232,4.146 34.8494,2.515 c 2.0312,0.147 3.7972,-1.381 3.9432,-3.412 0.147,-2.031 -1.381,-3.797 -3.4122,-3.944 z" class="fill-pink" fill="#ff79c6" id="path7"/>
            </g>
        </g>
    </g>
    <g id="Layer-3" vectornator:layerName="Layer 3">
        <clipPath id="ClipPath_3">
            <path d="m 3.76667,21.0851 3.9375,309.1559 110.37483,-26.625 4.344,0.063 48.219,-3.469 4.781,0.125 117.937,-3.5 2.5,-0.344 0.094,1.688 40.375,-0.469 -0.125,-0.906 c 45.68,-0.364 95.102,-0.815 142.156,-1.156 -0.025,-2.792 -0.121,-5.241 0,-8.969 0.08,-2.459 0.233,-4.359 0.594,-8.625 0.01,-0.12 0.184,-2.496 0.25,-3.375 0.088,-1.165 0.442,-3.357 0.844,-5 0.371,-1.519 0.769,-2.72 1.5,-3.844 2.323,-3.573 7.417,-4.633 10.719,-0.781 0.23,0.269 0.412,0.59 0.625,0.875 0.035,-0.299 0.024,-0.333 0.062,-0.656 0.059,-0.503 0.135,-1.164 0.156,-1.344 0.106,-0.902 0.437,-3.12 0.438,-3.125 0.205,-1.364 0.263,-1.989 0.344,-2.688 0,-0.35 -10e-4,-1.209 0,-1.25 -0.016,-0.089 -10e-4,-0.109 0.187,-1.343 0.108,-0.461 0.114,-0.451 0.719,-1.719 l 0.281,-0.406 0.656,-0.813 1.782,-1.187 2.875,-0.532 2.625,0.782 0.937,0.656 h 9.406 c 0.029,-1.503 0.058,-3.24 0.063,-3.688 0.017,-1.534 0.049,-2.76 0.156,-5.437 0.022,-0.541 0.228,-5.285 0.25,-5.688 0.008,-0.14 0.015,-0.489 0.031,-0.656 0.005,-0.179 0.006,-0.159 0.282,-1.281 0.169,-0.644 0.185,-0.667 1.812,-2.719 l 0.406,-0.312 0.5,-0.344 0.594,-0.313 0.719,-0.25 0.812,-0.187 0.907,-0.094 0.875,0.063 0.843,0.187 0.782,0.25 0.656,0.344 0.531,0.344 0.25,0.187 c 0.509,0.47 0.601,0.622 0.781,0.844 0.09,-0.668 0.124,-1.458 0.219,-2.125 0.057,-0.397 0.53,-4.161 0.563,-4.406 0.077,-0.58 0.092,-0.645 0.156,-0.938 0.009,-0.191 0.031,-0.207 0.687,-1.75 0.261,-0.442 0.232,-0.45 1,-1.344 l 0.532,-0.437 0.718,-0.5 1,-0.438 1.282,-0.312 h 1.5 l 1.437,0.344 1.188,0.593 0.875,0.688 0.562,0.656 0.406,0.531 0.094,0.157 c 0.201,-0.841 0.215,-1.084 0.469,-2.125 0.078,-0.32 0.176,-0.671 0.219,-0.844 0.01,-0.105 0.028,-0.615 0.031,-0.656 0.078,-1.301 0.17,-1.986 0.469,-3 0.604,-2.05 1.89,-3.821 4,-4.875 0.877,-0.439 1.804,-0.748 2.968,-0.75 1.406,-0.003 2.668,0.629 3.782,1.5 0.523,-1.794 0.908,-3.572 1.5,-5.375 0.031,-0.097 0.184,-0.919 0.187,-0.938 0.19,-1.071 0.303,-1.594 0.531,-2.344 0.385,-1.264 0.934,-2.408 1.782,-3.468 1.197,-1.497 2.769,-2.569 5.343,-2.407 1.601,0.101 2.755,0.671 3.657,1.469 0.844,-0.466 1.781,-0.798 2.968,-0.781 0.6,0.008 1.089,0.244 1.625,0.406 0.226,-0.724 0.2,-0.941 0.469,-1.781 0.149,-0.467 1.689,-4.768 1.875,-5.281 0.092,-0.254 0.377,-1.014 0.438,-1.157 0.047,-0.109 0.044,-0.117 0.187,-0.406 0.116,-0.225 0.133,-0.233 0.719,-1.062 l 0.687,-0.719 4.219,-1.5 1.719,0.906 c 0.278,-0.869 0.497,-1.521 0.812,-2.5 0,0 -10e-4,-0.054 0,-0.062 0.013,-0.114 0.093,-0.859 0.094,-0.875 0.16,-1.654 0.244,-2.302 0.594,-3.344 1.287,-3.829 5.517,-6.431 9.906,-3.688 0.329,0.206 0.422,0.468 0.688,0.688 0.136,-0.304 0.216,-0.606 0.468,-0.969 0.674,-0.992 0.656,-0.993 3.25,-2.375 1.984,-0.373 1.993,-0.366 4.063,0.188 0.274,0.148 0.213,0.205 0.406,0.312 0.777,-2.812 2.91,-4.979 6.125,-5.344 0.216,-0.941 0.362,-1.948 0.594,-2.875 0.038,-0.149 0.029,-0.148 0.094,-0.375 0,-0.205 0.027,-0.212 1.156,-2.156 1.105,-1.552 1.432,-1.629 6.344,-1.875 0.973,-1.395 2.45,-2.358 4.125,-2.594 0.787,-0.11 1.62,-0.061 2.437,0.157 0.01,0.002 0.022,-0.003 0.031,0 0.293,-1.754 0.521,-3.564 0.844,-5.344 0.605,-3.327 3.799,-5.542 7.125,-4.938 3.327,0.605 5.542,3.799 4.938,7.125 -2.803,15.418 -4.472,27.978 -7.688,55.688 -0.568,4.898 -0.795,6.682 -1.094,9.219 -0.341,2.903 -0.937,6.971 -1.656,10.531 -0.524,2.596 -1.069,4.807 -1.687,6.562 -0.422,1.196 -0.903,2.194 -1.469,3.094 -1.132,1.801 -2.614,3.16 -5,3.594 -1.52,0.276 -2.875,0.003 -4.094,-0.531 0.029,1.844 -0.452,3.668 -1.781,5.218 -1.891,2.207 -4.99,2.786 -7.594,1.5 -0.582,1.212 -1.32,2.383 -2.406,3.469 -1.771,1.771 -4.348,2.568 -6.969,1.688 -0.506,-0.17 -0.87,-0.444 -1.281,-0.688 -0.1,1.514 -0.163,3.003 -0.531,4.281 -0.854,2.958 -2.588,5.372 -5.407,6.782 -0.344,0.172 -0.661,0.132 -1,0.25 -0.784,3.194 -1.701,5.82 -3.25,7.562 -2.553,2.873 -6.584,3.194 -9.531,0.938 -0.012,-0.01 -0.019,-0.022 -0.031,-0.032 -0.154,0.566 -0.239,1.192 -0.406,1.75 -0.006,0.031 -0.055,0.32 -0.063,0.375 -0.049,0.369 -0.063,0.625 -0.125,0.938 -0.107,0.541 -0.253,1.055 -0.469,1.594 -0.793,1.981 -2.365,3.608 -4.718,4.25 -0.032,0.008 -0.062,-0.009 -0.094,0 -0.074,2.296 -0.236,4.105 -0.75,5.843 -0.341,1.153 -0.954,2.13 -1.563,3.094 131.84,0.04 180.719,-2.281 180.719,-2.281 l 220.219,17.625 12.25,-207.313 4.875,-82.1559 z" id="path8"/>
        </clipPath>
        <g clip-path="url(#ClipPath_3)" id="g11">
            <path d="m 157.954,137.335 c -8.204,6.388 -15.506,14.075 -21.5,23.281 -5.254,8.071 -9.165,17.389 -12.219,27.219 3.802,-0.068 7.707,-0.158 10.219,-0.062 3.558,0.135 6.305,0.474 9.5,1.062 6.464,1.19 12.61,3.461 19.5,7.281 0.538,0.298 1.191,0.551 2.719,1.094 0.183,0.065 0.186,0.089 0.375,0.156 4.112,1.466 6.605,2.832 8.594,5.282 1.089,-3.934 2.37,-7.588 3.968,-10.594 4.842,-9.108 17.13,-17.522 31.125,-22.688 -0.967,-2.094 -1.249,-2.577 -2.406,-5.093 -0.396,-0.863 -0.416,-0.857 -0.812,-1.719 -3.755,-8.166 -6.321,-13.554 -8.907,-18.938 -6.335,-1.186 -13.552,-1.968 -21.437,-2.343 -3.049,-0.146 -5.231,-0.692 -9.781,-2.125 -0.559,-0.176 -0.777,-0.255 -1.063,-0.344 -1.968,-0.611 -3.209,-0.917 -4.375,-1.094 -0.79,-0.12 -1.722,-0.233 -3.469,-0.375 -0.006,0.005 -0.024,-0.005 -0.031,0 z" class="fill-blue" fill="#8be9fd" fill-rule="nonzero" filter="url(#Filter)" stroke="none" vectornator:shadowAngle="3.24648" vectornator:shadowColor="#282a36" vectornator:shadowOffset="11.1781" vectornator:shadowOpacity="0.79054" vectornator:shadowRadius="12.4452" id="path9"/>
            <path d="m 157.954,137.335 c -8.204,6.388 -15.506,14.075 -21.5,23.281 -5.254,8.071 -9.165,17.389 -12.219,27.219 3.802,-0.068 7.707,-0.158 10.219,-0.062 3.558,0.135 6.305,0.474 9.5,1.062 6.464,1.19 12.61,3.461 19.5,7.281 0.538,0.298 1.191,0.551 2.719,1.094 0.183,0.065 0.186,0.089 0.375,0.156 4.112,1.466 6.605,2.832 8.594,5.282 1.089,-3.934 2.37,-7.588 3.968,-10.594 4.842,-9.108 17.13,-17.522 31.125,-22.688 -0.967,-2.094 -1.249,-2.577 -2.406,-5.093 -0.396,-0.863 -0.416,-0.857 -0.812,-1.719 -3.755,-8.166 -6.321,-13.554 -8.907,-18.938 -6.335,-1.186 -13.552,-1.968 -21.437,-2.343 -3.049,-0.146 -5.231,-0.692 -9.781,-2.125 -0.559,-0.176 -0.777,-0.255 -1.063,-0.344 -1.968,-0.611 -3.209,-0.917 -4.375,-1.094 -0.79,-0.12 -1.722,-0.233 -3.469,-0.375 -0.006,0.005 -0.024,-0.005 -0.031,0 z" class="fill-blue" fill="#8be9fd" fill-rule="nonzero" filter="url(#Filter_2)" stroke="none" vectornator:shadowAngle="0.897928" vectornator:shadowColor="#282a36" vectornator:shadowOffset="7.41096" vectornator:shadowOpacity="0.79054" vectornator:shadowRadius="12.274" id="path10"/>
            <path d="m 268.234,114.611 c -15.709,-3.949 -32.427,-4.625 -49.115,-2.096 -32.768,4.965 -63.924,19.329 -82.66,48.109 -32.698,50.226 -17.76,145.869 -17.76,145.869 l 55.44,-3.799 c 0,0 -10.74,-81.085 4.967,-110.632 6.732,-12.664 27.805,-24.068 47.942,-27.119 20.262,-3.07 36.446,4.19 49.175,11.654 88.941,52.147 84.199,122.876 84.199,122.876 0,0 43.015,-0.537 42.868,-0.988 -36.901,-113.399 -36.085,-101.975 -92.182,-161.857 -0.649,-0.693 -27.175,-18.071 -42.874,-22.017 z" class="fill-blue stroke-orange stroke-orange" fill="#8be9fd" fill-rule="nonzero" opacity="1" stroke="#ffb86c" stroke-linecap="butt" stroke-linejoin="round" stroke-width="4.86072" id="path11"/>
        </g>
    </g>
    <g id="Layer-11" vectornator:layerName="Layer 11">
        <g opacity="1" id="g14">
            <path d="m 144.302,306.843 c 3.169,16.683 9.61,48.638 13.397,52.203 14.018,13.193 36.025,16.334 54.508,18.314 29.007,3.108 180.433,-5.944 176.168,-57.123 -7.189,-86.271 -81.532,-199.088 -178.784,-177.477 -56.256,12.502 -65.153,78.19 -68.026,125.585 -1.448,23.903 1.075,29.778 0.971,29.147" fill="none" class="stroke-pink" stroke="#ff79c6" stroke-dasharray="20" stroke-linecap="round" stroke-linejoin="round" stroke-width="7.37512" id="path12"/>
            <g class="fill-pink" fill="#ff79c6" stroke="none" id="g13">
                <path d="m 172.749,322.861 -26.76,-22.466 -3.452,-2.898 -2.157,3.958 -16.722,30.678 c -0.975,1.789 -0.315,4.028 1.473,5.003 1.788,0.975 4.028,0.315 5.002,-1.473 l 16.723,-30.679 -5.609,1.06 26.76,22.466 c 1.559,1.309 3.885,1.106 5.195,-0.453 1.309,-1.56 1.106,-3.886 -0.453,-5.196 z" class="fill-pink" fill="#ff79c6" id="path13"/>
            </g>
        </g>
    </g>
    <g clip-path="url(#ArtboardFrame_8)" id="Layer-8" vectornator:layerName="Layer 8">
        <path d="m 317.31,211.266 30.761,40.52 15.19,-61.316 -30.174,-33.812 z" class="fill-blue" fill="#8be9fd" fill-rule="nonzero" filter="url(#Filter_3)" stroke="none" vectornator:shadowAngle="0.996374" vectornator:shadowColor="#282a36" vectornator:shadowOffset="7.41096" vectornator:shadowOpacity="0.79054" vectornator:shadowRadius="12.274" id="path14"/>
        <path d="m 317.31,211.266 30.761,40.52 15.19,-61.316 -30.174,-33.812 z" class="fill-blue" fill="#8be9fd" fill-rule="nonzero" filter="url(#Filter_4)" stroke="none" vectornator:shadowAngle="3.80552" vectornator:shadowColor="#282a36" vectornator:shadowOffset="7.41096" vectornator:shadowOpacity="0.79054" vectornator:shadowRadius="12.274" id="path15"/>
        <path d="M 615.185,75.5562 C 585.482,71.3474 550.772,23.4869 521.069,19.2781 l 0.001,-0.0087 C 491.367,15.0605 466.522,49.6816 416.532,52.6884 394.226,54.03 342.363,271.05 337.267,304.488 c -0.729,4.787 -44.508,0.227 -44.508,0.227 0,0 68.773,-317.0266 128.773,-297.02661 36.007,12.00261 0.211,0 0.211,0 24.605,3.48641 52.645,36.92571 78.429,50.69441 5.343,2.853 10.588,4.8614 15.687,5.5838 l -0.001,0.0087 c 29.703,4.2088 64.929,-38.0554 104.929,-33.0554 84.344,10.543 34.041,233.0571 26.541,268.0571 l -38.235,-0.676 c 0,0 46.63,-202.4626 6.63,-222.4626" class="fill-blue" fill="#8be9fd" fill-rule="nonzero" opacity="1" stroke="none" id="path16"/>
        <clipPath id="ClipPath_4">
            <path d="m 472.635,44.3151 c 0,-26.7356 20.991,-48.40905 46.884,-48.40905 25.893,0 46.883,21.67345 46.883,48.40905 0,26.7356 -20.99,48.4091 -46.883,48.4091 -25.893,0 -46.884,-21.6735 -46.884,-48.4091 z" id="path17"/>
        </clipPath>
        <g clip-path="url(#ClipPath_4)" id="g18">
            <path d="M 615.185,75.5562 C 585.482,71.3474 550.772,23.4869 521.069,19.2781 l 0.001,-0.0087 c -42.002,-3.6787 -56.729,32.8668 -104.538,33.419 -24.999,0.2887 0,99.9996 0,99.9996 h -40 c 0,0 -15,-164.9996 45,-144.99961 36.007,12.00261 0.211,0 0.211,0 24.605,3.48641 52.645,36.92571 78.429,50.69441 5.343,2.853 10.588,4.8614 15.687,5.5838 l -0.001,0.0087 c 29.703,4.2088 64.929,-38.0554 104.929,-33.0554 84.344,10.543 51.408,90.5251 43.908,125.5251 l -40.573,-1.351 c 0,0 31.601,-59.2556 -8.399,-79.2556" class="fill-red" fill="#ff5555" fill-rule="nonzero" opacity="1" stroke="none" id="path18"/>
        </g>
    </g>
    <g clip-path="url(#ArtboardFrame_8)" id="Layer-7" vectornator:layerName="Layer 7">
        <g opacity="1" id="g21">
            <path d="m 311.978,315.847 c -1.902,32.155 -4.203,67.822 19.427,69.525 75.223,5.418 235.051,8.299 257.089,-23.024 C 630.342,302.871 681.188,134.62 637.31,73.0161 622.933,52.832 563.387,43.9686 528.846,41.4689 499.189,39.3227 467.14,36.9627 423.336,37.4606 c -29.63,0.3368 -45.352,39.541 -56.206,66.1384 -21.019,51.509 -36.423,116.021 -42.386,148.009 -4.707,25.254 -11.274,35.63 -12.233,54.735" fill="none" class="stroke-pink" stroke="#ff79c6" stroke-dasharray="20" stroke-linecap="round" stroke-linejoin="round" stroke-width="7.37512" id="path19"/>
            <g class="fill-pink" fill="#ff79c6" stroke="none" id="g20">
                <path d="m 335.742,338.231 -20.577,-28.238 -2.655,-3.642 -3.045,3.323 -23.603,25.762 c -1.376,1.502 -1.274,3.834 0.228,5.21 1.501,1.376 3.834,1.274 5.21,-0.228 l 23.603,-25.762 -5.699,-0.319 20.578,28.237 c 1.2,1.646 3.506,2.008 5.152,0.809 1.646,-1.2 2.008,-3.506 0.808,-5.152 z" class="fill-pink" fill="#ff79c6" id="path20"/>
            </g>
        </g>
        <path d="M 416.532,52.3856 C 444.614,53.516 491.367,15.0605 521.07,19.2694" fill="none" opacity="1" class="stroke-orange stroke-orange" stroke="#ffb86c" stroke-linecap="round" stroke-linejoin="round" stroke-width="4.86072" id="path21"/>
        <path d="m 458.497,34.4153 c 0.582,-4.1011 5.486,-6.7977 10.954,-6.0229 5.468,0.7749 9.43,4.7276 8.849,8.8288 -0.581,4.1012 -5.485,6.7977 -10.954,6.0229 -5.468,-0.7748 -9.43,-4.7276 -8.849,-8.8288 z" class="fill-background" fill-rule="nonzero" opacity="1" stroke="none" id="path22"/>
        <path d="M 515.859,63.9666 C 486.155,59.7577 451.446,11.8972 421.743,7.68839" fill="none" opacity="1" class="stroke-orange stroke-orange" stroke="#ffb86c" stroke-linecap="round" stroke-linejoin="round" stroke-width="4.86072" id="path23"/>
        <path d="M 515.858,63.9753 C 545.561,68.1841 590.693,26.6502 620.396,30.859" fill="none" opacity="1" class="stroke-orange stroke-orange" stroke="#ffb86c" stroke-linecap="round" stroke-linejoin="round" stroke-width="4.86072" id="path24"/>
        <path d="m 557.824,46.005 c 0.581,-4.1012 5.485,-6.7977 10.953,-6.0229 5.468,0.7748 9.43,4.7276 8.849,8.8288 -0.581,4.1011 -5.485,6.7977 -10.954,6.0228 -5.468,-0.7748 -9.43,-4.7275 -8.848,-8.8287 z" class="fill-background" fill-rule="nonzero" opacity="1" stroke="none" id="path25"/>
        <path d="M 615.185,75.5562 C 585.482,71.3474 550.772,23.4869 521.069,19.2781" fill="none" opacity="1" class="stroke-orange stroke-orange" stroke="#ffb86c" stroke-linecap="round" stroke-linejoin="round" stroke-width="4.86072" id="path26"/>
        <clipPath id="ClipPath_5">
            <path d="M 4.84781,-28.012 978.159,21.076 961.053,310.555 739.32,298.859 c 0,0 -47.69,-2.956 -185.016,-3.087 -44.892,-0.042 -98.127,-1.173 -150.898,-1.656 -17.577,-0.161 -45.873,0.701 -62.73,1.555 -65.892,3.338 -149.135,-3.254 -149.135,-3.254 l -101.6059,5.25 -82.22547,32.581 z" id="path27"/>
        </clipPath>
        <g clip-path="url(#ClipPath_5)" id="g29">
            <path d="M 422.158,7.66658 C 363.196,-4.71764 296.501,298.212 296.501,298.212 l 37.844,6.295 c 0,0 58.016,-254.639 82.892,-252.1514" fill="none" opacity="1" class="stroke-orange stroke-orange" stroke="#ffb86c" stroke-linecap="butt" stroke-linejoin="round" stroke-width="4.86072" id="path28"/>
            <path d="m 615.759,75.8566 c 40,20 -8.388,224.5734 -8.388,224.5734 l 40.682,0.058 c 7.5,-35 57.874,-258.9095 -26.469,-269.4525" fill="none" opacity="1" class="stroke-orange stroke-orange" stroke="#ffb86c" stroke-linecap="round" stroke-linejoin="round" stroke-width="4.86072" id="path29"/>
        </g>
    </g>
    <g id="Layer-9" vectornator:layerName="Layer 9">
        <path d="m 658.798,157.023 c -8.887,0.126 -18.758,3.202 -29.094,8 -2.16,12.782 -3.879,25.241 -6.625,48.906 -0.568,4.898 -0.795,6.682 -1.094,9.219 -0.149,1.266 -0.483,3.023 -0.718,4.593 18.665,-12.77 35.403,-22.805 43.687,-23.781 0.052,-0.937 0.125,-1.876 0.344,-3.031 0.092,-0.484 0.199,-0.987 0.312,-1.5 0.116,-0.521 0.378,-1.598 0.5,-2.094 0.124,-1.132 0.163,-2.179 0.157,-4.625 -0.004,-1.254 -0.014,-1.83 0,-2.562 0.027,-1.437 0.105,-2.674 0.25,-3.907 0.056,-0.482 0.138,-1.644 0.218,-3.375 0.064,-1.375 0.384,-10.504 0.438,-11.937 0.183,-4.919 0.357,-8.36 0.531,-11.094 0.047,-0.729 0.108,-1.149 0.156,-1.75 -2.903,-0.682 -5.894,-1.108 -9.062,-1.062 z m 132.656,22.843 c 0,0.054 0,0.039 0,0.125 0,0.262 -10e-4,2.117 0,3 0.299,-0.002 0.607,-0.008 0.875,0 0.604,-1.325 0.167,-2.228 -0.875,-3.125 z" class="fill-blue" fill="#8be9fd" fill-rule="nonzero" filter="url(#Filter_5)" stroke="none" vectornator:shadowAngle="4.59123" vectornator:shadowColor="#282a36" vectornator:shadowOffset="11.1781" vectornator:shadowOpacity="0.9" vectornator:shadowRadius="13.3014" id="path30"/>
        <path d="m 662.917,154.852 c -8.887,0.126 -18.758,3.202 -29.094,8 -2.16,12.782 -3.879,25.241 -6.625,48.906 -0.568,4.898 -0.795,6.682 -1.094,9.219 -0.149,1.266 -0.483,3.023 -0.718,4.593 18.665,-12.77 35.403,-22.805 43.687,-23.781 0.052,-0.937 0.125,-1.876 0.344,-3.031 0.092,-0.484 0.199,-0.987 0.312,-1.5 0.116,-0.521 0.378,-1.598 0.5,-2.094 0.124,-1.132 0.163,-2.179 0.157,-4.625 -0.004,-1.254 -0.014,-1.83 0,-2.562 0.027,-1.437 0.105,-2.674 0.25,-3.907 0.056,-0.482 0.138,-1.644 0.218,-3.375 0.064,-1.375 0.384,-10.504 0.438,-11.937 0.183,-4.919 0.357,-8.36 0.531,-11.094 0.047,-0.729 0.108,-1.149 0.156,-1.75 -2.903,-0.682 -5.894,-1.108 -9.062,-1.062 z m 132.656,22.843 c 0,0.054 0,0.039 0,0.125 0,0.262 -10e-4,2.117 0,3 0.299,-0.002 0.607,-0.008 0.875,0 0.604,-1.325 0.167,-2.228 -0.875,-3.125 z" class="fill-blue" fill="#8be9fd" fill-rule="nonzero" filter="url(#Filter_6)" stroke="none" vectornator:shadowAngle="1.83566" vectornator:shadowColor="#282a36" vectornator:shadowOffset="11.1781" vectornator:shadowOpacity="0.9" vectornator:shadowRadius="13.3014" id="path31"/>
        <path d="m 864.428,226.642 c -29.703,-4.208 -64.412,-52.069 -94.116,-56.278 l 10e-4,-0.009 c -29.703,-4.208 -54.547,30.413 -104.538,33.419 -22.382,1.347 -113.555,75.606 -132.121,90.907 -2.135,1.76 -3.31,2.74 -3.31,2.74 l -46.055,-0.504 c 0,0 126.486,-158.143 186.486,-138.143 36.008,12.003 0.211,0 0.211,0 24.605,3.487 52.645,36.926 78.429,50.695 5.343,2.853 10.589,4.861 15.687,5.584 l -10e-4,0.008 c 29.703,4.209 64.929,-38.055 104.929,-33.055 84.344,10.543 49.583,91.887 42.083,126.887 l -38.911,-2.934 c 0,0 31.764,-59.034 -8.236,-79.034" class="fill-blue" fill="#8be9fd" fill-rule="nonzero" opacity="1" stroke="none" id="path32"/>
        <clipPath id="ClipPath_6">
            <path d="m 721.878,195.401 c 0,-26.735 20.991,-48.409 46.884,-48.409 25.893,0 46.884,21.674 46.884,48.409 0,26.736 -20.991,48.409 -46.884,48.409 -25.893,0 -46.884,-21.673 -46.884,-48.409 z" id="path33"/>
        </clipPath>
        <g clip-path="url(#ClipPath_6)" id="g34">
            <path d="m 864.428,226.642 c -29.703,-4.208 -64.412,-52.069 -94.116,-56.278 l 10e-4,-0.009 c -42.002,-3.678 -56.729,32.867 -104.538,33.419 -24.999,0.289 0,100 0,100 h -40 c 0,0 -15,-165 45,-145 36.008,12.003 0.211,0 0.211,0 24.605,3.487 52.645,36.926 78.429,50.695 5.343,2.853 10.589,4.861 15.687,5.584 l -10e-4,0.008 c 29.703,4.209 64.929,-38.055 104.929,-33.055 84.344,10.543 51.408,90.525 43.908,125.525 l -40.573,-1.351 c 0,0 31.601,-59.255 -8.399,-79.255" class="fill-red" fill="#ff5555" fill-rule="nonzero" opacity="1" stroke="none" id="path34"/>
        </g>
    </g>
    <g id="Layer-6" vectornator:layerName="Layer 6">
        <g opacity="1" id="g37">
            <path d="m 504.931,315.213 c -0.37,55.099 42.579,71.817 42.579,71.817 0,0 127.428,9.766 160.626,6.782 61.047,-5.488 97.671,2.785 137.356,-27.759 26.184,-20.153 76.721,-58.533 54.545,-124.188 -8.75,-25.907 -93.621,-53.993 -181.502,-55.03 -33.367,-0.394 -65.535,0.077 -96.528,10.493 -66.153,22.232 -114.705,87.615 -116.601,108.369" fill="none" class="stroke-pink" stroke="#ff79c6" stroke-dasharray="20" stroke-linecap="round" stroke-linejoin="round" stroke-width="7.37512" id="path35"/>
            <g class="fill-pink" fill="#ff79c6" stroke="none" id="g36">
                <path d="m 528.833,337.45 -20.751,-28.11 -2.677,-3.626 -3.024,3.342 -23.445,25.907 c -1.366,1.51 -1.25,3.842 0.26,5.208 1.51,1.367 3.842,1.25 5.209,-0.26 l 23.444,-25.906 -5.701,-0.285 20.752,28.111 c 1.209,1.638 3.518,1.986 5.156,0.776 1.639,-1.209 1.987,-3.518 0.777,-5.157 z" class="fill-pink" fill="#ff79c6" id="path36"/>
            </g>
        </g>
        <path d="m 665.775,203.472 c 29.703,4.209 74.835,-37.325 104.538,-33.117" fill="none" opacity="1" class="stroke-orange stroke-orange" stroke="#ffb86c" stroke-linecap="round" stroke-linejoin="round" stroke-width="4.86072" id="path37"/>
        <path d="m 707.741,185.501 c 0.581,-4.101 5.485,-6.797 10.953,-6.022 5.468,0.774 9.43,4.727 8.849,8.828 -0.581,4.101 -5.485,6.798 -10.953,6.023 -5.469,-0.775 -9.43,-4.727 -8.849,-8.829 z" class="fill-background" fill-rule="nonzero" opacity="1" stroke="none" id="path38"/>
        <path d="m 765.102,215.053 c -29.703,-4.209 -64.412,-52.07 -94.116,-56.279" fill="none" opacity="1" class="stroke-orange stroke-orange" stroke="#ffb86c" stroke-linecap="round" stroke-linejoin="round" stroke-width="4.86072" id="path39"/>
        <path d="m 765.101,215.061 c 29.703,4.209 74.835,-37.325 104.539,-33.116" fill="none" opacity="1" class="stroke-orange stroke-orange" stroke="#ffb86c" stroke-linecap="round" stroke-linejoin="round" stroke-width="4.86072" id="path40"/>
        <path d="m 807.067,197.091 c 0.581,-4.101 5.485,-6.798 10.953,-6.023 5.468,0.775 9.43,4.728 8.849,8.829 -0.581,4.101 -5.485,6.798 -10.953,6.023 -5.469,-0.775 -9.43,-4.728 -8.849,-8.829 z" class="fill-background" fill-rule="nonzero" opacity="1" stroke="none" id="path41"/>
        <path d="m 864.428,226.642 c -29.703,-4.208 -64.412,-52.069 -94.116,-56.278" fill="none" opacity="1" class="stroke-orange stroke-orange" stroke="#ffb86c" stroke-linecap="round" stroke-linejoin="round" stroke-width="4.86072" id="path42"/>
        <clipPath id="ClipPath_7">
            <path d="M 3.76895,21.076 H 978.159 L 961.053,310.555 740.843,292.94 c 0,0 -51.127,1.773 -188.452,1.642 -137.326,-0.13 -360.85,-2.165 -360.85,-2.165 l -101.6059,5.25 -82.22547,32.581 z" id="path43"/>
        </clipPath>
        <g clip-path="url(#ClipPath_7)" id="g45">
            <path d="m 670.775,158.774 c -60,-20 -186.773,138.084 -186.773,138.084 l 45.621,0.515 c 0,0 111.276,-96.086 136.152,-93.599" fill="none" opacity="1" class="stroke-orange stroke-orange" stroke="#ffb86c" stroke-linecap="butt" stroke-linejoin="round" stroke-width="4.86072" id="path44"/>
            <path d="m 864.966,226.925 c 40,20 3.344,85.357 3.344,85.357 l 44.437,0.685 c 7.5,-35 41.627,-120.418 -42.717,-130.961" fill="none" opacity="1" class="stroke-orange stroke-orange" stroke="#ffb86c" stroke-linecap="round" stroke-linejoin="round" stroke-width="4.86072" id="path45"/>
        </g>
    </g>
    <g id="Layer-5" vectornator:layerName="Layer 5"/>
</svg>
