<!-- Created with Vectornator (http://vectornator.io/) -->
<svg xmlns:inkscape="http://www.inkscape.org/namespaces/inkscape" xmlns:sodipodi="http://sodipodi.sourceforge.net/DTD/sodipodi-0.dtd" xmlns="http://www.w3.org/2000/svg" xmlns:svg="http://www.w3.org/2000/svg" xmlns:vectornator="http://vectornator.io" stroke-miterlimit="10" style="clip-rule:evenodd;fill-rule:nonzero;stroke-linecap:round;stroke-linejoin:round" version="1.1" viewBox="0 0 1000 565" xml:space="preserve" id="svg60" sodipodi:docname="Band.svg"><sodipodi:namedview id="namedview60" pagecolor="#ffffff" bordercolor="#000000" borderopacity="0.25" inkscape:showpageshadow="2" inkscape:pageopacity="0.0" inkscape:pagecheckerboard="0" inkscape:deskcolor="#d1d1d1"/>
    <defs id="defs1">
        <filter color-interpolation-filters="sRGB" filterUnits="userSpaceOnUse" height="71.317902" id="Filter" width="58.644699" x="864.091" y="172.618">
            <feDropShadow dx="4.76037" dy="-6.54846" flood-color="#282a36" flood-opacity="0.9" in="SourceGraphic" result="Shadow" stdDeviation="3.82534"/>
        </filter>
        <filter color-interpolation-filters="sRGB" filterUnits="userSpaceOnUse" height="75.1707" id="Filter_2" width="62.497398" x="854.12903" y="186.121">
            <feDropShadow dx="-3.27529" dy="8.88105" flood-color="#282a36" flood-opacity="0.9" in="SourceGraphic" result="Shadow" stdDeviation="4.59589"/>
        </filter>
        <filter color-interpolation-filters="sRGB" filterUnits="userSpaceOnUse" height="38.114101" id="Filter_3" width="38.114101" x="866.87097" y="159.41499">
            <feDropShadow dx="-1.35097" dy="-11.0961" flood-color="#282a36" flood-opacity="0.9" in="SourceGraphic" result="Shadow" stdDeviation="6.65068"/>
        </filter>
        <filter color-interpolation-filters="sRGB" filterUnits="userSpaceOnUse" height="89.677803" id="Filter_4" width="85.564499" x="574.586" y="156.592">
            <feDropShadow dx="5.30339" dy="-3.14225" flood-color="#282a36" flood-opacity="0.9" in="SourceGraphic" result="Shadow" stdDeviation="4.25342"/>
        </filter>
        <filter color-interpolation-filters="sRGB" filterUnits="userSpaceOnUse" height="26.1278" id="Filter_5" width="26.1278" x="745.28699" y="229.19099">
            <feDropShadow dx="5.30339" dy="-3.14225" flood-color="#282a36" flood-opacity="0.9" in="SourceGraphic" result="Shadow" stdDeviation="4.25342"/>
        </filter>
        <filter color-interpolation-filters="sRGB" filterUnits="userSpaceOnUse" height="89.677803" id="Filter_6" width="85.564499" x="565.37299" y="163.06599">
            <feDropShadow dx="-3.91032" dy="3.33137" flood-color="#282a36" flood-opacity="0.9" in="SourceGraphic" result="Shadow" stdDeviation="4.25342"/>
        </filter>
        <filter color-interpolation-filters="sRGB" filterUnits="userSpaceOnUse" height="61.910801" id="Filter_7" width="79.591599" x="187.97501" y="126.164">
            <feDropShadow dx="-3.59878" dy="6.2266" flood-color="#282a36" flood-opacity="0.9" in="SourceGraphic" result="Shadow" stdDeviation="4.25342"/>
        </filter>
        <filter color-interpolation-filters="sRGB" filterUnits="userSpaceOnUse" height="61.910801" id="Filter_8" width="79.591599" x="197.47099" y="110.498">
            <feDropShadow dx="5.89749" dy="-9.43925" flood-color="#282a36" flood-opacity="0.9" in="SourceGraphic" result="Shadow" stdDeviation="4.25342"/>
        </filter>
    </defs>
    <clipPath id="ArtboardFrame_7">
        <rect height="565" width="1000" x="0" y="0" id="rect1"/>
    </clipPath>
    <g clip-path="url(#ArtboardFrame_7)" id="Layer-1" vectornator:layerName="Layer 1" visibility="hidden">
        <path d="M -110.735,-138.315 H 1054.77 V 1059.06 H -110.735 Z" class="fill-background" fill-rule="nonzero" opacity="1" stroke="none" id="path1"/>
    </g>
    <g clip-path="url(#ArtboardFrame_7)" id="Layer-2" vectornator:layerName="Layer 2">
        <clipPath id="ClipPath">
            <path d="M -5.67857,422.286 C -15.1533,363.362 37.4745,311.285 37.4745,311.285 l 8.2856,15.87 37.6225,-16.253 -5.3248,-14.095 40.7292,-9.182 2.044,16.052 50.514,-3.562 -2.642,-21.295 c 0,0 22.653,-1.646 30.451,-1.974 1.588,-0.067 5.68,21.832 5.68,21.832 l 45.028,-1.117 c 0,0 -3.781,-22.573 -1.39,-22.655 14.595,-0.499 47.654,-4.445 47.654,-4.445 l 3.413,29.485 37.823,0.059 0.208,-30.44 c 0,0 15.596,-0.883 21.959,-0.956 3.332,-0.038 3.094,16.114 3.094,16.114 l 36.312,-2.949 c 0,0 -2.209,-21.939 1.74,-21.992 24.669,-0.33 124.224,-9.107 124.224,-9.107 l -37.771,46.309 38.161,0.336 48.63,-36.252 c 0,0 21.122,0.323 40.482,2.181 3.586,0.344 -3.941,35.06 -3.941,35.06 l 35.081,0.666 10.517,-36.321 173.944,5.081 -22.917,39.857 34.118,0.842 14.488,-33.956 25.844,5.144 -6.369,26.449 35.787,2.755 c 0,0 9.326,-27.003 9.789,-26.85 97.728,32.405 86.728,85.866 86.728,140.31 0,54.677 17.4,92.293 -81.05,124.696 -30.921,10.178 -774.147,24.988 -851.0465,0 C -24.3261,514.585 3.79617,481.21 -5.67857,422.286 Z" id="path2"/>
        </clipPath>
        <g clip-path="url(#ClipPath)" id="g3">
            <path d="m 2.58643,430.108 c 0,-52.796 -10.88268,-92.23 85.88317,-123.411 55.0944,-17.753 458.3504,-14.844 682.8104,-8.117 82.379,2.469 140.674,5.452 148.836,8.117 95.494,31.185 79.205,67.607 79.205,120 0,52.618 16.999,88.817 -79.205,120 -30.217,9.795 -756.5,24.047 -831.6464,0 C -8.9573,515.52 2.58643,483.113 2.58643,430.108 Z" class="fill-blue stroke-orange stroke-orange" fill="#8be9fd" fill-rule="nonzero" opacity="1" stroke="#ffb86c" stroke-linecap="round" stroke-linejoin="round" stroke-width="4.86072" id="path3"/>
        </g>
    </g>
    <g clip-path="url(#ArtboardFrame_7)" id="Layer-8" vectornator:layerName="Layer 8">
        <g opacity="1" id="g7">
            <path d="M 615.185,75.5562 C 585.482,71.3474 550.772,23.4869 521.069,19.2781 l 0.001,-0.0087 C 491.367,15.0605 440.171,53.1469 421.441,50.5066 405.42,48.2483 355.206,59.9925 317.777,91.064 240.8,154.968 173.796,282.107 170.386,304.488 c -0.73,4.787 -53.986,5.171 -53.986,5.171 0,0 78.946,-158.644 166.561,-248.3096 50.156,-51.3309 116.727,-60.942159 138.571,-53.66101 36.007,12.00261 0.211,0 0.211,0 24.605,3.48641 52.645,36.92571 78.429,50.69441 5.343,2.853 10.588,4.8614 15.687,5.5838 l -0.001,0.0087 c 29.703,4.2088 64.929,-38.0554 104.929,-33.0554 30.705,3.8381 221.344,-14.3652 284.994,56.8764 66.029,73.9047 -58.35,198.9297 -63.12,221.1887 0,0 -35.968,-0.8 -35.773,-1.243 24.33,-55.299 127.992,-124.72 70.494,-193.295 C 848.751,80.3011 629.02,82.4868 615.723,75.8384" class="fill-blue" fill="#8be9fd" fill-rule="nonzero" opacity="1" stroke="none" id="path4"/>
            <clipPath id="ClipPath_2">
                <path d="m 472.635,44.3151 c 0,-26.7356 20.991,-48.40905 46.884,-48.40905 25.893,0 46.883,21.67345 46.883,48.40905 0,26.7356 -20.99,48.4091 -46.883,48.4091 -25.893,0 -46.884,-21.6735 -46.884,-48.4091 z" id="path5"/>
            </clipPath>
            <g clip-path="url(#ClipPath_2)" id="g6">
                <path d="M 615.185,75.5562 C 585.482,71.3474 550.772,23.4869 521.069,19.2781 l 0.001,-0.0087 c -42.002,-3.6787 -56.729,32.8668 -104.538,33.419 -24.999,0.2887 0,99.9996 0,99.9996 h -40 c 0,0 -15,-164.9996 45,-144.99961 36.007,12.00261 0.211,0 0.211,0 24.605,3.48641 52.645,36.92571 78.429,50.69441 5.343,2.853 10.588,4.8614 15.687,5.5838 l -0.001,0.0087 c 29.703,4.2088 64.929,-38.0554 104.929,-33.0554 84.344,10.543 51.408,90.5251 43.908,125.5251 l -40.573,-1.351 c 0,0 31.601,-59.2556 -8.399,-79.2556" class="fill-red" fill="#ff5555" fill-rule="nonzero" opacity="1" stroke="none" id="path6"/>
            </g>
        </g>
    </g>
    <g clip-path="url(#ArtboardFrame_7)" id="Layer-7" vectornator:layerName="Layer 7">
        <path d="M 416.532,52.3856 C 444.614,53.516 491.367,15.0605 521.07,19.2694" fill="none" opacity="1" class="stroke-orange stroke-orange" stroke="#ffb86c" stroke-linecap="round" stroke-linejoin="round" stroke-width="4.86072" id="path7"/>
        <path d="m 458.497,34.4153 c 0.582,-4.1011 5.486,-6.7977 10.954,-6.0229 5.468,0.7749 9.43,4.7276 8.849,8.8288 -0.581,4.1012 -5.485,6.7977 -10.954,6.0229 -5.468,-0.7748 -9.43,-4.7276 -8.849,-8.8288 z" class="fill-background" fill-rule="nonzero" opacity="1" stroke="none" id="path8"/>
        <path d="M 515.859,63.9666 C 486.155,59.7577 451.446,11.8972 421.743,7.68839" fill="none" opacity="1" class="stroke-orange stroke-orange" stroke="#ffb86c" stroke-linecap="round" stroke-linejoin="round" stroke-width="4.86072" id="path9"/>
        <path d="M 515.858,63.9753 C 545.561,68.1841 569.021,36.0331 620.396,30.859" fill="none" opacity="1" class="stroke-orange stroke-orange" stroke="#ffb86c" stroke-linecap="round" stroke-linejoin="round" stroke-width="4.86072" id="path10"/>
        <path d="m 557.824,46.005 c 0.581,-4.1012 5.485,-6.7977 10.953,-6.0229 5.468,0.7748 9.43,4.7276 8.849,8.8288 -0.581,4.1011 -5.485,6.7977 -10.954,6.0228 -5.468,-0.7748 -9.43,-4.7275 -8.848,-8.8287 z" class="fill-background" fill-rule="nonzero" opacity="1" stroke="none" id="path11"/>
        <path d="M 615.185,75.5562 C 585.482,71.3474 550.772,23.4869 521.069,19.2781" fill="none" opacity="1" class="stroke-orange stroke-orange" stroke="#ffb86c" stroke-linecap="round" stroke-linejoin="round" stroke-width="4.86072" id="path12"/>
        <clipPath id="ClipPath_3">
            <path d="M 4.84781,-28.012 978.159,21.076 961.053,310.555 739.32,298.859 c 0,0 -47.69,-2.956 -185.016,-3.087 -44.892,-0.042 -98.127,-1.173 -150.898,-1.656 -17.577,-0.161 -45.873,0.701 -62.73,1.555 -65.892,3.338 -149.135,-3.254 -149.135,-3.254 l -17.844,8.483 -54.094,2.929 -29.6679,-6.162 -82.22547,32.581 z" id="path13"/>
        </clipPath>
        <g clip-path="url(#ClipPath_3)" id="g15">
            <path d="M 422.158,7.66658 C 276.994,-31.7074 115.198,310.162 115.198,310.162 l 54.326,-4.007 c 0,0 2.285,-5.412 6.547,-14.666 C 203.142,232.706 304.983,46.9714 417.237,52.3556" fill="none" opacity="1" class="stroke-orange stroke-orange" stroke="#ffb86c" stroke-linecap="butt" stroke-linejoin="round" stroke-width="4.86072" id="path14"/>
            <path d="m 615.759,75.8566 c 40.76,5.8693 115.234,6.0428 175.017,13.1969 34.262,4.1 59.498,6.4633 81.462,23.7345 40.624,31.946 26.112,82.696 -64.642,189.456 -52.086,61.273 37.184,-0.493 37.184,-0.493 C 1081.72,13.5242 739.668,30.9174 620.934,30.3858" fill="none" opacity="1" class="stroke-orange stroke-orange" stroke="#ffb86c" stroke-linecap="round" stroke-linejoin="round" stroke-width="4.86072" id="path15"/>
        </g>
    </g>
    <g id="Layer-9" vectornator:layerName="Layer 9">
        <path d="m 889.894,191.16 -18.57,32.201 14.149,15.13 20.508,-40.411 z" class="fill-blue stroke-orange stroke-orange" fill="#8be9fd" fill-rule="nonzero" filter="url(#Filter)" stroke="#ffb86c" stroke-linecap="butt" stroke-linejoin="round" stroke-width="4.86072" vectornator:shadowAngle="-0.942214" vectornator:shadowColor="#282a36" vectornator:shadowOffset="8.09589" vectornator:shadowOpacity="0.9" vectornator:shadowRadius="7.65068" id="path16"/>
        <path d="m 889.894,191.16 -18.57,32.201 14.149,15.13 20.508,-40.411 z" class="fill-blue stroke-orange stroke-orange" fill="#8be9fd" fill-rule="nonzero" filter="url(#Filter_2)" stroke="#ffb86c" stroke-linecap="butt" stroke-linejoin="round" stroke-width="4.86072" vectornator:shadowAngle="1.92412" vectornator:shadowColor="#282a36" vectornator:shadowOffset="9.46575" vectornator:shadowOpacity="0.9" vectornator:shadowRadius="9.19178" id="path17"/>
        <path d="M 887.279,189.568" class="fill-blue stroke-orange stroke-orange" fill="#8be9fd" fill-rule="nonzero" filter="url(#Filter_3)" stroke="#ffb86c" stroke-linecap="butt" stroke-linejoin="round" stroke-width="4.86072" vectornator:shadowAngle="4.59123" vectornator:shadowColor="#282a36" vectornator:shadowOffset="11.1781" vectornator:shadowOpacity="0.9" vectornator:shadowRadius="13.3014" id="path18"/>
        <path d="m 864.428,226.642 c -29.703,-4.208 -64.412,-52.069 -94.116,-56.278 l 10e-4,-0.009 c -29.703,-4.208 -54.547,30.413 -104.538,33.419 -22.382,1.347 -113.555,75.606 -132.121,90.907 -2.135,1.76 -3.31,2.74 -3.31,2.74 l -46.055,-0.504 c 0,0 126.486,-158.143 186.486,-138.143 36.008,12.003 0.211,0 0.211,0 24.605,3.487 52.645,36.926 78.429,50.695 5.343,2.853 10.589,4.861 15.687,5.584 l -10e-4,0.008 c 29.703,4.209 64.929,-38.055 104.929,-33.055 84.344,10.543 49.583,91.887 42.083,126.887 l -38.911,-2.934 c 0,0 31.764,-59.034 -8.236,-79.034" class="fill-blue" fill="#8be9fd" fill-rule="nonzero" opacity="1" stroke="none" id="path19"/>
        <clipPath id="ClipPath_4">
            <path d="m 721.878,195.401 c 0,-26.735 20.991,-48.409 46.884,-48.409 25.893,0 46.884,21.674 46.884,48.409 0,26.736 -20.991,48.409 -46.884,48.409 -25.893,0 -46.884,-21.673 -46.884,-48.409 z" id="path20"/>
        </clipPath>
        <g clip-path="url(#ClipPath_4)" id="g21">
            <path d="m 864.428,226.642 c -29.703,-4.208 -64.412,-52.069 -94.116,-56.278 l 10e-4,-0.009 c -42.002,-3.678 -56.729,32.867 -104.538,33.419 -24.999,0.289 0,100 0,100 h -40 c 0,0 -15,-165 45,-145 36.008,12.003 0.211,0 0.211,0 24.605,3.487 52.645,36.926 78.429,50.695 5.343,2.853 10.589,4.861 15.687,5.584 l -10e-4,0.008 c 29.703,4.209 64.929,-38.055 104.929,-33.055 84.344,10.543 51.408,90.525 43.908,125.525 l -40.573,-1.351 c 0,0 31.601,-59.255 -8.399,-79.255" class="fill-red" fill="#ff5555" fill-rule="nonzero" opacity="1" stroke="none" id="path21"/>
        </g>
    </g>
    <g id="Layer-6" vectornator:layerName="Layer 6">
        <path d="m 665.775,203.472 c 29.703,4.209 74.835,-37.325 104.538,-33.117" fill="none" opacity="1" class="stroke-orange stroke-orange" stroke="#ffb86c" stroke-linecap="round" stroke-linejoin="round" stroke-width="4.86072" id="path22"/>
        <path d="m 707.741,185.501 c 0.581,-4.101 5.485,-6.797 10.953,-6.022 5.468,0.774 9.43,4.727 8.849,8.828 -0.581,4.101 -5.485,6.798 -10.953,6.023 -5.469,-0.775 -9.43,-4.727 -8.849,-8.829 z" class="fill-background" fill-rule="nonzero" opacity="1" stroke="none" id="path23"/>
        <path d="m 765.102,215.053 c -29.703,-4.209 -64.412,-52.07 -94.116,-56.279" fill="none" opacity="1" class="stroke-orange stroke-orange" stroke="#ffb86c" stroke-linecap="round" stroke-linejoin="round" stroke-width="4.86072" id="path24"/>
        <path d="m 765.101,215.061 c 29.703,4.209 74.835,-37.325 104.539,-33.116" fill="none" opacity="1" class="stroke-orange stroke-orange" stroke="#ffb86c" stroke-linecap="round" stroke-linejoin="round" stroke-width="4.86072" id="path25"/>
        <path d="m 807.067,197.091 c 0.581,-4.101 5.485,-6.798 10.953,-6.023 5.468,0.775 9.43,4.728 8.849,8.829 -0.581,4.101 -5.485,6.798 -10.953,6.023 -5.469,-0.775 -9.43,-4.728 -8.849,-8.829 z" class="fill-background" fill-rule="nonzero" opacity="1" stroke="none" id="path26"/>
        <path d="m 864.428,226.642 c -29.703,-4.208 -64.412,-52.069 -94.116,-56.278" fill="none" opacity="1" class="stroke-orange stroke-orange" stroke="#ffb86c" stroke-linecap="round" stroke-linejoin="round" stroke-width="4.86072" id="path27"/>
        <clipPath id="ClipPath_5">
            <path d="M 3.76895,21.076 H 978.159 L 961.053,310.555 740.843,292.94 c 0,0 -51.127,1.773 -188.452,1.642 -137.326,-0.13 -360.85,-2.165 -360.85,-2.165 l -101.6059,5.25 -82.22547,32.581 z" id="path28"/>
        </clipPath>
        <g clip-path="url(#ClipPath_5)" id="g30">
            <path d="m 670.775,158.774 c -60,-20 -186.773,138.084 -186.773,138.084 l 45.621,0.515 c 0,0 111.276,-96.086 136.152,-93.599" fill="none" opacity="1" class="stroke-orange stroke-orange" stroke="#ffb86c" stroke-linecap="butt" stroke-linejoin="round" stroke-width="4.86072" id="path29"/>
            <path d="m 864.966,226.925 c 40,20 3.344,85.357 3.344,85.357 l 44.437,0.685 c 7.5,-35 41.627,-120.418 -42.717,-130.961" fill="none" opacity="1" class="stroke-orange stroke-orange" stroke="#ffb86c" stroke-linecap="round" stroke-linejoin="round" stroke-width="4.86072" id="path30"/>
        </g>
    </g>
    <g id="Layer-3" vectornator:layerName="Layer 3">
        <path d="m 622.246,172.798 -39.899,26.325 19.744,37.225 39.693,-27.559 z" class="fill-red stroke-orange stroke-orange" fill="#ff5555" fill-rule="nonzero" filter="url(#Filter_4)" stroke="#ffb86c" stroke-linecap="butt" stroke-linejoin="round" stroke-width="4.86072" vectornator:shadowAngle="-0.534885" vectornator:shadowColor="#282a36" vectornator:shadowOffset="6.16438" vectornator:shadowOpacity="0.9" vectornator:shadowRadius="8.50685" id="path31"/>
        <path d="M 753.047,245.398" class="fill-red stroke-orange stroke-orange" fill="#ff5555" fill-rule="nonzero" filter="url(#Filter_5)" stroke="#ffb86c" stroke-linecap="butt" stroke-linejoin="round" stroke-width="4.86072" vectornator:shadowAngle="-0.534885" vectornator:shadowColor="#282a36" vectornator:shadowOffset="6.16438" vectornator:shadowOpacity="0.9" vectornator:shadowRadius="8.50685" id="path32"/>
        <path d="m 622.246,172.798 -39.899,26.325 19.744,37.225 39.693,-27.559 z" class="fill-red stroke-orange stroke-orange" fill="#ff5555" fill-rule="nonzero" filter="url(#Filter_6)" stroke="#ffb86c" stroke-linecap="butt" stroke-linejoin="round" stroke-width="4.86072" vectornator:shadowAngle="2.43597" vectornator:shadowColor="#282a36" vectornator:shadowOffset="5.13699" vectornator:shadowOpacity="0.9" vectornator:shadowRadius="8.50685" id="path33"/>
        <path d="m 568.868,190.134 c -29.703,-4.209 -64.412,-52.07 -94.116,-56.278 l 10e-4,-0.009 c -29.703,-4.209 -54.547,30.412 -104.538,33.419 -22.382,1.346 -33.93,37.129 -32.721,136.895 0.034,2.767 -37.632,-1.346 -37.723,-2.373 -10.667,-121.12 3.514,-179.484 75.444,-179.522 37.955,-0.02 0.211,0 0.211,0 24.605,3.486 52.645,36.926 78.429,50.694 5.343,2.853 10.589,4.862 15.687,5.584 l -10e-4,0.009 c 29.703,4.209 64.929,-38.056 104.929,-33.056 84.344,10.543 81.007,127.127 76.307,161.978 l -42.303,-0.989 c 0,0 0.932,-96.07 -39.068,-116.07" class="fill-blue" fill="#8be9fd" fill-rule="nonzero" opacity="1" stroke="none" id="path34"/>
        <clipPath id="ClipPath_6">
            <path d="m 426.318,158.893 c 0,-26.736 20.991,-48.41 46.884,-48.41 25.893,0 46.884,21.674 46.884,48.41 0,26.735 -20.991,48.409 -46.884,48.409 -25.893,0 -46.884,-21.674 -46.884,-48.409 z" id="path35"/>
        </clipPath>
        <g clip-path="url(#ClipPath_6)" id="g36">
            <path d="m 568.868,190.134 c -29.703,-4.209 -64.412,-52.07 -94.116,-56.278 l 10e-4,-0.009 c -42.002,-3.679 -56.729,32.867 -104.538,33.419 -24.998,0.289 0,100 0,100 h -40 c 0,0 -15,-165 45,-145 36.008,12.002 0.211,0 0.211,0 24.605,3.486 52.645,36.926 78.429,50.694 5.343,2.853 10.589,4.862 15.687,5.584 l -10e-4,0.009 c 29.703,4.209 64.929,-38.056 104.929,-33.056 84.344,10.543 51.408,90.526 43.908,125.526 l -40.573,-1.352 c 0,0 31.601,-59.255 -8.399,-79.255" class="fill-red" fill="#ff5555" fill-rule="nonzero" opacity="1" stroke="none" id="path36"/>
        </g>
    </g>
    <g clip-path="url(#ArtboardFrame_7)" id="Layer-4" vectornator:layerName="Layer 4">
        <path d="m 367.877,167.8 c 29.704,4.208 74.836,-37.326 104.539,-33.117" fill="none" opacity="1" class="stroke-orange stroke-orange" stroke="#ffb86c" stroke-linecap="round" stroke-linejoin="round" stroke-width="4.86072" id="path37"/>
        <path d="m 409.843,149.829 c 0.581,-4.101 5.485,-6.797 10.954,-6.023 5.468,0.775 9.43,4.728 8.849,8.829 -0.582,4.101 -5.486,6.798 -10.954,6.023 -5.468,-0.775 -9.43,-4.728 -8.849,-8.829 z" class="fill-background" fill-rule="nonzero" opacity="1" stroke="none" id="path38"/>
        <path d="m 467.205,179.38 c -29.704,-4.208 -64.413,-52.069 -94.116,-56.278" fill="none" opacity="1" class="stroke-orange stroke-orange" stroke="#ffb86c" stroke-linecap="round" stroke-linejoin="round" stroke-width="4.86072" id="path39"/>
        <path d="m 467.204,179.389 c 29.703,4.209 74.835,-37.325 104.538,-33.116" fill="none" opacity="1" class="stroke-orange stroke-orange" stroke="#ffb86c" stroke-linecap="round" stroke-linejoin="round" stroke-width="4.86072" id="path40"/>
        <path d="m 509.169,161.419 c 0.582,-4.101 5.486,-6.798 10.954,-6.023 5.468,0.775 9.43,4.728 8.849,8.829 -0.581,4.101 -5.485,6.797 -10.954,6.023 -5.468,-0.775 -9.43,-4.728 -8.849,-8.829 z" class="fill-background" fill-rule="nonzero" opacity="1" stroke="none" id="path41"/>
        <path d="m 566.531,190.97 c -29.704,-4.209 -64.413,-52.069 -94.116,-56.278" fill="none" opacity="1" class="stroke-orange stroke-orange" stroke="#ffb86c" stroke-linecap="round" stroke-linejoin="round" stroke-width="4.86072" id="path42"/>
        <clipPath id="ClipPath_7">
            <path d="m -294.128,-14.5962 h 974.39 l -26.905,315.4042 -6.195,-0.671 2.26,-13.934 -37.54,-1.663 -0.406,14.017 -271.075,-14.289 -0.27,14.278 c 0,0 -40.682,-1.064 -86.947,-1.108 -137.325,-0.13 -359.54,-40.693 -359.54,-40.693 l -101.606,5.25 -82.226,32.581 z" id="path43"/>
        </clipPath>
        <g clip-path="url(#ClipPath_7)" id="g45">
            <path d="M 372.877,123.102 C 269.216,107.426 300.704,300.928 300.704,300.928 l 37.132,-0.18 c 0,0 -6.732,-131.262 30.041,-132.646" fill="none" opacity="1" class="stroke-orange stroke-orange" stroke="#ffb86c" stroke-linecap="butt" stroke-linejoin="round" stroke-width="4.86072" id="path44"/>
            <path d="m 567.069,191.252 c 40,20 41.735,103.196 41.735,103.196 l 41.721,1.46 c 7.5,-35 5.952,-139.031 -78.392,-149.574" fill="none" opacity="1" class="stroke-orange stroke-orange" stroke="#ffb86c" stroke-linecap="round" stroke-linejoin="round" stroke-width="4.86072" id="path45"/>
        </g>
    </g>
    <g id="Layer-10" vectornator:layerName="Layer 10">
        <path d="m 224.603,144.857 c 4.63,-7.888 26.892,-14.227 30.498,-4.233 3.605,9.994 -12.839,19.934 -16.726,23.174 -2.446,2.038 -24.679,5.863 -30.113,-3.712 -4.685,-8.255 5.966,2.443 16.341,-15.229 z" class="fill-blue stroke-orange stroke-orange" fill="#8be9fd" fill-rule="nonzero" filter="url(#Filter_7)" stroke="#ffb86c" stroke-linecap="butt" stroke-linejoin="round" stroke-width="9.83584" vectornator:shadowAngle="2.09486" vectornator:shadowColor="#282a36" vectornator:shadowOffset="7.19178" vectornator:shadowOpacity="0.9" vectornator:shadowRadius="8.50685" id="path46"/>
        <path d="m 224.603,144.857 c 4.63,-7.888 26.892,-14.227 30.498,-4.233 3.605,9.994 -12.839,19.934 -16.726,23.174 -2.446,2.038 -24.679,5.863 -30.113,-3.712 -4.685,-8.255 5.966,2.443 16.341,-15.229 z" class="fill-blue stroke-orange stroke-orange" fill="#8be9fd" fill-rule="nonzero" filter="url(#Filter_8)" stroke="#ffb86c" stroke-linecap="butt" stroke-linejoin="round" stroke-width="9.83584" vectornator:shadowAngle="-1.01235" vectornator:shadowColor="#282a36" vectornator:shadowOffset="11.1301" vectornator:shadowOpacity="0.9" vectornator:shadowRadius="8.50685" id="path47"/>
        <path d="m 227.466,170.969 c -32.826,-4.653 -58.238,-24.971 -87.949,-20.812 l -0.001,-0.009 c -29.711,4.158 -44.0269,44.295 -91.2428,60.991 -21.139,7.476 36.1037,99.143 36.1037,99.143 l -36.5253,20.576 c 0,0 -70.3913,-167 -7.2013,-164.349 37.9222,1.591 0.2032,-0.059 0.2032,-0.059 24.6109,-3.444 60.7955,20.95 89.3795,27.062 5.923,1.266 11.519,1.748 16.619,1.034 l 0.001,0.009 c 29.711,-4.159 53.939,-61.154 93.764,-67.396 83.975,-13.162 -0.448,145.133 9.853,172.272 0,0 -62.72,31.207 -48.714,1.712 60.416,-127.231 50.042,-126.725 25.71,-130.174 z" class="fill-blue" fill="#8be9fd" fill-rule="nonzero" opacity="1" stroke="none" id="path48"/>
        <clipPath id="ClipPath_8">
            <path d="m 96.1579,191.909 c -7.3841,-25.696 10.5281,-56.636 35.4141,-63.787 24.886,-7.152 51.046,7.882 58.43,33.577 7.384,25.696 -6.804,52.324 -31.69,59.475 -24.886,7.152 -54.77,-3.57 -62.1541,-29.265 z" id="path49"/>
        </clipPath>
        <g clip-path="url(#ClipPath_8)" id="g51">
            <path d="m 245.515,178.252 c -29.71,4.159 -76.287,-32.254 -105.998,-28.095 l -0.001,-0.009 c -41.3849,8.065 -45.4459,47.256 -91.2428,60.991 -23.9462,7.182 27.6187,96.111 27.6187,96.111 l -38.4441,11.047 c 0,0 -59.9875,-154.439 3.2025,-151.788 37.9222,1.591 0.2032,-0.059 0.2032,-0.059 24.6109,-3.444 60.7955,20.95 89.3795,27.062 5.923,1.266 11.519,1.748 16.619,1.034 l 0.001,0.009 c 29.711,-4.159 51.894,-54.508 91.719,-60.75 83.975,-13.162 74.41,72.806 76.868,108.516 l -39.368,9.906 c 0,0 14.006,-65.678 -29.961,-73.852" class="fill-red" fill="#ff5555" fill-rule="nonzero" opacity="1" stroke="none" id="path50"/>
            <path d="m 225.232,130.899 -28.338,36.94 43.013,4.049 29.096,-37.952 z" fill="none" opacity="1" class="stroke-orange stroke-orange" stroke="#ffb86c" stroke-linecap="butt" stroke-linejoin="round" stroke-width="4.86072" id="path51"/>
        </g>
    </g>
    <g clip-path="url(#ArtboardFrame_7)" id="Layer-5" vectornator:layerName="Layer 5">
        <path d="m 48.208,211.169 c 29.5871,-4.96 60.065,-58.187 89.652,-63.147" fill="none" opacity="1" class="stroke-orange stroke-orange" stroke="#ffb86c" stroke-linecap="round" stroke-linejoin="round" stroke-width="4.86072" id="path52"/>
        <path d="m 82.7852,181.361 c -0.6849,-4.085 3.1754,-8.137 8.6222,-9.05 5.4469,-0.913 10.4176,1.658 11.1026,5.744 0.685,4.085 -3.1756,8.137 -8.6224,9.05 -5.4468,0.913 -10.4176,-1.658 -11.1024,-5.744 z" class="fill-background" fill-rule="nonzero" opacity="1" stroke="none" id="path53"/>
        <path d="m 146.393,192.205 c -29.587,4.96 -77.1316,-30.18 -106.7187,-25.22" fill="none" opacity="1" class="stroke-orange stroke-orange" stroke="#ffb86c" stroke-linecap="round" stroke-linejoin="round" stroke-width="4.86072" id="path54"/>
        <path d="m 146.395,192.214 c 29.587,-4.961 60.065,-58.187 89.652,-63.148" fill="none" opacity="1" class="stroke-orange stroke-orange" stroke="#ffb86c" stroke-linecap="round" stroke-linejoin="round" stroke-width="4.86072" id="path55"/>
        <path d="m 180.972,162.406 c -0.685,-4.085 3.176,-8.137 8.623,-9.05 5.446,-0.913 10.417,1.658 11.102,5.743 0.685,4.085 -3.176,8.137 -8.622,9.05 -5.447,0.914 -10.418,-1.658 -11.103,-5.743 z" class="fill-background" fill-rule="nonzero" opacity="1" stroke="none" id="path56"/>
        <path d="m 235.378,171.716 c -29.587,4.96 -67.93,-28.646 -97.517,-23.686" fill="none" opacity="1" class="stroke-orange stroke-orange" stroke="#ffb86c" stroke-linecap="round" stroke-linejoin="round" stroke-width="4.86072" id="path57"/>
        <clipPath id="ClipPath_9">
            <path d="M -637.969,237.266 357.782,4.20152 252.343,297.433 l -4.524,0.275 -0.265,-10.827 -36.474,-3.58 -7.088,15.9 -6.907,-0.141 -50.29,-25.279 c 0,0 -59.4081,35.679 -63.4183,37.065 -11.6865,4.038 -37.8934,5.373 -37.8934,5.373 l 3.3667,8.814 -6.6351,4.533 -419.2189,109.646 -95.274,35.696 -68.543,55.897 z" id="path58"/>
        </clipPath>
        <g clip-path="url(#ClipPath_9)" id="g60">
            <path d="m 39.4727,167.049 c -63.2385,-0.941 7.3959,159.633 7.3959,159.633 l 39.2732,-13.836 c 0,0 -62.3076,-96.246 -37.8423,-101.389" fill="none" opacity="1" class="stroke-orange stroke-orange" stroke="#ffb86c" stroke-linecap="butt" stroke-linejoin="round" stroke-width="4.86072" id="path59"/>
            <path d="m 235.449,171.58 c 35.832,-0.957 -33.895,126.614 -33.895,126.614 l 48.702,-2.034 c -3.423,-35.63 70.729,-183.219 -12.859,-167.791" fill="none" opacity="1" class="stroke-orange stroke-orange" stroke="#ffb86c" stroke-linecap="round" stroke-linejoin="round" stroke-width="4.86072" id="path60"/>
        </g>
    </g>
</svg>
