<?xml version="1.0" encoding="UTF-8" standalone="no"?>
<!DOCTYPE svg PUBLIC "-//W3C//DTD SVG 1.1//EN" "http://www.w3.org/Graphics/SVG/1.1/DTD/svg11.dtd">
<!-- Created with Vectornator (http://vectornator.io/) -->
<svg height="100%" stroke-miterlimit="10" style="fill-rule:nonzero;clip-rule:evenodd;stroke-linecap:round;stroke-linejoin:round;" version="1.1" viewBox="0 0 565 565" width="100%" xml:space="preserve" xmlns="http://www.w3.org/2000/svg" xmlns:vectornator="http://vectornator.io" xmlns:xlink="http://www.w3.org/1999/xlink">
<defs/>
<clipPath id="ArtboardFrame">
<rect height="565" width="565" x="0" y="0"/>
</clipPath>
<g clip-path="url(#ArtboardFrame)" id="Layer-1" vectornator:layerName="Layer 1">
<path d="M-114.77-178.661L1050.74-178.661L1050.74 1018.72L-114.77 1018.72L-114.77-178.661Z" fill="#282a36" fill-rule="nonzero" opacity="1" stroke="none"/>
</g>
<g id="Layer-2" vectornator:layerName="Layer 2">
<path d="M258.114 90.856C303.19 97.2429 376.675 48.9049 416.753 40.6016" fill="none" opacity="1" stroke="#ba1775" stroke-dasharray="10.0" stroke-linecap="round" stroke-linejoin="round" stroke-width="7.37622"/>
</g>
<g clip-path="url(#ArtboardFrame)" id="Layer-5" vectornator:layerName="Layer 5">
<path d="M-408.155 503.811C-408.155 503.811-448.322 422.771-452.325 378.738C-459.546 299.299-405.392 246.572-332.5 234.424C-219.599 215.607-121.008 462.482-210.925 518.68C-249.965 543.08-289.852 540.067-339.16 536.349C-388.467 532.632-408.155 503.811-408.155 503.811Z" fill="none" opacity="1" stroke="#ff79c6" stroke-dasharray="15.175149860579218" stroke-linecap="round" stroke-linejoin="round" stroke-width="7.37622"/>
<path d="M79.0813 454.095C56.3372 400.5 54.3423 311.321 59.4089 227.069C62.8835 169.291 65.1159 112.22 84.4765 76.9613C95.0366 57.73 135.12 48.2092 185.014 46.1914C231.44 44.3138 288.439 54.3942 335.97 63.7302C385.113 73.3825 417.178 77.6369 440.076 100.388C496.276 156.227 491.47 448.454 352.462 487.836C301.974 502.139 113.411 534.991 79.0813 454.095Z" fill="none" opacity="1" stroke="#ff79c6" stroke-dasharray="15.175149860579218" stroke-linecap="round" stroke-linejoin="round" stroke-width="7.37622"/>
</g>
<g id="Layer-11" vectornator:layerName="Layer 11">
<path d="M418.555 40.8694C546.548 56.8685 470.104 396.654 458.722 449.767" fill="none" opacity="1" stroke="#ba1775" stroke-dasharray="10.0" stroke-linecap="round" stroke-linejoin="round" stroke-width="7.37622"/>
<path d="M22.1801 447.305C22.1801 447.305 39.2354 487.87 52.8596 499.219C157.647 586.511 298.462 562.165 372.209 533.123C451.758 501.795 459.199 451.028 459.199 451.028" fill="none" opacity="1" stroke="#ba1775" stroke-dasharray="10.0" stroke-linecap="round" stroke-linejoin="round" stroke-width="7.37622"/>
<path d="M21.2107 444.457C21.2107 444.457 41.2805-11.8963 115.923 5.40669" fill="none" opacity="1" stroke="#ba1775" stroke-dasharray="10.0" stroke-linecap="round" stroke-linejoin="round" stroke-width="7.37622"/>
<path d="M258.116 90.8428C187.905 103.102 160.369 11.8267 115.294 5.43979" fill="none" opacity="1" stroke="#ba1775" stroke-dasharray="10.0" stroke-linecap="round" stroke-linejoin="round" stroke-width="7.37622"/>
</g>
</svg>
