<!-- Created with Vectornator (http://vectornator.io/) -->
<svg xmlns:inkscape="http://www.inkscape.org/namespaces/inkscape" xmlns:sodipodi="http://sodipodi.sourceforge.net/DTD/sodipodi-0.dtd" xmlns="http://www.w3.org/2000/svg" xmlns:svg="http://www.w3.org/2000/svg" xmlns:vectornator="http://vectornator.io" stroke-miterlimit="10" style="clip-rule:evenodd;fill-rule:nonzero;stroke-linecap:round;stroke-linejoin:round" version="1.1" viewBox="0 0 582.36462 499.57635" xml:space="preserve" id="svg11" sodipodi:docname="ji_loops.svg"><sodipodi:namedview id="namedview11" pagecolor="#ffffff" bordercolor="#000000" borderopacity="0.25" inkscape:showpageshadow="2" inkscape:pageopacity="0.0" inkscape:pagecheckerboard="0" inkscape:deskcolor="#d1d1d1"/>
    <defs id="defs1"/>
    <clipPath id="ArtboardFrame_11">
        <rect height="565" width="620" x="0" y="0" id="rect1"/>
    </clipPath>
    <g clip-path="url(#ArtboardFrame_11)" id="Layer-2" vectornator:layerName="Layer 2" transform="translate(-10.393385,-40.833928)">
        <clipPath id="ClipPath">
            <path d="M 260.125,164.287 253.396,159.932 231.624,131.233 274.028,82.7343 255.015,46.3614 103.736,49.668 -32.6622,148.867 -12.8224,316.679 81.4166,516.73 348.427,542.356 415.386,441.504 453.494,328.983 313.071,138.318 297.568,112.567 Z" id="path1"/>
        </clipPath>
        <g clip-path="url(#ClipPath)" id="g2">
            <path d="M 38.6307,290.872 C 28.8439,183.218 86.1766,110.48 184.958,94.016 c 80.831,-13.4718 156.25,73.552 191.446,169.877" fill="none" opacity="1" class="stroke-blue" stroke="#8be9fd" stroke-linecap="round" stroke-linejoin="round" stroke-width="9.99607" id="path2"/>
        </g>
    </g>
    <g clip-path="url(#ArtboardFrame_11)" id="Layer-10" vectornator:layerName="Layer 10" transform="translate(-10.393385,-40.833928)">
        <clipPath id="ClipPath_2">
            <path d="m 274.109,523.587 6.243,5.633 L 239.494,515.98 208.6,490.832 155.294,208.243 277.321,29.0559 548.349,12.3574 633.768,135.669 c 0,0 30.186,263.322 29.544,274.24 -0.642,10.918 -57.16,170.838 -59.729,179.83 -2.569,8.991 -121.385,68.078 -121.385,68.078 L 315.213,607.722 Z" id="path3"/>
        </clipPath>
        <g clip-path="url(#ClipPath_2)" id="g7">
            <g opacity="1" id="g6">
                <path d="m 234.325,433.69 c 14.978,23.792 51.957,78.778 79.938,89.271 60.456,22.671 151.86,12.6 202.107,-19.375 41.605,-26.476 54.558,-66.102 64.721,-122.059 C 600.45,274.929 578.351,132.559 504.985,73.8662 437.683,20.0249 337.926,50.2906 277.841,108.934 c -32.741,31.955 -45.324,76.945 -53.768,110.722 -13.837,55.348 -13.774,105.412 -9.482,161.199 1.911,24.847 13,41.836 13,41.836" fill="none" class="stroke-orange stroke-orange" stroke="#ffb86c" stroke-linecap="round" stroke-linejoin="round" stroke-width="9.99459" id="path4"/>
                <g class="fill-orange" fill="#ffb86c" stroke="none" id="g5">
                    <path d="m 278.069,440.308 -44.707,-15.598 -5.767,-2.012 -0.831,6.051 -6.436,46.91 c -0.375,2.734 1.538,5.255 4.272,5.63 2.734,0.376 5.255,-1.537 5.63,-4.271 l 6.436,-46.911 -6.597,4.039 44.707,15.598 c 2.606,0.909 5.456,-0.466 6.365,-3.072 0.909,-2.606 -0.467,-5.455 -3.072,-6.364 z" class="fill-orange" fill="#ffb86c" id="path5"/>
                </g>
            </g>
        </g>
    </g>
    <g clip-path="url(#ArtboardFrame_11)" id="Layer-5" vectornator:layerName="Layer 5" transform="translate(-10.393385,-40.833928)">
        <clipPath id="ClipPath_3">
            <path d="M 291.855,474.079 328.162,514.16 283.811,528.467 254.417,492.635 231.624,131.233 274.028,82.7343 255.015,46.3614 103.736,49.668 -32.6622,148.867 -12.8224,316.679 81.4166,516.73 348.427,542.356 415.386,441.504 453.494,328.983 313.071,138.318 297.568,112.567 Z" id="path7"/>
        </clipPath>
        <g clip-path="url(#ClipPath_3)" id="g11">
            <g opacity="1" id="g10">
                <path d="m 41.4366,301.753 c 8.7658,61.346 40.9947,157.331 40.9947,157.331 0,0 26.6807,39.057 93.5007,44.095 66.821,5.037 120.875,9.121 173.781,-23.946 57.477,-35.923 58.116,-129.339 26.691,-215.34" fill="none" class="stroke-blue" stroke="#8be9fd" stroke-linecap="round" stroke-linejoin="round" stroke-width="9.99607" id="path8"/>
                <g class="fill-blue" fill="#8be9fd" stroke="none" id="g9">
                    <path d="m 78.4176,326.049 -34.1027,-32.858 -4.399,-4.239 -3.2835,5.151 -25.455,39.934 c -1.48369,2.328 -0.7995,5.418 1.5281,6.901 2.3277,1.484 5.4174,0.8 6.9012,-1.528 l 25.455,-39.934 -7.6826,0.913 34.1027,32.859 c 1.9878,1.915 5.1518,1.856 7.0671,-0.132 1.9152,-1.987 1.8564,-5.151 -0.1313,-7.067 z" class="fill-blue" fill="#8be9fd" id="path9"/>
                </g>
            </g>
        </g>
    </g>
</svg>
