<?xml version="1.0" encoding="UTF-8" standalone="no"?>
<!DOCTYPE svg PUBLIC "-//W3C//DTD SVG 1.1//EN" "http://www.w3.org/Graphics/SVG/1.1/DTD/svg11.dtd">
<!-- Created with Vectornator (http://vectornator.io/) -->
<svg height="100%" stroke-miterlimit="10" style="fill-rule:nonzero;clip-rule:evenodd;stroke-linecap:round;stroke-linejoin:round;" version="1.1" viewBox="0 0 570 565" width="100%" xml:space="preserve" xmlns="http://www.w3.org/2000/svg" xmlns:vectornator="http://vectornator.io" xmlns:xlink="http://www.w3.org/1999/xlink">
<defs>
<filter color-interpolation-filters="sRGB" filterUnits="userSpaceOnUse" height="197.502" id="Filter" width="388.62" x="1058.03" y="49.3683">
<feDropShadow dx="-2.56617" dy="-21.0772" flood-color="#282a36" flood-opacity="0.9" in="SourceGraphic" result="Shadow" stdDeviation="12.633"/>
</filter>
<filter color-interpolation-filters="sRGB" filterUnits="userSpaceOnUse" height="197.502" id="Filter_2" width="388.62" x="1062.86" y="86.814">
<feDropShadow dx="-5.55836" dy="20.4924" flood-color="#282a36" flood-opacity="0.9" in="SourceGraphic" result="Shadow" stdDeviation="12.633"/>
</filter>
<filter color-interpolation-filters="sRGB" filterUnits="userSpaceOnUse" height="183.164" id="Filter_3" width="222.457" x="97.4001" y="32.8622">
<feDropShadow dx="-21.1161" dy="-2.22294" flood-color="#282a36" flood-opacity="0.79054" in="SourceGraphic" result="Shadow" stdDeviation="11.8199"/>
</filter>
<filter color-interpolation-filters="sRGB" filterUnits="userSpaceOnUse" height="182.35" id="Filter_4" width="221.644" x="127.696" y="46.5006">
<feDropShadow dx="8.77333" dy="11.0089" flood-color="#282a36" flood-opacity="0.79054" in="SourceGraphic" result="Shadow" stdDeviation="11.6572"/>
</filter>
<filter color-interpolation-filters="sRGB" filterUnits="userSpaceOnUse" height="531.745" id="Filter_5" width="420.025" x="134.849" y="33.6019">
<feDropShadow dx="-2.06407" dy="21.3729" flood-color="#282a36" flood-opacity="0.79054" in="SourceGraphic" result="Shadow" stdDeviation="2.14041"/>
</filter>
<filter color-interpolation-filters="sRGB" filterUnits="userSpaceOnUse" height="28.6945" id="Filter_6" width="27.2536" x="278.174" y="75.1757">
<feDropShadow dx="9.20751" dy="10.6484" flood-color="#282a36" flood-opacity="0.79054" in="SourceGraphic" result="Shadow" stdDeviation="3.52579"/>
</filter>
</defs>
<clipPath id="ArtboardFrame">
<rect height="565" width="570" x="0" y="0"/>
</clipPath>
<g clip-path="url(#ArtboardFrame)" id="Layer-1" vectornator:layerName="Layer 1">
<path d="M-114.77-178.661L1050.74-178.661L1050.74 1018.72L-114.77 1018.72L-114.77-178.661Z" fill="#282a36" fill-rule="nonzero" opacity="1" stroke="none"/>
<path d="M405.041 379.328C409.131 395.687 476.077 474.141 494.954 436.388" fill="none" opacity="1" stroke="#44475a" stroke-linecap="round" stroke-linejoin="round" stroke-width="4.86072"/>
<path d="M145.679 382.21C146.448 381.826 147.216 381.442 147.985 381.057" fill="none" opacity="1" stroke="#44475a" stroke-linecap="round" stroke-linejoin="round" stroke-width="4.86072"/>
<path d="M148.561 374.717C132.449 423.053 178.865 421.833 202.163 435.812" fill="none" opacity="1" stroke="#44475a" stroke-linecap="round" stroke-linejoin="round" stroke-width="4.86072"/>
</g>
<g clip-path="url(#ArtboardFrame)" id="Layer-2" vectornator:layerName="Layer 2">
<clipPath id="ClipPath">
<path d="M-98.7064 605.904C-116.704 493.977-16.7368 395.057-16.7368 395.057L-0.998292 425.202L70.4657 394.328L60.3514 367.556L137.716 350.113L141.598 380.604L237.551 373.839L232.533 333.388C232.533 333.388 275.561 330.262 290.375 329.639C293.39 329.512 301.163 371.11 301.163 371.11L386.693 368.989C386.693 368.989 379.513 326.111 384.053 325.955C411.777 325.006 474.572 317.512 474.572 317.512L474.127 370.054L550.303 369.011L553.296 315.808C553.296 315.808 582.921 314.132 595.007 313.993C601.337 313.921 600.147 367.437 600.147 367.437L668.129 367.616C668.129 367.616 665.664 297.327 673.164 297.226C720.024 296.599 909.128 279.928 909.128 279.928L837.383 367.892L909.87 368.53L1002.24 299.668C1002.24 299.668 1042.36 300.283 1079.14 303.812C1085.95 304.465 1071.65 370.409 1071.65 370.409L1138.29 371.674L1158.27 302.682L1586.56 334.913L1574.46 385.152L1642.44 390.385C1642.44 390.385 1660.16 339.093 1661.03 339.385C1846.66 400.938 1825.78 502.487 1825.78 605.904C1825.78 709.763 1858.82 781.214 1671.82 842.764C1613.08 862.096 201.323 890.229 55.2525 842.764C-134.128 781.226-80.7091 717.831-98.7064 605.904Z"/>
</clipPath>
<g clip-path="url(#ClipPath)">
<path d="M-83.007 620.762C-83.007 520.475-103.679 445.57 80.1285 386.342C223.188 340.244 1602.1 367.486 1659.85 386.342C1841.24 445.577 1810.29 514.761 1810.29 614.283C1810.29 714.231 1842.58 782.991 1659.85 842.223C1602.45 860.828 222.869 887.901 80.1285 842.223C-104.934 783.003-83.007 721.445-83.007 620.762Z" fill="#8be9fd" fill-rule="nonzero" opacity="1" stroke="#ffb86c" stroke-linecap="round" stroke-linejoin="round" stroke-width="9.23296"/>
</g>
</g>
<g id="Twist" vectornator:layerName="Twist" visibility="hidden">
<path d="M280.436 445.075C308.805 435.319 331.996 379.756 360.366 370" fill="none" opacity="1" stroke="#8be9fd" stroke-linecap="round" stroke-linejoin="round" stroke-width="10.4833"/>
<path d="M310.944 410.79C309.597 406.873 312.739 402.241 317.962 400.445C323.184 398.649 328.51 400.368 329.857 404.285C331.204 408.202 328.062 412.834 322.84 414.63C317.617 416.426 312.291 414.707 310.944 410.79Z" fill="#282a36" fill-rule="nonzero" opacity="1" stroke="none"/>
<path d="M375 412.554C346.631 422.31 294.171 392.765 265.801 402.521" fill="none" opacity="1" stroke="#8be9fd" stroke-linecap="round" stroke-linejoin="round" stroke-width="10.4833"/>
</g>
<g clip-path="url(#ArtboardFrame)" id="Layer-4" vectornator:layerName="Layer 4">
<clipPath id="ClipPath_2">
<path d="M-76.5948-156.197L1770.1-156.197L1737.68 400.68L1320.33 366.794C1320.33 366.794 1226.32 371.494 966.057 371.243C787.007 371.07 386.271 363.96 386.271 363.96L386.929 369.255L288.556 371.612L78.1596 379.518L70.8243 394.373L-1.32402 425.564L-69.1263 438.564L-76.5948-156.197Z"/>
</clipPath>
<g clip-path="url(#ClipPath_2)">
<path d="M182.923 63.1537C152.156 63.2115 121.057 69.767 91.5089 82.2081C33.4895 106.637-17.1784 147.622-38.2511 209.356C-75.0267 317.093-2.10193 431.957-2.10193 431.957L77.0174 397.752C77.0174 397.752 39.8067 309.08 54.9434 247.346C61.4309 220.888 94.9133 190.058 130.567 175.046C166.444 159.941 202.649 158.924 226.552 173.562C277.245 204.607 297.659 385.945 297.659 385.945L393.024 381.459C393.024 381.459 362.723 138.125 272.14 83.6921C245.384 67.6139 213.672 63.096 182.923 63.1537Z" fill="#8be9fd" fill-rule="nonzero" opacity="1" stroke="#ffb86c" stroke-linecap="butt" stroke-linejoin="round" stroke-width="9.23296"/>
</g>
</g>
<g clip-path="url(#ArtboardFrame)" id="Layer-8" vectornator:layerName="Layer 8">
<path d="M1080.63-52.7116C1024.21-60.7063 958.275-151.618 901.854-159.612L901.856-159.629C845.434-167.623 798.242-101.861 703.284-96.1492C660.915-93.6009 670.292 270.909 672.761 348.289C673.055 357.482 671.857 367.576 671.857 367.576L600.207 367.929C600.207 367.929 598.811-219.617 712.781-181.627C781.179-158.828 713.183-181.627 713.183-181.627C759.92-175.004 813.182-111.486 862.16-85.3326C872.308-79.9134 882.272-76.0984 891.956-74.7262L891.954-74.7097C948.376-66.715 1015.29-146.996 1091.27-137.499C1251.48-117.472 1155.93 305.195 1141.68 371.678L1069.06 370.392C1069.06 370.392 1157.63-14.1855 1081.65-52.1756" fill="#8be9fd" fill-rule="nonzero" opacity="1" stroke="none"/>
<clipPath id="ClipPath_3">
<path d="M809.853-112.054C809.853-162.839 849.725-204.008 898.909-204.008C948.093-204.008 987.964-162.839 987.964-112.054C987.964-61.2698 948.093-20.1009 898.909-20.1009C849.725-20.1009 809.853-61.2698 809.853-112.054Z"/>
</clipPath>
<g clip-path="url(#ClipPath_3)">
<path d="M1080.63-52.7116C1024.21-60.7063 958.275-151.618 901.854-159.612L901.856-159.629C822.072-166.616 794.097-97.1981 703.284-96.1492C655.799-95.6007 703.284 93.8013 703.284 93.8013L627.304 93.8013C627.304 93.8013 598.811-219.617 712.781-181.627C781.179-158.828 713.183-181.627 713.183-181.627C759.92-175.004 813.182-111.486 862.16-85.3326C872.308-79.9134 882.272-76.0984 891.956-74.7262L891.954-74.7097C948.376-66.715 1015.29-146.996 1091.27-137.499C1251.48-117.472 1188.92 34.4551 1174.67 100.938L1097.6 98.3699C1097.6 98.3699 1157.63-14.1855 1081.65-52.1756" fill="#ff5555" fill-rule="nonzero" opacity="1" stroke="none"/>
</g>
</g>
<g id="Layer-5" vectornator:layerName="Layer 5"/>
<g clip-path="url(#ArtboardFrame)" id="Layer-7" vectornator:layerName="Layer 7">
<path d="M703.284-96.7243C756.627-94.5771 845.434-167.623 901.856-159.629" fill="none" opacity="1" stroke="#ffb86c" stroke-linecap="round" stroke-linejoin="round" stroke-width="9.23296"/>
<path d="M782.998-130.859C784.102-138.649 793.417-143.771 803.804-142.299C814.191-140.828 821.717-133.319 820.613-125.529C819.509-117.739 810.194-112.617 799.807-114.089C789.42-115.56 781.895-123.069 782.998-130.859Z" fill="#282a36" fill-rule="nonzero" opacity="1" stroke="none"/>
<path d="M891.956-74.7262C835.535-82.7209 769.605-173.632 713.183-181.627" fill="none" opacity="1" stroke="#ffb86c" stroke-linecap="round" stroke-linejoin="round" stroke-width="9.23296"/>
<path d="M891.954-74.7097C948.376-66.715 1034.1-145.609 1090.53-137.614" fill="none" opacity="1" stroke="#ffb86c" stroke-linecap="round" stroke-linejoin="round" stroke-width="9.23296"/>
<path d="M971.669-108.844C972.773-116.635 982.088-121.757 992.475-120.285C1002.86-118.813 1010.39-111.305 1009.28-103.515C1008.18-95.7244 998.864-90.6023 988.477-92.0741C978.09-93.5458 970.565-101.054 971.669-108.844Z" fill="#282a36" fill-rule="nonzero" opacity="1" stroke="none"/>
<path d="M1080.63-52.7116C1024.21-60.7063 958.275-151.618 901.854-159.612" fill="none" opacity="1" stroke="#ffb86c" stroke-linecap="round" stroke-linejoin="round" stroke-width="9.23296"/>
<clipPath id="ClipPath_4">
<path d="M-78.7115-249.44L1770.1-156.197L1737.61 393.669L1316.42 371.452C1316.42 371.452 1225.83 365.838 964.984 365.59C879.711 365.509 778.59 363.362 678.353 362.444C644.965 362.138 612.618 362.784 580.558 362.511C414.432 361.094 275.914 359.217 275.914 359.217L82.9123 369.189L-73.2754 431.077L-78.7115-249.44Z"/>
</clipPath>
<g clip-path="url(#ClipPath_4)">
<path d="M713.971-181.668C601.973-205.192 595.417 367.9 595.417 367.9L672.514 367.23C672.514 367.23 657.372-101.507 704.623-96.7813" fill="none" opacity="1" stroke="#ffb86c" stroke-linecap="butt" stroke-linejoin="round" stroke-width="9.23296"/>
<path d="M1081.72-52.141C1157.7-14.1509 1065.78 374.437 1065.78 374.437L1143.06 374.547C1157.31 308.064 1252.99-117.253 1092.78-137.279" fill="none" opacity="1" stroke="#ffb86c" stroke-linecap="round" stroke-linejoin="round" stroke-width="9.23296"/>
</g>
</g>
<g clip-path="url(#ArtboardFrame)" id="Layer-9" vectornator:layerName="Layer 9">
<path d="M1163.47 102.034C1146.59 102.274 1127.84 108.118 1108.21 117.23C1104.1 141.51 1100.84 165.177 1095.62 210.128C1094.54 219.432 1094.11 222.82 1093.54 227.639C1093.26 230.045 1092.63 233.382 1092.18 236.365C1127.63 212.107 1159.43 193.046 1175.16 191.192C1175.26 189.412 1175.4 187.629 1175.82 185.434C1175.99 184.516 1176.19 183.56 1176.41 182.585C1176.63 181.595 1177.13 179.551 1177.36 178.608C1177.59 176.457 1177.67 174.469 1177.66 169.823C1177.65 167.441 1177.63 166.346 1177.66 164.955C1177.71 162.226 1177.86 159.877 1178.13 157.535C1178.24 156.619 1178.4 154.412 1178.55 151.125C1178.67 148.512 1179.28 131.172 1179.38 128.449C1179.73 119.106 1180.06 112.569 1180.39 107.377C1180.48 105.991 1180.59 105.193 1180.68 104.052C1175.17 102.757 1169.49 101.948 1163.47 102.034ZM1415.45 145.426C1415.45 145.527 1415.45 145.5 1415.45 145.663C1415.45 146.16 1415.45 149.684 1415.45 151.362C1416.02 151.357 1416.6 151.346 1417.11 151.362C1418.26 148.844 1417.43 147.13 1415.45 145.426Z" fill="#8be9fd" fill-rule="nonzero" filter="url(#Filter)" stroke="none" vectornator:shadowAngle="4.59123" vectornator:shadowColor="#282a36" vectornator:shadowOffset="21.2328" vectornator:shadowOpacity="0.9" vectornator:shadowRadius="25.266"/>
<path d="M1171.29 97.9103C1154.41 98.1497 1135.66 103.994 1116.03 113.106C1111.93 137.386 1108.66 161.053 1103.45 206.004C1102.37 215.308 1101.94 218.696 1101.37 223.515C1101.09 225.921 1100.45 229.258 1100 232.241C1135.46 207.984 1167.25 188.922 1182.99 187.068C1183.09 185.288 1183.23 183.505 1183.64 181.31C1183.82 180.392 1184.02 179.436 1184.23 178.461C1184.45 177.472 1184.95 175.427 1185.18 174.484C1185.42 172.333 1185.49 170.346 1185.48 165.699C1185.47 163.317 1185.46 162.222 1185.48 160.831C1185.53 158.102 1185.68 155.753 1185.96 153.412C1186.06 152.495 1186.22 150.288 1186.37 147.001C1186.49 144.388 1187.1 127.048 1187.2 124.325C1187.55 114.982 1187.88 108.445 1188.21 103.253C1188.3 101.867 1188.42 101.07 1188.51 99.9286C1182.99 98.633 1177.31 97.8246 1171.29 97.9103ZM1423.28 141.302C1423.28 141.404 1423.27 141.376 1423.28 141.54C1423.28 142.036 1423.27 145.56 1423.28 147.238C1423.84 147.233 1424.43 147.222 1424.94 147.238C1426.08 144.72 1425.26 143.006 1423.28 141.302Z" fill="#8be9fd" fill-rule="nonzero" filter="url(#Filter_2)" stroke="none" vectornator:shadowAngle="1.83566" vectornator:shadowColor="#282a36" vectornator:shadowOffset="21.2328" vectornator:shadowOpacity="0.9" vectornator:shadowRadius="25.266"/>
<path d="M1554.07 234.277C1497.64 226.283 1431.71 135.371 1375.29 127.377L1375.29 127.36C1318.87 119.365 1271.68 185.128 1176.72 190.84C1134.21 193.397 961.026 334.452 925.758 363.518C921.703 366.86 919.471 368.722 919.471 368.722L831.989 367.764C831.989 367.764 1072.25 67.3718 1186.22 105.362C1254.62 128.161 1186.62 105.362 1186.62 105.362C1233.36 111.984 1286.62 175.503 1335.6 201.656C1345.75 207.075 1355.71 210.89 1365.4 212.263L1365.39 212.279C1421.81 220.274 1488.73 139.993 1564.71 149.49C1724.92 169.517 1658.89 324.03 1644.64 390.513L1570.73 384.94C1570.73 384.94 1631.07 272.803 1555.09 234.813" fill="#8be9fd" fill-rule="nonzero" opacity="1" stroke="none"/>
<clipPath id="ClipPath_5">
<path d="M1283.29 174.935C1283.29 124.15 1323.16 82.9813 1372.35 82.9813C1421.53 82.9813 1461.4 124.15 1461.4 174.935C1461.4 225.719 1421.53 266.888 1372.35 266.888C1323.16 266.888 1283.29 225.719 1283.29 174.935Z"/>
</clipPath>
<g clip-path="url(#ClipPath_5)">
<path d="M1554.07 234.277C1497.64 226.283 1431.71 135.371 1375.29 127.377L1375.29 127.36C1295.51 120.372 1267.54 189.791 1176.72 190.84C1129.24 191.388 1176.72 380.79 1176.72 380.79L1100.74 380.79C1100.74 380.79 1072.25 67.3718 1186.22 105.362C1254.62 128.161 1186.62 105.362 1186.62 105.362C1233.36 111.984 1286.62 175.503 1335.6 201.656C1345.75 207.075 1355.71 210.89 1365.4 212.263L1365.39 212.279C1421.81 220.274 1488.73 139.993 1564.71 149.49C1724.92 169.517 1662.36 321.444 1648.11 387.927L1571.04 385.359C1571.04 385.359 1631.07 272.803 1555.09 234.813" fill="#ff5555" fill-rule="nonzero" opacity="1" stroke="none"/>
</g>
</g>
<g clip-path="url(#ArtboardFrame)" id="Layer-3" vectornator:layerName="Layer 3">
<clipPath id="ClipPath_6">
<path d="M-80.7651-156.18L-73.2858 431.064L136.372 380.49L144.623 380.609L236.215 374.02L245.297 374.257L469.32 367.609L474.068 366.956L474.247 370.161L550.939 369.271L550.702 367.549C637.472 366.858 731.348 366.002 820.728 365.353C820.68 360.051 820.498 355.399 820.728 348.317C820.88 343.646 821.171 340.037 821.856 331.934C821.876 331.705 822.205 327.193 822.331 325.523C822.498 323.31 823.171 319.146 823.934 316.025C824.638 313.141 825.395 310.858 826.783 308.724C831.195 301.937 840.871 299.923 847.143 307.24C847.582 307.752 847.926 308.362 848.33 308.902C848.397 308.335 848.377 308.27 848.449 307.656C848.562 306.7 848.706 305.446 848.746 305.103C848.946 303.39 849.575 299.178 849.577 299.167C849.966 296.576 850.077 295.389 850.23 294.062C850.231 293.396 850.228 291.766 850.23 291.688C850.199 291.518 850.228 291.48 850.586 289.135C850.791 288.261 850.803 288.28 851.951 285.871L852.486 285.099L853.732 283.556L857.116 281.3L862.577 280.291L867.563 281.775L869.344 283.021L887.211 283.021C887.265 280.167 887.32 276.867 887.33 276.017C887.362 273.102 887.422 270.774 887.626 265.688C887.668 264.661 888.06 255.649 888.101 254.885C888.116 254.618 888.129 253.955 888.161 253.638C888.17 253.298 888.171 253.336 888.695 251.205C889.017 249.981 889.048 249.939 892.138 246.04L892.909 245.447L893.859 244.794L894.987 244.2L896.352 243.725L897.896 243.369L899.617 243.191L901.279 243.31L902.882 243.666L904.366 244.141L905.612 244.794L906.621 245.447L907.096 245.803C908.063 246.696 908.237 246.984 908.58 247.406C908.751 246.136 908.815 244.637 908.996 243.369C909.103 242.615 910.002 235.465 910.064 235C910.212 233.899 910.239 233.776 910.361 233.219C910.379 232.855 910.42 232.825 911.667 229.895C912.162 229.055 912.107 229.039 913.566 227.342L914.576 226.511L915.941 225.561L917.84 224.73L920.274 224.137L923.123 224.137L925.854 224.79L928.11 225.918L929.772 227.223L930.84 228.47L931.612 229.479L931.79 229.776C932.172 228.179 932.198 227.717 932.68 225.739C932.828 225.133 933.015 224.466 933.096 224.137C933.116 223.938 933.15 222.969 933.155 222.89C933.303 220.42 933.478 219.118 934.046 217.192C935.193 213.298 937.637 209.935 941.644 207.932C943.31 207.098 945.071 206.511 947.283 206.507C949.953 206.502 952.35 207.703 954.465 209.356C955.46 205.949 956.191 202.572 957.314 199.146C957.375 198.963 957.664 197.402 957.671 197.366C958.03 195.33 958.246 194.337 958.68 192.914C959.411 190.513 960.453 188.338 962.063 186.325C964.338 183.482 967.323 181.446 972.214 181.754C975.255 181.945 977.446 183.027 979.159 184.544C980.762 183.658 982.542 183.028 984.798 183.06C985.936 183.076 986.867 183.524 987.885 183.832C988.314 182.456 988.264 182.044 988.775 180.448C989.058 179.562 991.982 171.392 992.337 170.416C992.511 169.935 993.052 168.491 993.168 168.22C993.257 168.013 993.251 167.997 993.524 167.448C993.743 167.021 993.777 167.006 994.889 165.43L996.195 164.065L1004.21 161.216L1007.47 162.937C1008 161.287 1008.42 160.048 1009.02 158.188C1009.02 158.187 1009.01 158.085 1009.02 158.07C1009.04 157.855 1009.19 156.439 1009.19 156.408C1009.5 153.267 1009.66 152.035 1010.32 150.056C1012.77 142.783 1020.8 137.841 1029.14 143.052C1029.76 143.442 1029.94 143.939 1030.45 144.358C1030.7 143.78 1030.86 143.207 1031.34 142.517C1032.61 140.633 1032.58 140.631 1037.51 138.006C1041.28 137.298 1041.29 137.311 1045.23 138.362C1045.75 138.645 1045.63 138.752 1046 138.956C1047.47 133.614 1051.52 129.497 1057.63 128.805C1058.04 127.017 1058.32 125.104 1058.76 123.344C1058.83 123.061 1058.82 123.062 1058.94 122.632C1058.94 122.243 1058.99 122.229 1061.13 118.536C1063.23 115.587 1063.85 115.442 1073.18 114.975C1075.03 112.324 1077.84 110.495 1081.02 110.048C1082.52 109.838 1084.1 109.931 1085.65 110.345C1085.67 110.349 1085.69 110.34 1085.71 110.345C1086.27 107.014 1086.7 103.575 1087.31 100.194C1088.46 93.8752 1094.53 89.6664 1100.85 90.8153C1107.16 91.9643 1111.37 98.0305 1110.22 104.349C1104.9 133.636 1101.73 157.493 1095.62 210.128C1094.54 219.432 1094.11 222.82 1093.54 227.639C1092.9 233.155 1091.76 240.88 1090.4 247.643C1089.4 252.574 1088.37 256.775 1087.19 260.109C1086.39 262.381 1085.48 264.275 1084.4 265.985C1082.25 269.405 1079.44 271.987 1074.91 272.812C1072.02 273.337 1069.44 272.817 1067.13 271.802C1067.18 275.305 1066.27 278.771 1063.75 281.716C1060.15 285.906 1054.27 287.007 1049.32 284.565C1048.22 286.866 1046.81 289.09 1044.75 291.154C1041.39 294.518 1036.49 296.031 1031.51 294.359C1030.55 294.036 1029.86 293.517 1029.08 293.053C1028.89 295.929 1028.77 298.758 1028.07 301.185C1026.45 306.804 1023.16 311.389 1017.8 314.066C1017.15 314.394 1016.55 314.317 1015.9 314.541C1014.41 320.608 1012.67 325.596 1009.73 328.906C1004.88 334.363 997.222 334.974 991.624 330.687C991.601 330.67 991.588 330.646 991.565 330.628C991.273 331.702 991.112 332.891 990.793 333.952C990.783 334.011 990.689 334.559 990.675 334.664C990.58 335.365 990.555 335.85 990.437 336.445C990.233 337.473 989.956 338.45 989.547 339.472C988.039 343.236 985.053 346.326 980.583 347.545C980.523 347.562 980.466 347.53 980.405 347.545C980.265 351.907 979.957 355.343 978.981 358.645C978.333 360.835 977.168 362.691 976.013 364.522C1226.44 364.598 1319.29 360.189 1319.29 360.189L1737.6 393.668L1760.86-0.123553L1770.12-156.18L-80.7651-156.18Z"/>
</clipPath>
<g clip-path="url(#ClipPath_6)">
<path d="M212.115 64.6377C196.532 76.7715 182.66 91.3727 171.275 108.861C161.296 124.19 153.866 141.89 148.066 160.563C155.286 160.434 162.704 160.263 167.476 160.444C174.234 160.701 179.453 161.345 185.522 162.462C197.8 164.723 209.473 169.035 222.562 176.293C223.583 176.859 224.824 177.339 227.726 178.371C228.074 178.494 228.081 178.54 228.439 178.667C236.25 181.451 240.986 184.047 244.763 188.699C246.833 181.228 249.266 174.287 252.301 168.576C261.498 151.275 284.84 135.293 311.423 125.481C309.586 121.502 309.05 120.586 306.853 115.806C306.099 114.167 306.062 114.179 305.309 112.541C298.177 97.0302 293.303 86.7951 288.392 76.569C276.358 74.3157 262.649 72.8299 247.671 72.117C241.88 71.8413 237.736 70.8028 229.092 68.0806C228.03 67.7462 227.616 67.5961 227.073 67.4276C223.336 66.2674 220.977 65.6868 218.763 65.35C217.262 65.1216 215.491 64.9081 212.174 64.6377C212.161 64.6476 212.128 64.6278 212.115 64.6377Z" fill="#8be9fd" fill-rule="nonzero" filter="url(#Filter_3)" stroke="none" vectornator:shadowAngle="3.24648" vectornator:shadowColor="#282a36" vectornator:shadowOffset="21.2328" vectornator:shadowOpacity="0.79054" vectornator:shadowRadius="23.6397"/>
<path d="M212.115 64.6377C196.532 76.7715 182.66 91.3727 171.275 108.861C161.296 124.19 153.866 141.89 148.066 160.563C155.286 160.434 162.704 160.263 167.476 160.444C174.234 160.701 179.453 161.345 185.522 162.462C197.8 164.723 209.473 169.035 222.562 176.293C223.583 176.859 224.824 177.339 227.726 178.371C228.074 178.494 228.081 178.54 228.439 178.667C236.25 181.451 240.986 184.047 244.763 188.699C246.833 181.228 249.266 174.287 252.301 168.576C261.498 151.275 284.84 135.293 311.423 125.481C309.586 121.502 309.05 120.586 306.853 115.806C306.099 114.167 306.062 114.179 305.309 112.541C298.177 97.0302 293.303 86.7951 288.392 76.569C276.358 74.3157 262.649 72.8299 247.671 72.117C241.88 71.8413 237.736 70.8028 229.092 68.0806C228.03 67.7462 227.616 67.5961 227.073 67.4276C223.336 66.2674 220.977 65.6868 218.763 65.35C217.262 65.1216 215.491 64.9081 212.174 64.6377C212.161 64.6476 212.128 64.6278 212.115 64.6377Z" fill="#8be9fd" fill-rule="nonzero" filter="url(#Filter_4)" stroke="none" vectornator:shadowAngle="0.897928" vectornator:shadowColor="#282a36" vectornator:shadowOffset="14.0772" vectornator:shadowOpacity="0.79054" vectornator:shadowRadius="23.3145"/>
<path d="M421.591 21.4726C391.753 13.972 359.996 12.6887 328.298 17.4915C266.056 26.9225 206.873 54.2078 171.284 108.875C109.174 204.28 137.549 385.954 137.549 385.954L242.858 378.738C242.858 378.738 222.458 224.716 252.293 168.591C265.08 144.536 305.109 122.875 343.358 117.079C381.846 111.248 417.192 119.155 436.767 139.215C478.282 181.76 468.823 377.27 468.823 377.27L554.125 376.943C554.125 376.943 577.471 138.307 503.032 63.2943C481.044 41.137 451.413 28.9689 421.591 21.4726Z" fill="#8be9fd" fill-rule="nonzero" opacity="1" stroke="#ffb86c" stroke-linecap="butt" stroke-linejoin="round" stroke-width="9.23296"/>
</g>
</g>
<g clip-path="url(#ArtboardFrame)" id="Layer-10" vectornator:layerName="Layer 10">
<path d="M200.353 432.309C200.353 432.309 181.806 392.889 180.041 369.938C176.077 318.411 176.018 272.168 188.799 221.046C196.599 189.847 208.221 148.292 238.462 118.776C293.96 64.6096 386.102 36.6544 448.266 86.3854C516.032 140.598 536.443 272.099 518.562 370.559C509.175 422.245 497.211 458.845 458.782 483.3C412.371 512.834 327.945 522.137 272.104 501.196C238.925 488.754 200.353 432.309 200.353 432.309Z" fill="none" opacity="1" stroke="#ff79c6" stroke-dasharray="37.990103197357946" stroke-linecap="round" stroke-linejoin="round" stroke-width="9.2316"/>
<path d="M173.418 445.721C173.418 445.721 152.085 402.569 150.054 377.446C145.495 321.042 145.428 270.422 160.128 214.462C169.1 180.31 182.467 134.822 217.251 102.513C281.084 43.2194 387.065 12.6183 458.566 67.0562C536.509 126.4 559.986 270.347 539.419 378.126C528.623 434.703 514.862 474.768 470.661 501.537C417.28 533.867 320.173 544.05 255.945 521.127C217.783 507.508 173.418 445.721 173.418 445.721Z" fill="none" filter="url(#Filter_5)" stroke="#ba1775" stroke-dasharray="37.990103197357946" stroke-linecap="round" stroke-linejoin="round" stroke-width="10.1852" vectornator:shadowAngle="1.66707" vectornator:shadowColor="#282a36" vectornator:shadowOffset="21.4723" vectornator:shadowOpacity="0.79054" vectornator:shadowRadius="4.28082"/>
<path d="M282.789 79.7915" fill="none" filter="url(#Filter_6)" stroke="#ba1775" stroke-dasharray="37.990103197357946" stroke-linecap="butt" stroke-linejoin="round" stroke-width="9.2316" vectornator:shadowAngle="0.857837" vectornator:shadowColor="#282a36" vectornator:shadowOffset="14.0772" vectornator:shadowOpacity="0.79054" vectornator:shadowRadius="7.05159"/>
</g>
<g clip-path="url(#ArtboardFrame)" id="Layer-6" vectornator:layerName="Layer 6">
<path d="M1176.72 190.265C1233.14 198.259 1318.87 119.365 1375.29 127.36" fill="none" opacity="1" stroke="#ffb86c" stroke-linecap="round" stroke-linejoin="round" stroke-width="9.23296"/>
<path d="M1256.44 156.13C1257.54 148.34 1266.86 143.218 1277.24 144.689C1287.63 146.161 1295.16 153.669 1294.05 161.46C1292.95 169.25 1283.63 174.372 1273.25 172.9C1262.86 171.428 1255.33 163.92 1256.44 156.13Z" fill="#282a36" fill-rule="nonzero" opacity="1" stroke="none"/>
<path d="M1365.4 212.263C1308.97 204.268 1243.04 113.357 1186.62 105.362" fill="none" opacity="1" stroke="#ffb86c" stroke-linecap="round" stroke-linejoin="round" stroke-width="9.23296"/>
<path d="M1365.39 212.279C1421.81 220.274 1507.54 141.38 1563.96 149.375" fill="none" opacity="1" stroke="#ffb86c" stroke-linecap="round" stroke-linejoin="round" stroke-width="9.23296"/>
<path d="M1445.11 178.144C1446.21 170.354 1455.53 165.232 1465.91 166.704C1476.3 168.176 1483.83 175.684 1482.72 183.474C1481.62 191.264 1472.3 196.387 1461.92 194.915C1451.53 193.443 1444 185.935 1445.11 178.144Z" fill="#282a36" fill-rule="nonzero" opacity="1" stroke="none"/>
<path d="M1554.07 234.277C1497.64 226.283 1431.71 135.371 1375.29 127.377" fill="none" opacity="1" stroke="#ffb86c" stroke-linecap="round" stroke-linejoin="round" stroke-width="9.23296"/>
<clipPath id="ClipPath_7">
<path d="M-80.7608-156.197L1770.1-156.197L1737.61 393.669L1319.32 360.209C1319.32 360.209 1222.2 363.577 961.349 363.329C700.499 363.081 275.914 359.217 275.914 359.217L82.9123 369.189L-73.2754 431.077L-80.7608-156.197Z"/>
</clipPath>
<g clip-path="url(#ClipPath_7)">
<path d="M1186.22 105.362C1072.25 67.3718 831.445 367.652 831.445 367.652L918.102 368.63C918.102 368.63 1129.47 186.114 1176.72 190.84" fill="none" opacity="1" stroke="#ffb86c" stroke-linecap="butt" stroke-linejoin="round" stroke-width="9.23296"/>
<path d="M1555.09 234.813C1631.07 272.803 1561.44 396.95 1561.44 396.95L1645.85 398.251C1660.09 331.768 1724.92 169.517 1564.71 149.49" fill="none" opacity="1" stroke="#ffb86c" stroke-linecap="round" stroke-linejoin="round" stroke-width="9.23296"/>
</g>
</g>
</svg>
