<!DOCTYPE svg PUBLIC "-//W3C//DTD SVG 1.1//EN" "http://www.w3.org/Graphics/SVG/1.1/DTD/svg11.dtd">
<!-- Created with Vectornator (http://vectornator.io/) -->
<svg xmlns="http://www.w3.org/2000/svg" xmlns:vectornator="http://vectornator.io" xmlns:xlink="http://www.w3.org/1999/xlink" stroke-miterlimit="10" style="fill-rule:nonzero;clip-rule:evenodd;stroke-linecap:round;stroke-linejoin:round;" version="1.1" viewBox="0 0 1000 565" xml:space="preserve">
    <defs>
        <filter color-interpolation-filters="sRGB" filterUnits="userSpaceOnUse" height="96.427" id="Filter" width="117.113" x="97.5623" y="120.607">
            <feDropShadow dx="-11.1167" dy="-1.17027" flood-color="#282a36" flood-opacity="0.79054" in="SourceGraphic" result="Shadow" stdDeviation="6.2226"/>
        </filter>
        <filter color-interpolation-filters="sRGB" filterUnits="userSpaceOnUse" height="95.9989" id="Filter_2" width="116.685" x="113.512" y="127.787">
            <feDropShadow dx="4.61875" dy="5.79565" flood-color="#282a36" flood-opacity="0.79054" in="SourceGraphic" result="Shadow" stdDeviation="6.13699"/>
        </filter>
        <filter color-interpolation-filters="sRGB" filterUnits="userSpaceOnUse" height="125.813" id="Filter_3" width="76.6357" x="305.994" y="147.537">
            <feDropShadow dx="4.02674" dy="6.22155" flood-color="#282a36" flood-opacity="0.79054" in="SourceGraphic" result="Shadow" stdDeviation="6.13699"/>
        </filter>
        <filter color-interpolation-filters="sRGB" filterUnits="userSpaceOnUse" height="125.813" id="Filter_4" width="76.6357" x="296.131" y="136.749">
            <feDropShadow dx="-5.8367" dy="-4.56675" flood-color="#282a36" flood-opacity="0.79054" in="SourceGraphic" result="Shadow" stdDeviation="6.13699"/>
        </filter>
        <filter color-interpolation-filters="sRGB" filterUnits="userSpaceOnUse" height="103.975" id="Filter_5" width="204.59" x="603.289" y="129.296">
            <feDropShadow dx="-1.35097" dy="-11.0961" flood-color="#282a36" flood-opacity="0.9" in="SourceGraphic" result="Shadow" stdDeviation="6.65068"/>
        </filter>
        <filter color-interpolation-filters="sRGB" filterUnits="userSpaceOnUse" height="103.975" id="Filter_6" width="204.59" x="605.833" y="149.01">
            <feDropShadow dx="-2.92622" dy="10.7883" flood-color="#282a36" flood-opacity="0.9" in="SourceGraphic" result="Shadow" stdDeviation="6.65068"/>
        </filter>
    </defs>
    <clipPath id="ArtboardFrame_8">
        <rect height="565" width="1000" x="0" y="0"/>
    </clipPath>
    <g clip-path="url(#ArtboardFrame_8)" id="Layer-1" vectornator:layerName="Layer 1" visibility="hidden">
        <path d="M-110.735-138.315L1054.77-138.315L1054.77 1059.06L-110.735 1059.06L-110.735-138.315Z" class="fill-background" fill-rule="nonzero" opacity="1" stroke="none"/>
    </g>
    <g clip-path="url(#ArtboardFrame_8)" id="Layer-2" vectornator:layerName="Layer 2">
        <clipPath id="ClipPath">
            <path d="M-5.67857 422.286C-15.1533 363.362 37.4745 311.285 37.4745 311.285L45.7601 327.155L83.3826 310.902L78.0578 296.807L118.787 287.625L120.831 303.677L171.345 300.115L168.703 278.82C168.703 278.82 191.356 277.174 199.154 276.846C200.742 276.779 204.834 298.678 204.834 298.678L249.862 297.561C249.862 297.561 246.081 274.988 248.472 274.906C263.067 274.407 296.126 270.461 296.126 270.461L299.539 299.946L337.362 300.005L337.57 269.565C337.57 269.565 353.166 268.682 359.529 268.609C362.861 268.571 362.235 296.745 362.235 296.745L398.547 294.571C398.547 294.571 396.726 259.835 400.675 259.782C425.344 259.452 524.899 250.675 524.899 250.675L487.128 296.984L525.289 297.32L573.919 261.068C573.919 261.068 595.041 261.391 614.401 263.249C617.987 263.593 610.46 298.309 610.46 298.309L645.541 298.975L656.058 262.654L881.535 279.622L875.166 306.071L910.953 308.826C910.953 308.826 920.279 281.823 920.742 281.976C1018.47 314.381 1007.47 367.842 1007.47 422.286C1007.47 476.963 1024.87 514.579 926.42 546.982C895.499 557.16 152.273 571.97 75.3735 546.982C-24.3261 514.585 3.79617 481.21-5.67857 422.286Z"/>
        </clipPath>
        <g clip-path="url(#ClipPath)">
            <path d="M2.58643 430.108C2.58643 377.312-8.29625 337.878 88.4696 306.697C163.784 282.429 889.716 296.77 920.116 306.697C1015.61 337.882 999.321 374.304 999.321 426.697C999.321 479.315 1016.32 515.514 920.116 546.697C889.899 556.492 163.616 570.744 88.4696 546.697C-8.9573 515.52 2.58643 483.113 2.58643 430.108Z" class="fill-blue stroke-orange stroke-orange" fill="#8be9fd" fill-rule="nonzero" opacity="1" stroke="#ffb86c" stroke-linecap="round" stroke-linejoin="round" stroke-width="4.86072"/>
        </g>
    </g>
    <g id="Layer-4" vectornator:layerName="Layer 4">
        <clipPath id="ClipPath_2">
            <path d="M5.96213 21.076L978.159 21.076L961.091 314.245L741.377 296.406C741.377 296.406 691.886 298.88 554.869 298.748C460.608 298.657 249.639 294.914 249.639 294.914L249.985 297.702C249.985 297.702 198.197 298.942 198.197 298.942L87.433 303.105L83.5714 310.925L45.5887 327.346L9.89394 334.19L5.96213 21.076Z"/>
        </clipPath>
        <g clip-path="url(#ClipPath_2)">
            <path d="M142.586 136.554C126.389 136.584 110.016 140.035 94.4608 146.585C63.9163 159.446 37.2421 181.023 26.1483 213.523C6.78766 270.241 45.1791 330.711 45.1791 330.711L86.8317 312.704C86.8317 312.704 67.2421 266.023 75.2108 233.523C78.6261 219.593 96.2531 203.363 115.023 195.46C133.911 187.508 152.971 186.973 165.555 194.679C192.242 211.023 202.989 306.488 202.989 306.488L253.194 304.127C253.194 304.127 237.242 176.023 189.555 147.366C175.469 138.902 158.774 136.523 142.586 136.554Z" class="fill-blue stroke-orange stroke-orange" fill="#8be9fd" fill-rule="nonzero" opacity="1" stroke="#ffb86c" stroke-linecap="butt" stroke-linejoin="round" stroke-width="4.86072"/>
        </g>
    </g>
    <g id="Layer-10" vectornator:layerName="Layer 10">
        <g opacity="1">
            <path d="M66.6274 329.895C128.007 383.647 202.848 338.022 211.906 316.051C230.063 272.007 243.387 208.98 163.368 163.255C69.7225 109.743 11.6166 274.301 59.713 323.353" fill="none" class="stroke-pink" stroke="#ff79c6" stroke-dasharray="20.0" stroke-linecap="round" stroke-linejoin="round" stroke-width="7.37512"/>
            <g class="fill-pink" fill="#ff79c6" stroke="none">
                <path d="M99.0638 326.198L64.2144 323.683L59.7191 323.358L60.2911 327.829L64.7262 362.486C64.9848 364.506 66.8319 365.935 68.8521 365.676C70.8722 365.417 72.3002 363.57 72.0417 361.55L67.6066 326.893L63.6834 331.039L98.5328 333.554C100.564 333.701 102.33 332.173 102.476 330.142C102.623 328.111 101.095 326.345 99.0638 326.198Z" class="fill-pink" fill="#ff79c6"/>
            </g>
        </g>
    </g>
    <g id="Layer-3" vectornator:layerName="Layer 3">
        <clipPath id="ClipPath_3">
            <path d="M3.76667 21.0851L7.70417 330.241L118.079 303.616L122.423 303.679L170.642 300.21L175.423 300.335L293.36 296.835L295.86 296.491L295.954 298.179L336.329 297.71L336.204 296.804C381.884 296.44 431.306 295.989 478.36 295.648C478.335 292.856 478.239 290.407 478.36 286.679C478.44 284.22 478.593 282.32 478.954 278.054C478.964 277.934 479.138 275.558 479.204 274.679C479.292 273.514 479.646 271.322 480.048 269.679C480.419 268.16 480.817 266.959 481.548 265.835C483.871 262.262 488.965 261.202 492.267 265.054C492.497 265.323 492.679 265.644 492.892 265.929C492.927 265.63 492.916 265.596 492.954 265.273C493.013 264.77 493.089 264.109 493.11 263.929C493.216 263.027 493.547 260.809 493.548 260.804C493.753 259.44 493.811 258.815 493.892 258.116C493.892 257.766 493.891 256.907 493.892 256.866C493.876 256.777 493.891 256.757 494.079 255.523C494.187 255.062 494.193 255.072 494.798 253.804L495.079 253.398L495.735 252.585L497.517 251.398L500.392 250.866L503.017 251.648L503.954 252.304L513.36 252.304C513.389 250.801 513.418 249.064 513.423 248.616C513.44 247.082 513.472 245.856 513.579 243.179C513.601 242.638 513.807 237.894 513.829 237.491C513.837 237.351 513.844 237.002 513.86 236.835C513.865 236.656 513.866 236.676 514.142 235.554C514.311 234.91 514.327 234.887 515.954 232.835L516.36 232.523L516.86 232.179L517.454 231.866L518.173 231.616L518.985 231.429L519.892 231.335L520.767 231.398L521.61 231.585L522.392 231.835L523.048 232.179L523.579 232.523L523.829 232.71C524.338 233.18 524.43 233.332 524.61 233.554C524.7 232.886 524.734 232.096 524.829 231.429C524.886 231.032 525.359 227.268 525.392 227.023C525.469 226.443 525.484 226.378 525.548 226.085C525.557 225.894 525.579 225.878 526.235 224.335C526.496 223.893 526.467 223.885 527.235 222.991L527.767 222.554L528.485 222.054L529.485 221.616L530.767 221.304L532.267 221.304L533.704 221.648L534.892 222.241L535.767 222.929L536.329 223.585L536.735 224.116L536.829 224.273C537.03 223.432 537.044 223.189 537.298 222.148C537.376 221.828 537.474 221.477 537.517 221.304C537.527 221.199 537.545 220.689 537.548 220.648C537.626 219.347 537.718 218.662 538.017 217.648C538.621 215.598 539.907 213.827 542.017 212.773C542.894 212.334 543.821 212.025 544.985 212.023C546.391 212.02 547.653 212.652 548.767 213.523C549.29 211.729 549.675 209.951 550.267 208.148C550.298 208.051 550.451 207.229 550.454 207.21C550.644 206.139 550.757 205.616 550.985 204.866C551.37 203.602 551.919 202.458 552.767 201.398C553.964 199.901 555.536 198.829 558.11 198.991C559.711 199.092 560.865 199.662 561.767 200.46C562.611 199.994 563.548 199.662 564.735 199.679C565.335 199.687 565.824 199.923 566.36 200.085C566.586 199.361 566.56 199.144 566.829 198.304C566.978 197.837 568.518 193.536 568.704 193.023C568.796 192.769 569.081 192.009 569.142 191.866C569.189 191.757 569.186 191.749 569.329 191.46C569.445 191.235 569.462 191.227 570.048 190.398L570.735 189.679L574.954 188.179L576.673 189.085C576.951 188.216 577.17 187.564 577.485 186.585C577.485 186.585 577.484 186.531 577.485 186.523C577.498 186.409 577.578 185.664 577.579 185.648C577.739 183.994 577.823 183.346 578.173 182.304C579.46 178.475 583.69 175.873 588.079 178.616C588.408 178.822 588.501 179.084 588.767 179.304C588.903 179 588.983 178.698 589.235 178.335C589.909 177.343 589.891 177.342 592.485 175.96C594.469 175.587 594.478 175.594 596.548 176.148C596.822 176.296 596.761 176.353 596.954 176.46C597.731 173.648 599.864 171.481 603.079 171.116C603.295 170.175 603.441 169.168 603.673 168.241C603.711 168.092 603.702 168.093 603.767 167.866C603.767 167.661 603.794 167.654 604.923 165.71C606.028 164.158 606.355 164.081 611.267 163.835C612.24 162.44 613.717 161.477 615.392 161.241C616.179 161.131 617.012 161.18 617.829 161.398C617.839 161.4 617.851 161.395 617.86 161.398C618.153 159.644 618.381 157.834 618.704 156.054C619.309 152.727 622.503 150.512 625.829 151.116C629.156 151.721 631.371 154.915 630.767 158.241C627.964 173.659 626.295 186.219 623.079 213.929C622.511 218.827 622.284 220.611 621.985 223.148C621.644 226.051 621.048 230.119 620.329 233.679C619.805 236.275 619.26 238.486 618.642 240.241C618.22 241.437 617.739 242.435 617.173 243.335C616.041 245.136 614.559 246.495 612.173 246.929C610.653 247.205 609.298 246.932 608.079 246.398C608.108 248.242 607.627 250.066 606.298 251.616C604.407 253.823 601.308 254.402 598.704 253.116C598.122 254.328 597.384 255.499 596.298 256.585C594.527 258.356 591.95 259.153 589.329 258.273C588.823 258.103 588.459 257.829 588.048 257.585C587.948 259.099 587.885 260.588 587.517 261.866C586.663 264.824 584.929 267.238 582.11 268.648C581.766 268.82 581.449 268.78 581.11 268.898C580.326 272.092 579.409 274.718 577.86 276.46C575.307 279.333 571.276 279.654 568.329 277.398C568.317 277.388 568.31 277.376 568.298 277.366C568.144 277.932 568.059 278.558 567.892 279.116C567.886 279.147 567.837 279.436 567.829 279.491C567.78 279.86 567.766 280.116 567.704 280.429C567.597 280.97 567.451 281.484 567.235 282.023C566.442 284.004 564.87 285.631 562.517 286.273C562.485 286.281 562.455 286.264 562.423 286.273C562.349 288.569 562.187 290.378 561.673 292.116C561.332 293.269 560.719 294.246 560.11 295.21C691.95 295.25 740.829 292.929 740.829 292.929L961.048 310.554L973.298 103.241L978.173 21.0851L3.76667 21.0851Z"/>
        </clipPath>
        <g clip-path="url(#ClipPath_3)">
            <path d="M157.954 137.335C149.75 143.723 142.448 151.41 136.454 160.616C131.2 168.687 127.289 178.005 124.235 187.835C128.037 187.767 131.942 187.677 134.454 187.773C138.012 187.908 140.759 188.247 143.954 188.835C150.418 190.025 156.564 192.296 163.454 196.116C163.992 196.414 164.645 196.667 166.173 197.21C166.356 197.275 166.359 197.299 166.548 197.366C170.66 198.832 173.153 200.198 175.142 202.648C176.231 198.714 177.512 195.06 179.11 192.054C183.952 182.946 196.24 174.532 210.235 169.366C209.268 167.272 208.986 166.789 207.829 164.273C207.433 163.41 207.413 163.416 207.017 162.554C203.262 154.388 200.696 149 198.11 143.616C191.775 142.43 184.558 141.648 176.673 141.273C173.624 141.127 171.442 140.581 166.892 139.148C166.333 138.972 166.115 138.893 165.829 138.804C163.861 138.193 162.62 137.887 161.454 137.71C160.664 137.59 159.732 137.477 157.985 137.335C157.979 137.34 157.961 137.33 157.954 137.335Z" class="fill-blue" fill="#8be9fd" fill-rule="nonzero" filter="url(#Filter)" stroke="none" vectornator:shadowAngle="3.24648" vectornator:shadowColor="#282a36" vectornator:shadowOffset="11.1781" vectornator:shadowOpacity="0.79054" vectornator:shadowRadius="12.4452"/>
            <path d="M157.954 137.335C149.75 143.723 142.448 151.41 136.454 160.616C131.2 168.687 127.289 178.005 124.235 187.835C128.037 187.767 131.942 187.677 134.454 187.773C138.012 187.908 140.759 188.247 143.954 188.835C150.418 190.025 156.564 192.296 163.454 196.116C163.992 196.414 164.645 196.667 166.173 197.21C166.356 197.275 166.359 197.299 166.548 197.366C170.66 198.832 173.153 200.198 175.142 202.648C176.231 198.714 177.512 195.06 179.11 192.054C183.952 182.946 196.24 174.532 210.235 169.366C209.268 167.272 208.986 166.789 207.829 164.273C207.433 163.41 207.413 163.416 207.017 162.554C203.262 154.388 200.696 149 198.11 143.616C191.775 142.43 184.558 141.648 176.673 141.273C173.624 141.127 171.442 140.581 166.892 139.148C166.333 138.972 166.115 138.893 165.829 138.804C163.861 138.193 162.62 137.887 161.454 137.71C160.664 137.59 159.732 137.477 157.985 137.335C157.979 137.34 157.961 137.33 157.954 137.335Z" class="fill-blue" fill="#8be9fd" fill-rule="nonzero" filter="url(#Filter_2)" stroke="none" vectornator:shadowAngle="0.897928" vectornator:shadowColor="#282a36" vectornator:shadowOffset="7.41096" vectornator:shadowOpacity="0.79054" vectornator:shadowRadius="12.274"/>
            <path d="M268.234 114.611C252.525 110.662 235.807 109.986 219.119 112.515C186.351 117.48 155.195 131.844 136.459 160.624C103.761 210.85 118.699 306.493 118.699 306.493L174.139 302.694C174.139 302.694 163.399 221.609 179.106 192.062C185.838 179.398 206.911 167.994 227.048 164.943C247.31 161.873 263.494 169.133 276.223 176.597C365.164 228.744 360.422 299.473 360.422 299.473C360.422 299.473 403.437 298.936 403.29 298.485C366.389 185.086 367.205 196.51 311.108 136.628C310.459 135.935 283.933 118.557 268.234 114.611Z" class="fill-blue stroke-orange stroke-orange" fill="#8be9fd" fill-rule="nonzero" opacity="1" stroke="#ffb86c" stroke-linecap="butt" stroke-linejoin="round" stroke-width="4.86072"/>
        </g>
    </g>
    <g id="Layer-11" vectornator:layerName="Layer 11">
        <g opacity="1">
            <path d="M144.302 306.843C147.471 323.526 153.912 355.481 157.699 359.046C171.717 372.239 193.724 375.38 212.207 377.36C241.214 380.468 392.64 371.416 388.375 320.237C381.186 233.966 306.843 121.149 209.591 142.76C153.335 155.262 144.438 220.95 141.565 268.345C140.117 292.248 142.64 298.123 142.536 297.492" fill="none" class="stroke-pink" stroke="#ff79c6" stroke-dasharray="20.0" stroke-linecap="round" stroke-linejoin="round" stroke-width="7.37512"/>
            <g class="fill-pink" fill="#ff79c6" stroke="none">
                <path d="M172.749 322.861L145.989 300.395L142.537 297.497L140.38 301.455L123.658 332.133C122.683 333.922 123.343 336.161 125.131 337.136C126.919 338.111 129.159 337.451 130.133 335.663L146.856 304.984L141.247 306.044L168.007 328.51C169.566 329.819 171.892 329.616 173.202 328.057C174.511 326.497 174.308 324.171 172.749 322.861Z" class="fill-pink" fill="#ff79c6"/>
            </g>
        </g>
    </g>
    <g clip-path="url(#ArtboardFrame_8)" id="Layer-8" vectornator:layerName="Layer 8">
        <path d="M317.31 211.266L348.071 251.786L363.261 190.47L333.087 156.658L317.31 211.266Z" class="fill-blue" fill="#8be9fd" fill-rule="nonzero" filter="url(#Filter_3)" stroke="none" vectornator:shadowAngle="0.996374" vectornator:shadowColor="#282a36" vectornator:shadowOffset="7.41096" vectornator:shadowOpacity="0.79054" vectornator:shadowRadius="12.274"/>
        <path d="M317.31 211.266L348.071 251.786L363.261 190.47L333.087 156.658L317.31 211.266Z" class="fill-blue" fill="#8be9fd" fill-rule="nonzero" filter="url(#Filter_4)" stroke="none" vectornator:shadowAngle="3.80552" vectornator:shadowColor="#282a36" vectornator:shadowOffset="7.41096" vectornator:shadowOpacity="0.79054" vectornator:shadowRadius="12.274"/>
        <path d="M615.185 75.5562C585.482 71.3474 550.772 23.4869 521.069 19.2781L521.07 19.2694C491.367 15.0605 466.522 49.6816 416.532 52.6884C394.226 54.03 342.363 271.05 337.267 304.488C336.538 309.275 292.759 304.715 292.759 304.715C292.759 304.715 361.532-12.3116 421.532 7.68839C457.539 19.691 421.743 7.68839 421.743 7.68839C446.348 11.1748 474.388 44.6141 500.172 58.3828C505.515 61.2358 510.76 63.2442 515.859 63.9666L515.858 63.9753C545.561 68.1841 580.787 25.9199 620.787 30.9199C705.131 41.4629 654.828 263.977 647.328 298.977L609.093 298.301C609.093 298.301 655.723 95.8384 615.723 75.8384" class="fill-blue" fill="#8be9fd" fill-rule="nonzero" opacity="1" stroke="none"/>
        <clipPath id="ClipPath_4">
            <path d="M472.635 44.3151C472.635 17.5795 493.626-4.09395 519.519-4.09395C545.412-4.09395 566.402 17.5795 566.402 44.3151C566.402 71.0507 545.412 92.7242 519.519 92.7242C493.626 92.7242 472.635 71.0507 472.635 44.3151Z"/>
        </clipPath>
        <g clip-path="url(#ClipPath_4)">
            <path d="M615.185 75.5562C585.482 71.3474 550.772 23.4869 521.069 19.2781L521.07 19.2694C479.068 15.5907 464.341 52.1362 416.532 52.6884C391.533 52.9771 416.532 152.688 416.532 152.688L376.532 152.688C376.532 152.688 361.532-12.3116 421.532 7.68839C457.539 19.691 421.743 7.68839 421.743 7.68839C446.348 11.1748 474.388 44.6141 500.172 58.3828C505.515 61.2358 510.76 63.2442 515.859 63.9666L515.858 63.9753C545.561 68.1841 580.787 25.9199 620.787 30.9199C705.131 41.4629 672.195 121.445 664.695 156.445L624.122 155.094C624.122 155.094 655.723 95.8384 615.723 75.8384" class="fill-red" fill="#ff5555" fill-rule="nonzero" opacity="1" stroke="none"/>
        </g>
    </g>
    <g clip-path="url(#ArtboardFrame_8)" id="Layer-7" vectornator:layerName="Layer 7">
        <g opacity="1">
            <path d="M311.978 315.847C310.076 348.002 307.775 383.669 331.405 385.372C406.628 390.79 566.456 393.671 588.494 362.348C630.342 302.871 681.188 134.62 637.31 73.0161C622.933 52.832 563.387 43.9686 528.846 41.4689C499.189 39.3227 467.14 36.9627 423.336 37.4606C393.706 37.7974 377.984 77.0016 367.13 103.599C346.111 155.108 330.707 219.62 324.744 251.608C320.037 276.862 313.47 287.238 312.511 306.343" fill="none" class="stroke-pink" stroke="#ff79c6" stroke-dasharray="20.0" stroke-linecap="round" stroke-linejoin="round" stroke-width="7.37512"/>
            <g class="fill-pink" fill="#ff79c6" stroke="none">
                <path d="M335.742 338.231L315.165 309.993L312.51 306.351L309.465 309.674L285.862 335.436C284.486 336.938 284.588 339.27 286.09 340.646C287.591 342.022 289.924 341.92 291.3 340.418L314.903 314.656L309.204 314.337L329.782 342.574C330.982 344.22 333.288 344.582 334.934 343.383C336.58 342.183 336.942 339.877 335.742 338.231Z" class="fill-pink" fill="#ff79c6"/>
            </g>
        </g>
        <path d="M416.532 52.3856C444.614 53.516 491.367 15.0605 521.07 19.2694" fill="none" opacity="1" class="stroke-orange stroke-orange" stroke="#ffb86c" stroke-linecap="round" stroke-linejoin="round" stroke-width="4.86072"/>
        <path d="M458.497 34.4153C459.079 30.3142 463.983 27.6176 469.451 28.3924C474.919 29.1673 478.881 33.12 478.3 37.2212C477.719 41.3224 472.815 44.0189 467.346 43.2441C461.878 42.4693 457.916 38.5165 458.497 34.4153Z" class="fill-background" fill-rule="nonzero" opacity="1" stroke="none"/>
        <path d="M515.859 63.9666C486.155 59.7577 451.446 11.8972 421.743 7.68839" fill="none" opacity="1" class="stroke-orange stroke-orange" stroke="#ffb86c" stroke-linecap="round" stroke-linejoin="round" stroke-width="4.86072"/>
        <path d="M515.858 63.9753C545.561 68.1841 590.693 26.6502 620.396 30.859" fill="none" opacity="1" class="stroke-orange stroke-orange" stroke="#ffb86c" stroke-linecap="round" stroke-linejoin="round" stroke-width="4.86072"/>
        <path d="M557.824 46.005C558.405 41.9038 563.309 39.2073 568.777 39.9821C574.245 40.7569 578.207 44.7097 577.626 48.8109C577.045 52.912 572.141 55.6086 566.672 54.8337C561.204 54.0589 557.242 50.1062 557.824 46.005Z" class="fill-background" fill-rule="nonzero" opacity="1" stroke="none"/>
        <path d="M615.185 75.5562C585.482 71.3474 550.772 23.4869 521.069 19.2781" fill="none" opacity="1" class="stroke-orange stroke-orange" stroke="#ffb86c" stroke-linecap="round" stroke-linejoin="round" stroke-width="4.86072"/>
        <clipPath id="ClipPath_5">
            <path d="M4.84781-28.012L978.159 21.076L961.053 310.555L739.32 298.859C739.32 298.859 691.63 295.903 554.304 295.772C509.412 295.73 456.177 294.599 403.406 294.116C385.829 293.955 357.533 294.817 340.676 295.671C274.784 299.009 191.541 292.417 191.541 292.417L89.9351 297.667L7.70963 330.248L4.84781-28.012Z"/>
        </clipPath>
        <g clip-path="url(#ClipPath_5)">
            <path d="M422.158 7.66658C363.196-4.71764 296.501 298.212 296.501 298.212L334.345 304.507C334.345 304.507 392.361 49.868 417.237 52.3556" fill="none" opacity="1" class="stroke-orange stroke-orange" stroke="#ffb86c" stroke-linecap="butt" stroke-linejoin="round" stroke-width="4.86072"/>
            <path d="M615.759 75.8566C655.759 95.8566 607.371 300.43 607.371 300.43L648.053 300.488C655.553 265.488 705.927 41.5785 621.584 31.0355" fill="none" opacity="1" class="stroke-orange stroke-orange" stroke="#ffb86c" stroke-linecap="round" stroke-linejoin="round" stroke-width="4.86072"/>
        </g>
    </g>
    <g id="Layer-9" vectornator:layerName="Layer 9">
        <path d="M658.798 157.023C649.911 157.149 640.04 160.225 629.704 165.023C627.544 177.805 625.825 190.264 623.079 213.929C622.511 218.827 622.284 220.611 621.985 223.148C621.836 224.414 621.502 226.171 621.267 227.741C639.932 214.971 656.67 204.936 664.954 203.96C665.006 203.023 665.079 202.084 665.298 200.929C665.39 200.445 665.497 199.942 665.61 199.429C665.726 198.908 665.988 197.831 666.11 197.335C666.234 196.203 666.273 195.156 666.267 192.71C666.263 191.456 666.253 190.88 666.267 190.148C666.294 188.711 666.372 187.474 666.517 186.241C666.573 185.759 666.655 184.597 666.735 182.866C666.799 181.491 667.119 172.362 667.173 170.929C667.356 166.01 667.53 162.569 667.704 159.835C667.751 159.106 667.812 158.686 667.86 158.085C664.957 157.403 661.966 156.977 658.798 157.023ZM791.454 179.866C791.454 179.92 791.454 179.905 791.454 179.991C791.454 180.253 791.453 182.108 791.454 182.991C791.753 182.989 792.061 182.983 792.329 182.991C792.933 181.666 792.496 180.763 791.454 179.866Z" class="fill-blue" fill="#8be9fd" fill-rule="nonzero" filter="url(#Filter_5)" stroke="none" vectornator:shadowAngle="4.59123" vectornator:shadowColor="#282a36" vectornator:shadowOffset="11.1781" vectornator:shadowOpacity="0.9" vectornator:shadowRadius="13.3014"/>
        <path d="M662.917 154.852C654.03 154.978 644.159 158.054 633.823 162.852C631.663 175.634 629.944 188.093 627.198 211.758C626.63 216.656 626.403 218.44 626.104 220.977C625.955 222.243 625.621 224 625.386 225.57C644.051 212.8 660.789 202.765 669.073 201.789C669.125 200.852 669.198 199.913 669.417 198.758C669.509 198.274 669.616 197.771 669.729 197.258C669.845 196.737 670.107 195.66 670.229 195.164C670.353 194.032 670.392 192.985 670.386 190.539C670.382 189.285 670.372 188.709 670.386 187.977C670.413 186.54 670.491 185.303 670.636 184.07C670.692 183.588 670.774 182.426 670.854 180.695C670.918 179.32 671.238 170.191 671.292 168.758C671.475 163.839 671.649 160.398 671.823 157.664C671.87 156.935 671.931 156.515 671.979 155.914C669.076 155.232 666.085 154.806 662.917 154.852ZM795.573 177.695C795.573 177.749 795.573 177.734 795.573 177.82C795.573 178.082 795.572 179.937 795.573 180.82C795.872 180.818 796.18 180.812 796.448 180.82C797.052 179.495 796.615 178.592 795.573 177.695Z" class="fill-blue" fill="#8be9fd" fill-rule="nonzero" filter="url(#Filter_6)" stroke="none" vectornator:shadowAngle="1.83566" vectornator:shadowColor="#282a36" vectornator:shadowOffset="11.1781" vectornator:shadowOpacity="0.9" vectornator:shadowRadius="13.3014"/>
        <path d="M864.428 226.642C834.725 222.434 800.016 174.573 770.312 170.364L770.313 170.355C740.61 166.147 715.766 200.768 665.775 203.774C643.393 205.121 552.22 279.38 533.654 294.681C531.519 296.441 530.344 297.421 530.344 297.421L484.289 296.917C484.289 296.917 610.775 138.774 670.775 158.774C706.783 170.777 670.986 158.774 670.986 158.774C695.591 162.261 723.631 195.7 749.415 209.469C754.758 212.322 760.004 214.33 765.102 215.053L765.101 215.061C794.804 219.27 830.03 177.006 870.03 182.006C954.374 192.549 919.613 273.893 912.113 308.893L873.202 305.959C873.202 305.959 904.966 246.925 864.966 226.925" class="fill-blue" fill="#8be9fd" fill-rule="nonzero" opacity="1" stroke="none"/>
        <clipPath id="ClipPath_6">
            <path d="M721.878 195.401C721.878 168.666 742.869 146.992 768.762 146.992C794.655 146.992 815.646 168.666 815.646 195.401C815.646 222.137 794.655 243.81 768.762 243.81C742.869 243.81 721.878 222.137 721.878 195.401Z"/>
        </clipPath>
        <g clip-path="url(#ClipPath_6)">
            <path d="M864.428 226.642C834.725 222.434 800.016 174.573 770.312 170.364L770.313 170.355C728.311 166.677 713.584 203.222 665.775 203.774C640.776 204.063 665.775 303.774 665.775 303.774L625.775 303.774C625.775 303.774 610.775 138.774 670.775 158.774C706.783 170.777 670.986 158.774 670.986 158.774C695.591 162.261 723.631 195.7 749.415 209.469C754.758 212.322 760.004 214.33 765.102 215.053L765.101 215.061C794.804 219.27 830.03 177.006 870.03 182.006C954.374 192.549 921.438 272.531 913.938 307.531L873.365 306.18C873.365 306.18 904.966 246.925 864.966 226.925" class="fill-red" fill="#ff5555" fill-rule="nonzero" opacity="1" stroke="none"/>
        </g>
    </g>
    <g id="Layer-6" vectornator:layerName="Layer 6">
        <g opacity="1">
            <path d="M504.931 315.213C504.561 370.312 547.51 387.03 547.51 387.03C547.51 387.03 674.938 396.796 708.136 393.812C769.183 388.324 805.807 396.597 845.492 366.053C871.676 345.9 922.213 307.52 900.037 241.865C891.287 215.958 806.416 187.872 718.535 186.835C685.168 186.441 653 186.912 622.007 197.328C555.854 219.56 507.302 284.943 505.406 305.697" fill="none" class="stroke-pink" stroke="#ff79c6" stroke-dasharray="20.0" stroke-linecap="round" stroke-linejoin="round" stroke-width="7.37512"/>
            <g class="fill-pink" fill="#ff79c6" stroke="none">
                <path d="M528.833 337.45L508.082 309.34L505.405 305.714L502.381 309.056L478.936 334.963C477.57 336.473 477.686 338.805 479.196 340.171C480.706 341.538 483.038 341.421 484.405 339.911L507.849 314.005L502.148 313.72L522.9 341.831C524.109 343.469 526.418 343.817 528.056 342.607C529.695 341.398 530.043 339.089 528.833 337.45Z" class="fill-pink" fill="#ff79c6"/>
            </g>
        </g>
        <path d="M665.775 203.472C695.478 207.681 740.61 166.147 770.313 170.355" fill="none" opacity="1" class="stroke-orange stroke-orange" stroke="#ffb86c" stroke-linecap="round" stroke-linejoin="round" stroke-width="4.86072"/>
        <path d="M707.741 185.501C708.322 181.4 713.226 178.704 718.694 179.479C724.162 180.253 728.124 184.206 727.543 188.307C726.962 192.408 722.058 195.105 716.59 194.33C711.121 193.555 707.16 189.603 707.741 185.501Z" class="fill-background" fill-rule="nonzero" opacity="1" stroke="none"/>
        <path d="M765.102 215.053C735.399 210.844 700.69 162.983 670.986 158.774" fill="none" opacity="1" class="stroke-orange stroke-orange" stroke="#ffb86c" stroke-linecap="round" stroke-linejoin="round" stroke-width="4.86072"/>
        <path d="M765.101 215.061C794.804 219.27 839.936 177.736 869.64 181.945" fill="none" opacity="1" class="stroke-orange stroke-orange" stroke="#ffb86c" stroke-linecap="round" stroke-linejoin="round" stroke-width="4.86072"/>
        <path d="M807.067 197.091C807.648 192.99 812.552 190.293 818.02 191.068C823.488 191.843 827.45 195.796 826.869 199.897C826.288 203.998 821.384 206.695 815.916 205.92C810.447 205.145 806.486 201.192 807.067 197.091Z" class="fill-background" fill-rule="nonzero" opacity="1" stroke="none"/>
        <path d="M864.428 226.642C834.725 222.434 800.016 174.573 770.312 170.364" fill="none" opacity="1" class="stroke-orange stroke-orange" stroke="#ffb86c" stroke-linecap="round" stroke-linejoin="round" stroke-width="4.86072"/>
        <clipPath id="ClipPath_7">
            <path d="M3.76895 21.076L978.159 21.076L961.053 310.555L740.843 292.94C740.843 292.94 689.716 294.713 552.391 294.582C415.065 294.452 191.541 292.417 191.541 292.417L89.9351 297.667L7.70963 330.248L3.76895 21.076Z"/>
        </clipPath>
        <g clip-path="url(#ClipPath_7)">
            <path d="M670.775 158.774C610.775 138.774 484.002 296.858 484.002 296.858L529.623 297.373C529.623 297.373 640.899 201.287 665.775 203.774" fill="none" opacity="1" class="stroke-orange stroke-orange" stroke="#ffb86c" stroke-linecap="butt" stroke-linejoin="round" stroke-width="4.86072"/>
            <path d="M864.966 226.925C904.966 246.925 868.31 312.282 868.31 312.282L912.747 312.967C920.247 277.967 954.374 192.549 870.03 182.006" fill="none" opacity="1" class="stroke-orange stroke-orange" stroke="#ffb86c" stroke-linecap="round" stroke-linejoin="round" stroke-width="4.86072"/>
        </g>
    </g>
    <g id="Layer-5" vectornator:layerName="Layer 5"/>
</svg>
