<?xml version="1.0" encoding="UTF-8" standalone="no"?>
<!DOCTYPE svg PUBLIC "-//W3C//DTD SVG 1.1//EN" "http://www.w3.org/Graphics/SVG/1.1/DTD/svg11.dtd">
<!-- Created with Vectornator (http://vectornator.io/) -->
<svg   stroke-miterlimit="10" style="fill-rule:nonzero;clip-rule:evenodd;stroke-linecap:round;stroke-linejoin:round;" version="1.1" viewBox="0 0 565 565"   xml:space="preserve" xmlns="http://www.w3.org/2000/svg" xmlns:vectornator="http://vectornator.io" xmlns:xlink="http://www.w3.org/1999/xlink">
<defs>
<filter color-interpolation-filters="sRGB" filterUnits="userSpaceOnUse" height="147.784" id="Filter" width="86.0099" x="1.28277" y="214.854">
<feDropShadow dx="-9.84847" dy="-3.62131" flood-color="#282a36" flood-opacity="0.79054" in="SourceGraphic" result="Shadow" stdDeviation="6.13699"/>
</filter>
<filter color-interpolation-filters="sRGB" filterUnits="userSpaceOnUse" height="147.784" id="Filter_2" width="86.0099" x="20.6622" y="226.1">
<feDropShadow dx="9.53097" dy="7.62459" flood-color="#282a36" flood-opacity="1" in="SourceGraphic" result="Shadow" stdDeviation="6.13699"/>
</filter>
<filter color-interpolation-filters="sRGB" filterUnits="userSpaceOnUse" height="575.984" id="Filter_3" width="468.695" x="24.3867" y="21.2672">
<feDropShadow dx="6.85673" dy="5.48526" flood-color="#282a36" flood-opacity="1" in="SourceGraphic" result="Shadow" stdDeviation="4.68151"/>
</filter>
<filter color-interpolation-filters="sRGB" filterUnits="userSpaceOnUse" height="157.784" id="Filter_4" width="310.469" x="390.793" y="189.982">
<feDropShadow dx="-2.05011" dy="-16.8386" flood-color="#282a36" flood-opacity="0.9" in="SourceGraphic" result="Shadow" stdDeviation="10.0925"/>
</filter>
<filter color-interpolation-filters="sRGB" filterUnits="userSpaceOnUse" height="157.784" id="Filter_5" width="310.469" x="394.653" y="219.897">
<feDropShadow dx="-4.44058" dy="16.3714" flood-color="#282a36" flood-opacity="0.9" in="SourceGraphic" result="Shadow" stdDeviation="10.0925"/>
</filter>
<filter color-interpolation-filters="sRGB" filterUnits="userSpaceOnUse" height="146.329" id="Filter_6" width="177.721" x="-376.655" y="176.795">
<feDropShadow dx="-16.8697" dy="-1.77591" flood-color="#282a36" flood-opacity="0.79054" in="SourceGraphic" result="Shadow" stdDeviation="9.44289"/>
</filter>
<filter color-interpolation-filters="sRGB" filterUnits="userSpaceOnUse" height="145.68" id="Filter_7" width="177.071" x="-352.452" y="187.691">
<feDropShadow dx="7.00901" dy="8.79498" flood-color="#282a36" flood-opacity="0.79054" in="SourceGraphic" result="Shadow" stdDeviation="9.31297"/>
</filter>
</defs>
<clipPath id="ArtboardFrame_13">
<rect height="565" width="565" x="0" y="0"/>
</clipPath>
<g clip-path="url(#ArtboardFrame_13)" id="Layer-2" vectornator:layerName="Layer 2">
<clipPath id="ClipPath">
<path d="M-533.325 634.598C-547.703 545.18-467.839 466.153-467.839 466.153L-455.266 490.235L-398.173 465.57L-406.253 444.182L-344.447 430.247L-341.345 454.606L-264.689 449.202L-268.697 416.886C-268.697 416.886-234.322 414.388-222.488 413.89C-220.079 413.789-213.869 447.021-213.869 447.021L-145.539 445.327C-145.539 445.327-151.275 411.071-147.648 410.947C-125.499 410.189-75.3321 404.202-75.3321 404.202L-75.688 446.178L-14.8307 445.345L-12.4395 402.841C-12.4395 402.841 11.2273 401.502 20.8829 401.391C25.9404 401.333 24.9896 444.087 24.9896 444.087L79.3 444.23C79.3 444.23 77.331 388.076 83.3224 387.996C120.759 387.495 271.834 374.176 271.834 374.176L212.834 442.176L280.956 444.083L346.223 389.947C346.223 389.947 378.276 390.438 407.655 393.257C413.097 393.779 401.675 446.461 401.675 446.461L454.91 447.472L470.871 392.355L813.036 418.103L803.37 458.239L857.677 462.42C857.677 462.42 871.83 421.443 872.533 421.676C1020.83 470.851 1004.15 551.979 1004.15 634.598C1004.15 717.571 1030.54 774.653 881.15 823.826C834.225 839.271-293.631 861.745-410.327 823.826C-561.623 774.663-518.947 724.016-533.325 634.598Z"/>
</clipPath>
<g clip-path="url(#ClipPath)">
<path d="M-520.782 646.468C-520.782 566.349-537.297 506.508-390.453 459.19C-276.163 422.363 825.451 444.126 871.583 459.19C1016.5 506.513 991.777 561.784 991.777 641.292C991.777 721.141 1017.57 776.073 871.583 823.394C825.728 838.257-276.418 859.886-390.453 823.394C-538.3 776.083-520.782 726.904-520.782 646.468Z" class="fill-blue" fill="#8be9fd" fill-rule="nonzero" opacity="1" class="stroke-orange" class="stroke-orange" stroke="#ffb86c" stroke-linecap="round" stroke-linejoin="round" stroke-width="7.37622"/>
</g>
</g>
<g clip-path="url(#ArtboardFrame_13)" id="Layer-7" vectornator:layerName="Layer 7">
<g opacity="1">
<path d="M30.8861 233.818L26.4737 295.253L81.7987 350.917L81.4593 271.493L30.8861 233.818Z" class="fill-blue" fill="#8be9fd" fill-rule="nonzero" filter="url(#Filter)" stroke="none" vectornator:shadowAngle="3.49395" vectornator:shadowColor="#282a36" vectornator:shadowOffset="10.4932" vectornator:shadowOpacity="0.79054" vectornator:shadowRadius="12.274"/>
<path d="M30.8861 233.818L26.4737 295.253L81.7987 350.917L81.4593 271.493L30.8861 233.818Z" class="fill-blue" fill="#8be9fd" fill-rule="nonzero" filter="url(#Filter_2)" stroke="none" vectornator:shadowAngle="0.674729" vectornator:shadowColor="#282a36" vectornator:shadowOffset="12.2055" vectornator:shadowOpacity="1" vectornator:shadowRadius="12.274"/>
<path d="M408.845 108.43C363.77 102.043 311.098 29.4142 266.023 23.0273L266.024 23.0141C220.949 16.6271 183.247 69.1652 107.386 73.728C73.5372 75.7638 81.0285 366.971 83.001 428.79C83.2354 436.134 82.2788 444.198 82.2788 444.198L25.037 444.48C25.037 444.48 23.9223-24.9105 114.973 5.43979C169.616 23.6539 115.294 5.43979 115.294 5.43979C152.632 10.7305 195.183 61.4752 234.311 82.3694C242.419 86.6987 250.379 89.7465 258.116 90.8428L258.114 90.856C303.19 97.2429 356.646 33.1064 417.347 40.694C545.339 56.6931 469.004 394.362 457.623 447.475L399.601 446.448C399.601 446.448 470.362 139.209 409.661 108.858" class="fill-blue" fill="#8be9fd" fill-rule="nonzero" opacity="1" stroke="none"/>
<clipPath id="ClipPath_2">
<path d="M192.524 61.0214C192.524 20.4498 224.377-12.4401 263.67-12.4401C302.963-12.4401 334.817 20.4498 334.817 61.0214C334.817 101.593 302.963 134.483 263.67 134.483C224.377 134.483 192.524 101.593 192.524 61.0214Z"/>
</clipPath>
<g clip-path="url(#ClipPath_2)">
<path d="M408.845 108.43C363.77 102.043 311.098 29.4142 266.023 23.0273L266.024 23.0141C202.285 17.4317 179.936 72.89 107.386 73.728C69.4502 74.1661 107.386 225.479 107.386 225.479L46.685 225.479C46.685 225.479 23.9223-24.9105 114.973 5.43979C169.616 23.6539 115.294 5.43979 115.294 5.43979C152.632 10.7305 195.183 61.4752 234.311 82.3694C242.419 86.6987 250.379 89.7465 258.116 90.8428L258.114 90.856C303.19 97.2429 356.646 33.1064 417.347 40.694C545.339 56.6931 495.359 178.068 483.977 231.181L422.407 229.129C422.407 229.129 470.362 139.209 409.661 108.858" class="fill-red" fill="#ff5555" fill-rule="nonzero" opacity="1" stroke="none"/>
</g>
</g>
<g opacity="1">
<path d="M86.5849 473.286C115.692 587.891 277.422 564.1 326.62 550.162C465.627 510.78 496.276 156.227 440.076 100.388C417.178 77.6369 392.278 75.8904 343.136 66.2381C295.604 56.9021 231.44 44.3138 185.014 46.1914C135.12 48.2092 95.0366 57.73 84.4765 76.9613C36.8841 163.634 67.1573 367.373 84.5685 463.964" fill="none" class="stroke-pink" stroke="#ff79c6" stroke-dasharray="15.175149860579218" stroke-linecap="round" stroke-linejoin="round" stroke-width="7.37622"/>
<g class="fill-pink" fill="#ff79c6" stroke="none">
<path d="M115.448 488.551L88.1013 466.795L84.5738 463.989L82.5215 468.002L66.6111 499.115C65.6837 500.929 66.4021 503.151 68.2156 504.078C70.0292 505.006 72.2511 504.287 73.1785 502.474L89.0888 471.36L83.509 472.567L110.856 494.324C112.449 495.592 114.77 495.328 116.038 493.734C117.306 492.14 117.042 489.82 115.448 488.551Z" class="fill-pink" fill="#ff79c6"/>
</g>
</g>
<g opacity="1">
<path d="M107.386 73.2685C150.001 74.9839 220.949 16.6271 266.024 23.0141" fill="none" opacity="1" class="stroke-orange" class="stroke-orange" stroke="#ffb86c" stroke-linecap="round" stroke-linejoin="round" stroke-width="7.37622"/>
<path d="M171.069 45.9983C171.951 39.7747 179.393 35.6827 187.691 36.8585C195.989 38.0343 202.001 44.0327 201.12 50.2563C200.238 56.4799 192.796 60.5719 184.498 59.3961C176.2 58.2203 170.188 52.2219 171.069 45.9983Z" fill="#282a36" fill-rule="nonzero" opacity="1" stroke="none"/>
<path d="M258.116 90.8428C213.041 84.4558 160.369 11.8267 115.294 5.43979" fill="none" opacity="1" class="stroke-orange" class="stroke-orange" stroke="#ffb86c" stroke-linecap="round" stroke-linejoin="round" stroke-width="7.37622"/>
<path d="M258.114 90.856C303.19 97.2429 371.678 34.2146 416.753 40.6016" fill="none" opacity="1" class="stroke-orange" class="stroke-orange" stroke="#ffb86c" stroke-linecap="round" stroke-linejoin="round" stroke-width="7.37622"/>
<path d="M321.798 63.5858C322.68 57.3622 330.122 53.2702 338.42 54.446C346.718 55.6218 352.73 61.6202 351.848 67.8438C350.967 74.0674 343.525 78.1594 335.227 76.9836C326.929 75.8078 320.916 69.8094 321.798 63.5858Z" fill="#282a36" fill-rule="nonzero" opacity="1" stroke="none"/>
<path d="M408.845 108.43C363.77 102.043 311.098 29.4142 266.023 23.0273" fill="none" opacity="1" class="stroke-orange" class="stroke-orange" stroke="#ffb86c" stroke-linecap="round" stroke-linejoin="round" stroke-width="7.37622"/>
<clipPath id="ClipPath_3">
<path d="M-499.126-48.3328L-135.371-29.9872L977.889 26.1589L951.93 465.447L615.447 447.698C615.447 447.698 543.076 443.213 334.682 443.015C266.558 442.95 185.772 441.235 105.693 440.501C79.0193 440.257 53.1773 440.773 27.5644 440.555C-105.153 439.423-215.816 437.924-215.816 437.924L-370.005 445.89L-494.783 495.332L-499.126-48.3328Z"/>
</clipPath>
<g clip-path="url(#ClipPath_3)">
<path d="M108.456 73.2229C70.7061 69.448 82.8031 443.922 82.8031 443.922L21.2107 444.457C21.2107 444.457 21.4165 426.464 22.4437 397.758C26.5978 281.662 21.4165 426.464 22.4437 397.758C26.0856 295.977 41.2805-11.8963 115.923 5.40669" fill="none" opacity="1" class="stroke-orange" class="stroke-orange" stroke="#ffb86c" stroke-linecap="butt" stroke-linejoin="round" stroke-width="7.37622"/>
<path d="M409.717 108.886C470.417 139.236 396.987 449.68 396.987 449.68L458.722 449.767C470.104 396.654 546.548 56.8685 418.555 40.8694" fill="none" opacity="1" class="stroke-orange" class="stroke-orange" stroke="#ffb86c" stroke-linecap="round" stroke-linejoin="round" stroke-width="7.37622"/>
</g>
</g>
</g>
<g id="Layer-10" vectornator:layerName="Layer 10"/>
<g clip-path="url(#ArtboardFrame_13)" id="Layer-5" vectornator:layerName="Layer 5">
<clipPath id="ClipPath_4">
<path d="M356.417 54.4696L351.065 72.8717L368.752 86.3449L358.024 424.005L171.373 417.827L171.249 4.69881L9.43238-7.54301C9.43238-7.54301-9.43346 493.52-7.66844 505.875C-5.90342 518.231 267.837 720.245 267.837 720.245L683.519 193.039L608.65-67.4449L377.022-65.1052L356.417 54.4696Z"/>
</clipPath>
<g clip-path="url(#ClipPath_4)">
<g filter="url(#Filter_3)" vectornator:shadowAngle="0.674729" vectornator:shadowColor="#282a36" vectornator:shadowOffset="8.78082" vectornator:shadowOpacity="1" vectornator:shadowRadius="9.36301">
<path d="M62.4168 488.123C94.3715 606.516 272.356 575.396 323.622 560.819C469.022 519.475 501.081 147.259 442.296 88.6379C418.345 64.7539 417.406 60.5164 347.287 64.987C296.716 68.2113 204.303 61.8362 160.227 41.3596C108.926 17.5267 81.3873 43.8552 70.3416 64.0446C20.5603 155.035 41.7161 375.586 59.928 476.989" fill="none" stroke="#ba1775" stroke-linecap="round" stroke-linejoin="round" stroke-width="8.83142"/>
<g fill="#ba1775" stroke="none">
<path d="M97.0989 506.161L64.1788 480.339L59.9323 477.008L57.5083 481.83L38.716 519.212C37.6206 521.391 38.499 524.045 40.6779 525.14C42.8568 526.236 45.5111 525.357 46.6065 523.178L65.3987 485.797L58.7282 487.288L91.6483 513.11C93.5672 514.615 96.3429 514.28 97.848 512.361C99.3531 510.442 99.0178 507.667 97.0989 506.161Z" fill="#ba1775"/>
</g>
</g>
</g>
</g>
<g clip-path="url(#ArtboardFrame_13)" id="Layer-6" vectornator:layerName="Layer 6">
<g opacity="1">
<path d="M475.028 232.057C461.542 232.248 446.563 236.917 430.878 244.197C427.601 263.594 424.992 282.501 420.825 318.413C419.962 325.846 419.618 328.552 419.165 332.402C418.939 334.324 418.431 336.99 418.074 339.373C446.399 319.994 471.799 304.766 484.371 303.285C484.449 301.863 484.56 300.438 484.892 298.685C485.031 297.951 485.194 297.187 485.366 296.409C485.542 295.618 485.939 293.985 486.125 293.232C486.312 291.513 486.372 289.925 486.362 286.213C486.357 284.31 486.342 283.435 486.362 282.324C486.403 280.144 486.522 278.267 486.742 276.397C486.828 275.665 486.952 273.901 487.074 271.275C487.17 269.187 487.656 255.335 487.738 253.16C488.016 245.695 488.279 240.473 488.544 236.325C488.614 235.218 488.708 234.581 488.781 233.669C484.375 232.634 479.836 231.988 475.028 232.057ZM676.336 266.722C676.336 266.803 676.336 266.781 676.336 266.912C676.336 267.309 676.335 270.124 676.336 271.465C676.789 271.461 677.258 271.452 677.664 271.465C678.58 269.453 677.918 268.083 676.336 266.722Z" class="fill-blue" fill="#8be9fd" fill-rule="nonzero" filter="url(#Filter_4)" stroke="none" vectornator:shadowAngle="4.59123" vectornator:shadowColor="#282a36" vectornator:shadowOffset="16.9629" vectornator:shadowOpacity="0.9" vectornator:shadowRadius="20.185"/>
<path d="M481.279 228.762C467.793 228.953 452.813 233.622 437.129 240.902C433.851 260.3 431.243 279.207 427.075 315.118C426.213 322.551 425.869 325.258 425.416 329.108C425.189 331.03 424.681 333.696 424.325 336.079C452.65 316.7 478.049 301.472 490.621 299.991C490.7 298.568 490.811 297.144 491.143 295.391C491.282 294.657 491.444 293.893 491.617 293.114C491.792 292.324 492.19 290.69 492.376 289.937C492.563 288.219 492.623 286.631 492.613 282.918C492.608 281.016 492.592 280.141 492.613 279.03C492.654 276.849 492.772 274.973 492.992 273.102C493.078 272.37 493.203 270.607 493.324 267.98C493.421 265.893 493.907 252.04 493.988 249.865C494.266 242.4 494.529 237.179 494.794 233.03C494.865 231.923 494.958 231.286 495.032 230.375C490.625 229.34 486.086 228.694 481.279 228.762ZM682.587 263.428C682.587 263.509 682.587 263.487 682.587 263.618C682.587 264.014 682.586 266.829 682.587 268.17C683.04 268.166 683.508 268.157 683.915 268.17C684.83 266.158 684.168 264.789 682.587 263.428Z" class="fill-blue" fill="#8be9fd" fill-rule="nonzero" filter="url(#Filter_5)" stroke="none" vectornator:shadowAngle="1.83566" vectornator:shadowColor="#282a36" vectornator:shadowOffset="16.9629" vectornator:shadowOpacity="0.9" vectornator:shadowRadius="20.185"/>
<path d="M787.075 337.706C742 331.319 689.328 258.69 644.253 252.303L644.255 252.289C599.18 245.903 561.478 298.441 485.616 303.003C451.652 305.046 313.295 417.735 285.12 440.956C281.88 443.626 281.82 444.769 281.82 444.769L210.208 444.348C210.208 444.348 402.153 204.365 493.204 234.715C547.846 252.929 493.524 234.715 493.524 234.715C530.863 240.006 573.414 290.751 612.542 311.645C620.649 315.974 628.61 319.022 636.346 320.118L636.345 320.131C681.42 326.518 734.876 262.382 795.577 269.969C923.57 285.968 870.819 409.409 859.437 462.522L800.39 458.07C800.39 458.07 848.592 368.484 787.892 338.134" class="fill-blue" fill="#8be9fd" fill-rule="nonzero" opacity="1" stroke="none"/>
<clipPath id="ClipPath_5">
<path d="M570.754 290.297C570.754 249.725 602.607 216.835 641.901 216.835C681.194 216.835 713.047 249.725 713.047 290.297C713.047 330.869 681.194 363.758 641.901 363.758C602.607 363.758 570.754 330.869 570.754 290.297Z"/>
</clipPath>
<g clip-path="url(#ClipPath_5)">
<path d="M787.075 337.706C742 331.319 689.328 258.69 644.253 252.303L644.255 252.289C580.516 246.707 558.167 302.165 485.616 303.003C447.681 303.442 485.616 454.755 485.616 454.755L424.915 454.755C424.915 454.755 402.153 204.365 493.204 234.715C547.846 252.929 493.524 234.715 493.524 234.715C530.863 240.006 573.414 290.751 612.542 311.645C620.649 315.974 628.61 319.022 636.346 320.118L636.345 320.131C681.42 326.518 734.876 262.382 795.577 269.969C923.57 285.968 873.589 407.343 862.208 460.456L800.637 458.405C800.637 458.405 848.592 368.484 787.892 338.134" class="fill-red" fill="#ff5555" fill-rule="nonzero" opacity="1" stroke="none"/>
</g>
</g>
<g opacity="1">
<path d="M485.616 302.544C530.691 308.931 599.18 245.903 644.255 252.289" fill="none" opacity="1" class="stroke-orange" class="stroke-orange" stroke="#ffb86c" stroke-linecap="round" stroke-linejoin="round" stroke-width="7.37622"/>
<path d="M549.3 275.274C550.182 269.05 557.623 264.958 565.922 266.134C574.22 267.31 580.232 273.308 579.35 279.532C578.468 285.755 571.026 289.847 562.728 288.672C554.43 287.496 548.418 281.497 549.3 275.274Z" fill="#282a36" fill-rule="nonzero" opacity="1" stroke="none"/>
<path d="M636.346 320.118C591.271 313.731 538.6 241.102 493.524 234.715" fill="none" opacity="1" class="stroke-orange" class="stroke-orange" stroke="#ffb86c" stroke-linecap="round" stroke-linejoin="round" stroke-width="7.37622"/>
<path d="M636.345 320.131C681.42 326.518 749.908 263.49 794.984 269.877" fill="none" opacity="1" class="stroke-orange" class="stroke-orange" stroke="#ffb86c" stroke-linecap="round" stroke-linejoin="round" stroke-width="7.37622"/>
<path d="M700.029 292.861C700.911 286.638 708.352 282.546 716.65 283.721C724.949 284.897 730.961 290.896 730.079 297.119C729.197 303.343 721.755 307.435 713.457 306.259C705.159 305.083 699.147 299.085 700.029 292.861Z" fill="#282a36" fill-rule="nonzero" opacity="1" stroke="none"/>
<path d="M787.075 337.706C742 331.319 689.328 258.69 644.253 252.303" fill="none" opacity="1" class="stroke-orange" class="stroke-orange" stroke="#ffb86c" stroke-linecap="round" stroke-linejoin="round" stroke-width="7.37622"/>
<clipPath id="ClipPath_6">
<path d="M-430.993 27.2991L940.532 27.2991L914.573 466.587L580.401 439.856C580.401 439.856 491.007 443.317 282.613 443.119C74.2199 442.921-253.173 439.064-253.173 439.064L-407.362 447.031L-532.14 496.472L-538.12 27.2991L-430.993 27.2991"/>
</clipPath>
<g clip-path="url(#ClipPath_6)">
<path d="M493.204 234.715C402.153 204.365 207.463 448.366 207.463 448.366L276.437 453.64C276.437 453.64 447.866 299.228 485.616 303.003" fill="none" opacity="1" class="stroke-orange" class="stroke-orange" stroke="#ffb86c" stroke-linecap="butt" stroke-linejoin="round" stroke-width="7.37622"/>
<path d="M787.892 338.134C848.592 368.484 792.967 467.665 792.967 467.665L860.399 468.704C871.781 415.591 923.57 285.968 795.577 269.969" fill="none" opacity="1" class="stroke-orange" class="stroke-orange" stroke="#ffb86c" stroke-linecap="round" stroke-linejoin="round" stroke-width="7.37622"/>
</g>
</g>
<g opacity="1">
<clipPath id="ClipPath_7">
<path d="M-509.13 17.6L-503.154 486.749L-335.659 446.345L-329.067 446.44L-255.894 441.176L-248.639 441.366L-69.6668 436.055L-65.8731 435.533L-65.7308 438.094L-4.46112 437.383L-4.65081 436.007C64.6697 435.455 139.668 434.771 211.073 434.253C211.035 430.017 210.89 426.301 211.073 420.643C211.195 416.911 211.427 414.028 211.974 407.554C211.99 407.371 212.253 403.766 212.354 402.432C212.488 400.664 213.025 397.338 213.634 394.845C214.197 392.541 214.802 390.717 215.911 389.012C219.435 383.589 227.166 381.98 232.176 387.826C232.527 388.235 232.802 388.722 233.125 389.154C233.178 388.701 233.162 388.649 233.22 388.158C233.31 387.395 233.425 386.393 233.457 386.119C233.617 384.751 234.119 381.385 234.121 381.377C234.431 379.307 234.52 378.359 234.642 377.299C234.643 376.766 234.641 375.464 234.642 375.402C234.618 375.266 234.641 375.236 234.927 373.362C235.091 372.664 235.1 372.679 236.018 370.754L236.444 370.138L237.44 368.905L240.143 367.103L244.506 366.297L248.49 367.482L249.912 368.478L264.186 368.478C264.23 366.198 264.274 363.561 264.281 362.882C264.307 360.553 264.355 358.693 264.518 354.631C264.551 353.81 264.865 346.61 264.898 346C264.91 345.786 264.92 345.257 264.945 345.004C264.953 344.732 264.954 344.762 265.372 343.06C265.629 342.082 265.654 342.048 268.123 338.934L268.739 338.46L269.498 337.938L270.399 337.464L271.489 337.084L272.722 336.8L274.098 336.658L275.426 336.752L276.706 337.037L277.892 337.416L278.887 337.938L279.694 338.46L280.073 338.744C280.845 339.458 280.984 339.687 281.259 340.025C281.395 339.01 281.446 337.812 281.59 336.8C281.676 336.197 282.394 330.485 282.444 330.113C282.562 329.234 282.584 329.136 282.681 328.691C282.695 328.4 282.729 328.376 283.724 326.035C284.12 325.364 284.076 325.352 285.242 323.996L286.048 323.332L287.139 322.573L288.656 321.909L290.601 321.435L292.877 321.435L295.058 321.957L296.86 322.858L298.188 323.901L299.042 324.897L299.658 325.703L299.801 325.94C300.106 324.665 300.127 324.296 300.512 322.715C300.63 322.231 300.78 321.698 300.844 321.435C300.86 321.276 300.888 320.502 300.891 320.439C301.009 318.466 301.149 317.425 301.603 315.887C302.519 312.776 304.472 310.089 307.673 308.489C309.004 307.823 310.411 307.354 312.178 307.351C314.311 307.347 316.226 308.306 317.916 309.627C318.711 306.904 319.294 304.207 320.192 301.47C320.24 301.324 320.472 300.077 320.477 300.048C320.764 298.422 320.937 297.628 321.283 296.491C321.867 294.573 322.699 292.835 323.986 291.227C325.803 288.956 328.188 287.33 332.095 287.575C334.525 287.728 336.275 288.593 337.644 289.804C338.924 289.097 340.346 288.593 342.149 288.619C343.058 288.632 343.801 288.989 344.615 289.235C344.957 288.136 344.918 287.807 345.326 286.532C345.552 285.824 347.888 279.297 348.171 278.518C348.311 278.133 348.743 276.98 348.835 276.763C348.907 276.597 348.902 276.585 349.12 276.147C349.295 275.805 349.322 275.793 350.211 274.534L351.254 273.444L357.656 271.167L360.264 272.543C360.686 271.224 361.018 270.235 361.497 268.749C361.497 268.748 361.496 268.666 361.497 268.654C361.517 268.482 361.637 267.351 361.639 267.326C361.881 264.817 362.009 263.833 362.54 262.252C364.494 256.441 370.913 252.494 377.573 256.656C378.072 256.968 378.213 257.365 378.617 257.699C378.823 257.238 378.945 256.78 379.328 256.229C380.349 254.724 380.323 254.722 384.26 252.625C387.27 252.06 387.283 252.07 390.425 252.91C390.84 253.136 390.747 253.221 391.041 253.384C392.22 249.116 395.456 245.828 400.336 245.275C400.664 243.846 400.886 242.318 401.237 240.912C401.294 240.685 401.281 240.687 401.379 240.343C401.38 240.032 401.421 240.021 403.134 237.071C404.811 234.715 405.307 234.598 412.761 234.225C414.238 232.108 416.479 230.646 419.02 230.289C420.215 230.121 421.48 230.196 422.719 230.526C422.734 230.53 422.753 230.522 422.767 230.526C423.211 227.866 423.556 225.118 424.047 222.417C424.965 217.369 429.811 214.007 434.859 214.924C439.908 215.842 443.27 220.689 442.352 225.737C438.098 249.134 435.566 268.193 430.686 310.243C429.824 317.676 429.48 320.383 429.027 324.233C428.508 328.639 427.604 334.812 426.513 340.214C425.718 344.153 424.891 347.51 423.952 350.173C423.313 351.988 422.582 353.502 421.723 354.868C420.006 357.6 417.757 359.663 414.136 360.321C411.829 360.741 409.772 360.326 407.924 359.515C407.967 362.313 407.237 365.082 405.221 367.435C402.351 370.783 397.648 371.662 393.697 369.711C392.814 371.55 391.694 373.326 390.045 374.975C387.358 377.662 383.447 378.871 379.47 377.536C378.703 377.278 378.15 376.863 377.526 376.492C377.375 378.79 377.279 381.05 376.72 382.989C375.425 387.478 372.794 391.141 368.516 393.28C367.993 393.541 367.512 393.48 366.998 393.659C365.808 398.506 364.417 402.491 362.066 405.135C358.191 409.495 352.074 409.983 347.602 406.558C347.584 406.544 347.573 406.525 347.555 406.511C347.321 407.369 347.193 408.318 346.938 409.166C346.93 409.214 346.855 409.651 346.844 409.735C346.768 410.295 346.748 410.683 346.654 411.158C346.491 411.98 346.27 412.76 345.943 413.577C344.738 416.583 342.352 419.052 338.782 420.026C338.733 420.04 338.688 420.013 338.64 420.026C338.528 423.511 338.281 426.255 337.501 428.894C336.984 430.644 336.054 432.126 335.13 433.589C535.199 433.65 609.373 430.127 609.374 430.127L943.559 456.873L962.149 142.273L969.546 17.6L-509.13 17.6Z"/>
</clipPath>
<g clip-path="url(#ClipPath_7)">
<path d="M-285.01 202.181C-297.459 211.874-308.541 223.539-317.636 237.51C-325.609 249.757-331.545 263.897-336.178 278.815C-330.41 278.712-324.484 278.575-320.671 278.72C-315.273 278.926-311.103 279.44-306.255 280.333C-296.446 282.138-287.12 285.584-276.663 291.382C-275.847 291.834-274.857 292.217-272.537 293.042C-272.26 293.141-272.254 293.177-271.968 293.279C-265.728 295.503-261.944 297.577-258.927 301.293C-257.274 295.324-255.33 289.779-252.905 285.217C-245.557 271.395-226.91 258.627-205.672 250.789C-207.14 247.61-207.568 246.878-209.323 243.059C-209.925 241.75-209.955 241.759-210.556 240.45C-216.255 228.059-220.149 219.882-224.072 211.713C-233.685 209.912-244.637 208.725-256.604 208.156C-261.23 207.936-264.541 207.106-271.447 204.931C-272.295 204.664-272.625 204.544-273.059 204.409C-276.045 203.483-277.93 203.019-279.698 202.75C-280.898 202.567-282.312 202.397-284.962 202.181C-284.972 202.189-284.999 202.173-285.01 202.181Z" class="fill-blue" fill="#8be9fd" fill-rule="nonzero" filter="url(#Filter_6)" stroke="none" vectornator:shadowAngle="3.24648" vectornator:shadowColor="#282a36" vectornator:shadowOffset="16.9629" vectornator:shadowOpacity="0.79054" vectornator:shadowRadius="18.8858"/>
<path d="M-285.01 202.181C-297.459 211.874-308.541 223.539-317.636 237.51C-325.609 249.757-331.545 263.897-336.178 278.815C-330.41 278.712-324.484 278.575-320.671 278.72C-315.273 278.926-311.103 279.44-306.255 280.333C-296.446 282.138-287.12 285.584-276.663 291.382C-275.847 291.834-274.857 292.217-272.537 293.042C-272.26 293.141-272.254 293.177-271.968 293.279C-265.728 295.503-261.944 297.577-258.927 301.293C-257.274 295.324-255.33 289.779-252.905 285.217C-245.557 271.395-226.91 258.627-205.672 250.789C-207.14 247.61-207.568 246.878-209.323 243.059C-209.925 241.75-209.955 241.759-210.556 240.45C-216.255 228.059-220.149 219.882-224.072 211.713C-233.685 209.912-244.637 208.725-256.604 208.156C-261.23 207.936-264.541 207.106-271.447 204.931C-272.295 204.664-272.625 204.544-273.059 204.409C-276.045 203.483-277.93 203.019-279.698 202.75C-280.898 202.567-282.312 202.397-284.962 202.181C-284.972 202.189-284.999 202.173-285.01 202.181Z" class="fill-blue" fill="#8be9fd" fill-rule="nonzero" filter="url(#Filter_7)" stroke="none" vectornator:shadowAngle="0.897928" vectornator:shadowColor="#282a36" vectornator:shadowOffset="11.2462" vectornator:shadowOpacity="0.79054" vectornator:shadowRadius="18.6259"/>
<path d="M-117.659 167.696C-141.497 161.704-166.867 160.679-192.191 164.516C-241.916 172.05-289.197 193.848-317.629 237.522C-367.249 313.741-344.58 458.88-344.58 458.88L-260.449 453.116C-260.449 453.116-276.746 330.067-252.911 285.229C-242.695 266.011-210.716 248.706-180.159 244.076C-149.411 239.417-127.862 260.055-105.535 261.761C137.463 280.318 95.553 440.403 95.553 440.403L159.628 442.177C159.628 442.177 171.744 263.347-52.5961 201.107C-146.587 175.031-93.8342 173.685-117.659 167.696Z" class="fill-blue" fill="#8be9fd" fill-rule="nonzero" opacity="1" class="stroke-orange" class="stroke-orange" stroke="#ffb86c" stroke-linecap="butt" stroke-linejoin="round" stroke-width="7.37622"/>
<path d="M-294.406 495.914C-294.406 495.914-309.223 464.42-310.634 446.085C-313.8 404.92-313.847 367.977-303.637 327.135C-297.405 302.21-288.12 269.012-263.961 245.432C-219.623 202.158-159.697 213.922-96.3481 219.555C98.4301 236.873 153.987 415.1 139.702 493.761C132.203 535.052-57.246 517.113-87.9472 536.65C-125.025 560.245-192.473 567.677-237.084 550.947C-263.591 541.007-294.406 495.914-294.406 495.914Z" fill="none" opacity="1" class="stroke-pink" stroke="#ff79c6" stroke-dasharray="30.350299721158436" stroke-linecap="round" stroke-linejoin="round" stroke-width="7.37512"/>
</g>
</g>
<g opacity="1">
<path d="M266.919 414.943C245.938 445.056 196.434 548.768 352.434 572.68C383.658 577.466 576.304 636.483 697.136 603.561C789.064 578.515 830.443 529.473 848.456 369.958C854.083 320.128 788.251 307.082 713.881 295.944C667.804 289.044 613.088 274.594 563.19 277.34C494.545 281.118 428.56 288.264 395.954 305.672C347.348 331.623 312.203 370.304 272.865 407.517" fill="none" class="stroke-pink" stroke="#ff79c6" stroke-dasharray="30.350299721158436" stroke-linecap="round" stroke-linejoin="round" stroke-width="7.37622"/>
<g class="fill-pink" fill="#ff79c6" stroke="none">
<path d="M273.282 446.969L272.912 412.025L272.864 407.518L268.455 408.457L234.277 415.74C232.285 416.164 231.014 418.123 231.439 420.115C231.863 422.108 233.822 423.378 235.815 422.954L269.993 415.672L265.536 412.103L265.906 447.047C265.928 449.084 267.597 450.717 269.633 450.696C271.67 450.674 273.304 449.005 273.282 446.969Z" class="fill-pink" fill="#ff79c6"/>
</g>
</g>
</g>
</svg>
