<!-- Created with Vectornator (http://vectornator.io/) -->
<svg xmlns:inkscape="http://www.inkscape.org/namespaces/inkscape" xmlns:sodipodi="http://sodipodi.sourceforge.net/DTD/sodipodi-0.dtd" xmlns="http://www.w3.org/2000/svg" xmlns:svg="http://www.w3.org/2000/svg" xmlns:vectornator="http://vectornator.io" stroke-miterlimit="10" style="clip-rule:evenodd;fill-rule:nonzero;stroke-linecap:round;stroke-linejoin:round" version="1.1" viewBox="0 0 580 565" xml:space="preserve" id="svg42" sodipodi:docname="push_off_1.svg"><sodipodi:namedview id="namedview42" pagecolor="#ffffff" bordercolor="#000000" borderopacity="0.25" inkscape:showpageshadow="2" inkscape:pageopacity="0.0" inkscape:pagecheckerboard="0" inkscape:deskcolor="#d1d1d1"/>
    <defs id="defs1">
        <filter color-interpolation-filters="sRGB" filterUnits="userSpaceOnUse" height="452.73599" id="Filter" width="398.09" x="58.390999" y="105.428">
            <feDropShadow dx="5.63258" dy="12.7309" flood-color="#282a36" flood-opacity="0.79054" in="SourceGraphic" result="Shadow" stdDeviation="1.19863"/>
        </filter>
        <filter color-interpolation-filters="sRGB" filterUnits="userSpaceOnUse" height="195.314" id="Filter_2" width="384.31601" x="1126.08" y="76.776199">
            <feDropShadow dx="-2.53775" dy="-20.8437" flood-color="#282a36" flood-opacity="0.9" in="SourceGraphic" result="Shadow" stdDeviation="12.4931"/>
        </filter>
        <filter color-interpolation-filters="sRGB" filterUnits="userSpaceOnUse" height="195.314" id="Filter_3" width="384.31601" x="1130.86" y="113.807">
            <feDropShadow dx="-5.49679" dy="20.2654" flood-color="#282a36" flood-opacity="0.9" in="SourceGraphic" result="Shadow" stdDeviation="12.4931"/>
        </filter>
        <filter color-interpolation-filters="sRGB" filterUnits="userSpaceOnUse" height="181.13499" id="Filter_4" width="219.993" x="176.09399" y="60.452999">
            <feDropShadow dx="-20.8822" dy="-2.19832" flood-color="#282a36" flood-opacity="0.79054" in="SourceGraphic" result="Shadow" stdDeviation="11.6889"/>
        </filter>
        <filter color-interpolation-filters="sRGB" filterUnits="userSpaceOnUse" height="180.33099" id="Filter_5" width="219.189" x="206.05499" y="73.9403">
            <feDropShadow dx="8.67615" dy="10.8869" flood-color="#282a36" flood-opacity="0.79054" in="SourceGraphic" result="Shadow" stdDeviation="11.5281"/>
        </filter>
    </defs>
    <clipPath id="ArtboardFrame_12">
        <rect height="565" width="580" x="0" y="0" id="rect1"/>
    </clipPath>
    <g clip-path="url(#ArtboardFrame_12)" id="Layer-2" vectornator:layerName="Layer 2">
        <clipPath id="ClipPath">
            <path d="M -17.84,627.147 C -35.638,516.46 63.2216,418.636 63.2216,418.636 l 15.5642,29.811 70.6722,-30.532 -10.002,-26.476 76.507,-17.249 3.84,30.153 94.889,-6.69 -4.961,-40.003 c 0,0 42.551,-3.091 57.2,-3.707 2.982,-0.126 10.669,41.011 10.669,41.011 l 84.583,-2.098 c 0,0 -7.101,-42.403 -2.611,-42.557 27.417,-0.938 89.517,-8.35 89.517,-8.35 l -0.441,51.961 75.333,-1.031 2.96,-52.614 c 0,0 29.296,-1.658 41.248,-1.795 6.261,-0.072 5.084,52.852 5.084,52.852 l 67.228,0.177 c 0,0 -2.437,-69.511 4.979,-69.61 46.342,-0.621 233.351,-17.107 233.351,-17.107 l -70.95,86.989 71.684,0.632 91.345,-68.099 c 0,0 39.68,0.608 76.05,4.097 6.73,0.647 -7.41,65.86 -7.41,65.86 l 65.9,1.251 19.76,-68.228 423.55,31.874 -11.96,49.682 67.22,5.176 c 0,0 17.52,-50.724 18.39,-50.436 183.57,60.871 162.92,161.296 162.92,263.567 0,102.709 32.67,173.368 -152.25,234.237 -58.09,19.118 -1454.214,46.939 -1598.667,0 C -52.8688,800.527 -0.0420666,737.834 -17.84,627.147 Z" id="path1"/>
        </clipPath>
        <g clip-path="url(#ClipPath)" id="g2">
            <path d="m -2.31453,641.841 c 0,-99.176 -20.44277,-173.251 161.32853,-231.823 141.475,-45.588 1505.116,-18.648 1562.216,0 179.39,58.578 148.79,126.995 148.79,225.415 0,98.841 31.93,166.84 -148.79,225.416 -56.76,18.399 -1421.056,45.172 -1562.216,0 C -23.999,802.284 -2.31453,741.409 -2.31453,641.841 Z" class="fill-blue stroke-orange stroke-orange" fill="#8be9fd" fill-rule="nonzero" opacity="1" stroke="#ffb86c" stroke-linecap="round" stroke-linejoin="round" stroke-width="9.13069" id="path2"/>
        </g>
    </g>
    <g clip-path="url(#ArtboardFrame_12)" id="Layer-4" vectornator:layerName="Layer 4">
        <clipPath id="ClipPath_2">
            <path d="M 4.02661,-126.512 H 1830.26 l -32.06,550.708 -412.72,-33.511 c 0,0 -92.97,4.649 -350.35,4.4 -177.068,-0.171 -573.365,-7.201 -573.365,-7.201 l 0.651,5.236 c 0,0 -97.283,2.33 -97.283,2.33 l -208.066,7.819 -7.254,14.69 -71.3493,30.846 -67.0513,12.856 z" id="path3"/>
        </clipPath>
        <g clip-path="url(#ClipPath_2)" id="g4">
            <path d="M 260.669,90.4089 C 230.243,90.466 199.489,96.949 170.268,109.252 112.892,133.411 62.7848,173.942 41.9456,234.992 5.57734,341.536 77.6944,455.127 77.6944,455.127 l 78.2426,-33.826 c 0,0 -36.798,-87.69 -21.829,-148.74 6.415,-26.165 39.527,-56.653 74.786,-71.499 35.479,-14.938 71.284,-15.943 94.921,-1.467 50.132,30.701 70.32,210.03 70.32,210.03 l 94.308,-4.436 c 0,0 -29.965,-240.639 -119.544,-294.469 -26.46,-15.9003 -57.821,-20.3682 -88.23,-20.3111 z" class="fill-blue stroke-orange stroke-orange" fill="#8be9fd" fill-rule="nonzero" opacity="1" stroke="#ffb86c" stroke-linecap="butt" stroke-linejoin="round" stroke-width="9.13069" id="path4"/>
        </g>
    </g>
    <g clip-path="url(#ArtboardFrame_12)" id="Layer-8" vectornator:layerName="Layer 8">
        <path d="m 1148.43,-24.173 c -55.8,-7.9061 -121,-97.81 -176.793,-105.717 l 0.002,-0.016 c -55.797,-7.906 -102.466,57.1285 -196.372,62.7766 -41.899,2.5201 -32.626,362.9924 -30.185,439.5154 0.29,9.091 -0.894,19.073 -0.894,19.073 l -70.857,0.349 c 0,0 -1.38,-581.038 111.328,-543.468 67.64,22.546 0.397,0 0.397,0 46.22,6.549 98.892,69.3634 147.327,95.2274 10.036,5.3591 19.89,9.1318 29.467,10.4888 l -0.002,0.0164 c 55.792,7.9061 121.972,-71.4856 197.102,-62.0936 158.44,19.8048 63.95,437.79 49.86,503.537 l -71.82,-1.272 c 0,0 87.59,-380.3176 12.45,-417.8869" class="fill-blue" fill="#8be9fd" fill-rule="nonzero" opacity="1" stroke="none" id="path5"/>
        <clipPath id="ClipPath_3">
            <path d="m 880.655,-82.8583 c 0,-50.2217 39.43,-90.9347 88.07,-90.9347 48.635,0 88.065,40.713 88.065,90.9347 0,50.2219 -39.43,90.93479 -88.065,90.93479 -48.64,0 -88.07,-40.71289 -88.07,-90.93479 z" id="path6"/>
        </clipPath>
        <g clip-path="url(#ClipPath_3)" id="g7">
            <path d="m 1148.43,-24.173 c -55.8,-7.9061 -121,-97.81 -176.793,-105.717 l 0.002,-0.016 c -78.9,-6.91 -106.565,61.7392 -196.372,62.7766 -46.959,0.5424 0,187.8464 0,187.8464 h -75.139 c 0,0 -28.177,-309.947 84.531,-272.377 67.64,22.546 0.397,0 0.397,0 46.22,6.549 98.892,69.3634 147.327,95.2274 10.036,5.3591 19.89,9.1318 29.467,10.4888 l -0.002,0.0164 c 55.792,7.9061 121.972,-71.4856 197.102,-62.0936 158.44,19.8048 96.57,170.0492 82.48,235.795 l -76.21,-2.539 c 0,0 59.36,-111.3086 -15.78,-148.8779" class="fill-red" fill="#ff5555" fill-rule="nonzero" opacity="1" stroke="none" id="path7"/>
        </g>
    </g>
    <g clip-path="url(#ArtboardFrame_12)" id="Layer-5" vectornator:layerName="Layer 5">
        <g opacity="1" id="g10">
            <path d="m 144.976,474.01 c 11.452,10.874 36.006,28.389 77.532,31.519 61.036,4.602 110.41,8.332 158.736,-21.872 C 492.549,414.092 370.507,108.496 230.753,131.789 140.522,146.827 73.487,212.095 82.4265,310.43 c 4.9551,54.506 54.6745,154.822 54.6745,154.822" fill="none" class="stroke-pink" stroke="#ff79c6" stroke-dasharray="18.7847" stroke-linecap="round" stroke-linejoin="round" stroke-width="9.13069" id="path8"/>
            <g class="fill-pink" fill="#ff79c6" stroke="none" id="g9">
                <path d="m 185.372,472.684 -42.754,-6.581 -5.515,-0.849 0.26,5.574 2.015,43.21 c 0.117,2.518 2.254,4.465 4.773,4.348 2.519,-0.118 4.465,-2.255 4.348,-4.774 l -2.015,-43.21 -5.255,4.725 42.753,6.582 c 2.492,0.383 4.824,-1.326 5.207,-3.818 0.384,-2.492 -1.325,-4.823 -3.817,-5.207 z" class="fill-pink" fill="#ff79c6" id="path9"/>
            </g>
        </g>
        <g filter="url(#Filter)" vectornator:shadowAngle="1.15425" vectornator:shadowColor="#282a36" vectornator:shadowOffset="13.9212" vectornator:shadowOpacity="0.79054" vectornator:shadowRadius="2.39726" id="g12">
            <path d="m 133.508,490.387 c 12.666,12.028 39.824,31.399 85.754,34.862 67.508,5.089 122.118,9.215 175.569,-24.192 C 517.938,424.115 382.954,86.1129 228.38,111.875 128.582,128.508 54.4378,200.698 64.3253,309.46 69.8058,369.746 124.798,480.7 124.798,480.7" fill="none" stroke="#ba1775" stroke-linecap="round" stroke-linejoin="round" stroke-width="10.0989" id="path10"/>
            <g fill="#ba1775" stroke="none" id="g11">
                <path d="m 178.187,488.921 -47.287,-7.28 -6.1,-0.939 0.288,6.165 2.228,47.792 c 0.13,2.786 2.493,4.939 5.279,4.809 2.786,-0.13 4.939,-2.493 4.809,-5.279 l -2.228,-47.792 -5.813,5.226 47.288,7.279 c 2.756,0.424 5.334,-1.466 5.759,-4.222 0.424,-2.757 -1.467,-5.335 -4.223,-5.759 z" fill="#ba1775" id="path11"/>
            </g>
        </g>
        <path d="M 734.585,423.782 C 713.033,304.216 687.996,44.1608 746.909,-63.1271 c 13.072,-23.8055 62.69,-35.5909 124.451,-38.0889 57.468,-2.324 128.025,10.1542 186.86,21.7108 60.83,11.9482 100.53,17.2145 128.87,45.3765 69.57,69.1215 31.63,508.0067 -140.44,556.7557 -62.499,17.706 -284.133,56.111 -312.065,-98.845 z" fill="none" opacity="1" class="stroke-pink" stroke="#ff79c6" stroke-dasharray="18.7847" stroke-linecap="round" stroke-linejoin="round" stroke-width="9.13069" id="path12"/>
    </g>
    <g clip-path="url(#ArtboardFrame_12)" id="Layer-7" vectornator:layerName="Layer 7">
        <path d="m 775.267,-67.6982 c 52.752,2.1235 140.575,-70.1138 196.372,-62.2078" fill="none" opacity="1" class="stroke-orange stroke-orange" stroke="#ffb86c" stroke-linecap="round" stroke-linejoin="round" stroke-width="9.13069" id="path13"/>
        <path d="m 854.098,-101.455 c 1.092,-7.704 10.304,-12.769 20.576,-11.314 10.272,1.456 17.714,8.881 16.622,16.585 -1.092,7.7039 -10.303,12.7693 -20.575,11.3138 -10.272,-1.4555 -17.714,-8.8806 -16.623,-16.5848 z" class="fill-background" fill-rule="nonzero" opacity="1" stroke="none" id="path14"/>
        <path d="M 961.85,-45.9438 C 906.053,-53.8499 840.853,-143.754 785.056,-151.66" fill="none" opacity="1" class="stroke-orange stroke-orange" stroke="#ffb86c" stroke-linecap="round" stroke-linejoin="round" stroke-width="9.13069" id="path15"/>
        <path d="m 961.848,-45.9274 c 55.792,7.9061 140.572,-70.1136 196.372,-62.2076" fill="none" opacity="1" class="stroke-orange stroke-orange" stroke="#ffb86c" stroke-linecap="round" stroke-linejoin="round" stroke-width="9.13069" id="path16"/>
        <path d="m 1040.68,-79.684 c 1.09,-7.7039 10.3,-12.7692 20.57,-11.3138 10.28,1.4555 17.72,8.8807 16.63,16.5846 -1.09,7.7039 -10.31,12.7692 -20.58,11.3137 -10.27,-1.4554 -17.71,-8.8806 -16.62,-16.5845 z" class="fill-background" fill-rule="nonzero" opacity="1" stroke="none" id="path17"/>
        <path d="m 1148.43,-24.173 c -55.8,-7.9061 -121,-97.81 -176.793,-105.717" fill="none" opacity="1" class="stroke-orange stroke-orange" stroke="#ffb86c" stroke-linecap="round" stroke-linejoin="round" stroke-width="9.13069" id="path18"/>
        <clipPath id="ClipPath_4">
            <path d="m 1.93339,-218.722 1828.32661,92.21 -32.13,543.775 -416.52,-21.97 c 0,0 -89.58,-5.553 -347.54,-5.798 -84.33,-0.08 -184.331,-2.203 -283.458,-3.111 -33.018,-0.302 -65.007,0.336 -96.712,0.066 -164.285,-1.401 -301.27,-3.257 -301.27,-3.257 L 161.767,393.055 7.30923,454.256 Z" id="path19"/>
        </clipPath>
        <g clip-path="url(#ClipPath_4)" id="g21">
            <path d="m 785.835,-151.701 c -110.757,-23.264 -117.24,543.48 -117.24,543.48 l 76.242,-0.662 c 0,0 -14.974,-463.5444 31.755,-458.8716" fill="none" opacity="1" class="stroke-orange stroke-orange" stroke="#ffb86c" stroke-linecap="butt" stroke-linejoin="round" stroke-width="9.13069" id="path20"/>
            <path d="m 1149.51,-23.6087 c 75.14,37.5693 -15.76,421.8537 -15.76,421.8537 l 76.42,0.108 c 14.09,-65.747 108.72,-486.3521 -49.72,-506.157" fill="none" opacity="1" class="stroke-orange stroke-orange" stroke="#ffb86c" stroke-linecap="round" stroke-linejoin="round" stroke-width="9.13069" id="path21"/>
        </g>
    </g>
    <g clip-path="url(#ArtboardFrame_12)" id="Layer-9" vectornator:layerName="Layer 9">
        <path d="m 1230.36,128.859 c -16.7,0.236 -35.24,6.016 -54.66,15.027 -4.05,24.012 -7.28,47.416 -12.44,91.869 -1.07,9.201 -1.49,12.551 -2.06,17.317 -0.28,2.379 -0.9,5.679 -1.35,8.629 35.07,-23.988 66.51,-42.838 82.07,-44.672 0.1,-1.761 0.23,-3.524 0.65,-5.694 0.17,-0.908 0.37,-1.854 0.58,-2.818 0.22,-0.978 0.71,-3 0.94,-3.933 0.23,-2.127 0.31,-4.092 0.3,-8.688 -0.01,-2.355 -0.03,-3.438 0,-4.813 0.05,-2.699 0.19,-5.022 0.47,-7.338 0.1,-0.906 0.26,-3.089 0.41,-6.34 0.12,-2.584 0.72,-19.731 0.82,-22.424 0.34,-9.24 0.67,-15.704 1,-20.839 0.08,-1.37 0.2,-2.159 0.29,-3.287 -5.45,-1.282 -11.07,-2.081 -17.02,-1.996 z m 249.19,42.911 c 0,0.1 0,0.073 0,0.235 0,0.491 -0.01,3.976 0,5.635 0.56,-0.005 1.14,-0.016 1.64,0 1.13,-2.49 0.31,-4.185 -1.64,-5.87 z" class="fill-blue" fill="#8be9fd" fill-rule="nonzero" filter="url(#Filter_2)" stroke="none" vectornator:shadowAngle="4.59123" vectornator:shadowColor="#282a36" vectornator:shadowOffset="20.9976" vectornator:shadowOpacity="0.9" vectornator:shadowRadius="24.9862" id="path22"/>
        <path d="m 1238.09,124.781 c -16.69,0.236 -35.23,6.016 -54.65,15.027 -4.06,24.011 -7.28,47.416 -12.44,91.869 -1.07,9.201 -1.5,12.551 -2.06,17.317 -0.28,2.379 -0.91,5.679 -1.35,8.629 35.06,-23.988 66.51,-42.839 82.07,-44.672 0.09,-1.761 0.23,-3.524 0.64,-5.694 0.18,-0.909 0.38,-1.854 0.59,-2.818 0.22,-0.978 0.71,-3 0.94,-3.933 0.23,-2.127 0.31,-4.093 0.29,-8.688 0,-2.355 -0.02,-3.438 0,-4.813 0.05,-2.699 0.2,-5.023 0.47,-7.338 0.11,-0.906 0.26,-3.089 0.41,-6.34 0.12,-2.584 0.72,-19.731 0.83,-22.424 0.34,-9.24 0.67,-15.704 0.99,-20.839 0.09,-1.371 0.21,-2.159 0.3,-3.288 -5.46,-1.281 -11.08,-2.08 -17.03,-1.995 z m 249.19,42.911 c 0,0.1 0,0.073 0,0.235 0,0.491 0,3.975 0,5.635 0.56,-0.005 1.14,-0.016 1.65,0 1.13,-2.491 0.31,-4.186 -1.65,-5.87 z" class="fill-blue" fill="#8be9fd" fill-rule="nonzero" filter="url(#Filter_3)" stroke="none" vectornator:shadowAngle="1.83566" vectornator:shadowColor="#282a36" vectornator:shadowOffset="20.9976" vectornator:shadowOpacity="0.9" vectornator:shadowRadius="24.9862" id="path23"/>
        <path d="m 1616.62,259.637 c -55.79,-7.906 -120.99,-97.81 -176.79,-105.717 v -0.016 c -55.79,-7.906 -102.46,57.128 -196.37,62.777 -42.04,2.528 -213.31,142.021 -248.183,170.765 -4.011,3.305 -6.218,5.146 -6.218,5.146 l -86.512,-0.947 c 0,0 237.603,-297.0647 350.303,-259.495 67.64,22.546 0.4,0 0.4,0 46.22,6.549 98.89,69.363 147.33,95.227 10.03,5.359 19.89,9.132 29.46,10.489 v 0.017 c 55.8,7.906 121.97,-71.486 197.11,-62.094 158.44,19.805 93.14,172.607 79.05,238.353 l -73.09,-5.511 c 0,0 59.66,-110.895 -15.47,-148.464" class="fill-blue" fill="#8be9fd" fill-rule="nonzero" opacity="1" stroke="none" id="path24"/>
        <clipPath id="ClipPath_5">
            <path d="m 1348.85,200.952 c 0,-50.222 39.43,-90.935 88.07,-90.935 48.64,0 88.07,40.713 88.07,90.935 0,50.222 -39.43,90.934 -88.07,90.934 -48.64,0 -88.07,-40.712 -88.07,-90.934 z" id="path25"/>
        </clipPath>
        <g clip-path="url(#ClipPath_5)" id="g26">
            <path d="m 1616.62,259.637 c -55.79,-7.906 -120.99,-97.81 -176.79,-105.717 v -0.016 c -78.9,-6.91 -106.56,61.739 -196.37,62.777 -46.96,0.542 0,187.846 0,187.846 h -75.14 c 0,0 -28.17,-309.9467 84.53,-272.377 67.64,22.546 0.4,0 0.4,0 46.22,6.549 98.89,69.363 147.33,95.227 10.03,5.359 19.89,9.132 29.46,10.489 v 0.017 c 55.8,7.906 121.97,-71.486 197.11,-62.094 158.44,19.805 96.57,170.049 82.48,235.795 l -76.22,-2.539 c 0,0 59.36,-111.309 -15.77,-148.878" class="fill-red" fill="#ff5555" fill-rule="nonzero" opacity="1" stroke="none" id="path26"/>
        </g>
    </g>
    <g clip-path="url(#ArtboardFrame_12)" id="Layer-3" vectornator:layerName="Layer 3">
        <clipPath id="ClipPath_6">
            <path d="M -0.0974958,-126.495 7.29896,454.244 214.635,404.23 l 8.159,0.117 90.577,-6.516 8.982,0.235 221.541,-6.574 4.696,-0.646 0.177,3.17 75.843,-0.881 -0.235,-1.702 c 85.809,-0.683 178.645,-1.53 267.035,-2.172 -0.047,-5.243 -0.227,-9.843 0,-16.848 0.151,-4.619 0.438,-8.188 1.116,-16.201 0.019,-0.226 0.344,-4.689 0.469,-6.34 0.166,-2.189 0.831,-6.307 1.585,-9.392 0.697,-2.853 1.446,-5.11 2.818,-7.221 4.363,-6.712 13.932,-8.704 20.135,-1.467 0.433,0.505 0.774,1.109 1.174,1.643 0.065,-0.561 0.045,-0.625 0.117,-1.232 0.111,-0.945 0.254,-2.186 0.294,-2.525 0.198,-1.694 0.82,-5.859 0.821,-5.87 0.385,-2.563 0.495,-3.736 0.646,-5.048 10e-4,-0.659 -0.001,-2.271 0,-2.348 -0.03,-0.169 -0.001,-0.206 0.352,-2.524 0.204,-0.865 0.215,-0.846 1.351,-3.229 l 0.528,-0.763 1.233,-1.526 3.346,-2.231 5.4,-0.998 4.931,1.468 1.761,1.232 h 17.67 c 0.053,-2.822 0.108,-6.086 0.117,-6.927 0.032,-2.882 0.092,-5.185 0.293,-10.214 0.041,-1.016 0.429,-9.928 0.47,-10.684 0.015,-0.264 0.028,-0.919 0.059,-1.232 0.009,-0.337 0.01,-0.299 0.528,-2.407 0.318,-1.21 0.349,-1.252 3.405,-5.107 l 0.763,-0.587 0.939,-0.646 1.116,-0.587 1.35,-0.469 1.526,-0.353 1.702,-0.176 1.644,0.118 1.585,0.352 1.467,0.469 1.233,0.646 0.998,0.646 0.47,0.352 c 0.956,0.883 1.128,1.168 1.467,1.585 0.169,-1.255 0.232,-2.738 0.411,-3.992 0.107,-0.746 0.995,-7.816 1.057,-8.277 0.146,-1.088 0.173,-1.21 0.293,-1.761 0.018,-0.36 0.059,-0.389 1.292,-3.287 0.489,-0.831 0.435,-0.846 1.878,-2.524 l 0.998,-0.822 1.35,-0.939 1.879,-0.822 2.407,-0.587 h 2.817 l 2.701,0.646 2.23,1.115 1.644,1.291 1.054,1.233 0.77,0.998 0.17,0.294 c 0.38,-1.579 0.41,-2.036 0.88,-3.992 0.15,-0.6 0.33,-1.26 0.41,-1.585 0.02,-0.197 0.06,-1.155 0.06,-1.233 0.15,-2.442 0.32,-3.73 0.88,-5.635 1.14,-3.851 3.55,-7.177 7.52,-9.158 1.64,-0.824 3.39,-1.404 5.57,-1.409 2.64,-0.005 5.01,1.183 7.11,2.818 0.98,-3.37 1.7,-6.709 2.81,-10.097 0.06,-0.181 0.35,-1.725 0.36,-1.761 0.35,-2.012 0.57,-2.995 0.99,-4.402 0.73,-2.375 1.76,-4.525 3.35,-6.516 2.25,-2.812 5.2,-4.825 10.04,-4.52 3.01,0.189 5.17,1.259 6.87,2.759 1.58,-0.876 3.34,-1.5 5.57,-1.468 1.13,0.016 2.05,0.459 3.06,0.763 0.42,-1.36 0.37,-1.767 0.88,-3.346 0.28,-0.876 3.17,-8.956 3.52,-9.921 0.17,-0.476 0.71,-1.903 0.82,-2.171 0.09,-0.206 0.08,-0.221 0.35,-0.764 0.22,-0.422 0.25,-0.437 1.35,-1.995 l 1.29,-1.351 7.93,-2.817 3.23,1.702 c 0.52,-1.632 0.93,-2.857 1.52,-4.696 0,-0.001 0,-0.103 0,-0.118 0.03,-0.212 0.18,-1.612 0.18,-1.643 0.3,-3.106 0.46,-4.324 1.11,-6.281 2.42,-7.193 10.37,-12.08 18.61,-6.927 0.62,0.386 0.8,0.878 1.29,1.291 0.26,-0.571 0.41,-1.138 0.89,-1.819 1.26,-1.864 1.23,-1.866 6.1,-4.462 3.73,-0.7 3.74,-0.687 7.63,0.352 0.52,0.28 0.4,0.386 0.76,0.587 1.46,-5.283 5.47,-9.353 11.51,-10.038 0.41,-1.768 0.68,-3.66 1.12,-5.4 0.07,-0.281 0.05,-0.279 0.17,-0.705 0,-0.385 0.05,-0.398 2.17,-4.05 2.08,-2.916 2.69,-3.06 11.92,-3.522 1.83,-2.622 4.6,-4.431 7.75,-4.872 1.48,-0.208 3.04,-0.116 4.58,0.293 0.01,0.005 0.04,-0.005 0.06,0 0.55,-3.293 0.97,-6.695 1.58,-10.038 1.14,-6.249 7.14,-10.411 13.39,-9.275 6.24,1.136 10.41,7.135 9.27,13.384 -5.27,28.962 -8.4,52.555 -14.44,104.607 -1.07,9.201 -1.49,12.551 -2.06,17.317 -0.64,5.455 -1.76,13.095 -3.11,19.783 -0.98,4.876 -2,9.03 -3.17,12.327 -0.79,2.247 -1.69,4.121 -2.76,5.812 -2.12,3.382 -4.91,5.935 -9.39,6.751 -2.85,0.519 -5.4,0.005 -7.69,-0.998 0.06,3.464 -0.85,6.891 -3.34,9.803 -3.56,4.144 -9.38,5.232 -14.27,2.818 -1.09,2.275 -2.48,4.475 -4.52,6.515 -3.32,3.327 -8.17,4.824 -13.09,3.17 -0.95,-0.319 -1.63,-0.832 -2.41,-1.291 -0.18,2.844 -0.3,5.641 -0.99,8.042 -1.61,5.557 -4.86,10.09 -10.16,12.738 -0.65,0.324 -1.24,0.248 -1.88,0.47 -1.47,6 -3.19,10.933 -6.1,14.206 -4.8,5.396 -12.37,6 -17.91,1.761 -0.02,-0.017 -0.03,-0.041 -0.06,-0.059 -0.28,1.063 -0.44,2.238 -0.76,3.288 -0.01,0.058 -0.1,0.6 -0.12,0.704 -0.09,0.693 -0.11,1.173 -0.23,1.761 -0.2,1.017 -0.48,1.983 -0.88,2.994 -1.49,3.722 -4.45,6.778 -8.87,7.983 -0.06,0.017 -0.11,-0.015 -0.17,0 -0.14,4.314 -0.44,7.711 -1.41,10.978 -0.64,2.165 -1.79,4.001 -2.94,5.811 247.66,0.076 339.48,-4.285 339.48,-4.285 l 413.67,33.108 23.01,-389.4294 9.16,-154.3276 z" id="path27"/>
        </clipPath>
        <g clip-path="url(#ClipPath_6)" id="g30">
            <path d="m 289.538,91.8765 c -15.41,11.9995 -29.128,26.4385 -40.387,43.7325 -9.869,15.16 -17.217,32.664 -22.952,51.13 7.14,-0.128 14.476,-0.297 19.195,-0.117 6.683,0.254 11.844,0.89 17.846,1.995 12.142,2.236 23.686,6.501 36.63,13.678 1.01,0.56 2.236,1.034 5.107,2.055 0.344,0.122 0.35,0.167 0.704,0.293 7.725,2.753 12.409,5.32 16.143,9.921 2.047,-7.389 4.454,-14.253 7.456,-19.9 9.095,-17.11 32.178,-32.914 58.467,-42.618 -1.817,-3.935 -2.347,-4.841 -4.52,-9.568 -0.745,-1.621 -0.782,-1.609 -1.526,-3.229 -7.054,-15.339 -11.874,-25.461 -16.731,-35.573 -11.9,-2.229 -25.457,-3.6981 -40.269,-4.4031 -5.727,-0.2726 -9.826,-1.2996 -18.374,-3.9917 -1.05,-0.3306 -1.459,-0.4791 -1.996,-0.6457 -3.696,-1.1474 -6.029,-1.7215 -8.218,-2.0546 -1.485,-0.2259 -3.235,-0.4371 -6.516,-0.7044 -0.013,0.0098 -0.046,-0.0098 -0.059,0 z" class="fill-blue" fill="#8be9fd" fill-rule="nonzero" filter="url(#Filter_4)" stroke="none" vectornator:shadowAngle="3.24648" vectornator:shadowColor="#282a36" vectornator:shadowOffset="20.9976" vectornator:shadowOpacity="0.79054" vectornator:shadowRadius="23.3779" id="path28"/>
            <path d="m 289.538,91.8765 c -15.41,11.9995 -29.128,26.4385 -40.387,43.7325 -9.869,15.16 -17.217,32.664 -22.952,51.13 7.14,-0.128 14.476,-0.297 19.195,-0.117 6.683,0.254 11.844,0.89 17.846,1.995 12.142,2.236 23.686,6.501 36.63,13.678 1.01,0.56 2.236,1.034 5.107,2.055 0.344,0.122 0.35,0.167 0.704,0.293 7.725,2.753 12.409,5.32 16.143,9.921 2.047,-7.389 4.454,-14.253 7.456,-19.9 9.095,-17.11 32.178,-32.914 58.467,-42.618 -1.817,-3.935 -2.347,-4.841 -4.52,-9.568 -0.745,-1.621 -0.782,-1.609 -1.526,-3.229 -7.054,-15.339 -11.874,-25.461 -16.731,-35.573 -11.9,-2.229 -25.457,-3.6981 -40.269,-4.4031 -5.727,-0.2726 -9.826,-1.2996 -18.374,-3.9917 -1.05,-0.3306 -1.459,-0.4791 -1.996,-0.6457 -3.696,-1.1474 -6.029,-1.7215 -8.218,-2.0546 -1.485,-0.2259 -3.235,-0.4371 -6.516,-0.7044 -0.013,0.0098 -0.046,-0.0098 -0.059,0 z" class="fill-blue" fill="#8be9fd" fill-rule="nonzero" filter="url(#Filter_5)" stroke="none" vectornator:shadowAngle="0.897928" vectornator:shadowColor="#282a36" vectornator:shadowOffset="13.9212" vectornator:shadowOpacity="0.79054" vectornator:shadowRadius="23.0562" id="path29"/>
            <path d="m 496.694,49.1895 c -29.508,-7.4175 -60.912,-8.6866 -92.26,-3.937 -61.552,9.3266 -120.079,36.3096 -155.274,90.3715 -61.422,94.348 -33.362,274.009 -33.362,274.009 l 104.143,-7.135 c 0,0 -20.174,-152.316 9.331,-207.82 12.645,-23.788 52.231,-45.21 90.056,-50.941 38.061,-5.767 73.016,2.053 92.374,21.891 41.056,42.073 31.701,235.418 31.701,235.418 l 84.357,-0.324 c 0,0 23.087,-235.992 -50.527,-310.1741 C 555.489,68.6361 526.186,56.6027 496.694,49.1895 Z" class="fill-blue stroke-orange stroke-orange" fill="#8be9fd" fill-rule="nonzero" opacity="1" stroke="#ffb86c" stroke-linecap="butt" stroke-linejoin="round" stroke-width="9.13069" id="path30"/>
        </g>
    </g>
    <g clip-path="url(#ArtboardFrame_12)" id="Layer-10" vectornator:layerName="Layer 10">
        <g opacity="1" id="g33">
            <path d="m 284.838,464.996 c 12.481,16.488 39.717,49.488 64.025,58.603 55.223,20.709 138.714,11.509 184.61,-17.697 38.004,-24.185 49.835,-60.38 59.118,-111.492 17.683,-97.37 -2.502,-227.415 -69.517,-281.027 -61.475,-49.1799 -152.597,-21.5344 -207.48,32.032 -29.906,29.189 -41.4,70.284 -49.113,101.137 -12.639,50.556 -12.581,96.286 -8.662,147.243 1.746,22.697 20.088,61.681 20.088,61.681" fill="none" class="stroke-pink" stroke="#ff79c6" stroke-dasharray="37.5693" stroke-linecap="round" stroke-linejoin="round" stroke-width="9.12934" id="path31"/>
            <g class="fill-pink" fill="#ff79c6" stroke="none" id="g32">
                <path d="m 325.15,467.833 -41.843,-10.943 -5.398,-1.412 -0.315,5.57 -2.441,43.182 c -0.142,2.517 1.783,4.673 4.3,4.815 2.517,0.143 4.673,-1.783 4.815,-4.299 l 2.441,-43.182 -5.712,4.158 41.843,10.944 c 2.439,0.637 4.933,-0.823 5.571,-3.262 0.638,-2.439 -0.822,-4.933 -3.261,-5.571 z" class="fill-pink" fill="#ff79c6" id="path32"/>
            </g>
        </g>
        <path d="m 980.107,346.053 c 48.693,-46.064 92.203,-93.946 152.363,-126.069 40.37,-21.549 122.04,-30.394 207.02,-35.071 61.76,-3.4 129.49,14.488 186.53,23.029 92.06,13.787 173.55,29.936 166.59,91.619 -22.3,197.456 -73.52,258.163 -187.32,289.167 C 1355.72,629.48 1117.25,556.425 1078.6,550.501 862.176,517.327 965.285,360.074 980.107,346.053 Z" fill="none" opacity="1" class="stroke-pink" stroke="#ff79c6" stroke-dasharray="37.5693" stroke-linecap="round" stroke-linejoin="round" stroke-width="9.13069" id="path33"/>
    </g>
    <g clip-path="url(#ArtboardFrame_12)" id="Layer-6" vectornator:layerName="Layer 6">
        <path d="m 1243.46,216.112 c 55.8,7.906 140.58,-70.114 196.37,-62.208" fill="none" opacity="1" class="stroke-orange stroke-orange" stroke="#ffb86c" stroke-linecap="round" stroke-linejoin="round" stroke-width="9.13069" id="path34"/>
        <path d="m 1322.29,182.355 c 1.09,-7.704 10.31,-12.769 20.58,-11.314 10.27,1.456 17.71,8.881 16.62,16.585 -1.09,7.704 -10.3,12.769 -20.57,11.314 -10.28,-1.456 -17.72,-8.881 -16.63,-16.585 z" class="fill-background" fill-rule="nonzero" opacity="1" stroke="none" id="path35"/>
        <path d="M 1430.04,237.866 C 1374.25,229.96 1309.05,140.056 1253.25,132.15" fill="none" opacity="1" class="stroke-orange stroke-orange" stroke="#ffb86c" stroke-linecap="round" stroke-linejoin="round" stroke-width="9.13069" id="path36"/>
        <path d="m 1430.04,237.883 c 55.8,7.906 140.58,-70.114 196.37,-62.208" fill="none" opacity="1" class="stroke-orange stroke-orange" stroke="#ffb86c" stroke-linecap="round" stroke-linejoin="round" stroke-width="9.13069" id="path37"/>
        <path d="m 1508.87,204.126 c 1.1,-7.704 10.31,-12.769 20.58,-11.314 10.27,1.456 17.71,8.881 16.62,16.585 -1.09,7.704 -10.3,12.769 -20.57,11.314 -10.28,-1.456 -17.72,-8.881 -16.63,-16.585 z" class="fill-background" fill-rule="nonzero" opacity="1" stroke="none" id="path38"/>
        <path d="m 1616.62,259.637 c -55.79,-7.906 -120.99,-97.81 -176.79,-105.717" fill="none" opacity="1" class="stroke-orange stroke-orange" stroke="#ffb86c" stroke-linecap="round" stroke-linejoin="round" stroke-width="9.13069" id="path39"/>
        <clipPath id="ClipPath_7">
            <path d="M -0.0932005,-126.512 H 1830.26 l -32.13,543.775 -413.65,-33.089 c 0,0 -96.04,3.331 -354.01,3.086 -257.957,-0.246 -677.84,-4.067 -677.84,-4.067 L 161.767,393.055 7.30923,454.256 Z" id="path40"/>
        </clipPath>
        <g clip-path="url(#ClipPath_7)" id="g42">
            <path d="M 1252.85,132.15 C 1140.15,94.5803 902.008,391.535 902.008,391.535 l 85.698,0.967 c 0,0 209.024,-180.494 255.754,-175.821" fill="none" opacity="1" class="stroke-orange stroke-orange" stroke="#ffb86c" stroke-linecap="butt" stroke-linejoin="round" stroke-width="9.13069" id="path41"/>
            <path d="m 1617.64,260.167 c 75.13,37.569 6.28,160.341 6.28,160.341 l 83.47,1.286 c 14.09,-65.746 78.2,-226.2 -80.24,-246.005" fill="none" opacity="1" class="stroke-orange stroke-orange" stroke="#ffb86c" stroke-linecap="round" stroke-linejoin="round" stroke-width="9.13069" id="path42"/>
        </g>
    </g>
</svg>
