<?xml version="1.0" encoding="UTF-8" standalone="no"?>
<!DOCTYPE svg PUBLIC "-//W3C//DTD SVG 1.1//EN" "http://www.w3.org/Graphics/SVG/1.1/DTD/svg11.dtd">
<!-- Created with Vectornator (http://vectornator.io/) -->
<svg stroke-miterlimit="10" style="fill-rule:nonzero;clip-rule:evenodd;stroke-linecap:round;stroke-linejoin:round;"
    version="1.1" viewBox="0 0 580 565" xml:space="preserve" xmlns="http://www.w3.org/2000/svg"
    xmlns:vectornator="http://vectornator.io" xmlns:xlink="http://www.w3.org/1999/xlink">
    <defs>
        <filter color-interpolation-filters="sRGB" filterUnits="userSpaceOnUse" height="452.736" id="Filter"
            width="398.09" x="58.391" y="105.428">
            <feDropShadow dx="5.63258" dy="12.7309" flood-color="#282a36" flood-opacity="0.79054" in="SourceGraphic"
                result="Shadow" stdDeviation="1.19863" />
        </filter>
        <filter color-interpolation-filters="sRGB" filterUnits="userSpaceOnUse" height="195.314" id="Filter_2"
            width="384.316" x="1126.08" y="76.7762">
            <feDropShadow dx="-2.53775" dy="-20.8437" flood-color="#282a36" flood-opacity="0.9" in="SourceGraphic"
                result="Shadow" stdDeviation="12.4931" />
        </filter>
        <filter color-interpolation-filters="sRGB" filterUnits="userSpaceOnUse" height="195.314" id="Filter_3"
            width="384.316" x="1130.86" y="113.807">
            <feDropShadow dx="-5.49679" dy="20.2654" flood-color="#282a36" flood-opacity="0.9" in="SourceGraphic"
                result="Shadow" stdDeviation="12.4931" />
        </filter>
        <filter color-interpolation-filters="sRGB" filterUnits="userSpaceOnUse" height="181.135" id="Filter_4"
            width="219.993" x="176.094" y="60.453">
            <feDropShadow dx="-20.8822" dy="-2.19832" flood-color="#282a36" flood-opacity="0.79054" in="SourceGraphic"
                result="Shadow" stdDeviation="11.6889" />
        </filter>
        <filter color-interpolation-filters="sRGB" filterUnits="userSpaceOnUse" height="180.331" id="Filter_5"
            width="219.189" x="206.055" y="73.9403">
            <feDropShadow dx="8.67615" dy="10.8869" flood-color="#282a36" flood-opacity="0.79054" in="SourceGraphic"
                result="Shadow" stdDeviation="11.5281" />
        </filter>
    </defs>
    <clipPath id="ArtboardFrame_12">
        <rect height="565" width="580" x="0" y="0" />
    </clipPath>
    <g clip-path="url(#ArtboardFrame_12)" id="Layer-2" vectornator:layerName="Layer 2">
        <clipPath id="ClipPath">
            <path
                d="M-17.84 627.147C-35.638 516.46 63.2216 418.636 63.2216 418.636L78.7858 448.447L149.458 417.915L139.456 391.439L215.963 374.19L219.803 404.343L314.692 397.653L309.731 357.65C309.731 357.65 352.282 354.559 366.931 353.943C369.913 353.817 377.6 394.954 377.6 394.954L462.183 392.856C462.183 392.856 455.082 350.453 459.572 350.299C486.989 349.361 549.089 341.949 549.089 341.949L548.648 393.91L623.981 392.879L626.941 340.265C626.941 340.265 656.237 338.607 668.189 338.47C674.45 338.398 673.273 391.322 673.273 391.322L740.501 391.499C740.501 391.499 738.064 321.988 745.48 321.889C791.822 321.268 978.831 304.782 978.831 304.782L907.881 391.771L979.565 392.403L1070.91 324.304C1070.91 324.304 1110.59 324.912 1146.96 328.401C1153.69 329.048 1139.55 394.261 1139.55 394.261L1205.45 395.512L1225.21 327.284L1648.76 359.158L1636.8 408.84L1704.02 414.016C1704.02 414.016 1721.54 363.292 1722.41 363.58C1905.98 424.451 1885.33 524.876 1885.33 627.147C1885.33 729.856 1918 800.515 1733.08 861.384C1674.99 880.502 278.866 908.323 134.413 861.384C-52.8688 800.527-0.0420666 737.834-17.84 627.147Z" />
        </clipPath>
        <g clip-path="url(#ClipPath)">
            <path
                d="M-2.31453 641.841C-2.31453 542.665-22.7573 468.59 159.014 410.018C300.489 364.43 1664.13 391.37 1721.23 410.018C1900.62 468.596 1870.02 537.013 1870.02 635.433C1870.02 734.274 1901.95 802.273 1721.23 860.849C1664.47 879.248 300.174 906.021 159.014 860.849C-23.999 802.284-2.31453 741.409-2.31453 641.841Z"
                class="fill-blue stroke-orange stroke-orange" fill="#8be9fd" fill-rule="nonzero" opacity="1"
                stroke="#ffb86c" stroke-linecap="round" stroke-linejoin="round" stroke-width="9.13069" />
        </g>
    </g>
    <g clip-path="url(#ArtboardFrame_12)" id="Layer-4" vectornator:layerName="Layer 4">
        <clipPath id="ClipPath_2">
            <path
                d="M4.02661-126.512L1830.26-126.512L1798.2 424.196L1385.48 390.685C1385.48 390.685 1292.51 395.334 1035.13 395.085C858.062 394.914 461.765 387.884 461.765 387.884L462.416 393.12C462.416 393.12 365.133 395.45 365.133 395.45L157.067 403.269L149.813 417.959L78.4637 448.805L11.4124 461.661L4.02661-126.512Z" />
        </clipPath>
        <g clip-path="url(#ClipPath_2)">
            <path
                d="M260.669 90.4089C230.243 90.466 199.489 96.949 170.268 109.252C112.892 133.411 62.7848 173.942 41.9456 234.992C5.57734 341.536 77.6944 455.127 77.6944 455.127L155.937 421.301C155.937 421.301 119.139 333.611 134.108 272.561C140.523 246.396 173.635 215.908 208.894 201.062C244.373 186.124 280.178 185.119 303.815 199.595C353.947 230.296 374.135 409.625 374.135 409.625L468.443 405.189C468.443 405.189 438.478 164.55 348.899 110.72C322.439 94.8197 291.078 90.3518 260.669 90.4089Z"
                class="fill-blue stroke-orange stroke-orange" fill="#8be9fd" fill-rule="nonzero" opacity="1"
                stroke="#ffb86c" stroke-linecap="butt" stroke-linejoin="round" stroke-width="9.13069" />
        </g>
    </g>
    <g clip-path="url(#ArtboardFrame_12)" id="Layer-8" vectornator:layerName="Layer 8">
        <path
            d="M1148.43-24.173C1092.63-32.0791 1027.43-121.983 971.637-129.89L971.639-129.906C915.842-137.812 869.173-72.7775 775.267-67.1294C733.368-64.6093 742.641 295.863 745.082 372.386C745.372 381.477 744.188 391.459 744.188 391.459L673.331 391.808C673.331 391.808 671.951-189.23 784.659-151.66C852.299-129.114 785.056-151.66 785.056-151.66C831.276-145.111 883.948-82.2966 932.383-56.4326C942.419-51.0735 952.273-47.3008 961.85-45.9438L961.848-45.9274C1017.64-38.0213 1083.82-117.413 1158.95-108.021C1317.39-88.2162 1222.9 329.769 1208.81 395.516L1136.99 394.244C1136.99 394.244 1224.58 13.9264 1149.44-23.6429"
            class="fill-blue" fill="#8be9fd" fill-rule="nonzero" opacity="1" stroke="none" />
        <clipPath id="ClipPath_3">
            <path
                d="M880.655-82.8583C880.655-133.08 920.085-173.793 968.725-173.793C1017.36-173.793 1056.79-133.08 1056.79-82.8583C1056.79-32.6364 1017.36 8.07649 968.725 8.07649C920.085 8.07649 880.655-32.6364 880.655-82.8583Z" />
        </clipPath>
        <g clip-path="url(#ClipPath_3)">
            <path
                d="M1148.43-24.173C1092.63-32.0791 1027.43-121.983 971.637-129.89L971.639-129.906C892.739-136.816 865.074-68.1668 775.267-67.1294C728.308-66.587 775.267 120.717 775.267 120.717L700.128 120.717C700.128 120.717 671.951-189.23 784.659-151.66C852.299-129.114 785.056-151.66 785.056-151.66C831.276-145.111 883.948-82.2966 932.383-56.4326C942.419-51.0735 952.273-47.3008 961.85-45.9438L961.848-45.9274C1017.64-38.0213 1083.82-117.413 1158.95-108.021C1317.39-88.2162 1255.52 62.0282 1241.43 127.774L1165.22 125.235C1165.22 125.235 1224.58 13.9264 1149.44-23.6429"
                class="fill-red" fill="#ff5555" fill-rule="nonzero" opacity="1" stroke="none" />
        </g>
    </g>
    <g clip-path="url(#ArtboardFrame_12)" id="Layer-5" vectornator:layerName="Layer 5">
        <g opacity="1">
            <path
                d="M144.976 474.01C156.428 484.884 180.982 502.399 222.508 505.529C283.544 510.131 332.918 513.861 381.244 483.657C492.549 414.092 370.507 108.496 230.753 131.789C140.522 146.827 73.487 212.095 82.4265 310.43C87.3816 364.936 137.101 465.252 137.101 465.252"
                fill="none" class="stroke-pink" stroke="#ff79c6" stroke-dasharray="18.784650629681856"
                stroke-linecap="round" stroke-linejoin="round" stroke-width="9.13069" />
            <g class="fill-pink" fill="#ff79c6" stroke="none">
                <path
                    d="M185.372 472.684L142.618 466.103L137.103 465.254L137.363 470.828L139.378 514.038C139.495 516.556 141.632 518.503 144.151 518.386C146.67 518.268 148.616 516.131 148.499 513.612L146.484 470.402L141.229 475.127L183.982 481.709C186.474 482.092 188.806 480.383 189.189 477.891C189.573 475.399 187.864 473.068 185.372 472.684Z"
                    class="fill-pink" fill="#ff79c6" />
            </g>
        </g>
        <g filter="url(#Filter)" vectornator:shadowAngle="1.15425" vectornator:shadowColor="#282a36"
            vectornator:shadowOffset="13.9212" vectornator:shadowOpacity="0.79054" vectornator:shadowRadius="2.39726">
            <path
                d="M133.508 490.387C146.174 502.415 173.332 521.786 219.262 525.249C286.77 530.338 341.38 534.464 394.831 501.057C517.938 424.115 382.954 86.1129 228.38 111.875C128.582 128.508 54.4378 200.698 64.3253 309.46C69.8058 369.746 124.798 480.7 124.798 480.7"
                fill="none" stroke="#ba1775" stroke-linecap="round" stroke-linejoin="round" stroke-width="10.0989" />
            <g fill="#ba1775" stroke="none">
                <path
                    d="M178.187 488.921L130.9 481.641L124.8 480.702L125.088 486.867L127.316 534.659C127.446 537.445 129.809 539.598 132.595 539.468C135.381 539.338 137.534 536.975 137.404 534.189L135.176 486.397L129.363 491.623L176.651 498.902C179.407 499.326 181.985 497.436 182.41 494.68C182.834 491.923 180.943 489.345 178.187 488.921Z"
                    fill="#ba1775" />
            </g>
        </g>
        <path
            d="M734.585 423.782C713.033 304.216 687.996 44.1608 746.909-63.1271C759.981-86.9326 809.599-98.718 871.36-101.216C928.828-103.54 999.385-91.0618 1058.22-79.5052C1119.05-67.557 1158.75-62.2907 1187.09-34.1287C1256.66 34.9928 1218.72 473.878 1046.65 522.627C984.151 540.333 762.517 578.738 734.585 423.782Z"
            fill="none" opacity="1" class="stroke-pink" stroke="#ff79c6" stroke-dasharray="18.784650629681856"
            stroke-linecap="round" stroke-linejoin="round" stroke-width="9.13069" />
    </g>
    <g clip-path="url(#ArtboardFrame_12)" id="Layer-7" vectornator:layerName="Layer 7">
        <path d="M775.267-67.6982C828.019-65.5747 915.842-137.812 971.639-129.906" fill="none" opacity="1"
            class="stroke-orange stroke-orange" stroke="#ffb86c" stroke-linecap="round" stroke-linejoin="round"
            stroke-width="9.13069" />
        <path
            d="M854.098-101.455C855.19-109.159 864.402-114.224 874.674-112.769C884.946-111.313 892.388-103.888 891.296-96.184C890.204-88.4801 880.993-83.4147 870.721-84.8702C860.449-86.3257 853.007-93.7508 854.098-101.455Z"
            class="fill-background" fill-rule="nonzero" opacity="1" stroke="none" />
        <path d="M961.85-45.9438C906.053-53.8499 840.853-143.754 785.056-151.66" fill="none" opacity="1"
            class="stroke-orange stroke-orange" stroke="#ffb86c" stroke-linecap="round" stroke-linejoin="round"
            stroke-width="9.13069" />
        <path d="M961.848-45.9274C1017.64-38.0213 1102.42-116.041 1158.22-108.135" fill="none" opacity="1"
            class="stroke-orange stroke-orange" stroke="#ffb86c" stroke-linecap="round" stroke-linejoin="round"
            stroke-width="9.13069" />
        <path
            d="M1040.68-79.684C1041.77-87.3879 1050.98-92.4532 1061.25-90.9978C1071.53-89.5423 1078.97-82.1171 1077.88-74.4132C1076.79-66.7093 1067.57-61.644 1057.3-63.0995C1047.03-64.5549 1039.59-71.9801 1040.68-79.684Z"
            class="fill-background" fill-rule="nonzero" opacity="1" stroke="none" />
        <path d="M1148.43-24.173C1092.63-32.0791 1027.43-121.983 971.637-129.89" fill="none" opacity="1"
            class="stroke-orange stroke-orange" stroke="#ffb86c" stroke-linecap="round" stroke-linejoin="round"
            stroke-width="9.13069" />
        <clipPath id="ClipPath_4">
            <path
                d="M1.93339-218.722L1830.26-126.512L1798.13 417.263L1381.61 395.293C1381.61 395.293 1292.03 389.74 1034.07 389.495C949.74 389.415 849.739 387.292 750.612 386.384C717.594 386.082 685.605 386.72 653.9 386.45C489.615 385.049 352.63 383.193 352.63 383.193L161.767 393.055L7.30923 454.256L1.93339-218.722Z" />
        </clipPath>
        <g clip-path="url(#ClipPath_4)">
            <path
                d="M785.835-151.701C675.078-174.965 668.595 391.779 668.595 391.779L744.837 391.117C744.837 391.117 729.863-72.4274 776.592-67.7546"
                fill="none" opacity="1" class="stroke-orange stroke-orange" stroke="#ffb86c" stroke-linecap="butt"
                stroke-linejoin="round" stroke-width="9.13069" />
            <path
                d="M1149.51-23.6087C1224.65 13.9606 1133.75 398.245 1133.75 398.245L1210.17 398.353C1224.26 332.606 1318.89-87.9991 1160.45-107.804"
                fill="none" opacity="1" class="stroke-orange stroke-orange" stroke="#ffb86c" stroke-linecap="round"
                stroke-linejoin="round" stroke-width="9.13069" />
        </g>
    </g>
    <g clip-path="url(#ArtboardFrame_12)" id="Layer-9" vectornator:layerName="Layer 9">
        <path
            d="M1230.36 128.859C1213.66 129.095 1195.12 134.875 1175.7 143.886C1171.65 167.898 1168.42 191.302 1163.26 235.755C1162.19 244.956 1161.77 248.306 1161.2 253.072C1160.92 255.451 1160.3 258.751 1159.85 261.701C1194.92 237.713 1226.36 218.863 1241.92 217.029C1242.02 215.268 1242.15 213.505 1242.57 211.335C1242.74 210.427 1242.94 209.481 1243.15 208.517C1243.37 207.539 1243.86 205.517 1244.09 204.584C1244.32 202.457 1244.4 200.492 1244.39 195.896C1244.38 193.541 1244.36 192.458 1244.39 191.083C1244.44 188.384 1244.58 186.061 1244.86 183.745C1244.96 182.839 1245.12 180.656 1245.27 177.405C1245.39 174.821 1245.99 157.674 1246.09 154.981C1246.43 145.741 1246.76 139.277 1247.09 134.142C1247.17 132.772 1247.29 131.983 1247.38 130.855C1241.93 129.573 1236.31 128.774 1230.36 128.859ZM1479.55 171.77C1479.55 171.87 1479.55 171.843 1479.55 172.005C1479.55 172.496 1479.54 175.981 1479.55 177.64C1480.11 177.635 1480.69 177.624 1481.19 177.64C1482.32 175.15 1481.5 173.455 1479.55 171.77Z"
            class="fill-blue" fill="#8be9fd" fill-rule="nonzero" filter="url(#Filter_2)" stroke="none"
            vectornator:shadowAngle="4.59123" vectornator:shadowColor="#282a36" vectornator:shadowOffset="20.9976"
            vectornator:shadowOpacity="0.9" vectornator:shadowRadius="24.9862" />
        <path
            d="M1238.09 124.781C1221.4 125.017 1202.86 130.797 1183.44 139.808C1179.38 163.819 1176.16 187.224 1171 231.677C1169.93 240.878 1169.5 244.228 1168.94 248.994C1168.66 251.373 1168.03 254.673 1167.59 257.623C1202.65 233.635 1234.1 214.784 1249.66 212.951C1249.75 211.19 1249.89 209.427 1250.3 207.257C1250.48 206.348 1250.68 205.403 1250.89 204.439C1251.11 203.461 1251.6 201.439 1251.83 200.506C1252.06 198.379 1252.14 196.413 1252.12 191.818C1252.12 189.463 1252.1 188.38 1252.12 187.005C1252.17 184.306 1252.32 181.982 1252.59 179.667C1252.7 178.761 1252.85 176.578 1253 173.327C1253.12 170.743 1253.72 153.596 1253.83 150.903C1254.17 141.663 1254.5 135.199 1254.82 130.064C1254.91 128.693 1255.03 127.905 1255.12 126.776C1249.66 125.495 1244.04 124.696 1238.09 124.781ZM1487.28 167.692C1487.28 167.792 1487.28 167.765 1487.28 167.927C1487.28 168.418 1487.28 171.902 1487.28 173.562C1487.84 173.557 1488.42 173.546 1488.93 173.562C1490.06 171.071 1489.24 169.376 1487.28 167.692Z"
            class="fill-blue" fill="#8be9fd" fill-rule="nonzero" filter="url(#Filter_3)" stroke="none"
            vectornator:shadowAngle="1.83566" vectornator:shadowColor="#282a36" vectornator:shadowOffset="20.9976"
            vectornator:shadowOpacity="0.9" vectornator:shadowRadius="24.9862" />
        <path
            d="M1616.62 259.637C1560.83 251.731 1495.63 161.827 1439.83 153.92L1439.83 153.904C1384.04 145.998 1337.37 211.032 1243.46 216.681C1201.42 219.209 1030.15 358.702 995.277 387.446C991.266 390.751 989.059 392.592 989.059 392.592L902.547 391.645C902.547 391.645 1140.15 94.5803 1252.85 132.15C1320.49 154.696 1253.25 132.15 1253.25 132.15C1299.47 138.699 1352.14 201.513 1400.58 227.377C1410.61 232.736 1420.47 236.509 1430.04 237.866L1430.04 237.883C1485.84 245.789 1552.01 166.397 1627.15 175.789C1785.59 195.594 1720.29 348.396 1706.2 414.142L1633.11 408.631C1633.11 408.631 1692.77 297.736 1617.64 260.167"
            class="fill-blue" fill="#8be9fd" fill-rule="nonzero" opacity="1" stroke="none" />
        <clipPath id="ClipPath_5">
            <path
                d="M1348.85 200.952C1348.85 150.73 1388.28 110.017 1436.92 110.017C1485.56 110.017 1524.99 150.73 1524.99 200.952C1524.99 251.174 1485.56 291.886 1436.92 291.886C1388.28 291.886 1348.85 251.174 1348.85 200.952Z" />
        </clipPath>
        <g clip-path="url(#ClipPath_5)">
            <path
                d="M1616.62 259.637C1560.83 251.731 1495.63 161.827 1439.83 153.92L1439.83 153.904C1360.93 146.994 1333.27 215.643 1243.46 216.681C1196.5 217.223 1243.46 404.527 1243.46 404.527L1168.32 404.527C1168.32 404.527 1140.15 94.5803 1252.85 132.15C1320.49 154.696 1253.25 132.15 1253.25 132.15C1299.47 138.699 1352.14 201.513 1400.58 227.377C1410.61 232.736 1420.47 236.509 1430.04 237.866L1430.04 237.883C1485.84 245.789 1552.01 166.397 1627.15 175.789C1785.59 195.594 1723.72 345.838 1709.63 411.584L1633.41 409.045C1633.41 409.045 1692.77 297.736 1617.64 260.167"
                class="fill-red" fill="#ff5555" fill-rule="nonzero" opacity="1" stroke="none" />
        </g>
    </g>
    <g clip-path="url(#ArtboardFrame_12)" id="Layer-3" vectornator:layerName="Layer 3">
        <clipPath id="ClipPath_6">
            <path
                d="M-0.0974958-126.495L7.29896 454.244L214.635 404.23L222.794 404.347L313.371 397.831L322.353 398.066L543.894 391.492L548.59 390.846L548.767 394.016L624.61 393.135L624.375 391.433C710.184 390.75 803.02 389.903 891.41 389.261C891.363 384.018 891.183 379.418 891.41 372.413C891.561 367.794 891.848 364.225 892.526 356.212C892.545 355.986 892.87 351.523 892.995 349.872C893.161 347.683 893.826 343.565 894.58 340.48C895.277 337.627 896.026 335.37 897.398 333.259C901.761 326.547 911.33 324.555 917.533 331.792C917.966 332.297 918.307 332.901 918.707 333.435C918.772 332.874 918.752 332.81 918.824 332.203C918.935 331.258 919.078 330.017 919.118 329.678C919.316 327.984 919.938 323.819 919.939 323.808C920.324 321.245 920.434 320.072 920.585 318.76C920.586 318.101 920.584 316.489 920.585 316.412C920.555 316.243 920.584 316.206 920.937 313.888C921.141 313.023 921.152 313.042 922.288 310.659L922.816 309.896L924.049 308.37L927.395 306.139L932.795 305.141L937.726 306.609L939.487 307.841L957.157 307.841C957.21 305.019 957.265 301.755 957.274 300.914C957.306 298.032 957.366 295.729 957.567 290.7C957.608 289.684 957.996 280.772 958.037 280.016C958.052 279.752 958.065 279.097 958.096 278.784C958.105 278.447 958.106 278.485 958.624 276.377C958.942 275.167 958.973 275.125 962.029 271.27L962.792 270.683L963.731 270.037L964.847 269.45L966.197 268.981L967.723 268.628L969.425 268.452L971.069 268.57L972.654 268.922L974.121 269.391L975.354 270.037L976.352 270.683L976.822 271.035C977.778 271.918 977.95 272.203 978.289 272.62C978.458 271.365 978.521 269.882 978.7 268.628C978.807 267.882 979.695 260.812 979.757 260.351C979.903 259.263 979.93 259.141 980.05 258.59C980.068 258.23 980.109 258.201 981.342 255.303C981.831 254.472 981.777 254.457 983.22 252.779L984.218 251.957L985.568 251.018L987.447 250.196L989.854 249.609L992.671 249.609L995.372 250.255L997.602 251.37L999.246 252.661L1000.3 253.894L1001.07 254.892L1001.24 255.186C1001.62 253.607 1001.65 253.15 1002.12 251.194C1002.27 250.594 1002.45 249.934 1002.53 249.609C1002.55 249.412 1002.59 248.454 1002.59 248.376C1002.74 245.934 1002.91 244.646 1003.47 242.741C1004.61 238.89 1007.02 235.564 1010.99 233.583C1012.63 232.759 1014.38 232.179 1016.56 232.174C1019.2 232.169 1021.57 233.357 1023.67 234.992C1024.65 231.622 1025.37 228.283 1026.48 224.895C1026.54 224.714 1026.83 223.17 1026.84 223.134C1027.19 221.122 1027.41 220.139 1027.83 218.732C1028.56 216.357 1029.59 214.207 1031.18 212.216C1033.43 209.404 1036.38 207.391 1041.22 207.696C1044.23 207.885 1046.39 208.955 1048.09 210.455C1049.67 209.579 1051.43 208.955 1053.66 208.987C1054.79 209.003 1055.71 209.446 1056.72 209.75C1057.14 208.39 1057.09 207.983 1057.6 206.404C1057.88 205.528 1060.77 197.448 1061.12 196.483C1061.29 196.007 1061.83 194.58 1061.94 194.312C1062.03 194.106 1062.02 194.091 1062.29 193.548C1062.51 193.126 1062.54 193.111 1063.64 191.553L1064.93 190.202L1072.86 187.385L1076.09 189.087C1076.61 187.455 1077.02 186.23 1077.61 184.391C1077.61 184.39 1077.61 184.288 1077.61 184.273C1077.64 184.061 1077.79 182.661 1077.79 182.63C1078.09 179.524 1078.25 178.306 1078.9 176.349C1081.32 169.156 1089.27 164.269 1097.51 169.422C1098.13 169.808 1098.31 170.3 1098.8 170.713C1099.06 170.142 1099.21 169.575 1099.69 168.894C1100.95 167.03 1100.92 167.028 1105.79 164.432C1109.52 163.732 1109.53 163.745 1113.42 164.784C1113.94 165.064 1113.82 165.17 1114.18 165.371C1115.64 160.088 1119.65 156.018 1125.69 155.333C1126.1 153.565 1126.37 151.673 1126.81 149.933C1126.88 149.652 1126.86 149.654 1126.98 149.228C1126.98 148.843 1127.03 148.83 1129.15 145.178C1131.23 142.262 1131.84 142.118 1141.07 141.656C1142.9 139.034 1145.67 137.225 1148.82 136.784C1150.3 136.576 1151.86 136.668 1153.4 137.077C1153.41 137.082 1153.44 137.072 1153.46 137.077C1154.01 133.784 1154.43 130.382 1155.04 127.039C1156.18 120.79 1162.18 116.628 1168.43 117.764C1174.67 118.9 1178.84 124.899 1177.7 131.148C1172.43 160.11 1169.3 183.703 1163.26 235.755C1162.19 244.956 1161.77 248.306 1161.2 253.072C1160.56 258.527 1159.44 266.167 1158.09 272.855C1157.11 277.731 1156.09 281.885 1154.92 285.182C1154.13 287.429 1153.23 289.303 1152.16 290.994C1150.04 294.376 1147.25 296.929 1142.77 297.745C1139.92 298.264 1137.37 297.75 1135.08 296.747C1135.14 300.211 1134.23 303.638 1131.74 306.55C1128.18 310.694 1122.36 311.782 1117.47 309.368C1116.38 311.643 1114.99 313.843 1112.95 315.883C1109.63 319.21 1104.78 320.707 1099.86 319.053C1098.91 318.734 1098.23 318.221 1097.45 317.762C1097.27 320.606 1097.15 323.403 1096.46 325.804C1094.85 331.361 1091.6 335.894 1086.3 338.542C1085.65 338.866 1085.06 338.79 1084.42 339.012C1082.95 345.012 1081.23 349.945 1078.32 353.218C1073.52 358.614 1065.95 359.218 1060.41 354.979C1060.39 354.962 1060.38 354.938 1060.35 354.92C1060.07 355.983 1059.91 357.158 1059.59 358.208C1059.58 358.266 1059.49 358.808 1059.47 358.912C1059.38 359.605 1059.36 360.085 1059.24 360.673C1059.04 361.69 1058.76 362.656 1058.36 363.667C1056.87 367.389 1053.91 370.445 1049.49 371.65C1049.43 371.667 1049.38 371.635 1049.32 371.65C1049.18 375.964 1048.88 379.361 1047.91 382.628C1047.27 384.793 1046.12 386.629 1044.97 388.439C1292.63 388.515 1384.45 384.154 1384.45 384.154L1798.12 417.262L1821.13 27.8326L1830.29-126.495L-0.0974958-126.495Z" />
        </clipPath>
        <g clip-path="url(#ClipPath_6)">
            <path
                d="M289.538 91.8765C274.128 103.876 260.41 118.315 249.151 135.609C239.282 150.769 231.934 168.273 226.199 186.739C233.339 186.611 240.675 186.442 245.394 186.622C252.077 186.876 257.238 187.512 263.24 188.617C275.382 190.853 286.926 195.118 299.87 202.295C300.88 202.855 302.106 203.329 304.977 204.35C305.321 204.472 305.327 204.517 305.681 204.643C313.406 207.396 318.09 209.963 321.824 214.564C323.871 207.175 326.278 200.311 329.28 194.664C338.375 177.554 361.458 161.75 387.747 152.046C385.93 148.111 385.4 147.205 383.227 142.478C382.482 140.857 382.445 140.869 381.701 139.249C374.647 123.91 369.827 113.788 364.97 103.676C353.07 101.447 339.513 99.9779 324.701 99.2729C318.974 99.0003 314.875 97.9733 306.327 95.2812C305.277 94.9506 304.868 94.8021 304.331 94.6355C300.635 93.4881 298.302 92.914 296.113 92.5809C294.628 92.355 292.878 92.1438 289.597 91.8765C289.584 91.8863 289.551 91.8667 289.538 91.8765Z"
                class="fill-blue" fill="#8be9fd" fill-rule="nonzero" filter="url(#Filter_4)" stroke="none"
                vectornator:shadowAngle="3.24648" vectornator:shadowColor="#282a36" vectornator:shadowOffset="20.9976"
                vectornator:shadowOpacity="0.79054" vectornator:shadowRadius="23.3779" />
            <path
                d="M289.538 91.8765C274.128 103.876 260.41 118.315 249.151 135.609C239.282 150.769 231.934 168.273 226.199 186.739C233.339 186.611 240.675 186.442 245.394 186.622C252.077 186.876 257.238 187.512 263.24 188.617C275.382 190.853 286.926 195.118 299.87 202.295C300.88 202.855 302.106 203.329 304.977 204.35C305.321 204.472 305.327 204.517 305.681 204.643C313.406 207.396 318.09 209.963 321.824 214.564C323.871 207.175 326.278 200.311 329.28 194.664C338.375 177.554 361.458 161.75 387.747 152.046C385.93 148.111 385.4 147.205 383.227 142.478C382.482 140.857 382.445 140.869 381.701 139.249C374.647 123.91 369.827 113.788 364.97 103.676C353.07 101.447 339.513 99.9779 324.701 99.2729C318.974 99.0003 314.875 97.9733 306.327 95.2812C305.277 94.9506 304.868 94.8021 304.331 94.6355C300.635 93.4881 298.302 92.914 296.113 92.5809C294.628 92.355 292.878 92.1438 289.597 91.8765C289.584 91.8863 289.551 91.8667 289.538 91.8765Z"
                class="fill-blue" fill="#8be9fd" fill-rule="nonzero" filter="url(#Filter_5)" stroke="none"
                vectornator:shadowAngle="0.897928" vectornator:shadowColor="#282a36" vectornator:shadowOffset="13.9212"
                vectornator:shadowOpacity="0.79054" vectornator:shadowRadius="23.0562" />
            <path
                d="M496.694 49.1895C467.186 41.772 435.782 40.5029 404.434 45.2525C342.882 54.5791 284.355 81.5621 249.16 135.624C187.738 229.972 215.798 409.633 215.798 409.633L319.941 402.498C319.941 402.498 299.767 250.182 329.272 194.678C341.917 170.89 381.503 149.468 419.328 143.737C457.389 137.97 492.344 145.79 511.702 165.628C552.758 207.701 543.403 401.046 543.403 401.046L627.76 400.722C627.76 400.722 650.847 164.73 577.233 90.5479C555.489 68.6361 526.186 56.6027 496.694 49.1895Z"
                class="fill-blue stroke-orange stroke-orange" fill="#8be9fd" fill-rule="nonzero" opacity="1"
                stroke="#ffb86c" stroke-linecap="butt" stroke-linejoin="round" stroke-width="9.13069" />
        </g>
    </g>
    <g clip-path="url(#ArtboardFrame_12)" id="Layer-10" vectornator:layerName="Layer 10">
        <g opacity="1">
            <path
                d="M284.838 464.996C297.319 481.484 324.555 514.484 348.863 523.599C404.086 544.308 487.577 535.108 533.473 505.902C571.477 481.717 583.308 445.522 592.591 394.41C610.274 297.04 590.089 166.995 523.074 113.383C461.599 64.2031 370.477 91.8486 315.594 145.415C285.688 174.604 274.194 215.699 266.481 246.552C253.842 297.108 253.9 342.838 257.819 393.795C259.565 416.492 277.907 455.476 277.907 455.476"
                fill="none" class="stroke-pink" stroke="#ff79c6" stroke-dasharray="37.56930125936371"
                stroke-linecap="round" stroke-linejoin="round" stroke-width="9.12934" />
            <g class="fill-pink" fill="#ff79c6" stroke="none">
                <path
                    d="M325.15 467.833L283.307 456.89L277.909 455.478L277.594 461.048L275.153 504.23C275.011 506.747 276.936 508.903 279.453 509.045C281.97 509.188 284.126 507.262 284.268 504.746L286.709 461.564L280.997 465.722L322.84 476.666C325.279 477.303 327.773 475.843 328.411 473.404C329.049 470.965 327.589 468.471 325.15 467.833Z"
                    class="fill-pink" fill="#ff79c6" />
            </g>
        </g>
        <path
            d="M980.107 346.053C1028.8 299.989 1072.31 252.107 1132.47 219.984C1172.84 198.435 1254.51 189.59 1339.49 184.913C1401.25 181.513 1468.98 199.401 1526.02 207.942C1618.08 221.729 1699.57 237.878 1692.61 299.561C1670.31 497.017 1619.09 557.724 1505.29 588.728C1355.72 629.48 1117.25 556.425 1078.6 550.501C862.176 517.327 965.285 360.074 980.107 346.053Z"
            fill="none" opacity="1" class="stroke-pink" stroke="#ff79c6" stroke-dasharray="37.56930125936371"
            stroke-linecap="round" stroke-linejoin="round" stroke-width="9.13069" />
    </g>
    <g clip-path="url(#ArtboardFrame_12)" id="Layer-6" vectornator:layerName="Layer 6">
        <path d="M1243.46 216.112C1299.26 224.018 1384.04 145.998 1439.83 153.904" fill="none" opacity="1"
            class="stroke-orange stroke-orange" stroke="#ffb86c" stroke-linecap="round" stroke-linejoin="round"
            stroke-width="9.13069" />
        <path
            d="M1322.29 182.355C1323.38 174.651 1332.6 169.586 1342.87 171.041C1353.14 172.497 1360.58 179.922 1359.49 187.626C1358.4 195.33 1349.19 200.395 1338.92 198.94C1328.64 197.484 1321.2 190.059 1322.29 182.355Z"
            class="fill-background" fill-rule="nonzero" opacity="1" stroke="none" />
        <path d="M1430.04 237.866C1374.25 229.96 1309.05 140.056 1253.25 132.15" fill="none" opacity="1"
            class="stroke-orange stroke-orange" stroke="#ffb86c" stroke-linecap="round" stroke-linejoin="round"
            stroke-width="9.13069" />
        <path d="M1430.04 237.883C1485.84 245.789 1570.62 167.769 1626.41 175.675" fill="none" opacity="1"
            class="stroke-orange stroke-orange" stroke="#ffb86c" stroke-linecap="round" stroke-linejoin="round"
            stroke-width="9.13069" />
        <path
            d="M1508.87 204.126C1509.97 196.422 1519.18 191.357 1529.45 192.812C1539.72 194.268 1547.16 201.693 1546.07 209.397C1544.98 217.101 1535.77 222.166 1525.5 220.711C1515.22 219.255 1507.78 211.83 1508.87 204.126Z"
            class="fill-background" fill-rule="nonzero" opacity="1" stroke="none" />
        <path d="M1616.62 259.637C1560.83 251.731 1495.63 161.827 1439.83 153.92" fill="none" opacity="1"
            class="stroke-orange stroke-orange" stroke="#ffb86c" stroke-linecap="round" stroke-linejoin="round"
            stroke-width="9.13069" />
        <clipPath id="ClipPath_7">
            <path
                d="M-0.0932005-126.512L1830.26-126.512L1798.13 417.263L1384.48 384.174C1384.48 384.174 1288.44 387.505 1030.47 387.26C772.513 387.014 352.63 383.193 352.63 383.193L161.767 393.055L7.30923 454.256L-0.0932005-126.512Z" />
        </clipPath>
        <g clip-path="url(#ClipPath_7)">
            <path
                d="M1252.85 132.15C1140.15 94.5803 902.008 391.535 902.008 391.535L987.706 392.502C987.706 392.502 1196.73 212.008 1243.46 216.681"
                fill="none" opacity="1" class="stroke-orange stroke-orange" stroke="#ffb86c" stroke-linecap="butt"
                stroke-linejoin="round" stroke-width="9.13069" />
            <path
                d="M1617.64 260.167C1692.77 297.736 1623.92 420.508 1623.92 420.508L1707.39 421.794C1721.48 356.048 1785.59 195.594 1627.15 175.789"
                fill="none" opacity="1" class="stroke-orange stroke-orange" stroke="#ffb86c" stroke-linecap="round"
                stroke-linejoin="round" stroke-width="9.13069" />
        </g>
    </g>
</svg>