<!-- Created with Vectornator (http://vectornator.io/) -->
<svg xmlns:inkscape="http://www.inkscape.org/namespaces/inkscape" xmlns:sodipodi="http://sodipodi.sourceforge.net/DTD/sodipodi-0.dtd" xmlns="http://www.w3.org/2000/svg" xmlns:svg="http://www.w3.org/2000/svg" xmlns:vectornator="http://vectornator.io" stroke-miterlimit="10" style="clip-rule:evenodd;fill-rule:nonzero;stroke-linecap:round;stroke-linejoin:round" version="1.1" viewBox="0 0 565 563.95428" xml:space="preserve" id="svg44" sodipodi:docname="push_off_2.svg"><sodipodi:namedview id="namedview44" pagecolor="#ffffff" bordercolor="#000000" borderopacity="0.25" inkscape:showpageshadow="2" inkscape:pageopacity="0.0" inkscape:pagecheckerboard="0" inkscape:deskcolor="#d1d1d1"/>
    <defs id="defs1">
        <filter color-interpolation-filters="sRGB" filterUnits="userSpaceOnUse" height="147.784" id="Filter" width="86.009903" x="1.28277" y="214.854">
            <feDropShadow dx="-9.84847" dy="-3.62131" flood-color="#282a36" flood-opacity="0.79054" in="SourceGraphic" result="Shadow" stdDeviation="6.13699"/>
        </filter>
        <filter color-interpolation-filters="sRGB" filterUnits="userSpaceOnUse" height="147.784" id="Filter_2" width="86.009903" x="20.662201" y="226.10001">
            <feDropShadow dx="9.53097" dy="7.62459" flood-color="#282a36" flood-opacity="1" in="SourceGraphic" result="Shadow" stdDeviation="6.13699"/>
        </filter>
        <filter color-interpolation-filters="sRGB" filterUnits="userSpaceOnUse" height="575.98401" id="Filter_3" width="468.69501" x="24.3867" y="21.2672">
            <feDropShadow dx="6.85673" dy="5.48526" flood-color="#282a36" flood-opacity="1" in="SourceGraphic" result="Shadow" stdDeviation="4.68151"/>
        </filter>
        <filter color-interpolation-filters="sRGB" filterUnits="userSpaceOnUse" height="157.784" id="Filter_4" width="310.46899" x="390.793" y="189.98199">
            <feDropShadow dx="-2.05011" dy="-16.8386" flood-color="#282a36" flood-opacity="0.9" in="SourceGraphic" result="Shadow" stdDeviation="10.0925"/>
        </filter>
        <filter color-interpolation-filters="sRGB" filterUnits="userSpaceOnUse" height="157.784" id="Filter_5" width="310.46899" x="394.65302" y="219.897">
            <feDropShadow dx="-4.44058" dy="16.3714" flood-color="#282a36" flood-opacity="0.9" in="SourceGraphic" result="Shadow" stdDeviation="10.0925"/>
        </filter>
        <filter color-interpolation-filters="sRGB" filterUnits="userSpaceOnUse" height="146.32899" id="Filter_6" width="177.72099" x="-376.655" y="176.795">
            <feDropShadow dx="-16.8697" dy="-1.77591" flood-color="#282a36" flood-opacity="0.79054" in="SourceGraphic" result="Shadow" stdDeviation="9.44289"/>
        </filter>
        <filter color-interpolation-filters="sRGB" filterUnits="userSpaceOnUse" height="145.67999" id="Filter_7" width="177.071" x="-352.452" y="187.69099">
            <feDropShadow dx="7.00901" dy="8.79498" flood-color="#282a36" flood-opacity="0.79054" in="SourceGraphic" result="Shadow" stdDeviation="9.31297"/>
        </filter>
    </defs>
    <clipPath id="ArtboardFrame_13">
        <rect height="565" width="565" x="0" y="0" id="rect1"/>
    </clipPath>
    <g clip-path="url(#ArtboardFrame_13)" id="Layer-2" vectornator:layerName="Layer 2" transform="translate(0,-1.0457363)">
        <clipPath id="ClipPath">
            <path d="m -533.325,634.598 c -14.378,-89.418 65.486,-168.445 65.486,-168.445 l 12.573,24.082 57.093,-24.665 -8.08,-21.388 61.806,-13.935 3.102,24.359 76.656,-5.404 -4.008,-32.316 c 0,0 34.375,-2.498 46.209,-2.996 2.409,-0.101 8.619,33.131 8.619,33.131 l 68.33,-1.694 c 0,0 -5.736,-34.256 -2.109,-34.38 22.149,-0.758 72.3159,-6.745 72.3159,-6.745 l -0.3559,41.976 60.8573,-0.833 2.3912,-42.504 c 0,0 23.6668,-1.339 33.3224,-1.45 5.0575,-0.058 4.1067,42.696 4.1067,42.696 L 79.3,444.23 c 0,0 -1.969,-56.154 4.0224,-56.234 37.4366,-0.501 188.5116,-13.82 188.5116,-13.82 l -59,68 68.122,1.907 65.267,-54.136 c 0,0 32.053,0.491 61.432,3.31 5.442,0.522 -5.98,53.204 -5.98,53.204 l 53.235,1.011 15.961,-55.117 342.165,25.748 -9.666,40.136 54.307,4.181 c 0,0 14.153,-40.977 14.856,-40.744 148.297,49.175 131.617,130.303 131.617,212.922 0,82.973 26.39,140.055 -123,189.228 -46.925,15.445 -1174.781,37.919 -1291.477,0 -151.296,-49.163 -108.62,-99.81 -122.998,-189.228 z" id="path1"/>
        </clipPath>
        <g clip-path="url(#ClipPath)" id="g2">
            <path d="m -520.782,646.468 c 0,-80.119 -16.515,-139.96 130.329,-187.278 114.29,-36.827 1215.904,-15.064 1262.036,0 144.917,47.323 120.194,102.594 120.194,182.102 0,79.849 25.793,134.781 -120.194,182.102 -45.855,14.863 -1148.001,36.492 -1262.036,0 -147.847,-47.311 -130.329,-96.49 -130.329,-176.926 z" class="fill-blue stroke-orange stroke-orange" fill="#8be9fd" fill-rule="nonzero" opacity="1" stroke="#ffb86c" stroke-linecap="round" stroke-linejoin="round" stroke-width="7.37622" id="path2"/>
        </g>
    </g>
    <g clip-path="url(#ArtboardFrame_13)" id="Layer-7" vectornator:layerName="Layer 7" transform="translate(0,-1.0457363)">
        <g opacity="1" id="g8">
            <path d="m 30.8861,233.818 -4.4124,61.435 55.325,55.664 -0.3394,-79.424 z" class="fill-blue" fill="#8be9fd" fill-rule="nonzero" filter="url(#Filter)" stroke="none" vectornator:shadowAngle="3.49395" vectornator:shadowColor="#282a36" vectornator:shadowOffset="10.4932" vectornator:shadowOpacity="0.79054" vectornator:shadowRadius="12.274" id="path3"/>
            <path d="m 30.8861,233.818 -4.4124,61.435 55.325,55.664 -0.3394,-79.424 z" class="fill-blue" fill="#8be9fd" fill-rule="nonzero" filter="url(#Filter_2)" stroke="none" vectornator:shadowAngle="0.674729" vectornator:shadowColor="#282a36" vectornator:shadowOffset="12.2055" vectornator:shadowOpacity="1" vectornator:shadowRadius="12.274" id="path4"/>
            <path d="M 408.845,108.43 C 363.77,102.043 311.098,29.4142 266.023,23.0273 l 10e-4,-0.0132 C 220.949,16.6271 183.247,69.1652 107.386,73.728 73.5372,75.7638 81.0285,366.971 83.001,428.79 c 0.2344,7.344 -0.7222,15.408 -0.7222,15.408 L 25.037,444.48 c 0,0 -1.1147,-469.3905 89.936,-439.04021 54.643,18.21411 0.321,0 0.321,0 37.338,5.29071 79.889,56.03541 119.017,76.92961 8.108,4.3293 16.068,7.3771 23.805,8.4734 l -0.002,0.0132 c 45.076,6.3869 98.532,-57.7496 159.233,-50.162 127.992,15.9991 51.657,353.668 40.276,406.781 l -58.022,-1.027 c 0,0 70.761,-307.239 10.06,-337.59" class="fill-blue" fill="#8be9fd" fill-rule="nonzero" opacity="1" stroke="none" id="path5"/>
            <clipPath id="ClipPath_2">
                <path d="m 192.524,61.0214 c 0,-40.5716 31.853,-73.4615 71.146,-73.4615 39.293,0 71.147,32.8899 71.147,73.4615 0,40.5716 -31.854,73.4616 -71.147,73.4616 -39.293,0 -71.146,-32.89 -71.146,-73.4616 z" id="path6"/>
            </clipPath>
            <g clip-path="url(#ClipPath_2)" id="g7">
                <path d="M 408.845,108.43 C 363.77,102.043 311.098,29.4142 266.023,23.0273 l 10e-4,-0.0132 C 202.285,17.4317 179.936,72.89 107.386,73.728 c -37.9358,0.4381 0,151.751 0,151.751 H 46.685 c 0,0 -22.7627,-250.3895 68.288,-220.03921 54.643,18.21411 0.321,0 0.321,0 37.338,5.29071 79.889,56.03541 119.017,76.92961 8.108,4.3293 16.068,7.3771 23.805,8.4734 l -0.002,0.0132 c 45.076,6.3869 98.532,-57.7496 159.233,-50.162 127.992,15.9991 78.012,137.374 66.63,190.487 l -61.57,-2.052 c 0,0 47.955,-89.92 -12.746,-120.271" class="fill-red" fill="#ff5555" fill-rule="nonzero" opacity="1" stroke="none" id="path7"/>
            </g>
        </g>
        <g opacity="1" id="g10">
            <path d="M 86.5849,473.286 C 115.692,587.891 277.422,564.1 326.62,550.162 465.627,510.78 496.276,156.227 440.076,100.388 417.178,77.6369 392.278,75.8904 343.136,66.2381 295.604,56.9021 231.44,44.3138 185.014,46.1914 135.12,48.2092 95.0366,57.73 84.4765,76.9613 36.8841,163.634 67.1573,367.373 84.5685,463.964" fill="none" class="stroke-pink" stroke="#ff79c6" stroke-dasharray="15.1751" stroke-linecap="round" stroke-linejoin="round" stroke-width="7.37622" id="path8"/>
            <g class="fill-pink" fill="#ff79c6" stroke="none" id="g9">
                <path d="m 115.448,488.551 -27.3467,-21.756 -3.5275,-2.806 -2.0523,4.013 -15.9104,31.113 c -0.9274,1.814 -0.209,4.036 1.6045,4.963 1.8136,0.928 4.0355,0.209 4.9629,-1.604 l 15.9103,-31.114 -5.5798,1.207 27.347,21.757 c 1.593,1.268 3.914,1.004 5.182,-0.59 1.268,-1.594 1.004,-3.914 -0.59,-5.183 z" class="fill-pink" fill="#ff79c6" id="path9"/>
            </g>
        </g>
        <g opacity="1" id="g19">
            <path d="M 107.386,73.2685 C 150.001,74.9839 220.949,16.6271 266.024,23.0141" fill="none" opacity="1" class="stroke-orange stroke-orange" stroke="#ffb86c" stroke-linecap="round" stroke-linejoin="round" stroke-width="7.37622" id="path10"/>
            <path d="m 171.069,45.9983 c 0.882,-6.2236 8.324,-10.3156 16.622,-9.1398 8.298,1.1758 14.31,7.1742 13.429,13.3978 -0.882,6.2236 -8.324,10.3156 -16.622,9.1398 -8.298,-1.1758 -14.31,-7.1742 -13.429,-13.3978 z" class="fill-background" fill-rule="nonzero" opacity="1" stroke="none" id="path11"/>
            <path d="M 258.116,90.8428 C 213.041,84.4558 160.369,11.8267 115.294,5.43979" fill="none" opacity="1" class="stroke-orange stroke-orange" stroke="#ffb86c" stroke-linecap="round" stroke-linejoin="round" stroke-width="7.37622" id="path12"/>
            <path d="M 258.114,90.856 C 303.19,97.2429 371.678,34.2146 416.753,40.6016" fill="none" opacity="1" class="stroke-orange stroke-orange" stroke="#ffb86c" stroke-linecap="round" stroke-linejoin="round" stroke-width="7.37622" id="path13"/>
            <path d="m 321.798,63.5858 c 0.882,-6.2236 8.324,-10.3156 16.622,-9.1398 8.298,1.1758 14.31,7.1742 13.428,13.3978 -0.881,6.2236 -8.323,10.3156 -16.621,9.1398 -8.298,-1.1758 -14.311,-7.1742 -13.429,-13.3978 z" class="fill-background" fill-rule="nonzero" opacity="1" stroke="none" id="path14"/>
            <path d="M 408.845,108.43 C 363.77,102.043 311.098,29.4142 266.023,23.0273" fill="none" opacity="1" class="stroke-orange stroke-orange" stroke="#ffb86c" stroke-linecap="round" stroke-linejoin="round" stroke-width="7.37622" id="path15"/>
            <clipPath id="ClipPath_3">
                <path d="M -499.126,-48.3328 -135.371,-29.9872 977.889,26.1589 951.93,465.447 615.447,447.698 c 0,0 -72.371,-4.485 -280.765,-4.683 -68.124,-0.065 -148.91,-1.78 -228.989,-2.514 -26.6737,-0.244 -52.5157,0.272 -78.1286,0.054 -132.7174,-1.132 -243.3804,-2.631 -243.3804,-2.631 l -154.189,7.966 -124.778,49.442 z" id="path16"/>
            </clipPath>
            <g clip-path="url(#ClipPath_3)" id="g18">
                <path d="M 108.456,73.2229 C 70.7061,69.448 82.8031,443.922 82.8031,443.922 l -61.5924,0.535 c 0,0 0.2058,-17.993 1.233,-46.699 4.1541,-116.096 -1.0272,28.706 0,0 C 26.0856,295.977 41.2805,-11.8963 115.923,5.40669" fill="none" opacity="1" class="stroke-orange stroke-orange" stroke="#ffb86c" stroke-linecap="butt" stroke-linejoin="round" stroke-width="7.37622" id="path17"/>
                <path d="m 409.717,108.886 c 60.7,30.35 -12.73,340.794 -12.73,340.794 l 61.735,0.087 C 470.104,396.654 546.548,56.8685 418.555,40.8694" fill="none" opacity="1" class="stroke-orange stroke-orange" stroke="#ffb86c" stroke-linecap="round" stroke-linejoin="round" stroke-width="7.37622" id="path18"/>
            </g>
        </g>
    </g>
    <g id="Layer-10" vectornator:layerName="Layer 10" transform="translate(0,-1.0457363)"/>
    <g clip-path="url(#ArtboardFrame_13)" id="Layer-5" vectornator:layerName="Layer 5" transform="translate(0,-1.0457363)">
        <clipPath id="ClipPath_4">
            <path d="M 356.417,54.4696 351.065,72.8717 368.752,86.3449 358.024,424.005 171.373,417.827 171.249,4.69881 9.43238,-7.54301 c 0,0 -18.86584,501.06301 -17.10082,513.41801 1.76502,12.356 275.50544,214.37 275.50544,214.37 L 683.519,193.039 608.65,-67.4449 377.022,-65.1052 Z" id="path19"/>
        </clipPath>
        <g clip-path="url(#ClipPath_4)" id="g23">
            <g filter="url(#Filter_3)" vectornator:shadowAngle="0.674729" vectornator:shadowColor="#282a36" vectornator:shadowOffset="8.78082" vectornator:shadowOpacity="1" vectornator:shadowRadius="9.36301" id="g22">
                <path d="M 62.4168,488.123 C 94.3715,606.516 272.356,575.396 323.622,560.819 469.022,519.475 501.081,147.259 442.296,88.6379 418.345,64.7539 417.406,60.5164 347.287,64.987 296.716,68.2113 204.303,61.8362 160.227,41.3596 108.926,17.5267 81.3873,43.8552 70.3416,64.0446 20.5603,155.035 41.7161,375.586 59.928,476.989" fill="none" stroke="#ba1775" stroke-linecap="round" stroke-linejoin="round" stroke-width="8.83142" id="path20"/>
                <g fill="#ba1775" stroke="none" id="g21">
                    <path d="m 97.0989,506.161 -32.9201,-25.822 -4.2465,-3.331 -2.424,4.822 -18.7923,37.382 c -1.0954,2.179 -0.217,4.833 1.9619,5.928 2.1789,1.096 4.8332,0.217 5.9286,-1.962 l 18.7922,-37.381 -6.6705,1.491 32.9201,25.822 c 1.9189,1.505 4.6946,1.17 6.1997,-0.749 1.5051,-1.919 1.1698,-4.694 -0.7491,-6.2 z" fill="#ba1775" id="path21"/>
                </g>
            </g>
        </g>
    </g>
    <g clip-path="url(#ArtboardFrame_13)" id="Layer-6" vectornator:layerName="Layer 6" transform="translate(0,-1.0457363)">
        <g opacity="1" id="g28">
            <path d="m 475.028,232.057 c -13.486,0.191 -28.465,4.86 -44.15,12.14 -3.277,19.397 -5.886,38.304 -10.053,74.216 -0.863,7.433 -1.207,10.139 -1.66,13.989 -0.226,1.922 -0.734,4.588 -1.091,6.971 28.325,-19.379 53.725,-34.607 66.297,-36.088 0.078,-1.422 0.189,-2.847 0.521,-4.6 0.139,-0.734 0.302,-1.498 0.474,-2.276 0.176,-0.791 0.573,-2.424 0.759,-3.177 0.187,-1.719 0.247,-3.307 0.237,-7.019 -0.005,-1.903 -0.02,-2.778 0,-3.889 0.041,-2.18 0.16,-4.057 0.38,-5.927 0.086,-0.732 0.21,-2.496 0.332,-5.122 0.096,-2.088 0.582,-15.94 0.664,-18.115 0.278,-7.465 0.541,-12.687 0.806,-16.835 0.07,-1.107 0.164,-1.744 0.237,-2.656 -4.406,-1.035 -8.945,-1.681 -13.753,-1.612 z m 201.308,34.665 c 0,0.081 0,0.059 0,0.19 0,0.397 -10e-4,3.212 0,4.553 0.453,-0.004 0.922,-0.013 1.328,0 0.916,-2.012 0.254,-3.382 -1.328,-4.743 z" class="fill-blue" fill="#8be9fd" fill-rule="nonzero" filter="url(#Filter_4)" stroke="none" vectornator:shadowAngle="4.59123" vectornator:shadowColor="#282a36" vectornator:shadowOffset="16.9629" vectornator:shadowOpacity="0.9" vectornator:shadowRadius="20.185" id="path23"/>
            <path d="m 481.279,228.762 c -13.486,0.191 -28.466,4.86 -44.15,12.14 -3.278,19.398 -5.886,38.305 -10.054,74.216 -0.862,7.433 -1.206,10.14 -1.659,13.99 -0.227,1.922 -0.735,4.588 -1.091,6.971 28.325,-19.379 53.724,-34.607 66.296,-36.088 0.079,-1.423 0.19,-2.847 0.522,-4.6 0.139,-0.734 0.301,-1.498 0.474,-2.277 0.175,-0.79 0.573,-2.424 0.759,-3.177 0.187,-1.718 0.247,-3.306 0.237,-7.019 -0.005,-1.902 -0.021,-2.777 0,-3.888 0.041,-2.181 0.159,-4.057 0.379,-5.928 0.086,-0.732 0.211,-2.495 0.332,-5.122 0.097,-2.087 0.583,-15.94 0.664,-18.115 0.278,-7.465 0.541,-12.686 0.806,-16.835 0.071,-1.107 0.164,-1.744 0.238,-2.655 -4.407,-1.035 -8.946,-1.681 -13.753,-1.613 z m 201.308,34.666 c 0,0.081 0,0.059 0,0.19 0,0.396 -10e-4,3.211 0,4.552 0.453,-0.004 0.921,-0.013 1.328,0 0.915,-2.012 0.253,-3.381 -1.328,-4.742 z" class="fill-blue" fill="#8be9fd" fill-rule="nonzero" filter="url(#Filter_5)" stroke="none" vectornator:shadowAngle="1.83566" vectornator:shadowColor="#282a36" vectornator:shadowOffset="16.9629" vectornator:shadowOpacity="0.9" vectornator:shadowRadius="20.185" id="path24"/>
            <path d="M 787.075,337.706 C 742,331.319 689.328,258.69 644.253,252.303 l 0.002,-0.014 c -45.075,-6.386 -82.777,46.152 -158.639,50.714 -33.964,2.043 -172.321,114.732 -200.496,137.953 -3.24,2.67 -3.3,3.813 -3.3,3.813 l -71.612,-0.421 c 0,0 191.945,-239.983 282.996,-209.633 54.642,18.214 0.32,0 0.32,0 37.339,5.291 79.89,56.036 119.018,76.93 8.107,4.329 16.068,7.377 23.804,8.473 l -10e-4,0.013 c 45.075,6.387 98.531,-57.749 159.232,-50.162 127.993,15.999 75.242,139.44 63.86,192.553 L 800.39,458.07 c 0,0 48.202,-89.586 -12.498,-119.936" class="fill-blue" fill="#8be9fd" fill-rule="nonzero" opacity="1" stroke="none" id="path25"/>
            <clipPath id="ClipPath_5">
                <path d="m 570.754,290.297 c 0,-40.572 31.853,-73.462 71.147,-73.462 39.293,0 71.146,32.89 71.146,73.462 0,40.572 -31.853,73.461 -71.146,73.461 -39.294,0 -71.147,-32.889 -71.147,-73.461 z" id="path26"/>
            </clipPath>
            <g clip-path="url(#ClipPath_5)" id="g27">
                <path d="M 787.075,337.706 C 742,331.319 689.328,258.69 644.253,252.303 l 0.002,-0.014 c -63.739,-5.582 -86.088,49.876 -158.639,50.714 -37.935,0.439 0,151.752 0,151.752 h -60.701 c 0,0 -22.762,-250.39 68.289,-220.04 54.642,18.214 0.32,0 0.32,0 37.339,5.291 79.89,56.036 119.018,76.93 8.107,4.329 16.068,7.377 23.804,8.473 l -10e-4,0.013 c 45.075,6.387 98.531,-57.749 159.232,-50.162 127.993,15.999 78.012,137.374 66.631,190.487 l -61.571,-2.051 c 0,0 47.955,-89.921 -12.745,-120.271" class="fill-red" fill="#ff5555" fill-rule="nonzero" opacity="1" stroke="none" id="path27"/>
            </g>
        </g>
        <g opacity="1" id="g37">
            <path d="m 485.616,302.544 c 45.075,6.387 113.564,-56.641 158.639,-50.255" fill="none" opacity="1" class="stroke-orange stroke-orange" stroke="#ffb86c" stroke-linecap="round" stroke-linejoin="round" stroke-width="7.37622" id="path28"/>
            <path d="m 549.3,275.274 c 0.882,-6.224 8.323,-10.316 16.622,-9.14 8.298,1.176 14.31,7.174 13.428,13.398 -0.882,6.223 -8.324,10.315 -16.622,9.14 -8.298,-1.176 -14.31,-7.175 -13.428,-13.398 z" class="fill-background" fill-rule="nonzero" opacity="1" stroke="none" id="path29"/>
            <path d="M 636.346,320.118 C 591.271,313.731 538.6,241.102 493.524,234.715" fill="none" opacity="1" class="stroke-orange stroke-orange" stroke="#ffb86c" stroke-linecap="round" stroke-linejoin="round" stroke-width="7.37622" id="path30"/>
            <path d="m 636.345,320.131 c 45.075,6.387 113.563,-56.641 158.639,-50.254" fill="none" opacity="1" class="stroke-orange stroke-orange" stroke="#ffb86c" stroke-linecap="round" stroke-linejoin="round" stroke-width="7.37622" id="path31"/>
            <path d="m 700.029,292.861 c 0.882,-6.223 8.323,-10.315 16.621,-9.14 8.299,1.176 14.311,7.175 13.429,13.398 -0.882,6.224 -8.324,10.316 -16.622,9.14 -8.298,-1.176 -14.31,-7.174 -13.428,-13.398 z" class="fill-background" fill-rule="nonzero" opacity="1" stroke="none" id="path32"/>
            <path d="M 787.075,337.706 C 742,331.319 689.328,258.69 644.253,252.303" fill="none" opacity="1" class="stroke-orange stroke-orange" stroke="#ffb86c" stroke-linecap="round" stroke-linejoin="round" stroke-width="7.37622" id="path33"/>
            <clipPath id="ClipPath_6">
                <path d="M -430.993,27.2991 H 940.532 L 914.573,466.587 580.401,439.856 c 0,0 -89.394,3.461 -297.788,3.263 -208.3931,-0.198 -535.786,-4.055 -535.786,-4.055 l -154.189,7.967 -124.778,49.441 -5.98,-469.1729 h 107.127" id="path34"/>
            </clipPath>
            <g clip-path="url(#ClipPath_6)" id="g36">
                <path d="M 493.204,234.715 C 402.153,204.365 207.463,448.366 207.463,448.366 l 68.974,5.274 c 0,0 171.429,-154.412 209.179,-150.637" fill="none" opacity="1" class="stroke-orange stroke-orange" stroke="#ffb86c" stroke-linecap="butt" stroke-linejoin="round" stroke-width="7.37622" id="path35"/>
                <path d="m 787.892,338.134 c 60.7,30.35 5.075,129.531 5.075,129.531 l 67.432,1.039 C 871.781,415.591 923.57,285.968 795.577,269.969" fill="none" opacity="1" class="stroke-orange stroke-orange" stroke="#ffb86c" stroke-linecap="round" stroke-linejoin="round" stroke-width="7.37622" id="path36"/>
            </g>
        </g>
        <g opacity="1" id="g42">
            <clipPath id="ClipPath_7">
                <path d="m -509.13,17.6 5.976,469.149 167.495,-40.404 6.592,0.095 73.173,-5.264 7.255,0.19 178.9722,-5.311 3.7937,-0.522 0.1423,2.561 61.26968,-0.711 -0.18969,-1.376 c 69.32051,-0.552 144.31881,-1.236 215.72381,-1.754 -0.038,-4.236 -0.183,-7.952 0,-13.61 0.122,-3.732 0.354,-6.615 0.901,-13.089 0.016,-0.183 0.279,-3.788 0.38,-5.122 0.134,-1.768 0.671,-5.094 1.28,-7.587 0.563,-2.304 1.168,-4.128 2.277,-5.833 3.524,-5.423 11.255,-7.032 16.265,-1.186 0.351,0.409 0.626,0.896 0.949,1.328 0.053,-0.453 0.037,-0.505 0.095,-0.996 0.09,-0.763 0.205,-1.765 0.237,-2.039 0.16,-1.368 0.662,-4.734 0.664,-4.742 0.31,-2.07 0.399,-3.018 0.521,-4.078 0.001,-0.533 -0.001,-1.835 0,-1.897 -0.024,-0.136 -0.001,-0.166 0.285,-2.04 0.164,-0.698 0.173,-0.683 1.091,-2.608 l 0.426,-0.616 0.996,-1.233 2.703,-1.802 4.363,-0.806 3.984,1.185 1.422,0.996 h 14.274 c 0.044,-2.28 0.088,-4.917 0.095,-5.596 0.026,-2.329 0.074,-4.189 0.237,-8.251 0.033,-0.821 0.347,-8.021 0.38,-8.631 0.012,-0.214 0.022,-0.743 0.047,-0.996 0.008,-0.272 0.009,-0.242 0.427,-1.944 0.257,-0.978 0.282,-1.012 2.751,-4.126 l 0.616,-0.474 0.759,-0.522 0.901,-0.474 1.09,-0.38 1.233,-0.284 1.376,-0.142 1.328,0.094 1.28,0.285 1.186,0.379 0.995,0.522 0.807,0.522 0.379,0.284 c 0.772,0.714 0.911,0.943 1.186,1.281 0.136,-1.015 0.187,-2.213 0.331,-3.225 0.086,-0.603 0.804,-6.315 0.854,-6.687 0.118,-0.879 0.14,-0.977 0.237,-1.422 0.014,-0.291 0.048,-0.315 1.043,-2.656 0.396,-0.671 0.352,-0.683 1.518,-2.039 l 0.806,-0.664 1.091,-0.759 1.517,-0.664 1.945,-0.474 h 2.276 l 2.181,0.522 1.802,0.901 1.328,1.043 0.854,0.996 0.616,0.806 0.143,0.237 c 0.305,-1.275 0.326,-1.644 0.711,-3.225 0.118,-0.484 0.268,-1.017 0.332,-1.28 0.016,-0.159 0.044,-0.933 0.047,-0.996 0.118,-1.973 0.258,-3.014 0.712,-4.552 0.916,-3.111 2.869,-5.798 6.07,-7.398 1.331,-0.666 2.738,-1.135 4.505,-1.138 2.133,-0.004 4.048,0.955 5.738,2.276 0.795,-2.723 1.378,-5.42 2.276,-8.157 0.048,-0.146 0.28,-1.393 0.285,-1.422 0.287,-1.626 0.46,-2.42 0.806,-3.557 0.584,-1.918 1.416,-3.656 2.703,-5.264 1.817,-2.271 4.202,-3.897 8.109,-3.652 2.43,0.153 4.18,1.018 5.549,2.229 1.28,-0.707 2.702,-1.211 4.505,-1.185 0.909,0.013 1.652,0.37 2.466,0.616 0.342,-1.099 0.303,-1.428 0.711,-2.703 0.226,-0.708 2.562,-7.235 2.845,-8.014 0.14,-0.385 0.572,-1.538 0.664,-1.755 0.072,-0.166 0.067,-0.178 0.285,-0.616 0.175,-0.342 0.202,-0.354 1.091,-1.613 l 1.043,-1.09 6.402,-2.277 2.608,1.376 c 0.422,-1.319 0.754,-2.308 1.233,-3.794 0,-0.001 -0.001,-0.083 0,-0.095 0.02,-0.172 0.14,-1.303 0.142,-1.328 0.242,-2.509 0.37,-3.493 0.901,-5.074 1.954,-5.811 8.373,-9.758 15.033,-5.596 0.499,0.312 0.64,0.709 1.044,1.043 0.206,-0.461 0.328,-0.919 0.711,-1.47 1.021,-1.505 0.995,-1.507 4.932,-3.604 3.01,-0.565 3.023,-0.555 6.165,0.285 0.415,0.226 0.322,0.311 0.616,0.474 1.179,-4.268 4.415,-7.556 9.295,-8.109 0.328,-1.429 0.55,-2.957 0.901,-4.363 0.057,-0.227 0.044,-0.225 0.142,-0.569 10e-4,-0.311 0.042,-0.322 1.755,-3.272 1.677,-2.356 2.173,-2.473 9.627,-2.846 1.477,-2.117 3.718,-3.579 6.259,-3.936 1.195,-0.168 2.46,-0.093 3.699,0.237 0.015,0.004 0.034,-0.004 0.048,0 0.444,-2.66 0.789,-5.408 1.28,-8.109 0.918,-5.048 5.764,-8.41 10.812,-7.493 5.049,0.918 8.411,5.765 7.493,10.813 -4.254,23.397 -6.786,42.456 -11.666,84.506 -0.862,7.433 -1.206,10.14 -1.659,13.99 -0.519,4.406 -1.423,10.579 -2.514,15.981 -0.795,3.939 -1.622,7.296 -2.561,9.959 -0.639,1.815 -1.37,3.329 -2.229,4.695 -1.717,2.732 -3.966,4.795 -7.587,5.453 -2.307,0.42 -4.364,0.005 -6.212,-0.806 0.043,2.798 -0.687,5.567 -2.703,7.92 -2.87,3.348 -7.573,4.227 -11.524,2.276 -0.883,1.839 -2.003,3.615 -3.652,5.264 -2.687,2.687 -6.598,3.896 -10.575,2.561 -0.767,-0.258 -1.32,-0.673 -1.944,-1.044 -0.151,2.298 -0.247,4.558 -0.806,6.497 -1.295,4.489 -3.926,8.152 -8.204,10.291 -0.523,0.261 -1.004,0.2 -1.518,0.379 -1.19,4.847 -2.581,8.832 -4.932,11.476 -3.875,4.36 -9.992,4.848 -14.464,1.423 -0.018,-0.014 -0.029,-0.033 -0.047,-0.047 -0.234,0.858 -0.362,1.807 -0.617,2.655 -0.008,0.048 -0.083,0.485 -0.094,0.569 -0.076,0.56 -0.096,0.948 -0.19,1.423 -0.163,0.822 -0.384,1.602 -0.711,2.419 -1.205,3.006 -3.591,5.475 -7.161,6.449 -0.049,0.014 -0.094,-0.013 -0.142,0 -0.112,3.485 -0.359,6.229 -1.139,8.868 -0.517,1.75 -1.447,3.232 -2.371,4.695 200.069,0.061 274.243,-3.462 274.244,-3.462 l 334.185,26.746 18.59,-314.6 7.397,-124.673 z" id="path37"/>
            </clipPath>
            <g clip-path="url(#ClipPath_7)" id="g41">
                <path d="m -285.01,202.181 c -12.449,9.693 -23.531,21.358 -32.626,35.329 -7.973,12.247 -13.909,26.387 -18.542,41.305 5.768,-0.103 11.694,-0.24 15.507,-0.095 5.398,0.206 9.568,0.72 14.416,1.613 9.809,1.805 19.135,5.251 29.592,11.049 0.816,0.452 1.806,0.835 4.126,1.66 0.277,0.099 0.283,0.135 0.569,0.237 6.24,2.224 10.024,4.298 13.041,8.014 1.653,-5.969 3.597,-11.514 6.022,-16.076 7.348,-13.822 25.995,-26.59 47.233,-34.428 -1.468,-3.179 -1.896,-3.911 -3.651,-7.73 -0.602,-1.309 -0.632,-1.3 -1.233,-2.609 -5.699,-12.391 -9.593,-20.568 -13.516,-28.737 -9.613,-1.801 -20.565,-2.988 -32.532,-3.557 -4.626,-0.22 -7.937,-1.05 -14.843,-3.225 -0.848,-0.267 -1.178,-0.387 -1.612,-0.522 -2.986,-0.926 -4.871,-1.39 -6.639,-1.659 -1.2,-0.183 -2.614,-0.353 -5.264,-0.569 -0.01,0.008 -0.037,-0.008 -0.048,0 z" class="fill-blue" fill="#8be9fd" fill-rule="nonzero" filter="url(#Filter_6)" stroke="none" vectornator:shadowAngle="3.24648" vectornator:shadowColor="#282a36" vectornator:shadowOffset="16.9629" vectornator:shadowOpacity="0.79054" vectornator:shadowRadius="18.8858" id="path38"/>
                <path d="m -285.01,202.181 c -12.449,9.693 -23.531,21.358 -32.626,35.329 -7.973,12.247 -13.909,26.387 -18.542,41.305 5.768,-0.103 11.694,-0.24 15.507,-0.095 5.398,0.206 9.568,0.72 14.416,1.613 9.809,1.805 19.135,5.251 29.592,11.049 0.816,0.452 1.806,0.835 4.126,1.66 0.277,0.099 0.283,0.135 0.569,0.237 6.24,2.224 10.024,4.298 13.041,8.014 1.653,-5.969 3.597,-11.514 6.022,-16.076 7.348,-13.822 25.995,-26.59 47.233,-34.428 -1.468,-3.179 -1.896,-3.911 -3.651,-7.73 -0.602,-1.309 -0.632,-1.3 -1.233,-2.609 -5.699,-12.391 -9.593,-20.568 -13.516,-28.737 -9.613,-1.801 -20.565,-2.988 -32.532,-3.557 -4.626,-0.22 -7.937,-1.05 -14.843,-3.225 -0.848,-0.267 -1.178,-0.387 -1.612,-0.522 -2.986,-0.926 -4.871,-1.39 -6.639,-1.659 -1.2,-0.183 -2.614,-0.353 -5.264,-0.569 -0.01,0.008 -0.037,-0.008 -0.048,0 z" class="fill-blue" fill="#8be9fd" fill-rule="nonzero" filter="url(#Filter_7)" stroke="none" vectornator:shadowAngle="0.897928" vectornator:shadowColor="#282a36" vectornator:shadowOffset="11.2462" vectornator:shadowOpacity="0.79054" vectornator:shadowRadius="18.6259" id="path39"/>
                <path d="m -117.659,167.696 c -23.838,-5.992 -49.208,-7.017 -74.532,-3.18 -49.725,7.534 -97.006,29.332 -125.438,73.006 -49.62,76.219 -26.951,221.358 -26.951,221.358 l 84.131,-5.764 c 0,0 -16.297,-123.049 7.538,-167.887 10.216,-19.218 42.195,-36.523 72.752,-41.153 30.748,-4.659 52.297,15.979 74.624,17.685 242.998,18.557 201.088,178.642 201.088,178.642 l 64.075,1.774 c 0,0 12.116,-178.83 -212.2241,-241.07 -93.9909,-26.076 -41.2381,-27.422 -65.0629,-33.411 z" class="fill-blue stroke-orange stroke-orange" fill="#8be9fd" fill-rule="nonzero" opacity="1" stroke="#ffb86c" stroke-linecap="butt" stroke-linejoin="round" stroke-width="7.37622" id="path40"/>
                <path d="m -294.406,495.914 c 0,0 -14.817,-31.494 -16.228,-49.829 -3.166,-41.165 -3.213,-78.108 6.997,-118.95 6.232,-24.925 15.517,-58.123 39.676,-81.703 44.338,-43.274 104.264,-31.51 167.6129,-25.877 194.7782,17.318 250.3351,195.545 236.0501,274.206 -7.499,41.291 -196.948,23.352 -227.6492,42.889 -37.0778,23.595 -104.5258,31.027 -149.1368,14.297 -26.507,-9.94 -57.322,-55.033 -57.322,-55.033 z" fill="none" opacity="1" class="stroke-pink" stroke="#ff79c6" stroke-dasharray="30.3503" stroke-linecap="round" stroke-linejoin="round" stroke-width="7.37512" id="path41"/>
            </g>
        </g>
        <g opacity="1" id="g44">
            <path d="m 266.919,414.943 c -20.981,30.113 -70.485,133.825 85.515,157.737 31.224,4.786 223.87,63.803 344.702,30.881 91.928,-25.046 133.307,-74.088 151.32,-233.603 5.627,-49.83 -60.205,-62.876 -134.575,-74.014 -46.077,-6.9 -100.793,-21.35 -150.691,-18.604 -68.645,3.778 -134.63,10.924 -167.236,28.332 -48.606,25.951 -83.751,64.632 -123.089,101.845" fill="none" class="stroke-pink" stroke="#ff79c6" stroke-dasharray="30.3503" stroke-linecap="round" stroke-linejoin="round" stroke-width="7.37622" id="path42"/>
            <g class="fill-pink" fill="#ff79c6" stroke="none" id="g43">
                <path d="m 273.282,446.969 -0.37,-34.944 -0.048,-4.507 -4.409,0.939 -34.178,7.283 c -1.992,0.424 -3.263,2.383 -2.838,4.375 0.424,1.993 2.383,3.263 4.376,2.839 l 34.178,-7.282 -4.457,-3.569 0.37,34.944 c 0.022,2.037 1.691,3.67 3.727,3.649 2.037,-0.022 3.671,-1.691 3.649,-3.727 z" class="fill-pink" fill="#ff79c6" id="path43"/>
            </g>
        </g>
    </g>
</svg>
