<?xml version="1.0" encoding="UTF-8" standalone="no"?>
<!DOCTYPE svg PUBLIC "-//W3C//DTD SVG 1.1//EN" "http://www.w3.org/Graphics/SVG/1.1/DTD/svg11.dtd">
<!-- Created with Vectornator (http://vectornator.io/) -->
<svg height="100%" stroke-miterlimit="10" style="fill-rule:nonzero;clip-rule:evenodd;stroke-linecap:round;stroke-linejoin:round;" version="1.1" viewBox="0 0 1000 1000" width="100%" xml:space="preserve" xmlns="http://www.w3.org/2000/svg" xmlns:vectornator="http://vectornator.io" xmlns:xlink="http://www.w3.org/1999/xlink">
<defs/>
<clipPath id="ArtboardFrame">
<rect height="1000" width="1000" x="0" y="0"/>
</clipPath>
<g clip-path="url(#ArtboardFrame)" id="Layer-2" vectornator:layerName="Layer 2">
<path d="M-857.622-821.69L-857.622 1434.5L3117.35 1434.5L3117.35-821.69L-857.622-821.69ZM1563.41-441.877C1567.97-442.146 1572.37-440 1574.94-435.377C1582.5-421.769 1578.42-399.278 1566.38-366.034C1564.16-359.896 1561.69-353.48 1558.91-346.596C1555.88-339.087 1542.32-307.332 1540.94-303.284C1532.49-278.547 1512.04-213.431 1511.97-213.221C1493.82-155.047 1485.47-129.215 1473.94-97.2523C1469.59-85.2077 1464.2-71.7687 1456.66-53.8148C1453.56-46.4357 1439.8-14.1357 1436.16-5.47104C1427.45 15.2634 1420.74 32.0282 1414.75 48.154C1404.91 74.6955 1397.78 98.0735 1393.28 118.966C1397.87 111.867 1404.02 102.215 1404.03 102.185C1419.16 79.0391 1425.82 68.6278 1433.6 55.4665C1451.22 25.6511 1464.93-0.714884 1491.66-54.5648C1492.04-55.3252 1499.19-69.7379 1500.53-72.4398C1523.28-118.16 1538.07-146.29 1555.13-175.19C1559.36-182.361 1570.3-201.484 1570.47-201.784C1590.17-236.274 1599.57-251.788 1612.63-270.127C1626.52-289.647 1642.96-307.812 1661.28-323.94C1664.45-326.723 1669.28-329.24 1673.72-330.409C1676.75-331.206 1679.67-331.448 1682.57-330.815C1687.27-329.784 1691.07-326.463 1692.41-321.534C1693.87-316.182 1693.66-310.753 1692.16-304.971C1691.18-301.177 1689.99-298.131 1687.5-292.409C1685.82-288.542 1685.35-287.387 1684.72-285.69C1679.37-271.169 1674.54-259.792 1663.41-234.69C1663.21-234.247 1658.84-224.357 1657.22-220.659C1641.5-184.727 1628.12-154.768 1614.97-126.221C1607.33-109.63 1560.21-8.11741 1551.72 10.2165C1503.58 114.161 1441.45 257.955 1441.41 258.06C1437.17 268.224 1434.04 275.183 1424.91 294.966C1412.12 322.683 1406.27 336.36 1400.82 352.56C1398.63 359.033 1396.89 365.267 1395.38 371.373C1417.67 336.755 1437.06 300.026 1466.35 238.591C1468.11 234.897 1468.97 233.055 1472.85 224.904C1482.51 204.584 1520.55 122.481 1529.94 102.654C1559.71 39.8326 1584.09-7.02576 1609.78-48.846C1622.42-69.4159 1633.47-85.4656 1658.32-120.252C1658.81-120.946 1666.75-132.083 1669.66-136.19C1672.37-140.005 1679.35-150.852 1679.57-151.19C1691.84-170.388 1698.26-178.935 1708.57-187.659C1710-188.872 1711.43-189.782 1713.32-190.346C1717.52-191.606 1722.29-190.28 1725.07-186.19C1726.64-183.878 1727.03-181.718 1726.97-179.377C1726.94-178.289 1726.8-177.228 1726.57-176.065C1726-173.3 1724.99-170.195 1722.97-164.565C1722.86-164.257 1722.86-164.246 1722.75-163.94C1720.59-157.922 1720.13-156.597 1719.72-155.096C1719.26-153.391 1717.75-147.741 1717.63-147.284C1713.17-130.538 1710.63-121.918 1707.03-112.096C1697.63-86.4025 1687.8-66.7045 1664.63-24.471C1664.44-24.1276 1664.44-24.1267 1664.25-23.7835C1650.26 1.72442 1644.14 13.2159 1637.22 27.6852C1630.74 41.2439 1626.06 52.7005 1616.35 77.9977C1616.24 78.2726 1616.27 78.2851 1616.16 78.5602C1603.3 112.041 1597.04 126.861 1587.41 144.685C1584.33 150.388 1574.61 304.177 1566.37 319.341C1531.99 382.615 1488.24 324.525 1460.44 366.216C1453.26 376.995 1433.26 403.785 1433.22 403.841C1417.79 424.341 1411.12 433.58 1403.5 445.435C1400.52 450.081 1394.31 451.422 1389.66 448.435C1385.01 445.449 1383.67 439.268 1386.66 434.623C1394.64 422.216 1417.3 391.741 1417.35 391.685C1430.97 373.589 1436.88 365.478 1443.78 355.123C1471.18 314.037 1496.86 269.974 1530.97 207.185C1539.19 192.067 1566.71 140.923 1569.82 135.185C1578.91 118.369 1584.92 104.052 1597.47 71.3727C1597.58 71.0975 1597.59 71.1166 1597.69 70.8415C1607.6 45.0541 1612.4 33.222 1619.19 19.029C1626.32 4.11274 1632.55-7.57518 1646.72-33.4085C1646.91-33.7517 1646.91-33.7529 1647.1-34.096C1669.79-75.4507 1679.31-94.5371 1688.25-118.971C1690.22-124.355 1692-130.02 1693.91-136.627C1690.84-131.859 1688.31-127.93 1685.97-124.627C1683.04-120.497 1675.09-109.352 1674.6-108.659C1650.02-74.246 1639.13-58.4235 1626.82-38.3773C1601.58 2.70793 1577.49 48.9924 1548 111.216C1538.66 130.932 1500.63 213.057 1490.91 233.498C1487.03 241.654 1486.14 243.514 1484.38 247.216C1450.91 317.411 1430.37 356.131 1403.35 396.029C1402.35 397.493 1397.61 405.836 1397.44 406.123C1394.42 411.388 1392.52 414.453 1390.69 416.748C1389.92 417.714 1389.15 418.536 1388.28 419.279C1386.41 420.891 1384.35 421.992 1381.38 422.123C1376.5 422.338 1372.73 419.408 1371.13 415.498C1370.41 413.746 1370.19 412.123 1370.19 410.279C1370.19 389.739 1374.18 368.947 1381.85 346.185C1387.61 329.091 1393.67 314.946 1406.75 286.591C1415.77 267.047 1422.99 250.255 1423.03 250.154C1453.59 176.819 1485.33 105.97 1533.57 1.81021C1542.06-16.5363 1589.18-118.025 1596.82-134.596C1609.91-163.011 1623.21-192.836 1638.88-228.659C1640.51-232.396 1644.93-242.341 1645.13-242.784C1656.09-267.494 1660.79-278.612 1665.94-292.596C1666.75-294.794 1667.31-296.119 1669.16-300.377C1670.35-303.11 1670.66-304.252 1671.25-305.877C1655.4-291.511 1641.06-275.604 1628.91-258.534C1616.37-240.915 1607.22-225.793 1587.85-191.877C1587.68-191.578 1587.67-191.583 1587.5-191.284C1580.05-178.241 1576.65-172.283 1572.35-165.002C1555.59-136.617 1540.99-108.856 1518.44-63.5335C1517.1-60.838 1509.98-46.4516 1509.6-45.6898C1482.66 8.58511 1468.76 35.2891 1450.82 65.654C1442.83 79.1605 1420.76 113.186 1420.72 113.248C1409.53 130.377 1404.59 138.028 1398.63 147.654C1397.79 149.007 1396.51 151.728 1394.6 156.123C1394.42 156.526 1394.24 156.961 1394.03 157.435C1390.27 166.16 1390 166.753 1388.72 169.123C1388.19 170.122 1387.67 170.966 1387.1 171.748C1385.69 173.685 1384.27 175.07 1381.57 175.998C1375.33 178.14 1370.16 174.418 1368.44 169.498C1367.88 167.891 1367.72 166.445 1367.72 164.716C1367.72 131.019 1377.48 91.1396 1396 41.2165C1402.1 24.7848 1408.91 7.75176 1417.72-13.221C1421.39-21.9482 1435.15-54.2481 1438.22-61.5648C1445.64-79.23 1450.92-92.3753 1455.13-104.034C1466.53-135.629 1492.94-219.386 1493-219.596C1507.02-264.511 1513.51-284.792 1522.03-309.752C1523.7-314.625 1537.58-347.204 1540.35-354.065C1543.04-360.737 1545.43-366.956 1547.57-372.846C1553.76-389.965 1557.43-403.981 1558.44-413.596C1557.12-412.221 1556.8-411.829 1556.19-411.19C1536.36-390.483 1526.62-379.284 1517.5-365.471C1509.51-353.367 1500.37-336.688 1489.35-314.534C1485.84-307.487 1482.16-299.931 1478-291.252C1474.14-283.183 1461.44-256.301 1459.91-253.096C1453.07-238.738 1448.08-228.6 1443.63-220.034C1439.1-211.332 1426.38-189.584 1426.35-189.534C1419.93-178.673 1417.11-173.83 1413.75-167.752C1413-166.38 1411.83-163.796 1410.07-159.69C1409.96-159.434 1407.88-154.607 1407.38-153.44C1406.51-151.422 1405.85-149.979 1405.28-148.815C1404.9-148.024 1404.57-147.35 1404.22-146.752C1403.95-146.283 1403.65-145.853 1403.32-145.409C1402.54-144.382 1401.72-143.527 1400.35-142.69C1396.31-140.233 1390.6-140.59 1387.1-145.096C1385.48-147.182 1385.08-148.964 1384.97-150.971C1384.91-152.131 1385.01-153.115 1385.22-154.377C1389.6-180.647 1398.52-205.881 1414.28-240.627C1417.36-247.411 1418.63-250.191 1425.94-265.815C1437.49-290.502 1443.29-303.492 1449.07-318.502C1456.5-337.828 1461.65-355.376 1464.6-372.659C1464.94-374.679 1465.15-375.714 1466.07-380.127C1466.58-382.601 1466.86-384.044 1467.13-385.565C1467.94-390.16 1468.06-393.443 1467.69-395.94C1465.7-394.654 1463.53-392.983 1461.53-391.065C1447.67-377.752 1434.99-361.807 1420.72-340.596C1404.54-316.541 1389.31-290.381 1371.66-257.159C1365.55-245.654 1351.42-214.292 1351.38-214.19C1344.5-198.703 1341.29-191.677 1337.1-183.065C1334.33-177.386 1316.38-145.729 1315.25-143.69C1312.85-139.316 1310.64-135.254 1308.63-131.377C1302.6-119.774 1298.18-110.063 1295.47-102.127C1294.03-97.9104 1293.12-94.3107 1292.75-91.4398C1292.67-90.8289 1292.81-90.7544 1292.78-90.2523C1293.48-90.3183 1293.48-90.2458 1294.57-90.3773C1299.46-90.9701 1301.6-91.0917 1304.57-90.721C1310.05-90.036 1313.91-85.045 1313.22-79.5648C1312.54-74.0848 1307.55-70.1923 1302.07-70.8773C1301.36-70.966 1300.1-70.8808 1296.97-70.5023C1292.08-69.9097 1289.94-69.7878 1286.97-70.1585C1281.19-70.881 1276.35-73.9125 1274.13-79.6898C1271.24-87.1939 1272.47-96.5635 1276.57-108.565C1279.66-117.621 1284.43-128.18 1290.88-140.596C1292.97-144.625 1295.24-148.84 1297.72-153.346C1299.16-155.961 1316.69-186.832 1319.13-191.846C1323.19-200.177 1333.15-222.432 1333.19-222.534C1343.03-244.673 1347.6-254.509 1354-266.565C1371.95-300.348 1387.5-327.069 1404.13-351.784C1419.12-374.076 1432.6-391.016 1447.66-405.471C1451.52-409.181 1455.98-412.624 1460.28-414.846C1463.54-416.524 1466.71-417.564 1470-417.659C1474.93-417.8 1479.52-415.747 1482.53-411.596C1488.38-403.553 1489-394.506 1486.82-382.096C1486.5-380.319 1486.18-378.696 1485.63-376.034C1484.77-371.906 1484.57-370.994 1484.28-369.315C1481.94-355.607 1478.35-341.842 1473.5-327.409C1483.89-348.062 1492.84-364.419 1500.82-376.502C1510.8-391.623 1521.09-403.489 1541.72-425.034C1542.36-425.701 1542.63-425.977 1544.1-427.502C1544.71-428.142 1547.99-431.878 1548.19-432.096C1549.18-433.197 1550.07-434.158 1550.94-435.034C1553.64-437.743 1556.03-439.633 1558.85-440.815C1560.34-441.441 1561.89-441.788 1563.41-441.877ZM1060.16-126.471C1061.44-126.672 1062.79-126.65 1064.13-126.315C1069.49-124.975 1072.75-119.548 1071.41-114.19C1037.1 23.0454 1021.18 174.79 1024.13 325.154C1024.57 347.754 1026.81 371.478 1030.82 398.685C1031.4 402.658 1031.49 405.922 1031.44 413.716C1031.43 414.778 1031.41 415.282 1031.41 415.873C1031.38 422.771 1031.65 426.615 1032.41 429.373C1032.58 429.977 1032.76 430.478 1032.94 430.841C1033.02 431.006 1033.08 431.048 1033.13 431.123C1033.14 431.129 1033.18 431.142 1033.22 431.123C1033.65 430.91 1034.29 430.347 1035.1 429.31C1037.11 426.717 1039.13 422.47 1041.25 416.498C1042.29 413.577 1045.51 403.578 1045.44 403.779C1050.1 389.788 1052.31 377.091 1055.5 350.966C1055.57 350.451 1055.64 350.059 1055.75 349.123C1057.08 338.25 1057.71 333.336 1058.63 327.248C1062.47 301.769 1071.85 235.297 1071.88 235.123C1080.21 175.752 1084.02 149.349 1089.22 116.404C1090.28 109.706 1093.01 92.1286 1093.03 91.9977C1097.7 61.7812 1099.87 48.1402 1102.85 31.2477C1103.09 29.8717 1103.39 27.9032 1103.75 25.154C1103.97 23.5023 1104.77 17.1798 1104.78 17.029C1105.78 9.23397 1106.48 4.65891 1107.28 1.24771C1107.59-0.0276639 1107.9-1.12209 1108.28-2.12729C1109.17-4.43047 1110.23-6.19579 1112.57-7.81479C1118.08-11.6398 1124.21-9.35841 1127.19-4.87729C1128.19-3.37934 1128.76-1.88666 1129.22-0.0335449C1132.85 14.4751 1133.97 29.7294 1133.07 46.7165C1132.36 60.0671 1130.59 73.1998 1127.22 92.529C1126.77 95.1405 1126.38 97.3225 1125.57 101.873C1121.86 122.654 1120.42 131.658 1119.25 142.81C1108.41 246.94 1101.93 326.987 1098.91 403.935C1098.83 405.832 1097.98 427.286 1097.82 431.623C1096.5 466.158 1095.74 492.647 1095.53 518.81C1095.41 534.77 1095.58 549.404 1095.91 563.248C1095.91 563.205 1095.97 562.373 1095.97 562.373C1097.36 541.96 1098.08 532.826 1099.38 521.404C1100.2 514.169 1103.76 481.375 1104.35 476.029C1111.45 411.772 1118.01 372.674 1130.35 332.591C1130.63 331.666 1130.94 330.688 1131.28 329.529C1131.58 328.536 1133.72 321.254 1134.19 319.748C1136.78 311.393 1139.21 305.185 1142.41 299.56C1146.67 292.081 1152.01 286.322 1158.91 282.56C1166.78 278.265 1174.35 281.492 1178.94 288.373C1181.36 291.994 1183.09 296.629 1184.66 302.529C1185.14 304.342 1185.6 306.21 1186.07 308.31C1186.24 309.109 1187.02 312.708 1187.1 313.06C1190.5 329.122 1191.96 342.021 1194.38 370.935C1194.4 371.218 1194.42 371.215 1194.44 371.498C1195.71 386.657 1196.36 393.807 1197.41 402.31C1198.68 412.599 1201.87 439.939 1201.94 440.529C1207.32 486.973 1210.1 508.508 1214.38 534.498C1223.89 592.247 1233.61 642.6 1244.82 690.216C1246.17 695.978 1251.02 717.165 1251.57 719.529C1262.62 767.656 1270.04 793.81 1281.69 821.154C1289.01 838.335 1294.85 850.283 1301.63 861.123C1309.91 874.363 1318.88 884.497 1329.19 891.685C1340.85 899.813 1360.23 899.998 1381.88 893.685C1384.14 893.024 1386.06 890.464 1390.22 882.029C1393.22 875.941 1394.67 873.282 1397.07 870.091C1400.38 865.673 1406.65 864.777 1411.07 868.091C1415.48 871.405 1416.38 877.673 1413.07 882.091C1411.68 883.937 1410.6 885.931 1408.16 890.873C1405.16 896.961 1403.68 899.651 1401.28 902.841C1397.59 907.772 1393.13 911.222 1387.47 912.873C1360.59 920.713 1335.53 920.483 1317.75 908.091C1305.01 899.207 1294.27 887.084 1284.66 871.716C1277.21 859.804 1270.98 847.057 1263.28 828.998C1251.03 800.255 1243.4 773.219 1232.1 723.998C1231.55 721.625 1226.69 700.518 1225.35 694.81C1214.03 646.708 1204.21 595.912 1194.63 537.748C1190.28 511.34 1187.48 489.568 1182.07 442.81C1182 442.22 1182.01 442.213 1181.94 441.623C1179.8 423.178 1178.82 414.974 1177.57 404.748C1176.48 395.903 1174.5 372.875 1174.47 372.591C1172.12 344.513 1170.68 332.184 1167.5 317.216C1167.42 316.845 1166.7 313.386 1166.53 312.654C1166.13 310.812 1165.75 309.192 1165.35 307.685C1164.92 306.077 1164.46 304.787 1164.03 303.56C1159.9 307.846 1156.64 314.827 1153.28 325.654C1152.85 327.054 1149.78 337.496 1149.47 338.498C1137.6 377.069 1131.2 415.156 1124.22 478.248C1123.63 483.571 1120.08 516.374 1119.25 523.654C1118.01 534.682 1115.91 563.729 1115.91 563.748C1114.5 584.447 1113.76 593.682 1112.44 605.248C1112.16 607.741 1112.1 610.053 1112.1 615.498C1112.1 616.219 1112.1 616.531 1112.1 616.935C1112.09 623.833 1111.88 627.914 1111 632.341C1109.73 638.78 1107.15 644.221 1102.78 648.591C1099.04 652.333 1093.77 653.976 1088.5 651.154C1085.04 649.299 1083.3 646.518 1082.07 642.935C1080.9 639.549 1080.25 635.321 1079.75 629.404C1079.64 628.12 1079.24 622.16 1079.19 621.435C1079.11 620.254 1079.04 619.398 1078.97 618.716C1076.26 591.619 1075.22 558.267 1075.53 518.654C1075.75 492.251 1076.49 465.591 1077.82 430.873C1077.98 426.526 1078.84 405.047 1078.91 403.154C1080.6 360.074 1083.51 315.554 1087.5 266.998C1084.28 289.69 1081.06 312.668 1078.41 330.248C1077.53 336.087 1075.44 352.887 1075.38 353.404C1072.03 380.819 1069.63 394.436 1064.41 410.091C1064.56 409.628 1061.26 419.914 1060.1 423.185C1057.32 431.001 1054.53 436.898 1050.91 441.56C1045.33 448.745 1037.88 452.491 1029.16 450.748C1020.7 449.056 1015.45 443.082 1013.13 434.716C1011.72 429.618 1011.37 424.482 1011.41 415.779C1011.41 415.163 1011.43 414.671 1011.44 413.591C1011.49 406.907 1011.41 404.164 1011.03 401.591C1006.92 373.61 1004.59 349.063 1004.13 325.529C1001.15 173.45 1017.25 19.971 1052-119.034C1053.01-123.052 1056.31-125.869 1060.16-126.471ZM1653.57 349.498C1655.82 349.498 1657.43 349.685 1660.91 350.185C1663.42 350.547 1664.44 350.654 1665.41 350.654C1670.93 350.654 1675.41 355.131 1675.41 360.654C1675.41 366.177 1670.93 370.654 1665.41 370.654C1663.16 370.654 1661.54 370.498 1658.07 369.998C1655.55 369.636 1654.53 369.498 1653.57 369.498C1653.16 369.498 1652.87 369.55 1652.66 369.591C1652.57 369.61 1652.53 369.592 1652.53 369.591C1644.62 373.55 1629.34 388.848 1617.97 405.029C1605.34 423.014 1599.68 438.799 1602.72 446.091C1602.77 446.217 1603.39 446.82 1604.28 447.279C1604.76 447.524 1605.24 447.694 1605.6 447.748C1609.01 446.56 1614.11 439.77 1621.07 426.654C1621.94 425.003 1625.72 417.689 1626.72 415.81C1628.96 411.608 1630.74 408.544 1632.5 405.904C1634.95 402.234 1637.32 399.487 1640.1 397.56C1644.73 394.346 1650.38 393.694 1655.5 396.623C1657.85 397.963 1659.06 399.57 1660.1 401.623C1660.56 402.553 1660.94 403.569 1661.32 404.716C1661.88 406.451 1662.45 408.619 1663.03 411.279C1664.02 415.746 1665.08 421.641 1666.19 428.623C1667.62 437.565 1668.9 447.289 1669.75 454.185C1670.33 453.38 1671 452.598 1671.88 451.873C1676.4 448.14 1681.68 448.782 1685.85 451.56C1690.54 454.691 1693.88 459.062 1696.28 464.529C1697.96 468.34 1699.03 472.132 1700.28 477.904C1700.38 478.322 1700.78 480.294 1700.85 480.623C1701.51 483.753 1701.9 485.348 1702.35 486.966C1703.74 492.016 1704.81 497.046 1705.85 502.841L1725 502.841C1725 502.842 1725 503.579 1725 504.498C1725 542.149 1727.88 574.237 1735.72 638.373C1735.88 639.673 1735.99 640.696 1736.28 643.091C1743.52 702.202 1746.19 728.65 1747.35 762.091C1747.82 775.89 1747.66 793.136 1746.44 808.373C1745.6 818.872 1744.3 827.9 1742.41 835.123C1739.79 845.106 1736.12 852.011 1729.78 855.529C1723.85 858.825 1717.27 858.091 1712.22 853.716C1708.92 850.859 1706.52 846.759 1704.38 841.216C1701.29 833.24 1698.71 822.233 1695.28 803.966C1695.1 803.008 1694.96 802.006 1694.78 801.06C1695.02 806.491 1695.25 811.751 1695.25 816.998C1695.25 819.094 1695.34 831.493 1695.35 833.904C1695.36 842.244 1695.22 848.407 1694.88 853.279C1694.66 856.422 1694.37 858.972 1693.91 861.06C1693.58 862.56 1693.14 863.888 1692.53 865.154C1691.25 867.827 1689.32 870.029 1685.94 871.154C1682.26 872.382 1678.71 871.727 1675.6 869.966C1673.74 868.918 1672.08 867.479 1670.41 865.685C1668 863.097 1665.44 859.574 1662.38 854.779C1658.74 849.081 1643.29 822.446 1644.41 824.341C1638.5 814.353 1633.71 806.854 1629.19 800.779C1623.44 793.045 1618.57 788.32 1615.32 786.966C1614.93 786.806 1614.69 786.766 1614.53 786.748C1614.42 786.808 1614.26 786.903 1613.97 787.185C1613.39 787.757 1612.74 788.64 1612.03 789.841C1606.89 798.593 1603.38 808.817 1601 821.373C1599.14 831.235 1598.25 839.642 1596.72 858.748C1596.53 861.116 1596.48 862.035 1596.38 863.279C1594.53 885.98 1592.77 898.868 1588.97 912.498C1583.93 930.582 1575.81 945.538 1563.35 957.998C1559.92 961.428 1556.31 963.565 1552.69 964.685C1553.03 967.893 1553.13 970.625 1552.78 973.248C1551.99 979.315 1549.02 984.347 1543.41 987.154C1536.46 990.63 1529.77 988.092 1525.38 982.498C1523.17 979.678 1521.57 976.32 1519.82 971.623C1519.43 970.587 1517.64 965.557 1517.25 964.591C1515.03 959.043 1513.41 952.423 1511.25 941.31C1510.86 939.269 1509.5 932.12 1509.38 931.498C1508.62 927.548 1508.01 924.487 1507.38 921.529C1502.33 897.786 1496.24 884.671 1487.57 880.623C1481.4 877.744 1471.89 886.049 1460.47 905.716C1457.56 910.724 1455.49 914.677 1451.1 923.248C1441.79 941.421 1433.72 960.86 1426.88 981.373C1425.78 984.669 1424.99 986.835 1422.6 993.279C1419.61 1001.32 1417.69 1007.27 1416.41 1012.4C1416.74 1012.2 1417.06 1011.91 1417.41 1011.72C1422.21 1008.98 1428.29 1010.64 1431.03 1015.44C1433.77 1020.23 1432.11 1026.32 1427.32 1029.06C1426.57 1029.48 1425.19 1030.63 1422.1 1033.37C1417.73 1037.25 1416.01 1038.68 1413.53 1040.09C1410.54 1041.8 1407.62 1042.69 1403.97 1041.87C1398.51 1040.65 1395.64 1036.32 1395.07 1031.47C1394.16 1023.8 1394.87 1016.03 1396.94 1007.53C1398.44 1001.36 1400.14 996.281 1403.85 986.31C1406.15 980.097 1406.91 978.06 1407.91 975.06C1415.06 953.614 1423.5 933.254 1433.28 914.154C1437.83 905.274 1440.05 901.095 1443.19 895.685C1449.9 884.126 1456.39 875.286 1463.44 869.123C1473.55 860.294 1484.81 857.292 1496.03 862.529C1503.92 866.207 1509.98 872.738 1514.85 881.466C1514.8 880.533 1514.73 879.762 1514.69 878.81C1514.56 875.792 1514.1 862.931 1514.07 862.029C1513.9 857.68 1513.88 854.261 1513.97 846.654C1513.97 846.654 1514.03 841.354 1514.03 839.341C1514.03 838.046 1513.95 836.177 1513.66 831.685C1513.34 826.631 1513.22 824.667 1513.22 822.748C1513.22 821.967 1513.25 821.281 1513.32 820.623C1513.37 820.082 1513.44 819.56 1513.57 818.998C1513.85 817.726 1514.28 816.558 1515.22 815.216C1517.68 811.706 1522.32 809.757 1527.07 811.56C1529.6 812.523 1530.99 813.921 1532.1 815.654C1532.76 816.696 1533.14 817.63 1533.53 818.81C1544.74 852.438 1550.38 895.899 1551.22 941.56C1559.89 932.144 1565.87 920.966 1569.72 907.123C1573.08 895.07 1574.69 883.149 1576.44 861.654C1576.54 860.42 1576.6 859.513 1576.78 857.154C1578.37 837.329 1579.33 828.457 1581.38 817.654C1584.15 802.996 1588.35 790.63 1594.78 779.685C1601.55 768.192 1611.96 763.929 1622.97 768.498C1630.45 771.599 1637.51 778.458 1645.25 788.873C1650.27 795.626 1655.39 803.613 1661.63 814.154C1660.93 812.978 1669.66 827.856 1675.28 837.31C1675.29 835.972 1675.35 835.421 1675.35 833.935C1675.34 831.572 1675.25 819.159 1675.25 816.998C1675.25 803.34 1674.55 792.3 1672.25 764.091C1671.49 754.742 1671.09 749.749 1670.69 744.091C1668.25 709.634 1668.57 685.774 1672.97 663.748C1673.18 662.712 1673.41 661.859 1673.85 660.873C1674.41 659.612 1675.15 658.428 1676.44 657.279C1679.23 654.796 1683.34 653.88 1687.19 655.56C1689.57 656.598 1690.94 658.111 1691.94 659.841C1692.35 660.556 1692.65 661.194 1692.88 661.873C1693.11 662.573 1693.27 663.249 1693.41 663.998C1693.71 665.569 1693.92 667.455 1694.25 671.029C1694.29 671.414 1694.34 671.759 1694.41 672.498C1694.75 676.162 1694.92 677.892 1695.1 678.904C1697.66 693.62 1703.78 732.785 1703.91 733.654C1708.91 766.104 1711.48 781.809 1714.94 800.279C1717.88 815.931 1720.13 825.368 1722.41 831.873C1722.63 831.173 1722.86 830.821 1723.07 830.029C1724.61 824.131 1725.75 816.204 1726.5 806.779C1727.65 792.417 1727.8 775.88 1727.35 762.779C1726.22 730.112 1723.6 704.032 1716.44 645.498C1716.15 643.101 1716.04 642.111 1715.88 640.81C1715.83 640.412 1715.8 640.144 1715.75 639.748C1714.19 639.879 1712.62 639.765 1711.1 639.248C1708.9 638.5 1707.13 637.253 1705.47 635.591C1700.65 630.768 1698.13 624.734 1697.28 617.56C1696.73 612.835 1696.83 609.137 1697.44 600.841C1697.45 600.743 1697.46 600.721 1697.47 600.623C1697.98 593.696 1698.05 590.654 1697.66 587.623C1697.52 586.564 1697.22 584.269 1697.07 583.029C1694.04 559.453 1692.39 547.217 1690.25 533.31C1689.83 530.547 1688.65 522.386 1688.6 521.998C1687.38 513.426 1686.38 507.573 1685.35 502.404C1684.25 512.36 1683.02 523.324 1682.78 525.466C1682.63 526.839 1682.67 529.096 1682.85 534.435C1683.06 541.012 1683.09 543.549 1682.78 546.31C1682.65 547.52 1682.43 548.602 1682.1 549.685C1681.42 551.877 1680.35 553.832 1678.22 555.498C1674.73 558.238 1670.23 558.365 1666.63 556.435C1664.82 555.465 1663.54 554.239 1662.38 552.685C1659.26 548.532 1657.45 543.777 1656.57 538.31C1655.95 534.551 1655.8 531.29 1655.78 525.373C1655.78 524.991 1655.79 524.969 1655.78 524.591C1655.78 519.802 1655.73 517.778 1655.47 515.56C1654.57 507.667 1652.88 487.252 1652.88 487.216C1651.83 474.074 1651.31 468.196 1650.5 460.966C1649.86 455.145 1648.07 441.978 1646.44 431.748C1645.94 428.594 1645.51 426.674 1645.03 424.06C1644.78 424.533 1644.65 424.703 1644.38 425.216C1643.44 426.983 1639.65 434.278 1638.72 436.029C1634.62 443.762 1631.41 449.17 1627.88 453.841C1622.84 460.516 1617.58 465.007 1611.32 466.935C1601.04 470.096 1588.35 463.622 1584.25 453.779C1577.68 437.991 1585.27 416.769 1601.6 393.529C1614.7 374.88 1632.15 357.44 1643.6 351.716C1646.73 350.152 1650 349.498 1653.57 349.498Z" fill="#282a36" fill-rule="nonzero" opacity="1" stroke="#282a36" stroke-linecap="butt" stroke-linejoin="miter" stroke-width="116.778"/>
</g>
<g id="Layer-1" vectornator:layerName="Layer 1">
<path d="M481.208 461.703C534.075 409.643 607.545 241.199 707.159 195.176C752.257 174.34 828.002 138.903 959.554 333.001C994.73 384.901 929.646 454.377 902.784 487.044" fill="none" opacity="1" stroke="#bd93f9" stroke-linecap="round" stroke-linejoin="miter" stroke-width="24.4437"/>
<path d="M926.155 188.38C1012.82 128.996 928.579 61.9328 751.885 61.7792C627.89 61.6714 213.595 50.3545 118.111 100.78C-1.40794 163.899 51.7497 279.141 62.4071 297.718C91.8715 349.078 200.833 395.191 223.717 449.969C234.914 476.771 255.744 516.539 204.583 560.079" fill="none" opacity="1" stroke="#bd93f9" stroke-linecap="round" stroke-linejoin="miter" stroke-width="24.4437"/>
<path d="M846.155 287.954C792.463 348.561 776.262 340.781 763.705 406.783C768.278 497.579 905.907 527.913 949.59 605.918C970.418 673.062 935.474 691.877 884.703 730.86" fill="none" opacity="1" stroke="#bd93f9" stroke-linecap="round" stroke-linejoin="miter" stroke-width="24.4437"/>
<path d="M840.358 569.111C840.358 569.111 786.854 619.864 786.141 649.418C785.515 675.373 837.717 738.482 874.679 785.9C898.782 816.821 957.874 849.57 927.872 899.059C884.259 970.999 335.444 935.527 154.792 848.178C85.0503 814.456 70.996 705.333 125.967 647.604" fill="none" opacity="1" stroke="#bd93f9" stroke-linecap="round" stroke-linejoin="miter" stroke-width="24.4437"/>
<path d="M805.791 785.983C656.619 887.322 318.266 221.308 170.52 329.957" fill="none" opacity="1" stroke="#bd93f9" stroke-linecap="round" stroke-linejoin="miter" stroke-width="24.4437"/>
<path d="M400.468 550.956C371.68 574.267 316.222 683.549 237.919 654.966C159.615 626.383 24.2615 484.906 97.3319 398.333" fill="none" opacity="1" stroke="#bd93f9" stroke-linecap="round" stroke-linejoin="miter" stroke-width="24.4437"/>
</g>
<g id="Layer-3" vectornator:layerName="Layer 3">
<path d="M133.562 287.062C96.2592 288.849 65.7444 317.811 63.875 354.844C61.881 394.346 93.2241 428.01 133.875 430.062C174.526 432.115 209.131 401.783 211.125 362.281C213.119 322.779 181.745 289.114 141.094 287.062C138.553 286.934 136.049 286.943 133.562 287.062Z" fill="#282a36" fill-rule="nonzero" opacity="1" stroke="none"/>
<path d="M154.17 544.659C116.867 546.445 86.3521 575.407 84.4827 612.44C82.4887 651.942 113.832 685.607 154.483 687.659C195.134 689.711 229.739 659.38 231.733 619.878C233.727 580.376 202.352 546.711 161.701 544.659C159.161 544.531 156.657 544.54 154.17 544.659Z" fill="#282a36" fill-rule="nonzero" opacity="1" stroke="none"/>
<path d="M435.809 433.377C398.506 435.164 367.991 464.126 366.122 501.159C364.128 540.66 395.471 574.325 436.122 576.377C476.773 578.429 511.378 548.098 513.372 508.596C515.366 469.094 483.991 435.429 443.34 433.377C440.8 433.249 438.296 433.258 435.809 433.377Z" fill="#282a36" fill-rule="nonzero" opacity="1" stroke="none"/>
<path d="M877.501 164.79C840.198 166.576 809.683 195.538 807.814 232.571C805.82 272.073 837.163 305.738 877.814 307.79C918.465 309.842 953.07 279.511 955.064 240.009C957.058 200.507 925.683 166.842 885.033 164.79C882.492 164.662 879.988 164.671 877.501 164.79Z" fill="#282a36" fill-rule="nonzero" opacity="1" stroke="none"/>
<path d="M866.401 462.638C829.098 464.425 798.583 493.387 796.714 530.42C794.72 569.922 826.063 603.586 866.714 605.638C907.365 607.69 941.97 577.359 943.964 537.857C945.958 498.355 914.583 464.69 873.932 462.638C871.392 462.51 868.888 462.519 866.401 462.638Z" fill="#282a36" fill-rule="nonzero" opacity="1" stroke="none"/>
<path d="M855.496 689.469C818.193 691.256 787.678 720.218 785.808 757.251C783.814 796.753 815.157 830.417 855.808 832.469C896.459 834.521 931.064 804.19 933.058 764.688C935.052 725.186 903.678 691.521 863.027 689.469C860.486 689.341 857.983 689.35 855.496 689.469Z" fill="#282a36" fill-rule="nonzero" opacity="1" stroke="none"/>
</g>
</svg>
