<?xml version="1.0" encoding="UTF-8" standalone="no"?>
<!-- Created with Inkscape (http://www.inkscape.org/) -->

<svg
   viewBox="0 0 190.45123 190.28697"
   version="1.1"
   id="svg21826"
   xml:space="preserve"
   inkscape:version="1.3.2 (091e20ef0f, 2023-11-25)"
   sodipodi:docname="41.svg"
   xmlns:inkscape="http://www.inkscape.org/namespaces/inkscape"
   xmlns:sodipodi="http://sodipodi.sourceforge.net/DTD/sodipodi-0.dtd"
   xmlns="http://www.w3.org/2000/svg"
   xmlns:svg="http://www.w3.org/2000/svg">

    <sodipodi:namedview
   id="namedview21828"
   pagecolor="#282a36"
   bordercolor="#666666"
   borderopacity="1.0"
   inkscape:showpageshadow="2"
   inkscape:pageopacity="0.0"
   inkscape:pagecheckerboard="0"
   inkscape:deskcolor="#d1d1d1"
   inkscape:document-units="mm"
   showgrid="false"
   inkscape:zoom="5.0783364"
   inkscape:cx="100.22967"
   inkscape:cy="134.19749"
   inkscape:window-width="3840"
   inkscape:window-height="2091"
   inkscape:window-x="0"
   inkscape:window-y="0"
   inkscape:window-maximized="1"
   inkscape:current-layer="layer1" />
    

    <defs
   id="defs21823" />
 
    <g
   inkscape:label="Layer 1"
   inkscape:groupmode="layer"
   id="layer1"
   transform="translate(-9.2228509,-48.352349)">
        
 
 
 
        <g
   id="g1"
   transform="matrix(0.25126708,0,0,0.25126708,76.663207,101.34018)"
   style="display:inline"
   sodipodi:insensitive="true"><path
     id="path1"
     d="m -26.761728,-63.55382 c 15.520001,11.786666 45.908705,17.648504 58.897244,44.95656"
     style="fill:none;stroke:#282a36;stroke-width:52.6466;stroke-linecap:butt;stroke-linejoin:miter;stroke-miterlimit:10;stroke-dasharray:none;stroke-opacity:1"
     sodipodi:nodetypes="cc" /><path
     id="path2"
     d="m -130.31394,-104.52453 c 24.6716,43.695251 128.9503452,24.629829 162.449456,85.92727"
     style="fill:none;stroke:#ffb86c;stroke-width:15.0419;stroke-linecap:round;stroke-linejoin:miter;stroke-miterlimit:10;stroke-dasharray:none;stroke-opacity:1"
     sodipodi:nodetypes="cc" /><path
     id="path3"
     d="M -43.904482,85.469404 C -26.691149,98.05607 -7.9044828,110.92274 14.335517,125.37607"
     style="fill:none;stroke:#282a36;stroke-width:52.6466;stroke-linecap:butt;stroke-linejoin:miter;stroke-miterlimit:10;stroke-dasharray:none;stroke-opacity:1"
     sodipodi:nodetypes="cc" /><path
     id="path4"
     d="M -43.904482,85.469404 C -26.691149,98.05607 -7.9044828,110.92274 14.335517,125.37607"
     style="fill:none;stroke:#ffb86c;stroke-width:15.0419;stroke-linecap:round;stroke-linejoin:miter;stroke-miterlimit:10;stroke-dasharray:none;stroke-opacity:1" /><path
     id="path5"
     d="m -47.904482,201.73607 c 13.693333,13.56 31.226666,26.77333 54.3599989,40.96"
     style="fill:none;stroke:#282a36;stroke-width:52.6466;stroke-linecap:butt;stroke-linejoin:miter;stroke-miterlimit:10;stroke-dasharray:none;stroke-opacity:1"
     sodipodi:nodetypes="cc" /><path
     id="path6"
     d="m -47.904482,201.73607 c 13.693333,13.56 31.226666,26.77333 54.3599989,40.96"
     style="fill:none;stroke:#ffb86c;stroke-width:15.0419;stroke-linecap:round;stroke-linejoin:miter;stroke-miterlimit:10;stroke-dasharray:none;stroke-opacity:1" /><path
     id="path7"
     d="m -49.037815,321.01606 c 12.133333,15.69334 28.879999,30.49334 51.9466653,45.86667"
     style="fill:none;stroke:#282a36;stroke-width:52.6466;stroke-linecap:butt;stroke-linejoin:miter;stroke-miterlimit:10;stroke-dasharray:none;stroke-opacity:1"
     sodipodi:nodetypes="cc" /><path
     id="path8"
     d="m -49.037815,321.01606 c 12.133333,15.69334 28.879999,30.49334 51.9466653,45.86667"
     style="fill:none;stroke:#ffb86c;stroke-width:15.0419;stroke-linecap:round;stroke-linejoin:miter;stroke-miterlimit:10;stroke-dasharray:none;stroke-opacity:1" /><path
     id="path9"
     d="M 253.45551,222.76273 C 239.22884,205.61607 225.40218,187.65607 210.58885,167.09607"
     style="fill:none;stroke:#282a36;stroke-width:52.6466;stroke-linecap:butt;stroke-linejoin:miter;stroke-miterlimit:10;stroke-dasharray:none;stroke-opacity:1"
     sodipodi:nodetypes="cc" /><path
     id="path10"
     d="M 253.45551,222.76273 C 239.22884,205.61607 225.40218,187.65607 210.58885,167.09607"
     style="fill:none;stroke:#ffb86c;stroke-width:15.0419;stroke-linecap:round;stroke-linejoin:miter;stroke-miterlimit:10;stroke-dasharray:none;stroke-opacity:1" /><path
     id="path13"
     d="M 0.72218369,365.41606 C 23.78885,380.78913 44.335516,392.44286 64.442182,401.5626"
     style="fill:none;stroke:#282a36;stroke-width:52.6466;stroke-linecap:butt;stroke-linejoin:miter;stroke-miterlimit:10;stroke-dasharray:none;stroke-opacity:1"
     sodipodi:nodetypes="cc" /><path
     id="path14"
     d="M 0.72218369,365.41606 C 23.78885,380.78913 44.335516,392.44286 64.442182,401.5626"
     style="fill:none;stroke:#ffb86c;stroke-width:15.0419;stroke-linecap:round;stroke-linejoin:miter;stroke-miterlimit:10;stroke-dasharray:none;stroke-opacity:1" /><path
     id="path15"
     d="M 30.54885,-20.143927 C 47.228849,-3.8905937 58.242182,10.922739 64.668849,25.789406"
     style="fill:none;stroke:#282a36;stroke-width:52.6466;stroke-linecap:butt;stroke-linejoin:miter;stroke-miterlimit:10;stroke-dasharray:none;stroke-opacity:1"
     sodipodi:nodetypes="cc" /><path
     id="path16"
     d="M 30.54885,-20.143927 C 47.228849,-3.8905937 58.242182,10.922739 64.668849,25.789406"
     style="fill:none;stroke:#ffb86c;stroke-width:15.0419;stroke-linecap:round;stroke-linejoin:miter;stroke-miterlimit:10;stroke-dasharray:none;stroke-opacity:1" /><path
     id="path17"
     d="m -62.571148,49.309405 c -3.453333,12.733333 3.093333,24.773333 20.306666,37.359999"
     style="fill:none;stroke:#282a36;stroke-width:52.6466;stroke-linecap:butt;stroke-linejoin:miter;stroke-miterlimit:10;stroke-dasharray:none;stroke-opacity:1"
     sodipodi:nodetypes="cc" /><path
     id="path18"
     d="m -62.571148,49.309405 c -3.453333,12.733333 3.093333,24.773333 20.306666,37.359999"
     style="fill:none;stroke:#ffb86c;stroke-width:15.0419;stroke-linecap:round;stroke-linejoin:miter;stroke-miterlimit:10;stroke-dasharray:none;stroke-opacity:1" /><path
     id="path19"
     d="m 212.00218,169.05607 c -14.82667,-20.56 -24.17333,-40.37333 -29,-61.41333"
     style="fill:none;stroke:#282a36;stroke-width:52.6466;stroke-linecap:butt;stroke-linejoin:miter;stroke-miterlimit:10;stroke-dasharray:none;stroke-opacity:1"
     sodipodi:nodetypes="cc" /><path
     id="path20"
     d="m 212.00218,169.05607 c -14.82667,-20.56 -24.17333,-40.37333 -29,-61.41333"
     style="fill:none;stroke:#ffb86c;stroke-width:15.0419;stroke-linecap:round;stroke-linejoin:miter;stroke-miterlimit:10;stroke-dasharray:none;stroke-opacity:1" /><path
     id="path21"
     d="m 278.40218,276.20273 c -3.58667,-20.14666 -12.06667,-37.90666 -26.29334,-55.06666"
     style="fill:none;stroke:#282a36;stroke-width:52.6466;stroke-linecap:butt;stroke-linejoin:miter;stroke-miterlimit:10;stroke-dasharray:none;stroke-opacity:1"
     sodipodi:nodetypes="cc" /><path
     id="path22"
     d="m 278.40218,276.20273 c -3.58667,-20.14666 -12.06667,-37.90666 -26.29334,-55.06666"
     style="fill:none;stroke:#ffb86c;stroke-width:15.0419;stroke-linecap:round;stroke-linejoin:miter;stroke-miterlimit:10;stroke-dasharray:none;stroke-opacity:1" /><path
     id="path23"
     d="m -51.077815,163.9094 c -10.653333,12.94667 -9.213333,25.56 4.48,39.12"
     style="fill:none;stroke:#282a36;stroke-width:52.6466;stroke-linecap:butt;stroke-linejoin:miter;stroke-miterlimit:10;stroke-dasharray:none;stroke-opacity:1"
     sodipodi:nodetypes="cc" /><path
     id="path24"
     d="m -51.077815,163.9094 c -10.653333,12.94667 -9.213333,25.56 4.48,39.12"
     style="fill:none;stroke:#ffb86c;stroke-width:15.0419;stroke-linecap:round;stroke-linejoin:miter;stroke-miterlimit:10;stroke-dasharray:none;stroke-opacity:1" /><path
     id="path25"
     d="M 4.2555169,241.3494 C 27.38885,255.53607 41.708849,268.81607 48.628849,282.52273"
     style="fill:none;stroke:#282a36;stroke-width:52.6466;stroke-linecap:butt;stroke-linejoin:miter;stroke-miterlimit:10;stroke-dasharray:none;stroke-opacity:1"
     sodipodi:nodetypes="cc" /><path
     id="path26"
     d="M 4.2555169,241.3494 C 27.38885,255.53607 41.708849,268.81607 48.628849,282.52273"
     style="fill:none;stroke:#ffb86c;stroke-width:15.0419;stroke-linecap:round;stroke-linejoin:miter;stroke-miterlimit:10;stroke-dasharray:none;stroke-opacity:1" /><path
     id="path27"
     d="m -47.877815,278.80273 c -12.12,13.90667 -12.12,28.01334 0,43.70667"
     style="fill:none;stroke:#282a36;stroke-width:52.6466;stroke-linecap:butt;stroke-linejoin:miter;stroke-miterlimit:10;stroke-dasharray:none;stroke-opacity:1"
     sodipodi:nodetypes="cc" /><path
     id="path28"
     d="m -47.877815,278.80273 c -12.12,13.90667 -12.12,28.01334 0,43.70667"
     style="fill:none;stroke:#ffb86c;stroke-width:15.0419;stroke-linecap:round;stroke-linejoin:miter;stroke-miterlimit:10;stroke-dasharray:none;stroke-opacity:1" /><path
     id="path29"
     d="m 12.215517,123.9894 c 22.239999,14.45334 36.706665,27.98667 44.866665,41.97334"
     style="fill:none;stroke:#282a36;stroke-width:52.6466;stroke-linecap:butt;stroke-linejoin:miter;stroke-miterlimit:10;stroke-dasharray:none;stroke-opacity:1"
     sodipodi:nodetypes="cc" /><path
     id="path30"
     d="m 12.215517,123.9894 c 22.239999,14.45334 36.706665,27.98667 44.866665,41.97334"
     style="fill:none;stroke:#ffb86c;stroke-width:15.0419;stroke-linecap:round;stroke-linejoin:miter;stroke-miterlimit:10;stroke-dasharray:none;stroke-opacity:1" /><path
     id="path31"
     d="m 62.535515,400.69593 c 20.093333,9.1068 38.399995,9.2136 56.706665,0.3204"
     style="fill:none;stroke:#282a36;stroke-width:52.6466;stroke-linecap:butt;stroke-linejoin:miter;stroke-miterlimit:10;stroke-dasharray:none;stroke-opacity:1"
     sodipodi:nodetypes="cc" /><path
     id="path32"
     d="m 62.535515,400.69593 c 20.093333,9.1068 38.399995,9.2136 56.706665,0.3204"
     style="fill:none;stroke:#ffb86c;stroke-width:15.0419;stroke-linecap:round;stroke-linejoin:miter;stroke-miterlimit:10;stroke-dasharray:none;stroke-opacity:1" /><path
     id="path33"
     d="M 183.45551,109.64274 C 178.62885,88.589404 175.24218,66.589405 172.94885,41.456072"
     style="fill:none;stroke:#282a36;stroke-width:52.6466;stroke-linecap:butt;stroke-linejoin:miter;stroke-miterlimit:10;stroke-dasharray:none;stroke-opacity:1"
     sodipodi:nodetypes="cc" /><path
     id="path34"
     d="M 183.45551,109.64274 C 178.62885,88.589404 175.24218,66.589405 172.94885,41.456072"
     style="fill:none;stroke:#ffb86c;stroke-width:15.0419;stroke-linecap:round;stroke-linejoin:miter;stroke-miterlimit:10;stroke-dasharray:none;stroke-opacity:1" /><path
     id="path38"
     d="M 379.71793,418.22022 C 334.67139,371.5847 301.6663,369.17783 278.05551,274.28273"
     style="fill:none;stroke:#ffb86c;stroke-width:15.0419;stroke-linecap:round;stroke-linejoin:miter;stroke-miterlimit:10;stroke-dasharray:none;stroke-opacity:1"
     sodipodi:nodetypes="cc" /><path
     id="path39"
     d="M -27.931149,12.589406 C -48.157815,25.562739 -59.437815,37.802739 -62.891148,50.522738"
     style="fill:none;stroke:#282a36;stroke-width:52.6466;stroke-linecap:butt;stroke-linejoin:miter;stroke-miterlimit:10;stroke-dasharray:none;stroke-opacity:1"
     sodipodi:nodetypes="cc" /><path
     id="path40"
     d="M -27.931149,12.589406 C -48.157815,25.562739 -59.437815,37.802739 -62.891148,50.522738"
     style="fill:none;stroke:#ffb86c;stroke-width:15.0419;stroke-linecap:round;stroke-linejoin:miter;stroke-miterlimit:10;stroke-dasharray:none;stroke-opacity:1" /><path
     id="path41"
     d="m 117.49551,401.8558 c 18.30667,-8.8932 30.50667,-23.5464 37.81334,-45.4264"
     style="fill:none;stroke:#282a36;stroke-width:52.6466;stroke-linecap:butt;stroke-linejoin:miter;stroke-miterlimit:10;stroke-dasharray:none;stroke-opacity:1"
     sodipodi:nodetypes="cc" /><path
     id="path42"
     d="m 117.49551,401.8558 c 18.30667,-8.8932 30.50667,-23.5464 37.81334,-45.4264"
     style="fill:none;stroke:#ffb86c;stroke-width:15.0419;stroke-linecap:round;stroke-linejoin:miter;stroke-miterlimit:10;stroke-dasharray:none;stroke-opacity:1" /><path
     id="path43"
     d="m 64.068849,24.376072 c 6.426666,14.866667 9.706666,27.533333 10.16,39.266666"
     style="fill:none;stroke:#282a36;stroke-width:52.6466;stroke-linecap:butt;stroke-linejoin:miter;stroke-miterlimit:10;stroke-dasharray:none;stroke-opacity:1"
     sodipodi:nodetypes="cc" /><path
     id="path44"
     d="m 64.068849,24.376072 c 6.426666,14.866667 9.706666,27.533333 10.16,39.266666"
     style="fill:none;stroke:#ffb86c;stroke-width:15.0419;stroke-linecap:round;stroke-linejoin:miter;stroke-miterlimit:10;stroke-dasharray:none;stroke-opacity:1" /><path
     id="path45"
     d="m 173.16218,43.856072 c -2.29333,-25.146666 -9.6,-45.8266658 -22.68,-64.119999"
     style="fill:none;stroke:#282a36;stroke-width:52.6466;stroke-linecap:butt;stroke-linejoin:miter;stroke-miterlimit:10;stroke-dasharray:none;stroke-opacity:1"
     sodipodi:nodetypes="cc" /><path
     id="path46"
     d="m 173.16218,43.856072 c -2.29333,-25.146666 -9.6,-45.8266658 -22.68,-64.119999"
     style="fill:none;stroke:#ffb86c;stroke-width:15.0419;stroke-linecap:round;stroke-linejoin:miter;stroke-miterlimit:10;stroke-dasharray:none;stroke-opacity:1" /><path
     id="path47"
     d="m -3.6644829,128.3094 c -22.1466661,12 -37.7733321,23.88 -48.4266651,36.82667"
     style="fill:none;stroke:#282a36;stroke-width:52.6466;stroke-linecap:butt;stroke-linejoin:miter;stroke-miterlimit:10;stroke-dasharray:none;stroke-opacity:1"
     sodipodi:nodetypes="cc" /><path
     id="path48"
     d="m -3.6644829,128.3094 c -22.1466661,12 -37.7733321,23.88 -48.4266651,36.82667"
     style="fill:none;stroke:#ffb86c;stroke-width:15.0419;stroke-linecap:round;stroke-linejoin:miter;stroke-miterlimit:10;stroke-dasharray:none;stroke-opacity:1" /><path
     id="path49"
     d="m 154.61551,358.5094 c 7.30667,-21.88 11.16,-43.22667 11.97334,-66.18667"
     style="fill:none;stroke:#282a36;stroke-width:52.6466;stroke-linecap:butt;stroke-linejoin:miter;stroke-miterlimit:10;stroke-dasharray:none;stroke-opacity:1"
     sodipodi:nodetypes="cc" /><path
     id="path50"
     d="m 154.61551,358.5094 c 7.30667,-21.88 11.16,-43.22667 11.97334,-66.18667"
     style="fill:none;stroke:#ffb86c;stroke-width:15.0419;stroke-linecap:round;stroke-linejoin:miter;stroke-miterlimit:10;stroke-dasharray:none;stroke-opacity:1" /><path
     id="path51"
     d="M 3.6821836,240.3894 C -19.904482,253.40273 -36.904482,266.21607 -49.024482,280.12273"
     style="fill:none;stroke:#282a36;stroke-width:52.6466;stroke-linecap:butt;stroke-linejoin:miter;stroke-miterlimit:10;stroke-dasharray:none;stroke-opacity:1"
     sodipodi:nodetypes="cc" /><path
     id="path52"
     d="M 3.6821836,240.3894 C -19.904482,253.40273 -36.904482,266.21607 -49.024482,280.12273"
     style="fill:none;stroke:#ffb86c;stroke-width:15.0419;stroke-linecap:round;stroke-linejoin:miter;stroke-miterlimit:10;stroke-dasharray:none;stroke-opacity:1" /><path
     id="path53"
     d="m 47.962183,281.21607 c 6.933333,13.70666 7.293333,27.06666 1.119999,41.41333"
     style="fill:none;stroke:#282a36;stroke-width:52.6466;stroke-linecap:butt;stroke-linejoin:miter;stroke-miterlimit:10;stroke-dasharray:none;stroke-opacity:1"
     sodipodi:nodetypes="cc" /><path
     id="path54"
     d="m 47.962183,281.21607 c 6.933333,13.70666 7.293333,27.06666 1.119999,41.41333"
     style="fill:none;stroke:#ffb86c;stroke-width:15.0419;stroke-linecap:round;stroke-linejoin:miter;stroke-miterlimit:10;stroke-dasharray:none;stroke-opacity:1" /><path
     id="path55"
     d="m 56.295516,164.6294 c 8.159999,13.97334 6.679999,26.82667 -4.546667,39.82667"
     style="fill:none;stroke:#282a36;stroke-width:52.6466;stroke-linecap:butt;stroke-linejoin:miter;stroke-miterlimit:10;stroke-dasharray:none;stroke-opacity:1"
     sodipodi:nodetypes="cc" /><path
     id="path56"
     d="m 56.295516,164.6294 c 8.159999,13.97334 6.679999,26.82667 -4.546667,39.82667"
     style="fill:none;stroke:#ffb86c;stroke-width:15.0419;stroke-linecap:round;stroke-linejoin:miter;stroke-miterlimit:10;stroke-dasharray:none;stroke-opacity:1" /><path
     id="path63"
     d="M 252.98884,119.29607 C 266.48218,99.029404 273.36218,76.509404 274.29551,49.509405"
     style="fill:none;stroke:#282a36;stroke-width:52.6466;stroke-linecap:butt;stroke-linejoin:miter;stroke-miterlimit:10;stroke-dasharray:none;stroke-opacity:1"
     sodipodi:nodetypes="cc" /><path
     id="path64"
     d="M 252.98884,119.29607 C 266.48218,99.029404 273.36218,76.509404 274.29551,49.509405"
     style="fill:none;stroke:#ffb86c;stroke-width:15.0419;stroke-linecap:round;stroke-linejoin:miter;stroke-miterlimit:10;stroke-dasharray:none;stroke-opacity:1" /><path
     id="path65"
     d="m 274.20218,52.082738 c 0.94666,-27.013332 5.92,-58.586665 15.45333,-97.866664"
     style="fill:none;stroke:#282a36;stroke-width:52.6466;stroke-linecap:butt;stroke-linejoin:miter;stroke-miterlimit:10;stroke-dasharray:none;stroke-opacity:1"
     sodipodi:nodetypes="cc" /><path
     id="path66"
     d="m 274.20218,52.082738 c 0.94666,-27.013332 34.28237,-148.72068 56.78787,-180.909988"
     style="fill:none;stroke:#ffb86c;stroke-width:15.0419;stroke-linecap:round;stroke-linejoin:miter;stroke-miterlimit:10;stroke-dasharray:none;stroke-opacity:1"
     sodipodi:nodetypes="cc" /><path
     id="path77"
     d="m 151.73551,-18.51726 c -13.06666,-18.293333 -30.24,-26.466666 -53.239995,-25.333333"
     style="fill:none;stroke:#282a36;stroke-width:52.6466;stroke-linecap:butt;stroke-linejoin:miter;stroke-miterlimit:10;stroke-dasharray:none;stroke-opacity:1"
     sodipodi:nodetypes="cc" /><path
     id="path78"
     d="m 151.73551,-18.51726 c -13.06666,-18.293333 -30.24,-26.466666 -53.239995,-25.333333"
     style="fill:none;stroke:#ffb86c;stroke-width:15.0419;stroke-linecap:round;stroke-linejoin:miter;stroke-miterlimit:10;stroke-dasharray:none;stroke-opacity:1" /><path
     id="path83"
     d="m 166.50885,294.5094 c 0.8,-22.96 4.48,-44.02667 11.38666,-65.32"
     style="fill:none;stroke:#282a36;stroke-width:52.6466;stroke-linecap:butt;stroke-linejoin:miter;stroke-miterlimit:10;stroke-dasharray:none;stroke-opacity:1"
     sodipodi:nodetypes="cc" /><path
     id="path84"
     d="m 166.50885,294.5094 c 0.8,-22.96 4.48,-44.02667 11.38666,-65.32"
     style="fill:none;stroke:#ffb86c;stroke-width:15.0419;stroke-linecap:round;stroke-linejoin:miter;stroke-miterlimit:10;stroke-dasharray:none;stroke-opacity:1" /><path
     id="path85"
     d="m 34.482183,-24.423927 c -23.36,12.933333 -44.1066657,25.26666648 -64.333332,38.239999"
     style="fill:none;stroke:#282a36;stroke-width:52.6466;stroke-linecap:butt;stroke-linejoin:miter;stroke-miterlimit:10;stroke-dasharray:none;stroke-opacity:1"
     sodipodi:nodetypes="cc" /><path
     id="path86"
     d="m 34.482183,-24.423927 c -23.36,12.933333 -44.1066657,25.26666648 -64.333332,38.239999"
     style="fill:none;stroke:#ffb86c;stroke-width:15.0419;stroke-linecap:round;stroke-linejoin:miter;stroke-miterlimit:10;stroke-dasharray:none;stroke-opacity:1" /><path
     id="path87"
     d="M 17.02885,361.29606 C -0.02448295,374.9494 -16.637816,385.7626 -34.464482,394.80273"
     style="fill:none;stroke:#282a36;stroke-width:52.6466;stroke-linecap:butt;stroke-linejoin:miter;stroke-miterlimit:10;stroke-dasharray:none;stroke-opacity:1"
     sodipodi:nodetypes="cc" /><path
     id="path88"
     d="m 17.02885,361.29606 c -17.05333295,13.65334 -92.323841,61.97678 -150.37074,78.76233"
     style="fill:none;stroke:#ffb86c;stroke-width:15.0419;stroke-linecap:round;stroke-linejoin:miter;stroke-miterlimit:10;stroke-dasharray:none;stroke-opacity:1"
     sodipodi:nodetypes="cc" /><path
     id="path89"
     d="m 210.10885,174.41607 c 16.42666,-18.37333 30.67999,-36.77333 44.17333,-57.04"
     style="fill:none;stroke:#282a36;stroke-width:52.6466;stroke-linecap:butt;stroke-linejoin:miter;stroke-miterlimit:10;stroke-dasharray:none;stroke-opacity:1"
     sodipodi:nodetypes="cc" /><path
     id="path90"
     d="m 210.10885,174.41607 c 16.42666,-18.37333 30.67999,-36.77333 44.17333,-57.04"
     style="fill:none;stroke:#ffb86c;stroke-width:15.0419;stroke-linecap:round;stroke-linejoin:miter;stroke-miterlimit:10;stroke-dasharray:none;stroke-opacity:1" /><path
     id="path91"
     d="m 100.68218,-43.957259 c -22.999998,1.146666 -45.066664,7.839999 -68.426664,20.773332"
     style="fill:none;stroke:#282a36;stroke-width:52.6466;stroke-linecap:butt;stroke-linejoin:miter;stroke-miterlimit:10;stroke-dasharray:none;stroke-opacity:1"
     sodipodi:nodetypes="cc" /><path
     id="path92"
     d="m 100.68218,-43.957259 c -22.999998,1.146666 -45.066664,7.839999 -68.426664,20.773332"
     style="fill:none;stroke:#ffb86c;stroke-width:15.0419;stroke-linecap:round;stroke-linejoin:miter;stroke-miterlimit:10;stroke-dasharray:none;stroke-opacity:1" /><path
     id="path93"
     d="m 52.815516,203.21607 c -11.226667,13 -27.8,25.4 -51.3866657,38.41333"
     style="fill:none;stroke:#282a36;stroke-width:52.6466;stroke-linecap:butt;stroke-linejoin:miter;stroke-miterlimit:10;stroke-dasharray:none;stroke-opacity:1"
     sodipodi:nodetypes="cc" /><path
     id="path94"
     d="m 52.815516,203.21607 c -11.226667,13 -27.8,25.4 -51.3866657,38.41333"
     style="fill:none;stroke:#ffb86c;stroke-width:15.0419;stroke-linecap:round;stroke-linejoin:miter;stroke-miterlimit:10;stroke-dasharray:none;stroke-opacity:1" /><path
     id="path95"
     d="m 74.175515,62.522738 c 0.453334,11.733333 -7.32,22.639999 -24.093333,33.799999"
     style="fill:none;stroke:#282a36;stroke-width:52.6466;stroke-linecap:butt;stroke-linejoin:miter;stroke-miterlimit:10;stroke-dasharray:none;stroke-opacity:1"
     sodipodi:nodetypes="cc" /><path
     id="path96"
     d="m 74.175515,62.522738 c 0.453334,11.733333 -7.32,22.639999 -24.093333,33.799999"
     style="fill:none;stroke:#ffb86c;stroke-width:15.0419;stroke-linecap:round;stroke-linejoin:miter;stroke-miterlimit:10;stroke-dasharray:none;stroke-opacity:1" /><path
     id="path97"
     d="m 177.22885,231.2294 c 6.90666,-21.29333 18.02666,-40.18667 34.45333,-58.56"
     style="fill:none;stroke:#282a36;stroke-width:52.6466;stroke-linecap:butt;stroke-linejoin:miter;stroke-miterlimit:10;stroke-dasharray:none;stroke-opacity:1"
     sodipodi:nodetypes="cc" /><path
     id="path98"
     d="m 177.22885,231.2294 c 6.90666,-21.29333 18.02666,-40.18667 34.45333,-58.56"
     style="fill:none;stroke:#ffb86c;stroke-width:15.0419;stroke-linecap:round;stroke-linejoin:miter;stroke-miterlimit:10;stroke-dasharray:none;stroke-opacity:1" /><path
     id="path99"
     d="m 49.668849,321.25606 c -6.16,14.34667 -17.226666,27.68 -34.266666,41.33334"
     style="fill:none;stroke:#282a36;stroke-width:52.6466;stroke-linecap:butt;stroke-linejoin:miter;stroke-miterlimit:10;stroke-dasharray:none;stroke-opacity:1"
     sodipodi:nodetypes="cc" /><path
     id="path100"
     d="m 49.668849,321.25606 c -6.16,14.34667 -17.226666,27.68 -34.266666,41.33334"
     style="fill:none;stroke:#ffb86c;stroke-width:15.0419;stroke-linecap:round;stroke-linejoin:miter;stroke-miterlimit:10;stroke-dasharray:none;stroke-opacity:1" /><path
     id="path101"
     d="m 51.682182,95.25607 c -16.773332,11.17333 -35.306665,22.2 -57.4533315,34.2"
     style="fill:none;stroke:#282a36;stroke-width:52.6466;stroke-linecap:butt;stroke-linejoin:miter;stroke-miterlimit:10;stroke-dasharray:none;stroke-opacity:1"
     sodipodi:nodetypes="cc" /><path
     id="path102"
     d="m 51.682182,95.25607 c -16.773332,11.17333 -35.306665,22.2 -57.4533315,34.2"
     style="fill:none;stroke:#ffb86c;stroke-width:15.0419;stroke-linecap:round;stroke-linejoin:miter;stroke-miterlimit:10;stroke-dasharray:none;stroke-opacity:1" /></g>
    <g
   id="g168"
   transform="matrix(0.25126708,0,0,0.25126708,76.663207,101.34018)"
   style="display:inline"><path
     id="path35"
     d="m -26.761728,-63.55382 c 15.520001,11.786666 45.908705,17.648504 58.897244,44.95656"
     style="fill:none;stroke:#282a36;stroke-width:52.6466;stroke-linecap:butt;stroke-linejoin:miter;stroke-miterlimit:10;stroke-dasharray:none;stroke-opacity:1"
     sodipodi:nodetypes="cc" /><path
     id="path36"
     d="m -130.31394,-104.52453 c 24.6716,43.695251 128.9503452,24.629829 162.449456,85.92727"
     style="fill:none;stroke:#ff5555;stroke-width:15.0419;stroke-linecap:round;stroke-linejoin:miter;stroke-miterlimit:10;stroke-dasharray:none;stroke-opacity:1"
     sodipodi:nodetypes="cc" /><path
     id="path37"
     d="M -43.904482,85.469404 C -26.691149,98.05607 -7.9044828,110.92274 14.335517,125.37607"
     style="fill:none;stroke:#282a36;stroke-width:52.6466;stroke-linecap:butt;stroke-linejoin:miter;stroke-miterlimit:10;stroke-dasharray:none;stroke-opacity:1"
     sodipodi:nodetypes="cc" /><path
     id="path57"
     d="M -43.904482,85.469404 C -26.691149,98.05607 -7.9044828,110.92274 14.335517,125.37607"
     style="fill:none;stroke:#ff5555;stroke-width:15.0419;stroke-linecap:round;stroke-linejoin:miter;stroke-miterlimit:10;stroke-dasharray:none;stroke-opacity:1" /><path
     id="path58"
     d="m -47.904482,201.73607 c 13.693333,13.56 31.226666,26.77333 54.3599989,40.96"
     style="fill:none;stroke:#282a36;stroke-width:52.6466;stroke-linecap:butt;stroke-linejoin:miter;stroke-miterlimit:10;stroke-dasharray:none;stroke-opacity:1"
     sodipodi:nodetypes="cc" /><path
     id="path59"
     d="m -47.904482,201.73607 c 13.693333,13.56 31.226666,26.77333 54.3599989,40.96"
     style="fill:none;stroke:#ff5555;stroke-width:15.0419;stroke-linecap:round;stroke-linejoin:miter;stroke-miterlimit:10;stroke-dasharray:none;stroke-opacity:1" /><path
     id="path60"
     d="m -49.037815,321.01606 c 12.133333,15.69334 28.879999,30.49334 51.9466653,45.86667"
     style="fill:none;stroke:#282a36;stroke-width:52.6466;stroke-linecap:butt;stroke-linejoin:miter;stroke-miterlimit:10;stroke-dasharray:none;stroke-opacity:1"
     sodipodi:nodetypes="cc" /><path
     id="path61"
     d="m -49.037815,321.01606 c 12.133333,15.69334 28.879999,30.49334 51.9466653,45.86667"
     style="fill:none;stroke:#ff5555;stroke-width:15.0419;stroke-linecap:round;stroke-linejoin:miter;stroke-miterlimit:10;stroke-dasharray:none;stroke-opacity:1" /><path
     id="path72"
     d="M 0.72218369,365.41606 C 23.78885,380.78913 44.335516,392.44286 64.442182,401.5626"
     style="fill:none;stroke:#282a36;stroke-width:52.6466;stroke-linecap:butt;stroke-linejoin:miter;stroke-miterlimit:10;stroke-dasharray:none;stroke-opacity:1"
     sodipodi:nodetypes="cc" /><path
     id="path73"
     d="M 0.72218369,365.41606 C 23.78885,380.78913 44.335516,392.44286 64.442182,401.5626"
     style="fill:none;stroke:#ff5555;stroke-width:15.0419;stroke-linecap:round;stroke-linejoin:miter;stroke-miterlimit:10;stroke-dasharray:none;stroke-opacity:1" /><path
     id="path74"
     d="M 30.54885,-20.143927 C 47.228849,-3.8905937 58.242182,10.922739 64.668849,25.789406"
     style="fill:none;stroke:#282a36;stroke-width:52.6466;stroke-linecap:butt;stroke-linejoin:miter;stroke-miterlimit:10;stroke-dasharray:none;stroke-opacity:1"
     sodipodi:nodetypes="cc" /><path
     id="path75"
     d="M 30.54885,-20.143927 C 47.228849,-3.8905937 58.242182,10.922739 64.668849,25.789406"
     style="fill:none;stroke:#ff5555;stroke-width:15.0419;stroke-linecap:round;stroke-linejoin:miter;stroke-miterlimit:10;stroke-dasharray:none;stroke-opacity:1" /><path
     id="path76"
     d="m -62.571148,49.309405 c -3.453333,12.733333 3.093333,24.773333 20.306666,37.359999"
     style="fill:none;stroke:#282a36;stroke-width:52.6466;stroke-linecap:butt;stroke-linejoin:miter;stroke-miterlimit:10;stroke-dasharray:none;stroke-opacity:1"
     sodipodi:nodetypes="cc" /><path
     id="path79"
     d="m -62.571148,49.309405 c -3.453333,12.733333 3.093333,24.773333 20.306666,37.359999"
     style="fill:none;stroke:#ff5555;stroke-width:15.0419;stroke-linecap:round;stroke-linejoin:miter;stroke-miterlimit:10;stroke-dasharray:none;stroke-opacity:1" /><path
     id="path104"
     d="m -51.077815,163.9094 c -10.653333,12.94667 -9.213333,25.56 4.48,39.12"
     style="fill:none;stroke:#282a36;stroke-width:52.6466;stroke-linecap:butt;stroke-linejoin:miter;stroke-miterlimit:10;stroke-dasharray:none;stroke-opacity:1"
     sodipodi:nodetypes="cc" /><path
     id="path105"
     d="m -51.077815,163.9094 c -10.653333,12.94667 -9.213333,25.56 4.48,39.12"
     style="fill:none;stroke:#ff5555;stroke-width:15.0419;stroke-linecap:round;stroke-linejoin:miter;stroke-miterlimit:10;stroke-dasharray:none;stroke-opacity:1" /><path
     id="path106"
     d="M 4.2555169,241.3494 C 27.38885,255.53607 41.708849,268.81607 48.628849,282.52273"
     style="fill:none;stroke:#282a36;stroke-width:52.6466;stroke-linecap:butt;stroke-linejoin:miter;stroke-miterlimit:10;stroke-dasharray:none;stroke-opacity:1"
     sodipodi:nodetypes="cc" /><path
     id="path107"
     d="M 4.2555169,241.3494 C 27.38885,255.53607 41.708849,268.81607 48.628849,282.52273"
     style="fill:none;stroke:#ff5555;stroke-width:15.0419;stroke-linecap:round;stroke-linejoin:miter;stroke-miterlimit:10;stroke-dasharray:none;stroke-opacity:1" /><path
     id="path108"
     d="m -47.877815,278.80273 c -12.12,13.90667 -12.12,28.01334 0,43.70667"
     style="fill:none;stroke:#282a36;stroke-width:52.6466;stroke-linecap:butt;stroke-linejoin:miter;stroke-miterlimit:10;stroke-dasharray:none;stroke-opacity:1"
     sodipodi:nodetypes="cc" /><path
     id="path109"
     d="m -47.877815,278.80273 c -12.12,13.90667 -12.12,28.01334 0,43.70667"
     style="fill:none;stroke:#ff5555;stroke-width:15.0419;stroke-linecap:round;stroke-linejoin:miter;stroke-miterlimit:10;stroke-dasharray:none;stroke-opacity:1" /><path
     id="path110"
     d="m 12.215517,123.9894 c 22.239999,14.45334 36.706665,27.98667 44.866665,41.97334"
     style="fill:none;stroke:#282a36;stroke-width:52.6466;stroke-linecap:butt;stroke-linejoin:miter;stroke-miterlimit:10;stroke-dasharray:none;stroke-opacity:1"
     sodipodi:nodetypes="cc" /><path
     id="path113"
     d="m 12.215517,123.9894 c 22.239999,14.45334 36.706665,27.98667 44.866665,41.97334"
     style="fill:none;stroke:#ff5555;stroke-width:15.0419;stroke-linecap:round;stroke-linejoin:miter;stroke-miterlimit:10;stroke-dasharray:none;stroke-opacity:1" /><path
     id="path114"
     d="m 62.535515,400.69593 c 20.093333,9.1068 38.399995,9.2136 56.706665,0.3204"
     style="fill:none;stroke:#282a36;stroke-width:52.6466;stroke-linecap:butt;stroke-linejoin:miter;stroke-miterlimit:10;stroke-dasharray:none;stroke-opacity:1"
     sodipodi:nodetypes="cc" /><path
     id="path117"
     d="m 62.535515,400.69593 c 20.093333,9.1068 38.399995,9.2136 56.706665,0.3204"
     style="fill:none;stroke:#ff5555;stroke-width:15.0419;stroke-linecap:round;stroke-linejoin:miter;stroke-miterlimit:10;stroke-dasharray:none;stroke-opacity:1" /><path
     id="path121"
     d="M -27.931149,12.589406 C -48.157815,25.562739 -59.437815,37.802739 -62.891148,50.522738"
     style="fill:none;stroke:#282a36;stroke-width:52.6466;stroke-linecap:butt;stroke-linejoin:miter;stroke-miterlimit:10;stroke-dasharray:none;stroke-opacity:1"
     sodipodi:nodetypes="cc" /><path
     id="path122"
     d="M -27.931149,12.589406 C -48.157815,25.562739 -59.437815,37.802739 -62.891148,50.522738"
     style="fill:none;stroke:#ff5555;stroke-width:15.0419;stroke-linecap:round;stroke-linejoin:miter;stroke-miterlimit:10;stroke-dasharray:none;stroke-opacity:1" /><path
     id="path125"
     d="m 64.068849,24.376072 c 6.426666,14.866667 9.706666,27.533333 10.16,39.266666"
     style="fill:none;stroke:#282a36;stroke-width:52.6466;stroke-linecap:butt;stroke-linejoin:miter;stroke-miterlimit:10;stroke-dasharray:none;stroke-opacity:1"
     sodipodi:nodetypes="cc" /><path
     id="path126"
     d="m 64.068849,24.376072 c 6.426666,14.866667 9.706666,27.533333 10.16,39.266666"
     style="fill:none;stroke:#ff5555;stroke-width:15.0419;stroke-linecap:round;stroke-linejoin:miter;stroke-miterlimit:10;stroke-dasharray:none;stroke-opacity:1" /><path
     id="path129"
     d="m -3.6644829,128.3094 c -22.1466661,12 -37.7733321,23.88 -48.4266651,36.82667"
     style="fill:none;stroke:#282a36;stroke-width:52.6466;stroke-linecap:butt;stroke-linejoin:miter;stroke-miterlimit:10;stroke-dasharray:none;stroke-opacity:1"
     sodipodi:nodetypes="cc" /><path
     id="path130"
     d="m -3.6644829,128.3094 c -22.1466661,12 -37.7733321,23.88 -48.4266651,36.82667"
     style="fill:none;stroke:#ff5555;stroke-width:15.0419;stroke-linecap:round;stroke-linejoin:miter;stroke-miterlimit:10;stroke-dasharray:none;stroke-opacity:1" /><path
     id="path133"
     d="M 3.6821836,240.3894 C -19.904482,253.40273 -36.904482,266.21607 -49.024482,280.12273"
     style="fill:none;stroke:#282a36;stroke-width:52.6466;stroke-linecap:butt;stroke-linejoin:miter;stroke-miterlimit:10;stroke-dasharray:none;stroke-opacity:1"
     sodipodi:nodetypes="cc" /><path
     id="path134"
     d="M 3.6821836,240.3894 C -19.904482,253.40273 -36.904482,266.21607 -49.024482,280.12273"
     style="fill:none;stroke:#ff5555;stroke-width:15.0419;stroke-linecap:round;stroke-linejoin:miter;stroke-miterlimit:10;stroke-dasharray:none;stroke-opacity:1" /><path
     id="path135"
     d="m 47.962183,281.21607 c 6.933333,13.70666 7.293333,27.06666 1.119999,41.41333"
     style="fill:none;stroke:#282a36;stroke-width:52.6466;stroke-linecap:butt;stroke-linejoin:miter;stroke-miterlimit:10;stroke-dasharray:none;stroke-opacity:1"
     sodipodi:nodetypes="cc" /><path
     id="path136"
     d="m 47.962183,281.21607 c 6.933333,13.70666 7.293333,27.06666 1.119999,41.41333"
     style="fill:none;stroke:#ff5555;stroke-width:15.0419;stroke-linecap:round;stroke-linejoin:miter;stroke-miterlimit:10;stroke-dasharray:none;stroke-opacity:1" /><path
     id="path139"
     d="m 56.295516,164.6294 c 8.159999,13.97334 6.679999,26.82667 -4.546667,39.82667"
     style="fill:none;stroke:#282a36;stroke-width:52.6466;stroke-linecap:butt;stroke-linejoin:miter;stroke-miterlimit:10;stroke-dasharray:none;stroke-opacity:1"
     sodipodi:nodetypes="cc" /><path
     id="path140"
     d="m 56.295516,164.6294 c 8.159999,13.97334 6.679999,26.82667 -4.546667,39.82667"
     style="fill:none;stroke:#ff5555;stroke-width:15.0419;stroke-linecap:round;stroke-linejoin:miter;stroke-miterlimit:10;stroke-dasharray:none;stroke-opacity:1" /><path
     id="path151"
     d="m 34.482183,-24.423927 c -23.36,12.933333 -44.1066657,25.26666648 -64.333332,38.239999"
     style="fill:none;stroke:#282a36;stroke-width:52.6466;stroke-linecap:butt;stroke-linejoin:miter;stroke-miterlimit:10;stroke-dasharray:none;stroke-opacity:1"
     sodipodi:nodetypes="cc" /><path
     id="path152"
     d="m 34.482183,-24.423927 c -23.36,12.933333 -44.1066657,25.26666648 -64.333332,38.239999"
     style="fill:none;stroke:#ff5555;stroke-width:15.0419;stroke-linecap:round;stroke-linejoin:miter;stroke-miterlimit:10;stroke-dasharray:none;stroke-opacity:1" /><path
     id="path153"
     d="M 17.02885,361.29606 C -0.02448295,374.9494 -16.637816,385.7626 -34.464482,394.80273"
     style="fill:none;stroke:#282a36;stroke-width:52.6466;stroke-linecap:butt;stroke-linejoin:miter;stroke-miterlimit:10;stroke-dasharray:none;stroke-opacity:1"
     sodipodi:nodetypes="cc" /><path
     id="path154"
     d="m 17.02885,361.29606 c -17.05333295,13.65334 -92.323841,61.97678 -150.37074,78.76233"
     style="fill:none;stroke:#ff5555;stroke-width:15.0419;stroke-linecap:round;stroke-linejoin:miter;stroke-miterlimit:10;stroke-dasharray:none;stroke-opacity:1"
     sodipodi:nodetypes="cc" /><path
     id="path157"
     d="m 100.68218,-43.957259 c -22.999998,1.146666 -45.066664,7.839999 -68.426664,20.773332"
     style="fill:none;stroke:#282a36;stroke-width:52.6466;stroke-linecap:butt;stroke-linejoin:miter;stroke-miterlimit:10;stroke-dasharray:none;stroke-opacity:1"
     sodipodi:nodetypes="cc" /><path
     id="path158"
     d="m 100.68218,-43.957259 c -22.999998,1.146666 -45.066664,7.839999 -68.426664,20.773332"
     style="fill:none;stroke:#ff5555;stroke-width:15.0419;stroke-linecap:round;stroke-linejoin:miter;stroke-miterlimit:10;stroke-dasharray:none;stroke-opacity:1" /><path
     id="path159"
     d="m 52.815516,203.21607 c -11.226667,13 -27.8,25.4 -51.3866657,38.41333"
     style="fill:none;stroke:#282a36;stroke-width:52.6466;stroke-linecap:butt;stroke-linejoin:miter;stroke-miterlimit:10;stroke-dasharray:none;stroke-opacity:1"
     sodipodi:nodetypes="cc" /><path
     id="path160"
     d="m 52.815516,203.21607 c -11.226667,13 -27.8,25.4 -51.3866657,38.41333"
     style="fill:none;stroke:#ff5555;stroke-width:15.0419;stroke-linecap:round;stroke-linejoin:miter;stroke-miterlimit:10;stroke-dasharray:none;stroke-opacity:1" /><path
     id="path161"
     d="m 74.175515,62.522738 c 0.453334,11.733333 -7.32,22.639999 -24.093333,33.799999"
     style="fill:none;stroke:#282a36;stroke-width:52.6466;stroke-linecap:butt;stroke-linejoin:miter;stroke-miterlimit:10;stroke-dasharray:none;stroke-opacity:1"
     sodipodi:nodetypes="cc" /><path
     id="path162"
     d="m 74.175515,62.522738 c 0.453334,11.733333 -7.32,22.639999 -24.093333,33.799999"
     style="fill:none;stroke:#ff5555;stroke-width:15.0419;stroke-linecap:round;stroke-linejoin:miter;stroke-miterlimit:10;stroke-dasharray:none;stroke-opacity:1" /><path
     id="path165"
     d="m 49.668849,321.25606 c -6.16,14.34667 -17.226666,27.68 -34.266666,41.33334"
     style="fill:none;stroke:#282a36;stroke-width:52.6466;stroke-linecap:butt;stroke-linejoin:miter;stroke-miterlimit:10;stroke-dasharray:none;stroke-opacity:1"
     sodipodi:nodetypes="cc" /><path
     id="path166"
     d="m 49.668849,321.25606 c -6.16,14.34667 -17.226666,27.68 -34.266666,41.33334"
     style="fill:none;stroke:#ff5555;stroke-width:15.0419;stroke-linecap:round;stroke-linejoin:miter;stroke-miterlimit:10;stroke-dasharray:none;stroke-opacity:1" /><path
     id="path167"
     d="m 51.682182,95.25607 c -16.773332,11.17333 -35.306665,22.2 -57.4533315,34.2"
     style="fill:none;stroke:#282a36;stroke-width:52.6466;stroke-linecap:butt;stroke-linejoin:miter;stroke-miterlimit:10;stroke-dasharray:none;stroke-opacity:1"
     sodipodi:nodetypes="cc" /><path
     id="path168"
     d="m 51.682182,95.25607 c -16.773332,11.17333 -35.306665,22.2 -57.4533315,34.2"
     style="fill:none;stroke:#ff5555;stroke-width:15.0419;stroke-linecap:round;stroke-linejoin:miter;stroke-miterlimit:10;stroke-dasharray:none;stroke-opacity:1" /></g><g
   id="g154"
   transform="matrix(0.25126708,0,0,0.25126708,76.663207,101.34018)"
   style="display:inline"
   sodipodi:insensitive="true"><path
     id="path11"
     d="m -26.761728,-63.55382 c 15.520001,11.786666 45.908705,17.648504 58.897244,44.95656"
     style="fill:none;stroke:#282a36;stroke-width:52.6466;stroke-linecap:butt;stroke-linejoin:miter;stroke-miterlimit:10;stroke-dasharray:none;stroke-opacity:1"
     sodipodi:nodetypes="cc" /><path
     id="path12"
     d="m -130.31394,-104.52453 c 24.6716,43.695251 128.9503452,24.629829 162.449456,85.92727"
     style="fill:none;stroke:#ff5555;stroke-width:15.0419;stroke-linecap:round;stroke-linejoin:miter;stroke-miterlimit:10;stroke-dasharray:none;stroke-opacity:1"
     sodipodi:nodetypes="cc" /><path
     id="path68"
     d="M 30.54885,-20.143927 C 47.228849,-3.8905937 58.242182,10.922739 64.668849,25.789406"
     style="fill:none;stroke:#282a36;stroke-width:52.6466;stroke-linecap:butt;stroke-linejoin:miter;stroke-miterlimit:10;stroke-dasharray:none;stroke-opacity:1"
     sodipodi:nodetypes="cc" /><path
     id="path69"
     d="M 30.54885,-20.143927 C 47.228849,-3.8905937 58.242182,10.922739 64.668849,25.789406"
     style="fill:none;stroke:#ff5555;stroke-width:15.0419;stroke-linecap:round;stroke-linejoin:miter;stroke-miterlimit:10;stroke-dasharray:none;stroke-opacity:1" /><path
     id="path70"
     d="m -62.571148,49.309405 c -3.453333,12.733333 3.093333,24.773333 20.306666,37.359999"
     style="fill:none;stroke:#282a36;stroke-width:52.6466;stroke-linecap:butt;stroke-linejoin:miter;stroke-miterlimit:10;stroke-dasharray:none;stroke-opacity:1"
     sodipodi:nodetypes="cc" /><path
     id="path71"
     d="m -62.571148,49.309405 c -3.453333,12.733333 3.093333,24.773333 20.306666,37.359999"
     style="fill:none;stroke:#ff5555;stroke-width:15.0419;stroke-linecap:round;stroke-linejoin:miter;stroke-miterlimit:10;stroke-dasharray:none;stroke-opacity:1" /><path
     id="path111"
     d="M -27.931149,12.589406 C -48.157815,25.562739 -59.437815,37.802739 -62.891148,50.522738"
     style="fill:none;stroke:#282a36;stroke-width:52.6466;stroke-linecap:butt;stroke-linejoin:miter;stroke-miterlimit:10;stroke-dasharray:none;stroke-opacity:1"
     sodipodi:nodetypes="cc" /><path
     id="path112"
     d="M -27.931149,12.589406 C -48.157815,25.562739 -59.437815,37.802739 -62.891148,50.522738"
     style="fill:none;stroke:#ff5555;stroke-width:15.0419;stroke-linecap:round;stroke-linejoin:miter;stroke-miterlimit:10;stroke-dasharray:none;stroke-opacity:1" /><path
     id="path115"
     d="m 64.068849,24.376072 c 6.426666,14.866667 9.706666,27.533333 10.16,39.266666"
     style="fill:none;stroke:#282a36;stroke-width:52.6466;stroke-linecap:butt;stroke-linejoin:miter;stroke-miterlimit:10;stroke-dasharray:none;stroke-opacity:1"
     sodipodi:nodetypes="cc" /><path
     id="path116"
     d="m 64.068849,24.376072 c 6.426666,14.866667 9.706666,27.533333 10.16,39.266666"
     style="fill:none;stroke:#ff5555;stroke-width:15.0419;stroke-linecap:round;stroke-linejoin:miter;stroke-miterlimit:10;stroke-dasharray:none;stroke-opacity:1" /><path
     id="path137"
     d="m 34.482183,-24.423927 c -23.36,12.933333 -44.1066657,25.26666648 -64.333332,38.239999"
     style="fill:none;stroke:#282a36;stroke-width:52.6466;stroke-linecap:butt;stroke-linejoin:miter;stroke-miterlimit:10;stroke-dasharray:none;stroke-opacity:1"
     sodipodi:nodetypes="cc" /><path
     id="path138"
     d="m 34.482183,-24.423927 c -23.36,12.933333 -44.1066657,25.26666648 -64.333332,38.239999"
     style="fill:none;stroke:#ff5555;stroke-width:15.0419;stroke-linecap:round;stroke-linejoin:miter;stroke-miterlimit:10;stroke-dasharray:none;stroke-opacity:1" /><path
     id="path143"
     d="m 100.68218,-43.957259 c -22.999998,1.146666 -45.066664,7.839999 -68.426664,20.773332"
     style="fill:none;stroke:#282a36;stroke-width:52.6466;stroke-linecap:butt;stroke-linejoin:miter;stroke-miterlimit:10;stroke-dasharray:none;stroke-opacity:1"
     sodipodi:nodetypes="cc" /><path
     id="path144"
     d="m 100.68218,-43.957259 c -22.999998,1.146666 -45.066664,7.839999 -68.426664,20.773332"
     style="fill:none;stroke:#ff5555;stroke-width:15.0419;stroke-linecap:round;stroke-linejoin:miter;stroke-miterlimit:10;stroke-dasharray:none;stroke-opacity:1" /></g><path
   class="stroke-highlight"
   style="display:inline;fill:#6272a4;fill-opacity:1;stroke:none;stroke-width:0.352778;stroke-opacity:1"
   d="M 95.986727,238.49586 C 55.96666,234.86994 22.490082,206.59238 12.232833,167.74923 c -4.0133095,-15.198 -4.0133095,-33.36826 0,-48.56626 9.679369,-36.654787 39.637477,-63.733936 77.403894,-69.965414 6.991548,-1.153609 22.641783,-1.153609 29.633333,0 41.25671,6.807379 72.6245,38.175164 79.43188,79.431874 1.84983,11.21107 0.9976,27.64223 -2.02799,39.0998 -9.6571,36.57046 -39.81128,63.87166 -77.2275,69.92077 -4.45449,0.72016 -18.98182,1.23157 -23.459723,0.82586 z m 22.401393,-5.72037 c 52.7555,-8.69562 86.4767,-59.58006 73.70138,-111.21356 -8.70542,-35.184345 -37.59744,-61.552962 -73.87777,-67.425367 -6.89864,-1.116626 -21.006787,-1.117826 -27.693058,-0.0024 -39.312737,6.558542 -69.068477,36.348289 -75.385466,75.471627 -1.068038,6.61474 -1.147323,20.30013 -0.154896,26.73666 6.488217,42.08024 39.945426,73.56139 82.066751,77.21968 4.230239,0.3674 17.253599,-0.11262 21.343059,-0.78668 z"
   id="path21850"
   inkscape:label="path21850"
   sodipodi:insensitive="true" /></g>

</svg>
