<!-- Created with Vectornator (http://vectornator.io/) -->
<svg xmlns:inkscape="http://www.inkscape.org/namespaces/inkscape" xmlns:sodipodi="http://sodipodi.sourceforge.net/DTD/sodipodi-0.dtd" xmlns="http://www.w3.org/2000/svg" xmlns:svg="http://www.w3.org/2000/svg" stroke-miterlimit="10" style="clip-rule:evenodd;fill-rule:nonzero;stroke-linecap:round;stroke-linejoin:round" version="1.1" viewBox="0 0 1019.4673 1019.4674" xml:space="preserve" id="svg7" sodipodi:docname="crossing_+.svg" inkscape:version="1.3 (0e150ed6c4, 2023-07-21)">
    <sodipodi:namedview id="namedview7" pagecolor="#ffffff" bordercolor="#666666" borderopacity="1.0" inkscape:showpageshadow="2" inkscape:pageopacity="0.0" inkscape:pagecheckerboard="0" inkscape:deskcolor="#d1d1d1" inkscape:zoom="0.507" inkscape:cx="500" inkscape:cy="517.75148" inkscape:window-width="1920" inkscape:window-height="1120" inkscape:window-x="-11" inkscape:window-y="-11" inkscape:window-maximized="1" inkscape:current-layer="svg7"/>

    <defs id="defs1"/>

 
 <g id="g8" transform="translate(9.7336426,19.536404)">
        <path d="M 500,949.543 C 500,864.05 500,0 500,0" fill="none" class="stroke-orange stroke-orange" stroke="#ffb86c" stroke-linecap="butt" stroke-linejoin="miter" stroke-width="39.0728" id="path2" style="clip-rule:evenodd;fill-rule:nonzero;stroke-linecap:round;stroke-linejoin:round"/>
        <path d="m 367.661,838.183 117.219,143.268 15.12,18.48 15.12,-18.48 117.219,-143.268 c 6.832,-8.35 5.601,-20.659 -2.749,-27.491 -8.351,-6.832 -20.659,-5.602 -27.492,2.749 L 484.88,956.708 h 30.24 L 397.902,813.441 c -6.833,-8.351 -19.141,-9.581 -27.492,-2.749 -8.35,6.832 -9.581,19.141 -2.749,27.491 z" class="fill-orange" fill="#ffb86c" id="path3" style="clip-rule:evenodd;fill-rule:nonzero;stroke-linecap:round;stroke-linejoin:round"/>
    </g>
    <path id="rect8" class="fill-background" style="fill:#ffffff;stroke-dashoffset:130.744;paint-order:stroke markers fill" d="M 405.19714,396.32147 H 614.27013 V 623.14594 H 405.19714 Z"/>
    <g id="g7" transform="translate(-0.0690475,9.7337036)">
        <path d="M 161.817,367.661 18.5495,484.88 0.0690475,500 18.5495,515.12 161.817,632.339 c 8.35,6.832 20.659,5.601 27.491,-2.749 6.832,-8.351 5.602,-20.659 -2.749,-27.492 L 43.2919,484.88 v 30.24 L 186.559,397.902 c 8.351,-6.833 9.581,-19.141 2.749,-27.492 -6.832,-8.35 -19.141,-9.581 -27.491,-2.749 z" class="fill-orange" fill="#ffb86c" id="path6" style="clip-rule:evenodd;fill-rule:nonzero;stroke-linecap:round;stroke-linejoin:round"/>
        <path d="M 50.4571,500 C 135.95,500 1000,500 1000,500" fill="none" class="stroke-orange stroke-orange" stroke="#ffb86c" stroke-linecap="butt" stroke-linejoin="miter" stroke-width="39.0728" id="path5" style="clip-rule:evenodd;fill-rule:nonzero;stroke-linecap:round;stroke-linejoin:round"/>
    </g>

</svg>
