<?xml version="1.0" encoding="UTF-8" standalone="no"?>
<!DOCTYPE svg PUBLIC "-//W3C//DTD SVG 1.1//EN" "http://www.w3.org/Graphics/SVG/1.1/DTD/svg11.dtd">
<!-- Created with Vectornator (http://vectornator.io/) -->
<svg stroke-miterlimit="10" style="fill-rule:nonzero;clip-rule:evenodd;stroke-linecap:round;stroke-linejoin:round;"
    version="1.1" viewBox="0 0 1000 1000" xml:space="preserve" xmlns="http://www.w3.org/2000/svg"
    xmlns:vectornator="http://vectornator.io" xmlns:xlink="http://www.w3.org/1999/xlink">
    <defs />

    <g clip-path="url(#ArtboardFrame)" id="Layer-1" vectornator:layerName="Layer 1">
        <clipPath id="ClipPath">
            <path
                d="M684.177 421.663L391.812 419.763L399.895 582.242L665.809 584.502L643.305 1159.11L191.246 1116.48L157.145-83.2866L718.084-115.848L684.177 421.663Z" />
        </clipPath>
        <g clip-path="url(#ClipPath)">
            <g opacity="1">
                <path d="M500 949.543C500 864.05 500-2.13163e-14 500-2.13163e-14" fill="none" stroke="#ffb86c"
                    stroke-linecap="butt" stroke-linejoin="miter" stroke-width="39.0728" />
                <g fill="#ffb86c" stroke="none">
                    <path
                        d="M367.661 838.183L484.88 981.451L500 999.931L515.12 981.451L632.339 838.183C639.171 829.833 637.94 817.524 629.59 810.692C621.239 803.86 608.931 805.09 602.098 813.441L484.88 956.708L515.12 956.708L397.902 813.441C391.069 805.09 378.761 803.86 370.41 810.692C362.06 817.524 360.829 829.833 367.661 838.183Z"
                        fill="#ffb86c" />
                </g>
            </g>
        </g>
    </g>
    <g clip-path="url(#ArtboardFrame)" id="Layer-2" vectornator:layerName="Layer 2">
        <g opacity="1">
            <path d="M50.4571 500C135.95 500 1000 500 1000 500" fill="none" stroke="#ffb86c" stroke-linecap="butt"
                stroke-linejoin="miter" stroke-width="39.0728" />
            <g fill="#ffb86c" stroke="none">
                <path
                    d="M161.817 367.661L18.5495 484.88L0.0690475 500L18.5495 515.12L161.817 632.339C170.167 639.171 182.476 637.94 189.308 629.59C196.14 621.239 194.91 608.931 186.559 602.098L43.2919 484.88L43.2919 515.12L186.559 397.902C194.91 391.069 196.14 378.761 189.308 370.41C182.476 362.06 170.167 360.829 161.817 367.661Z"
                    fill="#ffb86c" />
            </g>
        </g>
    </g>
</svg>