<?xml version="1.0" encoding="UTF-8" standalone="no"?>
<!DOCTYPE svg PUBLIC "-//W3C//DTD SVG 1.1//EN" "http://www.w3.org/Graphics/SVG/1.1/DTD/svg11.dtd">
<!-- Created with Vectornator (http://vectornator.io/) -->
<svg height="100%" stroke-miterlimit="10" style="fill-rule:nonzero;clip-rule:evenodd;stroke-linecap:round;stroke-linejoin:round;" version="1.1" viewBox="0 0 1000 1000" width="100%" xml:space="preserve" xmlns="http://www.w3.org/2000/svg" xmlns:vectornator="http://vectornator.io" xmlns:xlink="http://www.w3.org/1999/xlink">
<defs/>
<clipPath id="ArtboardFrame">
<rect height="1000" width="1000" x="0" y="0"/>
</clipPath>
<g clip-path="url(#ArtboardFrame)" id="Layer-1" vectornator:layerName="Layer 1">
<clipPath id="ClipPath">
<path d="M684.177 421.663L391.812 419.763L399.895 582.242L665.809 584.502L643.305 1159.11L191.246 1116.48L157.145-83.2866L718.084-115.848L684.177 421.663Z"/>
</clipPath>
<g clip-path="url(#ClipPath)">
<g opacity="1">
<path d="M500 50.4571C500 135.95 500 1000 500 1000" fill="none" stroke="#ffb86c" stroke-linecap="butt" stroke-linejoin="miter" stroke-width="39.0728"/>
<g fill="#ffb86c" stroke="none">
<path d="M632.339 161.817L515.12 18.5495L500 0.0690475L484.88 18.5495L367.661 161.817C360.829 170.167 362.06 182.476 370.41 189.308C378.761 196.14 391.069 194.91 397.902 186.559L515.12 43.2919L484.88 43.2919L602.098 186.559C608.931 194.91 621.239 196.14 629.59 189.308C637.94 182.476 639.171 170.167 632.339 161.817Z" fill="#ffb86c"/>
</g>
</g>
</g>
</g>
<g clip-path="url(#ArtboardFrame)" id="Layer-2" vectornator:layerName="Layer 2">
<g opacity="1">
<path d="M50.4571 500C135.95 500 1000 500 1000 500" fill="none" stroke="#ffb86c" stroke-linecap="butt" stroke-linejoin="miter" stroke-width="39.0728"/>
<g fill="#ffb86c" stroke="none">
<path d="M161.817 367.661L18.5495 484.88L0.0690475 500L18.5495 515.12L161.817 632.339C170.167 639.171 182.476 637.94 189.308 629.59C196.14 621.239 194.91 608.931 186.559 602.098L43.2919 484.88L43.2919 515.12L186.559 397.902C194.91 391.069 196.14 378.761 189.308 370.41C182.476 362.06 170.167 360.829 161.817 367.661Z" fill="#ffb86c"/>
</g>
</g>
</g>
</svg>
