<!-- Created with Inkscape (http://www.inkscape.org/) -->
<svg xmlns:inkscape="http://www.inkscape.org/namespaces/inkscape" xmlns:sodipodi="http://sodipodi.sourceforge.net/DTD/sodipodi-0.dtd" xmlns="http://www.w3.org/2000/svg" xmlns:svg="http://www.w3.org/2000/svg" viewBox="0 0 190.45123 190.28697" version="1.1" id="svg21826" xml:space="preserve" inkscape:version="1.3 (0e150ed6c4, 2023-07-21)" sodipodi:docname="GenMont.svg">
    <sodipodi:namedview id="namedview21828" pagecolor="#ffffff" bordercolor="#666666" borderopacity="1.0" inkscape:showpageshadow="2" inkscape:pageopacity="0.0" inkscape:pagecheckerboard="0" inkscape:deskcolor="#d1d1d1" inkscape:document-units="mm" showgrid="false" inkscape:zoom="2.3786088" inkscape:cx="63.062072" inkscape:cy="109.5178" inkscape:window-width="1920" inkscape:window-height="1120" inkscape:window-x="-11" inkscape:window-y="-11" inkscape:window-maximized="1" inkscape:current-layer="layer1"/>
    <defs id="defs21823"/>
    <g inkscape:label="Layer 1" inkscape:groupmode="layer" id="layer1" transform="translate(-9.2228509,-48.352349)">
        <path class="stroke-orange" style="fill:none;stroke:#ffb86c;stroke-width:3.97134;stroke-dasharray:none;stroke-opacity:1" d="m 39.165063,116.43476 c -1.708423,-1.70843 -4.057728,-3.51949 -5.19084,-5.67406 -0.339596,-0.64573 -0.477182,-1.38139 -0.455978,-2.10151 0.01959,-0.66501 0.172887,-1.28213 0.485164,-1.89135 0.821443,-1.60249 2.430065,-2.94248 3.690604,-4.20301 l 9.456775,-9.456772 c 2.054684,-2.053894 4.310915,-4.167859 7.145103,-4.883891 2.506037,-0.633111 5.945951,-0.172573 8.616169,-0.159543 1.007093,0.0046 1.782059,0.145189 2.731963,0.510122 3.426592,1.316453 5.867805,4.516912 8.406011,7.055122 m 0,20.804892 c -2.084598,-2.0846 -5.888259,-4.57985 -5.787568,-7.77557 0.02383,-0.75455 0.253093,-1.45685 0.635311,-2.1015 0.936116,-1.57883 2.597304,-2.90896 3.891349,-4.20301 4.051376,-4.051362 7.978118,-8.987242 12.60903,-12.365456 1.545504,-1.127426 3.417982,-1.960486 5.253761,-1.921522 0.963336,0.02045 1.850051,0.261283 2.731954,0.706499 2.19744,1.109319 3.613843,3.426264 4.984743,5.384607 3.037006,4.33835 6.622706,8.034902 10.356236,11.768432 M 39.742038,77.164911 c 3.47043,5.907213 -6.13658,13.259957 -0.366822,18.464957 m 69.559794,31.312412 c -2.09636,-2.09636 -5.66775,-4.43019 -5.84011,-7.56541 -0.0833,-1.51459 0.93968,-3.05209 2.06048,-4.20301 2.97061,-3.05044 6.02258,-6.02567 9.03339,-9.03646 2.16342,-2.16342 4.30608,-4.74833 6.93496,-6.341012 1.13801,-0.68945 2.89967,-1.41769 4.20301,-1.41769 3.1861,0 5.46737,2.811002 7.1503,5.236892 3.28421,4.73406 7.06867,8.75502 11.13278,12.81917 M 44.839129,101.09378 c 1.728926,1.72893 4.040501,3.49307 5.184847,5.67406 0.343028,0.65379 0.472784,1.181 0.485157,1.89135 0.01187,0.67757 -0.04986,1.28725 -0.323331,1.89136 -0.541533,1.19631 -1.692682,2.22986 -2.614718,3.15226 l -10.297369,10.29737 c -1.034248,1.03425 -2.364081,2.10035 -3.104423,3.36241 -0.446393,0.76095 -0.707202,1.8651 -0.614403,2.73194 0.304281,2.8421 3.623529,5.15848 5.610174,7.14512 m 40.348879,-36.14587 c 2.012279,2.01227 5.777223,4.52478 5.872061,7.56541 0.02091,0.67119 -0.110489,1.29604 -0.408152,1.89136 -0.568927,1.13788 -1.631585,2.05183 -2.521797,2.94211 l -10.297381,10.29736 c -2.003924,2.00393 -4.727632,4.26043 -3.606279,7.35527 0.818925,2.26013 3.805314,4.40205 5.49764,6.09436 m 40.348876,-4.83346 c 2.26519,2.26519 4.52332,5.1037 7.35526,6.65899 1.53024,0.84038 3.12879,1.12233 4.83347,0.86167 3.74755,-0.57301 6.83929,-6.58951 9.01279,-9.41201 4.30008,-5.58409 9.75803,-10.36481 14.7342,-15.34098 1.39259,-1.3926 2.83164,-3.143 4.62331,-4.01361 0.61884,-0.3007 1.21019,-0.56724 1.89136,-0.54905 0.77136,0.0205 1.63293,0.35715 2.31165,0.77881 1.96164,1.21871 3.62272,3.4137 5.25376,5.04475 m -50.0158,-4.83346 c 1.59534,1.59533 3.57557,3.2121 4.87773,5.04362 0.6245,0.87837 0.83844,1.90236 0.7879,2.9421 -0.14409,2.96428 -4.04833,5.52782 -6.08593,7.56541 -5.14914,5.14915 -10.44052,10.11607 -14.788356,15.97144 -1.96685,2.64882 -4.151693,6.76942 -7.697735,7.29202 -5.045503,0.74358 -8.797069,-4.53083 -11.978577,-7.71233 M 168.117,77.421245 c -5.34516,6.885846 12.85242,28.388755 1.8595,39.125795 l -8.0836,8.08359 c -0.96162,0.96126 -1.97769,2.01799 -3.15226,2.70389 -0.69759,0.40739 -1.51092,0.48413 -2.31164,0.43928 -2.8667,-0.16055 -5.40137,-3.92121 -7.35527,-5.87512 m -104.444753,0 c 2.00202,2.00201 5.712687,4.43815 5.875133,7.35526 0.06629,1.18959 -0.302703,2.38208 -1.110752,3.36241 -2.098277,2.54562 -4.740868,4.80994 -7.076036,7.14511 -2.296488,2.29649 -4.754158,4.50802 -6.912101,6.93496 -2.93949,3.30591 1.640249,8.27788 2.611752,9.42555 16.058096,18.97008 43.49419,-8.24388 60.410511,9.06769 M 79.513942,121.89868 c 1.660011,1.66 3.720119,3.29422 5.02156,5.25375 0.518285,0.78035 0.869001,1.58762 0.850985,2.5218 -0.04721,2.44942 -2.354101,4.25713 -3.981183,5.88422 -3.431578,3.43157 -6.857814,6.87423 -10.297382,10.29721 -1.603021,1.59529 -3.705152,3.6351 -5.884214,4.28019 -0.858828,0.25425 -1.528574,0.26186 -2.311648,0.37068 -1.810403,0.25156 -3.451804,0.22896 -5.463909,0.17967 -0.640635,-0.0157 -1.06662,-0.0896 -1.681204,-0.19021 -0.501665,-0.0821 -0.939777,-0.14305 -1.471056,-0.23009 -3.835383,-0.62839 -6.855403,-4.75082 -9.456762,-7.35219 M 169.87862,121.89868 c 9.00224,10.01839 6.41041,19.92963 -3.82555,22.18351 -20.8039,4.58085 -51.38882,12.18345 -60.06018,19.00597 -3.89282,3.06282 -10.507519,10.50751 -10.507519,10.50751 -1.35319,1.35328 -3.006971,3.06917 -2.860222,5.04361 0.21541,2.89803 3.651415,5.20434 5.592195,7.14511 m 5.674046,-15.13082 c 1.95128,1.95128 5.6126,4.42024 5.86135,7.35527 0.20863,2.46154 -2.28708,4.54061 -3.96999,6.09435 -30.01227,27.70892 -47.00356,8.56443 -62.450324,28.88695 M 103.68124,191.2483 c 4.95424,7.09383 18.03937,12.35655 24.94125,13.01697 11.51826,1.10214 28.26918,-9.78379 40.47846,4.90953" id="path177" sodipodi:nodetypes="csssccsssccsssssssccccssssssccsssccssccsscssccsssssssccsssssccccssccsssssccsssssssssccsscsccssccsc"/>
        <path class="fill-highlight" style="display:inline;fill:#6272a4;fill-opacity:1;stroke:none;stroke-width:0.352778;stroke-opacity:1" d="M 95.986727,238.49586 C 55.96666,234.86994 22.490082,206.59238 12.232833,167.74923 c -4.0133095,-15.198 -4.0133095,-33.36826 0,-48.56626 9.679369,-36.654787 39.637477,-63.733936 77.403894,-69.965414 6.991548,-1.153609 22.641783,-1.153609 29.633333,0 41.25671,6.807379 72.6245,38.175164 79.43188,79.431874 1.84983,11.21107 0.9976,27.64223 -2.02799,39.0998 -9.6571,36.57046 -39.81128,63.87166 -77.2275,69.92077 -4.45449,0.72016 -18.98182,1.23157 -23.459723,0.82586 z m 22.401393,-5.72037 c 52.7555,-8.69562 86.4767,-59.58006 73.70138,-111.21356 -8.70542,-35.184345 -37.59744,-61.552962 -73.87777,-67.425367 -6.89864,-1.116626 -21.006787,-1.117826 -27.693058,-0.0024 -39.312737,6.558542 -69.068477,36.348289 -75.385466,75.471627 -1.068038,6.61474 -1.147323,20.30013 -0.154896,26.73666 6.488217,42.08024 39.945426,73.56139 82.066751,77.21968 4.230239,0.3674 17.253599,-0.11262 21.343059,-0.78668 z" id="path21850" inkscape:label="path21850"/>

    </g>
</svg>
