<?xml version="1.0" encoding="UTF-8" standalone="no"?>
<!-- Created with Inkscape (http://www.inkscape.org/) -->

<svg


   viewBox="0 0 190.45123 190.28697"
   version="1.1"
   id="svg21826"
   xml:space="preserve"
   inkscape:version="1.2.2 (732a01da63, 2022-12-09)"
   sodipodi:docname="Genmont.svg"
   xmlns:inkscape="http://www.inkscape.org/namespaces/inkscape"
   xmlns:sodipodi="http://sodipodi.sourceforge.net/DTD/sodipodi-0.dtd"
   xmlns:xlink="http://www.w3.org/1999/xlink"
   xmlns="http://www.w3.org/2000/svg"
   xmlns:svg="http://www.w3.org/2000/svg"><sodipodi:namedview
     id="namedview21828"
     pagecolor="#ffffff"
     bordercolor="#666666"
     borderopacity="1.0"
     inkscape:showpageshadow="2"
     inkscape:pageopacity="0.0"
     inkscape:pagecheckerboard="0"
     inkscape:deskcolor="#d1d1d1"
     inkscape:document-units="mm"
     showgrid="false"
     inkscape:zoom="0.5946522"
     inkscape:cx="74.833659"
     inkscape:cy="344.73933"
     inkscape:window-width="1920"
     inkscape:window-height="1120"
     inkscape:window-x="-11"
     inkscape:window-y="-11"
     inkscape:window-maximized="1"
     inkscape:current-layer="layer1" /><defs
     id="defs21823" /><g
     inkscape:label="Layer 1"
     inkscape:groupmode="layer"
     id="layer1"
     transform="translate(-9.2228509,-48.352349)"><g
       id="g30393"><path
         style="fill:#ffb86c;fill-opacity:1;stroke-width:0.352778;stroke:#ffb86c;stroke-opacity:1"
         d="m 44.878271,211.45574 -1.508765,-1.53732 2.758229,-3.33621 c 4.426748,-5.35435 8.82286,-8.96869 18.305516,-15.05021 7.274239,-4.66519 11.086126,-7.43574 17.084661,-12.41746 6.747231,-5.6035 10.696106,-8.22062 18.873608,-12.50851 8.07007,-4.23155 12.9187,-8.085 14.79048,-11.75471 0.59954,-1.17543 0.33684,-3.15241 -0.54559,-4.1059 -0.62612,-0.67654 -0.25261,-1.45566 1.23457,-2.57528 1.97318,-1.48551 2.04749,-1.47027 3.20554,0.65746 3.67621,6.7544 -1.45352,14.07108 -14.80444,21.11601 -10.667423,5.62892 -14.410335,8.19307 -25.223613,17.27986 -2.240759,1.883 -3.609724,2.8647 -7.761111,5.56561 -14.421926,9.38296 -17.008263,11.42719 -21.695833,17.14825 -2.894824,3.53306 -2.774163,3.49419 -4.713252,1.51841 z m 120.134039,-3.48977 c -3.54883,-9.45809 -4.15849,-20.02311 -1.83723,-31.83819 0.26684,-1.3582 0.91326,-4.61257 1.4365,-7.23195 1.05661,-5.28951 1.2595,-10.44888 0.54392,-13.83185 l -0.42596,-2.01381 1.42525,-1.92929 c 1.98904,-2.69246 1.99775,-2.69086 3.07602,0.56755 1.21625,3.67539 1.41941,11.96555 0.40441,16.50185 -3.70675,16.56631 -4.01422,25.05775 -1.25088,34.54572 l 1.07111,3.67766 -1.6149,1.52581 c -1.99384,1.88384 -2.13085,1.88512 -2.82824,0.0265 z M 94.645464,184.78699 c -3.891354,-1.05441 -3.921788,-1.30169 -0.435507,-3.53883 1.600514,-1.02704 1.720758,-1.04893 3.726635,-0.67812 4.591808,0.84884 11.147428,-0.97833 17.385788,-4.84573 8.1621,-5.06001 12.07656,-9.89257 16.96162,-20.93983 6.41438,-14.50572 10.32443,-19.39743 17.0554,-21.3374 3.387,-0.97618 9.79422,0.95867 9.21526,2.78283 -0.31703,0.99887 -1.95468,3.43474 -2.21401,3.29315 -7.4663,-4.07627 -12.0342,-0.12655 -19.48625,16.84916 -5.76693,13.13705 -11.20201,19.36017 -21.8457,25.01317 -7.08059,3.76059 -14.47799,4.9963 -20.363236,3.4016 z m -21.946997,-7.76102 c -2.033199,-0.66326 -8.961875,-1.78014 -11.043239,-1.78014 -2.045098,0 -7.947423,-1.67342 -10.700748,-3.03386 -8.052558,-3.97884 -9.453199,-11.84922 -3.726395,-20.93906 3.986067,-6.32687 5.028568,-11.05543 2.973574,-13.48749 -0.63197,-0.74792 -0.426106,-1.07379 1.527496,-2.4179 1.844792,-1.26925 1.994828,-1.21387 3.21292,1.18592 2.261165,4.45476 1.265689,9.0953 -3.704064,17.26697 -2.857602,4.6987 -3.397913,8.65437 -1.567663,11.47703 0.528422,0.81495 1.090474,1.48173 1.249006,1.48173 0.158531,0 0.718372,0.31061 1.244092,0.69026 1.644985,1.18791 6.259082,2.48433 10.749632,3.02031 6.321718,0.75454 8.50319,1.16628 12.431223,2.34633 4.231851,1.27132 4.408258,1.40886 3.163464,2.46639 -0.5343,0.45392 -1.226531,1.09025 -1.538291,1.41406 -0.874953,0.90875 -2.150519,1.00117 -4.271007,0.30945 z m -9.348611,-16.94104 c -4.0602,-0.45839 -8.996302,-1.51302 -8.98913,-1.9206 0.0037,-0.20955 0.480229,-1.13506 1.058982,-2.05669 1.203128,-1.91592 1.037625,-1.88526 6.166259,-1.1422 9.22751,1.33693 12.04588,0.5718 17.338996,-4.70716 5.756229,-5.74083 7.930734,-10.91326 5.894465,-14.02099 -0.659507,-1.00654 -0.466478,-1.33765 1.624606,-2.78677 1.596457,-1.10635 1.859717,-1.01759 2.922171,0.98522 2.920474,5.50535 -1.314422,14.96306 -9.693702,21.64875 -4.970399,3.9658 -8.647321,4.86696 -16.322647,4.00044 z m 25.929167,-1.29505 c -3.055056,-0.99578 -3.681497,-1.65079 -2.525462,-2.64062 0.357247,-0.30588 0.912505,-0.93159 1.233907,-1.39046 0.53394,-0.7623 0.798407,-0.82556 3.064503,-0.73305 2.918823,0.11917 4.313372,-0.70384 10.045109,-5.92826 1.74625,-1.59169 5.3975,-4.69168 8.11389,-6.88887 9.11639,-7.37394 10.22393,-9.65086 7.55624,-15.53434 l -1.08682,-2.39692 1.59393,-1.59393 c 1.90269,-1.90268 2.07011,-1.82944 3.64274,1.59354 3.88335,8.45251 2.11235,13.12033 -8.00193,21.0906 -2.95815,2.33109 -5.77388,4.71661 -10.26532,8.69692 -5.835415,5.17132 -9.826916,6.88049 -13.370787,5.72539 z m 59.266667,-2.95527 c -3.97354,-0.81156 -5.21538,-2.09903 -4.21218,-4.36694 0.93074,-2.10409 1.25719,-2.21293 3.3307,-1.11043 2.07873,1.10527 2.69929,1.11412 4.94042,0.0705 4.83503,-2.25157 10.36451,-10.25286 11.9597,-17.30602 1.23387,-5.45553 1.06674,-8.19431 -1.39381,-22.84042 -1.58288,-9.42194 -1.52619,-18.623964 0.15661,-25.419801 0.99828,-4.031453 2.15994,-7.335089 2.57923,-7.335089 0.82717,0 3.77335,3.282392 3.46437,3.859719 -2.88944,5.398972 -3.18383,18.397105 -0.74354,32.829171 1.92993,11.4138 1.93503,16.13809 0.0238,22.04861 -3.8536,11.91712 -13.17118,20.98697 -20.10527,19.57072 z M 38.173791,150.21742 c -6.715065,-6.61161 -4.797993,-13.06104 6.376506,-21.4519 7.742713,-5.81396 9.159991,-8.53465 7.495282,-14.38844 -0.16414,-0.5772 0.159734,-0.95636 1.631534,-1.91005 2.150847,-1.39371 2.382428,-1.25772 3.313726,1.94584 1.912377,6.57833 -0.504588,11.17387 -9.548795,18.15573 -5.272618,4.07031 -8.023603,7.18048 -8.261107,9.33973 -0.195377,1.77626 0.103918,2.45057 1.943919,4.37962 2.284008,2.39454 2.213936,2.0442 0.851685,4.25814 -1.349594,2.19337 -1.230822,2.20364 -3.80275,-0.32867 z m 34.732247,-3.50159 c -4.757356,-6.86487 -2.837476,-12.88329 6.340362,-19.8757 7.068079,-5.38503 8.753966,-8.57853 6.700178,-12.69185 l -0.583046,-1.16772 1.516775,-1.31239 c 1.999943,-1.73046 2.470806,-1.68262 3.369172,0.34225 3.124158,7.04169 0.802407,12.00281 -9.075353,19.39222 -5.835763,4.36566 -7.052998,7.31056 -4.834198,11.69557 1.037685,2.05078 1.049147,1.99176 -0.779403,4.0136 -1.16012,1.28275 -1.529291,1.22768 -2.654487,-0.39598 z m 31.393422,-10.77916 c -3.93304,-8.31375 -0.2859,-16.6062 11.14738,-25.34568 6.95805,-5.31866 13.55264,-5.71488 18.17548,-1.09204 2.35905,2.35905 4.68111,8.6339 4.68266,12.65383 3.5e-4,0.97014 0.18905,4.00616 0.41928,6.74672 l 0.4186,4.98283 -1.73678,1.98008 c -0.95523,1.08904 -1.84299,1.98208 -1.97279,1.98453 -0.42216,0.008 -0.97932,-3.24868 -1.35721,-7.93305 -0.9795,-12.14208 -1.41262,-14.12414 -3.6409,-16.66202 -3.72824,-4.24623 -8.84472,-2.53917 -17.19964,5.73847 -5.18395,5.136 -6.83234,9.82707 -4.94912,14.08439 0.96157,2.1738 1.02701,1.94843 -1.00657,3.46664 -2.1666,1.61751 -1.90391,1.67081 -2.98039,-0.6047 z M 37.643715,125.11026 c -4.816726,-5.62726 -2.343203,-11.84271 7.298179,-18.3388 1.781186,-1.20012 5.540393,-3.79982 8.353796,-5.77711 9.152008,-6.432163 11.479681,-7.498783 15.471905,-7.089769 2.662996,0.272831 6.092564,1.929345 8.59167,4.149859 l 1.512813,1.344172 -1.5875,1.410158 c -1.859375,1.65166 -2.086715,1.68856 -3.431508,0.55699 -5.104394,-4.295065 -8.190971,-3.664994 -18.087936,3.69233 -1.455208,1.08179 -4.471458,3.21225 -6.702778,4.73436 -9.514166,6.49014 -10.534329,8.48613 -6.877714,13.4565 0.519274,0.70584 0.46768,0.80831 -1.02137,2.02847 -1.95547,1.60236 -2.007006,1.59991 -3.519557,-0.16716 z m 35.620146,-0.97717 c -2.103988,-2.32488 -2.461073,-7.31724 -0.770523,-10.7726 2.20413,-4.50507 14.077463,-14.723868 19.525717,-16.804823 6.361077,-2.429608 10.194255,-0.62799 15.745265,7.400383 3.05413,4.41714 3.04426,4.34415 0.82949,6.13672 -1.57163,1.27203 -1.4428,1.36149 -4.61645,-3.2054 -5.899057,-8.488746 -8.254724,-8.574114 -17.997039,-0.65222 -9.289383,7.55358 -11.015256,10.27603 -9.227252,14.55532 0.625115,1.49612 0.656594,1.42869 -1.334586,2.85865 -1.511568,1.08553 -1.59355,1.10394 -2.154622,0.48397 z M 42.690805,100.18181 C 41.087974,96.626971 40.887331,95.657178 40.594609,90.050001 40.432541,86.945556 40.096967,83.55424 39.848888,82.513743 l -0.451052,-1.891814 1.874061,-1.787728 1.874061,-1.787729 0.432486,1.033709 c 0.972788,2.325115 1.603357,6.349092 1.603357,10.231839 0,4.384594 0.42787,7.014626 1.479193,9.092321 0.867442,1.714292 0.742654,2.004745 -1.437657,3.346299 l -1.78174,1.09632 z"
         id="path30397" /></g><path
       style="display:inline;fill:#6272a4;fill-opacity:1;stroke:none;stroke-width:0.352778;stroke-opacity:1"
       d="M 95.986727,238.49586 C 55.96666,234.86994 22.490082,206.59238 12.232833,167.74923 c -4.0133095,-15.198 -4.0133095,-33.36826 0,-48.56626 9.679369,-36.654787 39.637477,-63.733936 77.403894,-69.965414 6.991548,-1.153609 22.641783,-1.153609 29.633333,0 41.25671,6.807379 72.6245,38.175164 79.43188,79.431874 1.84983,11.21107 0.9976,27.64223 -2.02799,39.0998 -9.6571,36.57046 -39.81128,63.87166 -77.2275,69.92077 -4.45449,0.72016 -18.98182,1.23157 -23.459723,0.82586 z m 22.401393,-5.72037 c 52.7555,-8.69562 86.4767,-59.58006 73.70138,-111.21356 -8.70542,-35.184345 -37.59744,-61.552962 -73.87777,-67.425367 -6.89864,-1.116626 -21.006787,-1.117826 -27.693058,-0.0024 -39.312737,6.558542 -69.068477,36.348289 -75.385466,75.471627 -1.068038,6.61474 -1.147323,20.30013 -0.154896,26.73666 6.488217,42.08024 39.945426,73.56139 82.066751,77.21968 4.230239,0.3674 17.253599,-0.11262 21.343059,-0.78668 z"
       id="path21850"
       inkscape:label="path21850"
       transform="translate(3.9583336e-8)" /><image
       width="190.5"
       height="190.5"
       preserveAspectRatio="none"
       xlink:href="GenMont.png"
       id="image29273"
       x="9.1984673"
       y="48.245834"
       style="display:none" /></g></svg>
