<?xml version="1.0" encoding="UTF-8" standalone="no"?>
<!DOCTYPE svg PUBLIC "-//W3C//DTD SVG 1.1//EN" "http://www.w3.org/Graphics/SVG/1.1/DTD/svg11.dtd">
<!-- Created with Vectornator (http://vectornator.io/) -->
<svg height="100%" stroke-miterlimit="10" style="fill-rule:nonzero;clip-rule:evenodd;stroke-linecap:round;stroke-linejoin:round;" version="1.1" viewBox="0 0 1000 1000" width="100%" xml:space="preserve" xmlns="http://www.w3.org/2000/svg" xmlns:vectornator="http://vectornator.io" xmlns:xlink="http://www.w3.org/1999/xlink">
<defs/>
<g id="Layer-1" vectornator:layerName="Layer 1">
<path d="M212.195 477.439C212.195 304.008 356.884 163.415 535.366 163.415C713.848 163.415 858.537 304.008 858.537 477.439C858.537 650.87 713.848 791.463 535.366 791.463C356.884 791.463 212.195 650.87 212.195 477.439Z" fill="none" opacity="1" stroke="#ffb86c" stroke-linecap="butt" stroke-linejoin="round" stroke-width="15.7417"/>
<path d="M376.829 213.415C360.219 279.856 465.69 358.504 520.732 369.512" fill="none" opacity="1" stroke="#ffb86c" stroke-linecap="round" stroke-linejoin="round" stroke-width="15.7417"/>
<path d="M596.951 388.415C742.268 533.731 469.847 666.154 430.488 774.39" fill="none" opacity="1" stroke="#ffb86c" stroke-linecap="round" stroke-linejoin="round" stroke-width="15.7417"/>
<path d="M701.829 225C612.17 284.773 446.312 465.794 509.146 591.463" fill="none" opacity="1" stroke="#ffb86c" stroke-linecap="round" stroke-linejoin="round" stroke-width="15.7417"/>
<path d="M596.951 642.073C601.881 671.655 619.356 756.499 637.805 781.098" fill="none" opacity="1" stroke="#ffb86c" stroke-linecap="round" stroke-linejoin="round" stroke-width="15.7417"/>
<path d="M760.614 156.357C749.604 145.347 754.194 187.765 745.143 200.436C735.038 214.583 747.166 160.048 762.074 151.103C778.179 141.44 756.716 195.649 771.999 206.566C772.822 207.153 781.108 151.949 788.637 148.184" fill="none" opacity="1" stroke="#ffb86c" stroke-linecap="round" stroke-linejoin="round" stroke-width="0.1"/>
</g>
</svg>
