<!-- Created with Inkscape (http://www.inkscape.org/) -->
<svg xmlns:inkscape="http://www.inkscape.org/namespaces/inkscape" xmlns:sodipodi="http://sodipodi.sourceforge.net/DTD/sodipodi-0.dtd" xmlns="http://www.w3.org/2000/svg" xmlns:svg="http://www.w3.org/2000/svg" viewBox="0 0 40.265003 40.412006" version="1.1" id="svg1" inkscape:version="1.3.2 (091e20ef0f, 2023-11-25)" sodipodi:docname="bnd_sum_sum.svg">
  <sodipodi:namedview id="namedview1" pagecolor="#282a36" bordercolor="#000000" borderopacity="0.25" inkscape:showpageshadow="2" inkscape:pageopacity="0.0" inkscape:pagecheckerboard="0" inkscape:deskcolor="#44475a" inkscape:document-units="mm" showgrid="true" inkscape:zoom="8" inkscape:cx="41.5" inkscape:cy="52.1875" inkscape:window-width="3840" inkscape:window-height="2091" inkscape:window-x="0" inkscape:window-y="0" inkscape:window-maximized="1" inkscape:current-layer="layer1">
    <inkscape:grid id="grid1" units="mm" originx="-56.750107" originy="27.076975" spacingx="0.99999998" spacingy="1" empcolor="#0099e5" empopacity="0.30196078" color="#0099e5" opacity="0.14901961" empspacing="5" dotted="false" gridanglex="30" gridanglez="30" visible="true"/>
  </sodipodi:namedview>
  <defs id="defs1">
    <marker style="overflow:visible" id="ArrowWideRounded" refX="0" refY="0" orient="auto-start-reverse" inkscape:stockid="Wide, rounded arrow" markerWidth="1" markerHeight="1" viewBox="0 0 1 1" inkscape:isstock="true" inkscape:collect="always" preserveAspectRatio="xMidYMid">
      <path style="fill:none;stroke:context-stroke;stroke-width:1;stroke-linecap:round" d="M 3,-3 0,0 3,3" transform="rotate(180,0.125,0)" sodipodi:nodetypes="ccc" id="path139"/>
    </marker>
    <marker style="overflow:visible" id="Triangle" refX="0" refY="0" orient="auto-start-reverse" inkscape:stockid="Triangle arrow" markerWidth="1" markerHeight="1" viewBox="0 0 1 1" inkscape:isstock="true" inkscape:collect="always" preserveAspectRatio="xMidYMid">
      <path transform="scale(0.5)" style="fill:context-stroke;fill-rule:evenodd;stroke:context-stroke;stroke-width:1pt" d="M 5.77,0 -2.88,5 V -5 Z" id="path135"/>
    </marker>
  </defs>
  <g inkscape:label="Layer 1" inkscape:groupmode="layer" id="layer1" transform="translate(-56.750102,27.076977)" style="display:inline">

    <g id="g7-7-1-3" inkscape:label="band_ms" style="display:inline" transform="translate(31.882602,-118.68133)">
      <path style="display:inline;fill:#50fa7b;fill-opacity:0.331667;stroke:none;stroke-width:0.264999;stroke-dasharray:none;stroke-opacity:1" d="M 46.365053,114.99206 C 55.737956,114.86037 64.707868,113.19717 65.000001,110 v -5 c -0.317067,3.01828 -9.126626,4.75261 -18.405549,4.96001 m -5.056147,-0.0396 C 33.303277,109.60165 25.862829,108.0199 25,105 v 5 c 0.435529,2.90223 7.96348,4.54186 16.373688,4.91706" id="path8-4-1-9" sodipodi:nodetypes="cccccccc"/>
      <path style="display:inline;fill:#50fa7b;fill-opacity:0.331667;stroke:none;stroke-width:0.264999;stroke-dasharray:none;stroke-opacity:1" d="m 25,105 v 5 c 1.683707,-6.9342 38.49723,-6.52617 40.000001,0 v -5 c -0.715529,-6.316072 -38,-7.000003 -40.000001,0 z" id="path10-4-5-4" sodipodi:nodetypes="ccccc"/>
      <path style="display:inline;fill:none;stroke:#50fa7b;stroke-width:0.264999;stroke-opacity:1" d="M 63.46998,108.0786 C 64.45571,108.67014 65,109.31918 65,110 c -10e-7,2.64663 -8.225332,4.81299 -18.633856,4.98852 m -5.01003,-0.0713 C 32.050316,114.48895 25.000001,112.45031 25,110 c 0,-0.65601 0.505348,-1.28252 1.424032,-1.85651" id="path9-3-9-8" inkscape:label="path9-3-9-8" sodipodi:nodetypes="csccsc"/>
      <path style="display:inline;fill:none;stroke:#50fa7b;stroke-width:0.264999;stroke-opacity:1" d="M 28.86897,107.04361 C 32.508962,105.80439 38.378729,105 45,105 c 6.643144,0 12.529809,0.80972 16.167029,2.05591" id="path4-9-0-7-1"/>
      <path id="path4-7-76-2" style="display:inline;fill:none;stroke:#50fa7b;stroke-width:0.264999;stroke-opacity:1" d="m 41.533458,109.92515 c -9.39342,-0.41036 -16.533455,-2.45931 -16.533454,-4.92516 6e-6,-2.76142 8.954309,-4.999997 20,-4.999997 11.045691,0 19.999999,2.238577 20,4.999997 10e-7,2.62701 -8.10379,4.78083 -18.402656,4.98429" sodipodi:nodetypes="ccssc"/>
      <path style="display:inline;fill:none;fill-opacity:1;stroke:#50fa7b;stroke-width:0.264999;stroke-dasharray:none;stroke-opacity:1" d="m 25,105 v 5" id="path6-8-7-9"/>
      <path style="display:inline;fill:none;fill-opacity:1;stroke:#50fa7b;stroke-width:0.264999;stroke-dasharray:none;stroke-opacity:1" d="m 65.000001,105 -2e-6,5" id="path7-6-3-3"/>
    </g>
    <g id="g149" inkscape:label="band_ms" style="display:inline" transform="matrix(0.03363493,-0.99943419,-0.99943419,-0.03363493,176.83049,41.719323)">
      <path style="display:inline;fill:#ff79c6;fill-opacity:0.766511;stroke:none;stroke-width:0.264999;stroke-dasharray:none;stroke-opacity:1" d="m 25,105 v 5 c 1.000001,6.6637 39.390446,6.6711 40.000001,0 v -5 c -0.658962,6.2729 -38,7 -40.000001,0 z" id="path140" sodipodi:nodetypes="ccccc"/>
      <path style="display:inline;fill:#ff79c6;fill-opacity:0.766511;stroke:none;stroke-width:0.264999;stroke-dasharray:none;stroke-opacity:1" d="M 42.075766,100.04597 C 33.629753,100.31964 25.882205,101.91228 25,105 v 5 c 0.756773,-3.1167 8.400312,-4.73756 16.954886,-4.99884 m 4.996736,-0.0172 C 55.886405,105.237 64.297826,106.95062 65.000001,110 v -5 c -0.337781,-2.98164 -8.824998,-4.70814 -17.902551,-4.96367" id="path141" sodipodi:nodetypes="cccccccc"/>
      <path style="display:inline;fill:none;stroke:#ff79c6;stroke-width:0.264999;stroke-opacity:1" d="M 63.46998,108.0786 C 64.45571,108.67014 65,109.31918 65,110 c -10e-7,2.76142 -8.954304,5 -20,5 -11.045696,0 -19.999999,-2.23858 -20,-5 0,-0.65601 0.505348,-1.28252 1.424032,-1.85651" id="path142" inkscape:label="path9-3-9-8"/>
      <path style="display:inline;fill:none;stroke:#ff79c6;stroke-width:0.264999;stroke-opacity:1" d="m 28.86897,107.04361 c 3.066664,-1.04403 7.716007,-1.77943 13.06403,-1.98519 m 5.058844,-0.032 c 5.798722,0.147 10.915375,0.91257 14.175185,2.02945" id="path143" sodipodi:nodetypes="cccc"/>
      <path id="path144" style="display:inline;fill:none;stroke:#ff79c6;stroke-width:0.264999;stroke-opacity:1" d="m 47.104584,100.02735 c 10.056461,0.26292 17.895415,2.38892 17.89542,4.97264 10e-7,2.76142 -8.954304,5 -20,5 -11.045696,0 -20.000006,-2.23858 -20,-5 5e-6,-2.51143 7.406417,-4.59039 17.05659,-4.94623" sodipodi:nodetypes="ccssc"/>
      <path style="display:inline;fill:none;fill-opacity:1;stroke:#ff79c6;stroke-width:0.264999;stroke-dasharray:none;stroke-opacity:1" d="m 25,105 v 5" id="path145"/>
      <path style="display:inline;fill:none;fill-opacity:1;stroke:#ff79c6;stroke-width:0.264999;stroke-dasharray:none;stroke-opacity:1" d="m 65.000001,105 -2e-6,5" id="path146"/>
      <path style="display:inline;fill:#f8f8f2;fill-opacity:0.333333;stroke:#6272a4;stroke-width:0.1649999;stroke-dasharray:none;stroke-opacity:1" d="m 42.074622,100.0767 c 2.384502,-0.0185 2.745267,-0.127488 5.040134,-0.08489 -0.13486,1.7113 -0.116853,3.35038 -0.138832,5.02912 -2.422912,-0.004 -2.69926,-0.01 -5.040633,0.0201 0.06863,-1.6845 0.05924,-3.30034 0.148501,-5.01448 z" id="path147" sodipodi:nodetypes="cccccc"/>
      <path style="display:inline;fill:#f8f8f2;fill-opacity:0.333333;stroke:#ff5555;stroke-width:0.19;stroke-dasharray:none;stroke-opacity:1;marker-end:url(#Triangle)" d="m 43.958465,114.01802 0.04622,-2.80009" id="path131" sodipodi:nodetypes="cc" transform="matrix(0.03363493,-0.99943419,-0.99943419,-0.03363493,155.43458,150.26094)"/>
      <path style="display:inline;fill:none;fill-opacity:0.333333;stroke:#ffb86c;stroke-width:0.19;stroke-miterlimit:3.9;stroke-dasharray:none;stroke-opacity:1;marker-end:url(#ArrowWideRounded);paint-order:normal" d="m 42.487614,112.45855 2.800085,0.0462" id="path131-8" sodipodi:nodetypes="cc" transform="matrix(0.03363493,-0.99943419,-0.99943419,-0.03363493,155.43458,150.26094)"/>
      <path style="display:inline;fill:#f8f8f2;fill-opacity:0.333333;stroke:#ff5555;stroke-width:0.1649999;stroke-dasharray:none;stroke-opacity:1;marker-end:url(#Triangle)" d="m 76.260097,-18.69088 0.04622,-2.800085" id="path148" transform="translate(-31.787778,122.74533)"/>
      <path style="display:inline;fill:none;fill-opacity:0.333333;stroke:#ffb86c;stroke-width:0.1649999;stroke-miterlimit:3.9;stroke-dasharray:none;stroke-opacity:1;marker-end:url(#ArrowWideRounded);paint-order:normal" d="m 43.001468,102.49498 2.800085,0.0462" id="path149"/>
    </g>
  </g>
</svg>
