<!-- Created with Vectornator (http://vectornator.io/) -->
<svg xmlns:inkscape="http://www.inkscape.org/namespaces/inkscape" xmlns:sodipodi="http://sodipodi.sourceforge.net/DTD/sodipodi-0.dtd" xmlns="http://www.w3.org/2000/svg" xmlns:svg="http://www.w3.org/2000/svg" xmlns:vectornator="http://vectornator.io" stroke-miterlimit="10" style="clip-rule:evenodd;fill-rule:nonzero;stroke-linecap:round;stroke-linejoin:round" version="1.1" viewBox="0 0 813.01886 438.21268" xml:space="preserve" id="svg28" sodipodi:docname="left_surf.svg"><sodipodi:namedview id="namedview28" pagecolor="#ffffff" bordercolor="#000000" borderopacity="0.25" inkscape:showpageshadow="2" inkscape:pageopacity="0.0" inkscape:pagecheckerboard="0" inkscape:deskcolor="#d1d1d1"/>
    <defs id="defs1">
        <filter color-interpolation-filters="sRGB" filterUnits="userSpaceOnUse" height="89.677803" id="Filter" width="85.564499" x="384.586" y="38.5923">
            <feDropShadow dx="5.30339" dy="-3.14225" flood-color="#282a36" flood-opacity="0.9" in="SourceGraphic" result="Shadow" stdDeviation="4.25342"/>
        </filter>
        <filter color-interpolation-filters="sRGB" filterUnits="userSpaceOnUse" height="89.677803" id="Filter_2" width="85.564499" x="375.37299" y="45.065899">
            <feDropShadow dx="-3.91032" dy="3.33137" flood-color="#282a36" flood-opacity="0.9" in="SourceGraphic" result="Shadow" stdDeviation="4.25342"/>
        </filter>
    </defs>
    <clipPath id="ArtboardFrame_25">
        <rect height="440" width="815" x="0" y="0" id="rect1"/>
    </clipPath>
    <g clip-path="url(#ArtboardFrame_25)" id="Layer-2" vectornator:layerName="Layer 2" transform="translate(-1.482543,-1.7873254)">
        <path d="m 4.28133,312.108 c 0,-52.796 -8.80912,-92.23 69.51917,-123.411 44.5965,-17.753 371.0175,-14.844 552.7085,-8.117 66.683,2.469 113.871,5.452 120.478,8.117 77.3,31.185 64.113,67.607 64.113,120 0,52.618 13.759,88.817 -64.113,120 -24.46,9.795 -612.358,24.047 -673.1865,0 C -5.06289,397.52 4.28133,365.113 4.28133,312.108 Z" class="fill-blue stroke-orange stroke-orange" fill="#8be9fd" fill-rule="nonzero" opacity="1" stroke="#ffb86c" stroke-linecap="round" stroke-linejoin="round" stroke-width="4.86072" id="path1"/>
    </g>
    <g clip-path="url(#ArtboardFrame_25)" id="Layer-9" vectornator:layerName="Layer 9" transform="translate(-1.482543,-1.7873254)">
        <g opacity="1" id="g5">
            <path d="M 674.428,108.642 C 644.725,104.434 610.016,56.573 580.312,52.3642 l 10e-4,-0.0087 C 550.61,48.1466 525.766,82.7677 475.775,85.7745 453.393,87.1207 362.22,161.38 343.654,176.681 c -2.135,1.76 -3.31,2.74 -3.31,2.74 l -46.055,-0.504 c 0,0 126.486,-158.1425 186.486,-138.1425 36.008,12.0026 0.211,0 0.211,0 24.605,3.4864 52.645,36.9257 78.429,50.6944 5.343,2.853 10.589,4.8614 15.687,5.5838 l -10e-4,0.0087 C 604.804,101.27 640.03,59.006 680.03,64.006 c 84.344,10.543 49.583,91.887 42.083,126.887 l -38.911,-2.934 c 0,0 31.764,-59.034 -8.236,-79.034" class="fill-blue" fill="#8be9fd" fill-rule="nonzero" opacity="1" stroke="none" id="path2"/>
            <clipPath id="ClipPath">
                <path d="m 531.878,77.4012 c 0,-26.7356 20.991,-48.4091 46.884,-48.4091 25.893,0 46.884,21.6735 46.884,48.4091 0,26.7358 -20.991,48.4088 -46.884,48.4088 -25.893,0 -46.884,-21.673 -46.884,-48.4088 z" id="path3"/>
            </clipPath>
            <g clip-path="url(#ClipPath)" id="g4">
                <path d="M 674.428,108.642 C 644.725,104.434 610.016,56.573 580.312,52.3642 l 10e-4,-0.0087 c -42.002,-3.6787 -56.729,32.8668 -104.538,33.419 -24.999,0.2887 0,99.9995 0,99.9995 h -40 c 0,0 -15,-164.9995 45,-144.9995 36.008,12.0026 0.211,0 0.211,0 24.605,3.4864 52.645,36.9257 78.429,50.6944 5.343,2.853 10.589,4.8614 15.687,5.5838 l -10e-4,0.0087 C 604.804,101.27 640.03,59.006 680.03,64.006 c 84.344,10.543 51.408,90.525 43.908,125.525 l -40.573,-1.351 c 0,0 31.601,-59.255 -8.399,-79.255" class="fill-red" fill="#ff5555" fill-rule="nonzero" opacity="1" stroke="none" id="path4"/>
            </g>
        </g>
        <g opacity="1" id="g14">
            <path d="M 475.775,85.4717 C 505.478,89.6805 550.61,48.1466 580.313,52.3555" fill="none" opacity="1" class="stroke-orange stroke-orange" stroke="#ffb86c" stroke-linecap="round" stroke-linejoin="round" stroke-width="4.86072" id="path5"/>
            <path d="m 517.741,67.5014 c 0.581,-4.1011 5.485,-6.7977 10.953,-6.0229 5.468,0.7749 9.43,4.7276 8.849,8.8288 -0.581,4.1012 -5.485,6.7977 -10.953,6.0229 -5.469,-0.7748 -9.43,-4.7276 -8.849,-8.8288 z" class="fill-background" fill-rule="nonzero" opacity="1" stroke="none" id="path6"/>
            <path d="M 575.102,97.0527 C 545.399,92.8438 510.69,44.9833 480.986,40.7745" fill="none" opacity="1" class="stroke-orange stroke-orange" stroke="#ffb86c" stroke-linecap="round" stroke-linejoin="round" stroke-width="4.86072" id="path7"/>
            <path d="M 575.101,97.0614 C 604.804,101.27 649.936,59.7363 679.64,63.9451" fill="none" opacity="1" class="stroke-orange stroke-orange" stroke="#ffb86c" stroke-linecap="round" stroke-linejoin="round" stroke-width="4.86072" id="path8"/>
            <path d="m 617.067,79.0911 c 0.581,-4.1012 5.485,-6.7977 10.953,-6.0229 5.468,0.7748 9.43,4.7276 8.849,8.8288 -0.581,4.1011 -5.485,6.7977 -10.953,6.0229 -5.469,-0.7749 -9.43,-4.7276 -8.849,-8.8288 z" class="fill-background" fill-rule="nonzero" opacity="1" stroke="none" id="path9"/>
            <path d="M 674.428,108.642 C 644.725,104.434 610.016,56.573 580.312,52.3642" fill="none" opacity="1" class="stroke-orange stroke-orange" stroke="#ffb86c" stroke-linecap="round" stroke-linejoin="round" stroke-width="4.86072" id="path10"/>
            <clipPath id="ClipPath_2">
                <path d="m -186.231,-96.924 h 974.39 l -17.106,289.479 -42.944,-4.056 -48.856,-3.22 -128.41,-10.339 c 0,0 -51.127,1.773 -188.452,1.642 -5.008,-0.005 -10.505,1.112 -15.728,1.102 -4.723,-0.008 -8.407,0.199 -8.407,0.199 l 10.632,-9.655 -45.468,2.965 -5.754,6.883 -296.12484,-3.659 -101.60616,5.25 -82.225,32.581 z" id="path11"/>
            </clipPath>
            <g clip-path="url(#ClipPath_2)" id="g13">
                <path d="m 480.775,40.7745 c -60,-20 -186.773,138.0835 -186.773,138.0835 l 45.621,0.515 c 0,0 111.276,-96.0861 136.152,-93.5985" fill="none" opacity="1" class="stroke-orange stroke-orange" stroke="#ffb86c" stroke-linecap="butt" stroke-linejoin="round" stroke-width="4.86072" id="path12"/>
                <path d="m 674.966,108.925 c 40,20 3.344,85.357 3.344,85.357 l 44.437,0.685 c 7.5,-35 41.627,-120.418 -42.717,-130.961" fill="none" opacity="1" class="stroke-orange stroke-orange" stroke="#ffb86c" stroke-linecap="round" stroke-linejoin="round" stroke-width="4.86072" id="path13"/>
            </g>
        </g>
    </g>
    <g clip-path="url(#ArtboardFrame_25)" id="Layer-3" vectornator:layerName="Layer 3" transform="translate(-1.482543,-1.7873254)">
        <g opacity="1" id="g19">
            <path d="m 432.246,54.7984 -39.899,26.3249 19.744,37.2247 39.693,-27.5585 z" class="fill-red stroke-orange stroke-orange" fill="#ff5555" fill-rule="nonzero" filter="url(#Filter)" stroke="#ffb86c" stroke-linecap="butt" stroke-linejoin="round" stroke-width="4.86072" vectornator:shadowAngle="-0.534885" vectornator:shadowColor="#282a36" vectornator:shadowOffset="6.16438" vectornator:shadowOpacity="0.9" vectornator:shadowRadius="8.50685" id="path14"/>
            <path d="m 432.246,54.7984 -39.899,26.3249 19.744,37.2247 39.693,-27.5585 z" class="fill-red stroke-orange stroke-orange" fill="#ff5555" fill-rule="nonzero" filter="url(#Filter_2)" stroke="#ffb86c" stroke-linecap="butt" stroke-linejoin="round" stroke-width="4.86072" vectornator:shadowAngle="2.43597" vectornator:shadowColor="#282a36" vectornator:shadowOffset="5.13699" vectornator:shadowOpacity="0.9" vectornator:shadowRadius="8.50685" id="path15"/>
            <path d="M 378.868,72.1337 C 349.165,67.9249 314.456,20.0643 284.752,15.8555 l 10e-4,-0.0087 c -29.703,-4.2088 -54.547,30.4123 -104.538,33.419 -22.382,1.3462 -33.93,37.1294 -32.721,136.8952 0.034,2.767 -37.632,-1.346 -37.723,-2.373 C 99.1035,62.6679 113.285,4.30431 185.215,4.26584 c 37.955,-0.0203 0.211,0 0.211,0 24.605,3.48642 52.645,36.92576 78.429,50.69446 5.343,2.8529 10.589,4.8613 15.687,5.5837 l -10e-4,0.0087 c 29.703,4.2088 64.929,-38.0553 104.929,-33.0553 84.344,10.5429 81.007,127.1266 76.307,161.9776 l -42.303,-0.989 c 0,0 0.932,-96.0701 -39.068,-116.0701" class="fill-blue" fill="#8be9fd" fill-rule="nonzero" opacity="1" stroke="none" id="path16"/>
            <clipPath id="ClipPath_3">
                <path d="m 236.318,40.8926 c 0,-26.7356 20.991,-48.4091 46.884,-48.4091 25.893,0 46.884,21.6735 46.884,48.4091 0,26.7356 -20.991,48.4091 -46.884,48.4091 -25.893,0 -46.884,-21.6735 -46.884,-48.4091 z" id="path17"/>
            </clipPath>
            <g clip-path="url(#ClipPath_3)" id="g18">
                <path d="M 378.868,72.1337 C 349.165,67.9249 314.456,20.0643 284.752,15.8555 l 10e-4,-0.0087 c -42.002,-3.6786 -56.729,32.8668 -104.538,33.419 -24.998,0.2888 0,100.0002 0,100.0002 h -40 c 0,0 -15,-165.0002 45,-145.00016 36.008,12.00256 0.211,0 0.211,0 24.605,3.48642 52.645,36.92576 78.429,50.69446 5.343,2.8529 10.589,4.8613 15.687,5.5837 l -10e-4,0.0087 c 29.703,4.2088 64.929,-38.0553 104.929,-33.0553 84.344,10.5429 51.408,90.5256 43.908,125.5256 l -40.573,-1.352 c 0,0 31.601,-59.2551 -8.399,-79.2551" class="fill-red" fill="#ff5555" fill-rule="nonzero" opacity="1" stroke="none" id="path18"/>
            </g>
        </g>
        <g opacity="1" id="g28">
            <path d="m 177.877,49.7995 c 29.704,4.2089 74.836,-37.325 104.539,-33.1162" fill="none" opacity="1" class="stroke-orange stroke-orange" stroke="#ffb86c" stroke-linecap="round" stroke-linejoin="round" stroke-width="4.86072" id="path19"/>
            <path d="m 219.843,31.8292 c 0.581,-4.1011 5.485,-6.7977 10.954,-6.0228 5.468,0.7748 9.43,4.7276 8.849,8.8287 -0.582,4.1012 -5.486,6.7977 -10.954,6.0229 -5.468,-0.7748 -9.43,-4.7276 -8.849,-8.8288 z" class="fill-background" fill-rule="nonzero" opacity="1" stroke="none" id="path20"/>
            <path d="M 277.205,61.3805 C 247.501,57.1717 212.792,9.31114 183.089,5.10231" fill="none" opacity="1" class="stroke-orange stroke-orange" stroke="#ffb86c" stroke-linecap="round" stroke-linejoin="round" stroke-width="4.86072" id="path21"/>
            <path d="M 277.204,61.3892 C 306.907,65.598 352.039,24.0641 381.742,28.2729" fill="none" opacity="1" class="stroke-orange stroke-orange" stroke="#ffb86c" stroke-linecap="round" stroke-linejoin="round" stroke-width="4.86072" id="path22"/>
            <path d="m 319.169,43.4189 c 0.582,-4.1012 5.486,-6.7977 10.954,-6.0229 5.468,0.7748 9.43,4.7276 8.849,8.8288 -0.581,4.1012 -5.485,6.7977 -10.954,6.0229 -5.468,-0.7749 -9.43,-4.7276 -8.849,-8.8288 z" class="fill-background" fill-rule="nonzero" opacity="1" stroke="none" id="path23"/>
            <path d="M 376.531,72.9702 C 346.827,68.7613 312.118,20.9008 282.415,16.692" fill="none" opacity="1" class="stroke-orange stroke-orange" stroke="#ffb86c" stroke-linecap="round" stroke-linejoin="round" stroke-width="4.86072" id="path24"/>
            <clipPath id="ClipPath_4">
                <path d="m -484.128,-132.596 h 974.39 l -27.379,311.508 -4.51,-0.409 1.049,-10.3 -38.594,-1.874 -0.195,12.069 -69.744,-0.55 -11.504,0.023 -188.984,-11.603 -0.314,15.524 -4.869,0.402 0.073,-5.89 -32.721,-2.408 0.408,10.375 c 0,0 -0.531,0.343 -5.264,0.339 -137.3256,-0.131 -404.07,-45.865 -404.07,-45.865 l -101.606,5.25 -82.226,32.581 z" id="path25"/>
            </clipPath>
            <g clip-path="url(#ClipPath_4)" id="g27">
                <path d="M 182.877,5.10231 C 79.2165,-10.5739 110.704,182.928 110.704,182.928 l 37.132,-0.18 c 0,0 -6.732,-131.2619 30.041,-132.6457" fill="none" opacity="1" class="stroke-orange stroke-orange" stroke="#ffb86c" stroke-linecap="butt" stroke-linejoin="round" stroke-width="4.86072" id="path26"/>
                <path d="m 377.069,73.2524 c 40,20 41.735,103.1956 41.735,103.1956 l 41.721,1.46 c 7.5,-35 5.952,-139.0312 -78.392,-149.5742" fill="none" opacity="1" class="stroke-orange stroke-orange" stroke="#ffb86c" stroke-linecap="round" stroke-linejoin="round" stroke-width="4.86072" id="path27"/>
            </g>
        </g>
    </g>
</svg>
