<!-- Created with Inkscape (http://www.inkscape.org/) -->
<svg xmlns:inkscape="http://www.inkscape.org/namespaces/inkscape" xmlns:sodipodi="http://sodipodi.sourceforge.net/DTD/sodipodi-0.dtd" xmlns="http://www.w3.org/2000/svg" xmlns:svg="http://www.w3.org/2000/svg" viewBox="0 0 40.265003 15.265006" version="1.1" id="svg1" inkscape:version="1.3.2 (091e20ef0f, 2023-11-25)" sodipodi:docname="bnd_sum_2.svg">
  <sodipodi:namedview id="namedview1" pagecolor="#282a36" bordercolor="#000000" borderopacity="0.25" inkscape:showpageshadow="2" inkscape:pageopacity="0.0" inkscape:pagecheckerboard="0" inkscape:deskcolor="#44475a" inkscape:document-units="mm" showgrid="true" inkscape:zoom="181.01933" inkscape:cx="20.144257" inkscape:cy="4.654199" inkscape:window-width="3840" inkscape:window-height="2091" inkscape:window-x="0" inkscape:window-y="0" inkscape:window-maximized="1" inkscape:current-layer="g149">
    <inkscape:grid id="grid1" units="mm" originx="-100.06072" originy="22.182613" spacingx="0.99999998" spacingy="1" empcolor="#0099e5" empopacity="0.30196078" color="#0099e5" opacity="0.14901961" empspacing="5" dotted="false" gridanglex="30" gridanglez="30" visible="true"/>
  </sodipodi:namedview>
  <defs id="defs1">
    <marker style="overflow:visible" id="ArrowWideRounded" refX="0" refY="0" orient="auto-start-reverse" inkscape:stockid="Wide, rounded arrow" markerWidth="1" markerHeight="1" viewBox="0 0 1 1" inkscape:isstock="true" inkscape:collect="always" preserveAspectRatio="xMidYMid">
      <path style="fill:none;stroke:context-stroke;stroke-width:1;stroke-linecap:round" d="M 3,-3 0,0 3,3" transform="rotate(180,0.125,0)" sodipodi:nodetypes="ccc" id="path139"/>
    </marker>
    <marker style="overflow:visible" id="Triangle" refX="0" refY="0" orient="auto-start-reverse" inkscape:stockid="Triangle arrow" markerWidth="1" markerHeight="1" viewBox="0 0 1 1" inkscape:isstock="true" inkscape:collect="always" preserveAspectRatio="xMidYMid">
      <path transform="scale(0.5)" style="fill:context-stroke;fill-rule:evenodd;stroke:context-stroke;stroke-width:1pt" d="M 5.77,0 -2.88,5 V -5 Z" id="path135"/>
    </marker>
  </defs>
  <g inkscape:label="Layer 1" inkscape:groupmode="layer" id="layer1" transform="translate(-100.06072,22.182617)">
    <g id="g149" inkscape:label="band_ms" style="display:inline" transform="translate(75.193219,-122.05011)">
      <path style="display:inline;fill:#ff79c6;fill-opacity:0.333333;stroke:none;stroke-width:0.264999;stroke-dasharray:none;stroke-opacity:1" d="m 25,105 v 5 c 1.000001,6.6637 39.390446,6.6711 40.000001,0 v -5 c -0.658962,6.2729 -38,7 -40.000001,0 z" id="path140" sodipodi:nodetypes="ccccc"/>
      <path style="display:inline;fill:#ff79c6;fill-opacity:0.333333;stroke:none;stroke-width:0.264999;stroke-dasharray:none;stroke-opacity:1" d="m 25,105 v 5 c 1.683707,-6.9342 38.49723,-6.52617 40.000001,0 v -5 c -0.715529,-6.316072 -38,-7.000003 -40.000001,0 z" id="path141" sodipodi:nodetypes="ccccc"/>
      <path style="display:inline;fill:none;stroke:#ff79c6;stroke-width:0.264999;stroke-opacity:1" d="M 63.46998,108.0786 C 64.45571,108.67014 65,109.31918 65,110 c -10e-7,2.76142 -8.954304,5 -20,5 -11.045696,0 -19.999999,-2.23858 -20,-5 0,-0.65601 0.505348,-1.28252 1.424032,-1.85651" id="path142" inkscape:label="path9-3-9-8"/>
      <path style="display:inline;fill:none;stroke:#ff79c6;stroke-width:0.264999;stroke-opacity:1" d="M 28.86897,107.04361 C 32.508962,105.80439 38.378729,105 45,105 c 6.643144,0 12.529809,0.80972 16.167029,2.05591" id="path143"/>
      <path id="path144" style="display:inline;fill:none;stroke:#ff79c6;stroke-width:0.264999;stroke-opacity:1" d="m 65.000004,104.99999 a 20,4.9999995 0 0 1 -20,5 20,4.9999995 0 0 1 -20,-5 20,4.9999995 0 0 1 20,-4.999997 20,4.9999995 0 0 1 20,4.999997 z"/>
      <path style="display:inline;fill:none;fill-opacity:1;stroke:#ff79c6;stroke-width:0.264999;stroke-dasharray:none;stroke-opacity:1" d="m 25,105 v 5" id="path145"/>
      <path style="display:inline;fill:none;fill-opacity:1;stroke:#ff79c6;stroke-width:0.264999;stroke-dasharray:none;stroke-opacity:1" d="m 65.000001,105 -2e-6,5" id="path146"/>
      <path style="fill:#f8f8f2;fill-opacity:0.333333;stroke:#6272a4;stroke-width:0.1649999;stroke-dasharray:none;stroke-opacity:1" d="m 41.209431,100.07905 c 2.363974,-0.13772 4.699817,-0.138983 7.012686,-0.0288 l -0.03073,5.03261 c -2.498849,-0.13854 -4.817656,-0.0996 -7.132818,0.039 z" id="path147" sodipodi:nodetypes="ccccc"/>
      <path style="fill:#f8f8f2;fill-opacity:0.333333;stroke:#ff5555;stroke-width:0.1649999;stroke-dasharray:none;stroke-opacity:1;marker-end:url(#Triangle)" d="m 76.260097,-18.69088 0.04622,-2.800085" id="path148" transform="translate(-31.787778,122.74533)"/>
      <path style="fill:none;fill-opacity:0.333333;stroke:#ffb86c;stroke-width:0.1649999;stroke-miterlimit:3.9;stroke-dasharray:none;stroke-opacity:1;marker-end:url(#ArrowWideRounded);paint-order:normal" d="m 45.863873,102.53701 -2.800234,-0.036" id="path149"/>
    </g>
  </g>
</svg>
