<!-- Created with Inkscape (http://www.inkscape.org/) -->
<svg xmlns:inkscape="http://www.inkscape.org/namespaces/inkscape" xmlns:sodipodi="http://sodipodi.sourceforge.net/DTD/sodipodi-0.dtd" xmlns="http://www.w3.org/2000/svg" xmlns:svg="http://www.w3.org/2000/svg" viewBox="0 0 14.567607 11.894191" version="1.1" id="svg1" inkscape:version="1.3.2 (091e20ef0f, 2023-11-25)" sodipodi:docname="bnd_sum_patch.svg">
  <sodipodi:namedview id="namedview1" pagecolor="#282a36" bordercolor="#000000" borderopacity="0.25" inkscape:showpageshadow="2" inkscape:pageopacity="0.0" inkscape:pagecheckerboard="0" inkscape:deskcolor="#44475a" inkscape:document-units="mm" showgrid="true" inkscape:zoom="5.6568543" inkscape:cx="174.4786" inkscape:cy="15.291184" inkscape:window-width="3840" inkscape:window-height="2091" inkscape:window-x="0" inkscape:window-y="0" inkscape:window-maximized="1" inkscape:current-layer="g7-7-1-3">
    <inkscape:grid id="grid1" units="mm" originx="-68.000724" originy="12.344971" spacingx="0.99999998" spacingy="1" empcolor="#0099e5" empopacity="0.30196078" color="#0099e5" opacity="0.14901961" empspacing="5" dotted="false" gridanglex="30" gridanglez="30" visible="true"/>
  </sodipodi:namedview>
  <defs id="defs1">
    <marker style="overflow:visible" id="ArrowWideRounded" refX="0" refY="0" orient="auto-start-reverse" inkscape:stockid="Wide, rounded arrow" markerWidth="1" markerHeight="1" viewBox="0 0 1 1" inkscape:isstock="true" inkscape:collect="always" preserveAspectRatio="xMidYMid">
      <path style="fill:none;stroke:context-stroke;stroke-width:1;stroke-linecap:round" d="M 3,-3 0,0 3,3" transform="rotate(180,0.125,0)" sodipodi:nodetypes="ccc" id="path139"/>
    </marker>
    <marker style="overflow:visible" id="Triangle" refX="0" refY="0" orient="auto-start-reverse" inkscape:stockid="Triangle arrow" markerWidth="1" markerHeight="1" viewBox="0 0 1 1" inkscape:isstock="true" inkscape:collect="always" preserveAspectRatio="xMidYMid">
      <path transform="scale(0.5)" style="fill:context-stroke;fill-rule:evenodd;stroke:context-stroke;stroke-width:1pt" d="M 5.77,0 -2.88,5 V -5 Z" id="path135"/>
    </marker>
  </defs>
  <g inkscape:label="Layer 1" inkscape:groupmode="layer" id="layer1" transform="translate(-68.000716,12.344975)" style="display:inline">
    <g id="g7-7-1-3" inkscape:label="band_ms" style="display:inline" transform="translate(31.882602,-118.68133)">
      <path style="display:inline;fill:#50fa7b;fill-opacity:0.331667;stroke:none;stroke-width:0.264999;stroke-dasharray:none;stroke-opacity:1" d="m 46.365053,114.99206 c 1.402998,-0.0505 2.242228,-0.01 4.298183,-0.20317 l -0.348188,-4.94313 c -1.346283,0.0818 -2.096093,0.0806 -3.720596,0.11425 m -5.056147,-0.0396 c -8.235028,-0.31876 -0.722953,0.005 -4.89505,-0.37346 l -0.512256,4.98068 c 2.930943,0.16313 3.306863,0.2739 5.242689,0.38943" id="path8-4-1-9" sodipodi:nodetypes="cccccccc"/>
      <path style="display:inline;fill:none;stroke:#50fa7b;stroke-width:0.264999;stroke-opacity:1" d="m 41.356114,114.91722 c -1.841252,-0.0847 -3.594205,-0.23252 -5.221717,-0.43406" id="path154"/>
      <path style="display:inline;fill:none;stroke:#50fa7b;stroke-width:0.264999;stroke-opacity:1" d="m 50.675885,114.79219 c -1.392582,0.10366 -2.808139,0.17101 -4.309741,0.19633" id="path153"/>
      <path style="display:inline;fill:none;stroke:#50fa7b;stroke-width:0.264999;stroke-opacity:1" d="m 50.371165,109.82114 c -1.23239,0.0867 -2.457354,0.13713 -3.773817,0.16314" id="path152"/>
      <path style="display:inline;fill:none;stroke:#50fa7b;stroke-width:0.264999;stroke-opacity:1" d="m 41.533458,109.92515 c -1.718617,-0.0751 -3.361805,-0.20501 -4.899633,-0.38231" id="path4-7-76-2"/>
    </g>
    <g id="g149" inkscape:label="band_ms" style="display:inline" transform="matrix(0.03363493,-0.99943419,-0.99943419,-0.03363493,176.83049,41.719323)">
      <path style="display:inline;fill:#ff79c6;fill-opacity:0.766511;stroke:none;stroke-width:0.264999;stroke-dasharray:none;stroke-opacity:1" d="m 42.075766,100.04597 c -2.349713,0.13047 -2.623787,0.20379 -3.192821,0.17614 l -0.115198,5.02802 c 0.824186,-0.19279 2.704732,-0.23424 3.187139,-0.24897 m 4.996736,-0.0172 c 1.38231,0.0392 1.633472,0.0678 3.431642,0.22158 l 0.304781,-4.97951 c -1.260715,-0.1298 -2.673564,-0.16389 -3.590595,-0.1897" id="path141" sodipodi:nodetypes="cccccccc"/>
      <path style="display:inline;fill:none;stroke:#ff79c6;stroke-width:0.264999;stroke-opacity:1" d="m 38.731016,105.25055 c 1.032681,-0.0851 2.102569,-0.14983 3.201984,-0.19213 m 5.058844,-0.032 c 1.170631,0.0297 2.313465,0.0846 3.418837,0.16246" id="path143" sodipodi:nodetypes="cccc"/>
      <path id="path144" style="display:inline;fill:none;stroke:#ff79c6;stroke-width:0.264999;stroke-opacity:1" d="m 47.104584,100.02735 c 1.241508,0.0325 2.449219,0.0933 3.612557,0.17992 m -11.881567,0.0347 c 1.039038,-0.0841 2.1153,-0.14747 3.22102,-0.18824" sodipodi:nodetypes="cccc"/>
      <path style="display:inline;fill:#f8f8f2;fill-opacity:0.333333;stroke:#6272a4;stroke-width:0.1649999;stroke-dasharray:none;stroke-opacity:1" d="m 42.074622,100.0767 c 2.384502,-0.0185 2.745267,-0.127488 5.040134,-0.08489 -0.13486,1.7113 -0.116853,3.35038 -0.138832,5.02912 -2.422912,-0.004 -2.69926,-0.01 -5.040633,0.0201 0.06863,-1.6845 0.05924,-3.30034 0.148501,-5.01448 z" id="path147" sodipodi:nodetypes="cccccc"/>
      <path style="display:inline;fill:#f8f8f2;fill-opacity:0.333333;stroke:#ff5555;stroke-width:0.19;stroke-dasharray:none;stroke-opacity:1;marker-end:url(#Triangle)" d="m 43.958465,114.01802 0.04622,-2.80009" id="path131" sodipodi:nodetypes="cc" transform="matrix(0.03363493,-0.99943419,-0.99943419,-0.03363493,155.43458,150.26094)"/>
      <path style="display:inline;fill:none;fill-opacity:0.333333;stroke:#ffb86c;stroke-width:0.19;stroke-miterlimit:3.9;stroke-dasharray:none;stroke-opacity:1;marker-end:url(#ArrowWideRounded);paint-order:normal" d="m 42.487614,112.45855 2.800085,0.0462" id="path131-8" sodipodi:nodetypes="cc" transform="matrix(0.03363493,-0.99943419,-0.99943419,-0.03363493,155.43458,150.26094)"/>
      <path style="display:inline;fill:#f8f8f2;fill-opacity:0.333333;stroke:#ff5555;stroke-width:0.1649999;stroke-dasharray:none;stroke-opacity:1;marker-end:url(#Triangle)" d="m 76.260097,-18.69088 0.04622,-2.800085" id="path148" transform="translate(-31.787778,122.74533)"/>
      <path style="display:inline;fill:none;fill-opacity:0.333333;stroke:#ffb86c;stroke-width:0.1649999;stroke-miterlimit:3.9;stroke-dasharray:none;stroke-opacity:1;marker-end:url(#ArrowWideRounded);paint-order:normal" d="m 43.001468,102.49498 2.800085,0.0462" id="path149"/>
    </g>
  </g>
</svg>
