<!-- Created with Vectornator (http://vectornator.io/) -->
<svg xmlns:inkscape="http://www.inkscape.org/namespaces/inkscape" xmlns:sodipodi="http://sodipodi.sourceforge.net/DTD/sodipodi-0.dtd" xmlns="http://www.w3.org/2000/svg" xmlns:svg="http://www.w3.org/2000/svg" xmlns:vectornator="http://vectornator.io" stroke-miterlimit="10" style="clip-rule:evenodd;fill-rule:nonzero;stroke-linecap:round;stroke-linejoin:round" version="1.1" viewBox="0 0 948.12531 901.44348" xml:space="preserve" id="svg21" sodipodi:docname="Alg_4.svg"><sodipodi:namedview id="namedview21" pagecolor="#ffffff" bordercolor="#000000" borderopacity="0.25" inkscape:showpageshadow="2" inkscape:pageopacity="0.0" inkscape:pagecheckerboard="0" inkscape:deskcolor="#d1d1d1"/>
    <defs id="defs1"/>
    <clipPath id="ArtboardFrame_3">
        <rect height="1000" width="1000" x="0" y="0" id="rect1"/>
    </clipPath>
    <g id="Layer-1" vectornator:layerName="Layer 1" transform="translate(-33.815488,-48.397039)">
        <path d="m 225.679,649.904 c -57.637,-20.466 -99.712,-2.3 -99.712,-2.3 -49.4548,13.314 -40.9167,166.852 28.825,200.574 180.652,87.349 729.467,122.821 773.08,50.881 19.949,-32.907 -3.979,-54.706 -21.847,-80.9 -36.296,-53.207 13.105,-110.517 13.105,-110.517 50.771,-38.982 56.113,-80.534 15.374,-124.392 -55.927,-60.206 -31.72,-96.206 -31.72,-96.206 26.862,-32.667 91.946,-102.143 56.77,-154.043 C 950.363,319.44 941.444,307 932.79,295.597 887.611,236.071 926.155,188.38 926.155,188.38 1012.82,128.996 928.579,61.9328 751.885,61.7792 627.89,61.6714 213.595,50.3545 118.111,100.78 -1.40794,163.899 60.8377,297.88 73.4443,315.194 c 1.0405,1.429 39.2107,30.402 124.6627,4.127 45.125,-13.875 158.053,29.222 168.567,160.841 12.372,154.885 -40.481,205.434 -140.995,169.742 z" class="fill-blue stroke-purple" fill="#8be9fd" fill-opacity="0.507588" fill-rule="nonzero" opacity="1" stroke="#bd93f9" stroke-linecap="round" stroke-linejoin="round" stroke-width="24.4437" id="path1"/>
        <path d="m 481.208,461.703 c 52.867,-52.06 126.337,-220.504 225.951,-266.527 25.5,-11.782 60.798,-28.231 110.442,-5.215 32.021,14.846 47.129,47.129 26.707,91.888 -20.307,44.506 -59.819,30.925 -79.94,111.019 1.656,32.893 20.112,71.765 45.901,93.929 45.397,39.017 36.909,78.785 12.439,100.407 -1.852,1.636 -35.854,32.66 -36.567,62.214 -0.266,11.029 7.563,29.806 22.595,49.157 34.454,44.353 26.518,75.504 -2.945,87.408 -107.671,43.502 -184.692,-81.395 -285.847,-189.519 -11.906,-12.725 -23.39,-25.321 -34.276,-37.521 -34.641,-38.823 -4.46,-97.24 -4.46,-97.24 z" class="fill-orange stroke-orangestroke-purple" fill="#ffb86c" fill-opacity="0.466216" fill-rule="nonzero" opacity="1" stroke="#bd93f9" stroke-linecap="round" stroke-linejoin="round" stroke-width="24.4437" id="path2"/>
        <path d="m 204.583,560.079 c 51.161,-43.54 3.418,-138.362 -11.651,-149.85 -10.959,-8.355 -62.137,-30.7 -104.6102,0.718 -27.8127,20.574 -23.4476,94.774 22.8182,141.949 44.523,45.398 93.443,7.183 93.443,7.183 z" class="fill-green stroke-purple" fill="#50fa7b" fill-opacity="0.537845" fill-rule="nonzero" opacity="1" stroke="#bd93f9" stroke-linecap="round" stroke-linejoin="round" stroke-width="24.4437" id="path3"/>
    </g>
    <g id="Layer-3" vectornator:layerName="Layer 3" visibility="hidden" transform="translate(-33.815488,-48.397039)">
        <path d="m 133.562,287.062 c -37.3028,1.787 -67.8176,30.749 -69.687,67.782 -1.994,39.502 29.3491,73.166 70,75.218 40.651,2.053 75.256,-28.279 77.25,-67.781 1.994,-39.502 -29.38,-73.167 -70.031,-75.219 -2.541,-0.128 -5.045,-0.119 -7.532,0 z" class="fill-background" fill-rule="nonzero" opacity="1" stroke="none" id="path4"/>
        <path d="m 154.17,544.659 c -37.303,1.786 -67.8179,30.748 -69.6873,67.781 -1.994,39.502 29.3493,73.167 70.0003,75.219 40.651,2.052 75.256,-28.279 77.25,-67.781 1.994,-39.502 -29.381,-73.167 -70.032,-75.219 -2.54,-0.128 -5.044,-0.119 -7.531,0 z" class="fill-background" fill-rule="nonzero" opacity="1" stroke="none" id="path5"/>
        <path d="m 435.809,433.377 c -14.786,0.708 -28.506,5.686 -39.798,13.744 -17.195,12.27 -28.761,31.684 -29.889,54.038 -1.994,39.501 29.349,73.166 70,75.218 40.651,2.052 75.256,-28.279 77.25,-67.781 1.994,-39.502 -29.381,-73.167 -70.032,-75.219 -2.54,-0.128 -5.044,-0.119 -7.531,0 z" class="fill-background" fill-rule="nonzero" opacity="1" stroke="none" id="path6"/>
        <path d="m 877.501,164.79 c -37.303,1.786 -67.818,30.748 -69.687,67.781 -1.994,39.502 29.349,73.167 70,75.219 40.651,2.052 75.256,-28.279 77.25,-67.781 1.994,-39.502 -29.381,-73.167 -70.031,-75.219 -2.541,-0.128 -5.045,-0.119 -7.532,0 z" class="fill-background" fill-rule="nonzero" opacity="1" stroke="none" id="path7"/>
        <path d="m 866.401,462.638 c -37.303,1.787 -67.818,30.749 -69.687,67.782 -1.994,39.502 29.349,73.166 70,75.218 40.651,2.052 75.256,-28.279 77.25,-67.781 1.994,-39.502 -29.381,-73.167 -70.032,-75.219 -2.54,-0.128 -5.044,-0.119 -7.531,0 z" class="fill-background" fill-rule="nonzero" opacity="1" stroke="none" id="path8"/>
        <path d="m 855.496,689.469 c -37.303,1.787 -67.818,30.749 -69.688,67.782 -1.994,39.502 29.349,73.166 70,75.218 40.651,2.052 75.256,-28.279 77.25,-67.781 1.994,-39.502 -29.38,-73.167 -70.031,-75.219 -2.541,-0.128 -5.044,-0.119 -7.531,0 z" class="fill-background" fill-rule="nonzero" opacity="1" stroke="none" id="path9"/>
    </g>
    <g id="Layer-4" vectornator:layerName="Layer 4" visibility="hidden" transform="translate(-33.815488,-48.397039)">
        <path d="m 193.825,411.531 c -30.282,-28.952 -90.9,-19.181 -107.7792,3.465" fill="none" opacity="1" class="stroke-orange stroke-orange" stroke="#ffb86c" stroke-linecap="round" stroke-linejoin="miter" stroke-width="24.4437" id="path10"/>
        <path d="m 78.8175,317.785 c 28.0795,23.662 94.8275,7.426 119.1445,0.924" fill="none" opacity="1" class="stroke-orange stroke-orange" stroke="#ffb86c" stroke-linecap="round" stroke-linejoin="miter" stroke-width="24.4437" id="path11"/>
        <path d="m 389.007,443.662 c 46.687,39.827 27.848,81.937 2.568,115.484" fill="none" opacity="1" class="stroke-orange stroke-orange" stroke="#ffb86c" stroke-linecap="round" stroke-linejoin="miter" stroke-width="24.4437" id="path12"/>
        <path d="m 488.791,562.342 c -18.917,-21.267 -16.798,-85.012 5.91,-116.09" fill="none" opacity="1" class="stroke-orange stroke-orange" stroke="#ffb86c" stroke-linecap="round" stroke-linejoin="miter" stroke-width="24.4437" id="path13"/>
        <path d="m 205.149,559.756 c -26.227,23.932 -73.429,17.29 -90.474,-5.029" fill="none" opacity="1" class="stroke-orange stroke-orange" stroke="#ffb86c" stroke-linecap="round" stroke-linejoin="miter" stroke-width="24.4437" id="path14"/>
        <path d="M 226.832,649.58 C 184.377,629.466 135.43,642.077 109.534,669.327" fill="none" opacity="1" class="stroke-orange stroke-orange" stroke="#ffb86c" stroke-linecap="round" stroke-linejoin="miter" stroke-width="24.4437" id="path15"/>
        <path d="m 822.391,192.219 c 33.925,12.044 34.501,87.393 15.809,104.343" fill="none" opacity="1" class="stroke-orange stroke-orange" stroke="#ffb86c" stroke-linecap="round" stroke-linejoin="miter" stroke-width="24.4437" id="path16"/>
        <path d="m 933.478,183.735 c -23.93,12.789 -21.665,87.759 -2.299,109.787" fill="none" opacity="1" class="stroke-orange stroke-orange" stroke="#ffb86c" stroke-linecap="round" stroke-linejoin="miter" stroke-width="24.4437" id="path17"/>
        <path d="m 815.221,490.399 c 35.975,24.849 26.561,77.402 8.402,95.583" fill="none" opacity="1" class="stroke-orange stroke-orange" stroke="#ffb86c" stroke-linecap="round" stroke-linejoin="miter" stroke-width="24.4437" id="path18"/>
        <path d="m 916.015,471.681 c -31.284,28.55 -17.525,79.922 15.502,109.342" fill="none" opacity="1" class="stroke-orange stroke-orange" stroke="#ffb86c" stroke-linecap="round" stroke-linejoin="miter" stroke-width="24.4437" id="path19"/>
        <path d="m 813.201,704.451 c 18.983,18.983 6.403,80.866 -20.639,88.045" fill="none" opacity="1" class="stroke-orange stroke-orange" stroke="#ffb86c" stroke-linecap="round" stroke-linejoin="miter" stroke-width="24.4437" id="path20"/>
        <path d="m 914.31,709.163 c -45.315,27.718 -32.908,87.13 -5.727,110.951" fill="none" opacity="1" class="stroke-orange stroke-orange" stroke="#ffb86c" stroke-linecap="round" stroke-linejoin="miter" stroke-width="24.4437" id="path21"/>
    </g>
</svg>
