<!-- Created with Vectornator (http://vectornator.io/) -->
<svg xmlns:inkscape="http://www.inkscape.org/namespaces/inkscape" xmlns:sodipodi="http://sodipodi.sourceforge.net/DTD/sodipodi-0.dtd" xmlns="http://www.w3.org/2000/svg" xmlns:svg="http://www.w3.org/2000/svg" xmlns:vectornator="http://vectornator.io" stroke-miterlimit="10" style="clip-rule:evenodd;fill-rule:nonzero;stroke-linecap:round;stroke-linejoin:round" version="1.1" viewBox="0 0 952.72467 901.44348" xml:space="preserve" id="svg24" sodipodi:docname="Alg_3.svg"><sodipodi:namedview id="namedview24" pagecolor="#ffffff" bordercolor="#000000" borderopacity="0.25" inkscape:showpageshadow="2" inkscape:pageopacity="0.0" inkscape:pagecheckerboard="0" inkscape:deskcolor="#d1d1d1"/>
    <defs id="defs1"/>
    <clipPath id="ArtboardFrame_2">
        <rect height="1000" width="1000" x="0" y="0" id="rect1"/>
    </clipPath>

    <g id="Layer-1" vectornator:layerName="Layer 1" transform="translate(-29.216134,-48.397039)">
        <path d="m 481.208,461.703 c 52.867,-52.06 126.337,-220.504 225.951,-266.527 45.098,-20.836 120.843,-56.273 252.395,137.825 35.176,51.9 -29.908,121.376 -56.77,154.043" fill="none" opacity="1" class="stroke-purple" stroke="#bd93f9" stroke-linecap="round" stroke-linejoin="miter" stroke-width="24.4437" id="path1"/>
        <path d="M 926.155,188.38 C 1012.82,128.996 928.579,61.9328 751.885,61.7792 627.89,61.6714 213.595,50.3545 118.111,100.78 -1.40794,163.899 51.7497,279.141 62.4071,297.718 c 29.4644,51.36 138.4259,97.473 161.3099,152.251 11.197,26.802 32.027,66.57 -19.134,110.11" fill="none" opacity="1" class="stroke-purple" stroke="#bd93f9" stroke-linecap="round" stroke-linejoin="round" stroke-width="24.4437" id="path2"/>
        <path d="m 846.155,287.954 c -53.692,60.607 -69.893,52.827 -82.45,118.829 4.573,90.796 142.202,121.13 185.885,199.135 20.828,67.144 -14.116,85.959 -64.887,124.942" fill="none" opacity="1" class="stroke-purple" stroke="#bd93f9" stroke-linecap="round" stroke-linejoin="miter" stroke-width="24.4437" id="path3"/>
        <path d="m 840.358,569.111 c 0,0 -53.504,50.753 -54.217,80.307 -0.626,25.955 51.576,89.064 88.538,136.482 24.103,30.921 83.195,63.67 53.193,113.159 -43.613,71.94 -592.428,36.468 -773.08,-50.881 C 85.0503,814.456 70.996,705.333 125.967,647.604" fill="none" opacity="1" class="stroke-purple" stroke="#bd93f9" stroke-linecap="round" stroke-linejoin="miter" stroke-width="24.4437" id="path4"/>
        <path d="M 805.791,785.983 C 709.947,851.095 536.005,599.428 384.7,439.988 300.515,351.276 223.338,291.116 170.52,329.957" fill="none" opacity="1" class="stroke-purple" stroke="#bd93f9" stroke-linecap="round" stroke-linejoin="miter" stroke-width="24.4437" id="path5"/>
        <path d="M 400.468,550.956 C 371.68,574.267 316.222,683.549 237.919,654.966 159.615,626.383 24.2615,484.906 97.3319,398.333" fill="none" opacity="1" class="stroke-purple" stroke="#bd93f9" stroke-linecap="round" stroke-linejoin="miter" stroke-width="24.4437" id="path6"/>
    </g>
    <g id="Layer-3" vectornator:layerName="Layer 3" transform="translate(-29.216134,-48.397039)">
        <path d="m 133.562,287.062 c -37.3028,1.787 -67.8176,30.749 -69.687,67.782 -1.994,39.502 29.3491,73.166 70,75.218 40.651,2.053 75.256,-28.279 77.25,-67.781 1.994,-39.502 -29.38,-73.167 -70.031,-75.219 -2.541,-0.128 -5.045,-0.119 -7.532,0 z" class="fill-background" fill-rule="nonzero" opacity="1" stroke="none" id="path7"/>
        <path d="m 154.17,544.659 c -37.303,1.786 -67.8179,30.748 -69.6873,67.781 -1.994,39.502 29.3493,73.167 70.0003,75.219 40.651,2.052 75.256,-28.279 77.25,-67.781 1.994,-39.502 -29.381,-73.167 -70.032,-75.219 -2.54,-0.128 -5.044,-0.119 -7.531,0 z" class="fill-background" fill-rule="nonzero" opacity="1" stroke="none" id="path8"/>
        <path d="m 435.809,433.377 c -14.786,0.708 -28.506,5.686 -39.798,13.744 -17.195,12.27 -28.761,31.684 -29.889,54.038 -1.994,39.501 29.349,73.166 70,75.218 40.651,2.052 75.256,-28.279 77.25,-67.781 1.994,-39.502 -29.381,-73.167 -70.032,-75.219 -2.54,-0.128 -5.044,-0.119 -7.531,0 z" class="fill-background" fill-rule="nonzero" opacity="1" stroke="none" id="path9"/>
        <path d="m 877.501,164.79 c -37.303,1.786 -67.818,30.748 -69.687,67.781 -1.994,39.502 29.349,73.167 70,75.219 40.651,2.052 75.256,-28.279 77.25,-67.781 1.994,-39.502 -29.381,-73.167 -70.031,-75.219 -2.541,-0.128 -5.045,-0.119 -7.532,0 z" class="fill-background" fill-rule="nonzero" opacity="1" stroke="none" id="path10"/>
        <path d="m 866.401,462.638 c -37.303,1.787 -67.818,30.749 -69.687,67.782 -1.994,39.502 29.349,73.166 70,75.218 40.651,2.052 75.256,-28.279 77.25,-67.781 1.994,-39.502 -29.381,-73.167 -70.032,-75.219 -2.54,-0.128 -5.044,-0.119 -7.531,0 z" class="fill-background" fill-rule="nonzero" opacity="1" stroke="none" id="path11"/>
        <path d="m 855.496,689.469 c -37.303,1.787 -67.818,30.749 -69.688,67.782 -1.994,39.502 29.349,73.166 70,75.218 40.651,2.052 75.256,-28.279 77.25,-67.781 1.994,-39.502 -29.38,-73.167 -70.031,-75.219 -2.541,-0.128 -5.044,-0.119 -7.531,0 z" class="fill-background" fill-rule="nonzero" opacity="1" stroke="none" id="path12"/>
    </g>
    <g id="Layer-4" vectornator:layerName="Layer 4" transform="translate(-29.216134,-48.397039)">
        <path d="m 193.825,411.531 c -30.282,-28.952 -90.9,-19.181 -107.7792,3.465" fill="none" opacity="1" class="stroke-orange stroke-orange" stroke="#ffb86c" stroke-linecap="round" stroke-linejoin="miter" stroke-width="24.4437" id="path13"/>
        <path d="m 78.8175,317.785 c 28.0795,23.662 94.8275,7.426 119.1445,0.924" fill="none" opacity="1" class="stroke-orange stroke-orange" stroke="#ffb86c" stroke-linecap="round" stroke-linejoin="miter" stroke-width="24.4437" id="path14"/>
        <path d="m 389.007,443.662 c 46.687,39.827 27.848,81.937 2.568,115.484" fill="none" opacity="1" class="stroke-orange stroke-orange" stroke="#ffb86c" stroke-linecap="round" stroke-linejoin="miter" stroke-width="24.4437" id="path15"/>
        <path d="M 489.634,557.927 C 469.193,527.108 471.993,477.33 494.701,446.252" fill="none" opacity="1" class="stroke-orange stroke-orange" stroke="#ffb86c" stroke-linecap="round" stroke-linejoin="miter" stroke-width="24.4437" id="path16"/>
        <path d="m 205.149,559.756 c -26.227,23.932 -73.429,17.29 -90.474,-5.029" fill="none" opacity="1" class="stroke-orange stroke-orange" stroke="#ffb86c" stroke-linecap="round" stroke-linejoin="miter" stroke-width="24.4437" id="path17"/>
        <path d="M 226.832,649.58 C 184.377,629.466 135.43,642.077 109.534,669.327" fill="none" opacity="1" class="stroke-orange stroke-orange" stroke="#ffb86c" stroke-linecap="round" stroke-linejoin="miter" stroke-width="24.4437" id="path18"/>
        <path d="m 822.391,192.219 c 33.925,12.044 34.501,87.393 15.809,104.343" fill="none" opacity="1" class="stroke-orange stroke-orange" stroke="#ffb86c" stroke-linecap="round" stroke-linejoin="miter" stroke-width="24.4437" id="path19"/>
        <path d="m 933.478,183.735 c -23.93,12.789 -21.665,87.759 -2.299,109.787" fill="none" opacity="1" class="stroke-orange stroke-orange" stroke="#ffb86c" stroke-linecap="round" stroke-linejoin="miter" stroke-width="24.4437" id="path20"/>
        <path d="m 815.221,490.399 c 35.975,24.849 26.561,77.402 8.402,95.583" fill="none" opacity="1" class="stroke-orange stroke-orange" stroke="#ffb86c" stroke-linecap="round" stroke-linejoin="miter" stroke-width="24.4437" id="path21"/>
        <path d="m 916.015,471.681 c -31.284,28.55 -17.525,79.922 15.502,109.342" fill="none" opacity="1" class="stroke-orange stroke-orange" stroke="#ffb86c" stroke-linecap="round" stroke-linejoin="miter" stroke-width="24.4437" id="path22"/>
        <path d="m 813.201,704.451 c 18.983,18.983 6.403,80.866 -20.639,88.045" fill="none" opacity="1" class="stroke-orange stroke-orange" stroke="#ffb86c" stroke-linecap="round" stroke-linejoin="miter" stroke-width="24.4437" id="path23"/>
        <path d="m 914.31,709.163 c -45.315,27.718 -32.908,87.13 -5.727,110.951" fill="none" opacity="1" class="stroke-orange stroke-orange" stroke="#ffb86c" stroke-linecap="round" stroke-linejoin="miter" stroke-width="24.4437" id="path24"/>
    </g>
</svg>
