<!-- Created with Vectornator (http://vectornator.io/) -->
<svg xmlns:inkscape="http://www.inkscape.org/namespaces/inkscape" xmlns:sodipodi="http://sodipodi.sourceforge.net/DTD/sodipodi-0.dtd" xmlns="http://www.w3.org/2000/svg" xmlns:svg="http://www.w3.org/2000/svg" xmlns:vectornator="http://vectornator.io" stroke-miterlimit="10" style="clip-rule:evenodd;fill-rule:nonzero;stroke-linecap:round;stroke-linejoin:round" version="1.1" viewBox="0 0 952.72467 901.44348" xml:space="preserve" id="svg6" sodipodi:docname="Alg_7.svg"><sodipodi:namedview id="namedview6" pagecolor="#ffffff" bordercolor="#000000" borderopacity="0.25" inkscape:showpageshadow="2" inkscape:pageopacity="0.0" inkscape:pagecheckerboard="0" inkscape:deskcolor="#d1d1d1"/>
    <link rel="stylesheet" href="../../../../../static/presentations/Alex_Poly/alg/cus_dracula.css" type="text/css"/>

    <defs id="defs1"/>
    <clipPath id="ArtboardFrame_0">
        <rect width="1000" x="0" y="0" id="rect1" height="0"/>
    </clipPath>
    <g id="Layer-1" vectornator:layerName="Layer 1" transform="translate(-29.216134,-48.397039)">
        <path d="m 481.208,461.703 c 52.867,-52.06 126.337,-220.504 225.951,-266.527 45.098,-20.836 120.843,-56.273 252.395,137.825 35.176,51.9 -29.908,121.376 -56.77,154.043" fill="none" opacity="1" class="stroke-purple" stroke="#bd93f9" stroke-linecap="round" stroke-linejoin="miter" stroke-width="24.4437" id="path1"/>
        <path d="M 926.155,188.38 C 1012.82,128.996 928.579,61.9328 751.885,61.7792 627.89,61.6714 213.595,50.3545 118.111,100.78 -1.40794,163.899 51.7497,279.141 62.4071,297.718 c 29.4644,51.36 138.4259,97.473 161.3099,152.251 11.197,26.802 32.027,66.57 -19.134,110.11" fill="none" opacity="1" class="stroke-purple" stroke="#bd93f9" stroke-linecap="round" stroke-linejoin="miter" stroke-width="24.4437" id="path2"/>
        <path d="m 846.155,287.954 c -53.692,60.607 -69.893,52.827 -82.45,118.829 4.573,90.796 142.202,121.13 185.885,199.135 20.828,67.144 -14.116,85.959 -64.887,124.942" fill="none" opacity="1" class="stroke-purple" stroke="#bd93f9" stroke-linecap="round" stroke-linejoin="miter" stroke-width="24.4437" id="path3"/>
        <path d="m 840.358,569.111 c 0,0 -53.504,50.753 -54.217,80.307 -0.626,25.955 51.576,89.064 88.538,136.482 24.103,30.921 83.195,63.67 53.193,113.159 -43.613,71.94 -592.428,36.468 -773.08,-50.881 C 85.0503,814.456 70.996,705.333 125.967,647.604" fill="none" opacity="1" class="stroke-purple" stroke="#bd93f9" stroke-linecap="round" stroke-linejoin="miter" stroke-width="24.4437" id="path4"/>
        <path d="M 805.791,785.983 C 656.619,887.322 318.266,221.308 170.52,329.957" fill="none" opacity="1" class="stroke-purple" stroke="#bd93f9" stroke-linecap="round" stroke-linejoin="miter" stroke-width="24.4437" id="path5"/>
        <path d="M 400.468,550.956 C 371.68,574.267 316.222,683.549 237.919,654.966 159.615,626.383 24.2615,484.906 97.3319,398.333" fill="none" opacity="1" class="stroke-purple" stroke="#bd93f9" stroke-linecap="round" stroke-linejoin="miter" stroke-width="24.4437" id="path6"/>
    </g>
</svg>
