<?xml version="1.0" encoding="UTF-8" standalone="no"?>
<!DOCTYPE svg PUBLIC "-//W3C//DTD SVG 1.1//EN" "http://www.w3.org/Graphics/SVG/1.1/DTD/svg11.dtd">
<!-- Created with Vectornator (http://vectornator.io/) -->
<svg height="100%" stroke-miterlimit="10" style="fill-rule:nonzero;clip-rule:evenodd;stroke-linecap:round;stroke-linejoin:round;" version="1.1" viewBox="0 0 1000 1000" width="100%" xml:space="preserve" xmlns="http://www.w3.org/2000/svg" xmlns:vectornator="http://vectornator.io" xmlns:xlink="http://www.w3.org/1999/xlink">
<defs>
<filter color-interpolation-filters="sRGB" filterUnits="userSpaceOnUse" height="619.977" id="Filter" width="401.241" x="484.323" y="171.721">
<feDropShadow dx="15.5308" dy="46.6252" flood-color="#282a36" flood-opacity="0.79054" in="SourceGraphic" result="Shadow" stdDeviation="1"/>
</filter>
<filter color-interpolation-filters="sRGB" filterUnits="userSpaceOnUse" height="249.564" id="Filter_2" width="160.712" x="782.297" y="198.978">
<feDropShadow dx="-5.71975" dy="16.0089" flood-color="#282a36" flood-opacity="0.79054" in="SourceGraphic" result="Shadow" stdDeviation="1"/>
</filter>
<filter color-interpolation-filters="sRGB" filterUnits="userSpaceOnUse" height="242.885" id="Filter_3" width="141.382" x="770.669" y="455.909">
<feDropShadow dx="-5.71975" dy="16.0089" flood-color="#282a36" flood-opacity="0.79054" in="SourceGraphic" result="Shadow" stdDeviation="1"/>
</filter>
<filter color-interpolation-filters="sRGB" filterUnits="userSpaceOnUse" height="200.696" id="Filter_4" width="132.782" x="728.405" y="661.312">
<feDropShadow dx="-5.71975" dy="16.0089" flood-color="#282a36" flood-opacity="0.79054" in="SourceGraphic" result="Shadow" stdDeviation="1"/>
</filter>
<filter color-interpolation-filters="sRGB" filterUnits="userSpaceOnUse" height="179.518" id="Filter_5" width="209.02" x="299.313" y="342.538">
<feDropShadow dx="-5.71975" dy="16.0089" flood-color="#282a36" flood-opacity="0.79054" in="SourceGraphic" result="Shadow" stdDeviation="1"/>
</filter>
<filter color-interpolation-filters="sRGB" filterUnits="userSpaceOnUse" height="85.1781" id="Filter_6" width="236.734" x="35.4096" y="211.307">
<feDropShadow dx="-5.71975" dy="16.0089" flood-color="#282a36" flood-opacity="0.79054" in="SourceGraphic" result="Shadow" stdDeviation="1"/>
</filter>
<filter color-interpolation-filters="sRGB" filterUnits="userSpaceOnUse" height="128.767" id="Filter_7" width="222.454" x="27.5612" y="404.943">
<feDropShadow dx="-0.351762" dy="-0.169363" flood-color="#282a36" flood-opacity="0.79054" in="SourceGraphic" result="Shadow" stdDeviation="1"/>
</filter>
<filter color-interpolation-filters="sRGB" filterUnits="userSpaceOnUse" height="24.4269" id="Filter_8" width="45.205" x="135.488" y="234.335">
<feDropShadow dx="-2.34237" dy="-0.510044" flood-color="#282a36" flood-opacity="0.79054" in="SourceGraphic" result="Shadow" stdDeviation="1"/>
</filter>
<filter color-interpolation-filters="sRGB" filterUnits="userSpaceOnUse" height="93.0296" id="Filter_9" width="48.3635" x="109.89" y="443.699">
<feDropShadow dx="-2.25427" dy="0.815539" flood-color="#282a36" flood-opacity="0.79054" in="SourceGraphic" result="Shadow" stdDeviation="1"/>
</filter>
<filter color-interpolation-filters="sRGB" filterUnits="userSpaceOnUse" height="334.035" id="Filter_10" width="204.753" x="108.106" y="234.654">
<feDropShadow dx="15.5308" dy="46.6252" flood-color="#282a36" flood-opacity="0.79054" in="SourceGraphic" result="Shadow" stdDeviation="1"/>
</filter>
<filter color-interpolation-filters="sRGB" filterUnits="userSpaceOnUse" height="237.271" id="Filter_11" width="106.979" x="835.143" y="196.442">
<feDropShadow dx="-1.4096" dy="1.93904" flood-color="#282a36" flood-opacity="0.79054" in="SourceGraphic" result="Shadow" stdDeviation="1"/>
</filter>
<filter color-interpolation-filters="sRGB" filterUnits="userSpaceOnUse" height="202.637" id="Filter_12" width="120.41" x="780.476" y="464.606">
<feDropShadow dx="-1.09819" dy="2.13093" flood-color="#282a36" flood-opacity="0.79054" in="SourceGraphic" result="Shadow" stdDeviation="1"/>
</filter>
<filter color-interpolation-filters="sRGB" filterUnits="userSpaceOnUse" height="132.489" id="Filter_13" width="200.996" x="300.184" y="338.952">
<feDropShadow dx="-1.13898" dy="2.1094" flood-color="#282a36" flood-opacity="0.79054" in="SourceGraphic" result="Shadow" stdDeviation="1"/>
</filter>
<filter color-interpolation-filters="sRGB" filterUnits="userSpaceOnUse" height="197.188" id="Filter_14" width="93.0311" x="744.39" y="654.47">
<feDropShadow dx="-1.51054" dy="1.86149" flood-color="#282a36" flood-opacity="0.79054" in="SourceGraphic" result="Shadow" stdDeviation="1"/>
</filter>
</defs>
<clipPath id="ArtboardFrame">
<rect height="1000" width="1000" x="0" y="0"/>
</clipPath>
<g id="Layer-1" vectornator:layerName="Layer 1">
<path d="M156.849 531.486C100.432 499.893 54.455 503.861 54.455 503.861C1.57852 501.963-11.8446 629.531 55.1254 675.072C228.599 793.038 788.873 963.708 844.215 916.231C869.53 894.513 848.033 870.536 833.415 844.535C803.722 791.72 862.91 757.682 862.91 757.682C920.857 738.962 932.375 706.415 896.75 660.086C847.846 596.487 877.994 573.344 877.994 573.344C910.396 553.608 987.501 513.685 958.773 462.227C951.266 448.781 943.878 436.321 936.612 424.776C898.682 364.508 945.293 335.52 945.293 335.52C1043.18 309.412 966.089 232.903 784.075 187.154C656.346 155.049 231.164 38.8358 125.496 55.3536C-6.77106 76.0294 37.9673 201.497 48.4496 218.888C49.3147 220.324 84.4464 253.836 176.284 254.447C224.781 254.769 334.887 319.117 326.671 429.298C317.003 558.955 255.237 586.581 156.849 531.486Z" fill="#8be9fd" fill-opacity="0.612962" fill-rule="nonzero" opacity="1" stroke="#bd93f9" stroke-linecap="butt" stroke-linejoin="miter" stroke-width="7.49235"/>
<path d="M507.829 373.992C507.829 373.992 651.531 200.764 744.545 180.201C768.356 174.936 801.337 167.522 840.399 198.978C865.593 219.268 873.468 251.783 848.792 288.057C824.256 324.126 792.415 303.39 762.389 371.797C758.593 402.002 768.303 441.21 786.973 466.815C819.841 511.888 806.225 546.173 781.738 560.588C779.886 561.678 745.706 582.596 740.401 609.267C738.421 619.22 742.177 637.927 752.039 658.69C774.643 706.278 762.87 732.86 735.631 737.391C636.085 753.952 589.64 624.204 519.767 504.542C511.543 490.459 503.661 476.583 496.232 463.193C472.589 420.584 507.829 373.992 507.829 373.992Z" fill="#5a8b9b" fill-opacity="0.77324" fill-rule="nonzero" filter="url(#Filter)" stroke="#bd93f9" stroke-linecap="butt" stroke-linejoin="miter" stroke-width="7.49235" vectornator:shadowAngle="1.24926" vectornator:shadowColor="#282a36" vectornator:shadowOffset="49.1438" vectornator:shadowOpacity="0.79054" vectornator:shadowRadius="2"/>
</g>
<g id="Layer-7" vectornator:layerName="Layer 7">
<path d="M842.798 200.749C916.359 234.682 828.935 351.383 937.285 425.527C937.285 425.527 943.512 436.214 936.246 424.669C898.316 364.401 944.394 335.897 942.976 336.138C857.2 350.718 794.686 325.885 794.427 326.254C794.427 326.254 784.749 333.503 795.844 325.201C814.876 310.959 833.292 310.843 848.792 288.057C873.468 251.783 833.292 310.843 848.792 288.057C873.468 251.783 865.593 219.268 840.399 198.978" fill="#5a8b9b" fill-opacity="0.5" fill-rule="nonzero" filter="url(#Filter_2)" stroke="none" vectornator:shadowAngle="1.91395" vectornator:shadowColor="#282a36" vectornator:shadowOffset="17" vectornator:shadowOpacity="0.79054" vectornator:shadowRadius="2"/>
<path d="M783.794 558.833C812.167 543.92 854.058 583.695 876.786 573.901C876.786 573.901 910.03 553.501 877.628 573.238C877.628 573.238 847.479 596.381 896.384 659.98C932.008 706.308 895.738 658.866 895.738 658.866C825.284 605.276 824.438 488.276 787.82 468.721C787.82 468.721 768.303 441.21 786.973 466.815C819.841 511.888 806.225 546.173 781.738 560.588" fill="#5a8b9b" fill-opacity="0.5" fill-rule="nonzero" filter="url(#Filter_3)" stroke="none" vectornator:shadowAngle="1.91395" vectornator:shadowColor="#282a36" vectornator:shadowOffset="17" vectornator:shadowOpacity="0.79054" vectornator:shadowRadius="2"/>
<path d="M753.188 661.312C773.618 706.169 762.839 731.704 737.406 737C757.436 755.611 781.504 753.151 805.281 750.844C800.045 720.936 788.703 689.156 753.188 661.312ZM805.281 750.844C811.919 788.753 808.778 823.634 832.625 843.5C806.334 795.2 853.293 763.372 860.688 758.75C860.815 758.454 861.015 758.211 861.188 757.938C844.426 747.275 824.962 748.934 805.281 750.844ZM737.406 737C737.154 736.765 736.876 736.617 736.625 736.375C736.728 736.606 736.738 736.88 736.812 737.125C737.013 737.086 737.208 737.041 737.406 737Z" fill="#5a8b9b" fill-opacity="0.5" fill-rule="nonzero" filter="url(#Filter_4)" stroke="none" vectornator:shadowAngle="1.91395" vectornator:shadowColor="#282a36" vectornator:shadowOffset="17" vectornator:shadowOpacity="0.79054" vectornator:shadowRadius="2"/>
<path d="M311.218 503.547C318.954 484.156 324.048 459.453 326.305 429.191C328.844 395.137 306.516 341.798 307.569 342.545C388.177 399.738 433.792 395.666 496.073 463.085C496.073 463.085 503.661 476.583 496.232 463.193C472.589 420.584 507.829 373.992 507.829 373.992L508.333 372.75C423.451 360.041 400.705 513.982 310.949 500.543" fill="#5a8b9b" fill-opacity="0.5" fill-rule="nonzero" filter="url(#Filter_5)" stroke="none" vectornator:shadowAngle="1.91395" vectornator:shadowColor="#282a36" vectornator:shadowOffset="17" vectornator:shadowOpacity="0.79054" vectornator:shadowRadius="2"/>
<path d="M272.144 277.977C253.961 254.954 221.277 229.547 176.706 241.792C135.298 253.168 176.768 241.091 176.768 241.091C177.729 244.108 145.618 248.941 144.076 253.026C144.076 253.026 177.208 257.347 143.977 253.04C67.5253 243.132 48.9485 220.217 48.0834 218.782C37.6011 201.39 48.9089 219.799 48.9089 219.799C101.259 262.976 158.476 206.46 270.495 276.907" fill="#5a8b9b" fill-opacity="0.5" fill-rule="nonzero" filter="url(#Filter_6)" stroke="none" vectornator:shadowAngle="1.91395" vectornator:shadowColor="#282a36" vectornator:shadowOffset="17" vectornator:shadowOpacity="0.79054" vectornator:shadowRadius="2"/>
<path d="M156.483 531.379C100.065 499.786 54.0888 503.755 54.0888 503.755C1.2123 501.856 53.4182 503.571 53.4182 503.571C94.4283 478.699 186.748 531.583 212.64 512.939C212.64 512.939 292.002 484.758 212.487 513.417C212.487 513.417 138.464 536.181 118.197 448.039C97.1366 356.447 118.391 449.129 118.391 449.129C120.526 468.553 131.503 510.088 154.262 529.667" fill="#5a8b9b" fill-opacity="0.5" fill-rule="nonzero" filter="url(#Filter_7)" stroke="none" vectornator:shadowAngle="3.59031" vectornator:shadowColor="#282a36" vectornator:shadowOffset="0.390411" vectornator:shadowOpacity="0.79054" vectornator:shadowRadius="2"/>
</g>
<g id="Layer-11" vectornator:layerName="Layer 11">
<path d="M942.969 336.125C921.242 339.818 901.045 340.97 882.938 340.656C882.811 341.021 882.779 341.39 882.625 341.75C882.315 342.474 881.866 342.941 881.5 343.562C887.489 372.259 901.665 400.775 936.406 424.875C936.252 424.63 936.419 424.925 936.25 424.656C898.32 364.388 944.386 335.884 942.969 336.125ZM936.406 424.875C942.901 435.16 937.281 425.531 937.281 425.531C936.97 425.319 936.714 425.088 936.406 424.875Z" fill="#9d4146" fill-rule="nonzero" opacity="1" stroke="none"/>
<path d="M833 561.75C832.508 562.564 831.938 563.315 831.312 564.031C832.301 564.43 833.267 564.785 834.25 565.188C833.813 564.033 833.427 562.9 833 561.75ZM834.25 565.188C847.21 599.412 864.651 635.019 895.344 658.562C850.228 598.985 874.771 575.715 877.188 573.656C877.171 573.667 876.781 573.906 876.781 573.906C865.839 578.622 850.43 571.817 834.25 565.188Z" fill="#9d4146" fill-rule="nonzero" opacity="1" stroke="none"/>
<path d="M819.75 749.656C815.455 749.886 811.1 750.301 806.75 750.719C806.58 751.178 806.463 751.641 806.25 752.094C806.074 752.468 805.82 752.742 805.625 753.094C811.761 790.121 809.255 824.032 832.625 843.5C807.582 797.493 849.691 765.997 860.188 759.094C860.243 758.559 860.298 758.029 860.406 757.5C847.967 749.903 834.092 748.89 819.75 749.656Z" fill="#9d4146" fill-rule="nonzero" opacity="1" stroke="none"/>
<path d="M307.562 342.531C306.51 341.784 328.852 395.134 326.312 429.188C324.161 458.035 319.357 481.697 312.219 500.656C366.385 507.839 396.099 453.936 430.219 413.656C430.219 413.635 430.218 413.615 430.219 413.594C430.153 412.651 430.095 411.675 430.062 410.375C394.481 390.159 357.834 378.2 307.562 342.531ZM312.219 500.656C311.785 500.599 311.375 500.597 310.938 500.531C310.938 500.531 310.554 501.565 310.531 501.625C310.938 501.779 311.331 501.942 311.719 502.125C311.881 501.623 312.042 501.125 312.219 500.656Z" fill="#9d4146" fill-rule="nonzero" opacity="1" stroke="none"/>
<path d="M49 219.875C53.0888 224.531 74.6292 244.045 143.969 253.031C144.091 253.047 143.942 253.016 144.062 253.031C145.474 249.293 172.421 244.932 176.25 241.906C176.52 241.832 176.441 241.858 176.719 241.781C177.704 241.511 178.651 241.359 179.625 241.125C123.066 232.177 84.8827 249.387 49 219.875Z" fill="#9d4146" fill-rule="nonzero" opacity="1" stroke="none"/>
<path d="M110.406 414.25C113.087 425.972 118.406 449.125 118.406 449.125C119.846 462.221 125.402 485.277 135.781 504.969C135.941 505.046 136.163 505.033 136.312 505.125C136.482 505.23 136.601 505.356 136.75 505.469C150.226 508.779 163.139 512.055 174.875 514.312C153.456 509.577 128.701 493.754 118.188 448.031C107.657 402.235 107.725 402.528 110.406 414.25ZM178.281 515.031C192.258 517.483 204.063 517.986 211.344 513.688C208.738 514.411 194.833 517.86 178.281 515.031ZM211.344 513.688C211.629 513.608 212.5 513.406 212.5 513.406C292.015 484.747 212.625 512.938 212.625 512.938C212.226 513.225 211.774 513.434 211.344 513.688Z" fill="#9d4146" fill-rule="nonzero" opacity="1" stroke="none"/>
</g>
<g id="Layer-3" vectornator:layerName="Layer 3">
<path d="M936.246 424.669C898.316 364.401 944.926 335.414 944.926 335.414" fill="none" opacity="1" stroke="#9d4146" stroke-linecap="butt" stroke-linejoin="miter" stroke-width="7.49235"/>
<path d="M896.384 659.98C847.479 596.381 877.628 573.238 877.628 573.238" fill="none" opacity="1" stroke="#9d4146" stroke-linecap="butt" stroke-linejoin="miter" stroke-width="7.49235"/>
<path d="M833.049 844.428C803.356 791.613 862.544 757.576 862.544 757.576" fill="none" opacity="1" stroke="#9d4146" stroke-linecap="butt" stroke-linejoin="miter" stroke-width="7.49235"/>
<path d="M305.327 340.702C320.081 365.462 328.844 395.137 326.305 429.191C324.048 459.453 318.954 484.156 311.218 503.547" fill="none" opacity="1" stroke="#9d4146" stroke-linecap="butt" stroke-linejoin="miter" stroke-width="7.49235"/>
<path d="M496.232 463.193C472.589 420.584 507.829 373.992 507.829 373.992" fill="none" opacity="1" stroke="#8be9fd" stroke-linecap="butt" stroke-linejoin="miter" stroke-opacity="0.69" stroke-width="7.49235"/>
<path d="M752.039 658.69C774.643 706.278 762.87 732.86 735.631 737.391" fill="none" opacity="1" stroke="#8be9fd" stroke-linecap="butt" stroke-linejoin="miter" stroke-opacity="0.686143" stroke-width="7.49235"/>
<path d="M786.973 466.815C819.841 511.888 806.225 546.173 781.738 560.588" fill="none" opacity="1" stroke="#8be9fd" stroke-linecap="butt" stroke-linejoin="miter" stroke-opacity="0.686143" stroke-width="7.49235"/>
<path d="M848.792 288.057C833.292 310.843 814.876 310.959 795.844 325.201" fill="none" opacity="1" stroke="#8be9fd" stroke-linecap="butt" stroke-linejoin="miter" stroke-opacity="0.686143" stroke-width="7.49235"/>
<path d="M840.399 198.978C865.593 219.268 873.468 251.783 848.792 288.057" fill="none" opacity="1" stroke="#8be9fd" stroke-linecap="butt" stroke-linejoin="miter" stroke-opacity="0.686143" stroke-width="7.49235"/>
<path d="M156.483 531.379C100.065 499.786 54.0888 503.755 54.0888 503.755" fill="none" opacity="1" stroke="#8be9fd" stroke-linecap="butt" stroke-linejoin="miter" stroke-opacity="0.686143" stroke-width="7.49235"/>
<path d="M48.0834 218.782C48.9485 220.217 67.5253 243.132 143.977 253.04" fill="none" opacity="1" stroke="#8be9fd" stroke-linecap="butt" stroke-linejoin="miter" stroke-opacity="0.686143" stroke-width="7.49235"/>
</g>
<g id="Layer-6" vectornator:layerName="Layer 6">
<path d="M212.64 512.939C186.748 531.583 94.4283 478.699 53.4182 503.571" fill="none" opacity="1" stroke="#bd93f9" stroke-linecap="round" stroke-linejoin="miter" stroke-width="7.49235"/>
<path d="M48.9089 219.799C101.259 262.976 158.476 206.46 270.495 276.907" fill="none" opacity="1" stroke="#bd93f9" stroke-linecap="round" stroke-linejoin="miter" stroke-width="7.49235"/>
<path d="M144.076 253.026C145.618 248.941 177.729 244.108 176.768 241.091" fill="none" filter="url(#Filter_8)" stroke="#bd93f9" stroke-linecap="round" stroke-linejoin="miter" stroke-width="7.49235" vectornator:shadowAngle="3.35599" vectornator:shadowColor="#282a36" vectornator:shadowOffset="2.39726" vectornator:shadowOpacity="0.79054" vectornator:shadowRadius="2"/>
<path d="M118.391 449.129C120.526 468.553 131.503 510.088 154.262 529.667" fill="none" filter="url(#Filter_9)" stroke="#bd93f9" stroke-linecap="round" stroke-linejoin="miter" stroke-width="7.49235" vectornator:shadowAngle="2.79447" vectornator:shadowColor="#282a36" vectornator:shadowOffset="2.39726" vectornator:shadowOpacity="0.79054" vectornator:shadowRadius="2"/>
</g>
<g id="Layer-10" vectornator:layerName="Layer 10">
<path d="M212.041 513.177C291.556 484.518 296.931 327.354 287.794 302.787C281.148 284.919 240.323 224.115 177.088 241.488C135.68 252.865 96.69 356.207 117.75 447.799C138.017 535.941 212.041 513.177 212.041 513.177Z" fill="#ff5555" fill-opacity="0.546495" fill-rule="nonzero" filter="url(#Filter_10)" stroke="#bd93f9" stroke-linecap="butt" stroke-linejoin="miter" stroke-width="7.49235" vectornator:shadowAngle="1.24926" vectornator:shadowColor="#282a36" vectornator:shadowOffset="49.1438" vectornator:shadowOpacity="0.79054" vectornator:shadowRadius="2"/>
</g>
<g id="Layer-4" vectornator:layerName="Layer 4">
<path d="M118.197 448.039C138.464 536.181 212.487 513.417 212.487 513.417" fill="none" opacity="1" stroke="#9d4146" stroke-linecap="round" stroke-linejoin="miter" stroke-width="7.49235"/>
<path d="M272.144 277.977C253.961 254.954 221.277 229.547 176.706 241.792" fill="none" opacity="1" stroke="#9d4146" stroke-linecap="round" stroke-linejoin="miter" stroke-width="7.49235"/>
</g>
<g id="Layer-8" vectornator:layerName="Layer 8">
<path d="M794.427 326.254C794.686 325.885 868.182 351.962 945.441 335.483" fill="none" opacity="1" stroke="#bd93f9" stroke-linecap="round" stroke-linejoin="miter" stroke-width="7.49235"/>
<path d="M783.794 558.833C812.167 543.92 854.058 583.695 876.786 573.901" fill="none" opacity="1" stroke="#bd93f9" stroke-linecap="round" stroke-linejoin="miter" stroke-width="7.49235"/>
<path d="M310.949 500.543C400.705 513.982 423.451 360.041 508.333 372.75" fill="none" opacity="1" stroke="#bd93f9" stroke-linecap="round" stroke-linejoin="miter" stroke-width="7.49235"/>
<path d="M736.609 736.356C773.556 771.914 824.682 733.577 862.035 758.392" fill="none" opacity="1" stroke="#bd93f9" stroke-linecap="round" stroke-linejoin="miter" stroke-width="7.49235"/>
</g>
<g id="Layer-5" vectornator:layerName="Layer 5">
<path d="M842.798 200.749C916.359 234.682 828.935 351.383 937.285 425.527" fill="none" filter="url(#Filter_11)" stroke="#bd93f9" stroke-linecap="round" stroke-linejoin="miter" stroke-width="7.49235" vectornator:shadowAngle="2.19939" vectornator:shadowColor="#282a36" vectornator:shadowOffset="2.39726" vectornator:shadowOpacity="0.79054" vectornator:shadowRadius="2"/>
<path d="M787.82 468.721C824.438 488.276 825.284 605.276 895.738 658.866" fill="none" filter="url(#Filter_12)" stroke="#bd93f9" stroke-linecap="round" stroke-linejoin="miter" stroke-width="7.49235" vectornator:shadowAngle="2.04665" vectornator:shadowColor="#282a36" vectornator:shadowOffset="2.39726" vectornator:shadowOpacity="0.79054" vectornator:shadowRadius="2"/>
<path d="M307.569 343.088C334.45 380.647 422.782 378.389 496.073 463.085" fill="none" filter="url(#Filter_13)" stroke="#bd93f9" stroke-linecap="round" stroke-linejoin="miter" stroke-width="7.49235" vectornator:shadowAngle="2.06589" vectornator:shadowColor="#282a36" vectornator:shadowOffset="2.39726" vectornator:shadowOpacity="0.79054" vectornator:shadowRadius="2"/>
<path d="M752.147 658.854C833.261 722.062 789.84 807.986 832.686 843.55" fill="none" filter="url(#Filter_14)" stroke="#bd93f9" stroke-linecap="round" stroke-linejoin="miter" stroke-width="7.49235" vectornator:shadowAngle="2.25249" vectornator:shadowColor="#282a36" vectornator:shadowOffset="2.39726" vectornator:shadowOpacity="0.79054" vectornator:shadowRadius="2"/>
</g>
</svg>
