<?xml version="1.0" encoding="UTF-8" standalone="no"?>
<!DOCTYPE svg PUBLIC "-//W3C//DTD SVG 1.1//EN" "http://www.w3.org/Graphics/SVG/1.1/DTD/svg11.dtd">
<!-- Created with Vectornator (http://vectornator.io/) -->
<svg height="100%" stroke-miterlimit="10" style="fill-rule:nonzero;clip-rule:evenodd;stroke-linecap:round;stroke-linejoin:round;" version="1.1" viewBox="0 0 1000 1000" width="100%" xml:space="preserve" xmlns="http://www.w3.org/2000/svg" xmlns:vectornator="http://vectornator.io" xmlns:xlink="http://www.w3.org/1999/xlink">
<defs>
<filter color-interpolation-filters="sRGB" filterUnits="userSpaceOnUse" height="619.977" id="Filter" width="401.241" x="484.323" y="171.721">
<feDropShadow dx="15.5308" dy="46.6252" flood-color="#282a36" flood-opacity="0.79054" in="SourceGraphic" result="Shadow" stdDeviation="1"/>
</filter>
<filter color-interpolation-filters="sRGB" filterUnits="userSpaceOnUse" height="334.035" id="Filter_2" width="204.753" x="108.106" y="234.654">
<feDropShadow dx="15.5308" dy="46.6252" flood-color="#282a36" flood-opacity="0.79054" in="SourceGraphic" result="Shadow" stdDeviation="1"/>
</filter>
</defs>
<clipPath id="ArtboardFrame">
<rect height="1000" width="1000" x="0" y="0"/>
</clipPath>
<g id="Layer-1" vectornator:layerName="Layer 1">
<path d="M156.483 531.379C100.065 499.786 54.0888 503.755 54.0888 503.755C1.2123 501.856-12.2108 629.424 54.7592 674.965C228.233 792.931 788.507 963.602 843.849 916.124C869.164 894.407 847.667 870.43 833.049 844.428C803.356 791.613 862.544 757.576 862.544 757.576C920.491 738.856 932.008 706.308 896.384 659.98C847.479 596.381 877.628 573.238 877.628 573.238C910.03 553.501 987.135 513.579 958.406 462.12C950.9 448.675 943.512 436.214 936.246 424.669C898.316 364.401 944.926 335.414 944.926 335.414C1042.81 309.306 965.722 232.796 783.709 187.047C655.98 154.943 230.798 38.7292 125.13 55.247C-7.13729 75.9228 37.6011 201.39 48.0834 218.782C48.9485 220.217 84.0801 253.729 175.918 254.34C224.415 254.662 334.521 319.01 326.305 429.191C316.637 558.849 254.871 586.475 156.483 531.379Z" fill="#8be9fd" fill-opacity="0.507588" fill-rule="nonzero" opacity="1" stroke="#bd93f9" stroke-linecap="butt" stroke-linejoin="miter" stroke-width="7.49235"/>
<path d="M507.829 373.992C507.829 373.992 651.531 200.764 744.545 180.201C768.356 174.936 801.337 167.522 840.399 198.978C865.593 219.268 873.468 251.783 848.792 288.057C824.256 324.126 792.415 303.39 762.389 371.797C758.593 402.002 768.303 441.21 786.973 466.815C819.841 511.888 806.225 546.173 781.738 560.588C779.886 561.678 745.706 582.596 740.401 609.267C738.421 619.22 742.177 637.927 752.039 658.69C774.643 706.278 762.87 732.86 735.631 737.391C636.085 753.952 589.64 624.204 519.767 504.542C511.543 490.459 503.661 476.583 496.232 463.193C472.589 420.584 507.829 373.992 507.829 373.992Z" fill="#ffb86c" fill-opacity="0.466216" fill-rule="nonzero" filter="url(#Filter)" stroke="#bd93f9" stroke-linecap="butt" stroke-linejoin="miter" stroke-width="7.49235" vectornator:shadowAngle="1.24926" vectornator:shadowColor="#282a36" vectornator:shadowOffset="49.1438" vectornator:shadowOpacity="0.79054" vectornator:shadowRadius="2"/>
</g>
<g id="Layer-3" vectornator:layerName="Layer 3">
<path d="M936.246 424.669C898.316 364.401 944.926 335.414 944.926 335.414" fill="none" opacity="1" stroke="#ffb86c" stroke-linecap="butt" stroke-linejoin="miter" stroke-width="7.49235"/>
<path d="M896.384 659.98C847.479 596.381 877.628 573.238 877.628 573.238" fill="none" opacity="1" stroke="#ffb86c" stroke-linecap="butt" stroke-linejoin="miter" stroke-width="7.49235"/>
<path d="M833.049 844.428C803.356 791.613 862.544 757.576 862.544 757.576" fill="none" opacity="1" stroke="#ffb86c" stroke-linecap="butt" stroke-linejoin="miter" stroke-width="7.49235"/>
<path d="M305.327 340.702C320.081 365.462 328.844 395.137 326.305 429.191C324.048 459.453 318.954 484.156 311.218 503.547" fill="none" opacity="1" stroke="#ffb86c" stroke-linecap="butt" stroke-linejoin="miter" stroke-width="7.49235"/>
<path d="M496.232 463.193C472.589 420.584 507.829 373.992 507.829 373.992" fill="none" opacity="1" stroke="#ffb86c" stroke-linecap="butt" stroke-linejoin="miter" stroke-width="7.49235"/>
<path d="M752.039 658.69C774.643 706.278 762.87 732.86 735.631 737.391" fill="none" opacity="1" stroke="#ffb86c" stroke-linecap="butt" stroke-linejoin="miter" stroke-width="7.49235"/>
<path d="M786.973 466.815C819.841 511.888 806.225 546.173 781.738 560.588" fill="none" opacity="1" stroke="#ffb86c" stroke-linecap="butt" stroke-linejoin="miter" stroke-width="7.49235"/>
<path d="M848.792 288.057C833.292 310.843 814.876 310.959 795.844 325.201" fill="none" opacity="1" stroke="#ffb86c" stroke-linecap="butt" stroke-linejoin="miter" stroke-width="7.49235"/>
<path d="M840.399 198.978C865.593 219.268 873.468 251.783 848.792 288.057" fill="none" opacity="1" stroke="#ffb86c" stroke-linecap="butt" stroke-linejoin="miter" stroke-width="7.49235"/>
</g>
<g id="Layer-6" vectornator:layerName="Layer 6">
<path d="M48.0834 218.782C48.9485 220.217 84.0801 253.729 175.918 254.34" fill="none" opacity="1" stroke="#ffb86c" stroke-linecap="butt" stroke-linejoin="miter" stroke-width="7.49235"/>
<path d="M156.483 531.379C100.065 499.786 54.0888 503.755 54.0888 503.755" fill="none" opacity="1" stroke="#ffb86c" stroke-linecap="butt" stroke-linejoin="miter" stroke-width="7.49235"/>
</g>
<g id="Layer-4" vectornator:layerName="Layer 4">
<path d="M212.041 513.177C291.556 484.518 296.931 327.354 287.794 302.787C281.148 284.919 240.323 224.115 177.088 241.488C135.68 252.865 96.69 356.207 117.75 447.799C138.017 535.941 212.041 513.177 212.041 513.177Z" fill="#50fa7b" fill-opacity="0.537845" fill-rule="nonzero" filter="url(#Filter_2)" stroke="#bd93f9" stroke-linecap="butt" stroke-linejoin="miter" stroke-width="7.49235" vectornator:shadowAngle="1.24926" vectornator:shadowColor="#282a36" vectornator:shadowOffset="49.1438" vectornator:shadowOpacity="0.79054" vectornator:shadowRadius="2"/>
<path d="M272.144 277.977C253.961 254.954 220.523 228.36 175.952 240.605" fill="none" opacity="1" stroke="#ffb86c" stroke-linecap="butt" stroke-linejoin="miter" stroke-width="7.49235"/>
<path d="M118.197 448.039C138.464 536.181 212.487 513.417 212.487 513.417" fill="none" opacity="1" stroke="#ffb86c" stroke-linecap="butt" stroke-linejoin="miter" stroke-width="7.49235"/>
</g>
</svg>
