<?xml version="1.0" encoding="UTF-8" standalone="no"?>
<!DOCTYPE svg PUBLIC "-//W3C//DTD SVG 1.1//EN" "http://www.w3.org/Graphics/SVG/1.1/DTD/svg11.dtd">
<!-- Created with Vectornator (http://vectornator.io/) -->
<svg height="100%" stroke-miterlimit="10" style="fill-rule:nonzero;clip-rule:evenodd;stroke-linecap:round;stroke-linejoin:round;" version="1.1" viewBox="0 0 1000 1000" width="100%" xml:space="preserve" xmlns="http://www.w3.org/2000/svg" xmlns:vectornator="http://vectornator.io" xmlns:xlink="http://www.w3.org/1999/xlink">
<defs>
<filter color-interpolation-filters="sRGB" filterUnits="userSpaceOnUse" height="619.977" id="Filter" width="401.241" x="484.323" y="171.721">
<feDropShadow dx="15.5308" dy="46.6252" flood-color="#282a36" flood-opacity="0.79054" in="SourceGraphic" result="Shadow" stdDeviation="1"/>
</filter>
<filter color-interpolation-filters="sRGB" filterUnits="userSpaceOnUse" height="334.035" id="Filter_2" width="204.753" x="108.106" y="234.654">
<feDropShadow dx="15.5308" dy="46.6252" flood-color="#282a36" flood-opacity="0.79054" in="SourceGraphic" result="Shadow" stdDeviation="1"/>
</filter>
<filter color-interpolation-filters="sRGB" filterUnits="userSpaceOnUse" height="24.4269" id="Filter_3" width="45.205" x="135.488" y="234.335">
<feDropShadow dx="-2.34237" dy="-0.510044" flood-color="#282a36" flood-opacity="0.79054" in="SourceGraphic" result="Shadow" stdDeviation="1"/>
</filter>
<filter color-interpolation-filters="sRGB" filterUnits="userSpaceOnUse" height="93.0296" id="Filter_4" width="48.3635" x="109.89" y="443.699">
<feDropShadow dx="-2.25427" dy="0.815539" flood-color="#282a36" flood-opacity="0.79054" in="SourceGraphic" result="Shadow" stdDeviation="1"/>
</filter>
<filter color-interpolation-filters="sRGB" filterUnits="userSpaceOnUse" height="334.035" id="Filter_5" width="204.753" x="108.106" y="234.654">
<feComponentTransfer in="SourceGraphic" result="Alpha">
<feFuncA slope="0" type="linear"/>
</feComponentTransfer>
<feDropShadow dx="15.5308" dy="46.6252" flood-color="#282a36" flood-opacity="0.79054" in="Alpha" result="Shadow" stdDeviation="1"/>
</filter>
<filter color-interpolation-filters="sRGB" filterUnits="userSpaceOnUse" height="237.271" id="Filter_6" width="106.979" x="835.143" y="196.442">
<feDropShadow dx="-1.4096" dy="1.93904" flood-color="#282a36" flood-opacity="0.79054" in="SourceGraphic" result="Shadow" stdDeviation="1"/>
</filter>
<filter color-interpolation-filters="sRGB" filterUnits="userSpaceOnUse" height="202.637" id="Filter_7" width="120.41" x="780.476" y="464.606">
<feDropShadow dx="-1.09819" dy="2.13093" flood-color="#282a36" flood-opacity="0.79054" in="SourceGraphic" result="Shadow" stdDeviation="1"/>
</filter>
<filter color-interpolation-filters="sRGB" filterUnits="userSpaceOnUse" height="132.489" id="Filter_8" width="200.996" x="300.184" y="338.952">
<feDropShadow dx="-1.13898" dy="2.1094" flood-color="#282a36" flood-opacity="0.79054" in="SourceGraphic" result="Shadow" stdDeviation="1"/>
</filter>
<filter color-interpolation-filters="sRGB" filterUnits="userSpaceOnUse" height="195.049" id="Filter_9" width="92.3646" x="745.057" y="656.609">
<feDropShadow dx="-1.51054" dy="1.86149" flood-color="#282a36" flood-opacity="0.79054" in="SourceGraphic" result="Shadow" stdDeviation="1"/>
</filter>
</defs>
<clipPath id="ArtboardFrame">
<rect height="1000" width="1000" x="0" y="0"/>
</clipPath>
<g id="Layer-1" vectornator:layerName="Layer 1">
<path d="M156.483 531.379C100.065 499.786 54.0888 503.755 54.0888 503.755C1.2123 501.856-12.2108 629.424 54.7592 674.965C228.233 792.931 788.507 963.602 843.849 916.124C869.164 894.407 847.667 870.43 833.049 844.428C803.356 791.613 862.544 757.576 862.544 757.576C920.491 738.856 932.008 706.308 896.384 659.98C847.479 596.381 877.628 573.238 877.628 573.238C910.03 553.501 987.135 513.579 958.406 462.12C950.9 448.675 943.512 436.214 936.246 424.669C898.316 364.401 944.926 335.414 944.926 335.414C1042.81 309.306 965.722 232.796 783.709 187.047C655.98 154.943 230.798 38.7292 125.13 55.247C-7.13729 75.9228 37.6011 201.39 48.0834 218.782C48.9485 220.217 84.0801 253.729 175.918 254.34C224.415 254.662 334.521 319.01 326.305 429.191C316.637 558.849 254.871 586.475 156.483 531.379Z" fill="#8be9fd" fill-opacity="0.507588" fill-rule="nonzero" opacity="1" stroke="#bd93f9" stroke-linecap="butt" stroke-linejoin="miter" stroke-width="7.49235"/>
<path d="M507.829 373.992C507.829 373.992 651.531 200.764 744.545 180.201C768.356 174.936 801.337 167.522 840.399 198.978C865.593 219.268 873.468 251.783 848.792 288.057C824.256 324.126 792.415 303.39 762.389 371.797C758.593 402.002 768.303 441.21 786.973 466.815C819.841 511.888 806.225 546.173 781.738 560.588C779.886 561.678 745.706 582.596 740.401 609.267C738.421 619.22 742.177 637.927 752.039 658.69C774.643 706.278 762.87 732.86 735.631 737.391C636.085 753.952 589.64 624.204 519.767 504.542C511.543 490.459 503.661 476.583 496.232 463.193C472.589 420.584 507.829 373.992 507.829 373.992Z" fill="#ffb86c" fill-opacity="0.466216" fill-rule="nonzero" filter="url(#Filter)" stroke="#bd93f9" stroke-linecap="butt" stroke-linejoin="miter" stroke-width="7.49235" vectornator:shadowAngle="1.24926" vectornator:shadowColor="#282a36" vectornator:shadowOffset="49.1438" vectornator:shadowOpacity="0.79054" vectornator:shadowRadius="2"/>
</g>
<g id="Layer-7" vectornator:layerName="Layer 7">
<path d="M842.798 200.749C916.359 234.682 828.935 351.383 937.285 425.527C937.285 425.527 943.512 436.214 936.246 424.669C898.316 364.401 944.394 335.897 942.976 336.138C857.2 350.718 794.686 325.885 794.427 326.254C794.427 326.254 784.749 333.503 795.844 325.201C814.876 310.959 833.292 310.843 848.792 288.057C873.468 251.783 833.292 310.843 848.792 288.057C873.468 251.783 865.593 219.268 840.399 198.978" fill="#f1fa8c" fill-opacity="0.306306" fill-rule="nonzero" opacity="1" stroke="none"/>
<path d="M783.794 558.833C812.167 543.92 854.058 583.695 876.786 573.901C876.786 573.901 910.03 553.501 877.628 573.238C877.628 573.238 847.479 596.381 896.384 659.98C932.008 706.308 895.738 658.866 895.738 658.866C825.284 605.276 824.438 488.276 787.82 468.721C787.82 468.721 768.303 441.21 786.973 466.815C819.841 511.888 806.225 546.173 781.738 560.588" fill="#f1fa8c" fill-opacity="0.306306" fill-rule="nonzero" opacity="1" stroke="none"/>
<path d="M752.813 660.993C833.927 724.201 789.84 807.986 832.686 843.55C832.686 843.55 847.667 870.43 833.049 844.428C803.356 791.613 862.544 757.576 862.544 757.576C920.491 738.856 862.035 758.392 862.035 758.392C824.682 733.577 773.556 771.914 736.609 736.356C736.609 736.356 636.085 753.952 735.631 737.391C762.87 732.86 774.643 706.278 752.039 658.69" fill="#f1fa8c" fill-opacity="0.306306" fill-rule="nonzero" opacity="1" stroke="none"/>
<path d="M311.218 503.547C318.954 484.156 324.048 459.453 326.305 429.191C328.844 395.137 306.516 341.798 307.569 342.545C388.177 399.738 433.792 395.666 496.073 463.085C496.073 463.085 503.661 476.583 496.232 463.193C472.589 420.584 507.829 373.992 507.829 373.992L508.333 372.75C423.451 360.041 400.705 513.982 310.949 500.543" fill="#f1fa8c" fill-opacity="0.306306" fill-rule="nonzero" opacity="1" stroke="none"/>
<path d="M272.144 277.977C253.961 254.954 221.277 229.547 176.706 241.792C135.298 253.168 176.768 241.091 176.768 241.091C177.729 244.108 145.618 248.941 144.076 253.026C144.076 253.026 177.208 257.347 143.977 253.04C67.5253 243.132 48.9485 220.217 48.0834 218.782C37.6011 201.39 48.9089 219.799 48.9089 219.799C101.259 262.976 158.476 206.46 270.495 276.907" fill="#f1fa8c" fill-opacity="0.306306" fill-rule="nonzero" opacity="1" stroke="none"/>
<path d="M156.483 531.379C100.065 499.786 54.0888 503.755 54.0888 503.755C1.2123 501.856 53.4182 503.571 53.4182 503.571C94.4283 478.699 186.748 531.583 212.64 512.939C212.64 512.939 292.002 484.758 212.487 513.417C212.487 513.417 138.464 536.181 118.197 448.039C97.1366 356.447 118.391 449.129 118.391 449.129C120.526 468.553 131.503 510.088 154.262 529.667" fill="#f1fa8c" fill-opacity="0.306306" fill-rule="nonzero" opacity="1" stroke="none"/>
</g>
<g id="Layer-3" vectornator:layerName="Layer 3">
<path d="M936.246 424.669C898.316 364.401 944.926 335.414 944.926 335.414" fill="none" opacity="1" stroke="#ffb86c" stroke-linecap="butt" stroke-linejoin="miter" stroke-width="7.49235"/>
<path d="M896.384 659.98C847.479 596.381 877.628 573.238 877.628 573.238" fill="none" opacity="1" stroke="#ffb86c" stroke-linecap="butt" stroke-linejoin="miter" stroke-width="7.49235"/>
<path d="M833.049 844.428C803.356 791.613 862.544 757.576 862.544 757.576" fill="none" opacity="1" stroke="#ffb86c" stroke-linecap="butt" stroke-linejoin="miter" stroke-width="7.49235"/>
<path d="M305.327 340.702C320.081 365.462 328.844 395.137 326.305 429.191C324.048 459.453 318.954 484.156 311.218 503.547" fill="none" opacity="1" stroke="#ffb86c" stroke-linecap="butt" stroke-linejoin="miter" stroke-width="7.49235"/>
<path d="M496.232 463.193C472.589 420.584 507.829 373.992 507.829 373.992" fill="none" opacity="1" stroke="#ffb86c" stroke-linecap="butt" stroke-linejoin="miter" stroke-width="7.49235"/>
<path d="M752.039 658.69C774.643 706.278 762.87 732.86 735.631 737.391" fill="none" opacity="1" stroke="#ffb86c" stroke-linecap="butt" stroke-linejoin="miter" stroke-width="7.49235"/>
<path d="M786.973 466.815C819.841 511.888 806.225 546.173 781.738 560.588" fill="none" opacity="1" stroke="#ffb86c" stroke-linecap="butt" stroke-linejoin="miter" stroke-width="7.49235"/>
<path d="M848.792 288.057C833.292 310.843 814.876 310.959 795.844 325.201" fill="none" opacity="1" stroke="#ffb86c" stroke-linecap="butt" stroke-linejoin="miter" stroke-width="7.49235"/>
<path d="M840.399 198.978C865.593 219.268 873.468 251.783 848.792 288.057" fill="none" opacity="1" stroke="#ffb86c" stroke-linecap="butt" stroke-linejoin="miter" stroke-width="7.49235"/>
</g>
<g id="Layer-6" vectornator:layerName="Layer 6">
<path d="M48.0834 218.782C48.9485 220.217 67.5253 243.132 143.977 253.04" fill="none" opacity="1" stroke="#ffb86c" stroke-linecap="butt" stroke-linejoin="miter" stroke-width="7.49235"/>
<path d="M156.483 531.379C100.065 499.786 54.0888 503.755 54.0888 503.755" fill="none" opacity="1" stroke="#ffb86c" stroke-linecap="butt" stroke-linejoin="miter" stroke-width="7.49235"/>
<path d="M212.64 512.939C186.748 531.583 94.4283 478.699 53.4182 503.571" fill="none" opacity="1" stroke="#ff79c6" stroke-linecap="round" stroke-linejoin="miter" stroke-width="7.49235"/>
<path d="M48.9089 219.799C101.259 262.976 158.476 206.46 270.495 276.907" fill="none" opacity="1" stroke="#ff79c6" stroke-linecap="round" stroke-linejoin="miter" stroke-width="7.49235"/>
</g>
<g id="Layer-10" vectornator:layerName="Layer 10">
<path d="M212.041 513.177C291.556 484.518 296.931 327.354 287.794 302.787C281.148 284.919 240.323 224.115 177.088 241.488C135.68 252.865 96.69 356.207 117.75 447.799C138.017 535.941 212.041 513.177 212.041 513.177Z" fill="#50fa7b" fill-opacity="0.537845" fill-rule="nonzero" filter="url(#Filter_2)" stroke="#bd93f9" stroke-linecap="butt" stroke-linejoin="miter" stroke-width="7.49235" vectornator:shadowAngle="1.24926" vectornator:shadowColor="#282a36" vectornator:shadowOffset="49.1438" vectornator:shadowOpacity="0.79054" vectornator:shadowRadius="2"/>
<path d="M272.144 277.977C253.961 254.954 221.277 229.547 176.706 241.792" fill="none" opacity="1" stroke="#ffb86c" stroke-linecap="butt" stroke-linejoin="miter" stroke-width="7.49235"/>
<path d="M118.197 448.039C138.464 536.181 212.487 513.417 212.487 513.417" fill="none" opacity="1" stroke="#ffb86c" stroke-linecap="butt" stroke-linejoin="miter" stroke-width="7.49235"/>
</g>
<g id="Layer-9" vectornator:layerName="Layer 9">
<path d="M144.076 253.026C145.618 248.941 177.729 244.108 176.768 241.091" fill="none" filter="url(#Filter_3)" stroke="#ff79c6" stroke-linecap="round" stroke-linejoin="miter" stroke-width="7.49235" vectornator:shadowAngle="3.35599" vectornator:shadowColor="#282a36" vectornator:shadowOffset="2.39726" vectornator:shadowOpacity="0.79054" vectornator:shadowRadius="2"/>
<path d="M118.391 449.129C120.526 468.553 131.503 510.088 154.262 529.667" fill="none" filter="url(#Filter_4)" stroke="#ff79c6" stroke-linecap="round" stroke-linejoin="miter" stroke-width="7.49235" vectornator:shadowAngle="2.79447" vectornator:shadowColor="#282a36" vectornator:shadowOffset="2.39726" vectornator:shadowOpacity="0.79054" vectornator:shadowRadius="2"/>
</g>
<g id="Layer-4" vectornator:layerName="Layer 4">
<path d="M212.041 513.177C291.556 484.518 296.931 327.354 287.794 302.787C281.148 284.919 240.323 224.115 177.088 241.488C135.68 252.865 96.69 356.207 117.75 447.799C138.017 535.941 212.041 513.177 212.041 513.177Z" fill="#50fa7b" fill-opacity="0.537845" fill-rule="nonzero" filter="url(#Filter_5)" stroke="#bd93f9" stroke-linecap="butt" stroke-linejoin="miter" stroke-width="7.49235" vectornator:shadowAngle="1.24926" vectornator:shadowColor="#282a36" vectornator:shadowOffset="49.1438" vectornator:shadowOpacity="0.79054" vectornator:shadowRadius="2"/>
<path d="M272.144 277.977C253.961 254.954 221.277 229.547 176.706 241.792" fill="none" opacity="1" stroke="#ffb86c" stroke-linecap="butt" stroke-linejoin="miter" stroke-width="7.49235"/>
<path d="M118.197 448.039C138.464 536.181 212.487 513.417 212.487 513.417" fill="none" opacity="1" stroke="#ffb86c" stroke-linecap="butt" stroke-linejoin="miter" stroke-width="7.49235"/>
</g>
<g id="Layer-8" vectornator:layerName="Layer 8">
<path d="M794.427 326.254C794.686 325.885 868.182 351.962 945.441 335.483" fill="none" opacity="1" stroke="#ff79c6" stroke-linecap="round" stroke-linejoin="miter" stroke-width="7.49235"/>
<path d="M783.794 558.833C812.167 543.92 854.058 583.695 876.786 573.901" fill="none" opacity="1" stroke="#ff79c6" stroke-linecap="round" stroke-linejoin="miter" stroke-width="7.49235"/>
<path d="M310.949 500.543C400.705 513.982 423.451 360.041 508.333 372.75" fill="none" opacity="1" stroke="#ff79c6" stroke-linecap="round" stroke-linejoin="miter" stroke-width="7.49235"/>
<path d="M736.609 736.356C773.556 771.914 824.682 733.577 862.035 758.392" fill="none" opacity="1" stroke="#ff79c6" stroke-linecap="round" stroke-linejoin="miter" stroke-width="7.49235"/>
</g>
<g id="Layer-5" vectornator:layerName="Layer 5">
<path d="M842.798 200.749C916.359 234.682 828.935 351.383 937.285 425.527" fill="none" filter="url(#Filter_6)" stroke="#ff79c6" stroke-linecap="round" stroke-linejoin="miter" stroke-width="7.49235" vectornator:shadowAngle="2.19939" vectornator:shadowColor="#282a36" vectornator:shadowOffset="2.39726" vectornator:shadowOpacity="0.79054" vectornator:shadowRadius="2"/>
<path d="M787.82 468.721C824.438 488.276 825.284 605.276 895.738 658.866" fill="none" filter="url(#Filter_7)" stroke="#ff79c6" stroke-linecap="round" stroke-linejoin="miter" stroke-width="7.49235" vectornator:shadowAngle="2.04665" vectornator:shadowColor="#282a36" vectornator:shadowOffset="2.39726" vectornator:shadowOpacity="0.79054" vectornator:shadowRadius="2"/>
<path d="M307.569 343.088C334.45 380.647 422.782 378.389 496.073 463.085" fill="none" filter="url(#Filter_8)" stroke="#ff79c6" stroke-linecap="round" stroke-linejoin="miter" stroke-width="7.49235" vectornator:shadowAngle="2.06589" vectornator:shadowColor="#282a36" vectornator:shadowOffset="2.39726" vectornator:shadowOpacity="0.79054" vectornator:shadowRadius="2"/>
<path d="M752.813 660.993C833.927 724.201 789.84 807.986 832.686 843.55" fill="none" filter="url(#Filter_9)" stroke="#ff79c6" stroke-linecap="round" stroke-linejoin="miter" stroke-width="7.49235" vectornator:shadowAngle="2.25249" vectornator:shadowColor="#282a36" vectornator:shadowOffset="2.39726" vectornator:shadowOpacity="0.79054" vectornator:shadowRadius="2"/>
</g>
</svg>
