<!-- Created with Vectornator (http://vectornator.io/) -->
<svg xmlns:inkscape="http://www.inkscape.org/namespaces/inkscape" xmlns:sodipodi="http://sodipodi.sourceforge.net/DTD/sodipodi-0.dtd" xmlns="http://www.w3.org/2000/svg" xmlns:svg="http://www.w3.org/2000/svg" xmlns:vectornator="http://vectornator.io" stroke-miterlimit="10" style="clip-rule:evenodd;fill-rule:nonzero;stroke-linecap:round;stroke-linejoin:round" version="1.1" viewBox="0 0 1000 820" xml:space="preserve" id="svg68" sodipodi:docname="slide_5.svg"><sodipodi:namedview id="namedview68" pagecolor="#ffffff" bordercolor="#000000" borderopacity="0.25" inkscape:showpageshadow="2" inkscape:pageopacity="0.0" inkscape:pagecheckerboard="0" inkscape:deskcolor="#d1d1d1"/>
    <defs id="defs1">
        <filter color-interpolation-filters="sRGB" filterUnits="userSpaceOnUse" height="61.910801" id="Filter" width="79.591599" x="188.957" y="389.48499">
            <feDropShadow dx="-3.59878" dy="6.2266" flood-color="#282a36" flood-opacity="0.9" in="SourceGraphic" result="Shadow" stdDeviation="4.25342"/>
        </filter>
        <filter color-interpolation-filters="sRGB" filterUnits="userSpaceOnUse" height="61.910801" id="Filter_2" width="79.591599" x="198.453" y="373.82001">
            <feDropShadow dx="5.89749" dy="-9.43925" flood-color="#282a36" flood-opacity="0.9" in="SourceGraphic" result="Shadow" stdDeviation="4.25342"/>
        </filter>
        <filter color-interpolation-filters="sRGB" filterUnits="userSpaceOnUse" height="65.024902" id="Filter_3" width="76.982101" x="644.73401" y="360.40799">
            <feDropShadow dx="2.54046" dy="-4.06614" flood-color="#282a36" flood-opacity="0.9" in="SourceGraphic" result="Shadow" stdDeviation="4.25342"/>
        </filter>
        <filter color-interpolation-filters="sRGB" filterUnits="userSpaceOnUse" height="65.024902" id="Filter_4" width="76.982101" x="638.771" y="370.99301">
            <feDropShadow dx="-3.42318" dy="6.51888" flood-color="#282a36" flood-opacity="0.9" in="SourceGraphic" result="Shadow" stdDeviation="4.25342"/>
        </filter>
    </defs>
    <clipPath id="ArtboardFrame_21">
        <rect height="820" width="1000" x="0" y="0" id="rect1"/>
    </clipPath>
    <g clip-path="url(#ArtboardFrame_21)" id="Layer-1" vectornator:layerName="Layer 1" visibility="hidden">
        <path d="M -110.735,-138.315 H 1054.77 V 1059.06 H -110.735 Z" class="fill-background" fill-rule="nonzero" opacity="1" stroke="none" id="path1"/>
    </g>
    <g clip-path="url(#ArtboardFrame_21)" id="Layer-2" vectornator:layerName="Layer 2">
        <g opacity="1" id="g4">
            <clipPath id="ClipPath">
                <path d="M -4.69646,685.607 C -14.1712,626.683 38.4566,574.606 38.4566,574.606 l 8.2856,15.87 37.6225,-16.253 -5.3248,-14.095 40.7291,-9.182 2.044,16.052 50.514,-3.562 -2.641,-21.295 c 0,0 22.652,-1.646 30.45,-1.974 1.588,-0.067 5.68,21.832 5.68,21.832 l 45.028,-1.116 c 0,0 -3.781,-22.574 -1.39,-22.655 14.595,-0.5 47.654,-4.446 47.654,-4.446 l 10.473,-0.438 30.091,12.163 0.88,-12.621 c 0,0 15.596,-0.883 21.959,-0.956 3.333,-0.038 3.094,16.114 3.094,16.114 l 36.312,-2.949 c 0,0 -2.208,-21.939 1.74,-21.992 24.67,-0.33 124.224,-9.107 124.224,-9.107 0,0 -53.462,49.153 -40.173,29.492 13.289,-19.66 28.054,-1.906 28.054,-1.906 l 23.149,1.899 37.99,-19.092 c 0,0 21.122,0.324 40.482,2.181 3.586,0.344 3.792,13.543 3.792,13.543 l 26.003,3.692 11.863,-17.829 22.882,22.563 48.309,19.436 1.432,-12.353 101.32,-24.566 -23.26,20.294 39.952,1.186 8.997,-14.737 25.845,5.144 4.955,10.438 27.308,6.669 c 0,0 6.481,-14.906 6.943,-14.752 97.726,32.404 86.726,85.865 86.726,140.309 0,54.677 17.4,92.293 -81.048,124.696 -30.921,10.178 -774.147,24.988 -851.0464,0 C -23.344,777.906 4.77828,744.532 -4.69646,685.607 Z" id="path2"/>
            </clipPath>
            <g clip-path="url(#ClipPath)" id="g3">
                <path d="m 3.56854,693.43 c 0,-52.797 -10.88269,-92.231 85.88316,-123.411 55.0943,-17.753 458.3503,-14.845 682.8103,-8.118 82.379,2.469 140.675,5.452 148.836,8.118 95.492,31.184 79.202,67.606 79.202,120 0,52.618 17,88.817 -79.202,120 -30.217,9.794 -756.5,24.047 -831.6463,0 C -7.9752,778.842 3.56854,746.435 3.56854,693.43 Z" class="fill-blue stroke-orange stroke-orange" fill="#8be9fd" fill-rule="nonzero" opacity="1" stroke="#ffb86c" stroke-linecap="round" stroke-linejoin="round" stroke-width="4.86072" id="path3"/>
            </g>
        </g>
        <g opacity="1" id="g6">
            <clipPath id="ClipPath_2">
                <path d="m 396.458,97.369 c -5.315,-41.9091 24.211,-78.948 24.211,-78.948 l 7.708,-8.53805 5.809,2.23135 9.251,-3.9906 22.85,-6.53106 7.267,0.21122 7.942,-3.39496 12.796,-3.07859 c 0,0 12.709,-1.17059 17.084,-1.40383 0.891,-0.04748 11.346,0.01241 11.346,0.01241 0,0 11.507,16.94671 10.983,0.06779 -0.524,-16.87898 3.999,-1.4014 5.34,-1.4596 8.189,-0.35539 26.735,-3.16158 26.735,-3.16158 l 5.876,-0.3117 16.882,8.65048 0.494,-8.97658 c 0,0 8.75,-0.6276 12.32,-0.6795 1.869,-0.0272 1.735,11.460986 1.735,11.460986 L 623.46,-2.56834 c 0,0 -1.239,-15.60396 0.976,-15.64156 13.84,-0.2349 69.694,-6.4771 69.694,-6.4771 l -12.614,19.24431 21.092,-2.57982 19.024,-9.27309 c 0,0 11.85,0.2303 22.711,1.5515 2.012,0.2447 2.128,9.63183 2.128,9.63183 l 14.588,2.62587 6.656,-12.6806 97.587,3.6133 c 0,0 -6.027,30.0007 -9.998,14.65556 -3.97,-15.34516 16.6,-0.2064 16.6,-0.2064 l 7.811,-9.65335 14.5,3.65891 0.469,5.52178 15.082,3.16768 c 0,0 6.185,-7.12413 6.445,-7.01495 54.826,23.04737 48.659,61.07087 48.659,99.79347 0,38.888 1.586,76.548 -53.646,99.594 -17.348,7.239 -425.72,11.774 -468.863,-5.998 -55.934,-23.042 -40.587,-51.687 -45.903,-93.596 z" id="path4"/>
            </clipPath>
            <g clip-path="url(#ClipPath_2)" id="g5">
                <path d="m 401.095,102.932 c 0,-37.5503 -6.105,-65.5972 48.184,-87.774 30.909,-12.62657 257.149,-10.55817 383.079,-5.77354 46.217,1.75604 78.923,3.87794 83.502,5.77354 53.576,22.1795 44.436,48.084 44.436,85.348 0,37.424 9.536,63.17 -44.436,85.349 -16.953,6.966 -424.422,17.103 -466.581,0 -54.66,-22.174 -48.184,-45.223 -48.184,-82.923 z" class="fill-red stroke-orange stroke-orange" fill="#ff5555" fill-rule="nonzero" opacity="1" stroke="#ffb86c" stroke-linecap="round" stroke-linejoin="round" stroke-width="4.86072" id="path5"/>
            </g>
        </g>
    </g>
    <g id="Layer-7" vectornator:layerName="Layer 7">
        <g opacity="1" id="g8">
            <clipPath id="ClipPath_3">
                <path d="m 326.437,325.567 c -19.375,-18.424 -161.325,-7.493 -143.482,-26.257 17.843,-18.763 -94.6803,303.987 -75.306,322.411 19.374,18.423 297.731,-264.944 279.888,-246.18 -17.843,18.764 -41.726,-31.55 -61.1,-49.974 z" id="path6"/>
            </clipPath>
            <g clip-path="url(#ClipPath_3)" id="g7">
                <path d="m 452.462,233.611 c -23.519,18.625 -83.221,16.147 -106.74,34.771 l -0.005,-0.006 c -23.519,18.624 -25.392,89.807 -40.691,100.932 -32.48,23.618 -135.7,194.449 -135.7,194.449 0,0 -62.829,25.392 -50.801,2.996 113.253,-210.869 150.666,-228.111 150.666,-228.111 19.482,-15.428 62.723,-18.972 90.469,-28.169 5.749,-1.906 10.819,-4.323 14.856,-7.52 l 0.005,0.007 c 23.519,-18.625 19.212,-81.459 50.399,-107 23.94,-19.606 140.074,-162.116 235.561,-159.1477 99.057,3.0792 52.799,77.4627 65.642,96.2577 0,0 -16.316,10.956 -16.503,10.509 C 686.314,87.8412 749.54,81.3453 660.224,75.7571 615.75,72.9745 465.444,228.676 451.464,233.731" class="fill-blue" fill="#8be9fd" fill-rule="nonzero" opacity="1" stroke="none" id="path7"/>
            </g>
        </g>
        <g opacity="1" id="g10">
            <clipPath id="ClipPath_4">
                <path d="m 326.437,325.567 c -19.375,-18.424 -16.563,-53.403 1.28,-72.167 8.146,-8.566 -37.099,-42.135 1.882,-76.366 46.403,-40.748 119.096,-2.044 117.125,0.725 -1.971,2.769 123.505,17.429 104.53,51.557 -32.482,58.419 -142.113,78.958 -153.376,90.802 -17.843,18.764 -52.067,23.873 -71.441,5.449 z" id="path8"/>
            </clipPath>
            <g clip-path="url(#ClipPath_4)" id="g9">
                <path d="m 429.438,165.264 c -23.519,18.625 -60.197,84.494 -83.716,103.118 l -0.882,3.501 c -28.79,30.482 -15.261,72.195 -46.944,95.277 -20.206,14.721 72.467,68.91 72.467,68.91 l -27.565,28.987 c 0,0 -129.906,-102.832 -74.066,-132.53 33.511,-17.822 63.182,-12.857 90.928,-22.054 5.749,-1.906 10.819,-4.323 14.856,-7.52 l 0.005,0.007 C 398.04,284.335 453.226,209.661 484.41,175.798 541.99,113.272 596.665,43.1616 616.86,72.7152 L 563.666,41.0147 c 0,0 -26.294,24.4241 -68.351,39.6286" class="fill-red" fill="#ff5555" fill-rule="nonzero" opacity="1" stroke="none" id="path9"/>
            </g>
        </g>
        <g opacity="1" id="g14">
            <path d="m 376.991,301.52 c -22.624,19.702 -81.526,14.617 -104.15,34.319" fill="none" opacity="1" class="stroke-orange stroke-orange" stroke="#ffb86c" stroke-linecap="round" stroke-linejoin="round" stroke-width="4.86072" id="path10"/>
            <path d="m 317.105,325.545 c -2.721,-3.124 -1.55,-8.596 2.615,-12.223 4.165,-3.627 9.747,-4.035 12.467,-0.912 2.72,3.124 1.549,8.597 -2.616,12.224 -4.165,3.627 -9.746,4.035 -12.466,0.911 z" class="fill-background" fill-rule="nonzero" opacity="1" stroke="none" id="path11"/>
            <path d="m 303.223,369.035 c 19.235,-20.492 20.763,-81.009 43.386,-100.711" fill="none" opacity="1" class="stroke-orange stroke-orange" stroke="#ffb86c" stroke-linecap="round" stroke-linejoin="round" stroke-width="4.86072" id="path12"/>
            <path d="m 376.997,301.526 c 22.624,-19.702 64.654,-69.276 95.55,-111.423" fill="none" opacity="1" class="stroke-orange stroke-orange" stroke="#ffb86c" stroke-linecap="round" stroke-linejoin="round" stroke-width="4.86072" id="path13"/>
            <path d="m 422.815,171.805 c -22.624,19.702 -53.576,76.824 -76.2,96.526" fill="none" opacity="1" class="stroke-orange stroke-orange" stroke="#ffb86c" stroke-linecap="round" stroke-linejoin="round" stroke-width="4.86072" id="path14"/>
        </g>
        <g opacity="1" id="g17">
            <clipPath id="ClipPath_5">
                <path d="m 32.4096,98.0839 399.0504,76.5651 11.119,5.812 45.545,8.822 17.21,1.217 473.807,93.897 -17.106,289.479 -221.733,-11.696 c 0,0 -47.69,-2.956 -185.016,-3.087 -44.892,-0.042 -98.127,-1.173 -150.897,-1.656 -17.578,-0.161 -45.874,0.701 -62.731,1.555 -65.892,3.338 -149.135,-3.253 -149.135,-3.253 l -17.844,8.482 -54.093,2.929 -29.6688,-6.162 -82.22546,32.581 z" id="path15"/>
            </clipPath>
            <g clip-path="url(#ClipPath_5)" id="g16">
                <path d="m 274.276,334.912 c -56.002,38.144 -157.57,234.89 -157.57,234.89 l 53.8,-0.326 c 0,0 2.285,-5.411 6.547,-14.666 27.071,-58.783 104.858,-158.277 126.765,-186.416" fill="none" opacity="1" class="stroke-orange stroke-orange" stroke="#ffb86c" stroke-linecap="butt" stroke-linejoin="round" stroke-width="4.86072" id="path16"/>
            </g>
        </g>
    </g>
    <g clip-path="url(#ArtboardFrame_21)" id="Layer-3" vectornator:layerName="Layer 3">
        <g opacity="1" id="g19">
            <clipPath id="ClipPath_6">
                <path d="m 524.798,320.157 c -19.374,-18.423 -161.324,-7.493 -143.481,-26.256 17.843,-18.764 -94.681,303.986 -75.306,322.41 19.374,18.423 297.731,-264.944 279.888,-246.18 -17.843,18.764 -41.726,-31.55 -61.101,-49.974 z" id="path17"/>
            </clipPath>
            <g clip-path="url(#ClipPath_6)" id="g18">
                <path d="m 650.824,228.201 c -23.519,18.625 -83.222,16.147 -106.74,34.772 l -0.006,-0.007 c -23.518,18.624 -25.391,89.807 -40.69,100.932 -32.481,23.618 -135.7,194.449 -135.7,194.449 0,0 -62.829,25.392 -50.801,2.996 113.253,-210.869 150.666,-228.111 150.666,-228.111 19.482,-15.427 62.723,-18.972 90.468,-28.169 5.749,-1.905 10.82,-4.323 14.856,-7.52 l 0.006,0.007 c 23.519,-18.624 19.212,-81.459 50.399,-107 23.94,-19.606 140.073,-162.1159 235.561,-159.1476 99.057,3.0793 52.799,77.4636 65.642,96.2576 0,0 -16.317,10.956 -16.503,10.509 C 884.675,82.4313 947.902,75.9354 858.586,70.3472 814.112,67.5646 663.806,223.266 649.825,228.321" class="fill-blue" fill="#8be9fd" fill-rule="nonzero" opacity="1" stroke="none" id="path18"/>
            </g>
        </g>
        <g opacity="1" id="g21">
            <clipPath id="ClipPath_7">
                <path d="m 524.798,320.157 c -19.374,-18.423 -16.562,-53.403 1.281,-72.167 8.146,-8.566 -37.1,-42.135 1.882,-76.366 46.403,-40.748 119.096,-2.044 117.125,0.725 -1.971,2.769 123.504,17.429 104.529,51.557 -32.481,58.419 -142.113,78.958 -153.376,90.802 -17.843,18.764 -52.066,23.873 -71.441,5.449 z" id="path19"/>
            </clipPath>
            <g clip-path="url(#ClipPath_7)" id="g20">
                <path d="m 627.799,159.854 c -23.518,18.625 -60.197,84.494 -83.715,103.119 l -0.883,3.5 c -28.789,30.483 -15.261,72.195 -46.943,95.277 -20.206,14.721 72.466,68.911 72.466,68.911 l -27.564,28.986 c 0,0 -129.906,-102.832 -74.066,-132.53 33.511,-17.822 63.182,-12.857 90.927,-22.054 5.749,-1.905 10.82,-4.323 14.856,-7.52 l 0.006,0.007 C 596.402,278.926 651.587,204.251 682.772,170.388 740.352,107.862 795.027,37.7518 815.222,67.3054 L 762.028,35.6048 c 0,0 -26.294,24.4242 -68.352,39.6286" class="fill-red" fill="#ff5555" fill-rule="nonzero" opacity="1" stroke="none" id="path20"/>
            </g>
        </g>
        <g opacity="1" id="g25">
            <path d="m 575.353,296.11 c -22.624,19.702 -81.526,14.617 -104.15,34.319" fill="none" opacity="1" class="stroke-orange stroke-orange" stroke="#ffb86c" stroke-linecap="round" stroke-linejoin="round" stroke-width="4.86072" id="path21"/>
            <path d="m 515.466,320.135 c -2.72,-3.123 -1.549,-8.596 2.616,-12.223 4.165,-3.627 9.746,-4.035 12.467,-0.911 2.72,3.123 1.549,8.596 -2.616,12.223 -4.165,3.627 -9.746,4.035 -12.467,0.911 z" class="fill-background" fill-rule="nonzero" opacity="1" stroke="none" id="path22"/>
            <path d="m 501.585,363.625 c 19.235,-20.491 20.762,-81.009 43.386,-100.711" fill="none" opacity="1" class="stroke-orange stroke-orange" stroke="#ffb86c" stroke-linecap="round" stroke-linejoin="round" stroke-width="4.86072" id="path23"/>
            <path d="m 575.359,296.117 c 22.623,-19.702 56.728,-59.37 87.624,-101.517" fill="none" opacity="1" class="stroke-orange stroke-orange" stroke="#ffb86c" stroke-linecap="round" stroke-linejoin="round" stroke-width="4.86072" id="path24"/>
            <path d="m 597.276,194.505 c 0,0 -29.675,48.714 -52.299,68.416" fill="none" opacity="1" class="stroke-orange stroke-orange" stroke="#ffb86c" stroke-linecap="round" stroke-linejoin="round" stroke-width="4.86072" id="path25"/>
        </g>
        <g opacity="1" id="g28">
            <clipPath id="ClipPath_8">
                <path d="m 230.771,92.674 399.05,76.565 11.12,5.812 45.545,8.823 17.21,1.216 473.804,93.897 -17.1,289.479 -221.736,-11.696 c 0,0 -47.691,-2.956 -185.016,-3.086 -44.892,-0.043 -98.128,-1.173 -150.898,-1.657 -17.577,-0.161 -45.873,0.701 -62.73,1.555 -65.892,3.339 -149.135,-3.253 -149.135,-3.253 l -17.844,8.482 -54.094,2.213 -29.668,-5.445 -82.226,32.58 z" id="path26"/>
            </clipPath>
            <g clip-path="url(#ClipPath_8)" id="g27">
                <path d="m 472.637,329.502 c -56.002,38.145 -155.42,235.129 -155.42,235.129 l 51.651,-0.564 c 0,0 0.613,-6.368 4.875,-15.622 27.07,-58.784 106.53,-157.322 128.437,-185.46" fill="none" opacity="1" class="stroke-orange stroke-orange" stroke="#ffb86c" stroke-linecap="butt" stroke-linejoin="round" stroke-width="4.86072" id="path27"/>
            </g>
        </g>
    </g>
    <g clip-path="url(#ArtboardFrame_21)" id="Layer-6" vectornator:layerName="Layer 6">
        <g opacity="1" id="g30">
            <clipPath id="ClipPath_9">
                <path d="M 754.413,323.769 C 735.039,305.345 593.088,316.276 610.931,297.512 628.774,278.748 516.251,601.499 535.625,619.922 555,638.346 833.357,354.979 815.514,373.743 797.671,392.507 773.787,342.192 754.413,323.769 Z" id="path28"/>
            </clipPath>
            <g clip-path="url(#ClipPath_9)" id="g29">
                <path d="m 880.438,231.813 c -23.518,18.625 -83.221,16.147 -106.739,34.771 l -0.006,-0.006 c -23.519,18.624 -25.392,89.807 -40.69,100.932 -32.481,23.617 -135.7,194.449 -135.7,194.449 0,0 -62.829,25.392 -50.801,2.996 113.252,-210.869 150.665,-228.111 150.665,-228.111 19.482,-15.428 62.724,-18.972 90.469,-28.169 5.749,-1.906 10.819,-4.323 14.856,-7.52 l 0.006,0.007 c 23.518,-18.625 19.211,-81.459 50.399,-107 23.94,-19.606 140.073,-162.1162 235.563,-159.1479 99.05,3.0792 52.8,77.4629 65.64,96.2579 0,0 -16.32,10.956 -16.5,10.509 -23.31,-55.7381 39.92,-62.234 -49.4,-67.8222 C 1043.73,71.1763 893.421,226.878 879.44,231.932" class="fill-blue" fill="#8be9fd" fill-rule="nonzero" opacity="1" stroke="none" id="path29"/>
            </g>
        </g>
        <g opacity="1" id="g32">
            <clipPath id="ClipPath_10">
                <path d="m 754.413,323.769 c -19.374,-18.424 -16.563,-53.403 1.28,-72.167 8.147,-8.566 -37.099,-42.135 1.883,-76.366 46.403,-40.749 119.096,-2.044 117.124,0.725 -1.971,2.769 123.505,17.429 104.53,51.556 -32.481,58.42 -142.113,78.958 -153.376,90.803 -17.843,18.764 -52.067,23.872 -71.441,5.449 z" id="path30"/>
            </clipPath>
            <g clip-path="url(#ClipPath_10)" id="g31">
                <path d="m 857.414,163.466 c -23.518,18.625 -50.577,71.792 -74.095,90.416 l -4.899,5.275 c -28.789,30.483 -20.865,83.123 -52.547,106.205 -20.207,14.721 72.466,68.91 72.466,68.91 l -27.564,28.987 c 0,0 -129.906,-102.832 -74.067,-132.53 33.511,-17.823 63.183,-12.857 90.928,-22.054 5.749,-1.906 10.819,-4.323 14.856,-7.52 l 0.006,0.007 C 826.016,282.537 881.202,207.863 912.386,174 969.966,111.474 1024.64,41.3634 1044.84,70.917 L 991.643,39.2165 c 0,0 -26.295,24.4241 -68.352,39.6286" class="fill-red" fill="#ff5555" fill-rule="nonzero" opacity="1" stroke="none" id="path31"/>
            </g>
        </g>
        <g opacity="1" id="g36">
            <path d="m 804.967,299.722 c -22.623,19.702 -81.526,14.617 -104.149,34.319" fill="none" opacity="1" class="stroke-orange stroke-orange" stroke="#ffb86c" stroke-linecap="round" stroke-linejoin="round" stroke-width="4.86072" id="path32"/>
            <path d="m 745.081,323.747 c -2.72,-3.124 -1.549,-8.596 2.616,-12.223 4.165,-3.627 9.746,-4.036 12.467,-0.912 2.72,3.124 1.549,8.596 -2.616,12.223 -4.165,3.627 -9.747,4.036 -12.467,0.912 z" class="fill-background" fill-rule="nonzero" opacity="1" stroke="none" id="path33"/>
            <path d="m 731.199,367.237 c 19.236,-20.492 22.925,-73.276 39.464,-95.387" fill="none" opacity="1" class="stroke-orange stroke-orange" stroke="#ffb86c" stroke-linecap="round" stroke-linejoin="round" stroke-width="4.86072" id="path34"/>
            <path d="m 804.973,299.728 c 22.624,-19.702 64.654,-69.276 95.55,-111.423" fill="none" opacity="1" class="stroke-orange stroke-orange" stroke="#ffb86c" stroke-linecap="round" stroke-linejoin="round" stroke-width="4.86072" id="path35"/>
            <path d="m 832.6,190.853 c -9.639,15.318 -16.129,27.856 -62.115,81.183" fill="none" opacity="1" class="stroke-orange stroke-orange" stroke="#ffb86c" stroke-linecap="round" stroke-linejoin="round" stroke-width="4.86072" id="path36"/>
        </g>
        <g opacity="1" id="g39">
            <clipPath id="ClipPath_11">
                <path d="m 460.386,96.2856 399.05,76.5654 11.119,5.812 45.546,8.822 17.21,1.217 473.809,93.897 -17.11,289.479 -221.73,-11.697 c 0,0 -47.69,-2.955 -185.017,-3.086 -44.892,-0.042 -98.128,-1.173 -150.898,-1.656 -17.577,-0.161 -45.873,0.701 -62.731,1.555 C 703.742,560.532 620.5,553.94 620.5,553.94 l -15.81,6.514 -55.103,-0.491 -30.693,-0.773 -82.226,32.581 z" id="path37"/>
            </clipPath>
            <g clip-path="url(#ClipPath_11)" id="g38">
                <path d="m 702.252,333.114 c -56.002,38.144 -157.57,234.89 -157.57,234.89 l 53.8,-0.326 c 0,0 2.286,-5.412 6.547,-14.666 C 632.1,494.229 709.887,394.735 731.794,366.596" fill="none" opacity="1" class="stroke-orange stroke-orange" stroke="#ffb86c" stroke-linecap="butt" stroke-linejoin="round" stroke-width="4.86072" id="path38"/>
            </g>
        </g>
    </g>
    <g clip-path="url(#ArtboardFrame_21)" id="Layer-5" vectornator:layerName="Layer 5">
        <g opacity="1" id="g45">
            <path d="m 225.585,408.178 c 4.631,-7.888 26.892,-14.227 30.498,-4.233 3.605,9.994 -12.839,19.934 -16.726,23.174 -2.446,2.038 -24.679,5.864 -30.113,-3.712 -4.685,-8.255 5.966,2.443 16.341,-15.229 z" class="fill-blue stroke-orange stroke-orange" fill="#8be9fd" fill-rule="nonzero" filter="url(#Filter)" stroke="#ffb86c" stroke-linecap="butt" stroke-linejoin="round" stroke-width="9.83584" vectornator:shadowAngle="2.09486" vectornator:shadowColor="#282a36" vectornator:shadowOffset="7.19178" vectornator:shadowOpacity="0.9" vectornator:shadowRadius="8.50685" id="path39"/>
            <path d="m 225.585,408.178 c 4.631,-7.888 26.892,-14.227 30.498,-4.233 3.605,9.994 -12.839,19.934 -16.726,23.174 -2.446,2.038 -24.679,5.864 -30.113,-3.712 -4.685,-8.255 5.966,2.443 16.341,-15.229 z" class="fill-blue stroke-orange stroke-orange" fill="#8be9fd" fill-rule="nonzero" filter="url(#Filter_2)" stroke="#ffb86c" stroke-linecap="butt" stroke-linejoin="round" stroke-width="9.83584" vectornator:shadowAngle="-1.01235" vectornator:shadowColor="#282a36" vectornator:shadowOffset="11.1301" vectornator:shadowOpacity="0.9" vectornator:shadowRadius="8.50685" id="path40"/>
            <path d="m 228.448,434.29 c -32.826,-4.652 -58.238,-24.971 -87.949,-20.812 l -0.001,-0.009 c -29.711,4.159 -44.0268,44.295 -91.2427,60.992 -21.139,7.475 36.1038,99.142 36.1038,99.142 l -36.5254,20.576 c 0,0 -70.3913,-167 -7.2013,-164.349 37.9222,1.591 0.2032,-0.058 0.2032,-0.058 24.6109,-3.445 60.7954,20.949 89.3794,27.061 5.923,1.266 11.519,1.748 16.619,1.034 l 0.001,0.009 c 29.711,-4.159 53.939,-61.154 93.764,-67.396 83.975,-13.162 -0.448,145.133 9.853,172.272 0,0 -62.72,31.207 -48.714,1.712 60.416,-127.231 50.043,-126.725 25.71,-130.174 z" class="fill-blue" fill="#8be9fd" fill-rule="nonzero" opacity="1" stroke="none" id="path41"/>
            <clipPath id="ClipPath_12">
                <path d="m 97.14,455.23 c -7.384,-25.696 10.528,-56.636 35.414,-63.787 24.886,-7.151 51.046,7.882 58.43,33.578 7.384,25.695 -6.804,52.323 -31.69,59.474 -24.886,7.152 -54.77,-3.569 -62.154,-29.265 z" id="path42"/>
            </clipPath>
            <g clip-path="url(#ClipPath_12)" id="g44">
                <path d="m 246.498,441.573 c -29.711,4.159 -76.288,-32.254 -105.999,-28.095 l -0.001,-0.009 c -41.3848,8.065 -45.4458,47.257 -91.2427,60.992 -23.9462,7.181 27.6187,96.11 27.6187,96.11 l -38.4441,11.047 c 0,0 -59.9875,-154.439 3.2025,-151.788 37.9222,1.591 0.2032,-0.058 0.2032,-0.058 24.6109,-3.445 60.7954,20.949 89.3794,27.061 5.923,1.266 11.519,1.748 16.619,1.034 l 0.001,0.009 c 29.711,-4.159 51.894,-54.508 91.719,-60.75 83.975,-13.162 74.41,72.806 76.868,108.516 l -39.368,9.907 c 0,0 14.007,-65.678 -29.961,-73.853" class="fill-red" fill="#ff5555" fill-rule="nonzero" opacity="1" stroke="none" id="path43"/>
                <path d="m 226.214,394.221 -28.338,36.94 43.013,4.048 29.097,-37.952 z" fill="none" opacity="1" class="stroke-orange stroke-orange" stroke="#ffb86c" stroke-linecap="butt" stroke-linejoin="round" stroke-width="4.86072" id="path44"/>
            </g>
        </g>
        <g opacity="1" id="g54">
            <path d="m 147.376,455.526 c -29.588,4.96 -77.1325,-30.18 -106.7196,-25.219" fill="none" opacity="1" class="stroke-orange stroke-orange" stroke="#ffb86c" stroke-linecap="round" stroke-linejoin="round" stroke-width="4.86072" id="path45"/>
            <path d="m 83.7673,444.683 c -0.6849,-4.086 3.1754,-8.137 8.6223,-9.051 5.4468,-0.913 10.4174,1.659 11.1024,5.744 0.685,4.085 -3.175,8.137 -8.6223,9.05 -5.4468,0.913 -10.4176,-1.658 -11.1024,-5.743 z" class="fill-background" fill-rule="nonzero" opacity="1" stroke="none" id="path46"/>
            <path d="m 49.1901,474.49 c 29.5871,-4.96 60.0649,-58.187 89.6519,-63.147" fill="none" opacity="1" class="stroke-orange stroke-orange" stroke="#ffb86c" stroke-linecap="round" stroke-linejoin="round" stroke-width="4.86072" id="path47"/>
            <path d="m 236.36,435.037 c -29.587,4.961 -67.929,-28.646 -97.517,-23.686" fill="none" opacity="1" class="stroke-orange stroke-orange" stroke="#ffb86c" stroke-linecap="round" stroke-linejoin="round" stroke-width="4.86072" id="path48"/>
            <path d="m 181.954,425.727 c -0.685,-4.085 3.176,-8.137 8.623,-9.05 5.446,-0.913 10.417,1.658 11.102,5.743 0.685,4.086 -3.175,8.138 -8.622,9.051 -5.447,0.913 -10.418,-1.659 -11.103,-5.744 z" class="fill-background" fill-rule="nonzero" opacity="1" stroke="none" id="path49"/>
            <path d="m 147.377,455.535 c 29.587,-4.96 60.065,-58.187 89.652,-63.147" fill="none" opacity="1" class="stroke-orange stroke-orange" stroke="#ffb86c" stroke-linecap="round" stroke-linejoin="round" stroke-width="4.86072" id="path50"/>
            <clipPath id="ClipPath_13">
                <path d="m -636.987,500.587 995.752,-233.064 -105.44,293.232 -4.524,0.274 -0.265,-10.827 -36.473,-3.58 -7.089,15.9 -6.907,-0.14 -50.29,-25.279 c 0,0 -59.408,35.678 -63.4182,37.064 -11.6865,4.038 -37.8934,5.373 -37.8934,5.373 l 3.3667,8.814 -6.6351,4.533 -419.219,109.646 -95.274,35.696 -68.543,55.897 z" id="path51"/>
            </clipPath>
            <g clip-path="url(#ClipPath_13)" id="g53">
                <path d="m 40.4548,430.37 c -63.2385,-0.941 7.3959,159.633 7.3959,159.633 l 39.2732,-13.836 c 0,0 -62.3076,-96.245 -37.8423,-101.388" fill="none" opacity="1" class="stroke-orange stroke-orange" stroke="#ffb86c" stroke-linecap="butt" stroke-linejoin="round" stroke-width="4.86072" id="path52"/>
                <path d="m 236.431,434.901 c 35.832,-0.957 -33.895,126.615 -33.895,126.615 l 48.702,-2.034 C 247.815,523.851 321.967,376.263 238.379,391.69" fill="none" opacity="1" class="stroke-orange stroke-orange" stroke="#ffb86c" stroke-linecap="round" stroke-linejoin="round" stroke-width="4.86072" id="path53"/>
            </g>
        </g>
    </g>
    <g clip-path="url(#ArtboardFrame_21)" id="Layer-4" vectornator:layerName="Layer 4">
        <path d="m 665.809,376.034 c -8.823,3.173 -12.982,15.211 -12.982,15.211 0,0 29.093,17.45 32.912,27.524 0.67,1.767 23.681,-21.244 22.777,-24.113 -2.502,-7.939 -29.167,-23.493 -42.707,-18.622 z" class="fill-background" fill-rule="nonzero" filter="url(#Filter_3)" stroke="none" vectornator:shadowAngle="-1.01235" vectornator:shadowColor="#282a36" vectornator:shadowOffset="4.79452" vectornator:shadowOpacity="0.9" vectornator:shadowRadius="8.50685" id="path54"/>
        <path d="m 665.809,376.034 c -8.823,3.173 -12.982,15.211 -12.982,15.211 0,0 29.093,17.45 32.912,27.524 0.67,1.767 23.681,-21.244 22.777,-24.113 -2.502,-7.939 -29.167,-23.493 -42.707,-18.622 z" class="fill-background" fill-rule="nonzero" filter="url(#Filter_4)" stroke="none" vectornator:shadowAngle="2.05434" vectornator:shadowColor="#282a36" vectornator:shadowOffset="7.36301" vectornator:shadowOpacity="0.9" vectornator:shadowRadius="8.50685" id="path55"/>
        <g opacity="1" id="g58">
            <clipPath id="ClipPath_14">
                <path d="M 552.463,437.157 C 533.088,418.734 391.138,429.664 408.981,410.901 426.824,392.137 314.301,714.887 333.675,733.311 353.049,751.734 834.56,527.674 816.717,546.438 804.495,559.29 692.822,278.036 658.12,356.433 c -23.604,53.325 -99.553,86.529 -105.657,80.724 z" id="path56"/>
            </clipPath>
            <g clip-path="url(#ClipPath_14)" id="g57">
                <path d="m 647.908,389.224 c 0,0 -52.641,-27.876 -76.16,-9.251 l -0.005,-0.007 c -23.519,18.624 -16.911,68.879 -40.691,100.932 -17.207,23.194 -35.13,70.492 -47.648,83.158 -10.716,10.843 -62.419,21.735 -49.671,-0.258 36.28,-62.59 66.393,-115.747 66.393,-115.747 19.482,-15.428 57.814,-16.791 85.56,-25.988 5.749,-1.905 10.819,-4.323 14.856,-7.52 l 0.006,0.007 c 23.518,-18.624 39.506,-32.141 47.753,-34.463 29.785,-8.386 44.644,-8.659 60.586,16.723 11.21,17.848 20.771,30.207 25.409,71.06 3.812,33.579 -2.723,76.77 -5.368,92.593 -0.169,1.008 2.228,2.655 2.707,3.699 1.148,2.503 0.682,7.011 0.682,7.011 0,0 -63.779,18.489 -50.325,-14.111 21.278,-51.56 23.854,-71.728 23.229,-87.175 -0.11,-2.716 -2.404,-11.861 -2.781,-14.31 -1.634,-10.62 -2.72,-14.149 -11.983,-28.219 -12.813,-19.461 -42.549,-38.134 -42.549,-38.134 z" class="fill-blue" fill="#8be9fd" fill-rule="nonzero" opacity="1" stroke="none" id="path57"/>
            </g>
        </g>
        <g opacity="1" id="g60">
            <clipPath id="ClipPath_15">
                <path d="m 563.252,429.513 c -26.054,6.001 -12.385,-59.871 -4.155,-59.035 8.229,0.837 55.613,6.665 55.613,6.665 0,0 27.494,4.609 21.542,9.633 -22.446,18.946 -33.915,33.735 -73,42.737 z" id="path58"/>
            </clipPath>
            <g clip-path="url(#ClipPath_15)" id="g59">
                <path d="m 739.468,359.986 c -48.346,-38.567 -140.809,0.361 -164.328,18.985 l -0.882,3.501 c -28.79,30.482 -15.261,72.195 -46.944,95.277 -20.206,14.721 72.466,68.91 72.466,68.91 l -27.564,28.987 c 0,0 -129.906,-102.832 -74.066,-132.53 33.511,-17.822 63.182,-12.857 90.928,-22.054 5.749,-1.906 10.819,-4.323 14.856,-7.52 l 0.005,0.007 c 23.519,-18.625 83.176,-29.767 111.829,-21.321" class="fill-red" fill="#ff5555" fill-rule="nonzero" opacity="1" stroke="none" id="path59"/>
            </g>
        </g>
        <g opacity="1" id="g65">
            <path d="m 604.993,412.369 c -22.624,19.702 -81.526,14.617 -104.15,34.319" fill="none" opacity="1" class="stroke-orange stroke-orange" stroke="#ffb86c" stroke-linecap="round" stroke-linejoin="round" stroke-width="4.86072" id="path60"/>
            <path d="m 545.106,436.394 c -2.72,-3.124 -1.549,-8.596 2.616,-12.224 4.165,-3.627 9.747,-4.035 12.467,-0.911 2.72,3.124 1.549,8.596 -2.616,12.223 -4.165,3.627 -9.746,4.035 -12.467,0.912 z" class="fill-background" fill-rule="nonzero" opacity="1" stroke="none" id="path61"/>
            <path d="m 533.569,480.843 c 17.055,-23.322 18.419,-81.968 41.042,-101.67" fill="none" opacity="1" class="stroke-orange stroke-orange" stroke="#ffb86c" stroke-linecap="round" stroke-linejoin="round" stroke-width="4.86072" id="path62"/>
            <path d="M 677.456,560.32 C 769.232,405.292 597.241,359.477 574.617,379.179" fill="none" opacity="1" class="stroke-orange stroke-orange" stroke="#ffb86c" stroke-linecap="butt" stroke-linejoin="round" stroke-width="4.86072" id="path63"/>
            <path d="m 629.193,390.871 c -1.554,-3.84 1.336,-8.632 6.456,-10.705 5.119,-2.072 10.529,-0.639 12.083,3.2 1.554,3.84 -1.336,8.632 -6.455,10.704 -5.119,2.073 -10.529,0.64 -12.084,-3.199 z" class="fill-background" fill-rule="nonzero" opacity="1" stroke="none" id="path64"/>
            <path d="m 604.999,412.375 c 17.39,-15.144 82.76,-81.405 120.833,12.175 17.973,44.175 2.835,137.172 2.835,137.172" fill="none" opacity="1" class="stroke-orange stroke-orange" stroke="#ffb86c" stroke-linecap="butt" stroke-linejoin="round" stroke-width="4.86072" id="path65"/>
        </g>
        <g opacity="1" id="g68">
            <clipPath id="ClipPath_16">
                <path d="m 348.436,92.674 399.05,76.565 11.119,5.812 45.545,8.823 17.21,1.216 473.81,93.897 -17.11,289.479 -221.73,-11.696 c 0,0 -47.69,-2.956 -185.018,-3.086 -44.891,-0.043 -98.127,-1.173 -150.897,-1.657 -17.577,-0.161 -45.874,0.701 -62.731,1.555 -65.892,3.339 -149.135,-3.253 -149.135,-3.253 l -17.843,8.482 -58.723,0.899 -25.04,-4.131 -82.225,32.58 z" id="path66"/>
            </clipPath>
            <g clip-path="url(#ClipPath_16)" id="g67">
                <path d="m 501.781,445.489 c -34.064,51.258 -69.049,118.904 -69.049,118.904 l 53.8,-0.326 c 0,0 1.546,-5.79 6.547,-14.666 33.035,-58.632 41.274,-69.744 41.398,-70.158" fill="none" opacity="1" class="stroke-orange stroke-orange" stroke="#ffb86c" stroke-linecap="butt" stroke-linejoin="round" stroke-width="4.86072" id="path67"/>
            </g>
        </g>
    </g>
</svg>
