<svg xmlns="http://www.w3.org/2000/svg" version="1.1" xmlns:xlink="http://www.w3.org/1999/xlink"
    xmlns:svgjs="http://svgjs.com/svgjs"
    viewBox="-353.5533905932738 -70.71067811865476 707.1067811865476 707.1067811865476">
    <g class="my-groupundefined" fill="none" stroke-width="10" stroke="purple"
        transform="matrix(0.7071067811865476,0.7071067811865475,-0.7071067811865475,0.7071067811865476,0,0)">
        <g class="my-group0">
            <path d="M200,100 C171.7157287525381,128.2842712474619,128.2842712474619,71.7157287525381,100,100"
                stroke-width="20" stroke="#ffffff"></path>
            <path d="M200,100 C171.7157287525381,128.2842712474619,128.2842712474619,71.7157287525381,100,100"></path>
        </g>
        <g class="my-group1">
            <path d="M300,200 C271.7157287525381,228.2842712474619,228.2842712474619,171.7157287525381,200,200"
                stroke-width="20" stroke="#ffffff"></path>
            <path d="M300,200 C271.7157287525381,228.2842712474619,228.2842712474619,171.7157287525381,200,200"></path>
        </g>
        <g class="my-group2">
            <path d="M400,300 C371.7157287525381,328.2842712474619,328.2842712474619,271.7157287525381,300,300"
                stroke-width="20" stroke="#ffffff"></path>
            <path d="M400,300 C371.7157287525381,328.2842712474619,328.2842712474619,271.7157287525381,300,300"></path>
        </g>
        <g class="my-group0">
            <path d="M100,100 C128.2842712474619,71.7157287525381,71.7157287525381,28.2842712474619,100,0"
                stroke-width="20" stroke="#ffffff"></path>
            <path d="M100,100 C128.2842712474619,71.7157287525381,71.7157287525381,28.2842712474619,100,0"></path>
        </g>
        <g class="my-group1">
            <path d="M200,200 C228.2842712474619,171.7157287525381,171.7157287525381,128.2842712474619,200,100"
                stroke-width="20" stroke="#ffffff"></path>
            <path d="M200,200 C228.2842712474619,171.7157287525381,171.7157287525381,128.2842712474619,200,100"></path>
        </g>
        <g class="my-group2">
            <path d="M300,300 C328.2842712474619,271.7157287525381,271.7157287525381,228.2842712474619,300,200"
                stroke-width="20" stroke="#ffffff"></path>
            <path d="M300,300 C328.2842712474619,271.7157287525381,271.7157287525381,228.2842712474619,300,200"></path>
        </g>
        <g class="my-group3">
            <path d="M400,400 C428.2842712474619,371.7157287525381,371.7157287525381,328.2842712474619,400,300"
                stroke-width="20" stroke="#ffffff"></path>
            <path d="M400,400 C428.2842712474619,371.7157287525381,371.7157287525381,328.2842712474619,400,300"></path>
        </g>
    </g>
</svg>