<?xml version="1.0" encoding="UTF-8" standalone="no"?>
<!-- Created with Inkscape (http://www.inkscape.org/) -->

<svg version="1.1" id="svg182" viewBox="0 0 676.18683 686.24762" sodipodi:docname="tknot_35.svg"
    inkscape:version="1.2.2 (732a01da63, 2022-12-09)" xmlns:inkscape="http://www.inkscape.org/namespaces/inkscape"
    xmlns:sodipodi="http://sodipodi.sourceforge.net/DTD/sodipodi-0.dtd" xmlns="http://www.w3.org/2000/svg"
    xmlns:svg="http://www.w3.org/2000/svg">
    <defs id="defs186" />
    <sodipodi:namedview id="namedview184" pagecolor="#282a36" bordercolor="#666666" borderopacity="1.0"
        inkscape:showpageshadow="2" inkscape:pageopacity="0.0" inkscape:pagecheckerboard="0"
        inkscape:deskcolor="#d1d1d1" showgrid="false" inkscape:zoom="1.175" inkscape:cx="290.6383"
        inkscape:cy="331.06383" inkscape:window-width="1920" inkscape:window-height="1120" inkscape:window-x="-11"
        inkscape:window-y="-11" inkscape:window-maximized="1" inkscape:current-layer="g192">
        <inkscape:page x="0" y="0" id="page188" width="676.18683" height="686.24762" />
    </sodipodi:namedview>
    <g id="g190" inkscape:groupmode="layer" inkscape:label="Page 1"
        transform="matrix(1.3333333,0,0,-1.3333333,-20.921318,703.12387)">
        <g id="g192" transform="scale(0.1)">
            <path d="m 3995.5,2322.7 c 192,255.6 325.3,584.7 413.3,1020.2"
                style="fill:none;stroke:#282a36;stroke-width:375.00000938;stroke-linecap:butt;stroke-linejoin:miter;stroke-miterlimit:10;stroke-dasharray:none;stroke-opacity:1"
                id="path194" />
            <path d="m 3995.5,2322.7 c 192,255.6 325.3,584.7 413.3,1020.2" class="stroke-red"
                style="fill:none;stroke:#ff5555;stroke-width:110.276;stroke-linecap:round;stroke-linejoin:miter;stroke-miterlimit:10;stroke-dasharray:none;stroke-opacity:1"
                id="path196" />
            <path d="m 2854.6,1204.8 c 330.4,-97.1 701.3,-87.6 1149.8,29.3"
                style="fill:none;stroke:#282a36;stroke-width:375.00000938;stroke-linecap:butt;stroke-linejoin:miter;stroke-miterlimit:10;stroke-dasharray:none;stroke-opacity:1"
                id="path198" />
            <path d="m 2854.6,1204.8 c 330.4,-97.1 701.3,-87.6 1149.8,29.3" class="stroke-red"
                style="fill:none;stroke:#ff5555;stroke-width:110.276;stroke-linecap:round;stroke-linejoin:miter;stroke-miterlimit:10;stroke-dasharray:none;stroke-opacity:1"
                id="path200" />
            <path d="m 3498.6,3772.2 c -168,247.5 -409.1,485.5 -747.5,737.8"
                style="fill:none;stroke:#282a36;stroke-width:375.00000938;stroke-linecap:butt;stroke-linejoin:miter;stroke-miterlimit:10;stroke-dasharray:none;stroke-opacity:1"
                id="path202" />
            <path d="m 3498.6,3772.2 c -168,247.5 -409.1,485.5 -747.5,737.8" class="stroke-red"
                style="fill:none;stroke:#ff5555;stroke-width:110.276;stroke-linecap:round;stroke-linejoin:miter;stroke-miterlimit:10;stroke-dasharray:none;stroke-opacity:1"
                id="path204" />
            <path d="M 1279.2,1789.4 C 1315.6,1420.3 1483.6,1073.1 1800,713.199"
                style="fill:none;stroke:#282a36;stroke-width:375.00000938;stroke-linecap:butt;stroke-linejoin:miter;stroke-miterlimit:10;stroke-dasharray:none;stroke-opacity:1"
                id="path206" />
            <path d="M 1279.2,1789.4 C 1315.6,1420.3 1483.6,1073.1 1800,713.199" class="stroke-red"
                style="fill:none;stroke:#ff5555;stroke-width:110.276;stroke-linecap:round;stroke-linejoin:miter;stroke-miterlimit:10;stroke-dasharray:none;stroke-opacity:1"
                id="path208" />
            <path d="m 2020.7,3948.2 c -273.4,-81.7 -569.3,-212.1 -917,-404.2"
                style="fill:none;stroke:#282a36;stroke-width:375.00000938;stroke-linecap:butt;stroke-linejoin:miter;stroke-miterlimit:10;stroke-dasharray:none;stroke-opacity:1"
                id="path210" />
            <path d="m 2020.7,3948.2 c -273.4,-81.7 -569.3,-212.1 -917,-404.2" class="stroke-red"
                style="fill:none;stroke:#ff5555;stroke-width:110.276;stroke-linecap:round;stroke-linejoin:miter;stroke-miterlimit:10;stroke-dasharray:none;stroke-opacity:1"
                id="path212" />
            <path d="M 1136.8,3562.3 C 789.102,3370.1 537.898,3060.6 358.301,2602.9"
                style="fill:none;stroke:#282a36;stroke-width:375.00000938;stroke-linecap:butt;stroke-linejoin:miter;stroke-miterlimit:10;stroke-dasharray:none;stroke-opacity:1"
                id="path214" />
            <path d="M 1136.8,3562.3 C 789.102,3370.1 537.898,3060.6 358.301,2602.9" class="stroke-red"
                style="fill:none;stroke:#ff5555;stroke-width:110.276;stroke-linecap:round;stroke-linejoin:miter;stroke-miterlimit:10;stroke-dasharray:none;stroke-opacity:1"
                id="path216" />
            <path d="m 1229,2713.4 c 0,-280.6 17.3,-590 53.7,-959.1"
                style="fill:none;stroke:#282a36;stroke-width:375.00000938;stroke-linecap:butt;stroke-linejoin:miter;stroke-miterlimit:10;stroke-dasharray:none;stroke-opacity:1"
                id="path218" />
            <path d="m 1229,2713.4 c 0,-280.6 17.3,-590 53.7,-959.1" class="stroke-red"
                style="fill:none;stroke:#ff5555;stroke-width:110.276;stroke-linecap:round;stroke-linejoin:miter;stroke-miterlimit:10;stroke-dasharray:none;stroke-opacity:1"
                id="path220" />
            <path d="m 2783.3,4486 c -338.4,252.3 -736.8,346.1 -1234.9,291"
                style="fill:none;stroke:#282a36;stroke-width:375.00000938;stroke-linecap:butt;stroke-linejoin:miter;stroke-miterlimit:10;stroke-dasharray:none;stroke-opacity:1"
                id="path222" />
            <path d="m 2783.3,4486 c -338.4,252.3 -736.8,346.1 -1234.9,291" class="stroke-red"
                style="fill:none;stroke:#ff5555;stroke-width:110.276;stroke-linecap:round;stroke-linejoin:miter;stroke-miterlimit:10;stroke-dasharray:none;stroke-opacity:1"
                id="path224" />
            <path d="m 1994.7,1459.5 c 273.5,-81.7 561,-166.9 891.4,-264"
                style="fill:none;stroke:#282a36;stroke-width:375.00000938;stroke-linecap:butt;stroke-linejoin:miter;stroke-miterlimit:10;stroke-dasharray:none;stroke-opacity:1"
                id="path226" />
            <path d="m 1994.7,1459.5 c 273.5,-81.7 561,-166.9 891.4,-264" class="stroke-red"
                style="fill:none;stroke:#ff5555;stroke-width:110.276;stroke-linecap:round;stroke-linejoin:miter;stroke-miterlimit:10;stroke-dasharray:none;stroke-opacity:1"
                id="path228" />
            <path d="m 4400.4,3301.5 c 88.1,435.5 -6.9,842.3 -294.5,1261.1"
                style="fill:none;stroke:#282a36;stroke-width:375.00000938;stroke-linecap:butt;stroke-linejoin:miter;stroke-miterlimit:10;stroke-dasharray:none;stroke-opacity:1"
                id="path230" />
            <path d="m 4400.4,3301.5 c 88.1,435.5 -6.9,842.3 -294.5,1261.1" class="stroke-red"
                style="fill:none;stroke:#ff5555;stroke-width:110.276;stroke-linecap:round;stroke-linejoin:miter;stroke-miterlimit:10;stroke-dasharray:none;stroke-opacity:1"
                id="path232" />
            <path d="m 3482.6,1604.2 c 167.9,247.6 339.3,487.2 531.2,742.8"
                style="fill:none;stroke:#282a36;stroke-width:375.00000938;stroke-linecap:butt;stroke-linejoin:miter;stroke-miterlimit:10;stroke-dasharray:none;stroke-opacity:1"
                id="path234" />
            <path d="m 3482.6,1604.2 c 167.9,247.6 339.3,487.2 531.2,742.8" class="stroke-red"
                style="fill:none;stroke:#ff5555;stroke-width:110.276;stroke-linecap:round;stroke-linejoin:miter;stroke-miterlimit:10;stroke-dasharray:none;stroke-opacity:1"
                id="path236" />
            <path d="m 3961.7,1223 c 448.5,116.9 773,390 1006.1,846.6"
                style="fill:none;stroke:#282a36;stroke-width:375.00000938;stroke-linecap:butt;stroke-linejoin:miter;stroke-miterlimit:10;stroke-dasharray:none;stroke-opacity:1"
                id="path238" />
            <path d="m 3961.7,1223 c 448.5,116.9 773,390 1006.1,846.6" class="stroke-red"
                style="fill:none;stroke:#ff5555;stroke-width:110.276;stroke-linecap:round;stroke-linejoin:miter;stroke-miterlimit:10;stroke-dasharray:none;stroke-opacity:1"
                id="path240" />
            <path d="m 4013.8,3053 c -191.9,255.6 -363.3,495.2 -531.2,742.8"
                style="fill:none;stroke:#282a36;stroke-width:375.00000938;stroke-linecap:butt;stroke-linejoin:miter;stroke-miterlimit:10;stroke-dasharray:none;stroke-opacity:1"
                id="path242" />
            <path d="m 4013.8,3053 c -191.9,255.6 -363.3,495.2 -531.2,742.8" class="stroke-red"
                style="fill:none;stroke:#ff5555;stroke-width:110.276;stroke-linecap:round;stroke-linejoin:miter;stroke-miterlimit:10;stroke-dasharray:none;stroke-opacity:1"
                id="path244" />
            <path d="m 1769.9,747.5 c 316.4,-360 712.4,-524.301 1227.5,-509.199"
                style="fill:none;stroke:#282a36;stroke-width:375.00000938;stroke-linecap:butt;stroke-linejoin:miter;stroke-miterlimit:10;stroke-dasharray:none;stroke-opacity:1"
                id="path246" />
            <path d="m 1769.9,747.5 c 316.4,-360 712.4,-524.301 1227.5,-509.199" class="stroke-red"
                style="fill:none;stroke:#ff5555;stroke-width:110.276;stroke-linecap:round;stroke-linejoin:miter;stroke-miterlimit:10;stroke-dasharray:none;stroke-opacity:1"
                id="path248" />
            <path d="m 2886.1,4204.5 c -330.4,-97.1 -617.9,-182.3 -891.4,-264"
                style="fill:none;stroke:#282a36;stroke-width:375.00000938;stroke-linecap:butt;stroke-linejoin:miter;stroke-miterlimit:10;stroke-dasharray:none;stroke-opacity:1"
                id="path250" />
            <path d="m 2886.1,4204.5 c -330.4,-97.1 -617.9,-182.3 -891.4,-264" class="stroke-red"
                style="fill:none;stroke:#ff5555;stroke-width:110.276;stroke-linecap:round;stroke-linejoin:miter;stroke-miterlimit:10;stroke-dasharray:none;stroke-opacity:1"
                id="path252" />
            <path d="M 375.398,2646.5 C 195.801,2188.7 235.301,1758.8 497.898,1313.8"
                style="fill:none;stroke:#282a36;stroke-width:375.00000938;stroke-linecap:butt;stroke-linejoin:miter;stroke-miterlimit:10;stroke-dasharray:none;stroke-opacity:1"
                id="path254" />
            <path d="M 375.398,2646.5 C 195.801,2188.7 235.301,1758.8 497.898,1313.8" class="stroke-red"
                style="fill:none;stroke:#ff5555;stroke-width:110.276;stroke-linecap:round;stroke-linejoin:miter;stroke-miterlimit:10;stroke-dasharray:none;stroke-opacity:1"
                id="path256" />
            <path d="M 1282.7,3645.7 C 1246.3,3276.6 1229,2967.2 1229,2686.6"
                style="fill:none;stroke:#282a36;stroke-width:375.00000938;stroke-linecap:butt;stroke-linejoin:miter;stroke-miterlimit:10;stroke-dasharray:none;stroke-opacity:1"
                id="path258" />
            <path d="M 1282.7,3645.7 C 1246.3,3276.6 1229,2967.2 1229,2686.6" class="stroke-red"
                style="fill:none;stroke:#ff5555;stroke-width:110.276;stroke-linecap:round;stroke-linejoin:miter;stroke-miterlimit:10;stroke-dasharray:none;stroke-opacity:1"
                id="path260" />
            <path d="M 1595.8,4782.2 C 1097.6,4727 735.398,4488.8 472.801,4043.8"
                style="fill:none;stroke:#282a36;stroke-width:375.00000938;stroke-linecap:butt;stroke-linejoin:miter;stroke-miterlimit:10;stroke-dasharray:none;stroke-opacity:1"
                id="path262" />
            <path d="M 1595.8,4782.2 C 1097.6,4727 735.398,4488.8 472.801,4043.8" class="stroke-red"
                style="fill:none;stroke:#ff5555;stroke-width:110.276;stroke-linecap:round;stroke-linejoin:miter;stroke-miterlimit:10;stroke-dasharray:none;stroke-opacity:1"
                id="path264" />
            <path d="m 1103.7,1856 c 347.7,-192.1 643.6,-322.5 917,-404.2"
                style="fill:none;stroke:#282a36;stroke-width:375.00000938;stroke-linecap:butt;stroke-linejoin:miter;stroke-miterlimit:10;stroke-dasharray:none;stroke-opacity:1"
                id="path266" />
            <path d="m 1103.7,1856 c 347.7,-192.1 643.6,-322.5 917,-404.2" class="stroke-red"
                style="fill:none;stroke:#ff5555;stroke-width:110.276;stroke-linecap:round;stroke-linejoin:miter;stroke-miterlimit:10;stroke-dasharray:none;stroke-opacity:1"
                id="path268" />
            <path d="m 4133.3,4522.7 c -287.5,418.8 -669.8,625.4 -1184.9,640.5"
                style="fill:none;stroke:#282a36;stroke-width:375.00000938;stroke-linecap:butt;stroke-linejoin:miter;stroke-miterlimit:10;stroke-dasharray:none;stroke-opacity:1"
                id="path270" />
            <path d="m 4133.3,4522.7 c -287.5,418.8 -669.8,625.4 -1184.9,640.5" class="stroke-red"
                style="fill:none;stroke:#ff5555;stroke-width:110.276;stroke-linecap:round;stroke-linejoin:miter;stroke-miterlimit:10;stroke-dasharray:none;stroke-opacity:1"
                id="path272" />
            <path d="m 2751.1,890 c 338.4,252.3 579.5,490.3 747.5,737.8"
                style="fill:none;stroke:#282a36;stroke-width:375.00000938;stroke-linecap:butt;stroke-linejoin:miter;stroke-miterlimit:10;stroke-dasharray:none;stroke-opacity:1"
                id="path274" />
            <path d="m 2751.1,890 c 338.4,252.3 579.5,490.3 747.5,737.8" class="stroke-red"
                style="fill:none;stroke:#ff5555;stroke-width:110.276;stroke-linecap:round;stroke-linejoin:miter;stroke-miterlimit:10;stroke-dasharray:none;stroke-opacity:1"
                id="path276" />
            <path d="m 4945.6,2026.1 c 233.1,456.5 233.1,891.3 0,1347.8"
                style="fill:none;stroke:#282a36;stroke-width:375.00000938;stroke-linecap:butt;stroke-linejoin:miter;stroke-miterlimit:10;stroke-dasharray:none;stroke-opacity:1"
                id="path278" />
            <path d="m 4945.6,2026.1 c 233.1,456.5 233.1,891.3 0,1347.8" class="stroke-red"
                style="fill:none;stroke:#ff5555;stroke-width:110.276;stroke-linecap:round;stroke-linejoin:miter;stroke-miterlimit:10;stroke-dasharray:none;stroke-opacity:1"
                id="path280" />
            <path d="m 4408.8,2057.1 c -88,435.5 -221.3,764.6 -413.3,1020.2"
                style="fill:none;stroke:#282a36;stroke-width:375.00000938;stroke-linecap:butt;stroke-linejoin:miter;stroke-miterlimit:10;stroke-dasharray:none;stroke-opacity:1"
                id="path282" />
            <path d="m 4408.8,2057.1 c -88,435.5 -221.3,764.6 -413.3,1020.2" class="stroke-red"
                style="fill:none;stroke:#ff5555;stroke-width:110.276;stroke-linecap:round;stroke-linejoin:miter;stroke-miterlimit:10;stroke-dasharray:none;stroke-opacity:1"
                id="path284" />
            <path d="m 2948.4,236.801 c 515.1,15.097 897.4,221.699 1184.9,640.5"
                style="fill:none;stroke:#282a36;stroke-width:375.00000938;stroke-linecap:butt;stroke-linejoin:miter;stroke-miterlimit:10;stroke-dasharray:none;stroke-opacity:1"
                id="path286" />
            <path d="m 2948.4,236.801 c 515.1,15.097 897.4,221.699 1184.9,640.5" class="stroke-red"
                style="fill:none;stroke:#ff5555;stroke-width:110.276;stroke-linecap:round;stroke-linejoin:miter;stroke-miterlimit:10;stroke-dasharray:none;stroke-opacity:1"
                id="path288" />
            <path d="m 4004.4,4165.9 c -448.5,116.9 -819.4,126.4 -1149.8,29.3"
                style="fill:none;stroke:#282a36;stroke-width:375.00000938;stroke-linecap:butt;stroke-linejoin:miter;stroke-miterlimit:10;stroke-dasharray:none;stroke-opacity:1"
                id="path290" />
            <path d="m 4004.4,4165.9 c -448.5,116.9 -819.4,126.4 -1149.8,29.3" class="stroke-red"
                style="fill:none;stroke:#ff5555;stroke-width:110.276;stroke-linecap:round;stroke-linejoin:miter;stroke-miterlimit:10;stroke-dasharray:none;stroke-opacity:1"
                id="path292" />
            <path d="M 472.801,1356.2 C 735.398,911.199 1097.6,673 1595.8,617.801"
                style="fill:none;stroke:#282a36;stroke-width:375.00000938;stroke-linecap:butt;stroke-linejoin:miter;stroke-miterlimit:10;stroke-dasharray:none;stroke-opacity:1"
                id="path294" />
            <path d="M 472.801,1356.2 C 735.398,911.199 1097.6,673 1595.8,617.801" class="stroke-red"
                style="fill:none;stroke:#ff5555;stroke-width:110.276;stroke-linecap:round;stroke-linejoin:miter;stroke-miterlimit:10;stroke-dasharray:none;stroke-opacity:1"
                id="path296" />
            <path d="M 1800,4686.8 C 1483.6,4326.9 1315.6,3979.7 1279.2,3610.6"
                style="fill:none;stroke:#282a36;stroke-width:375.00000938;stroke-linecap:butt;stroke-linejoin:miter;stroke-miterlimit:10;stroke-dasharray:none;stroke-opacity:1"
                id="path298" />
            <path d="M 1800,4686.8 C 1483.6,4326.9 1315.6,3979.7 1279.2,3610.6" class="stroke-red"
                style="fill:none;stroke:#ff5555;stroke-width:110.276;stroke-linecap:round;stroke-linejoin:miter;stroke-miterlimit:10;stroke-dasharray:none;stroke-opacity:1"
                id="path300" />
            <path d="M 497.898,4086.2 C 235.301,3641.2 195.801,3211.3 375.398,2753.5"
                style="fill:none;stroke:#282a36;stroke-width:375.00000938;stroke-linecap:butt;stroke-linejoin:miter;stroke-miterlimit:10;stroke-dasharray:none;stroke-opacity:1"
                id="path302" />
            <path d="M 497.898,4086.2 C 235.301,3641.2 195.801,3211.3 375.398,2753.5" class="stroke-red"
                style="fill:none;stroke:#ff5555;stroke-width:110.276;stroke-linecap:round;stroke-linejoin:miter;stroke-miterlimit:10;stroke-dasharray:none;stroke-opacity:1"
                id="path304" />
            <path d="M 358.301,2797.1 C 537.898,2339.4 789.102,2029.9 1136.8,1837.7"
                style="fill:none;stroke:#282a36;stroke-width:375.00000938;stroke-linecap:butt;stroke-linejoin:miter;stroke-miterlimit:10;stroke-dasharray:none;stroke-opacity:1"
                id="path306" />
            <path d="M 358.301,2797.1 C 537.898,2339.4 789.102,2029.9 1136.8,1837.7" class="stroke-red"
                style="fill:none;stroke:#ff5555;stroke-width:110.276;stroke-linecap:round;stroke-linejoin:miter;stroke-miterlimit:10;stroke-dasharray:none;stroke-opacity:1"
                id="path308" />
            <path d="m 2997.4,5161.7 c -515.1,15.1 -911.1,-149.2 -1227.5,-509.2"
                style="fill:none;stroke:#282a36;stroke-width:375.00000938;stroke-linecap:butt;stroke-linejoin:miter;stroke-miterlimit:10;stroke-dasharray:none;stroke-opacity:1"
                id="path310" />
            <path d="m 2997.4,5161.7 c -515.1,15.1 -911.1,-149.2 -1227.5,-509.2" class="stroke-red"
                style="fill:none;stroke:#ff5555;stroke-width:110.276;stroke-linecap:round;stroke-linejoin:miter;stroke-miterlimit:10;stroke-dasharray:none;stroke-opacity:1"
                id="path312" />
            <path d="m 1548.4,623 c 498.1,-55.102 896.5,38.699 1234.9,291"
                style="fill:none;stroke:#282a36;stroke-width:375.00000938;stroke-linecap:butt;stroke-linejoin:miter;stroke-miterlimit:10;stroke-dasharray:none;stroke-opacity:1"
                id="path314" />
            <path d="m 1548.4,623 c 498.1,-55.102 896.5,38.699 1234.9,291" class="stroke-red"
                style="fill:none;stroke:#ff5555;stroke-width:110.276;stroke-linecap:round;stroke-linejoin:miter;stroke-miterlimit:10;stroke-dasharray:none;stroke-opacity:1"
                id="path316" />
            <path d="M 4967.8,3330.4 C 4734.7,3787 4410.2,4060.1 3961.7,4177"
                style="fill:none;stroke:#282a36;stroke-width:375.00000938;stroke-linecap:butt;stroke-linejoin:miter;stroke-miterlimit:10;stroke-dasharray:none;stroke-opacity:1"
                id="path318" />
            <path d="M 4967.8,3330.4 C 4734.7,3787 4410.2,4060.1 3961.7,4177" class="stroke-red"
                style="fill:none;stroke:#ff5555;stroke-width:110.276;stroke-linecap:round;stroke-linejoin:miter;stroke-miterlimit:10;stroke-dasharray:none;stroke-opacity:1"
                id="path320" />
            <path d="M 4105.9,837.398 C 4393.5,1256.2 4488.5,1663 4400.4,2098.5"
                style="fill:none;stroke:#282a36;stroke-width:375.00000938;stroke-linecap:butt;stroke-linejoin:miter;stroke-miterlimit:10;stroke-dasharray:none;stroke-opacity:1"
                id="path322" />
            <path d="M 4105.9,837.398 C 4393.5,1256.2 4488.5,1663 4400.4,2098.5" class="stroke-red"
                style="fill:none;stroke:#ff5555;stroke-width:110.276;stroke-linecap:round;stroke-linejoin:miter;stroke-miterlimit:10;stroke-dasharray:none;stroke-opacity:1"
                id="path324" />
        </g>
    </g>
</svg>