<?xml version="1.0" encoding="UTF-8" standalone="no"?>
<!-- Created with Inkscape (http://www.inkscape.org/) -->

<svg fill="currentColor" version="1.1" id="svg1" viewBox="0 0 722 925"
    sodipodi:docname="icon.svg" inkscape:version="1.3.2 (091e20ef0f, 2023-11-25)"
    xmlns:inkscape="http://www.inkscape.org/namespaces/inkscape"
    xmlns:sodipodi="http://sodipodi.sourceforge.net/DTD/sodipodi-0.dtd" xmlns="http://www.w3.org/2000/svg"
    xmlns:svg="http://www.w3.org/2000/svg">
    <defs id="defs1" />
    <sodipodi:namedview id="namedview1" pagecolor="#ffffff" bordercolor="#000000" borderopacity="0.25"
        inkscape:showpageshadow="2" inkscape:pageopacity="0.0" inkscape:pagecheckerboard="0"
        inkscape:deskcolor="#d1d1d1" inkscape:zoom="0.91135135" inkscape:cx="386.23962" inkscape:cy="498.70996"
        inkscape:window-width="1920" inkscape:window-height="1123" inkscape:window-x="0" inkscape:window-y="0"
        inkscape:window-maximized="1" inkscape:current-layer="layer1" />
    <g inkscape:groupmode="layer" id="layer1" inkscape:label="Image 1">
        <path
            d="m 604.43467,913.5 c 2.10276,-34.36048 2.47579,-41.92288 2.08708,-42.31158 C 606.28268,870.94935 595.92289,876.26456 583.5,883 c -12.42289,6.73544 -22.75114,12.07835 -22.95165,11.87313 -0.20052,-0.20522 6.51588,-9.59813 14.92532,-20.87313 8.40945,-11.275 15.0056,-20.79793 14.65812,-21.16207 -0.64691,-0.67791 -17.09578,-2.21867 -36.54722,-3.42336 -6.00349,-0.37181 -11.92982,-0.9547 -13.16963,-1.2953 -1.66496,-0.4574 3.67149,-2.81989 20.41543,-9.03808 27.56164,-10.23556 26.64105,-9.80823 25.10841,-11.65496 -0.6547,-0.78886 -9.94471,-7.99652 -20.64447,-16.01703 -10.69976,-8.0205 -19.26048,-14.77636 -19.02382,-15.01302 0.23666,-0.23666 4.43511,0.46079 9.3299,1.5499 4.89479,1.08911 15.42461,3.36568 23.39961,5.05905 7.975,1.69338 15.2875,3.31529 16.25,3.60425 2.66601,0.8004 2.24989,-1.23729 -3.33866,-16.34921 -2.79877,-7.56809 -6.62377,-17.90302 -8.5,-22.9665 C 581.5351,762.23019 580,757.73475 580,757.30381 c 0,-0.43095 8.31603,7.52338 18.48006,17.67627 11.68631,11.6735 18.822,18.10323 19.4102,17.48986 0.51157,-0.53347 1.83398,-5.24494 2.93867,-10.46994 5.1128,-24.18265 8.58306,-39 9.13389,-39 0.33099,0 2.77584,10.0125 5.43299,22.25 2.65716,12.2375 5.05497,23.26675 5.32847,24.50945 0.2735,1.2427 0.85899,2.483 1.30109,2.75623 0.4421,0.27323 9.16725,-7.65542 19.38922,-17.61923 C 671.63657,764.93265 680,757.03882 680,757.35462 c 0,0.3158 -3.63137,10.36581 -8.06972,22.33337 -4.43834,11.96755 -8.32988,23.06001 -8.64786,24.64992 -0.504,2.52001 -0.3293,2.81174 1.3623,2.27485 1.06725,-0.33873 9.34629,-2.15381 18.39787,-4.03351 9.05157,-1.87969 19.52283,-4.12899 23.26946,-4.99844 3.74663,-0.86944 7.24302,-1.58081 7.76974,-1.58081 0.52673,0 -8.47747,7.0875 -20.00934,15.75 -11.53187,8.6625 -20.84099,16.2 -20.68693,16.75 0.15406,0.55 11.24215,5.10828 24.64021,10.12951 27.96019,10.47872 27.92347,9.59811 0.47427,11.37583 -20.50654,1.32808 -28.46139,2.12316 -28.93668,2.8922 -0.20925,0.33858 1.4909,3.10467 3.77811,6.14688 C 688.12585,878.7091 700,894.85396 700,895.2911 c 0,0.28089 -10.37754,-5.11715 -23.0612,-11.99566 -12.68366,-6.8785 -23.29478,-12.27279 -23.58027,-11.9873 -0.28549,0.28549 0.321,12.03295 1.34777,26.10547 1.02676,14.07251 1.60737,25.58639 1.29024,25.58639 -0.31713,0 -5.46971,-8.8875 -11.45019,-19.75 C 630.28065,877.33884 630.66261,878 629.95946,878 c -0.33513,0 -5.49542,8.8875 -11.46731,19.75 -5.9719,10.8625 -11.71557,21.1 -12.76372,22.75 l -1.90573,3 z m -170,-500 c 2.10107,-34.3329 2.47622,-41.92245 2.09122,-42.30745 -0.2368,-0.23679 -10.60488,5.07013 -23.04018,11.79316 -12.43529,6.72304 -22.79431,12.03903 -23.02003,11.81331 -0.22572,-0.22572 0.83551,-1.96034 2.35829,-3.85471 8.04927,-10.01347 28.01223,-37.92659 27.39369,-38.3031 -0.82209,-0.50042 -20.50213,-2.22997 -36.71766,-3.22687 -6.05,-0.37195 -11.81263,-0.97406 -12.80585,-1.33804 -1.69037,-0.61945 4.15133,-3.03843 38.22927,-15.83031 4.08289,-1.53259 7.54681,-3.22741 7.6976,-3.76626 0.1508,-0.53885 -8.93938,-7.9051 -20.20038,-16.36944 -11.261,-8.46434 -20.33772,-15.52654 -20.17048,-15.69378 0.16724,-0.16724 2.31687,0.15317 4.77695,0.71202 2.46009,0.55885 13.02289,2.79086 23.47289,4.96001 10.45,2.16915 19.7875,4.19193 20.75,4.49507 1.13677,0.35803 1.75,0.0226 1.75,-0.9571 0,-0.82954 -3.825,-11.93768 -8.5,-24.68474 -4.675,-12.74706 -8.5,-23.45661 -8.5,-23.79899 0,-0.34238 8.31603,7.68441 18.48006,17.8373 11.7038,11.69098 18.82211,18.10415 19.41291,17.48986 0.51307,-0.53347 1.79874,-5.01994 2.85704,-9.96994 5.12927,-23.99103 8.75181,-39.49989 9.22609,-39.49879 0.4204,9.7e-4 4.02559,15.67305 10.75624,46.75824 0.26907,1.2427 0.85093,2.483 1.29303,2.75623 0.4421,0.27323 9.16725,-7.65542 19.38922,-17.61923 C 501.63657,264.93265 510,257.03358 510,257.34298 c 0,0.30939 -3.825,10.92896 -8.5,23.59905 -4.675,12.67008 -8.5,23.72492 -8.5,24.5663 0,1.08458 0.65479,1.36789 2.25,0.97351 7.93071,-1.96069 48.21771,-10.34746 48.47406,-10.09111 0.17253,0.17253 -8.89377,7.24269 -20.14732,15.71148 -11.25355,8.46878 -20.33919,15.84137 -20.1903,16.38351 0.14889,0.54215 10.9519,5.02147 24.00668,9.95405 16.11289,6.08805 23.15321,9.18309 21.92143,9.63701 -0.998,0.36778 -10.13955,1.20953 -20.31455,1.87056 -22.68405,1.47369 -29.08176,2.25691 -29.0199,3.55266 0.0426,0.89299 6.64257,10.03929 24.14946,33.46664 3.09626,4.14335 5.47741,7.70221 5.29145,7.90858 -0.18596,0.20637 -10.51327,-5.12462 -22.94958,-11.84665 -12.43631,-6.72202 -22.84863,-11.98471 -23.13848,-11.69485 -0.28986,0.28986 0.22899,10.57085 1.15299,22.84665 2.51282,33.38405 3.20938,32.99453 -11.48594,6.42297 -6.875,-12.43113 -12.76276,-22.60235 -13.08391,-22.6027 -0.32115,-3.5e-4 -5.46977,8.88686 -11.44138,19.74936 -5.97161,10.8625 -11.71124,21.1 -12.75474,22.75 l -1.89727,3 z M 168.50041,357.47297 c 0.3005,-4.93513 0.76147,-11.98352 1.02439,-15.66308 0.26292,-3.67956 0.10763,-6.91903 -0.34508,-7.19882 -0.45272,-0.27979 -1.9301,0.0656 -3.28308,0.76753 -1.35298,0.70193 -7.83198,4.13184 -14.39779,7.62201 -13.19893,7.01613 -12.87382,7.37195 -3.74885,-4.1029 1.7875,-2.24781 3.25,-4.40951 3.25,-4.80376 0,-0.39426 0.79973,-1.58918 1.77718,-2.65539 3.56494,-3.88866 6.33421,-8.44932 5.72704,-9.43174 C 158.16198,321.45307 154.9015,321 151.25871,321 143.7209,321 125.72489,318.88166 128,318.26219 c 0.825,-0.22464 2.5125,-0.82553 3.75,-1.33531 4.67898,-1.92749 6.85374,-2.76066 10.25,-3.92688 1.925,-0.66101 4.4,-1.58626 5.5,-2.0561 1.1,-0.46984 3.8,-1.57948 6,-2.46587 l 4,-1.61161 -2.61608,-2.18321 C 150.3047,300.8617 148.58373,299.52982 145,297.03393 143.075,295.69327 141.275,294.328 141,294 c -0.275,-0.328 -2.075,-1.68487 -4,-3.01527 -1.925,-1.3304 -4.175,-3.08354 -5,-3.89586 -1.32908,-1.30867 -1.27211,-1.3899 0.5,-0.71289 1.1,0.42025 3.35,0.99443 5,1.27596 1.65,0.28153 6.6,1.32554 11,2.32002 14.33387,3.2397 14.5,3.24975 14.5,0.87787 0,-1.15509 -1.98166,-7.33134 -4.4037,-13.725 -2.42203,-6.39366 -4.7328,-12.52483 -5.13504,-13.62483 -0.40223,-1.1 4.51715,3.175 10.93197,9.5 12.2494,12.07789 12.83691,12.3272 14.13889,6 3.32151,-16.14151 4.67393,-22.32377 5.46896,-25 0.67996,-2.2889 0.79946,-2.16225 1.41517,1.5 0.36987,2.2 1.06896,5.575 1.55353,7.5 0.48457,1.925 1.4045,6.2 2.04429,9.5 0.63979,3.3 1.70067,7.2789 2.35751,8.842 l 1.19425,2.84199 11.90484,-11.34199 C 211.01833,266.6039 216.02268,262.4 215.59145,263.5 209.91929,277.9688 206,289.16259 206,290.89388 c 0,1.71167 0.4539,2.0389 2.25,1.62214 5.50809,-1.2781 17.64185,-3.81498 21.75,-4.54741 2.475,-0.44126 5.4,-1.15204 6.5,-1.5795 1.77205,-0.68862 1.82904,-0.60887 0.5,0.69976 -0.825,0.81232 -3.075,2.56546 -5,3.89586 -1.925,1.3304 -3.725,2.68727 -4,3.01527 -0.275,0.328 -2.075,1.68487 -4,3.01527 -1.925,1.3304 -4.07887,2.98045 -4.78639,3.66678 -0.70751,0.68632 -2.62001,2.03566 -4.25,2.99852 -1.62998,0.96285 -2.96361,2.09207 -2.96361,2.50936 0,1.06919 4.4152,3.18315 12,5.74548 3.575,1.20772 7.5125,2.61632 8.75,3.13022 5.52848,2.29584 6.84213,2.81848 8.25,3.2823 0.88293,0.29088 0.47155,0.56365 -1,0.66306 -15.95318,1.07773 -29.40123,2.68848 -29.68982,3.55613 -0.19521,0.58691 3.9199,6.79439 9.14468,13.79441 l 9.4996,12.7273 -11.69557,-6.217 c -6.43257,-3.41934 -12.80255,-6.7913 -14.15553,-7.49323 -4.46756,-2.3178 -4.40827,-2.87376 -2.51905,23.6214 0.61489,8.62351 0.29516,8.50299 -5.3056,-2 -8.18485,-15.34888 -9.77352,-18 -10.78636,-18 -0.57065,0 -1.92307,1.6875 -3.00537,3.75 -1.08231,2.0625 -2.19795,3.975 -2.4792,4.25 -0.28125,0.275 -2.48124,4.325 -4.88887,9 -2.40763,4.675 -4.77966,8.93784 -5.27118,9.47297 -0.52735,0.57415 -0.66972,-2.70509 -0.34732,-8 z M 373.47758,175.5 c 0.37814,-7.7 1.08547,-19.16741 1.57184,-25.48314 0.48637,-6.31572 0.56172,-11.78968 0.16744,-12.16436 -0.39427,-0.37467 -11.00137,4.93322 -23.57134,11.79533 -12.56996,6.8621 -22.99996,12.33106 -23.17778,12.15324 -0.17783,-0.17782 6.60797,-9.54331 15.07954,-20.81219 8.47158,-11.26888 15.41408,-21.00938 15.42779,-21.64556 0.0163,-0.75518 -3.3594,-1.38067 -9.72507,-1.802 -5.3625,-0.35493 -14.7,-1.07039 -20.75,-1.58991 -6.05,-0.51951 -13.6775,-0.94611 -16.95,-0.94799 -3.50662,-0.002 -5.55988,-0.36745 -5,-0.8899 0.5225,-0.48756 9.05,-3.89964 18.95,-7.58239 25.80777,-9.600363 29.59491,-11.14606 29.74997,-12.142247 0.0761,-0.488886 -9.1491,-7.851304 -20.50043,-16.360929 -11.35133,-8.509625 -20.47472,-15.63611 -20.2742,-15.836632 0.37011,-0.370103 47.56391,9.502773 50.12799,10.486702 0.77279,0.29655 1.39645,-0.0702 1.39618,-0.821035 -2.7e-4,-0.746344 -3.84125,-11.659054 -8.53551,-24.250466 -4.69426,-12.591412 -8.38499,-23.343545 -8.20163,-23.893629 0.18336,-0.550083 8.50386,7.203698 18.48999,17.230626 9.98613,10.026927 18.5805,17.968793 19.0986,17.64859 0.5181,-0.320203 1.46013,-3.39692 2.0934,-6.837149 C 391.86576,35.884517 398.83081,6.653615 399.37016,8 c 0.59765,1.491901 9.20785,40.524899 10.31784,46.774284 0.31986,1.800855 0.94008,3.495859 1.37827,3.766674 0.43819,0.270814 9.38242,-7.952613 19.87607,-18.274284 10.49364,-10.321671 19.07447,-18.679096 19.06851,-18.572055 -0.006,0.10704 -4.07629,11.11068 -9.04517,24.452534 -4.96888,13.341853 -8.90638,24.766265 -8.75,25.387583 0.19082,0.758177 8.34113,-0.628278 24.78432,-4.216078 13.475,-2.940161 25.02033,-5.227152 25.6563,-5.082202 C 483.29226,62.381405 474.42849,69.475 462.95903,78 c -11.46945,8.525 -20.73513,15.926462 -20.5904,16.447694 0.14474,0.521232 11.14601,5.019507 24.44727,9.996166 13.30125,4.97666 24.1841,9.3877 24.1841,9.80231 0,0.4146 -2.2415,0.75383 -4.98111,0.75383 -2.73961,0 -10.50211,0.43954 -17.25,0.97676 -6.74789,0.53722 -16.20639,1.25261 -21.01889,1.58977 -5.62544,0.39411 -8.74794,1.02732 -8.74425,1.77324 0.003,0.63813 6.9684,10.49773 15.4783,21.91023 8.50989,11.4125 15.2956,20.75 15.07936,20.75 -0.21625,0 -10.8123,-5.66918 -23.54678,-12.59818 -12.73448,-6.929 -23.37845,-12.37334 -23.65326,-12.09852 -0.27481,0.27481 0.24141,10.57662 1.14715,22.89292 0.90575,12.3163 1.49891,23.87572 1.31815,25.68762 -0.37747,3.78352 0.81038,5.6397 -16.39368,-25.61726 -4.91424,-8.92838 -9.20208,-16.24088 -9.52852,-16.25 -0.32644,-0.009 -3.70144,5.70331 -7.5,12.69428 -15.31005,28.17702 -16.99996,31.21513 -17.79218,31.98654 -0.45334,0.44143 -0.51486,-5.4974 -0.13671,-13.1974 z M 107.42581,160.50017 C 100.32686,147.57507 94.266448,137 93.958231,137 c -0.308218,0 -5.884378,9.7875 -12.391467,21.75 -6.50709,11.9625 -12.260427,22.2 -12.785193,22.75 -0.98905,1.03661 -0.455014,-15.1697 1.251696,-37.98509 0.493102,-6.5918 0.57484,-12.29077 0.181641,-12.66437 -0.3932,-0.37359 -10.999423,4.93518 -23.569385,11.79729 -12.569963,6.8621 -22.999967,12.33106 -23.177788,12.15324 -0.17782,-0.17782 6.607977,-9.54331 15.079549,-20.81219 8.471573,-11.26888 15.414077,-21.00938 15.427788,-21.64556 0.01628,-0.75518 -3.359405,-1.38067 -9.725072,-1.802 -5.3625,-0.35493 -14.7,-1.07039 -20.75,-1.58991 -6.05,-0.51951 -13.6775,-0.94611 -16.95,-0.94799 -3.603106,-0.002 -5.57528583,-0.36229 -5,-0.91326 C 2.0725,106.58975 13.3,102.13267 26.5,97.185529 39.7,92.238393 50.490826,87.81032 50.479614,87.345368 50.468401,86.880416 41.129473,79.525 29.726441,71 18.323408,62.475 9.6137002,55.365362 10.371534,55.200805 11.129368,55.036248 16.193296,56.008808 21.624707,57.362051 27.056118,58.715293 33.525,60.132034 36,60.510363 c 4.463971,0.682365 19.890062,4.058215 23.25,5.088037 1.053777,0.322983 1.74758,0.01226 1.743917,-0.781012 -0.0033,-0.724564 -3.837164,-11.640933 -8.519596,-24.2586 C 47.791889,27.941121 44.102116,17.193653 44.274825,16.675525 44.447534,16.157397 52.787231,23.977564 62.807484,34.053674 73.91472,45.222825 81.378972,52.008153 81.930078,51.436937 82.427252,50.921622 84.197969,43.975 85.865005,36 91.632248,8.4098654 93.349085,1 93.97437,1 c 0.345386,0 3.013916,11.1375 5.930066,24.75 2.916154,13.6125 5.642494,25.114373 6.058544,25.559718 0.41605,0.445345 9.14458,-7.366556 19.39674,-17.359779 C 135.61187,23.956716 144,16.2072 144,16.728794 c 0,0.521593 -3.825,11.127108 -8.5,23.567811 -4.675,12.440702 -8.5,23.361489 -8.5,24.268416 0,1.028988 0.54471,1.439933 1.44878,1.093007 0.79683,-0.305773 4.95933,-1.277949 9.25,-2.160393 4.29067,-0.882443 14.92419,-3.181086 23.63005,-5.108096 8.70585,-1.927011 16.19044,-3.365479 16.63243,-3.196597 C 178.40324,55.361824 169.38707,62.475 157.92531,71 c -11.46175,8.525 -20.70941,15.95 -20.55036,16.5 0.15906,0.55 11.15582,5.05 24.43724,10 18.25779,6.8047 23.57538,9.15321 21.80036,9.6281 -1.29122,0.34545 -10.61977,1.16652 -20.73011,1.8246 -23.04057,1.49971 -29.45521,2.28142 -29.10873,3.5473 0.15054,0.55 7.22626,10.3375 15.72383,21.75 8.49757,11.4125 15.26759,20.75 15.04448,20.75 -0.2231,0 -10.80818,-5.67815 -23.52239,-12.61811 -12.71421,-6.93996 -23.3649,-12.36995 -23.66819,-12.06666 -0.3033,0.30329 0.3473,12.39394 1.44577,26.86811 1.09846,14.47416 1.89339,26.42923 1.7665,26.56683 -0.12689,0.13759 -6.03894,-10.32491 -13.1379,-23.25 z"
            id="path1" />
    </g>
</svg>