<!-- Created with Vectornator (http://vectornator.io/) -->
<svg xmlns:inkscape="http://www.inkscape.org/namespaces/inkscape" xmlns:sodipodi="http://sodipodi.sourceforge.net/DTD/sodipodi-0.dtd" xmlns="http://www.w3.org/2000/svg" xmlns:svg="http://www.w3.org/2000/svg" xmlns:vectornator="http://vectornator.io" stroke-miterlimit="10" style="clip-rule:evenodd;fill-rule:nonzero;stroke-linecap:round;stroke-linejoin:round" version="1.1" viewBox="0 0 985.74213 994.34991" xml:space="preserve" id="svg8" sodipodi:docname="trefoil_bb.svg" inkscape:version="1.3 (0e150ed6c4, 2023-07-21)">
    <sodipodi:namedview id="namedview8" pagecolor="#ffffff" bordercolor="#666666" borderopacity="1.0" inkscape:showpageshadow="2" inkscape:pageopacity="0.0" inkscape:pagecheckerboard="0" inkscape:deskcolor="#d1d1d1" inkscape:zoom="0.507" inkscape:cx="474.35897" inkscape:cy="543.3925" inkscape:window-width="1920" inkscape:window-height="1120" inkscape:window-x="-11" inkscape:window-y="-11" inkscape:window-maximized="1" inkscape:current-layer="Layer-1"/>

    <defs id="defs1"/>

<g clip-path="url(#ArtboardFrame_73)" id="Layer-1" vectornator:layerName="Layer 1" transform="translate(-6.5100647,-4.669864)">
        

        <path d="M 747.69057,232.56396 C 747.22331,-20.141811 325.45339,-80.897872 269.97362,225.79424 m 16.11624,226.2863 C 314.45262,560.43855 371.92932,691.22675 468.895,846.757" fill="none" opacity="1" class="stroke-orange stroke-orange" stroke="#ffb86c" stroke-linecap="round" stroke-linejoin="round" stroke-width="28" id="path6" style="clip-rule:evenodd;fill-rule:nonzero;stroke-linecap:round;stroke-linejoin:round" sodipodi:nodetypes="cccc"/>
        <path d="M 714.579,382.06 C 393.5916,1643.3209 -248.85155,559.94227 143.75103,369.6035" fill="none" opacity="1" class="stroke-orange stroke-orange" stroke="#ffb86c" stroke-linecap="round" stroke-linejoin="round" stroke-width="28" id="path7" style="clip-rule:evenodd;fill-rule:nonzero;stroke-linecap:round;stroke-linejoin:round" sodipodi:nodetypes="cc"/>
        <path d="m 382.98427,323.49487 c 94.74796,-9.88092 176.19201,-9.41322 245.68975,-0.7729 M 843.5598,393.99876 C 1180.3742,613.06485 813.87203,1200.0873 525.333,902.819" fill="none" opacity="1" class="stroke-orange stroke-orange" stroke="#ffb86c" stroke-linecap="round" stroke-linejoin="round" stroke-width="28" id="path8" style="clip-rule:evenodd;fill-rule:nonzero;stroke-linecap:round;stroke-linejoin:round" sodipodi:nodetypes="cccc"/>
        <path d="M 387.653,322.947 C 311.176,330.165 259.019,354.123 284.1,444.149" fill="none" opacity="1" class="stroke-red stroke-red" stroke="#ff5555" stroke-linecap="round" stroke-linejoin="round" stroke-width="28" id="path1"/>

        <path d="m 270.732,221.336 c -15.677,50.857 -27.705,106.285 -126.22,147.839" fill="none" opacity="1" class="stroke-red stroke-red" stroke="#ff5555" stroke-linecap="round" stroke-linejoin="round" stroke-width="28" id="path2"/>

        <path d="M 843.768,394.053 C 818.574,376.612 801.283,372.289 784.773,358.013 751.014,328.825 746.126,281.035 747.851,232.036" fill="none" opacity="1" class="stroke-red stroke-red" stroke="#ff5555" stroke-linecap="round" stroke-linejoin="round" stroke-width="28" id="path3"/>

        <path d="m 712.37,390.79 c 16.484,-62.308 -55.233,-62.106 -84.982,-68.074" fill="none" opacity="1" class="stroke-red stroke-red" stroke="#ff5555" stroke-linecap="round" stroke-linejoin="round" stroke-width="28" id="path4"/>
<clipPath id="ClipPath">

            <path d="m 678.954,246.428 -87.743,149.163 167.824,-10.219 191.043,-45.937 290.432,296.57 -539.621,525.575 -111.04,-157.27 c 0,0 -29.863,-54.272 -44.423,-48.153 -14.56,6.12 -37.319,239.943 -37.319,239.943 l 33.953,-6.99 -94.208,-46.28 -115.625,29.48 29.88,63.68 140.289,-299.289 28.555,77.249 -627.6412,113.41 -22.8128,-894.97 464.757,228.533 85.031,-78.849 -234.776,-226.873 337.356,-332.025 520.105,379.708 z" id="path5"/>

        </clipPath>


    </g>

</svg>
