<!-- Created with Vectornator (http://vectornator.io/) -->
<svg xmlns:inkscape="http://www.inkscape.org/namespaces/inkscape" xmlns:sodipodi="http://sodipodi.sourceforge.net/DTD/sodipodi-0.dtd" xmlns="http://www.w3.org/2000/svg" xmlns:svg="http://www.w3.org/2000/svg" xmlns:vectornator="http://vectornator.io" stroke-miterlimit="10" style="clip-rule:evenodd;fill-rule:nonzero;stroke-linecap:round;stroke-linejoin:round" version="1.1" viewBox="0 0 985.73425 994.35559" xml:space="preserve" id="svg8" sodipodi:docname="trefoil_ba.svg" inkscape:version="1.3 (0e150ed6c4, 2023-07-21)">
    <sodipodi:namedview id="namedview8" pagecolor="#ffffff" bordercolor="#666666" borderopacity="1.0" inkscape:showpageshadow="2" inkscape:pageopacity="0.0" inkscape:pagecheckerboard="0" inkscape:deskcolor="#d1d1d1" inkscape:zoom="1.4340126" inkscape:cx="627.95824" inkscape:cy="237.44562" inkscape:window-width="1920" inkscape:window-height="1120" inkscape:window-x="-11" inkscape:window-y="-11" inkscape:window-maximized="1" inkscape:current-layer="Layer-1"/>

    <defs id="defs1"/>

<g clip-path="url(#ArtboardFrame_70)" id="Layer-1" vectornator:layerName="Layer 1" transform="translate(-6.5150449,-4.6721337)">
        

        <path d="M 747.52504,224.34031 C 738.19947,-17.293818 338.63014,-75.601962 273.04251,210.79426 m 12.01192,237.29008 C 313.04186,557.21848 370.73426,689.3099 468.895,846.757" fill="none" opacity="1" class="stroke-orange stroke-orange" stroke="#ffb86c" stroke-linecap="round" stroke-linejoin="round" stroke-width="28" id="path6" style="clip-rule:evenodd;fill-rule:nonzero;stroke-linecap:round;stroke-linejoin:round" sodipodi:nodetypes="cccc"/>
        <path d="M 714.579,382.06 C 396.0147,1633.7998 -239.17037,576.16533 135.03623,374.06533" fill="none" opacity="1" class="stroke-orange stroke-orange" stroke="#ffb86c" stroke-linecap="round" stroke-linejoin="round" stroke-width="28" id="path7" style="clip-rule:evenodd;fill-rule:nonzero;stroke-linecap:round;stroke-linejoin:round" sodipodi:nodetypes="cc"/>
        <path d="m 393.6745,322.41835 c 84.52924,-8.20684 158.28321,-8.06641 222.25722,-1.17405 m 235.44336,77.98981 C 1174.6152,622.24196 811.60317,1197.7498 525.333,902.819" fill="none" opacity="1" class="stroke-orange stroke-orange" stroke="#ffb86c" stroke-linecap="round" stroke-linejoin="round" stroke-width="28" id="path8" style="clip-rule:evenodd;fill-rule:nonzero;stroke-linecap:round;stroke-linejoin:round" sodipodi:nodetypes="cccc"/>
        <path d="m 136.276,373.688 c 85.178,-42.605 126.629,-25.182 147.4,69.188" fill="none" opacity="1" class="stroke-red stroke-red" stroke="#ff5555" stroke-linecap="round" stroke-linejoin="round" stroke-width="28" id="path1"/>

        <path d="m 270.732,219.921 c -12.505,52.537 12.113,123.158 117.683,102.912" fill="none" opacity="1" class="stroke-red stroke-red" stroke="#ff5555" stroke-linecap="round" stroke-linejoin="round" stroke-width="28" id="path2"/>

        <path d="M 843.768,394.053 C 818.574,376.612 801.283,372.289 784.773,358.013 751.014,328.825 746.126,281.035 747.851,232.036" fill="none" opacity="1" class="stroke-red stroke-red" stroke="#ff5555" stroke-linecap="round" stroke-linejoin="round" stroke-width="28" id="path3"/>

        <path d="m 712.37,390.79 c 16.484,-62.308 -55.233,-62.106 -84.982,-68.074" fill="none" opacity="1" class="stroke-red stroke-red" stroke="#ff5555" stroke-linecap="round" stroke-linejoin="round" stroke-width="28" id="path4"/>
<clipPath id="ClipPath">

            <path d="M 678.954,246.428 591.211,395.591 759.035,385.372 950.078,339.435 1240.51,636.005 700.889,1161.58 -96.6902,1127.36 -119.503,232.39 345.254,460.923 430.285,382.074 195.509,155.201 532.865,-176.824 1052.97,202.884 Z" id="path5"/>

        </clipPath>


    </g>

</svg>
