<!-- Created with Vectornator (http://vectornator.io/) -->
<svg xmlns:inkscape="http://www.inkscape.org/namespaces/inkscape" xmlns:sodipodi="http://sodipodi.sourceforge.net/DTD/sodipodi-0.dtd" xmlns="http://www.w3.org/2000/svg" xmlns:svg="http://www.w3.org/2000/svg" xmlns:vectornator="http://vectornator.io" stroke-miterlimit="10" style="clip-rule:evenodd;fill-rule:nonzero;stroke-linecap:round;stroke-linejoin:round" version="1.1" viewBox="0 0 985.70715 994.02521" xml:space="preserve" id="svg10" sodipodi:docname="trefoil_baa.svg"><sodipodi:namedview id="namedview10" pagecolor="#ffffff" bordercolor="#000000" borderopacity="0.25" inkscape:showpageshadow="2" inkscape:pageopacity="0.0" inkscape:pagecheckerboard="0" inkscape:deskcolor="#d1d1d1"/>
    <defs id="defs1"/>

    <g clip-path="url(#ArtboardFrame_71)" id="Layer-1" vectornator:layerName="Layer 1" transform="translate(-6.4590408,-4.5401177)">
        <path d="m 553.788,800.313 c -38.98,60.495 -23.619,115.237 9.727,136.488" fill="none" opacity="1" class="stroke-red stroke-red" stroke="#ff5555" stroke-linecap="round" stroke-linejoin="round" stroke-width="28" id="path1"/>
        <path d="m 440.395,800.338 c 20.572,30.306 55.621,90.864 22.746,115.24" fill="none" opacity="1" class="stroke-red stroke-red" stroke="#ff5555" stroke-linecap="round" stroke-linejoin="round" stroke-width="28" id="path2"/>
        <path d="m 136.276,373.688 c 85.178,-42.605 126.629,-25.182 147.4,69.188" fill="none" opacity="1" class="stroke-red stroke-red" stroke="#ff5555" stroke-linecap="round" stroke-linejoin="round" stroke-width="28" id="path3"/>
        <path d="m 270.732,219.921 c -12.505,52.537 12.113,123.158 117.683,102.912" fill="none" opacity="1" class="stroke-red stroke-red" stroke="#ff5555" stroke-linecap="round" stroke-linejoin="round" stroke-width="28" id="path4"/>
        <path d="M 843.768,394.053 C 818.574,376.612 801.283,372.289 784.773,358.013 751.014,328.825 746.126,281.035 747.851,232.036" fill="none" opacity="1" class="stroke-red stroke-red" stroke="#ff5555" stroke-linecap="round" stroke-linejoin="round" stroke-width="28" id="path5"/>
        <path d="m 712.37,390.79 c 16.484,-62.308 -55.233,-62.106 -84.982,-68.074" fill="none" opacity="1" class="stroke-red stroke-red" stroke="#ff5555" stroke-linecap="round" stroke-linejoin="round" stroke-width="28" id="path6"/>
        <clipPath id="ClipPath">
            <path d="m 678.954,246.428 -87.743,149.163 167.824,-10.219 191.043,-45.937 290.432,296.57 -539.621,525.575 -111.04,-157.27 c 0,0 -29.863,-54.272 -44.423,-48.153 -14.56,6.12 28.226,-52.035 28.226,-52.035 l 31.967,-53.665 -114.07,-78.06 -76.894,52.325 18.956,54.745 68.785,57.234 28.555,77.249 -627.6412,113.41 -22.8128,-894.97 464.757,228.533 85.031,-78.849 -234.776,-226.873 337.356,-332.025 520.105,379.708 z" id="path7"/>
        </clipPath>
        <g clip-path="url(#ClipPath)" id="g10">
            <path d="M 738.563,299.681 C 852.762,-130.445 -154.031,-152.399 468.895,846.757" fill="none" opacity="1" class="stroke-orange stroke-orange" stroke="#ffb86c" stroke-linecap="round" stroke-linejoin="round" stroke-width="28" id="path8"/>
            <path d="M 714.579,382.06 C 374.474,1718.44 -326.518,422.576 225.201,345.782" fill="none" opacity="1" class="stroke-orange stroke-orange" stroke="#ffb86c" stroke-linecap="round" stroke-linejoin="round" stroke-width="28" id="path9"/>
            <path d="M 315.101,332.037 C 1411.76,171.475 902.086,1290.97 525.333,902.819" fill="none" opacity="1" class="stroke-orange stroke-orange" stroke="#ffb86c" stroke-linecap="round" stroke-linejoin="round" stroke-width="28" id="path10"/>
        </g>
    </g>
</svg>
