<?xml version="1.0" encoding="UTF-8" standalone="no"?>
<!-- Created with Vectornator (http://vectornator.io/) -->

<svg
   height="53.769653"
   stroke-miterlimit="10"
   style="clip-rule:evenodd;fill-rule:nonzero;stroke-linecap:round;stroke-linejoin:round"
   version="1.1"
   viewBox="0 0 136.23303 53.769657"
   width="136.23303"
   xml:space="preserve"
   id="svg11"
   sodipodi:docname="left.svg"
   inkscape:version="1.3 (0e150ed6c4, 2023-07-21)"
   xmlns:inkscape="http://www.inkscape.org/namespaces/inkscape"
   xmlns:sodipodi="http://sodipodi.sourceforge.net/DTD/sodipodi-0.dtd"
   xmlns="http://www.w3.org/2000/svg"
   xmlns:svg="http://www.w3.org/2000/svg"><sodipodi:namedview
   id="namedview13"
   pagecolor="#ffffff"
   bordercolor="#666666"
   borderopacity="1.0"
   inkscape:showpageshadow="2"
   inkscape:pageopacity="0.0"
   inkscape:pagecheckerboard="0"
   inkscape:deskcolor="#d1d1d1"
   showgrid="false"
   inkscape:zoom="0.6675088"
   inkscape:cx="-66.665788"
   inkscape:cy="141.57117"
   inkscape:window-width="1920"
   inkscape:window-height="1120"
   inkscape:window-x="-11"
   inkscape:window-y="-11"
   inkscape:window-maximized="1"
   inkscape:current-layer="svg11" />&#10;<defs
   id="defs2"><inkscape:path-effect
     effect="knot"
     id="path-effect399"
     is_visible="true"
     lpeversion="1"
     switcher_size="15"
     interruption_width="5.6"
     prop_to_stroke_width="true"
     add_stroke_width="inkscape_1.0_and_up"
     both="false"
     inverse_width="false"
     add_other_stroke_width="inkscape_1.0_and_up"
     crossing_points_vector="263.60926 | 339.90967 | 0 | 0 | 0 | 3 | 0.79165275 | 3.5727668 | 1 | 500.5577 | 876.00114 | 0 | 0 | 1 | 4 | 1.5348238 | 4.8162544 | 1 | 726.20509 | 342.12732 | 0 | 0 | 2 | 5 | 2.8394945 | 5.4847435 | 1" /></defs>&#10;&#10;<g
   id="g8"
   style="clip-rule:evenodd;fill-rule:nonzero;stroke-linecap:round;stroke-linejoin:round"
   transform="matrix(0.29230101,0,0,0.29230101,-139.27426,-85.608009)"><path
     id="path6-3"
     style="clip-rule:evenodd;fill:#725670;fill-opacity:1;fill-rule:nonzero;stroke-width:17.7639;stroke-linecap:round;stroke-linejoin:round;stroke-dashoffset:130.744;paint-order:stroke markers fill"
     d="m 689.97877,292.87631 a 35.941489,58.843286 51.991033 0 0 -3.33975,0.11766 35.941489,58.843286 51.991033 0 0 -3.43853,0.3503 35.941489,58.843286 51.991033 0 0 -3.52115,0.58294 35.941489,58.843286 51.991033 0 0 -3.58491,0.81198 35.941489,58.843286 51.991033 0 0 -3.63162,1.03743 35.941489,58.843286 51.991033 0 0 -3.65767,1.25569 35.941489,58.843286 51.991033 0 0 -3.66802,1.46947 35.941489,58.843286 51.991033 0 0 -3.65728,1.67515 35.941489,58.843286 51.991033 0 0 -3.6286,1.87187 35.941489,58.843286 51.991033 0 0 -3.58195,2.05959 35.941489,58.843286 51.991033 0 0 -3.51693,2.23744 35.941489,58.843286 51.991033 0 0 -3.43307,2.4027 35.941489,58.843286 51.991033 0 0 -3.3335,2.5563 35.941489,58.843286 51.991033 0 0 -3.21466,2.69641 35.941489,58.843286 51.991033 0 0 -3.08102,2.82307 35.941489,58.843286 51.991033 0 0 -2.93125,2.93534 35.941489,58.843286 51.991033 0 0 -2.76712,3.03324 35.941489,58.843286 51.991033 0 0 -2.58777,3.11499 35.941489,58.843286 51.991033 0 0 -2.39632,3.18144 35.941489,58.843286 51.991033 0 0 -2.19143,3.22996 35.941489,58.843286 51.991033 0 0 -1.97669,3.26408 35.941489,58.843286 51.991033 0 0 -1.75075,3.28115 l -45.85994,92.08958 a 35.941489,58.843286 51.991033 0 1 -3.67109,6.43205 35.941489,58.843286 51.991033 0 1 -4.58774,6.41141 35.941489,58.843286 51.991033 0 1 -5.3549,6.14822 35.941489,58.843286 51.991033 0 1 -6.01226,5.75841 35.941489,58.843286 51.991033 0 1 -6.54817,5.25271 35.941489,58.843286 51.991033 0 1 -6.94999,4.64014 35.941489,58.843286 51.991033 0 1 -7.21055,3.93145 35.941489,58.843286 51.991033 0 1 -7.32531,3.14463 35.941489,58.843286 51.991033 0 1 -7.28928,2.29312 35.941489,58.843286 51.991033 0 1 -7.10606,1.39491 35.941489,58.843286 51.991033 0 1 -6.77828,0.46797 h 45.9882 a 35.941489,58.843286 51.991033 0 0 3.33929,-0.11676 35.941489,58.843286 51.991033 0 0 3.43899,-0.35121 35.941489,58.843286 51.991033 0 0 3.52115,-0.58293 35.941489,58.843286 51.991033 0 0 3.58491,-0.81198 35.941489,58.843286 51.991033 0 0 3.63027,-1.03653 35.941489,58.843286 51.991033 0 0 3.65901,-1.25659 35.941489,58.843286 51.991033 0 0 3.66713,-1.46947 35.941489,58.843286 51.991033 0 0 3.65818,-1.67516 35.941489,58.843286 51.991033 0 0 3.62859,-1.87186 35.941489,58.843286 51.991033 0 0 3.58196,-2.05959 35.941489,58.843286 51.991033 0 0 3.51693,-2.23743 35.941489,58.843286 51.991033 0 0 3.43306,-2.40271 35.941489,58.843286 51.991033 0 0 3.33261,-2.55629 35.941489,58.843286 51.991033 0 0 3.21556,-2.69642 35.941489,58.843286 51.991033 0 0 3.08102,-2.82307 35.941489,58.843286 51.991033 0 0 2.93124,-2.93534 35.941489,58.843286 51.991033 0 0 2.76713,-3.03324 35.941489,58.843286 51.991033 0 0 2.58777,-3.11498 35.941489,58.843286 51.991033 0 0 2.39587,-3.18055 35.941489,58.843286 51.991033 0 0 2.19188,-3.23086 35.941489,58.843286 51.991033 0 0 0.0721,-0.11227 35.941489,58.843286 51.991033 0 0 0.0707,-0.11138 35.941489,58.843286 51.991033 0 0 0.0712,-0.11227 35.941489,58.843286 51.991033 0 0 0.0712,-0.11228 35.941489,58.843286 51.991033 0 0 0.0712,-0.11227 35.941489,58.843286 51.991033 0 0 0.0703,-0.11228 35.941489,58.843286 51.991033 0 0 0.0703,-0.11228 35.941489,58.843286 51.991033 0 0 0.0694,-0.11227 35.941489,58.843286 51.991033 0 0 0.0707,-0.11318 35.941489,58.843286 51.991033 0 0 0.0694,-0.11227 35.941489,58.843286 51.991033 0 0 0.0685,-0.11228 35.941489,58.843286 51.991033 0 0 0.0694,-0.11227 35.941489,58.843286 51.991033 0 0 0.0685,-0.11228 35.941489,58.843286 51.991033 0 0 0.0689,-0.11318 35.941489,58.843286 51.991033 0 0 0.0676,-0.11227 35.941489,58.843286 51.991033 0 0 0.0676,-0.11228 35.941489,58.843286 51.991033 0 0 0.068,-0.11317 35.941489,58.843286 51.991033 0 0 0.0676,-0.11228 35.941489,58.843286 51.991033 0 0 0.0671,-0.11317 35.941489,58.843286 51.991033 0 0 0.0667,-0.11228 35.941489,58.843286 51.991033 0 0 0.0671,-0.11317 35.941489,58.843286 51.991033 0 0 0.0658,-0.11228 35.941489,58.843286 51.991033 0 0 0.0663,-0.11317 35.941489,58.843286 51.991033 0 0 0.0662,-0.11317 35.941489,58.843286 51.991033 0 0 0.0649,-0.11228 35.941489,58.843286 51.991033 0 0 0.0653,-0.11317 35.941489,58.843286 51.991033 0 0 0.0653,-0.11318 35.941489,58.843286 51.991033 0 0 0.064,-0.11228 35.941489,58.843286 51.991033 0 0 0.0645,-0.11317 35.941489,58.843286 51.991033 0 0 0.0645,-0.11317 35.941489,58.843286 51.991033 0 0 0.064,-0.11228 35.941489,58.843286 51.991033 0 0 0.0635,-0.11317 35.941489,58.843286 51.991033 0 0 0.0635,-0.11317 35.941489,58.843286 51.991033 0 0 0.0627,-0.11318 35.941489,58.843286 51.991033 0 0 0.0635,-0.11317 35.941489,58.843286 51.991033 0 0 0.0627,-0.11318 35.941489,58.843286 51.991033 0 0 0.0617,-0.11317 35.941489,58.843286 51.991033 0 0 0.0622,-0.11228 35.941489,58.843286 51.991033 0 0 0.0617,-0.11317 35.941489,58.843286 51.991033 0 0 0.0617,-0.11318 35.941489,58.843286 51.991033 0 0 0.061,-0.11317 35.941489,58.843286 51.991033 0 0 0.061,-0.11317 35.941489,58.843286 51.991033 0 0 0.061,-0.11318 35.941489,58.843286 51.991033 0 0 0.06,-0.11317 35.941489,58.843286 51.991033 0 0 0.0609,-0.11317 35.941489,58.843286 51.991033 0 0 0.0591,-0.11318 35.941489,58.843286 51.991033 0 0 0.06,-0.11317 35.941489,58.843286 51.991033 0 0 0.0591,-0.11318 35.941489,58.843286 51.991033 0 0 0.0591,-0.11317 35.941489,58.843286 51.991033 0 0 0.0591,-0.11318 35.941489,58.843286 51.991033 0 0 0.0582,-0.11317 35.941489,58.843286 51.991033 0 0 0.0582,-0.11318 35.941489,58.843286 51.991033 0 0 0.0582,-0.11317 35.941489,58.843286 51.991033 0 0 0.0577,-0.11407 35.941489,58.843286 51.991033 0 0 0.0573,-0.11318 35.941489,58.843286 51.991033 0 0 0.0573,-0.11317 35.941489,58.843286 51.991033 0 0 0.0573,-0.11317 l 45.85994,-92.08958 a 35.941489,58.843286 51.991033 0 1 3.72745,-6.54523 35.941489,58.843286 51.991033 0 1 4.58774,-6.4114 35.941489,58.843286 51.991033 0 1 5.3549,-6.14823 35.941489,58.843286 51.991033 0 1 6.01227,-5.75841 35.941489,58.843286 51.991033 0 1 6.54816,-5.25271 35.941489,58.843286 51.991033 0 1 6.95,-4.64014 35.941489,58.843286 51.991033 0 1 7.21055,-3.93146 35.941489,58.843286 51.991033 0 1 7.3253,-3.14462 35.941489,58.843286 51.991033 0 1 7.28928,-2.29312 35.941489,58.843286 51.991033 0 1 7.10607,-1.39492 35.941489,58.843286 51.991033 0 1 6.77827,-0.46796 z" /><path
     id="path6-5-7"
     style="clip-rule:evenodd;fill:#698362;fill-opacity:1;fill-rule:nonzero;stroke-width:17.7639;stroke-linecap:round;stroke-linejoin:round;stroke-dashoffset:130.744;paint-order:stroke markers fill"
     d="m 729.04291,476.82922 a 35.941532,58.843355 51.991033 0 0 3.33975,-0.11767 35.941532,58.843355 51.991033 0 0 3.43853,-0.35029 35.941532,58.843355 51.991033 0 0 3.52115,-0.58294 35.941532,58.843355 51.991033 0 0 3.58492,-0.81198 35.941532,58.843355 51.991033 0 0 3.63162,-1.03743 35.941532,58.843355 51.991033 0 0 3.65768,-1.25569 35.941532,58.843355 51.991033 0 0 3.66802,-1.46947 35.941532,58.843355 51.991033 0 0 3.65728,-1.67516 35.941532,58.843355 51.991033 0 0 3.62861,-1.87187 35.941532,58.843355 51.991033 0 0 3.58195,-2.05959 35.941532,58.843355 51.991033 0 0 3.51694,-2.23744 35.941532,58.843355 51.991033 0 0 3.43307,-2.4027 35.941532,58.843355 51.991033 0 0 3.3335,-2.5563 35.941532,58.843355 51.991033 0 0 3.21467,-2.69642 35.941532,58.843355 51.991033 0 0 3.08102,-2.82307 35.941532,58.843355 51.991033 0 0 2.93125,-2.93535 35.941532,58.843355 51.991033 0 0 2.76713,-3.03324 35.941532,58.843355 51.991033 0 0 2.58777,-3.11499 35.941532,58.843355 51.991033 0 0 2.39632,-3.18145 35.941532,58.843355 51.991033 0 0 2.19144,-3.22996 35.941532,58.843355 51.991033 0 0 1.97669,-3.26409 35.941532,58.843355 51.991033 0 0 1.75076,-3.28115 l 45.85998,-92.08968 a 35.941532,58.843355 51.991033 0 1 3.6711,-6.43207 35.941532,58.843355 51.991033 0 1 4.58775,-6.41141 35.941532,58.843355 51.991033 0 1 5.3549,-6.14823 35.941532,58.843355 51.991033 0 1 6.01227,-5.75842 35.941532,58.843355 51.991033 0 1 6.54817,-5.25272 35.941532,58.843355 51.991033 0 1 6.95,-4.64014 35.941532,58.843355 51.991033 0 1 7.21056,-3.93146 35.941532,58.843355 51.991033 0 1 7.32531,-3.14462 35.941532,58.843355 51.991033 0 1 7.2893,-2.29313 35.941532,58.843355 51.991033 0 1 7.10607,-1.39491 35.941532,58.843355 51.991033 0 1 6.77828,-0.46797 h -45.98825 a 35.941532,58.843355 51.991033 0 0 -3.3393,0.11676 35.941532,58.843355 51.991033 0 0 -3.43899,0.35121 35.941532,58.843355 51.991033 0 0 -3.52115,0.58293 35.941532,58.843355 51.991033 0 0 -3.58491,0.81198 35.941532,58.843355 51.991033 0 0 -3.63028,1.03653 35.941532,58.843355 51.991033 0 0 -3.65902,1.2566 35.941532,58.843355 51.991033 0 0 -3.66713,1.46946 35.941532,58.843355 51.991033 0 0 -3.65818,1.67516 35.941532,58.843355 51.991033 0 0 -3.62859,1.87187 35.941532,58.843355 51.991033 0 0 -3.58197,2.05959 35.941532,58.843355 51.991033 0 0 -3.51693,2.23744 35.941532,58.843355 51.991033 0 0 -3.43307,2.4027 35.941532,58.843355 51.991033 0 0 -3.33261,2.5563 35.941532,58.843355 51.991033 0 0 -3.21556,2.69642 35.941532,58.843355 51.991033 0 0 -3.08103,2.82307 35.941532,58.843355 51.991033 0 0 -2.93124,2.93535 35.941532,58.843355 51.991033 0 0 -2.76713,3.03324 35.941532,58.843355 51.991033 0 0 -2.58778,3.11499 35.941532,58.843355 51.991033 0 0 -2.39587,3.18055 35.941532,58.843355 51.991033 0 0 -2.19188,3.23086 35.941532,58.843355 51.991033 0 0 -0.0721,0.11228 35.941532,58.843355 51.991033 0 0 -0.0707,0.11137 35.941532,58.843355 51.991033 0 0 -0.0712,0.11228 35.941532,58.843355 51.991033 0 0 -0.0712,0.11227 35.941532,58.843355 51.991033 0 0 -0.0712,0.11228 35.941532,58.843355 51.991033 0 0 -0.0703,0.11228 35.941532,58.843355 51.991033 0 0 -0.0703,0.11227 35.941532,58.843355 51.991033 0 0 -0.0694,0.11228 35.941532,58.843355 51.991033 0 0 -0.0707,0.11317 35.941532,58.843355 51.991033 0 0 -0.0694,0.11228 35.941532,58.843355 51.991033 0 0 -0.0685,0.11227 35.941532,58.843355 51.991033 0 0 -0.0694,0.11228 35.941532,58.843355 51.991033 0 0 -0.0685,0.11228 35.941532,58.843355 51.991033 0 0 -0.0689,0.11317 35.941532,58.843355 51.991033 0 0 -0.0676,0.11228 35.941532,58.843355 51.991033 0 0 -0.0676,0.11227 35.941532,58.843355 51.991033 0 0 -0.068,0.11318 35.941532,58.843355 51.991033 0 0 -0.0676,0.11227 35.941532,58.843355 51.991033 0 0 -0.0671,0.11318 35.941532,58.843355 51.991033 0 0 -0.0667,0.11227 35.941532,58.843355 51.991033 0 0 -0.0671,0.11318 35.941532,58.843355 51.991033 0 0 -0.0658,0.11227 35.941532,58.843355 51.991033 0 0 -0.0662,0.11318 35.941532,58.843355 51.991033 0 0 -0.0662,0.11317 35.941532,58.843355 51.991033 0 0 -0.0649,0.11228 35.941532,58.843355 51.991033 0 0 -0.0653,0.11317 35.941532,58.843355 51.991033 0 0 -0.0653,0.11318 35.941532,58.843355 51.991033 0 0 -0.064,0.11227 35.941532,58.843355 51.991033 0 0 -0.0644,0.11318 35.941532,58.843355 51.991033 0 0 -0.0644,0.11317 35.941532,58.843355 51.991033 0 0 -0.064,0.11228 35.941532,58.843355 51.991033 0 0 -0.0635,0.11317 35.941532,58.843355 51.991033 0 0 -0.0635,0.11317 35.941532,58.843355 51.991033 0 0 -0.0627,0.11318 35.941532,58.843355 51.991033 0 0 -0.0635,0.11317 35.941532,58.843355 51.991033 0 0 -0.0627,0.11318 35.941532,58.843355 51.991033 0 0 -0.0617,0.11317 35.941532,58.843355 51.991033 0 0 -0.0622,0.11228 35.941532,58.843355 51.991033 0 0 -0.0617,0.11317 35.941532,58.843355 51.991033 0 0 -0.0617,0.11318 35.941532,58.843355 51.991033 0 0 -0.061,0.11317 35.941532,58.843355 51.991033 0 0 -0.061,0.11317 35.941532,58.843355 51.991033 0 0 -0.0609,0.11318 35.941532,58.843355 51.991033 0 0 -0.06,0.11317 35.941532,58.843355 51.991033 0 0 -0.061,0.11318 35.941532,58.843355 51.991033 0 0 -0.0591,0.11317 35.941532,58.843355 51.991033 0 0 -0.06,0.11317 35.941532,58.843355 51.991033 0 0 -0.0591,0.11318 35.941532,58.843355 51.991033 0 0 -0.0591,0.11317 35.941532,58.843355 51.991033 0 0 -0.0591,0.11318 35.941532,58.843355 51.991033 0 0 -0.0582,0.11317 35.941532,58.843355 51.991033 0 0 -0.0582,0.11318 35.941532,58.843355 51.991033 0 0 -0.0582,0.11317 35.941532,58.843355 51.991033 0 0 -0.0577,0.11407 35.941532,58.843355 51.991033 0 0 -0.0573,0.11318 35.941532,58.843355 51.991033 0 0 -0.0573,0.11317 35.941532,58.843355 51.991033 0 0 -0.0573,0.11318 l -45.85999,92.08968 a 35.941532,58.843355 51.991033 0 1 -3.72745,6.54524 35.941532,58.843355 51.991033 0 1 -4.58775,6.41141 35.941532,58.843355 51.991033 0 1 -5.3549,6.14823 35.941532,58.843355 51.991033 0 1 -6.01228,5.75842 35.941532,58.843355 51.991033 0 1 -6.54817,5.25272 35.941532,58.843355 51.991033 0 1 -6.95001,4.64014 35.941532,58.843355 51.991033 0 1 -7.21056,3.93146 35.941532,58.843355 51.991033 0 1 -7.3253,3.14463 35.941532,58.843355 51.991033 0 1 -7.2893,2.29312 35.941532,58.843355 51.991033 0 1 -7.10607,1.39492 35.941532,58.843355 51.991033 0 1 -6.77828,0.46796 z" /><path
     id="path6-3-5"
     style="clip-rule:evenodd;fill:#725670;fill-opacity:1;fill-rule:nonzero;stroke-width:17.7639;stroke-linecap:round;stroke-linejoin:round;stroke-dashoffset:130.744;paint-order:stroke markers fill"
     d="m 896.55735,476.82911 a 58.843286,35.941489 38.008967 0 1 -3.33975,-0.11766 58.843286,35.941489 38.008967 0 1 -3.43853,-0.3503 58.843286,35.941489 38.008967 0 1 -3.52115,-0.58294 58.843286,35.941489 38.008967 0 1 -3.58491,-0.81198 58.843286,35.941489 38.008967 0 1 -3.63162,-1.03743 58.843286,35.941489 38.008967 0 1 -3.65767,-1.25569 58.843286,35.941489 38.008967 0 1 -3.66802,-1.46947 58.843286,35.941489 38.008967 0 1 -3.65728,-1.67515 58.843286,35.941489 38.008967 0 1 -3.6286,-1.87187 58.843286,35.941489 38.008967 0 1 -3.58195,-2.05959 58.843286,35.941489 38.008967 0 1 -3.51693,-2.23744 58.843286,35.941489 38.008967 0 1 -3.43307,-2.4027 58.843286,35.941489 38.008967 0 1 -3.3335,-2.5563 58.843286,35.941489 38.008967 0 1 -3.21466,-2.69641 58.843286,35.941489 38.008967 0 1 -3.08102,-2.82307 58.843286,35.941489 38.008967 0 1 -2.93125,-2.93534 58.843286,35.941489 38.008967 0 1 -2.76712,-3.03324 58.843286,35.941489 38.008967 0 1 -2.58777,-3.11499 58.843286,35.941489 38.008967 0 1 -2.39632,-3.18144 58.843286,35.941489 38.008967 0 1 -2.19143,-3.22996 58.843286,35.941489 38.008967 0 1 -1.97669,-3.26408 58.843286,35.941489 38.008967 0 1 -1.75075,-3.28115 l -45.85994,-92.08958 a 58.843286,35.941489 38.008967 0 0 -3.67109,-6.43205 58.843286,35.941489 38.008967 0 0 -4.58774,-6.41141 58.843286,35.941489 38.008967 0 0 -5.3549,-6.14822 58.843286,35.941489 38.008967 0 0 -6.01226,-5.75841 58.843286,35.941489 38.008967 0 0 -6.54817,-5.25271 58.843286,35.941489 38.008967 0 0 -6.94999,-4.64014 58.843286,35.941489 38.008967 0 0 -7.21055,-3.93145 58.843286,35.941489 38.008967 0 0 -7.32531,-3.14463 58.843286,35.941489 38.008967 0 0 -7.28928,-2.29312 58.843286,35.941489 38.008967 0 0 -7.10606,-1.39491 58.843286,35.941489 38.008967 0 0 -6.77828,-0.46797 h 45.9882 a 58.843286,35.941489 38.008967 0 1 3.33929,0.11676 58.843286,35.941489 38.008967 0 1 3.43899,0.35121 58.843286,35.941489 38.008967 0 1 3.52115,0.58293 58.843286,35.941489 38.008967 0 1 3.58491,0.81198 58.843286,35.941489 38.008967 0 1 3.63027,1.03653 58.843286,35.941489 38.008967 0 1 3.65901,1.25659 58.843286,35.941489 38.008967 0 1 3.66713,1.46947 58.843286,35.941489 38.008967 0 1 3.65818,1.67516 58.843286,35.941489 38.008967 0 1 3.62859,1.87186 58.843286,35.941489 38.008967 0 1 3.58196,2.05959 58.843286,35.941489 38.008967 0 1 3.51693,2.23743 58.843286,35.941489 38.008967 0 1 3.43306,2.40271 58.843286,35.941489 38.008967 0 1 3.33261,2.55629 58.843286,35.941489 38.008967 0 1 3.21556,2.69642 58.843286,35.941489 38.008967 0 1 3.08102,2.82307 58.843286,35.941489 38.008967 0 1 2.93124,2.93534 58.843286,35.941489 38.008967 0 1 2.76713,3.03324 58.843286,35.941489 38.008967 0 1 2.58777,3.11498 58.843286,35.941489 38.008967 0 1 2.39587,3.18055 58.843286,35.941489 38.008967 0 1 2.19188,3.23086 58.843286,35.941489 38.008967 0 1 0.0721,0.11227 58.843286,35.941489 38.008967 0 1 0.0707,0.11138 58.843286,35.941489 38.008967 0 1 0.0712,0.11227 58.843286,35.941489 38.008967 0 1 0.0712,0.11228 58.843286,35.941489 38.008967 0 1 0.0712,0.11227 58.843286,35.941489 38.008967 0 1 0.0703,0.11228 58.843286,35.941489 38.008967 0 1 0.0703,0.11228 58.843286,35.941489 38.008967 0 1 0.0694,0.11227 58.843286,35.941489 38.008967 0 1 0.0707,0.11318 58.843286,35.941489 38.008967 0 1 0.0694,0.11227 58.843286,35.941489 38.008967 0 1 0.0685,0.11228 58.843286,35.941489 38.008967 0 1 0.0694,0.11227 58.843286,35.941489 38.008967 0 1 0.0685,0.11228 58.843286,35.941489 38.008967 0 1 0.0689,0.11318 58.843286,35.941489 38.008967 0 1 0.0676,0.11227 58.843286,35.941489 38.008967 0 1 0.0676,0.11228 58.843286,35.941489 38.008967 0 1 0.068,0.11317 58.843286,35.941489 38.008967 0 1 0.0676,0.11228 58.843286,35.941489 38.008967 0 1 0.0671,0.11317 58.843286,35.941489 38.008967 0 1 0.0667,0.11228 58.843286,35.941489 38.008967 0 1 0.0671,0.11317 58.843286,35.941489 38.008967 0 1 0.0658,0.11228 58.843286,35.941489 38.008967 0 1 0.0663,0.11317 58.843286,35.941489 38.008967 0 1 0.0662,0.11317 58.843286,35.941489 38.008967 0 1 0.0649,0.11228 58.843286,35.941489 38.008967 0 1 0.0653,0.11317 58.843286,35.941489 38.008967 0 1 0.0653,0.11318 58.843286,35.941489 38.008967 0 1 0.064,0.11228 58.843286,35.941489 38.008967 0 1 0.0645,0.11317 58.843286,35.941489 38.008967 0 1 0.0645,0.11317 58.843286,35.941489 38.008967 0 1 0.064,0.11228 58.843286,35.941489 38.008967 0 1 0.0635,0.11317 58.843286,35.941489 38.008967 0 1 0.0635,0.11317 58.843286,35.941489 38.008967 0 1 0.0627,0.11318 58.843286,35.941489 38.008967 0 1 0.0635,0.11317 58.843286,35.941489 38.008967 0 1 0.0627,0.11318 58.843286,35.941489 38.008967 0 1 0.0617,0.11317 58.843286,35.941489 38.008967 0 1 0.0622,0.11228 58.843286,35.941489 38.008967 0 1 0.0617,0.11317 58.843286,35.941489 38.008967 0 1 0.0617,0.11318 58.843286,35.941489 38.008967 0 1 0.061,0.11317 58.843286,35.941489 38.008967 0 1 0.061,0.11317 58.843286,35.941489 38.008967 0 1 0.061,0.11318 58.843286,35.941489 38.008967 0 1 0.06,0.11317 58.843286,35.941489 38.008967 0 1 0.0609,0.11317 58.843286,35.941489 38.008967 0 1 0.0591,0.11318 58.843286,35.941489 38.008967 0 1 0.06,0.11317 58.843286,35.941489 38.008967 0 1 0.0591,0.11318 58.843286,35.941489 38.008967 0 1 0.0591,0.11317 58.843286,35.941489 38.008967 0 1 0.0591,0.11318 58.843286,35.941489 38.008967 0 1 0.0582,0.11317 58.843286,35.941489 38.008967 0 1 0.0582,0.11318 58.843286,35.941489 38.008967 0 1 0.0582,0.11317 58.843286,35.941489 38.008967 0 1 0.0577,0.11407 58.843286,35.941489 38.008967 0 1 0.0573,0.11318 58.843286,35.941489 38.008967 0 1 0.0573,0.11317 58.843286,35.941489 38.008967 0 1 0.0573,0.11317 l 45.85994,92.08958 a 58.843286,35.941489 38.008967 0 0 3.72745,6.54523 58.843286,35.941489 38.008967 0 0 4.58774,6.4114 58.843286,35.941489 38.008967 0 0 5.3549,6.14823 58.843286,35.941489 38.008967 0 0 6.01227,5.75841 58.843286,35.941489 38.008967 0 0 6.54816,5.25271 58.843286,35.941489 38.008967 0 0 6.95,4.64014 58.843286,35.941489 38.008967 0 0 7.21055,3.93146 58.843286,35.941489 38.008967 0 0 7.3253,3.14462 58.843286,35.941489 38.008967 0 0 7.28928,2.29312 58.843286,35.941489 38.008967 0 0 7.10607,1.39492 58.843286,35.941489 38.008967 0 0 6.77827,0.46796 z" /><path
     id="path6-5"
     style="clip-rule:evenodd;fill:#698362;fill-opacity:1;fill-rule:nonzero;stroke-width:17.7639;stroke-linecap:round;stroke-linejoin:round;stroke-dashoffset:130.744;paint-order:stroke markers fill"
     d="m 522.46433,292.8762 a 58.843355,35.941532 38.008967 0 1 3.33975,0.11767 58.843355,35.941532 38.008967 0 1 3.43853,0.35029 58.843355,35.941532 38.008967 0 1 3.52115,0.58294 58.843355,35.941532 38.008967 0 1 3.58492,0.81198 58.843355,35.941532 38.008967 0 1 3.63162,1.03743 58.843355,35.941532 38.008967 0 1 3.65768,1.25569 58.843355,35.941532 38.008967 0 1 3.66802,1.46947 58.843355,35.941532 38.008967 0 1 3.65728,1.67516 58.843355,35.941532 38.008967 0 1 3.62861,1.87187 58.843355,35.941532 38.008967 0 1 3.58195,2.05959 58.843355,35.941532 38.008967 0 1 3.51694,2.23744 58.843355,35.941532 38.008967 0 1 3.43307,2.4027 58.843355,35.941532 38.008967 0 1 3.3335,2.5563 58.843355,35.941532 38.008967 0 1 3.21467,2.69642 58.843355,35.941532 38.008967 0 1 3.08102,2.82307 58.843355,35.941532 38.008967 0 1 2.93125,2.93535 58.843355,35.941532 38.008967 0 1 2.76713,3.03324 58.843355,35.941532 38.008967 0 1 2.58777,3.11499 58.843355,35.941532 38.008967 0 1 2.39632,3.18145 58.843355,35.941532 38.008967 0 1 2.19144,3.22996 58.843355,35.941532 38.008967 0 1 1.97669,3.26409 58.843355,35.941532 38.008967 0 1 1.75076,3.28115 l 45.85998,92.08968 a 58.843355,35.941532 38.008967 0 0 3.6711,6.43207 58.843355,35.941532 38.008967 0 0 4.58775,6.41141 58.843355,35.941532 38.008967 0 0 5.3549,6.14823 58.843355,35.941532 38.008967 0 0 6.01227,5.75842 58.843355,35.941532 38.008967 0 0 6.54817,5.25272 58.843355,35.941532 38.008967 0 0 6.95,4.64014 58.843355,35.941532 38.008967 0 0 7.21056,3.93146 58.843355,35.941532 38.008967 0 0 7.32531,3.14462 58.843355,35.941532 38.008967 0 0 7.2893,2.29313 58.843355,35.941532 38.008967 0 0 7.10607,1.39491 58.843355,35.941532 38.008967 0 0 6.77828,0.46797 h -45.98825 a 58.843355,35.941532 38.008967 0 1 -3.3393,-0.11676 58.843355,35.941532 38.008967 0 1 -3.43899,-0.35121 58.843355,35.941532 38.008967 0 1 -3.52115,-0.58293 58.843355,35.941532 38.008967 0 1 -3.58491,-0.81198 58.843355,35.941532 38.008967 0 1 -3.63028,-1.03653 58.843355,35.941532 38.008967 0 1 -3.65902,-1.2566 58.843355,35.941532 38.008967 0 1 -3.66713,-1.46946 58.843355,35.941532 38.008967 0 1 -3.65818,-1.67516 58.843355,35.941532 38.008967 0 1 -3.62859,-1.87187 58.843355,35.941532 38.008967 0 1 -3.58197,-2.05959 58.843355,35.941532 38.008967 0 1 -3.51693,-2.23744 58.843355,35.941532 38.008967 0 1 -3.43307,-2.4027 58.843355,35.941532 38.008967 0 1 -3.33261,-2.5563 58.843355,35.941532 38.008967 0 1 -3.21556,-2.69642 58.843355,35.941532 38.008967 0 1 -3.08103,-2.82307 58.843355,35.941532 38.008967 0 1 -2.93124,-2.93535 58.843355,35.941532 38.008967 0 1 -2.76713,-3.03324 58.843355,35.941532 38.008967 0 1 -2.58778,-3.11499 58.843355,35.941532 38.008967 0 1 -2.39587,-3.18055 58.843355,35.941532 38.008967 0 1 -2.19188,-3.23086 58.843355,35.941532 38.008967 0 1 -0.0721,-0.11228 58.843355,35.941532 38.008967 0 1 -0.0707,-0.11137 58.843355,35.941532 38.008967 0 1 -0.0712,-0.11228 58.843355,35.941532 38.008967 0 1 -0.0712,-0.11227 58.843355,35.941532 38.008967 0 1 -0.0712,-0.11228 58.843355,35.941532 38.008967 0 1 -0.0703,-0.11228 58.843355,35.941532 38.008967 0 1 -0.0703,-0.11227 58.843355,35.941532 38.008967 0 1 -0.0694,-0.11228 58.843355,35.941532 38.008967 0 1 -0.0707,-0.11317 58.843355,35.941532 38.008967 0 1 -0.0694,-0.11228 58.843355,35.941532 38.008967 0 1 -0.0685,-0.11227 58.843355,35.941532 38.008967 0 1 -0.0694,-0.11228 58.843355,35.941532 38.008967 0 1 -0.0685,-0.11228 58.843355,35.941532 38.008967 0 1 -0.0689,-0.11317 58.843355,35.941532 38.008967 0 1 -0.0676,-0.11228 58.843355,35.941532 38.008967 0 1 -0.0676,-0.11227 58.843355,35.941532 38.008967 0 1 -0.068,-0.11318 58.843355,35.941532 38.008967 0 1 -0.0676,-0.11227 58.843355,35.941532 38.008967 0 1 -0.0671,-0.11318 58.843355,35.941532 38.008967 0 1 -0.0667,-0.11227 58.843355,35.941532 38.008967 0 1 -0.0671,-0.11318 58.843355,35.941532 38.008967 0 1 -0.0658,-0.11227 58.843355,35.941532 38.008967 0 1 -0.0662,-0.11318 58.843355,35.941532 38.008967 0 1 -0.0662,-0.11317 58.843355,35.941532 38.008967 0 1 -0.0649,-0.11228 58.843355,35.941532 38.008967 0 1 -0.0653,-0.11317 58.843355,35.941532 38.008967 0 1 -0.0653,-0.11318 58.843355,35.941532 38.008967 0 1 -0.064,-0.11227 58.843355,35.941532 38.008967 0 1 -0.0644,-0.11318 58.843355,35.941532 38.008967 0 1 -0.0644,-0.11317 58.843355,35.941532 38.008967 0 1 -0.064,-0.11228 58.843355,35.941532 38.008967 0 1 -0.0635,-0.11317 58.843355,35.941532 38.008967 0 1 -0.0635,-0.11317 58.843355,35.941532 38.008967 0 1 -0.0627,-0.11318 58.843355,35.941532 38.008967 0 1 -0.0635,-0.11317 58.843355,35.941532 38.008967 0 1 -0.0627,-0.11318 58.843355,35.941532 38.008967 0 1 -0.0617,-0.11317 58.843355,35.941532 38.008967 0 1 -0.0622,-0.11228 58.843355,35.941532 38.008967 0 1 -0.0617,-0.11317 58.843355,35.941532 38.008967 0 1 -0.0617,-0.11318 58.843355,35.941532 38.008967 0 1 -0.061,-0.11317 58.843355,35.941532 38.008967 0 1 -0.061,-0.11317 58.843355,35.941532 38.008967 0 1 -0.0609,-0.11318 58.843355,35.941532 38.008967 0 1 -0.06,-0.11317 58.843355,35.941532 38.008967 0 1 -0.061,-0.11318 58.843355,35.941532 38.008967 0 1 -0.0591,-0.11317 58.843355,35.941532 38.008967 0 1 -0.06,-0.11317 58.843355,35.941532 38.008967 0 1 -0.0591,-0.11318 58.843355,35.941532 38.008967 0 1 -0.0591,-0.11317 58.843355,35.941532 38.008967 0 1 -0.0591,-0.11318 58.843355,35.941532 38.008967 0 1 -0.0582,-0.11317 58.843355,35.941532 38.008967 0 1 -0.0582,-0.11318 58.843355,35.941532 38.008967 0 1 -0.0582,-0.11317 58.843355,35.941532 38.008967 0 1 -0.0577,-0.11407 58.843355,35.941532 38.008967 0 1 -0.0573,-0.11318 58.843355,35.941532 38.008967 0 1 -0.0573,-0.11317 58.843355,35.941532 38.008967 0 1 -0.0573,-0.11318 l -45.85999,-92.08968 a 58.843355,35.941532 38.008967 0 0 -3.72745,-6.54524 58.843355,35.941532 38.008967 0 0 -4.58775,-6.41141 58.843355,35.941532 38.008967 0 0 -5.3549,-6.14823 58.843355,35.941532 38.008967 0 0 -6.01228,-5.75842 58.843355,35.941532 38.008967 0 0 -6.54817,-5.25272 58.843355,35.941532 38.008967 0 0 -6.95001,-4.64014 58.843355,35.941532 38.008967 0 0 -7.21056,-3.93146 58.843355,35.941532 38.008967 0 0 -7.3253,-3.14463 58.843355,35.941532 38.008967 0 0 -7.2893,-2.29312 58.843355,35.941532 38.008967 0 0 -7.10607,-1.39492 58.843355,35.941532 38.008967 0 0 -6.77828,-0.46796 z" /></g></svg>
