<?xml version="1.0" encoding="UTF-8" standalone="no"?>
<!DOCTYPE svg PUBLIC "-//W3C//DTD SVG 1.1//EN" "http://www.w3.org/Graphics/SVG/1.1/DTD/svg11.dtd">
<!-- Created with Vectornator (http://vectornator.io/) -->
<svg   stroke-miterlimit="10" style="fill-rule:nonzero;clip-rule:evenodd;stroke-linecap:round;stroke-linejoin:round;" version="1.1" viewBox="0 0 950 200"   xml:space="preserve" xmlns="http://www.w3.org/2000/svg" xmlns:vectornator="http://vectornator.io" xmlns:xlink="http://www.w3.org/1999/xlink">
<defs/>
<clipPath id="ArtboardFrame_54">
<rect height="200" width="950" x="0" y="0"/>
</clipPath>
<g clip-path="url(#ArtboardFrame_54)" id="Layer-1" vectornator:layerName="Layer 1">
<path d="M122.834 195.125C122.834 112.282 189.992 45.125 272.834 45.125C355.677 45.125 422.834 112.282 422.834 195.125C422.834 277.968 355.677 345.125 272.834 345.125C189.992 345.125 122.834 277.968 122.834 195.125Z" fill="#bd93f9" fill-opacity="0" fill-rule="nonzero" opacity="1" class="stroke-orange" stroke="#ffb86c" stroke-linecap="butt" stroke-linejoin="miter" stroke-width="12" vectornator:layerName="Oval 3"/>
<path d="M541.58 190.948C541.58 80.4907 631.124-9.05237 741.58-9.05237C852.037-9.05237 941.58 80.4907 941.58 190.948C941.58 301.405 852.037 390.948 741.58 390.948C631.124 390.948 541.58 301.405 541.58 190.948Z" fill="#bd93f9" fill-opacity="0" fill-rule="nonzero" opacity="1" class="stroke-orange" stroke="#ffb86c" stroke-linecap="butt" stroke-linejoin="miter" stroke-width="12" vectornator:layerName="Oval 2"/>
<path d="M7.00357 190.368C7.00357 148.947 40.5822 115.368 82.0036 115.368C123.425 115.368 157.004 148.947 157.004 190.368C157.004 231.79 123.425 265.368 82.0036 265.368C40.5822 265.368 7.00357 231.79 7.00357 190.368Z" fill="#bd93f9" fill-opacity="0" fill-rule="nonzero" opacity="1" class="stroke-orange" stroke="#ffb86c" stroke-linecap="butt" stroke-linejoin="miter" stroke-width="12" vectornator:layerName="Oval 1"/>
<path d="M452.282-139.633L1064.09-139.633L1064.09 352.217L452.282 352.217L452.282-139.633Z" fill="#bd93f9" fill-opacity="0" fill-rule="nonzero" opacity="1" class="stroke-orange" stroke="#ffb86c" stroke-linecap="butt" stroke-linejoin="miter" stroke-width="12" vectornator:layerName="Rectangle 3"/>
<path d="M494.832-146.625L1106.64-146.625L1106.64 345.224L494.832 345.224L494.832-146.625Z" fill="#bd93f9" fill-opacity="0" fill-rule="nonzero" opacity="1" class="stroke-orange" stroke="#ffb86c" stroke-linecap="butt" stroke-linejoin="miter" stroke-width="12" vectornator:layerName="Rectangle 2"/>
<path d="M-253.964-1082.53L1291.15-1082.53L1291.15 190.828L-253.964 190.828L-253.964-1082.53Z" fill="#bd93f9" fill-opacity="0" fill-rule="nonzero" opacity="1" stroke="#bd93f9" stroke-linecap="butt" stroke-linejoin="miter" stroke-width="18.9882" vectornator:layerName="Rectangle 1"/>
</g>
</svg>
