<!-- Created with Vectornator (http://vectornator.io/) -->
<svg xmlns:inkscape="http://www.inkscape.org/namespaces/inkscape" xmlns:sodipodi="http://sodipodi.sourceforge.net/DTD/sodipodi-0.dtd" xmlns="http://www.w3.org/2000/svg" xmlns:svg="http://www.w3.org/2000/svg" xmlns:vectornator="http://vectornator.io" stroke-miterlimit="10" style="clip-rule:evenodd;fill-rule:nonzero;stroke-linecap:round;stroke-linejoin:round" version="1.1" viewBox="0 0 950 200" xml:space="preserve" id="svg6" sodipodi:docname="hp.svg"><sodipodi:namedview id="namedview6" pagecolor="#ffffff" bordercolor="#000000" borderopacity="0.25" inkscape:showpageshadow="2" inkscape:pageopacity="0.0" inkscape:pagecheckerboard="0" inkscape:deskcolor="#d1d1d1"/>
    <defs id="defs1"/>
    <clipPath id="ArtboardFrame_54">
        <rect height="200" width="950" x="0" y="0" id="rect1"/>
    </clipPath>
    <g clip-path="url(#ArtboardFrame_54)" id="Layer-1" vectornator:layerName="Layer 1">
        <path d="m 122.834,195.125 c 0,-82.843 67.158,-150 150,-150 82.843,0 150,67.157 150,150 0,82.843 -67.157,150 -150,150 -82.842,0 -150,-67.157 -150,-150 z" class="fill-purple stroke-orange stroke-orange" fill="#bd93f9" fill-opacity="0" fill-rule="nonzero" opacity="1" stroke="#ffb86c" stroke-linecap="butt" stroke-linejoin="miter" stroke-width="12" vectornator:layerName="Oval 3" id="path1"/>
        <path d="m 541.58,190.948 c 0,-110.4573 89.544,-200.00037 200,-200.00037 110.457,0 200,89.54307 200,200.00037 0,110.457 -89.543,200 -200,200 -110.456,0 -200,-89.543 -200,-200 z" class="fill-purple stroke-orange stroke-orange" fill="#bd93f9" fill-opacity="0" fill-rule="nonzero" opacity="1" stroke="#ffb86c" stroke-linecap="butt" stroke-linejoin="miter" stroke-width="12" vectornator:layerName="Oval 2" id="path2"/>
        <path d="m 7.00357,190.368 c 0,-41.421 33.57863,-75 75.00003,-75 41.4214,0 75.0004,33.579 75.0004,75 0,41.422 -33.579,75 -75.0004,75 -41.4214,0 -75.00003,-33.578 -75.00003,-75 z" class="fill-purple stroke-orange stroke-orange" fill="#bd93f9" fill-opacity="0" fill-rule="nonzero" opacity="1" stroke="#ffb86c" stroke-linecap="butt" stroke-linejoin="miter" stroke-width="12" vectornator:layerName="Oval 1" id="path3"/>
        <path d="m 452.282,-139.633 h 611.808 v 491.85 H 452.282 Z" class="fill-purple stroke-orange stroke-orange" fill="#bd93f9" fill-opacity="0" fill-rule="nonzero" opacity="1" stroke="#ffb86c" stroke-linecap="butt" stroke-linejoin="miter" stroke-width="12" vectornator:layerName="Rectangle 3" id="path4"/>
        <path d="M 494.832,-146.625 H 1106.64 V 345.224 H 494.832 Z" class="fill-purple stroke-orange stroke-orange" fill="#bd93f9" fill-opacity="0" fill-rule="nonzero" opacity="1" stroke="#ffb86c" stroke-linecap="butt" stroke-linejoin="miter" stroke-width="12" vectornator:layerName="Rectangle 2" id="path5"/>
        <path d="M -253.964,-1082.53 H 1291.15 V 190.828 H -253.964 Z" class="fill-purple stroke-purple" fill="#bd93f9" fill-opacity="0" fill-rule="nonzero" opacity="1" stroke="#bd93f9" stroke-linecap="butt" stroke-linejoin="miter" stroke-width="18.9882" vectornator:layerName="Rectangle 1" id="path6"/>
    </g>
</svg>
