<!-- Created with Vectornator (http://vectornator.io/) -->
<svg xmlns:inkscape="http://www.inkscape.org/namespaces/inkscape" xmlns:sodipodi="http://sodipodi.sourceforge.net/DTD/sodipodi-0.dtd" xmlns="http://www.w3.org/2000/svg" xmlns:svg="http://www.w3.org/2000/svg" xmlns:vectornator="http://vectornator.io" stroke-miterlimit="10" style="clip-rule:evenodd;fill-rule:nonzero;stroke-linecap:round;stroke-linejoin:round" version="1.1" viewBox="0 0 1001.481 1006.0781" xml:space="preserve" id="svg8" sodipodi:docname="sphere.svg"><sodipodi:namedview id="namedview8" pagecolor="#ffffff" bordercolor="#000000" borderopacity="0.25" inkscape:showpageshadow="2" inkscape:pageopacity="0.0" inkscape:pagecheckerboard="0" inkscape:deskcolor="#d1d1d1"/>
    <defs id="defs1"/>
    <g id="Layer-1" vectornator:layerName="Layer 1" transform="translate(-0.71510038)">
        <path d="M 503.291,10.5326 C 703.291,101.767 700,902.21 500,996.78" fill="none" opacity="1" class="stroke-blue" stroke="#8be9fd" stroke-dasharray="0.1, 0.1, 6, 10" stroke-linecap="butt" stroke-linejoin="miter" stroke-width="12" vectornator:layerName="Curve 2" id="path1"/>
        <path d="m 10,500 c 90,-200 890,-200 983.29,0" fill="none" opacity="1" class="stroke-purple" stroke="#bd93f9" stroke-dasharray="0.1, 0.1, 6, 10" stroke-linecap="butt" stroke-linejoin="miter" stroke-width="12" vectornator:layerName="Curve 2" id="path2"/>
        <path d="m 10,500 c 90,200 890,200 983.29,0" fill="none" opacity="1" class="stroke-purple" stroke="#bd93f9" stroke-linecap="round" stroke-linejoin="miter" stroke-width="12" vectornator:layerName="Curve 1" id="path3"/>
        <path d="M 503.291,8.55772 C 298.903,99.0091 298.903,903.022 503.291,996.78" fill="none" opacity="1" class="stroke-blue" stroke="#8be9fd" stroke-linecap="round" stroke-linejoin="miter" stroke-width="12" vectornator:layerName="Curve 1" id="path4"/>
        <path d="m 10.2092,503.397 c 0,-272.38 219.9388,-493.1878 491.2468,-493.1878 271.308,0 491.246,220.8078 491.246,493.1878 0,272.38 -219.938,493.187 -491.246,493.187 -271.308,0 -491.2468,-220.807 -491.2468,-493.187 z" class="fill-purple stroke-purple" fill="#bd93f9" fill-opacity="0" fill-rule="nonzero" opacity="1" stroke="#bd93f9" stroke-linecap="butt" stroke-linejoin="miter" stroke-width="18.9882" vectornator:layerName="Oval 1" id="path5"/>
        <g opacity="0" vectornator:layerName="Curve 3" id="g8">
            <path d="M 348.445,133.101 C 374.039,111.363 498.077,6.98551 497.746,6.86377" fill="none" class="stroke-pink" stroke="#ff79c6" stroke-linecap="round" stroke-linejoin="miter" stroke-width="4.6828" id="path6"/>
            <g class="fill-pink" fill="#ff79c6" stroke="none" id="g7">
                <path d="m 348.245,112.373 -3.882,21.843 -0.501,2.818 2.861,-0.067 22.179,-0.52 c 1.292,-0.03 2.316,-1.103 2.286,-2.396 -0.031,-1.292 -1.103,-2.316 -2.396,-2.286 l -22.179,0.52 2.36,2.751 3.883,-21.843 c 0.226,-1.273 -0.623,-2.489 -1.896,-2.715 -1.273,-0.226 -2.489,0.622 -2.715,1.895 z" class="fill-pink" fill="#ff79c6" id="path7"/>
            </g>
        </g>
        <path d="m 490,10 c 0,-5.52285 4.477,-10 10,-10 5.523,0 10,4.47715 10,10 0,5.5228 -4.477,10 -10,10 -5.523,0 -10,-4.4772 -10,-10 z" class="fill-green" fill="#50fa7b" fill-rule="nonzero" opacity="1" stroke="none" vectornator:layerName="Oval 2" id="path8"/>
    </g>
</svg>
