<!-- Created with Inkscape (http://www.inkscape.org/) -->
<svg xmlns:inkscape="http://www.inkscape.org/namespaces/inkscape" xmlns:sodipodi="http://sodipodi.sourceforge.net/DTD/sodipodi-0.dtd" xmlns="http://www.w3.org/2000/svg" xmlns:svg="http://www.w3.org/2000/svg" viewBox="0 0 759.25784 361.42592" version="1.1" id="svg1" inkscape:version="1.3.2 (091e20ef0f, 2023-11-25)" sodipodi:docname="1_to_4.svg">
  <sodipodi:namedview id="namedview1" pagecolor="#282a36" bordercolor="#000000" borderopacity="0.25" inkscape:showpageshadow="2" inkscape:pageopacity="0.0" inkscape:pagecheckerboard="0" inkscape:deskcolor="#44475a" inkscape:document-units="mm" showgrid="true" inkscape:zoom="4.3904247" inkscape:cx="777.60131" inkscape:cy="0.1138842" inkscape:window-width="1920" inkscape:window-height="1119" inkscape:window-x="0" inkscape:window-y="0" inkscape:window-maximized="1" inkscape:current-layer="layer1" showguides="true">
    <inkscape:grid id="grid1" units="mm" originx="-45.559048" originy="41.202332" spacingx="0.99999998" spacingy="1" empcolor="#0099e5" empopacity="0.30196078" color="#0099e5" opacity="0.14901961" empspacing="5" dotted="false" gridanglex="30" gridanglez="30" visible="true"/>
  </sodipodi:namedview>
  <defs id="defs1"/>
  <g inkscape:label="Layer 1" inkscape:groupmode="layer" id="layer1" transform="translate(-45.559039,41.202335)">
    <g id="g28" transform="translate(26.372309)">
      <g id="g10" transform="translate(-2.3911787,0.765105)">
        <path style="display:inline;fill:#50fa7b;stroke:#50fa7b;stroke-width:4.54895;stroke-dasharray:none;stroke-opacity:1" d="m 378.15073,274.9556 v 39.9361" id="path3-5-3-2-0-1-0-6" sodipodi:nodetypes="cc"/>
        <path id="path5-19-3-5-2-5-9-9-9-4-9" style="display:inline;fill:#50fa7b;stroke:#50fa7b;stroke-width:0.325699" d="m 381.69636,317.87294 a 5.0425392,4.974821 45.320072 0 1 -7.08296,-0.0874 5.0425392,4.974821 45.320072 0 1 -0.008,-7.0835 5.0425392,4.974821 45.320072 0 1 7.08296,0.0874 5.0425392,4.974821 45.320072 0 1 0.008,7.0835 z"/>
        <path style="display:inline;fill:#8be9fd;stroke:#8be9fd;stroke-width:4.54895;stroke-dasharray:none;stroke-opacity:1" d="m 378.15073,235.0195 v 39.9361" id="path3-5-73-1-1-4-3" sodipodi:nodetypes="cc"/>
        <path id="path5-19-3-5-2-6-2-29-9-7" style="display:inline;fill:#8be9fd;stroke:#8be9fd;stroke-width:0.325699" d="m 381.69636,277.93684 a 5.0425392,4.974821 45.320072 0 1 -7.08296,-0.0874 5.0425392,4.974821 45.320072 0 1 -0.008,-7.0835 5.0425392,4.974821 45.320072 0 1 7.08296,0.0875 5.0425392,4.974821 45.320072 0 1 0.008,7.0835 z"/>
        <text xml:space="preserve" style="font-size:10.6667px;font-family:'TeX Gyre Adventor';-inkscape-font-specification:'TeX Gyre Adventor';fill:#50fa7b;stroke:#50fa7b;stroke-width:0.676535;stroke-miterlimit:4.1" x="385.53113" y="317.05786" id="text4-7-8-4"><tspan sodipodi:role="line" id="tspan4-8-7-5" x="385.53113" y="317.05786" style="font-style:normal;font-variant:normal;font-weight:normal;font-stretch:normal;font-family:'Roboto Condensed';-inkscape-font-specification:'Roboto Condensed, ';fill:#50fa7b;stroke:#50fa7b">-2</tspan></text>
        <text xml:space="preserve" style="font-size:10.6667px;font-family:'TeX Gyre Adventor';-inkscape-font-specification:'TeX Gyre Adventor';fill:#8be9fd;stroke:#8be9fd;stroke-width:0.676535;stroke-miterlimit:4.1" x="383.98187" y="278.53586" id="text4-3-1-25"><tspan sodipodi:role="line" id="tspan4-1-7-4" x="383.98187" y="278.53586" style="font-style:normal;font-variant:normal;font-weight:normal;font-stretch:normal;font-family:'Roboto Condensed';-inkscape-font-specification:'Roboto Condensed, ';fill:#8be9fd;stroke:#8be9fd">1</tspan></text>
        <path style="display:inline;fill:#8be9fd;stroke:#8be9fd;stroke-width:4.54895;stroke-dasharray:none;stroke-opacity:1" d="m 378.15073,195.68764 v 39.9361" id="path3-5-3-2-03" sodipodi:nodetypes="cc"/>
        <path id="path5-19-3-5-2-5-9-6" style="display:inline;fill:#8be9fd;stroke:#8be9fd;stroke-width:0.325699" d="m 381.69636,238.60498 a 5.0425392,4.974821 45.320072 0 1 -7.08296,-0.0874 5.0425392,4.974821 45.320072 0 1 -0.008,-7.0835 5.0425392,4.974821 45.320072 0 1 7.08296,0.0874 5.0425392,4.974821 45.320072 0 1 0.008,7.0835 z"/>
        <path style="display:inline;fill:#f8f8f2;stroke:#f8f8f2;stroke-width:4.54895;stroke-dasharray:none;stroke-opacity:1" d="m 378.15073,155.75154 v 39.9361" id="path3-5-73-8" sodipodi:nodetypes="cc"/>
        <path id="path5-19-3-5-2-6-4" style="display:inline;fill:#f8f8f2;stroke:#f8f8f2;stroke-width:0.325699" d="m 381.69636,198.66888 a 5.0425392,4.974821 45.320072 0 1 -7.08296,-0.0875 5.0425392,4.974821 45.320072 0 1 -0.008,-7.0835 5.0425392,4.974821 45.320072 0 1 7.08296,0.0874 5.0425392,4.974821 45.320072 0 1 0.008,7.0835 z"/>
        <text xml:space="preserve" style="font-size:10.6667px;font-family:'TeX Gyre Adventor';-inkscape-font-specification:'TeX Gyre Adventor';fill:#8be9fd;stroke:#8be9fd;stroke-width:0.676535;stroke-miterlimit:4.1" x="385.83984" y="239.6904" id="text4-5-1"><tspan sodipodi:role="line" id="tspan4-0-0" x="385.83984" y="239.6904" style="font-style:normal;font-variant:normal;font-weight:normal;font-stretch:normal;font-family:'Roboto Condensed';-inkscape-font-specification:'Roboto Condensed, ';fill:#8be9fd;stroke:#8be9fd">-1</tspan></text>
      </g>
      <g id="g20" transform="translate(72.87516,-2.447713)">
        <path style="display:inline;fill:#50fa7b;stroke:#50fa7b;stroke-width:4.54895;stroke-dasharray:none;stroke-opacity:1" d="M 302.61512,1.1814754 V 41.117574" id="path3-5-3-2-0" sodipodi:nodetypes="cc"/>
        <path style="display:inline;fill:#f8f8f2;stroke:#f8f8f2;stroke-width:4.54895;stroke-dasharray:none;stroke-opacity:1" d="M 302.61512,-38.754622 V 1.1814773" id="path3-5-73-1" sodipodi:nodetypes="cc"/>
        <path id="path5-19-3-5-2-6-2" style="display:inline;fill:#f8f8f2;stroke:#f8f8f2;stroke-width:0.325699" d="m 306.16075,4.1627178 a 5.0425392,4.974821 45.320072 0 1 -7.08296,-0.087454 5.0425392,4.974821 45.320072 0 1 -0.008,-7.083494 5.0425392,4.974821 45.320072 0 1 7.08296,0.087448 5.0425392,4.974821 45.320072 0 1 0.008,7.0835 z"/>
        <path id="path5-19-3-5-2-5-9-9" style="display:inline;fill:#50fa7b;stroke:#50fa7b;stroke-width:0.325699" d="m 306.16075,44.098815 a 5.0425392,4.974821 45.320072 0 1 -7.08296,-0.08745 5.0425392,4.974821 45.320072 0 1 -0.008,-7.083494 5.0425392,4.974821 45.320072 0 1 7.08296,0.08745 5.0425392,4.974821 45.320072 0 1 0.008,7.0835 z"/>
        <text xml:space="preserve" style="font-size:10.6667px;font-family:'TeX Gyre Adventor';-inkscape-font-specification:'TeX Gyre Adventor';fill:#50fa7b;stroke:#50fa7b;stroke-width:0.676535;stroke-miterlimit:4.1" x="310.53406" y="41.21344" id="text4-55"><tspan sodipodi:role="line" id="tspan4-4" x="310.53406" y="41.21344" style="font-style:normal;font-variant:normal;font-weight:normal;font-stretch:normal;font-family:'Roboto Condensed';-inkscape-font-specification:'Roboto Condensed, ';fill:#50fa7b;stroke:#50fa7b">-2</tspan></text>
      </g>
    </g>
    <g id="g22" transform="translate(-26.709798)">
      <g id="g8" transform="translate(124.2108,0.765105)">
        <path style="display:inline;fill:#50fa7b;stroke:#50fa7b;stroke-width:4.54895;stroke-dasharray:none;stroke-opacity:1" d="M 543.37288,195.68763 515.1338,223.92672" id="path3-5-3-2-0-7" sodipodi:nodetypes="cc"/>
        <path id="path5-19-3-5-2-5-9-9-6" style="display:inline;fill:#50fa7b;stroke:#50fa7b;stroke-width:0.325699" d="m 515.53288,228.54192 a 4.974821,5.0425391 0.32007199 0 1 -4.94657,-5.07025 4.974821,5.0425391 0.32007199 0 1 5.00291,-5.01467 4.974821,5.0425391 0.32007199 0 1 4.94658,5.07025 4.974821,5.0425391 0.32007199 0 1 -5.00292,5.01467 z"/>
        <text xml:space="preserve" style="font-size:10.6667px;font-family:'TeX Gyre Adventor';-inkscape-font-specification:'TeX Gyre Adventor';fill:#50fa7b;stroke:#50fa7b;stroke-width:0.676535;stroke-miterlimit:4.1" x="522.60089" y="232.60913" id="text4-55-3"><tspan sodipodi:role="line" id="tspan4-4-1" x="522.60089" y="232.60913" style="font-style:normal;font-variant:normal;font-weight:normal;font-stretch:normal;font-family:'Roboto Condensed';-inkscape-font-specification:'Roboto Condensed, ';fill:#50fa7b;stroke:#50fa7b">-2</tspan></text>
        <path style="display:inline;fill:#50fa7b;stroke:#50fa7b;stroke-width:4.54895;stroke-dasharray:none;stroke-opacity:1" d="m 543.37287,195.71959 28.23909,28.23908" id="path3-5-7-2-5-1-6" sodipodi:nodetypes="cc"/>
        <path id="path5-19-3-5-2-0-2-6-59-2" style="display:inline;fill:#50fa7b;stroke:#50fa7b;stroke-width:0.325699" d="m 576.22716,223.55959 a 5.0425391,4.974821 0.32007199 0 1 -5.07025,4.94657 5.0425391,4.974821 0.32007199 0 1 -5.01467,-5.00291 5.0425391,4.974821 0.32007199 0 1 5.07025,-4.94658 5.0425391,4.974821 0.32007199 0 1 5.01467,5.00292 z"/>
        <text xml:space="preserve" style="font-size:10.6667px;font-family:'TeX Gyre Adventor';-inkscape-font-specification:'TeX Gyre Adventor';fill:#50fa7b;stroke:#50fa7b;stroke-width:0.676535;stroke-miterlimit:4.1" x="577.8606" y="232.60913" id="text4-6-7-1"><tspan sodipodi:role="line" id="tspan4-3-7-7" x="577.8606" y="232.60913" style="font-style:normal;font-variant:normal;font-weight:normal;font-stretch:normal;font-family:'Roboto Condensed';-inkscape-font-specification:'Roboto Condensed, ';fill:#50fa7b;stroke:#50fa7b">-2</tspan></text>
        <path style="display:inline;fill:#f8f8f2;stroke:#f8f8f2;stroke-width:4.54895;stroke-dasharray:none;stroke-opacity:1" d="m 543.37289,155.75154 v 39.9361" id="path3-5-73-1-4" sodipodi:nodetypes="cc"/>
        <path id="path5-19-3-5-2-6-2-4" style="display:inline;fill:#f8f8f2;stroke:#f8f8f2;stroke-width:0.325699" d="m 546.91852,198.66888 a 5.0425392,4.974821 45.320072 0 1 -7.08296,-0.0875 5.0425392,4.974821 45.320072 0 1 -0.008,-7.0835 5.0425392,4.974821 45.320072 0 1 7.08296,0.0874 5.0425392,4.974821 45.320072 0 1 0.008,7.0835 z"/>
      </g>
      <g id="g12" transform="translate(467.97418,-119.88094)">
        <g id="g3-1-7-3-5" transform="matrix(2.6624067,0,0,2.6624067,-0.40695,180.36344)" style="fill:#50fa7b;stroke:#50fa7b">
          <path style="display:inline;fill:#50fa7b;stroke:#50fa7b;stroke-width:5.51562;stroke-dasharray:none;stroke-opacity:1" d="M 26.124483,137.05544 60.172657,102.62472" id="path3-5-3-2-0-1-0" sodipodi:nodetypes="cc" transform="matrix(-0.22026238,0.21781512,-0.21781512,-0.22026238,110.60698,1.497847)"/>
          <path id="path5-19-3-5-2-5-9-9-9-4" style="display:inline;fill:#50fa7b;stroke:#50fa7b;stroke-width:0.394911" d="m 59.657511,97.03157 a 6.0319862,6.1140947 0 0 1 6.03198,6.11409 6.0319862,6.1140947 0 0 1 -6.03198,6.11409 6.0319862,6.1140947 0 0 1 -6.03199,-6.11409 6.0319862,6.1140947 0 0 1 6.03199,-6.11409 z" transform="matrix(-0.22026238,0.21781512,-0.21781512,-0.22026238,110.60698,1.497847)"/>
        </g>
        <g id="g2-9-9-6-6" transform="matrix(2.6624067,0,0,2.6624067,-0.40695,140.42734)" style="fill:#8be9fd;stroke:#8be9fd">
          <path style="display:inline;fill:#8be9fd;stroke:#8be9fd;stroke-width:5.51562;stroke-dasharray:none;stroke-opacity:1" d="M 26.124483,137.05544 60.172657,102.62472" id="path3-5-73-1-1-4" sodipodi:nodetypes="cc" transform="matrix(-0.22026238,0.21781512,-0.21781512,-0.22026238,110.60698,1.497847)"/>
          <path id="path5-19-3-5-2-6-2-29-9" style="display:inline;fill:#8be9fd;stroke:#8be9fd;stroke-width:0.394911" d="m 59.657511,97.03157 a 6.0319862,6.1140947 0 0 1 6.03198,6.11409 6.0319862,6.1140947 0 0 1 -6.03198,6.11409 6.0319862,6.1140947 0 0 1 -6.03199,-6.11409 6.0319862,6.1140947 0 0 1 6.03199,-6.11409 z" transform="matrix(-0.22026238,0.21781512,-0.21781512,-0.22026238,110.60698,1.497847)"/>
        </g>
        <text xml:space="preserve" style="font-size:10.6667px;font-family:'TeX Gyre Adventor';-inkscape-font-specification:'TeX Gyre Adventor';fill:#50fa7b;stroke:#50fa7b;stroke-width:0.676535;stroke-miterlimit:4.1" x="206.65393" y="161.23033" id="text4-7-8"><tspan sodipodi:role="line" id="tspan4-8-7" x="206.65393" y="161.23033" style="font-style:normal;font-variant:normal;font-weight:normal;font-stretch:normal;font-family:'Roboto Condensed';-inkscape-font-specification:'Roboto Condensed, ';fill:#50fa7b;stroke:#50fa7b">-2</tspan></text>
        <text xml:space="preserve" style="font-size:10.6667px;font-family:'TeX Gyre Adventor';-inkscape-font-specification:'TeX Gyre Adventor';fill:#8be9fd;stroke:#8be9fd;stroke-width:0.676535;stroke-miterlimit:4.1" x="205.10469" y="122.70834" id="text4-3-1"><tspan sodipodi:role="line" id="tspan4-1-7" x="205.10469" y="122.70834" style="font-style:normal;font-variant:normal;font-weight:normal;font-stretch:normal;font-family:'Roboto Condensed';-inkscape-font-specification:'Roboto Condensed, ';fill:#8be9fd;stroke:#8be9fd">1</tspan></text>
      </g>
    </g>
    <g id="g21" transform="translate(-26.709798)">
      <g id="g13" transform="translate(415.27628,-120.39431)">
        <path style="display:inline;fill:#ffb86c;stroke:#ffb86c;stroke-width:4.54895;stroke-dasharray:none;stroke-opacity:1" d="m 155.3196,119.12808 v 39.9361" id="path3-5-3-2-0-2" sodipodi:nodetypes="cc"/>
        <path style="display:inline;fill:#f8f8f2;stroke:#f8f8f2;stroke-width:4.54895;stroke-dasharray:none;stroke-opacity:1" d="M 155.3196,79.191979 V 119.12808" id="path3-5-73-1-9" sodipodi:nodetypes="cc"/>
        <path id="path5-19-3-5-2-6-2-2" style="display:inline;fill:#f8f8f2;stroke:#f8f8f2;stroke-width:0.325699" d="m 158.86523,122.10932 a 5.0425392,4.974821 45.320072 0 1 -7.08296,-0.0874 5.0425392,4.974821 45.320072 0 1 -0.008,-7.0835 5.0425392,4.974821 45.320072 0 1 7.08296,0.0874 5.0425392,4.974821 45.320072 0 1 0.008,7.0835 z"/>
        <path id="path5-19-3-5-2-5-9-9-3" style="display:inline;fill:#ffb86c;stroke:#ffb86c;stroke-width:0.325699" d="m 158.86523,162.04542 a 5.0425392,4.974821 45.320072 0 1 -7.08296,-0.0875 5.0425392,4.974821 45.320072 0 1 -0.008,-7.0835 5.0425392,4.974821 45.320072 0 1 7.08296,0.0874 5.0425392,4.974821 45.320072 0 1 0.008,7.0835 z"/>
        <text xml:space="preserve" style="font-size:10.6667px;font-family:'TeX Gyre Adventor';-inkscape-font-specification:'TeX Gyre Adventor';fill:#ffb86c;stroke:#ffb86c;stroke-width:0.676535;stroke-miterlimit:4.1" x="161.16827" y="161.66367" id="text4-4"><tspan sodipodi:role="line" id="tspan4-7" x="161.16827" y="161.66367" style="font-style:normal;font-variant:normal;font-weight:normal;font-stretch:normal;font-family:'Roboto Condensed';-inkscape-font-specification:'Roboto Condensed, ';fill:#ffb86c;stroke:#ffb86c">-3</tspan></text>
      </g>
      <g id="g7" transform="translate(-68.996204,1.2784761)">
        <path style="display:inline;fill:#50fa7b;stroke:#50fa7b;stroke-width:4.54895;stroke-dasharray:none;stroke-opacity:1" d="m 637.95203,195.68764 v 39.9361" id="path3-5-3-2-0-0" sodipodi:nodetypes="cc"/>
        <path id="path5-19-3-5-2-5-9-9-36" style="display:inline;fill:#50fa7b;stroke:#50fa7b;stroke-width:0.325699" d="m 641.49766,238.60498 a 5.0425392,4.974821 45.320072 0 1 -7.08296,-0.0874 5.0425392,4.974821 45.320072 0 1 -0.008,-7.0835 5.0425392,4.974821 45.320072 0 1 7.08296,0.0874 5.0425392,4.974821 45.320072 0 1 0.008,7.0835 z"/>
        <path style="display:inline;fill:#f8f8f2;stroke:#f8f8f2;stroke-width:4.54895;stroke-dasharray:none;stroke-opacity:1" d="m 637.95203,155.75154 v 39.9361" id="path3-5-73-1-10" sodipodi:nodetypes="cc"/>
        <path id="path5-19-3-5-2-6-2-6" style="display:inline;fill:#f8f8f2;stroke:#f8f8f2;stroke-width:0.325699" d="m 641.49766,198.66888 a 5.0425392,4.974821 45.320072 0 1 -7.08296,-0.0875 5.0425392,4.974821 45.320072 0 1 -0.008,-7.0835 5.0425392,4.974821 45.320072 0 1 7.08296,0.0874 5.0425392,4.974821 45.320072 0 1 0.008,7.0835 z"/>
        <text xml:space="preserve" style="font-size:10.6667px;font-family:'TeX Gyre Adventor';-inkscape-font-specification:'TeX Gyre Adventor';fill:#50fa7b;stroke:#50fa7b;stroke-width:0.676535;stroke-miterlimit:4.1" x="645.87097" y="235.7196" id="text4-55-32"><tspan sodipodi:role="line" id="tspan4-4-0" x="645.87097" y="235.7196" style="font-style:normal;font-variant:normal;font-weight:normal;font-stretch:normal;font-family:'Roboto Condensed';-inkscape-font-specification:'Roboto Condensed, ';fill:#50fa7b;stroke:#50fa7b">-2</tspan></text>
        <path style="display:inline;fill:#50fa7b;stroke:#50fa7b;stroke-width:4.54895;stroke-dasharray:none;stroke-opacity:1" d="m 638.33691,234.50616 v 39.9361" id="path3-5-7-2-5-1" sodipodi:nodetypes="cc"/>
        <path id="path5-19-3-5-2-0-2-6-59" style="display:inline;fill:#50fa7b;stroke:#50fa7b;stroke-width:0.325699" d="m 641.88254,277.4235 a 5.0425392,4.974821 45.320072 0 1 -7.08296,-0.0874 5.0425392,4.974821 45.320072 0 1 -0.008,-7.0835 5.0425392,4.974821 45.320072 0 1 7.08296,0.0874 5.0425392,4.974821 45.320072 0 1 0.008,7.0835 z"/>
        <text xml:space="preserve" style="font-size:10.6667px;font-family:'TeX Gyre Adventor';-inkscape-font-specification:'TeX Gyre Adventor';fill:#50fa7b;stroke:#50fa7b;stroke-width:0.676535;stroke-miterlimit:4.1" x="646.79956" y="278.25476" id="text4-6-7"><tspan sodipodi:role="line" id="tspan4-3-7" x="646.79956" y="278.25476" style="font-style:normal;font-variant:normal;font-weight:normal;font-stretch:normal;font-family:'Roboto Condensed';-inkscape-font-specification:'Roboto Condensed, ';fill:#50fa7b;stroke:#50fa7b">2</tspan></text>
      </g>
    </g>
    <g id="g30">
      <g id="g11" transform="translate(520.06523,-120.39431)">
        <g id="g3-1-7-3" transform="matrix(2.6624067,0,0,2.6624067,45.06024,220.33149)" style="fill:#50fa7b;stroke:#50fa7b">
          <path style="display:inline;fill:#50fa7b;stroke:#50fa7b;stroke-width:5.51562;stroke-dasharray:none;stroke-opacity:1" d="M 26.124483,137.05544 60.172657,102.62472" id="path3-5-3-2-0-1" sodipodi:nodetypes="cc" transform="matrix(-0.22026238,0.21781512,-0.21781512,-0.22026238,110.60698,1.497847)"/>
          <path id="path5-19-3-5-2-5-9-9-9" style="display:inline;fill:#50fa7b;stroke:#50fa7b;stroke-width:0.394911" d="m 59.657511,97.03157 a 6.0319862,6.1140947 0 0 1 6.03198,6.11409 6.0319862,6.1140947 0 0 1 -6.03198,6.11409 6.0319862,6.1140947 0 0 1 -6.03199,-6.11409 6.0319862,6.1140947 0 0 1 6.03199,-6.11409 z" transform="matrix(-0.22026238,0.21781512,-0.21781512,-0.22026238,110.60698,1.497847)"/>
        </g>
        <text xml:space="preserve" style="font-size:10.6667px;font-family:'TeX Gyre Adventor';-inkscape-font-specification:'TeX Gyre Adventor';fill:#50fa7b;stroke:#50fa7b;stroke-width:0.676535;stroke-miterlimit:4.1" x="252.12112" y="201.19836" id="text4-7"><tspan sodipodi:role="line" id="tspan4-8" x="252.12112" y="201.19836" style="font-style:normal;font-variant:normal;font-weight:normal;font-stretch:normal;font-family:'Roboto Condensed';-inkscape-font-specification:'Roboto Condensed, ';fill:#50fa7b;stroke:#50fa7b">2</tspan></text>
        <g id="g2-9-9-6" transform="matrix(2.6624067,0,0,2.6624067,45.06024,180.39539)" style="fill:#8be9fd;stroke:#8be9fd">
          <path style="display:inline;fill:#8be9fd;stroke:#8be9fd;stroke-width:5.51562;stroke-dasharray:none;stroke-opacity:1" d="M 26.124483,137.05544 60.172657,102.62472" id="path3-5-73-1-1" sodipodi:nodetypes="cc" transform="matrix(-0.22026238,0.21781512,-0.21781512,-0.22026238,110.60698,1.497847)"/>
          <path id="path5-19-3-5-2-6-2-29" style="display:inline;fill:#8be9fd;stroke:#8be9fd;stroke-width:0.394911" d="m 59.657511,97.03157 a 6.0319862,6.1140947 0 0 1 6.03198,6.11409 6.0319862,6.1140947 0 0 1 -6.03198,6.11409 6.0319862,6.1140947 0 0 1 -6.03199,-6.11409 6.0319862,6.1140947 0 0 1 6.03199,-6.11409 z" transform="matrix(-0.22026238,0.21781512,-0.21781512,-0.22026238,110.60698,1.497847)"/>
        </g>
        <path style="display:inline;fill:#f8f8f2;stroke:#f8f8f2;stroke-width:4.54895;stroke-dasharray:none;stroke-opacity:1" d="M 244.74073,79.191979 V 119.12808" id="path3-5-7-2-5-9" sodipodi:nodetypes="cc"/>
        <path id="path5-19-3-5-2-0-2-6-7" style="display:inline;fill:#f8f8f2;stroke:#f8f8f2;stroke-width:0.325699" d="m 248.28636,122.10932 a 5.0425392,4.974821 45.320072 0 1 -7.08296,-0.0874 5.0425392,4.974821 45.320072 0 1 -0.008,-7.0835 5.0425392,4.974821 45.320072 0 1 7.08296,0.0874 5.0425392,4.974821 45.320072 0 1 0.008,7.0835 z"/>
        <text xml:space="preserve" style="font-size:10.6667px;font-family:'TeX Gyre Adventor';-inkscape-font-specification:'TeX Gyre Adventor';fill:#8be9fd;stroke:#8be9fd;stroke-width:0.676535;stroke-miterlimit:4.1" x="250.57188" y="162.67636" id="text4-3"><tspan sodipodi:role="line" id="tspan4-1" x="250.57188" y="162.67636" style="font-style:normal;font-variant:normal;font-weight:normal;font-stretch:normal;font-family:'Roboto Condensed';-inkscape-font-specification:'Roboto Condensed, ';fill:#8be9fd;stroke:#8be9fd">-1</tspan></text>
      </g>
      <g id="g6" transform="translate(30.471681,0.765105)">
        <path style="display:inline;fill:#50fa7b;stroke:#50fa7b;stroke-width:4.54895;stroke-dasharray:none;stroke-opacity:1" d="m 734.67017,235.62374 -28.239,28.23909" id="path3-5-3-2-0-7-3" sodipodi:nodetypes="cc"/>
        <path id="path5-19-3-5-2-5-9-9-6-2" style="display:inline;fill:#50fa7b;stroke:#50fa7b;stroke-width:0.325699" d="m 706.83017,268.47803 a 4.974821,5.0425391 0.32007199 0 1 -4.9465,-5.07025 4.974821,5.0425391 0.32007199 0 1 5.0029,-5.01467 4.974821,5.0425391 0.32007199 0 1 4.9466,5.07025 4.974821,5.0425391 0.32007199 0 1 -5.003,5.01467 z"/>
        <text xml:space="preserve" style="font-size:10.6667px;font-family:'TeX Gyre Adventor';-inkscape-font-specification:'TeX Gyre Adventor';fill:#50fa7b;stroke:#50fa7b;stroke-width:0.676535;stroke-miterlimit:4.1" x="713.89819" y="272.54526" id="text4-55-3-0"><tspan sodipodi:role="line" id="tspan4-4-1-6" x="713.89819" y="272.54526" style="font-style:normal;font-variant:normal;font-weight:normal;font-stretch:normal;font-family:'Roboto Condensed';-inkscape-font-specification:'Roboto Condensed, ';fill:#50fa7b;stroke:#50fa7b">2</tspan></text>
        <path style="display:inline;fill:#50fa7b;stroke:#50fa7b;stroke-width:4.54895;stroke-dasharray:none;stroke-opacity:1" d="m 734.67017,235.65569 28.2391,28.23908" id="path3-5-7-2-5-1-6-4" sodipodi:nodetypes="cc"/>
        <path id="path5-19-3-5-2-0-2-6-59-2-7" style="display:inline;fill:#50fa7b;stroke:#50fa7b;stroke-width:0.325699" d="m 767.52447,263.49569 a 5.0425391,4.974821 0.32007199 0 1 -5.0702,4.94657 5.0425391,4.974821 0.32007199 0 1 -5.0147,-5.00291 5.0425391,4.974821 0.32007199 0 1 5.0703,-4.94658 5.0425391,4.974821 0.32007199 0 1 5.0146,5.00292 z"/>
        <text xml:space="preserve" style="font-size:10.6667px;font-family:'TeX Gyre Adventor';-inkscape-font-specification:'TeX Gyre Adventor';fill:#50fa7b;stroke:#50fa7b;stroke-width:0.676535;stroke-miterlimit:4.1" x="769.15796" y="272.54526" id="text4-6-7-1-6"><tspan sodipodi:role="line" id="tspan4-3-7-7-5" x="769.15796" y="272.54526" style="font-style:normal;font-variant:normal;font-weight:normal;font-stretch:normal;font-family:'Roboto Condensed';-inkscape-font-specification:'Roboto Condensed, ';fill:#50fa7b;stroke:#50fa7b">2</tspan></text>
        <path style="display:inline;fill:#f8f8f2;stroke:#f8f8f2;stroke-width:4.54895;stroke-dasharray:none;stroke-opacity:1" d="m 734.67027,195.68764 v 39.9361" id="path3-5-73-1-4-9" sodipodi:nodetypes="cc"/>
        <path id="path5-19-3-5-2-6-2-4-3" style="display:inline;fill:#f8f8f2;stroke:#f8f8f2;stroke-width:0.325699" d="m 738.21587,238.60498 a 5.0425392,4.974821 45.320072 0 1 -7.083,-0.0874 5.0425392,4.974821 45.320072 0 1 -0.01,-7.0835 5.0425392,4.974821 45.320072 0 1 7.083,0.0874 5.0425392,4.974821 45.320072 0 1 0.01,7.0835 z"/>
        <path style="display:inline;fill:#f8f8f2;stroke:#f8f8f2;stroke-width:4.54895;stroke-dasharray:none;stroke-opacity:1" d="m 734.67027,155.75154 v 39.9361" id="path3-5-73-1-4-5-2" sodipodi:nodetypes="cc"/>
        <path id="path5-19-3-5-2-6-2-4-6-3" style="display:inline;fill:#f8f8f2;stroke:#f8f8f2;stroke-width:0.325699" d="m 738.21587,198.66888 a 5.0425392,4.974821 45.320072 0 1 -7.083,-0.0875 5.0425392,4.974821 45.320072 0 1 -0.01,-7.0835 5.0425392,4.974821 45.320072 0 1 7.083,0.0874 5.0425392,4.974821 45.320072 0 1 0.01,7.0835 z"/>
      </g>
    </g>
    <g id="g29" transform="translate(0.43930309)">
      <g id="g14" transform="translate(362.93836,-120.39431)">
        <path style="display:inline;fill:#ffb86c;stroke:#ffb86c;stroke-width:4.54895;stroke-dasharray:none;stroke-opacity:1" d="M 109.14221,79.191979 V 119.12808" id="path3-5-7-2-5-6" sodipodi:nodetypes="cc"/>
        <path id="path5-19-3-5-2-0-2-6-1" style="display:inline;fill:#ffb86c;stroke:#ffb86c;stroke-width:0.325699" d="m 112.68784,122.10932 a 5.0425392,4.974821 45.320072 0 1 -7.08296,-0.0874 5.0425392,4.974821 45.320072 0 1 -0.008,-7.0835 5.0425392,4.974821 45.320072 0 1 7.08296,0.0874 5.0425392,4.974821 45.320072 0 1 0.008,7.0835 z"/>
        <text xml:space="preserve" style="font-size:10.6667px;font-family:'TeX Gyre Adventor';-inkscape-font-specification:'TeX Gyre Adventor';fill:#ffb86c;stroke:#ffb86c;stroke-width:0.676535;stroke-miterlimit:4.1" x="116.41128" y="121.95287" id="text4-9"><tspan sodipodi:role="line" id="tspan4-37" x="116.41128" y="121.95287" style="font-style:normal;font-variant:normal;font-weight:normal;font-stretch:normal;font-family:'Roboto Condensed';-inkscape-font-specification:'Roboto Condensed, ';fill:#ffb86c;stroke:#ffb86c">3</tspan></text>
      </g>
      <g id="g9" transform="translate(24.595541,0.765105)">
        <path style="display:inline;fill:#50fa7b;stroke:#50fa7b;stroke-width:4.54895;stroke-dasharray:none;stroke-opacity:1" d="m 446.7476,155.75154 v 39.9361" id="path3-5-7-2-5-4" sodipodi:nodetypes="cc"/>
        <path id="path5-19-3-5-2-0-2-6-4" style="display:inline;fill:#50fa7b;stroke:#50fa7b;stroke-width:0.325699" d="m 450.29323,198.66888 a 5.0425392,4.974821 45.320072 0 1 -7.08296,-0.0875 5.0425392,4.974821 45.320072 0 1 -0.008,-7.0835 5.0425392,4.974821 45.320072 0 1 7.08296,0.0874 5.0425392,4.974821 45.320072 0 1 0.008,7.0835 z"/>
        <text xml:space="preserve" style="font-size:10.6667px;font-family:'TeX Gyre Adventor';-inkscape-font-specification:'TeX Gyre Adventor';fill:#50fa7b;stroke:#50fa7b;stroke-width:0.676535;stroke-miterlimit:4.1" x="455.21027" y="199.50015" id="text4-6-3"><tspan sodipodi:role="line" id="tspan4-3-0" x="455.21027" y="199.50015" style="font-style:normal;font-variant:normal;font-weight:normal;font-stretch:normal;font-family:'Roboto Condensed';-inkscape-font-specification:'Roboto Condensed, ';fill:#50fa7b;stroke:#50fa7b">2</tspan></text>
        <path style="display:inline;fill:#50fa7b;stroke:#50fa7b;stroke-width:4.54895;stroke-dasharray:none;stroke-opacity:1" d="m 446.7476,195.68764 v 39.9361" id="path3-5-7-2-5-61" sodipodi:nodetypes="cc"/>
        <path id="path5-19-3-5-2-0-2-6-5" style="display:inline;fill:#50fa7b;stroke:#50fa7b;stroke-width:0.325699" d="m 450.29323,238.60498 a 5.0425392,4.974821 45.320072 0 1 -7.08296,-0.0874 5.0425392,4.974821 45.320072 0 1 -0.008,-7.0835 5.0425392,4.974821 45.320072 0 1 7.08296,0.0874 5.0425392,4.974821 45.320072 0 1 0.008,7.0835 z"/>
        <text xml:space="preserve" style="font-size:10.6667px;font-family:'TeX Gyre Adventor';-inkscape-font-specification:'TeX Gyre Adventor';fill:#50fa7b;stroke:#50fa7b;stroke-width:0.676535;stroke-miterlimit:4.1" x="455.21027" y="239.43625" id="text4-6-9"><tspan sodipodi:role="line" id="tspan4-3-4" x="455.21027" y="239.43625" style="font-style:normal;font-variant:normal;font-weight:normal;font-stretch:normal;font-family:'Roboto Condensed';-inkscape-font-specification:'Roboto Condensed, ';fill:#50fa7b;stroke:#50fa7b">-2</tspan></text>
      </g>
    </g>
    <g id="g25" transform="translate(-0.292869)">
      <g id="g17" transform="translate(40.802258,-1.611702)">
        <path style="display:inline;fill:#8be9fd;stroke:#8be9fd;stroke-width:4.54895;stroke-dasharray:none;stroke-opacity:1" d="M 152.38093,-39.590633 V 0.34546634" id="path3-5-7-2" sodipodi:nodetypes="cc"/>
        <path id="path5-19-3-5-2-0-2" style="display:inline;fill:#8be9fd;stroke:#8be9fd;stroke-width:0.325699" d="m 155.92656,3.3267068 a 5.0425392,4.974821 45.320072 0 1 -7.08296,-0.087454 5.0425392,4.974821 45.320072 0 1 -0.008,-7.083494 5.0425392,4.974821 45.320072 0 1 7.08296,0.087448 5.0425392,4.974821 45.320072 0 1 0.008,7.0835 z"/>
        <text xml:space="preserve" style="font-size:10.6667px;font-family:'TeX Gyre Adventor';-inkscape-font-specification:'TeX Gyre Adventor';fill:#8be9fd;stroke:#8be9fd;stroke-width:0.676535;stroke-miterlimit:4.1" x="161.32854" y="2.6953521" id="text4"><tspan sodipodi:role="line" id="tspan4" x="161.32854" y="2.6953521" style="font-style:normal;font-variant:normal;font-weight:normal;font-stretch:normal;font-family:'Roboto Condensed';-inkscape-font-specification:'Roboto Condensed, ';fill:#8be9fd;stroke:#8be9fd">1</tspan></text>
      </g>
      <g id="g3" transform="translate(-349.81753,197.71898)">
        <path style="display:inline;fill:#ffb86c;stroke:#ffb86c;stroke-width:4.54895;stroke-dasharray:none;stroke-opacity:1" d="M 542.93452,-1.8704745 V 38.065626" id="path3-5-7-2-5-6-6" sodipodi:nodetypes="cc"/>
        <path id="path5-19-3-5-2-0-2-6-1-2" style="display:inline;fill:#ffb86c;stroke:#ffb86c;stroke-width:0.325699" d="m 546.48015,41.046866 a 5.0425392,4.974821 45.320072 0 1 -7.08296,-0.0875 5.0425392,4.974821 45.320072 0 1 -0.008,-7.0835 5.0425392,4.974821 45.320072 0 1 7.08296,0.0874 5.0425392,4.974821 45.320072 0 1 0.008,7.0835 z"/>
        <text xml:space="preserve" style="font-size:10.6667px;font-family:'TeX Gyre Adventor';-inkscape-font-specification:'TeX Gyre Adventor';display:inline;fill:#ffb86c;stroke:#ffb86c;stroke-width:0.676535;stroke-miterlimit:4.1" x="550.20361" y="40.89043" id="text4-9-9"><tspan sodipodi:role="line" id="tspan4-37-1" x="550.20361" y="40.89043" style="font-style:normal;font-variant:normal;font-weight:normal;font-stretch:normal;font-family:'Roboto Condensed';-inkscape-font-specification:'Roboto Condensed, ';fill:#ffb86c;stroke:#ffb86c">-3</tspan></text>
        <path style="display:inline;fill:#8be9fd;stroke:#8be9fd;stroke-width:4.54895;stroke-dasharray:none;stroke-opacity:1" d="M 543.0669,-41.202335 V -1.2662345" id="path3-5-7-2-9" sodipodi:nodetypes="cc"/>
        <path id="path5-19-3-5-2-0-2-47" style="display:inline;fill:#8be9fd;stroke:#8be9fd;stroke-width:0.325699" d="m 546.61253,1.7150055 a 5.0425392,4.974821 45.320072 0 1 -7.08296,-0.0875 5.0425392,4.974821 45.320072 0 1 -0.008,-7.0835 5.0425392,4.974821 45.320072 0 1 7.08296,0.0875 5.0425392,4.974821 45.320072 0 1 0.008,7.0835 z"/>
        <text xml:space="preserve" style="font-size:10.6667px;font-family:'TeX Gyre Adventor';-inkscape-font-specification:'TeX Gyre Adventor';fill:#8be9fd;stroke:#8be9fd;stroke-width:0.676535;stroke-miterlimit:4.1" x="552.01453" y="1.0836595" id="text4-8"><tspan sodipodi:role="line" id="tspan4-45" x="552.01453" y="1.0836595" style="font-style:normal;font-variant:normal;font-weight:normal;font-stretch:normal;font-family:'Roboto Condensed';-inkscape-font-specification:'Roboto Condensed, ';fill:#8be9fd;stroke:#8be9fd">1</tspan></text>
      </g>
    </g>
    <g id="g26" transform="translate(-0.4393112)">
      <g id="g18" transform="translate(64.688026,-1.611703)">
        <path style="display:inline;fill:#8be9fd;stroke:#8be9fd;stroke-width:4.54895;stroke-dasharray:none;stroke-opacity:1" d="M 198.55832,0.34546737 V 40.281566" id="path3-5-3-2" sodipodi:nodetypes="cc"/>
        <path style="display:inline;fill:#f8f8f2;stroke:#f8f8f2;stroke-width:4.54895;stroke-dasharray:none;stroke-opacity:1" d="M 198.55832,-39.590632 V 0.34546734" id="path3-5-73" sodipodi:nodetypes="cc"/>
        <path id="path5-19-3-5-2-6" style="display:inline;fill:#f8f8f2;stroke:#f8f8f2;stroke-width:0.325699" d="m 202.10395,3.3267078 a 5.0425392,4.974821 45.320072 0 1 -7.08296,-0.087454 5.0425392,4.974821 45.320072 0 1 -0.008,-7.083494 5.0425392,4.974821 45.320072 0 1 7.08296,0.087448 5.0425392,4.974821 45.320072 0 1 0.008,7.0835 z"/>
        <path id="path5-19-3-5-2-5-9" style="display:inline;fill:#8be9fd;stroke:#8be9fd;stroke-width:0.325699" d="m 202.10395,43.262807 a 5.0425392,4.974821 45.320072 0 1 -7.08296,-0.08745 5.0425392,4.974821 45.320072 0 1 -0.008,-7.083494 5.0425392,4.974821 45.320072 0 1 7.08296,0.08745 5.0425392,4.974821 45.320072 0 1 0.008,7.0835 z"/>
        <text xml:space="preserve" style="font-size:10.6667px;font-family:'TeX Gyre Adventor';-inkscape-font-specification:'TeX Gyre Adventor';fill:#8be9fd;stroke:#8be9fd;stroke-width:0.676535;stroke-miterlimit:4.1" x="206.24742" y="44.348228" id="text4-5"><tspan sodipodi:role="line" id="tspan4-0" x="206.24742" y="44.348228" style="font-style:normal;font-variant:normal;font-weight:normal;font-stretch:normal;font-family:'Roboto Condensed';-inkscape-font-specification:'Roboto Condensed, ';fill:#8be9fd;stroke:#8be9fd">-1</tspan></text>
      </g>
      <g id="g4" transform="translate(-376.03231,197.71898)">
        <path style="display:inline;fill:#ffb86c;stroke:#ffb86c;stroke-width:4.54895;stroke-dasharray:none;stroke-opacity:1" d="m 638.88187,38.065626 v 39.9361" id="path3-5-7-2-5-6-6-5" sodipodi:nodetypes="cc"/>
        <path id="path5-19-3-5-2-0-2-6-1-2-9" style="display:inline;fill:#ffb86c;stroke:#ffb86c;stroke-width:0.325699" d="m 642.4275,80.982966 a 5.0425392,4.974821 45.320072 0 1 -7.08296,-0.0874 5.0425392,4.974821 45.320072 0 1 -0.008,-7.0835 5.0425392,4.974821 45.320072 0 1 7.08296,0.0874 5.0425392,4.974821 45.320072 0 1 0.008,7.0835 z"/>
        <text xml:space="preserve" style="font-size:10.6667px;font-family:'TeX Gyre Adventor';-inkscape-font-specification:'TeX Gyre Adventor';display:inline;fill:#ffb86c;stroke:#ffb86c;stroke-width:0.676535;stroke-miterlimit:4.1" x="646.151" y="80.826523" id="text4-9-9-2"><tspan sodipodi:role="line" id="tspan4-37-1-2" x="646.151" y="80.826523" style="font-style:normal;font-variant:normal;font-weight:normal;font-stretch:normal;font-family:'Roboto Condensed';-inkscape-font-specification:'Roboto Condensed, ';fill:#ffb86c;stroke:#ffb86c">3</tspan></text>
        <path style="display:inline;fill:#8be9fd;stroke:#8be9fd;stroke-width:4.54895;stroke-dasharray:none;stroke-opacity:1" d="M 638.88187,-1.2662345 V 38.669866" id="path3-5-3-2-6" sodipodi:nodetypes="cc"/>
        <path id="path5-19-3-5-2-5-9-1" style="display:inline;fill:#8be9fd;stroke:#8be9fd;stroke-width:0.325699" d="m 642.4275,41.651106 a 5.0425392,4.974821 45.320072 0 1 -7.08296,-0.0875 5.0425392,4.974821 45.320072 0 1 -0.008,-7.0835 5.0425392,4.974821 45.320072 0 1 7.08296,0.0874 5.0425392,4.974821 45.320072 0 1 0.008,7.0835 z"/>
        <path style="display:inline;fill:#f8f8f2;stroke:#f8f8f2;stroke-width:4.54895;stroke-dasharray:none;stroke-opacity:1" d="M 638.88187,-41.202335 V -1.2662345" id="path3-5-73-5" sodipodi:nodetypes="cc"/>
        <path id="path5-19-3-5-2-6-5" style="display:inline;fill:#f8f8f2;stroke:#f8f8f2;stroke-width:0.325699" d="m 642.4275,1.7150055 a 5.0425392,4.974821 45.320072 0 1 -7.08296,-0.0875 5.0425392,4.974821 45.320072 0 1 -0.008,-7.0835 5.0425392,4.974821 45.320072 0 1 7.08296,0.0875 5.0425392,4.974821 45.320072 0 1 0.008,7.0835 z"/>
        <text xml:space="preserve" style="font-size:10.6667px;font-family:'TeX Gyre Adventor';-inkscape-font-specification:'TeX Gyre Adventor';fill:#8be9fd;stroke:#8be9fd;stroke-width:0.676535;stroke-miterlimit:4.1" x="646.57098" y="42.73653" id="text4-5-4"><tspan sodipodi:role="line" id="tspan4-0-7" x="646.57098" y="42.73653" style="font-style:normal;font-variant:normal;font-weight:normal;font-stretch:normal;font-family:'Roboto Condensed';-inkscape-font-specification:'Roboto Condensed, ';fill:#8be9fd;stroke:#8be9fd">-1</tspan></text>
      </g>
    </g>
    <g id="g27" transform="translate(-0.19605229)">
      <g id="g19" transform="translate(75.157366,-2.447712)">
        <path style="display:inline;fill:#50fa7b;stroke:#50fa7b;stroke-width:4.54895;stroke-dasharray:none;stroke-opacity:1" d="M 256.43773,-38.754623 V 1.1814763" id="path3-5-7-2-5" sodipodi:nodetypes="cc"/>
        <path id="path5-19-3-5-2-0-2-6" style="display:inline;fill:#50fa7b;stroke:#50fa7b;stroke-width:0.325699" d="m 259.98336,4.1627168 a 5.0425392,4.974821 45.320072 0 1 -7.08296,-0.087454 5.0425392,4.974821 45.320072 0 1 -0.008,-7.083494 5.0425392,4.974821 45.320072 0 1 7.08296,0.087448 5.0425392,4.974821 45.320072 0 1 0.008,7.0835 z"/>
        <text xml:space="preserve" style="font-size:10.6667px;font-family:'TeX Gyre Adventor';-inkscape-font-specification:'TeX Gyre Adventor';fill:#50fa7b;stroke:#50fa7b;stroke-width:0.676535;stroke-miterlimit:4.1" x="264.90036" y="4.993988" id="text4-6"><tspan sodipodi:role="line" id="tspan4-3" x="264.90036" y="4.993988" style="font-style:normal;font-variant:normal;font-weight:normal;font-stretch:normal;font-family:'Roboto Condensed';-inkscape-font-specification:'Roboto Condensed, ';fill:#50fa7b;stroke:#50fa7b">2</tspan></text>
      </g>
      <g id="g5" transform="translate(-402.19752,197.71898)">
        <path style="display:inline;fill:#8be9fd;stroke:#8be9fd;stroke-width:4.54895;stroke-dasharray:none;stroke-opacity:1" d="M 734.18327,-1.8704745 V 38.065626" id="path3-5-73-1-1-4-4" sodipodi:nodetypes="cc"/>
        <path style="display:inline;fill:#50fa7b;stroke:#50fa7b;stroke-width:4.54895;stroke-dasharray:none;stroke-opacity:1" d="m 734.18327,38.065626 v 39.9361" id="path3-5-3-2-0-1-0-0" sodipodi:nodetypes="cc"/>
        <path id="path5-19-3-5-2-5-9-9-9-4-6" style="display:inline;fill:#50fa7b;stroke:#50fa7b;stroke-width:0.325699" d="m 737.72897,80.982966 a 5.0425392,4.974821 45.320072 0 1 -7.083,-0.0874 5.0425392,4.974821 45.320072 0 1 -0.01,-7.0835 5.0425392,4.974821 45.320072 0 1 7.083,0.0874 5.0425392,4.974821 45.320072 0 1 0.01,7.0835 z"/>
        <text xml:space="preserve" style="font-size:10.6667px;font-family:'TeX Gyre Adventor';-inkscape-font-specification:'TeX Gyre Adventor';fill:#50fa7b;stroke:#50fa7b;stroke-width:0.676535;stroke-miterlimit:4.1" x="741.56372" y="80.167877" id="text4-7-8-8"><tspan sodipodi:role="line" id="tspan4-8-7-9" x="741.56372" y="80.167877" style="font-style:normal;font-variant:normal;font-weight:normal;font-stretch:normal;font-family:'Roboto Condensed';-inkscape-font-specification:'Roboto Condensed, ';fill:#50fa7b;stroke:#50fa7b">2</tspan></text>
        <path id="path5-19-3-5-2-6-2-29-9-9" style="display:inline;fill:#8be9fd;stroke:#8be9fd;stroke-width:0.325699" d="m 737.72897,41.046866 a 5.0425392,4.974821 45.320072 0 1 -7.083,-0.0875 5.0425392,4.974821 45.320072 0 1 -0.01,-7.0835 5.0425392,4.974821 45.320072 0 1 7.083,0.0874 5.0425392,4.974821 45.320072 0 1 0.01,7.0835 z"/>
        <text xml:space="preserve" style="font-size:10.6667px;font-family:'TeX Gyre Adventor';-inkscape-font-specification:'TeX Gyre Adventor';fill:#8be9fd;stroke:#8be9fd;stroke-width:0.676535;stroke-miterlimit:4.1" x="740.01453" y="41.645878" id="text4-3-1-2"><tspan sodipodi:role="line" id="tspan4-1-7-6" x="740.01453" y="41.645878" style="font-style:normal;font-variant:normal;font-weight:normal;font-stretch:normal;font-family:'Roboto Condensed';-inkscape-font-specification:'Roboto Condensed, ';fill:#8be9fd;stroke:#8be9fd">-1</tspan></text>
        <path style="display:inline;fill:#8be9fd;stroke:#8be9fd;stroke-width:4.54895;stroke-dasharray:none;stroke-opacity:1" d="M 734.41277,-41.202335 V -1.2662345" id="path3-5-7-2-2" sodipodi:nodetypes="cc"/>
        <path id="path5-19-3-5-2-0-2-9" style="display:inline;fill:#8be9fd;stroke:#8be9fd;stroke-width:0.325699" d="m 737.95837,1.7150055 a 5.0425392,4.974821 45.320072 0 1 -7.0829,-0.0875 5.0425392,4.974821 45.320072 0 1 -0.01,-7.0835 5.0425392,4.974821 45.320072 0 1 7.0829,0.0875 5.0425392,4.974821 45.320072 0 1 0.01,7.0835 z"/>
        <text xml:space="preserve" style="font-size:10.6667px;font-family:'TeX Gyre Adventor';-inkscape-font-specification:'TeX Gyre Adventor';fill:#8be9fd;stroke:#8be9fd;stroke-width:0.676535;stroke-miterlimit:4.1" x="743.36035" y="1.0836595" id="text4-3-6"><tspan sodipodi:role="line" id="tspan4-1-5" x="743.36035" y="1.0836595" style="font-style:normal;font-variant:normal;font-weight:normal;font-stretch:normal;font-family:'Roboto Condensed';-inkscape-font-specification:'Roboto Condensed, ';fill:#8be9fd;stroke:#8be9fd">1</tspan></text>
      </g>
    </g>
    <g id="g24">
      <g id="g15" transform="translate(0,-3.6628029)">
        <path style="display:inline;fill:none;stroke:#f8f8f2;stroke-width:4.54895;stroke-dasharray:none;stroke-opacity:1" d="m 50.567447,-37.539532 -1e-6,39.9360993" id="path3-5-7" sodipodi:nodetypes="cc"/>
        <path id="path5-19-3-5-2-0" style="display:inline;fill:#f8f8f2;stroke-width:0.325699" d="m 54.113079,5.3778078 a 5.0425392,4.974821 45.320072 0 1 -7.082959,-0.087454 5.0425392,4.974821 45.320072 0 1 -0.0083,-7.083494 5.0425392,4.974821 45.320072 0 1 7.082964,0.087448 5.0425392,4.974821 45.320072 0 1 0.0083,7.0834998 z"/>
      </g>
      <g id="g1" transform="translate(-326.58851,197.71898)">
        <path style="display:inline;fill:#ff5555;stroke:#ff5555;stroke-width:4.54895;stroke-dasharray:none;stroke-opacity:1" d="M 377.31765,-41.202335 V -1.2662345" id="path3-5-7-2-7" sodipodi:nodetypes="cc"/>
        <path id="path5-19-3-5-2-0-2-4" style="display:inline;fill:#ff5555;stroke:#ff5555;stroke-width:0.325699" d="m 380.86328,1.7150055 a 5.0425392,4.974821 45.320072 0 1 -7.08296,-0.0875 5.0425392,4.974821 45.320072 0 1 -0.008,-7.0835 5.0425392,4.974821 45.320072 0 1 7.08296,0.0875 5.0425392,4.974821 45.320072 0 1 0.008,7.0835 z"/>
        <text xml:space="preserve" style="font-size:10.6667px;font-family:'TeX Gyre Adventor';-inkscape-font-specification:'TeX Gyre Adventor';fill:#ff5555;stroke:#ff5555;stroke-width:0.676535;stroke-miterlimit:4.1" x="386.26526" y="1.0836595" id="text4-4-7"><tspan sodipodi:role="line" id="tspan4-30" x="386.26526" y="1.0836595" style="font-style:normal;font-variant:normal;font-weight:normal;font-stretch:normal;font-family:'Roboto Condensed';-inkscape-font-specification:'Roboto Condensed, ';fill:#ff5555;stroke:#ff5555">4</tspan></text>
      </g>
    </g>
    <g id="g23" transform="translate(-0.14643419)">
      <g id="g16" transform="translate(29.710155,-3.6628029)">
        <path style="display:inline;fill:none;stroke:#f8f8f2;stroke-width:4.54895;stroke-dasharray:none;stroke-opacity:1" d="m 96.744837,-37.539532 -10e-7,39.9360993" id="path3-5" sodipodi:nodetypes="cc"/>
        <path id="path5-19-3-5-2" style="display:inline;fill:#f8f8f2;stroke-width:0.325699" d="m 100.29047,5.3778078 a 5.0425392,4.974821 45.320072 0 1 -7.08296,-0.087454 5.0425392,4.974821 45.320072 0 1 -0.0083,-7.083494 5.0425392,4.974821 45.320072 0 1 7.08296,0.087448 5.0425392,4.974821 45.320072 0 1 0.008,7.0834998 z"/>
        <path style="display:inline;fill:none;stroke:#f8f8f2;stroke-width:4.54895;stroke-dasharray:none;stroke-opacity:1" d="m 96.744837,2.3965674 -10e-7,39.9360986" id="path3-5-3" sodipodi:nodetypes="cc"/>
        <path id="path5-19-3-5-2-5" style="display:inline;fill:#f8f8f2;stroke-width:0.325699" d="m 100.29047,45.313907 a 5.0425392,4.974821 45.320072 0 1 -7.08296,-0.08745 5.0425392,4.974821 45.320072 0 1 -0.0083,-7.083494 5.0425392,4.974821 45.320072 0 1 7.08296,0.08745 5.0425392,4.974821 45.320072 0 1 0.008,7.0835 z"/>
      </g>
      <g id="g2" transform="translate(-324.53258,197.71898)">
        <path style="display:inline;fill:#ff5555;stroke:#ff5555;stroke-width:4.54895;stroke-dasharray:none;stroke-opacity:1" d="M 446.45564,-1.2662345 V 38.669866" id="path3-5-7-2-7-8" sodipodi:nodetypes="cc"/>
        <path id="path5-19-3-5-2-0-2-4-9" style="display:inline;fill:#ff5555;stroke:#ff5555;stroke-width:0.325699" d="m 450.00127,41.651106 a 5.0425392,4.974821 45.320072 0 1 -7.08296,-0.0875 5.0425392,4.974821 45.320072 0 1 -0.008,-7.0835 5.0425392,4.974821 45.320072 0 1 7.08296,0.0874 5.0425392,4.974821 45.320072 0 1 0.008,7.0835 z"/>
        <path style="display:inline;fill:#f8f8f2;stroke:#f8f8f2;stroke-width:4.54895;stroke-dasharray:none;stroke-opacity:1" d="M 446.45564,-41.202335 V -1.2662345" id="path3-5-73-4" sodipodi:nodetypes="cc"/>
        <path id="path5-19-3-5-2-6-8" style="display:inline;fill:#f8f8f2;stroke:#f8f8f2;stroke-width:0.325699" d="m 450.00127,1.7150055 a 5.0425392,4.974821 45.320072 0 1 -7.08296,-0.0875 5.0425392,4.974821 45.320072 0 1 -0.008,-7.0835 5.0425392,4.974821 45.320072 0 1 7.08296,0.0875 5.0425392,4.974821 45.320072 0 1 0.008,7.0835 z"/>
        <text xml:space="preserve" style="font-size:10.6667px;font-family:'TeX Gyre Adventor';-inkscape-font-specification:'TeX Gyre Adventor';fill:#ff5555;stroke:#ff5555;stroke-width:0.676535;stroke-miterlimit:4.1" x="455.40326" y="41.019749" id="text4-4-2"><tspan sodipodi:role="line" id="tspan4-30-6" x="455.40326" y="41.019749" style="font-style:normal;font-variant:normal;font-weight:normal;font-stretch:normal;font-family:'Roboto Condensed';-inkscape-font-specification:'Roboto Condensed, ';fill:#ff5555;stroke:#ff5555">-4</tspan></text>
      </g>
    </g>
  </g>
</svg>
