<!-- Created with Inkscape (http://www.inkscape.org/) -->
<svg xmlns:inkscape="http://www.inkscape.org/namespaces/inkscape" xmlns:sodipodi="http://sodipodi.sourceforge.net/DTD/sodipodi-0.dtd" xmlns="http://www.w3.org/2000/svg" xmlns:svg="http://www.w3.org/2000/svg" viewBox="0 0 402.19776 360.66083" version="1.1" id="svg1" inkscape:version="1.3.2 (091e20ef0f, 2023-11-25)" sodipodi:docname="4.svg">
  <sodipodi:namedview id="namedview1" pagecolor="#282a36" bordercolor="#000000" borderopacity="0.25" inkscape:showpageshadow="2" inkscape:pageopacity="0.0" inkscape:pagecheckerboard="0" inkscape:deskcolor="#44475a" inkscape:document-units="mm" showgrid="true" inkscape:zoom="3.3840016" inkscape:cx="321.21734" inkscape:cy="269.06016" inkscape:window-width="1920" inkscape:window-height="1119" inkscape:window-x="0" inkscape:window-y="0" inkscape:window-maximized="1" inkscape:current-layer="layer1" showguides="true">
    <inkscape:grid id="grid1" units="mm" originx="-37.600518" originy="-73.30632" spacingx="0.99999998" spacingy="1" empcolor="#0099e5" empopacity="0.30196078" color="#0099e5" opacity="0.14901961" empspacing="5" dotted="false" gridanglex="30" gridanglez="30" visible="true"/>
  </sodipodi:namedview>
  <defs id="defs1"/>
  <g inkscape:label="Layer 1" inkscape:groupmode="layer" id="layer1" transform="translate(-37.600526,-73.306329)">
    <path style="display:inline;fill:#50fa7b;stroke:#50fa7b;stroke-width:4.54895;stroke-dasharray:none;stroke-opacity:1" d="m 208.826,310.19629 -28.23908,28.23909" id="path3-5-3-2-0-7" sodipodi:nodetypes="cc"/>
    <path id="path5-19-3-5-2-5-9-9-6" style="display:inline;fill:#50fa7b;stroke:#50fa7b;stroke-width:0.325699" d="m 180.986,343.05058 a 4.974821,5.0425391 0.32007199 0 1 -4.94657,-5.07025 4.974821,5.0425391 0.32007199 0 1 5.00291,-5.01467 4.974821,5.0425391 0.32007199 0 1 4.94658,5.07025 4.974821,5.0425391 0.32007199 0 1 -5.00292,5.01467 z"/>
    <text xml:space="preserve" style="font-size:10.6667px;font-family:'TeX Gyre Adventor';-inkscape-font-specification:'TeX Gyre Adventor';fill:#50fa7b;stroke:#50fa7b;stroke-width:0.676535;stroke-miterlimit:4.1" x="188.05403" y="347.1178" id="text4-55-3"><tspan sodipodi:role="line" id="tspan4-4-1" x="188.05403" y="347.1178" style="font-style:normal;font-variant:normal;font-weight:normal;font-stretch:normal;font-family:'Roboto Condensed';-inkscape-font-specification:'Roboto Condensed, ';fill:#50fa7b;stroke:#50fa7b">-2</tspan></text>
    <path style="display:inline;fill:#50fa7b;stroke:#50fa7b;stroke-width:4.54895;stroke-dasharray:none;stroke-opacity:1" d="m 208.82599,310.22825 28.23909,28.23908" id="path3-5-7-2-5-1-6" sodipodi:nodetypes="cc"/>
    <path id="path5-19-3-5-2-0-2-6-59-2" style="display:inline;fill:#50fa7b;stroke:#50fa7b;stroke-width:0.325699" d="m 241.68028,338.06825 a 5.0425391,4.974821 0.32007199 0 1 -5.07025,4.94657 5.0425391,4.974821 0.32007199 0 1 -5.01467,-5.00291 5.0425391,4.974821 0.32007199 0 1 5.07025,-4.94658 5.0425391,4.974821 0.32007199 0 1 5.01467,5.00292 z"/>
    <text xml:space="preserve" style="font-size:10.6667px;font-family:'TeX Gyre Adventor';-inkscape-font-specification:'TeX Gyre Adventor';fill:#50fa7b;stroke:#50fa7b;stroke-width:0.676535;stroke-miterlimit:4.1" x="243.31372" y="347.1178" id="text4-6-7-1"><tspan sodipodi:role="line" id="tspan4-3-7-7" x="243.31372" y="347.1178" style="font-style:normal;font-variant:normal;font-weight:normal;font-stretch:normal;font-family:'Roboto Condensed';-inkscape-font-specification:'Roboto Condensed, ';fill:#50fa7b;stroke:#50fa7b">-2</tspan></text>
    <path style="display:inline;fill:#f8f8f2;stroke:#f8f8f2;stroke-width:4.54895;stroke-dasharray:none;stroke-opacity:1" d="m 208.82601,270.2602 v 39.9361" id="path3-5-73-1-4" sodipodi:nodetypes="cc"/>
    <path id="path5-19-3-5-2-6-2-4" style="display:inline;fill:#f8f8f2;stroke:#f8f8f2;stroke-width:0.325699" d="m 212.37164,313.17754 a 5.0425392,4.974821 45.320072 0 1 -7.08296,-0.0875 5.0425392,4.974821 45.320072 0 1 -0.008,-7.0835 5.0425392,4.974821 45.320072 0 1 7.08296,0.0874 5.0425392,4.974821 45.320072 0 1 0.008,7.0835 z"/>
    <path style="display:inline;fill:#ffb86c;stroke:#ffb86c;stroke-width:4.54895;stroke-dasharray:none;stroke-opacity:1" d="m 208.38764,112.63819 v 39.9361" id="path3-5-7-2-5-6-6" sodipodi:nodetypes="cc"/>
    <path id="path5-19-3-5-2-0-2-6-1-2" style="display:inline;fill:#ffb86c;stroke:#ffb86c;stroke-width:0.325699" d="m 211.93327,155.55553 a 5.0425392,4.974821 45.320072 0 1 -7.08296,-0.0875 5.0425392,4.974821 45.320072 0 1 -0.008,-7.0835 5.0425392,4.974821 45.320072 0 1 7.08296,0.0874 5.0425392,4.974821 45.320072 0 1 0.008,7.0835 z"/>
    <text xml:space="preserve" style="font-size:10.6667px;font-family:'TeX Gyre Adventor';-inkscape-font-specification:'TeX Gyre Adventor';display:inline;fill:#ffb86c;stroke:#ffb86c;stroke-width:0.676535;stroke-miterlimit:4.1" x="215.65671" y="155.39909" id="text4-9-9"><tspan sodipodi:role="line" id="tspan4-37-1" x="215.65671" y="155.39909" style="font-style:normal;font-variant:normal;font-weight:normal;font-stretch:normal;font-family:'Roboto Condensed';-inkscape-font-specification:'Roboto Condensed, ';fill:#ffb86c;stroke:#ffb86c">-3</tspan></text>
    <path style="display:inline;fill:#8be9fd;stroke:#8be9fd;stroke-width:4.54895;stroke-dasharray:none;stroke-opacity:1" d="M 208.52002,73.306329 V 113.24243" id="path3-5-7-2" sodipodi:nodetypes="cc"/>
    <path id="path5-19-3-5-2-0-2" style="display:inline;fill:#8be9fd;stroke:#8be9fd;stroke-width:0.325699" d="m 212.06565,116.22367 a 5.0425392,4.974821 45.320072 0 1 -7.08296,-0.0875 5.0425392,4.974821 45.320072 0 1 -0.008,-7.0835 5.0425392,4.974821 45.320072 0 1 7.08296,0.0875 5.0425392,4.974821 45.320072 0 1 0.008,7.0835 z"/>
    <text xml:space="preserve" style="font-size:10.6667px;font-family:'TeX Gyre Adventor';-inkscape-font-specification:'TeX Gyre Adventor';fill:#8be9fd;stroke:#8be9fd;stroke-width:0.676535;stroke-miterlimit:4.1" x="217.46762" y="115.59232" id="text4"><tspan sodipodi:role="line" id="tspan4" x="217.46762" y="115.59232" style="font-style:normal;font-variant:normal;font-weight:normal;font-stretch:normal;font-family:'Roboto Condensed';-inkscape-font-specification:'Roboto Condensed, ';fill:#8be9fd;stroke:#8be9fd">1</tspan></text>
    <path style="display:inline;fill:#50fa7b;stroke:#50fa7b;stroke-width:4.54895;stroke-dasharray:none;stroke-opacity:1" d="m 303.40515,310.1963 v 39.9361" id="path3-5-3-2-0" sodipodi:nodetypes="cc"/>
    <path id="path5-19-3-5-2-5-9-9" style="display:inline;fill:#50fa7b;stroke:#50fa7b;stroke-width:0.325699" d="m 306.95078,353.11364 a 5.0425392,4.974821 45.320072 0 1 -7.08296,-0.0874 5.0425392,4.974821 45.320072 0 1 -0.008,-7.0835 5.0425392,4.974821 45.320072 0 1 7.08296,0.0874 5.0425392,4.974821 45.320072 0 1 0.008,7.0835 z"/>
    <path style="display:inline;fill:#f8f8f2;stroke:#f8f8f2;stroke-width:4.54895;stroke-dasharray:none;stroke-opacity:1" d="m 303.40515,270.2602 v 39.9361" id="path3-5-73-1" sodipodi:nodetypes="cc"/>
    <path id="path5-19-3-5-2-6-2" style="display:inline;fill:#f8f8f2;stroke:#f8f8f2;stroke-width:0.325699" d="m 306.95078,313.17754 a 5.0425392,4.974821 45.320072 0 1 -7.08296,-0.0875 5.0425392,4.974821 45.320072 0 1 -0.008,-7.0835 5.0425392,4.974821 45.320072 0 1 7.08296,0.0874 5.0425392,4.974821 45.320072 0 1 0.008,7.0835 z"/>
    <text xml:space="preserve" style="font-size:10.6667px;font-family:'TeX Gyre Adventor';-inkscape-font-specification:'TeX Gyre Adventor';fill:#50fa7b;stroke:#50fa7b;stroke-width:0.676535;stroke-miterlimit:4.1" x="311.3241" y="350.22827" id="text4-55"><tspan sodipodi:role="line" id="tspan4-4" x="311.3241" y="350.22827" style="font-style:normal;font-variant:normal;font-weight:normal;font-stretch:normal;font-family:'Roboto Condensed';-inkscape-font-specification:'Roboto Condensed, ';fill:#50fa7b;stroke:#50fa7b">-2</tspan></text>
    <path style="display:inline;fill:#50fa7b;stroke:#50fa7b;stroke-width:4.54895;stroke-dasharray:none;stroke-opacity:1" d="m 303.79003,349.01482 v 39.9361" id="path3-5-7-2-5-1" sodipodi:nodetypes="cc"/>
    <path id="path5-19-3-5-2-0-2-6-59" style="display:inline;fill:#50fa7b;stroke:#50fa7b;stroke-width:0.325699" d="m 307.33566,391.93216 a 5.0425392,4.974821 45.320072 0 1 -7.08296,-0.0874 5.0425392,4.974821 45.320072 0 1 -0.008,-7.0835 5.0425392,4.974821 45.320072 0 1 7.08296,0.0874 5.0425392,4.974821 45.320072 0 1 0.008,7.0835 z"/>
    <text xml:space="preserve" style="font-size:10.6667px;font-family:'TeX Gyre Adventor';-inkscape-font-specification:'TeX Gyre Adventor';fill:#50fa7b;stroke:#50fa7b;stroke-width:0.676535;stroke-miterlimit:4.1" x="312.25266" y="392.76343" id="text4-6-7"><tspan sodipodi:role="line" id="tspan4-3-7" x="312.25266" y="392.76343" style="font-style:normal;font-variant:normal;font-weight:normal;font-stretch:normal;font-family:'Roboto Condensed';-inkscape-font-specification:'Roboto Condensed, ';fill:#50fa7b;stroke:#50fa7b">2</tspan></text>
    <path style="display:inline;fill:#ffb86c;stroke:#ffb86c;stroke-width:4.54895;stroke-dasharray:none;stroke-opacity:1" d="m 304.33499,152.57429 v 39.9361" id="path3-5-7-2-5-6-6-5" sodipodi:nodetypes="cc"/>
    <path id="path5-19-3-5-2-0-2-6-1-2-9" style="display:inline;fill:#ffb86c;stroke:#ffb86c;stroke-width:0.325699" d="m 307.88062,195.49163 a 5.0425392,4.974821 45.320072 0 1 -7.08296,-0.0874 5.0425392,4.974821 45.320072 0 1 -0.008,-7.0835 5.0425392,4.974821 45.320072 0 1 7.08296,0.0874 5.0425392,4.974821 45.320072 0 1 0.008,7.0835 z"/>
    <text xml:space="preserve" style="font-size:10.6667px;font-family:'TeX Gyre Adventor';-inkscape-font-specification:'TeX Gyre Adventor';display:inline;fill:#ffb86c;stroke:#ffb86c;stroke-width:0.676535;stroke-miterlimit:4.1" x="311.60406" y="195.33519" id="text4-9-9-2"><tspan sodipodi:role="line" id="tspan4-37-1-2" x="311.60406" y="195.33519" style="font-style:normal;font-variant:normal;font-weight:normal;font-stretch:normal;font-family:'Roboto Condensed';-inkscape-font-specification:'Roboto Condensed, ';fill:#ffb86c;stroke:#ffb86c">3</tspan></text>
    <path style="display:inline;fill:#8be9fd;stroke:#8be9fd;stroke-width:4.54895;stroke-dasharray:none;stroke-opacity:1" d="m 304.33499,113.24243 v 39.9361" id="path3-5-3-2" sodipodi:nodetypes="cc"/>
    <path id="path5-19-3-5-2-5-9" style="display:inline;fill:#8be9fd;stroke:#8be9fd;stroke-width:0.325699" d="m 307.88062,156.15977 a 5.0425392,4.974821 45.320072 0 1 -7.08296,-0.0875 5.0425392,4.974821 45.320072 0 1 -0.008,-7.0835 5.0425392,4.974821 45.320072 0 1 7.08296,0.0874 5.0425392,4.974821 45.320072 0 1 0.008,7.0835 z"/>
    <path style="display:inline;fill:#f8f8f2;stroke:#f8f8f2;stroke-width:4.54895;stroke-dasharray:none;stroke-opacity:1" d="M 304.33499,73.306329 V 113.24243" id="path3-5-73" sodipodi:nodetypes="cc"/>
    <path id="path5-19-3-5-2-6" style="display:inline;fill:#f8f8f2;stroke:#f8f8f2;stroke-width:0.325699" d="m 307.88062,116.22367 a 5.0425392,4.974821 45.320072 0 1 -7.08296,-0.0875 5.0425392,4.974821 45.320072 0 1 -0.008,-7.0835 5.0425392,4.974821 45.320072 0 1 7.08296,0.0875 5.0425392,4.974821 45.320072 0 1 0.008,7.0835 z"/>
    <text xml:space="preserve" style="font-size:10.6667px;font-family:'TeX Gyre Adventor';-inkscape-font-specification:'TeX Gyre Adventor';fill:#8be9fd;stroke:#8be9fd;stroke-width:0.676535;stroke-miterlimit:4.1" x="312.02408" y="157.24519" id="text4-5"><tspan sodipodi:role="line" id="tspan4-0" x="312.02408" y="157.24519" style="font-style:normal;font-variant:normal;font-weight:normal;font-stretch:normal;font-family:'Roboto Condensed';-inkscape-font-specification:'Roboto Condensed, ';fill:#8be9fd;stroke:#8be9fd">-1</tspan></text>
    <path style="display:inline;fill:#8be9fd;stroke:#8be9fd;stroke-width:4.54895;stroke-dasharray:none;stroke-opacity:1" d="m 399.63642,112.63819 v 39.9361" id="path3-5-73-1-1-4-4" sodipodi:nodetypes="cc"/>
    <path style="display:inline;fill:#50fa7b;stroke:#50fa7b;stroke-width:4.54895;stroke-dasharray:none;stroke-opacity:1" d="m 399.63642,152.57429 v 39.9361" id="path3-5-3-2-0-1-0-0" sodipodi:nodetypes="cc"/>
    <path id="path5-19-3-5-2-5-9-9-9-4-6" style="display:inline;fill:#50fa7b;stroke:#50fa7b;stroke-width:0.325699" d="m 403.18205,195.49163 a 5.0425392,4.974821 45.320072 0 1 -7.08296,-0.0874 5.0425392,4.974821 45.320072 0 1 -0.008,-7.0835 5.0425392,4.974821 45.320072 0 1 7.08296,0.0874 5.0425392,4.974821 45.320072 0 1 0.008,7.0835 z"/>
    <text xml:space="preserve" style="font-size:10.6667px;font-family:'TeX Gyre Adventor';-inkscape-font-specification:'TeX Gyre Adventor';fill:#50fa7b;stroke:#50fa7b;stroke-width:0.676535;stroke-miterlimit:4.1" x="407.01682" y="194.67654" id="text4-7-8-8"><tspan sodipodi:role="line" id="tspan4-8-7-9" x="407.01682" y="194.67654" style="font-style:normal;font-variant:normal;font-weight:normal;font-stretch:normal;font-family:'Roboto Condensed';-inkscape-font-specification:'Roboto Condensed, ';fill:#50fa7b;stroke:#50fa7b">2</tspan></text>
    <path id="path5-19-3-5-2-6-2-29-9-9" style="display:inline;fill:#8be9fd;stroke:#8be9fd;stroke-width:0.325699" d="m 403.18205,155.55553 a 5.0425392,4.974821 45.320072 0 1 -7.08296,-0.0875 5.0425392,4.974821 45.320072 0 1 -0.008,-7.0835 5.0425392,4.974821 45.320072 0 1 7.08296,0.0874 5.0425392,4.974821 45.320072 0 1 0.008,7.0835 z"/>
    <text xml:space="preserve" style="font-size:10.6667px;font-family:'TeX Gyre Adventor';-inkscape-font-specification:'TeX Gyre Adventor';fill:#8be9fd;stroke:#8be9fd;stroke-width:0.676535;stroke-miterlimit:4.1" x="405.46759" y="156.15454" id="text4-3-1-2"><tspan sodipodi:role="line" id="tspan4-1-7-6" x="405.46759" y="156.15454" style="font-style:normal;font-variant:normal;font-weight:normal;font-stretch:normal;font-family:'Roboto Condensed';-inkscape-font-specification:'Roboto Condensed, ';fill:#8be9fd;stroke:#8be9fd">-1</tspan></text>
    <path style="display:inline;fill:#8be9fd;stroke:#8be9fd;stroke-width:4.54895;stroke-dasharray:none;stroke-opacity:1" d="M 399.8659,73.306329 V 113.24243" id="path3-5-7-2-2" sodipodi:nodetypes="cc"/>
    <path id="path5-19-3-5-2-0-2-9" style="display:inline;fill:#8be9fd;stroke:#8be9fd;stroke-width:0.325699" d="m 403.41153,116.22367 a 5.0425392,4.974821 45.320072 0 1 -7.08296,-0.0875 5.0425392,4.974821 45.320072 0 1 -0.008,-7.0835 5.0425392,4.974821 45.320072 0 1 7.08296,0.0875 5.0425392,4.974821 45.320072 0 1 0.008,7.0835 z"/>
    <text xml:space="preserve" style="font-size:10.6667px;font-family:'TeX Gyre Adventor';-inkscape-font-specification:'TeX Gyre Adventor';fill:#8be9fd;stroke:#8be9fd;stroke-width:0.676535;stroke-miterlimit:4.1" x="408.81351" y="115.59232" id="text4-3"><tspan sodipodi:role="line" id="tspan4-1" x="408.81351" y="115.59232" style="font-style:normal;font-variant:normal;font-weight:normal;font-stretch:normal;font-family:'Roboto Condensed';-inkscape-font-specification:'Roboto Condensed, ';fill:#8be9fd;stroke:#8be9fd">1</tspan></text>
    <path style="display:inline;fill:#50fa7b;stroke:#50fa7b;stroke-width:4.54895;stroke-dasharray:none;stroke-opacity:1" d="m 400.12333,350.1324 -28.23908,28.23909" id="path3-5-3-2-0-7-3" sodipodi:nodetypes="cc"/>
    <path id="path5-19-3-5-2-5-9-9-6-2" style="display:inline;fill:#50fa7b;stroke:#50fa7b;stroke-width:0.325699" d="m 372.28333,382.98669 a 4.974821,5.0425391 0.32007199 0 1 -4.94657,-5.07025 4.974821,5.0425391 0.32007199 0 1 5.00291,-5.01467 4.974821,5.0425391 0.32007199 0 1 4.94658,5.07025 4.974821,5.0425391 0.32007199 0 1 -5.00292,5.01467 z"/>
    <text xml:space="preserve" style="font-size:10.6667px;font-family:'TeX Gyre Adventor';-inkscape-font-specification:'TeX Gyre Adventor';fill:#50fa7b;stroke:#50fa7b;stroke-width:0.676535;stroke-miterlimit:4.1" x="379.35135" y="387.05392" id="text4-55-3-0"><tspan sodipodi:role="line" id="tspan4-4-1-6" x="379.35135" y="387.05392" style="font-style:normal;font-variant:normal;font-weight:normal;font-stretch:normal;font-family:'Roboto Condensed';-inkscape-font-specification:'Roboto Condensed, ';fill:#50fa7b;stroke:#50fa7b">2</tspan></text>
    <path style="display:inline;fill:#50fa7b;stroke:#50fa7b;stroke-width:4.54895;stroke-dasharray:none;stroke-opacity:1" d="m 400.12332,350.16435 28.23909,28.23908" id="path3-5-7-2-5-1-6-4" sodipodi:nodetypes="cc"/>
    <path id="path5-19-3-5-2-0-2-6-59-2-7" style="display:inline;fill:#50fa7b;stroke:#50fa7b;stroke-width:0.325699" d="m 432.97761,378.00435 a 5.0425391,4.974821 0.32007199 0 1 -5.07025,4.94657 5.0425391,4.974821 0.32007199 0 1 -5.01467,-5.00291 5.0425391,4.974821 0.32007199 0 1 5.07025,-4.94658 5.0425391,4.974821 0.32007199 0 1 5.01467,5.00292 z"/>
    <text xml:space="preserve" style="font-size:10.6667px;font-family:'TeX Gyre Adventor';-inkscape-font-specification:'TeX Gyre Adventor';fill:#50fa7b;stroke:#50fa7b;stroke-width:0.676535;stroke-miterlimit:4.1" x="434.61105" y="387.05392" id="text4-6-7-1-6"><tspan sodipodi:role="line" id="tspan4-3-7-7-5" x="434.61105" y="387.05392" style="font-style:normal;font-variant:normal;font-weight:normal;font-stretch:normal;font-family:'Roboto Condensed';-inkscape-font-specification:'Roboto Condensed, ';fill:#50fa7b;stroke:#50fa7b">2</tspan></text>
    <path style="display:inline;fill:#f8f8f2;stroke:#f8f8f2;stroke-width:4.54895;stroke-dasharray:none;stroke-opacity:1" d="m 400.12334,310.1963 v 39.9361" id="path3-5-73-1-4-9" sodipodi:nodetypes="cc"/>
    <path id="path5-19-3-5-2-6-2-4-3" style="display:inline;fill:#f8f8f2;stroke:#f8f8f2;stroke-width:0.325699" d="m 403.66897,353.11364 a 5.0425392,4.974821 45.320072 0 1 -7.08296,-0.0874 5.0425392,4.974821 45.320072 0 1 -0.008,-7.0835 5.0425392,4.974821 45.320072 0 1 7.08296,0.0874 5.0425392,4.974821 45.320072 0 1 0.008,7.0835 z"/>
    <path style="display:inline;fill:#f8f8f2;stroke:#f8f8f2;stroke-width:4.54895;stroke-dasharray:none;stroke-opacity:1" d="m 400.12334,270.2602 v 39.9361" id="path3-5-73-1-4-5-2" sodipodi:nodetypes="cc"/>
    <path id="path5-19-3-5-2-6-2-4-6-3" style="display:inline;fill:#f8f8f2;stroke:#f8f8f2;stroke-width:0.325699" d="m 403.66897,313.17754 a 5.0425392,4.974821 45.320072 0 1 -7.08296,-0.0875 5.0425392,4.974821 45.320072 0 1 -0.008,-7.0835 5.0425392,4.974821 45.320072 0 1 7.08296,0.0874 5.0425392,4.974821 45.320072 0 1 0.008,7.0835 z"/>
    <path style="display:inline;fill:#50fa7b;stroke:#50fa7b;stroke-width:4.54895;stroke-dasharray:none;stroke-opacity:1" d="m 43.603847,389.46426 -1e-6,39.9361" id="path3-5-3-2-0-1-0" sodipodi:nodetypes="cc"/>
    <path id="path5-19-3-5-2-5-9-9-9-4" style="display:inline;fill:#50fa7b;stroke:#50fa7b;stroke-width:0.325699" d="m 47.149479,432.3816 a 5.0425392,4.974821 45.320072 0 1 -7.082959,-0.0874 5.0425392,4.974821 45.320072 0 1 -0.0083,-7.0835 5.0425392,4.974821 45.320072 0 1 7.082964,0.0874 5.0425392,4.974821 45.320072 0 1 0.0083,7.0835 z"/>
    <path style="display:inline;fill:#8be9fd;stroke:#8be9fd;stroke-width:4.54895;stroke-dasharray:none;stroke-opacity:1" d="m 43.603847,349.52816 -1e-6,39.9361" id="path3-5-73-1-1-4" sodipodi:nodetypes="cc"/>
    <path id="path5-19-3-5-2-6-2-29-9" style="display:inline;fill:#8be9fd;stroke:#8be9fd;stroke-width:0.325699" d="m 47.149479,392.4455 a 5.0425392,4.974821 45.320072 0 1 -7.082959,-0.0874 5.0425392,4.974821 45.320072 0 1 -0.0083,-7.0835 5.0425392,4.974821 45.320072 0 1 7.082964,0.0875 5.0425392,4.974821 45.320072 0 1 0.0083,7.0835 z"/>
    <text xml:space="preserve" style="font-size:10.6667px;font-family:'TeX Gyre Adventor';-inkscape-font-specification:'TeX Gyre Adventor';fill:#50fa7b;stroke:#50fa7b;stroke-width:0.676535;stroke-miterlimit:4.1" x="50.984253" y="431.56653" id="text4-7-8"><tspan sodipodi:role="line" id="tspan4-8-7" x="50.984253" y="431.56653" style="font-style:normal;font-variant:normal;font-weight:normal;font-stretch:normal;font-family:'Roboto Condensed';-inkscape-font-specification:'Roboto Condensed, ';fill:#50fa7b;stroke:#50fa7b">-2</tspan></text>
    <text xml:space="preserve" style="font-size:10.6667px;font-family:'TeX Gyre Adventor';-inkscape-font-specification:'TeX Gyre Adventor';fill:#8be9fd;stroke:#8be9fd;stroke-width:0.676535;stroke-miterlimit:4.1" x="49.435013" y="393.04453" id="text4-3-1"><tspan sodipodi:role="line" id="tspan4-1-7" x="49.435013" y="393.04453" style="font-style:normal;font-variant:normal;font-weight:normal;font-stretch:normal;font-family:'Roboto Condensed';-inkscape-font-specification:'Roboto Condensed, ';fill:#8be9fd;stroke:#8be9fd">1</tspan></text>
    <path style="display:inline;fill:#8be9fd;stroke:#8be9fd;stroke-width:4.54895;stroke-dasharray:none;stroke-opacity:1" d="m 43.603847,310.1963 -1e-6,39.9361" id="path3-5-3-2-03" sodipodi:nodetypes="cc"/>
    <path id="path5-19-3-5-2-5-9-6" style="display:inline;fill:#8be9fd;stroke:#8be9fd;stroke-width:0.325699" d="m 47.149479,353.11364 a 5.0425392,4.974821 45.320072 0 1 -7.082959,-0.0874 5.0425392,4.974821 45.320072 0 1 -0.0083,-7.0835 5.0425392,4.974821 45.320072 0 1 7.082964,0.0874 5.0425392,4.974821 45.320072 0 1 0.0083,7.0835 z"/>
    <path style="display:inline;fill:#f8f8f2;stroke:#f8f8f2;stroke-width:4.54895;stroke-dasharray:none;stroke-opacity:1" d="m 43.603847,270.2602 -1e-6,39.9361" id="path3-5-73-8" sodipodi:nodetypes="cc"/>
    <path id="path5-19-3-5-2-6-4" style="display:inline;fill:#f8f8f2;stroke:#f8f8f2;stroke-width:0.325699" d="m 47.149479,313.17754 a 5.0425392,4.974821 45.320072 0 1 -7.082959,-0.0875 5.0425392,4.974821 45.320072 0 1 -0.0083,-7.0835 5.0425392,4.974821 45.320072 0 1 7.082964,0.0874 5.0425392,4.974821 45.320072 0 1 0.0083,7.0835 z"/>
    <text xml:space="preserve" style="font-size:10.6667px;font-family:'TeX Gyre Adventor';-inkscape-font-specification:'TeX Gyre Adventor';fill:#8be9fd;stroke:#8be9fd;stroke-width:0.676535;stroke-miterlimit:4.1" x="51.292961" y="354.19907" id="text4-5-1"><tspan sodipodi:role="line" id="tspan4-0-0" x="51.292961" y="354.19907" style="font-style:normal;font-variant:normal;font-weight:normal;font-stretch:normal;font-family:'Roboto Condensed';-inkscape-font-specification:'Roboto Condensed, ';fill:#8be9fd;stroke:#8be9fd">-1</tspan></text>
    <path style="display:inline;fill:#ff5555;stroke:#ff5555;stroke-width:4.54895;stroke-dasharray:none;stroke-opacity:1" d="m 42.770767,73.306329 -10e-7,39.936101" id="path3-5-7-2-7" sodipodi:nodetypes="cc"/>
    <path id="path5-19-3-5-2-0-2-4" style="display:inline;fill:#ff5555;stroke:#ff5555;stroke-width:0.325699" d="m 46.316399,116.22367 a 5.0425392,4.974821 45.320072 0 1 -7.082959,-0.0875 5.0425392,4.974821 45.320072 0 1 -0.0083,-7.0835 5.0425392,4.974821 45.320072 0 1 7.082964,0.0875 5.0425392,4.974821 45.320072 0 1 0.0083,7.0835 z"/>
    <text xml:space="preserve" style="font-size:10.6667px;font-family:'TeX Gyre Adventor';-inkscape-font-specification:'TeX Gyre Adventor';fill:#ff5555;stroke:#ff5555;stroke-width:0.676535;stroke-miterlimit:4.1" x="51.718376" y="115.59232" id="text4-4"><tspan sodipodi:role="line" id="tspan4-30" x="51.718376" y="115.59232" style="font-style:normal;font-variant:normal;font-weight:normal;font-stretch:normal;font-family:'Roboto Condensed';-inkscape-font-specification:'Roboto Condensed, ';fill:#ff5555;stroke:#ff5555">4</tspan></text>
    <path style="display:inline;fill:#50fa7b;stroke:#50fa7b;stroke-width:4.54895;stroke-dasharray:none;stroke-opacity:1" d="m 112.20072,270.2602 v 39.9361" id="path3-5-7-2-5" sodipodi:nodetypes="cc"/>
    <path id="path5-19-3-5-2-0-2-6" style="display:inline;fill:#50fa7b;stroke:#50fa7b;stroke-width:0.325699" d="m 115.74635,313.17754 a 5.0425392,4.974821 45.320072 0 1 -7.08296,-0.0875 5.0425392,4.974821 45.320072 0 1 -0.008,-7.0835 5.0425392,4.974821 45.320072 0 1 7.08296,0.0874 5.0425392,4.974821 45.320072 0 1 0.008,7.0835 z"/>
    <text xml:space="preserve" style="font-size:10.6667px;font-family:'TeX Gyre Adventor';-inkscape-font-specification:'TeX Gyre Adventor';fill:#50fa7b;stroke:#50fa7b;stroke-width:0.676535;stroke-miterlimit:4.1" x="120.66335" y="314.00882" id="text4-6"><tspan sodipodi:role="line" id="tspan4-3" x="120.66335" y="314.00882" style="font-style:normal;font-variant:normal;font-weight:normal;font-stretch:normal;font-family:'Roboto Condensed';-inkscape-font-specification:'Roboto Condensed, ';fill:#50fa7b;stroke:#50fa7b">2</tspan></text>
    <path style="display:inline;fill:#50fa7b;stroke:#50fa7b;stroke-width:4.54895;stroke-dasharray:none;stroke-opacity:1" d="m 112.20072,310.1963 v 39.9361" id="path3-5-7-2-5-61" sodipodi:nodetypes="cc"/>
    <path id="path5-19-3-5-2-0-2-6-5" style="display:inline;fill:#50fa7b;stroke:#50fa7b;stroke-width:0.325699" d="m 115.74635,353.11364 a 5.0425392,4.974821 45.320072 0 1 -7.08296,-0.0874 5.0425392,4.974821 45.320072 0 1 -0.008,-7.0835 5.0425392,4.974821 45.320072 0 1 7.08296,0.0874 5.0425392,4.974821 45.320072 0 1 0.008,7.0835 z"/>
    <text xml:space="preserve" style="font-size:10.6667px;font-family:'TeX Gyre Adventor';-inkscape-font-specification:'TeX Gyre Adventor';fill:#50fa7b;stroke:#50fa7b;stroke-width:0.676535;stroke-miterlimit:4.1" x="120.66335" y="353.94492" id="text4-6-9"><tspan sodipodi:role="line" id="tspan4-3-4" x="120.66335" y="353.94492" style="font-style:normal;font-variant:normal;font-weight:normal;font-stretch:normal;font-family:'Roboto Condensed';-inkscape-font-specification:'Roboto Condensed, ';fill:#50fa7b;stroke:#50fa7b">-2</tspan></text>
    <path style="display:inline;fill:#ff5555;stroke:#ff5555;stroke-width:4.54895;stroke-dasharray:none;stroke-opacity:1" d="m 111.90876,113.24243 v 39.9361" id="path3-5-7-2-7-8" sodipodi:nodetypes="cc"/>
    <path id="path5-19-3-5-2-0-2-4-9" style="display:inline;fill:#ff5555;stroke:#ff5555;stroke-width:0.325699" d="m 115.45439,156.15977 a 5.0425392,4.974821 45.320072 0 1 -7.08296,-0.0875 5.0425392,4.974821 45.320072 0 1 -0.008,-7.0835 5.0425392,4.974821 45.320072 0 1 7.08296,0.0874 5.0425392,4.974821 45.320072 0 1 0.008,7.0835 z"/>
    <path style="display:inline;fill:#f8f8f2;stroke:#f8f8f2;stroke-width:4.54895;stroke-dasharray:none;stroke-opacity:1" d="M 111.90876,73.306329 V 113.24243" id="path3-5-73-4" sodipodi:nodetypes="cc"/>
    <path id="path5-19-3-5-2-6-8" style="display:inline;fill:#f8f8f2;stroke:#f8f8f2;stroke-width:0.325699" d="m 115.45439,116.22367 a 5.0425392,4.974821 45.320072 0 1 -7.08296,-0.0875 5.0425392,4.974821 45.320072 0 1 -0.008,-7.0835 5.0425392,4.974821 45.320072 0 1 7.08296,0.0875 5.0425392,4.974821 45.320072 0 1 0.008,7.0835 z"/>
    <text xml:space="preserve" style="font-size:10.6667px;font-family:'TeX Gyre Adventor';-inkscape-font-specification:'TeX Gyre Adventor';fill:#ff5555;stroke:#ff5555;stroke-width:0.676535;stroke-miterlimit:4.1" x="120.85636" y="155.52841" id="text4-4-2"><tspan sodipodi:role="line" id="tspan4-30-6" x="120.85636" y="155.52841" style="font-style:normal;font-variant:normal;font-weight:normal;font-stretch:normal;font-family:'Roboto Condensed';-inkscape-font-specification:'Roboto Condensed, ';fill:#ff5555;stroke:#ff5555">-4</tspan></text>
  </g>
</svg>
