<svg xmlns:inkscape="http://www.inkscape.org/namespaces/inkscape" xmlns:sodipodi="http://sodipodi.sourceforge.net/DTD/sodipodi-0.dtd" xmlns="http://www.w3.org/2000/svg" xmlns:svg="http://www.w3.org/2000/svg" version="1.1" x="0px" y="0px" viewBox="0 0 70.091003 91" enable-background="new 0 0 100 100" xml:space="preserve" id="svg4" sodipodi:docname="ornament.svg"><defs id="defs4"/><sodipodi:namedview id="namedview4" pagecolor="#ffffff" bordercolor="#000000" borderopacity="0.25" inkscape:showpageshadow="2" inkscape:pageopacity="0.0" inkscape:pagecheckerboard="0" inkscape:deskcolor="#d1d1d1"/>
    <path style="fill:#ff5555;stroke:#ff5555" d="M 35.045,90.5 C 15.997,90.5 0.5,75.003 0.5,55.954 0.5,36.906 15.997,21.409 35.045,21.409 c 19.048,0 34.546,15.497 34.546,34.545 0,19.049 -15.498,34.546 -34.546,34.546 z m 0,-63.637 c -16.041,0 -29.091,13.051 -29.091,29.091 0,16.041 13.05,29.092 29.091,29.092 16.041,0 29.091,-13.051 29.091,-29.092 0,-16.04 -13.051,-29.091 -29.091,-29.091 z" id="path1">
    </path>
    <path style="fill:#ff5555;stroke:#ff5555" d="m 35.125,80.5 c -1.004,0 -1.818,-0.814 -1.818,-1.818 0,-1.004 0.814,-1.818 1.818,-1.818 11.529,0 20.91,-9.379 20.91,-20.909 0,-1.004 0.813,-1.817 1.818,-1.817 1.004,0 1.817,0.813 1.817,1.817 0,13.534 -11.011,24.545 -24.545,24.545 z" id="path2">
    </path>
    <path style="fill:#f1fa8c;stroke:#f1fa8c" d="M 45.069,11.573 C 34.16,7.606 25.222,11.476 24.847,11.644 c -0.985,0.438 -1.62,1.414 -1.62,2.492 v 10.909 c 0,1.506 1.221,2.727 2.728,2.727 1.506,0 2.727,-1.221 2.727,-2.727 v -0.137 l 12.741,-0.637 c 0.073,1.441 1.254,2.591 2.714,2.591 1.507,0 2.728,-1.221 2.728,-2.727 v -10 c -0.002,-1.146 -0.719,-2.17 -1.796,-2.562 z" id="path3">
    </path>
    <path style="fill:#f1fa8c;stroke:#f1fa8c" d="m 39.592,14.137 c -0.107,0 -0.216,-0.01 -0.326,-0.029 -0.987,-0.18 -1.643,-1.125 -1.464,-2.111 v 0 c 0.23,-1.294 0.568,-5.371 -0.863,-7.081 -0.28,-0.335 -0.78,-0.778 -1.894,-0.778 -1.113,0 -1.614,0.443 -1.894,0.778 -1.432,1.71 -1.094,5.787 -0.863,7.081 0.177,0.987 -0.479,1.933 -1.467,2.11 C 29.829,14.285 28.889,13.63 28.71,12.644 28.587,11.964 27.584,5.911 30.356,2.587 31.496,1.222 33.117,0.5 35.044,0.5 c 1.927,0 3.549,0.722 4.689,2.087 2.773,3.323 1.771,9.377 1.646,10.057 -0.159,0.877 -0.925,1.493 -1.787,1.493 z" id="path4">
    </path>
</svg>
