<?xml version="1.0" encoding="UTF-8" standalone="no"?>
<!DOCTYPE svg PUBLIC "-//W3C//DTD SVG 1.1//EN" "http://www.w3.org/Graphics/SVG/1.1/DTD/svg11.dtd">
<!-- Created with Vectornator (http://vectornator.io/) -->
<svg height="100%" stroke-miterlimit="10" style="fill-rule:nonzero;clip-rule:evenodd;stroke-linecap:round;stroke-linejoin:round;" version="1.1" viewBox="0 0 500 500" width="100%" xml:space="preserve" xmlns="http://www.w3.org/2000/svg" xmlns:vectornator="http://vectornator.io" xmlns:xlink="http://www.w3.org/1999/xlink">
<defs/>
<clipPath id="ArtboardFrame">
<rect height="500" width="500" x="0" y="0"/>
</clipPath>
<g clip-path="url(#ArtboardFrame)" id="Layer-1" vectornator:layerName="Layer 1">
<path d="M0.895237 1.1522C6.37018-1.58527 141.215 342.204 302.69 342.204" fill="none" opacity="1" stroke="#ffb86c" stroke-linecap="round" stroke-linejoin="round" stroke-width="14"/>
<path d="M302.69 342.204C461.684 342.204 463.647 156.711 301.708 156.221" fill="none" opacity="1" stroke="#ffb86c" stroke-linecap="round" stroke-linejoin="round" stroke-width="14"/>
</g>
<g clip-path="url(#ArtboardFrame)" id="Layer-2" vectornator:layerName="Layer 2">
<clipPath id="ClipPath">
<path d="M-15.4654 37.7522C-17.6997 47.1359 99.6175 260.997 99.6175 260.997L121.32 262.201L160.478 300.572L201.218 260.799L141.259 201.878L292.803 48.98L512.705 178.955L313.128 331.162L-118.5 660.341L107.417-76.1932L-107.962-50.2762C-107.962-50.2762-13.2312 28.3684-15.4654 37.7522Z"/>
</clipPath>
<g clip-path="url(#ClipPath)">
<path d="M301.708 156.221C159.876 155.791-2.15279 495.578 0.254223 500.393" fill="none" opacity="1" stroke="#ffb86c" stroke-linecap="round" stroke-linejoin="round" stroke-width="14"/>
</g>
</g>
</svg>
