<?xml version="1.0" encoding="UTF-8" standalone="no"?>
<!DOCTYPE svg PUBLIC "-//W3C//DTD SVG 1.1//EN" "http://www.w3.org/Graphics/SVG/1.1/DTD/svg11.dtd">
<!-- Created with Vectornator (http://vectornator.io/) -->
<svg height="100%" stroke-miterlimit="10" style="fill-rule:nonzero;clip-rule:evenodd;stroke-linecap:round;stroke-linejoin:round;" version="1.1" viewBox="0 0 610 480" width="100%" xml:space="preserve" xmlns="http://www.w3.org/2000/svg" xmlns:vectornator="http://vectornator.io" xmlns:xlink="http://www.w3.org/1999/xlink">
<defs/>
<clipPath id="ArtboardFrame">
<rect height="480" width="610" x="0" y="0"/>
</clipPath>
<g clip-path="url(#ArtboardFrame)" id="Layer-1" vectornator:layerName="Layer 1">
<g opacity="1">
<clipPath id="ClipPath">
<path d="M246.109 605.992L189.912 484.121L310.718 406.472L283.141 337.462L347.927 306.806L420.465 412.132L333.226 564.192L246.109 605.992Z"/>
</clipPath>
<g clip-path="url(#ClipPath)">
<path d="M301.499 314.374C401.141 355.256 400.611 415.254 300.262 454.369" fill="none" opacity="1" stroke="#ff5555" stroke-linecap="round" stroke-linejoin="round" stroke-width="7.37512"/>
</g>
</g>
<g opacity="1">
<clipPath id="ClipPath_2">
<path d="M244.607 328.517L176.682 186.191L297.488 108.542L285.936 51.6392L352.026 30.1484L407.235 114.202L325.848 285.354L244.607 328.517Z"/>
</clipPath>
<g clip-path="url(#ClipPath_2)">
<path d="M301.499 314.374C201.856 273.492 202.386 213.495 302.735 174.38" fill="none" opacity="1" stroke="#ff5555" stroke-linecap="round" stroke-linejoin="round" stroke-width="7.37512"/>
<path d="M303.972 34.3852C403.615 75.2671 403.085 135.265 302.735 174.38" fill="none" opacity="1" stroke="#ff5555" stroke-linecap="round" stroke-linejoin="round" stroke-width="7.37512"/>
</g>
</g>
</g>
<g id="Layer-2" vectornator:layerName="Layer 2">
<g opacity="1">
<clipPath id="ClipPath_3">
<path d="M247.254 466.736L188.886 346.003L309.692 268.354L282.115 199.344L346.901 168.688L419.439 274.014L327.862 428.073L247.254 466.736Z"/>
</clipPath>
<g clip-path="url(#ClipPath_3)">
<path d="M301.499 314.374C401.848 275.259 402.378 215.262 302.735 174.38" fill="none" opacity="1" stroke="#8be9fd" stroke-linecap="round" stroke-linejoin="round" stroke-width="7.37512"/>
<path d="M301.499 314.374C201.149 353.489 200.619 413.487 300.262 454.369" fill="none" opacity="1" stroke="#8be9fd" stroke-linecap="round" stroke-linejoin="round" stroke-width="7.37512"/>
</g>
</g>
<g opacity="1">
<clipPath id="ClipPath_4">
<path d="M318.927 150.044L253.982 185.071L233.294 150.367L194.868 61.0141L309.832 16.7967L315.014 53.8623L318.927 150.044Z"/>
</clipPath>
<g clip-path="url(#ClipPath_4)">
<path d="M303.972 34.3852C203.623 73.5002 203.093 133.498 302.735 174.38" fill="none" opacity="1" stroke="#8be9fd" stroke-linecap="round" stroke-linejoin="round" stroke-width="7.37512"/>
</g>
</g>
</g>
<g clip-path="url(#ArtboardFrame)" id="Layer-3" vectornator:layerName="Layer 3">
<g opacity="1">
<clipPath id="ClipPath_5">
<path d="M388.951 425.473L272.189 484.775L561.942 641.005L676.636-17.4133L291.159 23.7991L315.014 53.8623L388.951 425.473Z"/>
</clipPath>
<g clip-path="url(#ClipPath_5)">
<path d="M316.615 462.418C710.091 564.555 690.852-98.876 303.957 34.5203" fill="none" opacity="1" stroke="#8be9fd" stroke-linecap="square" stroke-linejoin="round" stroke-width="7.37512"/>
</g>
</g>
<g opacity="1">
<clipPath id="ClipPath_6">
<path d="M216.631 62.7226L333.393 3.42052L43.6393-152.809L-71.0545 505.609L314.423 464.397L290.568 434.334L216.631 62.7226Z"/>
</clipPath>
<g clip-path="url(#ClipPath_6)">
<path d="M288.967 25.7781C-87.6052-65.7709-85.2703 587.072 301.625 453.676" fill="none" opacity="1" stroke="#ff5555" stroke-linecap="square" stroke-linejoin="round" stroke-width="7.37512"/>
</g>
</g>
</g>
</svg>
