<!-- Created with Vectornator (http://vectornator.io/) -->
<svg xmlns:inkscape="http://www.inkscape.org/namespaces/inkscape" xmlns:sodipodi="http://sodipodi.sourceforge.net/DTD/sodipodi-0.dtd" xmlns="http://www.w3.org/2000/svg" xmlns:svg="http://www.w3.org/2000/svg" xmlns:vectornator="http://vectornator.io" stroke-miterlimit="10" style="clip-rule:evenodd;fill-rule:nonzero;stroke-linecap:round;stroke-linejoin:round" version="1.1" viewBox="0 0 999.93103 999.93103" xml:space="preserve" id="svg6" sodipodi:docname="Crossing_-.svg"><sodipodi:namedview id="namedview6" pagecolor="#ffffff" bordercolor="#000000" borderopacity="0.25" inkscape:showpageshadow="2" inkscape:pageopacity="0.0" inkscape:pagecheckerboard="0" inkscape:deskcolor="#d1d1d1"/>
    <defs id="defs1"/>
    <clipPath id="ArtboardFrame_15">
        <rect height="1000" width="1000" x="0" y="0" id="rect1"/>
    </clipPath>
    <g clip-path="url(#ArtboardFrame_15)" id="Layer-1" vectornator:layerName="Layer 1">
        <g opacity="1" id="g3">
            <path d="M 500,949.543 C 500,864.05 500,0 500,0" fill="none" class="stroke-blue" stroke="#8be9fd" stroke-linecap="butt" stroke-linejoin="miter" stroke-width="39.0728" id="path1"/>
            <g class="fill-blue" fill="#8be9fd" stroke="none" id="g2">
                <path d="m 367.661,838.183 117.219,143.268 15.12,18.48 15.12,-18.48 117.219,-143.268 c 6.832,-8.35 5.601,-20.659 -2.749,-27.491 -8.351,-6.832 -20.659,-5.602 -27.492,2.749 L 484.88,956.708 h 30.24 L 397.902,813.441 c -6.833,-8.351 -19.141,-9.581 -27.492,-2.749 -8.35,6.832 -9.581,19.141 -2.749,27.491 z" class="fill-blue" fill="#8be9fd" id="path2"/>
            </g>
        </g>
    </g>
    <g id="Layer-4" vectornator:layerName="Layer 4">
        <path d="m 402.242,500 c 0,-53.488 43.768,-96.848 97.758,-96.848 53.99,0 97.758,43.36 97.758,96.848 0,53.488 -43.768,96.848 -97.758,96.848 -53.99,0 -97.758,-43.36 -97.758,-96.848 z" class="fill-background" fill-rule="nonzero" opacity="1" stroke="none" id="path3"/>
    </g>
    <g clip-path="url(#ArtboardFrame_15)" id="Layer-2" vectornator:layerName="Layer 2">
        <g opacity="1" id="g6">
            <path d="M 949.543,500 C 864.05,500 0,500 0,500" fill="none" class="stroke-orange stroke-orange" stroke="#ffb86c" stroke-linecap="butt" stroke-linejoin="miter" stroke-width="60" id="path4"/>
            <g class="fill-orange" fill="#ffb86c" stroke="none" id="g5">
                <path d="M 838.183,632.339 981.451,515.12 999.931,500 981.451,484.88 838.183,367.661 c -8.35,-6.832 -20.659,-5.601 -27.491,2.749 -6.832,8.351 -5.602,20.659 2.749,27.492 L 956.708,515.12 V 484.88 L 813.441,602.098 c -8.351,6.833 -9.581,19.141 -2.749,27.492 6.832,8.35 19.141,9.581 27.491,2.749 z" class="fill-orange" fill="#ffb86c" id="path5"/>
            </g>
        </g>
    </g>
</svg>
