<!-- Created with Inkscape (http://www.inkscape.org/) -->
<svg xmlns:inkscape="http://www.inkscape.org/namespaces/inkscape" xmlns:sodipodi="http://sodipodi.sourceforge.net/DTD/sodipodi-0.dtd" xmlns="http://www.w3.org/2000/svg" xmlns:svg="http://www.w3.org/2000/svg" viewBox="0 0 190.45123 190.28697" version="1.1" id="svg21826" xml:space="preserve" inkscape:version="1.3 (0e150ed6c4, 2023-07-21)" sodipodi:docname="GenMont.svg">

    <sodipodi:namedview id="namedview21828" pagecolor="#ffffff" bordercolor="#666666" borderopacity="1.0" inkscape:showpageshadow="2" inkscape:pageopacity="0.0" inkscape:pagecheckerboard="0" inkscape:deskcolor="#d1d1d1" inkscape:document-units="mm" showgrid="false" inkscape:zoom="2.4482946" inkscape:cx="-68.210745" inkscape:cy="101.49922" inkscape:window-width="1920" inkscape:window-height="1120" inkscape:window-x="-11" inkscape:window-y="-11" inkscape:window-maximized="1" inkscape:current-layer="layer1"/>
    

    <defs id="defs21823"/>
 <g inkscape:label="Layer 1" inkscape:groupmode="layer" id="layer1" transform="translate(-111.22285,101.64765)">
 

        


        
        

        

    <path class="stroke-red" style="fill:none;stroke:#ff5555;stroke-width:3.97134;stroke-dasharray:none;stroke-opacity:0.95686275" d="m 141.16506,-33.56524 c -1.70842,-1.70843 -4.05773,-3.51949 -5.19084,-5.67406 -0.33959,-0.64573 -0.47718,-1.38139 -0.45598,-2.10151 0.0196,-0.66501 0.17289,-1.28213 0.48517,-1.89135 0.82144,-1.60249 2.43006,-2.94248 3.6906,-4.20301 l 9.45678,-9.456772 c 2.05468,-2.053894 4.31091,-4.167859 7.1451,-4.883891 2.50604,-0.633111 5.94595,-0.172573 8.61617,-0.159543 1.00709,0.0046 1.78206,0.145189 2.73196,0.510122 3.42659,1.316453 5.86781,4.516912 8.40601,7.055122 m 0,20.804892 c -2.08459,-2.0846 -5.88826,-4.57985 -5.78756,-7.77557 0.0238,-0.75455 0.25309,-1.45685 0.63531,-2.1015 0.93611,-1.57883 2.5973,-2.90896 3.89135,-4.20301 4.05137,-4.051362 7.97811,-8.987242 12.60903,-12.365456 1.5455,-1.127426 3.41798,-1.960486 5.25376,-1.921522 0.96333,0.02045 1.85005,0.261283 2.73195,0.706499 2.19744,1.109319 3.61384,3.426264 4.98474,5.384607 3.03701,4.33835 6.62271,8.034902 10.35624,11.768432 m -68.98281,-28.762329 c 3.47043,5.907213 -6.13658,13.259957 -0.36682,18.464957 m 69.55979,31.312412 c -2.09636,-2.09636 -5.66775,-4.43019 -5.84011,-7.56541 -0.0833,-1.51459 0.93968,-3.05209 2.06048,-4.20301 2.97061,-3.05044 6.02258,-6.02567 9.03339,-9.03646 2.16342,-2.16342 4.30608,-4.74833 6.93496,-6.341012 1.13801,-0.68945 2.89967,-1.41769 4.20301,-1.41769 m 0,0 c 3.1861,0 5.46737,2.811002 7.1503,5.236892 3.28421,4.73406 7.06867,8.75502 11.13278,12.81917 m -98.77069,-15.34098 c 1.72893,1.72893 4.0405,3.49307 5.18485,5.67406 0.34302,0.65379 0.47278,1.181 0.48515,1.89135 0.0119,0.67757 -0.0499,1.28725 -0.32333,1.89136 -0.54153,1.19631 -1.69268,2.22986 -2.61472,3.15226 l -10.29737,10.29737 c -1.03424,1.03425 -2.36408,2.10035 -3.10442,3.36241 -0.44639,0.76095 -0.7072,1.8651 -0.6144,2.73194 0.30428,2.8421 3.62353,5.15848 5.61017,7.14512 m 40.34888,-36.14587 c 2.01228,2.01227 5.77722,4.52478 5.87206,7.56541 0.0209,0.67119 -0.11049,1.29604 -0.40815,1.89136 -0.56893,1.13788 -1.63158,2.05183 -2.5218,2.94211 l -10.29738,10.29736 c -2.00392,2.00393 -4.72763,4.26043 -3.60628,7.35527 0.81893,2.26013 3.80532,4.40205 5.49764,6.09436 m 40.34888,-4.83346 c 2.26519,2.26519 4.52332,5.1037 7.35526,6.65899 1.53024,0.84038 3.12879,1.12233 4.83347,0.86167 m 0,0 c 3.74755,-0.57301 6.83929,-6.58951 9.01279,-9.41201 4.30008,-5.58409 9.75803,-10.36481 14.7342,-15.34098 1.39259,-1.3926 2.83164,-3.143 4.62331,-4.01361 0.61884,-0.3007 1.21019,-0.56724 1.89136,-0.54905 0.77136,0.0205 1.63293,0.35715 2.31165,0.77881 1.96164,1.21871 3.62272,3.4137 5.25376,5.04475 m -50.0158,-4.83346 c 1.59534,1.59533 3.57557,3.2121 4.87773,5.04362 0.6245,0.87837 0.83844,1.90236 0.7879,2.9421 -0.14409,2.96428 -4.04833,5.52782 -6.08593,7.56541 -5.14914,5.14915 -10.44052,10.11607 -14.78836,15.97144 -1.96685,2.64882 -4.15169,6.76942 -7.69773,7.29202 -5.0455,0.74358 -8.79707,-4.53083 -11.97858,-7.71233 M 270.117,-72.578755 c -5.34516,6.885846 12.85242,28.388755 1.8595,39.125795 l -8.0836,8.08359 c -0.96162,0.96126 -1.97769,2.01799 -3.15226,2.70389 -0.69759,0.40739 -1.51092,0.48413 -2.31164,0.43928 -2.8667,-0.16055 -5.40137,-3.92121 -7.35527,-5.87512 m -104.44475,0 c 2.00202,2.00201 5.71268,4.43815 5.87513,7.35526 0.0663,1.18959 -0.3027,2.38208 -1.11075,3.36241 -2.09828,2.54562 -4.74087,4.80994 -7.07604,7.14511 -2.29649,2.29649 -4.75416,4.50802 -6.9121,6.93496 -2.93949,3.30591 1.64025,8.27788 2.61175,9.42555 m 0,0 c 16.0581,18.97008 43.49419,-8.24388 60.41051,9.06769 m -18.91354,-43.29098 c 1.66001,1.66 3.72012,3.29422 5.02156,5.25375 0.51829,0.78035 0.869,1.58762 0.85099,2.5218 -0.0472,2.44942 -2.3541,4.25713 -3.98119,5.88422 -3.43157,3.43157 -6.85781,6.87423 -10.29738,10.29721 -1.60302,1.59529 -3.70515,3.6351 -5.88421,4.28019 -0.85883,0.25425 -1.52858,0.26186 -2.31165,0.37068 -1.8104,0.25156 -3.4518,0.22896 -5.46391,0.17967 -0.64063,-0.0157 -1.06662,-0.0896 -1.6812,-0.19021 -0.50167,-0.0821 -0.93978,-0.14305 -1.47106,-0.23009 -3.83538,-0.62839 -6.8554,-4.75082 -9.45676,-7.35219 m 125.03949,-21.01503 c 9.00224,10.01839 6.41041,19.92963 -3.82555,22.18351 -20.8039,4.58085 -51.38882,12.18345 -60.06018,19.00597 -3.89282,3.06282 -10.50752,10.50751 -10.50752,10.50751 -1.35319,1.35328 -3.00697,3.06917 -2.86022,5.04361 0.21541,2.89803 3.65141,5.20434 5.59219,7.14511 m 5.67405,-15.13082 c 1.95128,1.95128 5.6126,4.42024 5.86135,7.35527 0.20863,2.46154 -2.28708,4.54061 -3.96999,6.09435 -30.01227,27.70892 -47.00356,8.56443 -62.45032,28.88695 M 205.68124,41.2483 c 4.95424,7.09383 18.03937,12.35655 24.94125,13.01697 11.51826,1.10214 28.26918,-9.78379 40.47846,4.90953" id="path177" sodipodi:nodetypes="csssccsssccsssssssccccssssccsccsssccssccsscssccsccsssssccsssssccccssccssssccccsssssssssccsscsccssccsc"/><path d="m 141.16506,-33.56524 c -1.70842,-1.70843 -4.05773,-3.51949 -5.19084,-5.67406 -0.33959,-0.64573 -0.47718,-1.38139 -0.45598,-2.10151 0.0196,-0.66501 0.17289,-1.28213 0.48517,-1.89135 0.82144,-1.60249 2.43006,-2.94248 3.6906,-4.20301 l 9.45678,-9.456772 c 2.05468,-2.053894 4.31091,-4.167859 7.1451,-4.883891 2.50604,-0.633111 5.94595,-0.172573 8.61617,-0.159543 1.00709,0.0046 1.78206,0.145189 2.73196,0.510122 3.42659,1.316453 5.86781,4.516912 8.40601,7.055122 m 0,20.804892 c -2.08459,-2.0846 -5.88826,-4.57985 -5.78756,-7.77557 0.0238,-0.75455 0.25309,-1.45685 0.63531,-2.1015 0.93611,-1.57883 2.5973,-2.90896 3.89135,-4.20301 4.05137,-4.051362 7.97811,-8.987242 12.60903,-12.365456 1.5455,-1.127426 3.41798,-1.960486 5.25376,-1.921522 0.96333,0.02045 1.85005,0.261283 2.73195,0.706499 2.19744,1.109319 3.61384,3.426264 4.98474,5.384607 3.03701,4.33835 6.62271,8.034902 10.35624,11.768432 m -68.98281,-28.762329 c 3.47043,5.907213 -6.13658,13.259957 -0.36682,18.464957 m 69.55979,31.312412 c -2.09636,-2.09636 -5.66775,-4.43019 -5.84011,-7.56541 -0.0833,-1.51459 0.93968,-3.05209 2.06048,-4.20301 2.97061,-3.05044 6.02258,-6.02567 9.03339,-9.03646 2.16342,-2.16342 4.30608,-4.74833 6.93496,-6.341012 1.13801,-0.68945 2.89967,-1.41769 4.20301,-1.41769 m 0,0 m -80.48761,2.715082 c 1.72893,1.72893 4.0405,3.49307 5.18485,5.67406 0.34302,0.65379 0.47278,1.181 0.48515,1.89135 0.0119,0.67757 -0.0499,1.28725 -0.32333,1.89136 -0.54153,1.19631 -1.69268,2.22986 -2.61472,3.15226 l -10.29737,10.29737 c -1.03424,1.03425 -2.36408,2.10035 -3.10442,3.36241 -0.44639,0.76095 -0.7072,1.8651 -0.6144,2.73194 0.30428,2.8421 3.62353,5.15848 5.61017,7.14512 m 40.34888,-36.14587 c 2.01228,2.01227 5.77722,4.52478 5.87206,7.56541 0.0209,0.67119 -0.11049,1.29604 -0.40815,1.89136 -0.56893,1.13788 -1.63158,2.05183 -2.5218,2.94211 l -10.29738,10.29736 c -2.00392,2.00393 -4.72763,4.26043 -3.60628,7.35527 0.81893,2.26013 3.80532,4.40205 5.49764,6.09436 m 40.34888,-4.83346 c 2.26519,2.26519 4.52332,5.1037 7.35526,6.65899 m -7.35526,-27.46388 c 1.59534,1.59533 3.57557,3.2121 4.87773,5.04362 0.6245,0.87837 0.83844,1.90236 0.7879,2.9421 -0.14409,2.96428 -4.04833,5.52782 -6.08593,7.56541 -5.14914,5.14915 -10.44052,10.11607 -14.78836,15.97144 -1.96685,2.64882 -4.15169,6.76942 -7.69773,7.29202 -5.0455,0.74358 -8.79707,-4.53083 -11.97858,-7.71233 m -34.88496,-20.80488 c 2.00202,2.00201 5.71268,4.43815 5.87513,7.35526 0.0663,1.18959 -0.3027,2.38208 -1.11075,3.36241 -2.09828,2.54562 -4.74087,4.80994 -7.07604,7.14511 -2.29649,2.29649 -4.75416,4.50802 -6.9121,6.93496 m 44.10872,-24.79774 c 1.66001,1.66 3.72012,3.29422 5.02156,5.25375 0.51829,0.78035 0.869,1.58762 0.85099,2.5218 -0.0472,2.44942 -2.3541,4.25713 -3.98119,5.88422 -3.43157,3.43157 -6.85781,6.87423 -10.29738,10.29721 -1.60302,1.59529 -3.70515,3.6351 -5.88421,4.28019 -0.85883,0.25425 -1.52858,0.26186 -2.31165,0.37068 -1.8104,0.25156 -3.4518,0.22896 -5.46391,0.17967 -0.64063,-0.0157 -1.06662,-0.0896 -1.6812,-0.19021 -0.50167,-0.0821 -0.93978,-0.14305 -1.47106,-0.23009 -3.83538,-0.62839 -6.8554,-4.75082 -9.45676,-7.35219" class="stroke-purple" style="fill:none;stroke:#bd93f9;stroke-width:3.97134;stroke-dasharray:none;stroke-opacity:1" id="path1"/><path class="fill-highlight" style="display:inline;fill:#6272a4;fill-opacity:1;stroke:none;stroke-width:0.352778;stroke-opacity:1" d="m 197.98673,88.49586 c -40.02007,-3.62592 -73.49665,-31.90348 -83.7539,-70.74663 -4.01331,-15.198 -4.01331,-33.36826 0,-48.56626 9.67937,-36.654787 39.63748,-63.733936 77.4039,-69.96541 6.99154,-1.15361 22.64178,-1.15361 29.63333,0 41.25671,6.807375 72.6245,38.17516 79.43188,79.43187 1.84983,11.21107 0.9976,27.64223 -2.02799,39.0998 -9.6571,36.57046 -39.81128,63.87166 -77.2275,69.92077 -4.45449,0.72016 -18.98182,1.23157 -23.45972,0.82586 z m 22.40139,-5.72037 c 52.7555,-8.69562 86.4767,-59.58006 73.70138,-111.21356 -8.70542,-35.184345 -37.59744,-61.552962 -73.87777,-67.425367 -6.89864,-1.116626 -21.00679,-1.117826 -27.69306,-0.0024 -39.31274,6.558542 -69.06848,36.348289 -75.38546,75.471627 -1.06804,6.61474 -1.14733,20.30013 -0.1549,26.73666 6.48822,42.08024 39.94543,73.56139 82.06675,77.21968 4.23024,0.3674 17.2536,-0.11262 21.34306,-0.78668 z" id="path21850-8" inkscape:label="path21850"/></g>

</svg>
