<?xml version="1.0" encoding="UTF-8" standalone="no"?>
<!-- Created with Inkscape (http://www.inkscape.org/) -->

<svg
   viewBox="0 0 417.5092 199.99999"
   version="1.1"
   id="svg1"
   inkscape:version="1.3.2 (091e20ef0f, 2023-11-25)"
   sodipodi:docname="0_with_handle.svg"
   xmlns:inkscape="http://www.inkscape.org/namespaces/inkscape"
   xmlns:sodipodi="http://sodipodi.sourceforge.net/DTD/sodipodi-0.dtd"
   xmlns="http://www.w3.org/2000/svg"
   xmlns:svg="http://www.w3.org/2000/svg">
  <sodipodi:namedview
     id="namedview1"
     pagecolor="#282a36"
     bordercolor="#000000"
     borderopacity="0.25"
     inkscape:showpageshadow="2"
     inkscape:pageopacity="0.0"
     inkscape:pagecheckerboard="0"
     inkscape:deskcolor="#44475a"
     inkscape:document-units="mm"
     showgrid="true"
     inkscape:zoom="2"
     inkscape:cx="640.25"
     inkscape:cy="256.75"
     inkscape:window-width="3840"
     inkscape:window-height="2091"
     inkscape:window-x="0"
     inkscape:window-y="0"
     inkscape:window-maximized="1"
     inkscape:current-layer="g8"
     showguides="true">
    <inkscape:grid
       id="grid1"
       units="mm"
       originx="-1.8955255e-05"
       originy="-1.0914999e-06"
       spacingx="0.5"
       spacingy="0.5"
       empcolor="#0099e5"
       empopacity="0.30196078"
       color="#0099e5"
       opacity="0.14901961"
       empspacing="5"
       dotted="false"
       gridanglex="30"
       gridanglez="30"
       visible="true" />
    <sodipodi:guide
       position="200.00001,142.24095"
       orientation="0.70710678,-0.70710678"
       id="guide8"
       inkscape:locked="false" />
    <sodipodi:guide
       position="-6.2406923e-06,320.1937"
       orientation="-0.70710678,-0.70710678"
       id="guide9"
       inkscape:locked="false" />
    <sodipodi:guide
       position="-17.325537,42.240938"
       orientation="0,-1"
       id="guide14"
       inkscape:locked="false" />
    <sodipodi:guide
       position="100,142.24095"
       orientation="1,0"
       id="guide1"
       inkscape:locked="false" />
    <sodipodi:guide
       position="29.999996,112.43569"
       orientation="-1,0"
       id="guide30"
       inkscape:locked="false"
       inkscape:label=""
       inkscape:color="rgb(0,134,229)" />
    <sodipodi:guide
       position="170,67.24094"
       orientation="-1,0"
       id="guide31"
       inkscape:locked="false"
       inkscape:label=""
       inkscape:color="rgb(0,134,229)" />
    <sodipodi:guide
       position="-17.500007,62.240939"
       orientation="0,-1"
       id="guide32"
       inkscape:locked="false" />
    <sodipodi:guide
       position="-10.000006,22.240936"
       orientation="0,-1"
       id="guide33"
       inkscape:locked="false" />
  </sodipodi:namedview>
  <defs
     id="defs1" />
  <g
     inkscape:label="Layer 1"
     inkscape:groupmode="layer"
     id="layer1"
     transform="translate(-64.986395,1.8897618)">
    <path
       style="display:none;fill:#ff5555;stroke:#ff5555;stroke-width:3.77953;stroke-linejoin:round;stroke-miterlimit:4.1;stroke-dasharray:none"
       d="m 217.57895,25.921054 -8.01489,8.01489 L 92.421047,151.07896"
       id="path1"
       sodipodi:nodetypes="ccc" />
    <path
       style="display:none;fill:#ff5555;stroke:#ff5555;stroke-width:3.77953;stroke-linejoin:round;stroke-miterlimit:4.1;stroke-dasharray:none"
       d="M 217.57895,151.07896 92.421046,25.921056 103.73569,37.000004"
       id="path2"
       sodipodi:insensitive="true" />
    <path
       id="path11"
       style="display:none;fill:none;stroke:#6272a4;stroke-width:3.77953;stroke-linejoin:round;stroke-miterlimit:4.1"
       d="m 145.60332,37.199146 -41.90418,41.904173 m 0,-41.904173 41.90418,41.904173"
       sodipodi:insensitive="true" />
    <g
       id="g8"
       transform="matrix(1.1109431,0,0,1.1109431,-7.2097923,6.4878498)">
      <path
         style="display:inline;fill:none;stroke:#ffb86c;stroke-width:3.77953;stroke-linejoin:round;stroke-miterlimit:4.1;stroke-dasharray:none;stroke-opacity:1"
         d="m 91.99048,25.114321 c 0,0 37.19865,45.006805 63.00953,45.006804 25.81088,-1e-6 63.00952,-45.006805 63.00952,-45.006805"
         id="path3"
         transform="translate(-1.5894675e-7,-5.6512286)"
         sodipodi:nodetypes="cac" />
      <path
         style="display:inline;fill:none;stroke:#ffb86c;stroke-width:3.77953;stroke-linejoin:round;stroke-miterlimit:4.1;stroke-dasharray:none;stroke-opacity:1"
         d="m 214.73485,137.00954 c 0,0 -44.60828,-37.275635 -44.60828,-63.009529 0,-25.733895 44.60828,-63.00953 44.60828,-63.00953"
         id="path19"
         sodipodi:nodetypes="cac"
         transform="matrix(0,0.99999998,0.99999998,0,80.999997,-69.65122)" />
      <rect
         style="fill:#ff5555;fill-opacity:0.764706;stroke:#ff5555;stroke-width:0.171888;stroke-miterlimit:3.6"
         id="rect7"
         width="89.841721"
         height="35.833557"
         x="350.87384"
         y="19.597658"
         ry="13.85348" />
      <path
         id="path7-5"
         style="fill:none;fill-opacity:0.766511;stroke:#44475a;stroke-width:13.2068;stroke-miterlimit:3.6;stroke-dasharray:none;stroke-opacity:1"
         d="m 350.77127,37.498204 -35.9888,-0.06478 c -9.00136,-2e-6 -9.00136,-2e-6 -9.01806,8.973885 v 27.015327 c 0.0167,9.017592 0.0167,9.017592 -9.00136,9.001361 l -35.88323,-0.0028"
         sodipodi:nodetypes="cccccc" />
    </g>
    <g
       id="g21"
       transform="matrix(1.1109431,0,0,1.1109431,-7.2097923,0.20965604)">
      <path
         id="path9-5"
         style="display:inline;fill:none;stroke:#6272a4;stroke-width:3.77953;stroke-linejoin:round;stroke-miterlimit:4.1;stroke-dasharray:none"
         d="M 243.12385,88.123846 A 88.123837,88.123843 0 0 1 155,176.24769 88.123837,88.123843 0 0 1 66.87616,88.123846 88.123837,88.123843 0 0 1 155,3.2092371e-6 88.123837,88.123843 0 0 1 243.12385,88.123846 Z"
         sodipodi:insensitive="true" />
    </g>
    <g
       id="g30"
       transform="matrix(1.1109431,0,0,1.1109431,-263.97002,-50.114406)">
      <g
         id="g5"
         transform="translate(-29.816124,-30.04689)"
         inkscape:label="template"
         sodipodi:insensitive="true"
         style="display:none">
        <path
           style="display:inline;fill:none;stroke:#ff5555;stroke-width:3.77953;stroke-linejoin:round;stroke-miterlimit:4.1;stroke-dasharray:none"
           d="M 217.50196,72.49804 215,75.000002 c -5,5.000003 -5,5.000003 -10,3e-6"
           id="path4" />
        <path
           style="display:inline;fill:none;stroke:#ff5555;stroke-width:3.77953;stroke-linejoin:round;stroke-miterlimit:4.1;stroke-dasharray:none"
           d="M 217.49804,72.501964 220,70.000002 c 5,-5.000003 5,-5.000003 10,-3e-6"
           id="path5" />
      </g>
      <g
         id="g9"
         transform="translate(-34.999999,-20.000001)">
        <path
           style="fill:none;stroke:#ff5555;stroke-width:3.77953;stroke-linejoin:round;stroke-miterlimit:4.1;stroke-dasharray:none"
           d="M 217.50196,72.49804 215,75.000002 c -5,5.000003 -20,32.848778 -34.39668,18.452089"
           id="path6"
           sodipodi:nodetypes="csc" />
        <path
           style="display:inline;fill:none;stroke:#ff5555;stroke-width:3.77953;stroke-linejoin:round;stroke-miterlimit:4.1;stroke-dasharray:none"
           d="m 202.33827,72.66173 2.50196,-2.501962 c 5,-5.000003 5,-5.000003 10,-3e-6"
           id="path8"
           transform="translate(15.000004)" />
      </g>
      <g
         id="g13"
         transform="translate(-19.999999,-20.000001)">
        <path
           style="display:inline;fill:none;stroke:#ff5555;stroke-width:3.77953;stroke-linejoin:round;stroke-miterlimit:4.1;stroke-dasharray:none"
           d="M 217.50196,72.49804 215,75.000002 c -5,5.000003 -5,5.000003 -10,3e-6"
           id="path9" />
        <path
           style="display:inline;fill:none;stroke:#ff5555;stroke-width:3.77953;stroke-linejoin:round;stroke-miterlimit:4.1;stroke-dasharray:none"
           d="M 217.49804,72.501964 220,70.000002 c 5,-5.000003 5,-5.000003 10,-3e-6"
           id="path13" />
      </g>
      <g
         id="g22"
         transform="translate(-4.9999989,-20.000001)">
        <path
           style="fill:none;stroke:#ff5555;stroke-width:3.77953;stroke-linejoin:round;stroke-miterlimit:4.1;stroke-dasharray:none"
           d="M 217.50196,72.49804 215,75.000002 c -5,5.000003 -5,5.000003 -10,3e-6"
           id="path21" />
        <path
           style="fill:none;stroke:#ff5555;stroke-width:3.77953;stroke-linejoin:round;stroke-miterlimit:4.1;stroke-dasharray:none"
           d="M 222.57895,40.269826 C 215,47.348776 225,65.000005 220,70.000002 l -2.49804,2.498038"
           id="path22"
           sodipodi:nodetypes="csc" />
      </g>
      <g
         id="g23"
         transform="translate(-50.040663,-19.846951)">
        <path
           style="display:inline;fill:none;stroke:#ff5555;stroke-width:3.77953;stroke-linejoin:round;stroke-miterlimit:4.1;stroke-dasharray:none"
           d="m 196.04067,50.99818 c 14,-13.999999 14.14711,-0.810399 33.95933,19.001819"
           id="path23"
           sodipodi:nodetypes="cc" />
      </g>
      <g
         id="g25"
         transform="matrix(0,1,1,0,81.000003,-99.651223)"
         inkscape:label="cs2"
         style="display:inline">
        <path
           style="display:inline;fill:none;stroke:#ff5555;stroke-width:3.77953;stroke-linejoin:round;stroke-miterlimit:4.1;stroke-dasharray:none"
           d="M 217.50196,72.49804 215,75.000002 C 210,80.000005 177.36741,155.98271 155,134"
           id="path24"
           sodipodi:nodetypes="csc" />
        <path
           style="display:inline;fill:none;stroke:#ff5555;stroke-width:3.77953;stroke-linejoin:round;stroke-miterlimit:4.1;stroke-dasharray:none"
           d="M 217.49804,72.501964 220,70.000002 c 5,-5.000003 5,-5.000003 10,-3e-6"
           id="path25" />
      </g>
      <g
         id="g27"
         transform="matrix(0,1,1,0,81,-84.651223)"
         inkscape:label="cs2"
         style="display:inline">
        <path
           style="display:inline;fill:none;stroke:#ff5555;stroke-width:3.77953;stroke-linejoin:round;stroke-miterlimit:4.1;stroke-dasharray:none"
           d="M 217.50196,72.49804 215,75.000002 c -5,5.000003 -5,5.000003 -10,3e-6"
           id="path26" />
        <path
           style="display:inline;fill:none;stroke:#ff5555;stroke-width:3.77953;stroke-linejoin:round;stroke-miterlimit:4.1;stroke-dasharray:none"
           d="M 217.49804,72.501964 220,70.000002 c 5,-5.000003 -1,-47.500003 9,-57.500003"
           id="path27"
           sodipodi:nodetypes="csc" />
      </g>
      <g
         id="g28"
         transform="matrix(0,1,1,0,80.999997,-69.651222)"
         inkscape:label="cs2"
         style="display:inline">
        <path
           style="display:inline;fill:none;stroke:#ff5555;stroke-width:3.77953;stroke-linejoin:round;stroke-miterlimit:4.1;stroke-dasharray:none"
           d="M 214,135.50001 C 191.5,113 218,89.000005 205,75.000005"
           id="path28"
           sodipodi:nodetypes="cc" />
      </g>
      <path
         style="fill:none;stroke:#ff5555;stroke-width:3.77953;stroke-linejoin:round;stroke-miterlimit:4.1;stroke-dasharray:none"
         d="M 151,115.34878 C 136.5528,101.29598 84.000004,93.151228 103.69914,73.45209"
         id="path29"
         sodipodi:nodetypes="cc" />
      <path
         style="display:inline;fill:#ff5555;stroke:#ff5555;stroke-width:3.77953;stroke-linejoin:round;stroke-miterlimit:4.1;stroke-dasharray:none"
         d="M 92.421046,25.921056 103.73569,37.000004"
         id="path30"
         transform="translate(-1.5894675e-7,-5.6512286)" />
    </g>
    <g
       id="g7-6-2"
       transform="matrix(1.1109431,0,0,1.1109431,-259.42109,-14.655781)"
       inkscape:label="template"
       style="display:inline">
      <path
         style="display:inline;fill:none;stroke:#ff5555;stroke-width:3.77953;stroke-linejoin:round;stroke-miterlimit:4.1;stroke-dasharray:none"
         d="M 217.50196,72.49804 215,75.000002 c -5,5.000003 -5,5.000003 -10,3e-6"
         id="path7-0-54" />
      <path
         style="display:inline;fill:none;stroke:#ff5555;stroke-width:3.77953;stroke-linejoin:round;stroke-miterlimit:4.1;stroke-dasharray:none"
         d="M 217.49804,72.501964 220,70.000002 c 5,-5.000003 5,-5.000003 10,-3e-6"
         id="path10-7" />
    </g>
  </g>
</svg>
