<?xml version="1.0" encoding="UTF-8" standalone="no"?>
<!-- Created with Inkscape (http://www.inkscape.org/) -->

<svg
   viewBox="0 0 200 405"
   version="1.1"
   id="svg1"
   inkscape:version="1.3.2 (091e20ef0f, 2023-11-25)"
   sodipodi:docname="3_with_handle.svg"
   width="100mm"
   height="202.5mm"
   xmlns:inkscape="http://www.inkscape.org/namespaces/inkscape"
   xmlns:sodipodi="http://sodipodi.sourceforge.net/DTD/sodipodi-0.dtd"
   xmlns="http://www.w3.org/2000/svg"
   xmlns:svg="http://www.w3.org/2000/svg">
  <sodipodi:namedview
     id="namedview1"
     pagecolor="#282a36"
     bordercolor="#000000"
     borderopacity="0.25"
     inkscape:showpageshadow="2"
     inkscape:pageopacity="0.0"
     inkscape:pagecheckerboard="0"
     inkscape:deskcolor="#44475a"
     inkscape:document-units="mm"
     showgrid="true"
     inkscape:zoom="1.4142136"
     inkscape:cx="-371.5846"
     inkscape:cy="212.48558"
     inkscape:window-width="3840"
     inkscape:window-height="2091"
     inkscape:window-x="0"
     inkscape:window-y="0"
     inkscape:window-maximized="1"
     inkscape:current-layer="layer1"
     showguides="true">
    <inkscape:grid
       id="grid1"
       units="mm"
       originx="2.0774387e-07"
       originy="8.9611309e-09"
       spacingx="0.5"
       spacingy="0.5"
       empcolor="#0099e5"
       empopacity="0.30196078"
       color="#0099e5"
       opacity="0.14901961"
       empspacing="5"
       dotted="false"
       gridanglex="30"
       gridanglez="30"
       visible="true" />
    <sodipodi:guide
       position="200,200"
       orientation="0.70710678,-0.70710678"
       id="guide8"
       inkscape:locked="false" />
    <sodipodi:guide
       position="2.0774387e-07,200"
       orientation="-0.70710678,-0.70710678"
       id="guide9"
       inkscape:locked="false" />
    <sodipodi:guide
       position="-17.325525,99.999998"
       orientation="0,-1"
       id="guide14"
       inkscape:locked="false" />
    <sodipodi:guide
       position="100,200"
       orientation="1,0"
       id="guide1"
       inkscape:locked="false" />
    <sodipodi:guide
       position="30,170.19475"
       orientation="-1,0"
       id="guide30"
       inkscape:locked="false"
       inkscape:label=""
       inkscape:color="rgb(0,134,229)" />
    <sodipodi:guide
       position="170,125"
       orientation="-1,0"
       id="guide31"
       inkscape:locked="false"
       inkscape:label=""
       inkscape:color="rgb(0,134,229)" />
    <sodipodi:guide
       position="-17.5,120"
       orientation="0,-1"
       id="guide32"
       inkscape:locked="false" />
    <sodipodi:guide
       position="-9.9999998,79.999998"
       orientation="0,-1"
       id="guide33"
       inkscape:locked="false" />
    <sodipodi:guide
       position="86.5,97.499998"
       orientation="-0.70710678,-0.70710678"
       id="guide15"
       inkscape:locked="false" />
    <sodipodi:guide
       position="114.16672,103.19489"
       orientation="-0.70710678,-0.70710678"
       id="guide16"
       inkscape:label=""
       inkscape:locked="false"
       inkscape:color="rgb(0,134,229)" />
  </sodipodi:namedview>
  <defs
     id="defs1" />
  <g
     inkscape:label="Layer 1"
     inkscape:groupmode="layer"
     id="layer1"
     transform="translate(-64.986395,1.8897618)">
    <path
       style="display:none;fill:#ff5555;stroke:#ff5555;stroke-width:3.77953;stroke-linejoin:round;stroke-miterlimit:4.1;stroke-dasharray:none"
       d="m 217.57895,25.921054 -8.01489,8.01489 L 92.421047,151.07896"
       id="path1"
       sodipodi:nodetypes="ccc" />
    <path
       style="display:none;fill:#ff5555;stroke:#ff5555;stroke-width:3.77953;stroke-linejoin:round;stroke-miterlimit:4.1;stroke-dasharray:none"
       d="M 217.57895,151.07896 92.421046,25.921056 103.73569,37.000004"
       id="path2"
       sodipodi:insensitive="true" />
    <path
       id="path11"
       style="display:none;fill:none;stroke:#6272a4;stroke-width:3.77953;stroke-linejoin:round;stroke-miterlimit:4.1"
       d="m 145.60332,37.199146 -41.90418,41.904173 m 0,-41.904173 41.90418,41.904173"
       sodipodi:insensitive="true" />
    <g
       id="g8"
       transform="matrix(1.1109431,0,0,1.1109431,-7.2097923,6.4878498)">
      <path
         style="display:inline;fill:none;stroke:#ffb86c;stroke-width:3.77953;stroke-linejoin:round;stroke-miterlimit:4.1;stroke-dasharray:none;stroke-opacity:1"
         d="m 91.99048,25.114321 c 14.85257,19.653223 39.60599,54.008167 44.55674,58.958916 m 33.70745,4.42448 c 13.99976,-16.12625 47.75486,-63.383396 47.75486,-63.383396"
         id="path3"
         transform="translate(-1.5894675e-7,-5.6512286)"
         sodipodi:nodetypes="cccc" />
      <path
         style="display:inline;fill:none;stroke:#ffb86c;stroke-width:3.77953;stroke-linejoin:round;stroke-miterlimit:4.1;stroke-dasharray:none;stroke-opacity:1"
         d="m 214.73485,137.00954 c 0,0 -39.53297,-24.30368 -59.33596,-44.106671 m -3.64892,-34.157521 c 20.62694,-20.750783 62.98488,-47.754867 62.98488,-47.754867"
         id="path19"
         sodipodi:nodetypes="cccc"
         transform="matrix(0,0.99999998,0.99999998,0,80.999997,-69.65122)" />
    </g>
    <g
       id="g21"
       transform="matrix(1.1109431,0,0,1.1109431,-7.2097923,0.20965604)">
      <path
         id="path9-5"
         style="display:inline;fill:none;stroke:#6272a4;stroke-width:3.77953;stroke-linejoin:round;stroke-miterlimit:4.1;stroke-dasharray:none"
         d="M 243.12385,88.123846 A 88.123837,88.123843 0 0 1 155,176.24769 88.123837,88.123843 0 0 1 66.87616,88.123846 88.123837,88.123843 0 0 1 155,3.2092371e-6 88.123837,88.123843 0 0 1 243.12385,88.123846 Z"
         sodipodi:insensitive="true" />
    </g>
    <g
       id="g30"
       transform="matrix(1.1109431,0,0,1.1109431,-263.97002,-50.114406)"
       style="display:none"
       sodipodi:insensitive="true">
      <g
         id="g5"
         transform="translate(-29.816124,-30.04689)"
         inkscape:label="template"
         sodipodi:insensitive="true"
         style="display:none">
        <path
           style="display:inline;fill:none;stroke:#ff5555;stroke-width:3.77953;stroke-linejoin:round;stroke-miterlimit:4.1;stroke-dasharray:none"
           d="M 217.50196,72.49804 215,75.000002 c -5,5.000003 -5,5.000003 -10,3e-6"
           id="path4" />
        <path
           style="display:inline;fill:none;stroke:#ff5555;stroke-width:3.77953;stroke-linejoin:round;stroke-miterlimit:4.1;stroke-dasharray:none"
           d="M 217.49804,72.501964 220,70.000002 c 5,-5.000003 5,-5.000003 10,-3e-6"
           id="path5" />
      </g>
      <g
         id="g9"
         transform="translate(-34.999999,-20.000001)">
        <path
           style="fill:none;stroke:#ff5555;stroke-width:3.77953;stroke-linejoin:round;stroke-miterlimit:4.1;stroke-dasharray:none"
           d="M 217.50196,72.49804 215,75.000002 c -5,5.000003 -20,32.848778 -34.39668,18.452089"
           id="path6"
           sodipodi:nodetypes="csc" />
        <path
           style="display:inline;fill:none;stroke:#ff5555;stroke-width:3.77953;stroke-linejoin:round;stroke-miterlimit:4.1;stroke-dasharray:none"
           d="m 202.33827,72.66173 2.50196,-2.501962 c 5,-5.000003 5,-5.000003 10,-3e-6"
           id="path8"
           transform="translate(15.000004)" />
      </g>
      <g
         id="g13"
         transform="translate(-19.999999,-20.000001)">
        <path
           style="display:inline;fill:none;stroke:#ff5555;stroke-width:3.77953;stroke-linejoin:round;stroke-miterlimit:4.1;stroke-dasharray:none"
           d="M 217.50196,72.49804 215,75.000002 c -5,5.000003 -5,5.000003 -10,3e-6"
           id="path9" />
        <path
           style="display:inline;fill:none;stroke:#ff5555;stroke-width:3.77953;stroke-linejoin:round;stroke-miterlimit:4.1;stroke-dasharray:none"
           d="M 217.49804,72.501964 220,70.000002 c 5,-5.000003 5,-5.000003 10,-3e-6"
           id="path13" />
      </g>
      <g
         id="g22"
         transform="translate(-4.9999989,-20.000001)">
        <path
           style="fill:none;stroke:#ff5555;stroke-width:3.77953;stroke-linejoin:round;stroke-miterlimit:4.1;stroke-dasharray:none"
           d="M 217.50196,72.49804 215,75.000002 c -5,5.000003 -5,5.000003 -10,3e-6"
           id="path21" />
        <path
           style="fill:none;stroke:#ff5555;stroke-width:3.77953;stroke-linejoin:round;stroke-miterlimit:4.1;stroke-dasharray:none"
           d="M 222.57895,40.269826 C 215,47.348776 225,65.000005 220,70.000002 l -2.49804,2.498038"
           id="path22"
           sodipodi:nodetypes="csc" />
      </g>
      <g
         id="g23"
         transform="translate(-50.040663,-19.846951)">
        <path
           style="display:inline;fill:none;stroke:#ff5555;stroke-width:3.77953;stroke-linejoin:round;stroke-miterlimit:4.1;stroke-dasharray:none"
           d="m 196.04067,50.99818 c 14,-13.999999 14.14711,-0.810399 33.95933,19.001819"
           id="path23"
           sodipodi:nodetypes="cc" />
      </g>
      <g
         id="g25"
         transform="matrix(0,1,1,0,81.000003,-99.651223)"
         inkscape:label="cs2"
         style="display:inline">
        <path
           style="display:inline;fill:none;stroke:#ff5555;stroke-width:3.77953;stroke-linejoin:round;stroke-miterlimit:4.1;stroke-dasharray:none"
           d="M 217.50196,72.49804 215,75.000002 C 210,80.000005 177.36741,155.98271 155,134"
           id="path24"
           sodipodi:nodetypes="csc" />
        <path
           style="display:inline;fill:none;stroke:#ff5555;stroke-width:3.77953;stroke-linejoin:round;stroke-miterlimit:4.1;stroke-dasharray:none"
           d="M 217.49804,72.501964 220,70.000002 c 5,-5.000003 5,-5.000003 10,-3e-6"
           id="path25" />
      </g>
      <g
         id="g27"
         transform="matrix(0,1,1,0,81,-84.651223)"
         inkscape:label="cs2"
         style="display:inline">
        <path
           style="display:inline;fill:none;stroke:#ff5555;stroke-width:3.77953;stroke-linejoin:round;stroke-miterlimit:4.1;stroke-dasharray:none"
           d="M 217.50196,72.49804 215,75.000002 c -5,5.000003 -5,5.000003 -10,3e-6"
           id="path26" />
        <path
           style="display:inline;fill:none;stroke:#ff5555;stroke-width:3.77953;stroke-linejoin:round;stroke-miterlimit:4.1;stroke-dasharray:none"
           d="M 217.49804,72.501964 220,70.000002 c 5,-5.000003 -1,-47.500003 9,-57.500003"
           id="path27"
           sodipodi:nodetypes="csc" />
      </g>
      <g
         id="g28"
         transform="matrix(0,1,1,0,80.999997,-69.651222)"
         inkscape:label="cs2"
         style="display:inline">
        <path
           style="display:inline;fill:none;stroke:#ff5555;stroke-width:3.77953;stroke-linejoin:round;stroke-miterlimit:4.1;stroke-dasharray:none"
           d="M 214,135.50001 C 191.5,113 218,89.000005 205,75.000005"
           id="path28"
           sodipodi:nodetypes="cc" />
      </g>
      <path
         style="fill:none;stroke:#ff5555;stroke-width:3.77953;stroke-linejoin:round;stroke-miterlimit:4.1;stroke-dasharray:none"
         d="M 151,115.34878 C 136.5528,101.29598 84.000004,93.151228 103.69914,73.45209"
         id="path29"
         sodipodi:nodetypes="cc" />
      <path
         style="display:inline;fill:#ff5555;stroke:#ff5555;stroke-width:3.77953;stroke-linejoin:round;stroke-miterlimit:4.1;stroke-dasharray:none"
         d="M 92.421046,25.921056 103.73569,37.000004"
         id="path30"
         transform="translate(-1.5894675e-7,-5.6512286)" />
    </g>
    <g
       id="g14"
       transform="translate(-0.83247401,3.194883)"
       style="stroke:#ffb86c;stroke-opacity:1">
      <g
         id="g7-6-2"
         transform="matrix(1.1109431,0,0,1.1109431,-92.75614,13.954451)"
         inkscape:label="template"
         style="display:inline;stroke:#ffb86c;stroke-opacity:1">
        <path
           style="display:inline;fill:none;stroke:#ffb86c;stroke-width:3.77953;stroke-linejoin:round;stroke-miterlimit:4.1;stroke-dasharray:none;stroke-opacity:1"
           d="M 217.49804,72.501964 220,70.000002 c 5,-5.000003 5,-5.000003 10,-3e-6"
           id="path10-7" />
      </g>
      <g
         id="g7-6-2-0"
         transform="matrix(1.1109431,0,0,1.1109431,-75.53132,13.954451)"
         inkscape:label="template"
         style="display:inline;stroke:#ffb86c;stroke-opacity:1">
        <path
           style="display:inline;fill:none;stroke:#ffb86c;stroke-width:3.77953;stroke-linejoin:round;stroke-miterlimit:4.1;stroke-dasharray:none;stroke-opacity:1"
           d="M 217.50196,72.49804 215,75.000002 c -5,5.000003 -5,5.000003 -10,3e-6"
           id="path7-0-54-9" />
        <path
           style="display:inline;fill:none;stroke:#ffb86c;stroke-width:3.77953;stroke-linejoin:round;stroke-miterlimit:4.1;stroke-dasharray:none;stroke-opacity:1"
           d="M 217.49804,72.501964 220,70.000002 c 5,-5.000003 5,-5.000003 10,-3e-6"
           id="path10-7-3" />
      </g>
      <g
         id="g7-6-2-2"
         transform="matrix(1.1109431,0,0,1.1109431,-58.866372,14.789504)"
         inkscape:label="template"
         style="display:inline;stroke:#ffb86c;stroke-opacity:1">
        <path
           style="display:inline;fill:none;stroke:#ffb86c;stroke-width:3.77953;stroke-linejoin:round;stroke-miterlimit:4.1;stroke-dasharray:none;stroke-opacity:1"
           d="M 217.50196,72.49804 215,75.000002 c -5,5.000003 -5,5.000003 -10,3e-6"
           id="path7-0-54-6" />
      </g>
    </g>
    <g
       id="g17"
       transform="matrix(1.1109431,0,0,1.1109431,-76.363794,17.149334)"
       inkscape:label="template"
       style="display:inline;stroke:#ffb86c;stroke-opacity:1"
       sodipodi:insensitive="true">
      <path
         style="display:inline;fill:none;stroke:#ffb86c;stroke-width:3.77953;stroke-linejoin:round;stroke-miterlimit:4.1;stroke-dasharray:none;stroke-opacity:1"
         d="M 217.50196,72.49804 215,75.000002 c -5,5.000003 -5,5.000003 -10,3e-6"
         id="path16" />
      <path
         style="display:inline;fill:none;stroke:#ffb86c;stroke-width:3.77953;stroke-linejoin:round;stroke-miterlimit:4.1;stroke-dasharray:none;stroke-opacity:1"
         d="M 217.49804,72.501964 220,70.000002 c 5,-5.000003 5,-5.000003 10,-3e-6"
         id="path17" />
    </g>
    <g
       id="g12"
       transform="matrix(0,1.1109431,-1.1109431,0,-18.515924,168.62006)">
      <rect
         style="fill:#ff5555;fill-opacity:0.764706;stroke:#ff5555;stroke-width:0.171888;stroke-miterlimit:3.6"
         id="rect7-2"
         width="89.841721"
         height="35.833557"
         x="121.16209"
         y="-227.99214"
         ry="13.85348" />
      <path
         id="path7-5-9"
         style="fill:none;fill-opacity:0.766511;stroke:#44475a;stroke-width:13.2068;stroke-miterlimit:3.6;stroke-dasharray:none;stroke-opacity:1"
         d="m 121.05952,-210.0916 -35.9888,-0.0648 c -9.00136,0 -9.00136,0 -9.01806,8.97389 v 27.01533 c 0.0167,9.01759 0.0167,9.01759 -9.00136,9.00136 l -35.88323,-0.003"
         sodipodi:nodetypes="cccccc" />
    </g>
  </g>
</svg>
