<!-- Created with Vectornator (http://vectornator.io/) -->
<svg xmlns:inkscape="http://www.inkscape.org/namespaces/inkscape" xmlns:sodipodi="http://sodipodi.sourceforge.net/DTD/sodipodi-0.dtd" xmlns="http://www.w3.org/2000/svg" xmlns:svg="http://www.w3.org/2000/svg" xmlns:vectornator="http://vectornator.io" stroke-miterlimit="10" style="clip-rule:evenodd;fill-rule:nonzero;stroke-linecap:round;stroke-linejoin:round" version="1.1" viewBox="0 0 1000 820" xml:space="preserve" id="svg73" sodipodi:docname="slide_6.svg"><sodipodi:namedview id="namedview73" pagecolor="#ffffff" bordercolor="#000000" borderopacity="0.25" inkscape:showpageshadow="2" inkscape:pageopacity="0.0" inkscape:pagecheckerboard="0" inkscape:deskcolor="#d1d1d1"/>
    <defs id="defs1">
        <filter color-interpolation-filters="sRGB" filterUnits="userSpaceOnUse" height="61.910801" id="Filter" width="79.591599" x="185.838" y="387.03799">
            <feDropShadow dx="-3.59878" dy="6.2266" flood-color="#282a36" flood-opacity="0.9" in="SourceGraphic" result="Shadow" stdDeviation="4.25342"/>
        </filter>
        <filter color-interpolation-filters="sRGB" filterUnits="userSpaceOnUse" height="61.910801" id="Filter_2" width="79.591599" x="195.33501" y="371.37201">
            <feDropShadow dx="5.89749" dy="-9.43925" flood-color="#282a36" flood-opacity="0.9" in="SourceGraphic" result="Shadow" stdDeviation="4.25342"/>
        </filter>
        <filter color-interpolation-filters="sRGB" filterUnits="userSpaceOnUse" height="98.041901" id="Filter_3" width="57.107101" x="630.20001" y="460.31699">
            <feDropShadow dx="-3.27529" dy="8.88105" flood-color="#282a36" flood-opacity="0.9" in="SourceGraphic" result="Shadow" stdDeviation="4.59589"/>
        </filter>
        <filter color-interpolation-filters="sRGB" filterUnits="userSpaceOnUse" height="87.2342" id="Filter_4" width="52.203899" x="639.73401" y="450.022">
            <feDropShadow dx="4.76037" dy="-6.54846" flood-color="#282a36" flood-opacity="0.9" in="SourceGraphic" result="Shadow" stdDeviation="3.82534"/>
        </filter>
        <filter color-interpolation-filters="sRGB" filterUnits="userSpaceOnUse" height="57.925201" id="Filter_5" width="48.308102" x="646.79498" y="402.94699">
            <feDropShadow dx="4.76037" dy="-6.54846" flood-color="#282a36" flood-opacity="0.9" in="SourceGraphic" result="Shadow" stdDeviation="3.82534"/>
        </filter>
        <filter color-interpolation-filters="sRGB" filterUnits="userSpaceOnUse" height="69.363602" id="Filter_6" width="54.949501" x="639.61499" y="410.30099">
            <feDropShadow dx="-3.27529" dy="8.88105" flood-color="#282a36" flood-opacity="0.9" in="SourceGraphic" result="Shadow" stdDeviation="4.59589"/>
        </filter>
        <filter color-interpolation-filters="sRGB" filterUnits="userSpaceOnUse" height="89.677803" id="Filter_7" width="85.564499" x="554.75201" y="418.811">
            <feDropShadow dx="3.2987" dy="3.93792" flood-color="#282a36" flood-opacity="0.9" in="SourceGraphic" result="Shadow" stdDeviation="4.25342"/>
        </filter>
        <filter color-interpolation-filters="sRGB" filterUnits="userSpaceOnUse" height="89.677803" id="Filter_8" width="85.564499" x="547.97601" y="409.78299">
            <feDropShadow dx="-3.47731" dy="-5.08998" flood-color="#282a36" flood-opacity="0.9" in="SourceGraphic" result="Shadow" stdDeviation="4.25342"/>
        </filter>
    </defs>
    <clipPath id="ArtboardFrame_22">
        <rect height="820" width="1000" x="0" y="0" id="rect1"/>
    </clipPath>
    <g clip-path="url(#ArtboardFrame_22)" id="Layer-1" vectornator:layerName="Layer 1" visibility="hidden">
        <path d="M -110.735,-138.315 H 1054.77 V 1059.06 H -110.735 Z" class="fill-background" fill-rule="nonzero" opacity="1" stroke="none" id="path1"/>
    </g>
    <g clip-path="url(#ArtboardFrame_22)" id="Layer-2" vectornator:layerName="Layer 2">
        <g opacity="1" id="g4">
            <clipPath id="ClipPath">
                <path d="M -7.81504,683.16 C -17.2898,624.236 35.3381,572.159 35.3381,572.159 l 8.2856,15.87 37.6224,-16.254 -5.3247,-14.094 40.7286,-9.183 2.044,16.053 50.514,-3.562 -2.641,-21.295 c 0,0 22.652,-1.646 30.451,-1.974 1.587,-0.067 5.68,21.832 5.68,21.832 l 45.027,-1.117 c 0,0 -3.78,-22.573 -1.39,-22.655 14.596,-0.499 47.654,-4.445 47.654,-4.445 l 10.474,-0.438 30.09,12.163 0.881,-12.622 c 0,0 15.595,-0.882 21.958,-0.955 3.333,-0.038 3.094,16.114 3.094,16.114 l 36.313,-2.949 c 0,0 -2.209,-21.939 1.739,-21.992 24.67,-0.33 124.224,-9.107 124.224,-9.107 0,0 -53.461,49.152 -40.172,29.492 13.288,-19.661 25.878,11.146 25.878,11.146 l 25.324,-11.153 37.99,-19.092 c 0,0 21.122,0.323 40.482,2.181 3.587,0.344 3.792,13.542 3.792,13.542 l 26.003,3.692 11.863,-17.829 173.943,5.081 -23.26,20.294 39.952,1.185 8.997,-14.736 25.845,5.144 4.955,10.438 27.309,6.669 c 0,0 6.48,-14.906 6.943,-14.753 97.724,32.405 86.734,85.866 86.734,140.31 0,54.677 17.39,92.293 -81.056,124.696 -30.922,10.178 -774.148,24.988 -851.047,0 C -26.4626,775.459 1.6597,742.084 -7.81504,683.16 Z" id="path2"/>
            </clipPath>
            <g clip-path="url(#ClipPath)" id="g3">
                <path d="m 0.44996,690.982 c 0,-52.796 -10.88266,-92.23 85.88314,-123.411 55.0939,-17.753 458.3509,-14.844 682.8099,-8.117 82.379,2.469 140.675,5.452 148.837,8.117 95.5,31.185 79.204,67.607 79.204,120 0,52.618 16.996,88.817 -79.204,120 -30.217,9.795 -756.501,24.047 -831.6469,0 C -11.0938,776.394 0.44996,743.987 0.44996,690.982 Z" class="fill-blue stroke-orange stroke-orange" fill="#8be9fd" fill-rule="nonzero" opacity="1" stroke="#ffb86c" stroke-linecap="round" stroke-linejoin="round" stroke-width="4.86072" id="path3"/>
            </g>
        </g>
        <g opacity="1" id="g6">
            <clipPath id="ClipPath_2">
                <path d="m 393.34,94.9217 c -5.316,-41.909 24.21,-78.9479 24.21,-78.9479 l 7.708,-8.53807 5.809,2.23137 9.252,-3.99062 22.85,-6.531058 7.266,0.211214 7.942,-3.394956 12.797,-3.07859 c 0,0 12.708,-1.17059 17.084,-1.40384 0.89,-0.04748 11.345,0.01242 11.345,0.01242 0,0 11.508,16.94674 10.984,0.06779 -0.524,-16.87896 3.998,-1.4014 5.339,-1.45961 8.189,-0.35535 26.736,-3.16155 26.736,-3.16155 l 5.876,-0.3117 16.882,8.65046 0.494,-8.97656 c 0,0 8.749,-0.6276 12.319,-0.6796 1.87,-0.0272 1.736,11.46106 1.736,11.46106 l 20.372,-2.09752 c 0,0 -1.239,-15.60394 0.976,-15.64154 13.841,-0.2349 69.694,-6.4771 69.694,-6.4771 l -12.613,19.24428 21.092,-2.57978 19.023,-9.2731 c 0,0 11.85,0.2303 22.712,1.5514 2.012,0.2448 2.127,9.63191 2.127,9.63191 l 14.589,2.62587 6.655,-12.68058 97.588,3.6132 c 0,0 -6.028,30.0008 -9.998,14.655635 -3.97,-15.345135 16.6,-0.206396 16.6,-0.206396 l 7.81,-9.653339 14.5,3.6589 0.47,5.52178 15.081,3.16768 c 0,0 6.186,-7.12413 6.445,-7.01495 54.827,23.04739 48.659,61.07089 48.659,99.79339 0,38.8883 1.586,76.5473 -53.646,99.5943 -17.348,7.238 -425.719,11.774 -468.862,-5.999 -55.935,-23.041 -40.588,-51.686 -45.903,-93.5953 z" id="path4"/>
            </clipPath>
            <g clip-path="url(#ClipPath_2)" id="g5">
                <path d="m 397.977,100.485 c 0,-37.5505 -6.106,-65.5974 48.183,-87.7743 30.91,-12.6264877 257.15,-10.5581 383.079,-5.77346 46.217,1.75602 78.923,3.87786 83.502,5.77346 53.576,22.1796 44.436,48.084 44.436,85.3484 0,37.4239 9.537,63.1699 -44.436,85.3489 -16.953,6.966 -424.422,17.103 -466.581,0 -54.66,-22.175 -48.183,-45.224 -48.183,-82.923 z" class="fill-red stroke-orange stroke-orange" fill="#ff5555" fill-rule="nonzero" opacity="1" stroke="#ffb86c" stroke-linecap="round" stroke-linejoin="round" stroke-width="4.86072" id="path5"/>
            </g>
        </g>
    </g>
    <g id="Layer-7" vectornator:layerName="Layer 7">
        <g opacity="1" id="g8">
            <clipPath id="ClipPath_3">
                <path d="M 323.318,323.12 C 303.944,304.696 161.993,315.627 179.836,296.863 197.679,278.099 85.1561,600.85 104.53,619.273 123.905,637.697 402.262,354.33 384.419,373.094 366.576,391.858 342.692,341.543 323.318,323.12 Z" id="path6"/>
            </clipPath>
            <g clip-path="url(#ClipPath_3)" id="g7">
                <path d="m 449.343,231.164 c -23.518,18.625 -83.221,16.147 -106.739,34.771 l -0.006,-0.006 c -23.519,18.624 -25.392,89.807 -40.69,100.932 -32.481,23.617 -135.7,194.449 -135.7,194.449 0,0 -62.829,25.392 -50.801,2.996 113.252,-210.869 150.665,-228.111 150.665,-228.111 19.482,-15.428 62.724,-18.972 90.469,-28.169 5.749,-1.906 10.819,-4.323 14.856,-7.52 l 0.006,0.007 c 23.518,-18.625 19.211,-81.459 50.399,-107 23.94,-19.606 140.073,-162.1162 235.56,-159.148 99.058,3.0793 52.799,77.463 65.642,96.258 0,0 -16.316,10.956 -16.503,10.509 C 683.195,85.3939 746.421,78.898 657.106,73.3098 612.632,70.5273 462.326,226.229 448.345,231.283" class="fill-blue" fill="#8be9fd" fill-rule="nonzero" opacity="1" stroke="none" id="path7"/>
            </g>
        </g>
        <g opacity="1" id="g10">
            <clipPath id="ClipPath_4">
                <path d="m 323.318,323.12 c -19.374,-18.424 -16.563,-53.403 1.28,-72.167 8.147,-8.566 -37.099,-42.135 1.883,-76.366 46.403,-40.749 119.096,-2.044 117.124,0.725 -1.971,2.769 123.505,17.429 104.53,51.556 -32.481,58.42 -142.113,78.958 -153.376,90.803 -17.843,18.764 -52.067,23.872 -71.441,5.449 z" id="path8"/>
            </clipPath>
            <g clip-path="url(#ClipPath_4)" id="g9">
                <path d="m 426.319,162.817 c -23.518,18.625 -60.197,84.494 -83.715,103.118 l -0.883,3.501 c -28.789,30.482 -15.261,72.195 -46.943,95.277 -20.207,14.721 72.466,68.91 72.466,68.91 L 339.68,462.61 c 0,0 -129.906,-102.832 -74.067,-132.53 33.511,-17.823 63.183,-12.857 90.928,-22.054 5.749,-1.906 10.819,-4.323 14.856,-7.52 l 0.006,0.007 C 394.921,281.888 450.107,207.214 481.291,173.351 538.871,110.825 593.546,40.7144 613.741,70.268 L 560.548,38.5675 c 0,0 -26.295,24.4241 -68.352,39.6286" class="fill-red" fill="#ff5555" fill-rule="nonzero" opacity="1" stroke="none" id="path9"/>
            </g>
        </g>
        <g opacity="1" id="g14">
            <path d="m 373.872,299.073 c -22.623,19.702 -81.526,14.617 -104.149,34.319" fill="none" opacity="1" class="stroke-orange stroke-orange" stroke="#ffb86c" stroke-linecap="round" stroke-linejoin="round" stroke-width="4.86072" id="path10"/>
            <path d="m 313.986,323.098 c -2.72,-3.124 -1.549,-8.596 2.616,-12.223 4.165,-3.627 9.746,-4.036 12.467,-0.912 2.72,3.124 1.549,8.596 -2.616,12.223 -4.165,3.627 -9.747,4.036 -12.467,0.912 z" class="fill-background" fill-rule="nonzero" opacity="1" stroke="none" id="path11"/>
            <path d="m 300.104,366.588 c 19.236,-20.492 20.763,-81.009 43.387,-100.711" fill="none" opacity="1" class="stroke-orange stroke-orange" stroke="#ffb86c" stroke-linecap="round" stroke-linejoin="round" stroke-width="4.86072" id="path12"/>
            <path d="m 373.878,299.079 c 22.624,-19.702 64.654,-69.276 95.55,-111.423" fill="none" opacity="1" class="stroke-orange stroke-orange" stroke="#ffb86c" stroke-linecap="round" stroke-linejoin="round" stroke-width="4.86072" id="path13"/>
            <path d="m 419.696,169.357 c -22.624,19.702 -53.576,76.825 -76.199,96.527" fill="none" opacity="1" class="stroke-orange stroke-orange" stroke="#ffb86c" stroke-linecap="round" stroke-linejoin="round" stroke-width="4.86072" id="path14"/>
        </g>
        <g opacity="1" id="g17">
            <clipPath id="ClipPath_5">
                <path d="m 29.291,95.6366 399.05,76.5654 11.119,5.812 45.546,8.822 17.21,1.217 473.807,93.897 -17.107,289.479 -221.732,-11.697 c 0,0 -47.691,-2.955 -185.016,-3.086 -44.892,-0.042 -98.128,-1.173 -150.898,-1.656 -17.577,-0.161 -45.873,0.701 -62.731,1.555 -65.892,3.338 -149.134,-3.254 -149.134,-3.254 l -17.844,8.482 -54.094,2.93 -29.6683,-6.162 -82.22554,32.581 z" id="path15"/>
            </clipPath>
            <g clip-path="url(#ClipPath_5)" id="g16">
                <path d="m 271.157,332.465 c -56.002,38.144 -157.57,234.89 -157.57,234.89 l 53.8,-0.326 c 0,0 2.286,-5.412 6.547,-14.666 27.071,-58.783 104.858,-158.277 126.765,-186.416" fill="none" opacity="1" class="stroke-orange stroke-orange" stroke="#ffb86c" stroke-linecap="butt" stroke-linejoin="round" stroke-width="4.86072" id="path16"/>
            </g>
        </g>
    </g>
    <g clip-path="url(#ArtboardFrame_22)" id="Layer-6" vectornator:layerName="Layer 6">
        <g opacity="1" id="g19">
            <clipPath id="ClipPath_6">
                <path d="M 751.294,321.322 C 731.92,302.898 589.97,313.829 607.813,295.065 c 17.843,-18.764 22.883,279.483 42.257,297.906 19.374,18.424 74.789,-40.348 56.946,-21.585 -17.843,18.764 63.653,-231.641 44.278,-250.064 z" id="path17"/>
            </clipPath>
            <g clip-path="url(#ClipPath_6)" id="g18">
                <path d="m 877.32,229.366 c -23.519,18.624 -83.221,16.146 -106.74,34.771 l -0.006,-0.007 c -23.518,18.625 -18.813,86.42 -42.009,99.614 -63.527,36.134 -42.479,127.16 -56.654,195.222 -13.847,66.489 -26.9,22.648 -27.402,-2.769 -3.15,-159.489 49.54,-221.8 49.54,-221.8 19.482,-15.428 62.723,-18.973 90.469,-28.169 5.749,-1.906 10.819,-4.323 14.856,-7.52 l 0.005,0.007 c 23.519,-18.625 19.212,-81.46 50.399,-107.001 23.94,-19.605 140.074,-162.1154 235.562,-159.1472 99.06,3.0793 52.8,77.4632 65.64,96.2582 0,0 -16.32,10.955 -16.5,10.509 -23.31,-55.7383 39.92,-62.2342 -49.4,-67.8224 C 1040.61,68.729 890.302,224.431 876.321,229.485" class="fill-blue" fill="#8be9fd" fill-rule="nonzero" opacity="1" stroke="none" id="path18"/>
            </g>
        </g>
        <g opacity="1" id="g21">
            <clipPath id="ClipPath_7">
                <path d="m 751.294,321.322 c -19.374,-18.424 -16.562,-53.403 1.281,-72.167 8.146,-8.567 -37.099,-42.135 1.882,-76.367 46.403,-40.748 119.096,-2.044 117.125,0.726 -1.971,2.769 123.505,17.428 104.529,51.556 -32.481,58.42 -142.112,78.958 -153.376,90.803 -17.843,18.763 -52.066,23.872 -71.441,5.449 z" id="path19"/>
            </clipPath>
            <g clip-path="url(#ClipPath_7)" id="g20">
                <path d="m 854.296,161.019 c -23.519,18.624 -60.197,84.493 -83.716,103.118 l -0.882,3.501 c -28.79,30.482 -15.261,72.195 -46.944,95.277 -20.206,14.721 72.466,68.91 72.466,68.91 l -27.564,28.987 c 0,0 -129.906,-102.833 -74.066,-132.53 33.511,-17.823 63.182,-12.858 90.928,-22.054 5.749,-1.906 10.819,-4.323 14.856,-7.52 l 0.005,0.007 C 822.898,280.09 878.084,205.415 909.268,171.553 966.848,109.026 1021.52,38.9162 1041.72,68.4698 L 988.524,36.7693 c 0,0 -26.294,24.4241 -68.352,39.6285" class="fill-red" fill="#ff5555" fill-rule="nonzero" opacity="1" stroke="none" id="path20"/>
            </g>
        </g>
        <g opacity="1" id="g25">
            <path d="m 801.849,297.275 c -22.624,19.702 -81.526,14.617 -104.15,34.319" fill="none" opacity="1" class="stroke-orange stroke-orange" stroke="#ffb86c" stroke-linecap="round" stroke-linejoin="round" stroke-width="4.86072" id="path21"/>
            <path d="m 741.962,321.3 c -2.72,-3.124 -1.549,-8.597 2.616,-12.224 4.165,-3.627 9.747,-4.035 12.467,-0.911 2.72,3.124 1.549,8.596 -2.616,12.223 -4.165,3.627 -9.746,4.035 -12.467,0.912 z" class="fill-background" fill-rule="nonzero" opacity="1" stroke="none" id="path22"/>
            <path d="m 727.49,364.724 c 22.258,-10.515 21.354,-80.943 43.977,-100.645" fill="none" opacity="1" class="stroke-orange stroke-orange" stroke="#ffb86c" stroke-linecap="round" stroke-linejoin="round" stroke-width="4.86072" id="path23"/>
            <path d="m 801.855,297.281 c 22.624,-19.702 64.654,-69.277 95.55,-111.423" fill="none" opacity="1" class="stroke-orange stroke-orange" stroke="#ffb86c" stroke-linecap="round" stroke-linejoin="round" stroke-width="4.86072" id="path24"/>
            <path d="m 829.481,188.406 c -22.624,19.702 -35.384,55.977 -58.008,75.679" fill="none" opacity="1" class="stroke-orange stroke-orange" stroke="#ffb86c" stroke-linecap="round" stroke-linejoin="round" stroke-width="4.86072" id="path25"/>
        </g>
        <g opacity="1" id="g28">
            <clipPath id="ClipPath_8">
                <path d="m 457.267,93.8384 399.051,76.5656 11.119,5.812 45.545,8.822 17.21,1.217 473.808,93.897 -17.11,289.478 -221.73,-11.696 c 0,0 -47.69,-2.955 -185.016,-3.086 -44.892,-0.043 -98.127,-1.173 -150.898,-1.656 -17.577,-0.161 -45.873,0.701 -62.73,1.555 -24.905,1.261 -74.093,4.099 -91.981,4.834 -4.241,0.175 -6.597,-0.522 -6.597,-0.522 l 0.953,-5.327 c 0,0 -16.534,1.577 -21.546,0.853 -1.283,-0.185 -0.697,4.624 -1.958,4.458 -13.947,-1.842 -28.006,-7.55 -28.006,-7.55 l -15.81,6.514 -55.102,-0.492 -30.694,-0.772 -82.225,32.581 z" id="path26"/>
            </clipPath>
            <g clip-path="url(#ClipPath_8)" id="g27">
                <path d="m 699.133,330.666 c -52.228,35.575 -54.861,204.578 -55.016,227.45 -0.011,1.652 24.212,9.736 26.521,-0.187 14.252,-61.254 -2.384,-171.709 58.038,-193.78" fill="none" opacity="1" class="stroke-orange stroke-orange" stroke="#ffb86c" stroke-linecap="butt" stroke-linejoin="round" stroke-width="4.86072" id="path27"/>
            </g>
        </g>
    </g>
    <g clip-path="url(#ArtboardFrame_22)" id="Layer-5" vectornator:layerName="Layer 5">
        <g opacity="1" id="g34">
            <path d="m 222.466,405.731 c 4.631,-7.888 26.893,-14.228 30.498,-4.233 3.606,9.994 -12.838,19.934 -16.726,23.174 -2.445,2.038 -24.679,5.863 -30.113,-3.712 -4.684,-8.255 5.967,2.443 16.341,-15.229 z" class="fill-blue stroke-orange stroke-orange" fill="#8be9fd" fill-rule="nonzero" filter="url(#Filter)" stroke="#ffb86c" stroke-linecap="butt" stroke-linejoin="round" stroke-width="9.83584" vectornator:shadowAngle="2.09486" vectornator:shadowColor="#282a36" vectornator:shadowOffset="7.19178" vectornator:shadowOpacity="0.9" vectornator:shadowRadius="8.50685" id="path28"/>
            <path d="m 222.466,405.731 c 4.631,-7.888 26.893,-14.228 30.498,-4.233 3.606,9.994 -12.838,19.934 -16.726,23.174 -2.445,2.038 -24.679,5.863 -30.113,-3.712 -4.684,-8.255 5.967,2.443 16.341,-15.229 z" class="fill-blue stroke-orange stroke-orange" fill="#8be9fd" fill-rule="nonzero" filter="url(#Filter_2)" stroke="#ffb86c" stroke-linecap="butt" stroke-linejoin="round" stroke-width="9.83584" vectornator:shadowAngle="-1.01235" vectornator:shadowColor="#282a36" vectornator:shadowOffset="11.1301" vectornator:shadowOpacity="0.9" vectornator:shadowRadius="8.50685" id="path29"/>
            <path d="m 225.329,431.843 c -32.826,-4.653 -58.238,-24.971 -87.948,-20.812 l -0.002,-0.009 c -29.71,4.158 -44.0264,44.295 -91.2423,60.991 -21.139,7.476 36.1038,99.143 36.1038,99.143 l -36.5254,20.576 c 0,0 -70.3912,-167 -7.2013,-164.349 37.9222,1.591 0.2032,-0.059 0.2032,-0.059 24.6109,-3.444 60.7957,20.95 89.38,27.062 5.922,1.266 11.519,1.748 16.618,1.034 l 0.002,0.009 c 29.71,-4.159 53.938,-61.154 93.763,-67.396 83.975,-13.162 -0.447,145.133 9.854,172.272 0,0 -62.721,31.207 -48.715,1.712 60.417,-127.231 50.043,-126.725 25.71,-130.174 z" class="fill-blue" fill="#8be9fd" fill-rule="nonzero" opacity="1" stroke="none" id="path30"/>
            <clipPath id="ClipPath_9">
                <path d="m 94.0214,452.783 c -7.384,-25.696 10.5286,-56.636 35.4146,-63.787 24.886,-7.152 51.046,7.882 58.43,33.577 7.384,25.696 -6.804,52.324 -31.69,59.475 -24.886,7.151 -54.771,-3.57 -62.1546,-29.265 z" id="path31"/>
            </clipPath>
            <g clip-path="url(#ClipPath_9)" id="g33">
                <path d="m 243.379,439.126 c -29.71,4.159 -76.288,-32.254 -105.998,-28.095 l -0.002,-0.009 c -41.3843,8.065 -45.4454,47.256 -91.2423,60.991 -23.9462,7.182 27.6188,96.111 27.6188,96.111 l -38.4442,11.047 c 0,0 -59.9874,-154.439 3.2025,-151.788 37.9222,1.591 0.2032,-0.059 0.2032,-0.059 24.6109,-3.444 60.7957,20.95 89.38,27.062 5.922,1.266 11.519,1.748 16.618,1.034 l 0.002,0.009 c 29.71,-4.159 51.893,-54.508 91.718,-60.75 83.975,-13.162 74.411,72.806 76.869,108.516 l -39.368,9.906 c 0,0 14.006,-65.678 -29.962,-73.852" class="fill-red" fill="#ff5555" fill-rule="nonzero" opacity="1" stroke="none" id="path32"/>
                <path d="m 223.096,391.773 -28.338,36.94 43.012,4.049 29.097,-37.952 z" fill="none" opacity="1" class="stroke-orange stroke-orange" stroke="#ffb86c" stroke-linecap="butt" stroke-linejoin="round" stroke-width="4.86072" id="path33"/>
            </g>
        </g>
        <g opacity="1" id="g43">
            <path d="m 144.257,453.079 c -29.587,4.96 -77.1321,-30.18 -106.7192,-25.22" fill="none" opacity="1" class="stroke-orange stroke-orange" stroke="#ffb86c" stroke-linecap="round" stroke-linejoin="round" stroke-width="4.86072" id="path34"/>
            <path d="m 80.6487,442.235 c -0.6849,-4.085 3.1754,-8.137 8.6223,-9.05 5.4468,-0.913 10.4175,1.658 11.102,5.743 0.685,4.086 -3.1751,8.138 -8.6219,9.051 -5.4468,0.913 -10.4175,-1.659 -11.1024,-5.744 z" class="fill-background" fill-rule="nonzero" opacity="1" stroke="none" id="path35"/>
            <path d="m 46.0715,472.043 c 29.5871,-4.96 60.0645,-58.187 89.6515,-63.147" fill="none" opacity="1" class="stroke-orange stroke-orange" stroke="#ffb86c" stroke-linecap="round" stroke-linejoin="round" stroke-width="4.86072" id="path36"/>
            <path d="m 233.242,432.59 c -29.588,4.96 -67.93,-28.646 -97.517,-23.686" fill="none" opacity="1" class="stroke-orange stroke-orange" stroke="#ffb86c" stroke-linecap="round" stroke-linejoin="round" stroke-width="4.86072" id="path37"/>
            <path d="m 178.836,423.28 c -0.685,-4.085 3.175,-8.137 8.622,-9.05 5.447,-0.913 10.418,1.658 11.102,5.743 0.685,4.085 -3.175,8.137 -8.622,9.05 -5.447,0.914 -10.417,-1.658 -11.102,-5.743 z" class="fill-background" fill-rule="nonzero" opacity="1" stroke="none" id="path38"/>
            <path d="m 144.259,453.088 c 29.587,-4.961 60.064,-58.187 89.651,-63.148" fill="none" opacity="1" class="stroke-orange stroke-orange" stroke="#ffb86c" stroke-linecap="round" stroke-linejoin="round" stroke-width="4.86072" id="path39"/>
            <clipPath id="ClipPath_10">
                <path d="m -640.105,498.14 995.751,-233.065 -105.439,293.232 -4.524,0.275 -0.266,-10.827 -36.473,-3.58 -7.089,15.9 -6.906,-0.141 -50.29,-25.279 c 0,0 -59.4086,35.679 -63.4188,37.065 -11.6865,4.038 -37.8934,5.373 -37.8934,5.373 l 3.3667,8.814 -6.635,4.533 -419.2195,109.645 -95.273,35.697 -68.543,55.897 z" id="path40"/>
            </clipPath>
            <g clip-path="url(#ClipPath_10)" id="g42">
                <path d="m 37.3362,427.923 c -63.2385,-0.941 7.396,159.633 7.396,159.633 L 84.0054,573.72 c 0,0 -62.3077,-96.246 -37.8424,-101.389" fill="none" opacity="1" class="stroke-orange stroke-orange" stroke="#ffb86c" stroke-linecap="butt" stroke-linejoin="round" stroke-width="4.86072" id="path41"/>
                <path d="m 233.313,432.454 c 35.831,-0.957 -33.896,126.614 -33.896,126.614 l 48.703,-2.034 c -3.423,-35.63 70.729,-183.219 -12.859,-167.791" fill="none" opacity="1" class="stroke-orange stroke-orange" stroke="#ffb86c" stroke-linecap="round" stroke-linejoin="round" stroke-width="4.86072" id="path42"/>
            </g>
        </g>
    </g>
    <g clip-path="url(#ArtboardFrame_22)" id="Layer-3" vectornator:layerName="Layer 3">
        <g opacity="1" id="g48">
            <path d="m 654.702,466.792 -5.871,46.89 25.203,20.44 1.192,-53.331 z" class="fill-blue stroke-orange stroke-orange" fill="#8be9fd" fill-rule="nonzero" filter="url(#Filter_3)" stroke="#ffb86c" stroke-linecap="butt" stroke-linejoin="round" stroke-width="7.73265" vectornator:shadowAngle="1.92412" vectornator:shadowColor="#282a36" vectornator:shadowOffset="9.46575" vectornator:shadowOpacity="0.9" vectornator:shadowRadius="9.19178" id="path43"/>
            <path d="m 654.956,468.564 -7.988,46.295 26.478,16.952 c 0,0 3.319,-51.899 0.784,-48.906 -2.534,2.994 -7.808,-4.323 -7.808,-4.323 z" class="fill-blue stroke-orange stroke-orange" fill="#8be9fd" fill-rule="nonzero" filter="url(#Filter_4)" stroke="#ffb86c" stroke-linecap="butt" stroke-linejoin="round" stroke-width="4.86072" vectornator:shadowAngle="-0.942214" vectornator:shadowColor="#282a36" vectornator:shadowOffset="8.09589" vectornator:shadowOpacity="0.9" vectornator:shadowRadius="7.65068" id="path44"/>
            <path d="m 551.039,445.272 c -29.704,-4.209 -64.413,-52.069 -94.116,-56.278 l 10e-4,-0.009 c -29.703,-4.208 -54.548,30.413 -104.539,33.419 -22.381,1.347 -33.929,37.13 -32.72,136.896 0.033,2.766 -37.633,-1.347 -37.723,-2.373 -10.668,-121.12 3.514,-179.484 75.443,-179.523 37.956,-0.02 0.212,0 0.212,0 24.605,3.487 52.645,36.926 78.429,50.695 5.342,2.853 10.588,4.861 15.686,5.584 l -10e-4,0.008 c 29.704,4.209 82.728,-44.533 104.93,-33.055 116.696,60.331 181.195,126.019 176.495,160.871 l -35.666,0.604 c 0,0 -105.893,-96.556 -145.893,-116.556" class="fill-blue" fill="#8be9fd" fill-rule="nonzero" opacity="1" stroke="none" id="path45"/>
            <clipPath id="ClipPath_11">
                <path d="m 408.489,414.031 c 0,-26.735 20.99,-48.409 46.884,-48.409 25.893,0 46.883,21.674 46.883,48.409 0,26.736 -20.99,48.409 -46.883,48.409 -25.894,0 -46.884,-21.673 -46.884,-48.409 z" id="path46"/>
            </clipPath>
            <g clip-path="url(#ClipPath_11)" id="g47">
                <path d="m 551.039,445.272 c -29.704,-4.209 -64.413,-52.069 -94.116,-56.278 l 10e-4,-0.009 c -42.002,-3.678 -56.73,32.867 -104.539,33.419 -24.998,0.289 0,100 0,100 h -40 c 0,0 -15,-165 45,-145 36.008,12.003 0.212,0 0.212,0 24.605,3.487 52.645,36.926 78.429,50.695 5.342,2.853 10.588,4.861 15.686,5.584 l -10e-4,0.008 c 29.704,4.209 64.93,-38.055 104.93,-33.055 84.344,10.543 51.408,90.525 43.908,125.525 l -40.573,-1.351 c 0,0 31.601,-59.255 -8.399,-79.255" class="fill-red" fill="#ff5555" fill-rule="nonzero" opacity="1" stroke="none" id="path47"/>
            </g>
        </g>
        <g opacity="1" id="g57">
            <path d="m 350.048,422.938 c 29.703,4.209 74.835,-37.325 104.538,-33.116" fill="none" opacity="1" class="stroke-orange stroke-orange" stroke="#ffb86c" stroke-linecap="round" stroke-linejoin="round" stroke-width="4.86072" id="path48"/>
            <path d="m 392.014,404.968 c 0.581,-4.101 5.485,-6.798 10.953,-6.023 5.468,0.775 9.43,4.728 8.849,8.829 -0.581,4.101 -5.485,6.797 -10.953,6.023 -5.469,-0.775 -9.43,-4.728 -8.849,-8.829 z" class="fill-background" fill-rule="nonzero" opacity="1" stroke="none" id="path49"/>
            <path d="M 449.375,434.519 C 419.672,430.31 384.963,382.45 355.259,378.241" fill="none" opacity="1" class="stroke-orange stroke-orange" stroke="#ffb86c" stroke-linecap="round" stroke-linejoin="round" stroke-width="4.86072" id="path50"/>
            <path d="m 449.374,434.528 c 29.703,4.209 74.835,-37.325 104.539,-33.116" fill="none" opacity="1" class="stroke-orange stroke-orange" stroke="#ffb86c" stroke-linecap="round" stroke-linejoin="round" stroke-width="4.86072" id="path51"/>
            <path d="m 491.34,416.558 c 0.581,-4.102 5.485,-6.798 10.953,-6.023 5.468,0.774 9.43,4.727 8.849,8.828 -0.581,4.102 -5.485,6.798 -10.953,6.023 -5.468,-0.775 -9.43,-4.727 -8.849,-8.828 z" class="fill-background" fill-rule="nonzero" opacity="1" stroke="none" id="path52"/>
            <path d="M 548.701,446.109 C 518.998,441.9 484.289,394.039 454.585,389.831" fill="none" opacity="1" class="stroke-orange stroke-orange" stroke="#ffb86c" stroke-linecap="round" stroke-linejoin="round" stroke-width="4.86072" id="path53"/>
            <clipPath id="ClipPath_12">
                <path d="m -311.958,240.542 h 974.39 l 77.235,320.642 -9.317,0.468 0.958,-7.319 -36.487,-0.61 3.708,6.338 -375.958,-20.655 -0.269,14.279 c 0,0 -40.682,-1.064 -86.947,-1.108 -137.326,-0.131 -359.541,-40.693 -359.541,-40.693 l -101.606,5.25 -82.225,32.58 z" id="path54"/>
            </clipPath>
            <g clip-path="url(#ClipPath_12)" id="g56">
                <path d="M 355.048,378.241 C 251.387,362.565 282.874,556.067 282.874,556.067 l 37.132,-0.18 c 0,0 -6.732,-131.262 30.042,-132.646" fill="none" opacity="1" class="stroke-orange stroke-orange" stroke="#ffb86c" stroke-linecap="butt" stroke-linejoin="round" stroke-width="4.86072" id="path55"/>
                <path d="m 549.239,446.391 c 40,20 145.59,111.765 145.59,111.765 l 38.602,0.575 c 7.5,-35 -92.822,-118.343 -179.128,-157.259" fill="none" opacity="1" class="stroke-orange stroke-orange" stroke="#ffb86c" stroke-linecap="round" stroke-linejoin="round" stroke-width="4.86072" id="path56"/>
            </g>
        </g>
        <g opacity="1" id="g64">
            <path d="m 656.721,421.489 -2.692,33.938 24.32,-6.454 -2.316,-19.819 z" class="fill-blue stroke-orange stroke-orange" fill="#8be9fd" fill-rule="nonzero" filter="url(#Filter_5)" stroke="#ffb86c" stroke-linecap="butt" stroke-linejoin="round" stroke-width="4.86072" vectornator:shadowAngle="-0.942214" vectornator:shadowColor="#282a36" vectornator:shadowOffset="8.09589" vectornator:shadowOpacity="0.9" vectornator:shadowRadius="7.65068" id="path57"/>
            <path d="m 660.194,416.776 -1.948,38.651 20.103,-4.47 4.135,-21.555 z" class="fill-blue stroke-orange stroke-orange" fill="#8be9fd" fill-rule="nonzero" filter="url(#Filter_6)" stroke="#ffb86c" stroke-linecap="butt" stroke-linejoin="round" stroke-width="7.73265" vectornator:shadowAngle="1.92412" vectornator:shadowColor="#282a36" vectornator:shadowOffset="9.46575" vectornator:shadowOpacity="0.9" vectornator:shadowRadius="9.19178" id="path58"/>
            <path d="m 604.416,427.937 -39.899,26.325 19.744,37.225 39.693,-27.559 z" class="fill-red stroke-orange stroke-orange" fill="#ff5555" fill-rule="nonzero" filter="url(#Filter_7)" stroke="#ffb86c" stroke-linecap="butt" stroke-linejoin="round" stroke-width="4.86072" vectornator:shadowAngle="0.8735" vectornator:shadowColor="#282a36" vectornator:shadowOffset="5.13699" vectornator:shadowOpacity="0.9" vectornator:shadowRadius="8.50685" id="path59"/>
            <path d="m 604.416,427.937 -39.899,26.325 19.744,37.225 39.693,-27.559 z" class="fill-red stroke-orange stroke-orange" fill="#ff5555" fill-rule="nonzero" filter="url(#Filter_8)" stroke="#ffb86c" stroke-linecap="butt" stroke-linejoin="round" stroke-width="4.86072" vectornator:shadowAngle="4.11305" vectornator:shadowColor="#282a36" vectornator:shadowOffset="6.16438" vectornator:shadowOpacity="0.9" vectornator:shadowRadius="8.50685" id="path60"/>
            <path d="m 846.599,481.781 c -29.704,-4.209 -64.413,-52.069 -94.116,-56.278 l 0.001,-0.009 c -29.703,-4.209 -54.548,30.412 -104.539,33.419 -22.381,1.346 -113.554,75.605 -132.121,90.907 -2.135,1.76 -14.404,10.571 -14.404,10.571 l -40.617,1.236 c 0,0 132.142,-167.714 192.142,-147.714 36.008,12.003 0.212,0 0.212,0 24.605,3.487 52.645,36.926 78.429,50.695 5.342,2.853 10.588,4.861 15.686,5.583 l -0.001,0.009 c 29.704,4.209 64.93,-38.055 104.93,-33.055 84.343,10.543 46.605,104.29 39.105,139.29 l -40.895,-8.391 c 0,0 36.726,-65.981 -3.274,-85.981" class="fill-blue" fill="#8be9fd" fill-rule="nonzero" opacity="1" stroke="none" id="path61"/>
            <clipPath id="ClipPath_13">
                <path d="m 704.049,450.54 c 0,-26.736 20.99,-48.409 46.883,-48.409 25.894,0 46.884,21.673 46.884,48.409 0,26.735 -20.99,48.409 -46.884,48.409 -25.893,0 -46.883,-21.674 -46.883,-48.409 z" id="path62"/>
            </clipPath>
            <g clip-path="url(#ClipPath_13)" id="g63">
                <path d="m 846.599,481.781 c -29.704,-4.209 -64.413,-52.069 -94.116,-56.278 l 0.001,-0.009 c -42.002,-3.679 -56.73,32.867 -104.539,33.419 -24.998,0.289 0,100 0,100 h -40 c 0,0 -15,-165 45,-145 36.008,12.003 0.212,0 0.212,0 24.605,3.487 52.645,36.926 78.429,50.695 5.342,2.853 10.588,4.861 15.686,5.583 l -0.001,0.009 c 29.704,4.209 64.93,-38.055 104.93,-33.055 84.343,10.543 51.408,90.525 43.908,125.525 l -40.573,-1.352 c 0,0 31.601,-59.255 -8.399,-79.255" class="fill-red" fill="#ff5555" fill-rule="nonzero" opacity="1" stroke="none" id="path63"/>
            </g>
        </g>
        <g opacity="1" id="g73">
            <path d="m 647.945,458.61 c 29.704,4.209 74.836,-37.325 104.539,-33.116" fill="none" opacity="1" class="stroke-orange stroke-orange" stroke="#ffb86c" stroke-linecap="round" stroke-linejoin="round" stroke-width="4.86072" id="path64"/>
            <path d="m 689.911,440.64 c 0.581,-4.101 5.485,-6.798 10.953,-6.023 5.469,0.775 9.43,4.728 8.849,8.829 -0.581,4.101 -5.485,6.798 -10.953,6.023 -5.468,-0.775 -9.43,-4.728 -8.849,-8.829 z" class="fill-background" fill-rule="nonzero" opacity="1" stroke="none" id="path65"/>
            <path d="M 747.272,470.191 C 717.569,465.982 682.86,418.122 653.157,413.913" fill="none" opacity="1" class="stroke-orange stroke-orange" stroke="#ffb86c" stroke-linecap="round" stroke-linejoin="round" stroke-width="4.86072" id="path66"/>
            <path d="m 747.271,470.2 c 29.704,4.209 74.836,-37.325 104.539,-33.116" fill="none" opacity="1" class="stroke-orange stroke-orange" stroke="#ffb86c" stroke-linecap="round" stroke-linejoin="round" stroke-width="4.86072" id="path67"/>
            <path d="m 789.237,452.23 c 0.581,-4.101 5.485,-6.798 10.954,-6.023 5.468,0.775 9.43,4.727 8.848,8.829 -0.581,4.101 -5.485,6.797 -10.953,6.022 -5.468,-0.774 -9.43,-4.727 -8.849,-8.828 z" class="fill-background" fill-rule="nonzero" opacity="1" stroke="none" id="path68"/>
            <path d="m 846.599,481.781 c -29.704,-4.209 -64.413,-52.069 -94.116,-56.278" fill="none" opacity="1" class="stroke-orange stroke-orange" stroke="#ffb86c" stroke-linecap="round" stroke-linejoin="round" stroke-width="4.86072" id="path69"/>
            <clipPath id="ClipPath_14">
                <path d="M -14.0606,276.215 H 960.33 l -17.107,289.478 -50.687,1.912 1.34,-6.891 -35.619,-4.398 -3.931,9.14 -131.312,-17.378 c 0,0 -36.995,-0.457 -116.609,1.677 -15.557,0.418 -78.61,7.414 -78.61,7.414 l -23.738,-0.292 9.107,-8.666 -40.056,0.235 -6.632,8.691 c 0,0 -292.764,-9.581 -292.764,-9.581 l -101.6064,5.25 -82.2255,32.581 z" id="path70"/>
            </clipPath>
            <g clip-path="url(#ClipPath_14)" id="g72">
                <path d="m 652.945,413.913 c -60,-20 -188.54,141.535 -188.54,141.535 l 44.863,-0.411 c 0,0 113.801,-98.611 138.677,-96.124" fill="none" opacity="1" class="stroke-orange stroke-orange" stroke="#ffb86c" stroke-linecap="butt" stroke-linejoin="round" stroke-width="4.86072" id="path71"/>
                <path d="m 847.137,482.063 c 40,20 3.344,85.358 3.344,85.358 l 44.436,0.684 c 7.5,-35 41.627,-120.417 -42.716,-130.96" fill="none" opacity="1" class="stroke-orange stroke-orange" stroke="#ffb86c" stroke-linecap="round" stroke-linejoin="round" stroke-width="4.86072" id="path72"/>
            </g>
        </g>
    </g>
</svg>
