<!-- Created with Vectornator (http://vectornator.io/) -->
<svg xmlns:inkscape="http://www.inkscape.org/namespaces/inkscape" xmlns:sodipodi="http://sodipodi.sourceforge.net/DTD/sodipodi-0.dtd" xmlns="http://www.w3.org/2000/svg" xmlns:svg="http://www.w3.org/2000/svg" xmlns:vectornator="http://vectornator.io" stroke-miterlimit="10" style="clip-rule:evenodd;fill-rule:nonzero;stroke-linecap:round;stroke-linejoin:round" version="1.1" viewBox="0 0 1000 558.63049" xml:space="preserve" id="svg60" sodipodi:docname="slide_7.svg"><sodipodi:namedview id="namedview60" pagecolor="#ffffff" bordercolor="#000000" borderopacity="0.25" inkscape:showpageshadow="2" inkscape:pageopacity="0.0" inkscape:pagecheckerboard="0" inkscape:deskcolor="#d1d1d1"/>
    <defs id="defs1">
        <filter color-interpolation-filters="sRGB" filterUnits="userSpaceOnUse" height="59.650101" id="Filter" width="63.6064" x="717.39398" y="204.60899">
            <feDropShadow dx="5.30339" dy="-3.14225" flood-color="#282a36" flood-opacity="0.9" in="SourceGraphic" result="Shadow" stdDeviation="4.25342"/>
        </filter>
        <filter color-interpolation-filters="sRGB" filterUnits="userSpaceOnUse" height="61.187302" id="Filter_2" width="63.467499" x="708.92499" y="209.14101">
            <feDropShadow dx="-3.91032" dy="3.33137" flood-color="#282a36" flood-opacity="0.9" in="SourceGraphic" result="Shadow" stdDeviation="4.25342"/>
        </filter>
        <filter color-interpolation-filters="sRGB" filterUnits="userSpaceOnUse" height="66.114899" id="Filter_3" width="133.45799" x="566.51599" y="150.702">
            <feDropShadow dx="-8.75405" dy="-3.47299" flood-color="#282a36" flood-opacity="0.9" in="SourceGraphic" result="Shadow" stdDeviation="4.25342"/>
        </filter>
        <filter color-interpolation-filters="sRGB" filterUnits="userSpaceOnUse" height="61.493801" id="Filter_4" width="140.14" x="583.76501" y="161.64101">
            <feDropShadow dx="21.1994" dy="8.32104" flood-color="#282a36" flood-opacity="0.9" in="SourceGraphic" result="Shadow" stdDeviation="4.25342"/>
        </filter>
        <filter color-interpolation-filters="sRGB" filterUnits="userSpaceOnUse" height="58.499802" id="Filter_5" width="61.8032" x="745.72699" y="157.618">
            <feDropShadow dx="4.76037" dy="-6.54846" flood-color="#282a36" flood-opacity="0.9" in="SourceGraphic" result="Shadow" stdDeviation="3.82534"/>
        </filter>
        <filter color-interpolation-filters="sRGB" filterUnits="userSpaceOnUse" height="64.534302" id="Filter_6" width="62.928699" x="738.492" y="167.84801">
            <feDropShadow dx="-3.27529" dy="8.88105" flood-color="#282a36" flood-opacity="0.9" in="SourceGraphic" result="Shadow" stdDeviation="4.59589"/>
        </filter>
        <filter color-interpolation-filters="sRGB" filterUnits="userSpaceOnUse" height="61.910801" id="Filter_7" width="79.591599" x="187.97501" y="126.164">
            <feDropShadow dx="-3.59878" dy="6.2266" flood-color="#282a36" flood-opacity="0.9" in="SourceGraphic" result="Shadow" stdDeviation="4.25342"/>
        </filter>
        <filter color-interpolation-filters="sRGB" filterUnits="userSpaceOnUse" height="61.910801" id="Filter_8" width="79.591599" x="197.47099" y="110.498">
            <feDropShadow dx="5.89749" dy="-9.43925" flood-color="#282a36" flood-opacity="0.9" in="SourceGraphic" result="Shadow" stdDeviation="4.25342"/>
        </filter>
    </defs>
    <clipPath id="ArtboardFrame_23">
        <rect height="565" width="1000" x="0" y="0" id="rect1"/>
    </clipPath>
    <g clip-path="url(#ArtboardFrame_23)" id="Layer-2" vectornator:layerName="Layer 2" transform="translate(0,-2.0798398)">
        <clipPath id="ClipPath">
            <path d="M -5.67857,422.286 C -15.1533,363.362 37.4745,311.285 37.4745,311.285 l 8.2856,15.87 37.6225,-16.253 -5.3248,-14.095 40.7292,-9.182 2.044,16.052 50.514,-3.562 -2.642,-21.295 c 0,0 22.653,-1.646 30.451,-1.974 1.588,-0.067 5.68,21.832 5.68,21.832 l 45.028,-1.117 c 0,0 -3.781,-22.573 -1.39,-22.655 14.595,-0.499 47.654,-4.445 47.654,-4.445 l 3.413,29.485 37.823,0.059 0.208,-30.44 c 0,0 15.596,-0.883 21.959,-0.956 3.332,-0.038 3.094,16.114 3.094,16.114 l 36.312,-2.949 c 0,0 -2.209,-21.939 1.74,-21.992 24.669,-0.33 124.224,-9.107 124.224,-9.107 l -37.771,46.309 38.161,0.336 48.63,-36.252 c 0,0 21.122,0.323 40.482,2.181 3.586,0.344 0.653,7.849 0.653,7.849 l 31.547,7.027 9.457,-15.471 173.944,5.081 -22.917,39.857 34.118,0.842 14.488,-33.956 25.844,5.144 -6.369,26.449 35.787,2.755 c 0,0 9.326,-27.003 9.789,-26.85 97.728,32.405 86.728,85.866 86.728,140.31 0,54.677 17.4,92.293 -81.05,124.696 -30.921,10.178 -774.147,24.988 -851.0465,0 C -24.3261,514.585 3.79617,481.21 -5.67857,422.286 Z" id="path1"/>
        </clipPath>
        <g clip-path="url(#ClipPath)" id="g2">
            <path d="m 2.58643,430.108 c 0,-52.796 -10.88268,-92.23 85.88317,-123.411 55.0944,-17.753 458.3504,-14.844 682.8104,-8.117 82.379,2.469 140.674,5.452 148.836,8.117 95.494,31.185 79.205,67.607 79.205,120 0,52.618 16.999,88.817 -79.205,120 -30.217,9.795 -756.5,24.047 -831.6464,0 C -8.9573,515.52 2.58643,483.113 2.58643,430.108 Z" class="fill-blue stroke-orange stroke-orange" fill="#8be9fd" fill-rule="nonzero" opacity="1" stroke="#ffb86c" stroke-linecap="round" stroke-linejoin="round" stroke-width="4.86072" id="path2"/>
        </g>
    </g>
    <g clip-path="url(#ArtboardFrame_23)" id="Layer-8" vectornator:layerName="Layer 8" transform="translate(0,-2.0798398)">
        <g opacity="1" id="g6">
            <path d="M 615.185,75.5562 C 585.482,71.3474 550.772,23.4869 521.069,19.2781 l 0.001,-0.0087 C 491.367,15.0605 440.171,53.1469 421.441,50.5066 405.42,48.2483 355.206,59.9925 317.777,91.064 240.8,154.968 173.796,282.107 170.386,304.488 c -0.73,4.787 -53.986,5.171 -53.986,5.171 0,0 78.946,-158.644 166.561,-248.3096 50.156,-51.3309 116.727,-60.942159 138.571,-53.66101 36.007,12.00261 0.211,0 0.211,0 24.605,3.48641 52.645,36.92571 78.429,50.69441 5.343,2.853 10.588,4.8614 15.687,5.5838 l -0.001,0.0087 c 29.703,4.2088 64.929,-38.0554 104.929,-33.0554 30.705,3.8381 106.34,-20.7374 169.989,50.5042 66.03,73.9049 -71.46,195.9119 -76.229,218.1699 0,0 -31.609,-0.129 -31.414,-0.572 24.331,-55.299 134.03,-128.074 76.531,-196.648 C 731.034,68.2275 629.02,82.4868 615.723,75.8384" class="fill-blue" fill="#8be9fd" fill-rule="nonzero" opacity="1" stroke="none" id="path3"/>
            <clipPath id="ClipPath_2">
                <path d="m 472.635,44.3151 c 0,-26.7356 20.991,-48.40905 46.884,-48.40905 25.893,0 46.883,21.67345 46.883,48.40905 0,26.7356 -20.99,48.4091 -46.883,48.4091 -25.893,0 -46.884,-21.6735 -46.884,-48.4091 z" id="path4"/>
            </clipPath>
            <g clip-path="url(#ClipPath_2)" id="g5">
                <path d="M 615.185,75.5562 C 585.482,71.3474 550.772,23.4869 521.069,19.2781 l 0.001,-0.0087 c -42.002,-3.6787 -56.729,32.8668 -104.538,33.419 -24.999,0.2887 0,99.9996 0,99.9996 h -40 c 0,0 -15,-164.9996 45,-144.99961 36.007,12.00261 0.211,0 0.211,0 24.605,3.48641 52.645,36.92571 78.429,50.69441 5.343,2.853 10.588,4.8614 15.687,5.5838 l -0.001,0.0087 c 29.703,4.2088 64.929,-38.0554 104.929,-33.0554 84.344,10.543 51.408,90.5251 43.908,125.5251 l -40.573,-1.351 c 0,0 31.601,-59.2556 -8.399,-79.2556" class="fill-red" fill="#ff5555" fill-rule="nonzero" opacity="1" stroke="none" id="path5"/>
            </g>
        </g>
        <g opacity="1" id="g15">
            <path d="M 416.532,52.3856 C 444.614,53.516 491.367,15.0605 521.07,19.2694" fill="none" opacity="1" class="stroke-orange stroke-orange" stroke="#ffb86c" stroke-linecap="round" stroke-linejoin="round" stroke-width="4.86072" id="path6"/>
            <path d="m 458.497,34.4153 c 0.582,-4.1011 5.486,-6.7977 10.954,-6.0229 5.468,0.7749 9.43,4.7276 8.849,8.8288 -0.581,4.1012 -5.485,6.7977 -10.954,6.0229 -5.468,-0.7748 -9.43,-4.7276 -8.849,-8.8288 z" class="fill-background" fill-rule="nonzero" opacity="1" stroke="none" id="path7"/>
            <path d="M 515.859,63.9666 C 486.155,59.7577 451.446,11.8972 421.743,7.68839" fill="none" opacity="1" class="stroke-orange stroke-orange" stroke="#ffb86c" stroke-linecap="round" stroke-linejoin="round" stroke-width="4.86072" id="path8"/>
            <path d="M 515.858,63.9753 C 545.561,68.1841 569.021,36.0331 620.396,30.859" fill="none" opacity="1" class="stroke-orange stroke-orange" stroke="#ffb86c" stroke-linecap="round" stroke-linejoin="round" stroke-width="4.86072" id="path9"/>
            <path d="m 557.824,46.005 c 0.581,-4.1012 5.485,-6.7977 10.953,-6.0229 5.468,0.7748 9.43,4.7276 8.849,8.8288 -0.581,4.1011 -5.485,6.7977 -10.954,6.0228 -5.468,-0.7748 -9.43,-4.7275 -8.848,-8.8287 z" class="fill-background" fill-rule="nonzero" opacity="1" stroke="none" id="path10"/>
            <path d="M 615.185,75.5562 C 585.482,71.3474 550.772,23.4869 521.069,19.2781" fill="none" opacity="1" class="stroke-orange stroke-orange" stroke="#ffb86c" stroke-linecap="round" stroke-linejoin="round" stroke-width="4.86072" id="path11"/>
            <clipPath id="ClipPath_3">
                <path d="M 4.84781,-28.012 978.159,21.076 961.053,310.555 739.32,298.859 c 0,0 -47.69,-2.956 -185.016,-3.087 -44.892,-0.042 -98.127,-1.173 -150.898,-1.656 -17.577,-0.161 -45.873,0.701 -62.73,1.555 -65.892,3.338 -149.135,-3.254 -149.135,-3.254 l -17.844,8.483 -54.094,2.929 -29.6679,-6.162 -82.22547,32.581 z" id="path12"/>
            </clipPath>
            <g clip-path="url(#ClipPath_3)" id="g14">
                <path d="M 422.158,7.66658 C 276.994,-31.7074 115.198,310.162 115.198,310.162 l 54.326,-4.007 c 0,0 2.285,-5.412 6.547,-14.666 C 203.142,232.706 304.983,46.9714 417.237,52.3556" fill="none" opacity="1" class="stroke-orange stroke-orange" stroke="#ffb86c" stroke-linecap="butt" stroke-linejoin="round" stroke-width="4.86072" id="path13"/>
                <path d="m 615.759,75.8566 c 40.76,5.8693 122.167,-1.9554 142.198,25.3084 56.831,77.352 -28.678,115.645 -73.78,199.067 -38.247,70.743 32.212,-2.173 32.212,-2.173 10.28,-12.167 16.98,-23.789 25.491,-35.154 27.423,-36.621 49.255,-67.258 59.289,-95.057 9.384,-26.002 8.091,-49.747 1.374,-67.284 C 791.718,72.3024 766.127,50.4483 732.735,39.3067 698.25,27.8005 655.579,27.5169 620.934,30.3858" fill="none" opacity="1" class="stroke-orange stroke-orange" stroke="#ffb86c" stroke-linecap="round" stroke-linejoin="round" stroke-width="4.86072" id="path14"/>
            </g>
        </g>
    </g>
    <g clip-path="url(#ArtboardFrame_23)" id="Layer-3" vectornator:layerName="Layer 3" transform="translate(0,-2.0798398)">
        <path d="m 743.811,220.815 -18.656,20.273 23.149,13.249 14.329,-21.851 z" class="fill-red stroke-orange stroke-orange" fill="#ff5555" fill-rule="nonzero" filter="url(#Filter)" stroke="#ffb86c" stroke-linecap="butt" stroke-linejoin="round" stroke-width="4.86072" vectornator:shadowAngle="-0.534885" vectornator:shadowColor="#282a36" vectornator:shadowOffset="6.16438" vectornator:shadowOpacity="0.9" vectornator:shadowRadius="8.50685" id="path15"/>
        <path d="m 744.934,218.873 -19.035,25.355 20.467,9.705 16.872,-22.648 z" class="fill-red stroke-orange stroke-orange" fill="#ff5555" fill-rule="nonzero" filter="url(#Filter_2)" stroke="#ffb86c" stroke-linecap="butt" stroke-linejoin="round" stroke-width="4.86072" vectornator:shadowAngle="2.43597" vectornator:shadowColor="#282a36" vectornator:shadowOffset="5.13699" vectornator:shadowOpacity="0.9" vectornator:shadowRadius="8.50685" id="path16"/>
        <g opacity="1" id="g20">
            <path d="m 568.868,190.134 c -29.703,-4.209 -64.412,-52.07 -94.116,-56.278 l 10e-4,-0.009 c -29.703,-4.209 -54.547,30.412 -104.538,33.419 -22.382,1.346 -33.93,37.129 -32.721,136.895 0.034,2.767 -37.632,-1.346 -37.723,-2.373 -10.667,-121.12 3.514,-179.484 75.444,-179.522 37.955,-0.02 0.211,0 0.211,0 24.605,3.486 52.645,36.926 78.429,50.694 5.343,2.853 10.589,4.862 15.687,5.584 l -10e-4,0.009 c 29.703,4.209 64.929,-38.056 104.929,-33.056 84.344,10.543 276.004,128.205 271.304,163.056 0,0 23.288,60.026 -29.913,6.963 C 695.25,195.218 609.406,210.416 569.406,190.416" class="fill-blue" fill="#8be9fd" fill-rule="nonzero" opacity="1" stroke="none" id="path17"/>
            <clipPath id="ClipPath_4">
                <path d="m 426.318,158.893 c 0,-26.736 20.991,-48.41 46.884,-48.41 25.893,0 46.884,21.674 46.884,48.41 0,26.735 -20.991,48.409 -46.884,48.409 -25.893,0 -46.884,-21.674 -46.884,-48.409 z" id="path18"/>
            </clipPath>
            <g clip-path="url(#ClipPath_4)" id="g19">
                <path d="m 568.868,190.134 c -29.703,-4.209 -64.412,-52.07 -94.116,-56.278 l 10e-4,-0.009 c -42.002,-3.679 -56.729,32.867 -104.538,33.419 -24.998,0.289 0,100 0,100 h -40 c 0,0 -15,-165 45,-145 36.008,12.002 0.211,0 0.211,0 24.605,3.486 52.645,36.926 78.429,50.694 5.343,2.853 10.589,4.862 15.687,5.584 l -10e-4,0.009 c 29.703,4.209 64.929,-38.056 104.929,-33.056 84.344,10.543 51.408,90.526 43.908,125.526 l -40.573,-1.352 c 0,0 31.601,-59.255 -8.399,-79.255" class="fill-red" fill="#ff5555" fill-rule="nonzero" opacity="1" stroke="none" id="path19"/>
            </g>
        </g>
        <g opacity="1" id="g29">
            <path d="m 367.877,167.8 c 29.704,4.208 74.836,-37.326 104.539,-33.117" fill="none" opacity="1" class="stroke-orange stroke-orange" stroke="#ffb86c" stroke-linecap="round" stroke-linejoin="round" stroke-width="4.86072" id="path20"/>
            <path d="m 409.843,149.829 c 0.581,-4.101 5.485,-6.797 10.954,-6.023 5.468,0.775 9.43,4.728 8.849,8.829 -0.582,4.101 -5.486,6.798 -10.954,6.023 -5.468,-0.775 -9.43,-4.728 -8.849,-8.829 z" class="fill-background" fill-rule="nonzero" opacity="1" stroke="none" id="path21"/>
            <path d="m 467.205,179.38 c -29.704,-4.208 -64.413,-52.069 -94.116,-56.278" fill="none" opacity="1" class="stroke-orange stroke-orange" stroke="#ffb86c" stroke-linecap="round" stroke-linejoin="round" stroke-width="4.86072" id="path22"/>
            <path d="m 467.204,179.389 c 29.703,4.209 74.835,-37.325 104.538,-33.116" fill="none" opacity="1" class="stroke-orange stroke-orange" stroke="#ffb86c" stroke-linecap="round" stroke-linejoin="round" stroke-width="4.86072" id="path23"/>
            <path d="m 509.169,161.419 c 0.582,-4.101 5.486,-6.798 10.954,-6.023 5.468,0.775 9.43,4.728 8.849,8.829 -0.581,4.101 -5.485,6.797 -10.954,6.023 -5.468,-0.775 -9.43,-4.728 -8.849,-8.829 z" class="fill-background" fill-rule="nonzero" opacity="1" stroke="none" id="path24"/>
            <path d="m 566.531,190.97 c -29.704,-4.209 -64.413,-52.069 -94.116,-56.278" fill="none" opacity="1" class="stroke-orange stroke-orange" stroke="#ffb86c" stroke-linecap="round" stroke-linejoin="round" stroke-width="4.86072" id="path25"/>
            <clipPath id="ClipPath_5">
                <path d="m -294.128,-14.5962 h 974.39 l 161.316,295.2472 5.693,22.99 -7.193,1.609 -5.643,-10.215 -37.308,-11.657 12.378,19.363 -469.104,-18.473 -0.27,14.278 c 0,0 -40.682,-1.064 -86.947,-1.108 -137.325,-0.13 -359.54,-40.693 -359.54,-40.693 l -101.606,5.25 -82.226,32.581 z" id="path26"/>
            </clipPath>
            <g clip-path="url(#ClipPath_5)" id="g28">
                <path d="M 372.877,123.102 C 269.216,107.426 300.704,300.928 300.704,300.928 l 37.132,-0.18 c 0,0 -6.732,-131.262 30.041,-132.646" fill="none" opacity="1" class="stroke-orange stroke-orange" stroke="#ffb86c" stroke-linecap="butt" stroke-linejoin="round" stroke-width="4.86072" id="path27"/>
                <path d="m 567.069,191.252 c 40,20 113.538,2.339 244.273,115.585 56.796,49.198 33.833,-1.001 33.833,-1.001 -7.34,-47.07 -188.698,-148.959 -273.042,-159.502" fill="none" opacity="1" class="stroke-orange stroke-orange" stroke="#ffb86c" stroke-linecap="round" stroke-linejoin="round" stroke-width="4.86072" id="path28"/>
            </g>
        </g>
    </g>
    <g id="Layer-9" vectornator:layerName="Layer 9" transform="translate(0,-2.0798398)">
        <g opacity="1" id="g30">
            <path d="m 636.999,167.239 -48.665,27.394 52.849,12.593 54.481,-12.548 z" class="fill-red stroke-orange stroke-orange" fill="#ff5555" fill-rule="nonzero" filter="url(#Filter_3)" stroke="#ffb86c" stroke-linecap="butt" stroke-linejoin="round" stroke-width="4.86072" vectornator:shadowAngle="3.51928" vectornator:shadowColor="#282a36" vectornator:shadowOffset="9.41781" vectornator:shadowOpacity="0.9" vectornator:shadowRadius="8.50685" id="path29"/>
            <path d="m 638.709,166.384 -52.513,28.677 59.625,6.689 43.821,-12.04 z" class="fill-red stroke-orange stroke-orange" fill="#ff5555" fill-rule="nonzero" filter="url(#Filter_4)" stroke="#ffb86c" stroke-linecap="butt" stroke-linejoin="round" stroke-width="4.86072" vectornator:shadowAngle="0.374036" vectornator:shadowColor="#282a36" vectornator:shadowOffset="22.774" vectornator:shadowOpacity="0.9" vectornator:shadowRadius="8.50685" id="path30"/>
        </g>
        <g opacity="1" id="g36">
            <path d="m 772.349,176.16 -19.389,27.837 18.786,6.675 19.03,-27.592 z" class="fill-blue stroke-orange stroke-orange" fill="#8be9fd" fill-rule="nonzero" filter="url(#Filter_5)" stroke="#ffb86c" stroke-linecap="butt" stroke-linejoin="round" stroke-width="4.86072" vectornator:shadowAngle="-0.942214" vectornator:shadowColor="#282a36" vectornator:shadowOffset="8.09589" vectornator:shadowOpacity="0.9" vectornator:shadowRadius="7.65068" id="path31"/>
            <path d="m 772.894,172.887 -17.206,30.838 16.603,5.856 18.485,-31.137 z" class="fill-blue stroke-orange stroke-orange" fill="#8be9fd" fill-rule="nonzero" filter="url(#Filter_6)" stroke="#ffb86c" stroke-linecap="butt" stroke-linejoin="round" stroke-width="4.86072" vectornator:shadowAngle="1.92412" vectornator:shadowColor="#282a36" vectornator:shadowOffset="9.46575" vectornator:shadowOpacity="0.9" vectornator:shadowRadius="9.19178" id="path32"/>
            <path d="m 864.428,226.642 c -29.703,-4.208 -64.412,-52.069 -94.116,-56.278 l 10e-4,-0.009 c -29.703,-4.208 -54.547,30.413 -104.538,33.419 -10.233,0.616 -37.465,12.751 -62.943,31.246 -30.249,21.957 -59.1,51.356 -69.178,59.661 -2.135,1.76 -3.31,2.74 -3.31,2.74 l -46.055,-0.504 c 0,0 126.486,-158.143 186.486,-138.143 36.008,12.003 0.211,0 0.211,0 24.605,3.487 52.645,36.926 78.429,50.695 5.343,2.853 10.589,4.861 15.687,5.584 l -10e-4,0.008 c 29.703,4.209 64.929,-38.055 104.929,-33.055 84.344,10.543 49.583,91.887 42.083,126.887 l -38.911,-2.934 c 0,0 31.764,-59.034 -8.236,-79.034" class="fill-blue" fill="#8be9fd" fill-rule="nonzero" opacity="1" stroke="none" id="path33"/>
            <clipPath id="ClipPath_6">
                <path d="m 721.878,195.401 c 0,-26.735 20.991,-48.409 46.884,-48.409 25.893,0 46.884,21.674 46.884,48.409 0,26.736 -20.991,48.409 -46.884,48.409 -25.893,0 -46.884,-21.673 -46.884,-48.409 z" id="path34"/>
            </clipPath>
            <g clip-path="url(#ClipPath_6)" id="g35">
                <path d="m 864.428,226.642 c -29.703,-4.208 -64.412,-52.069 -94.116,-56.278 l 10e-4,-0.009 c -42.002,-3.678 -56.729,32.867 -104.538,33.419 -24.999,0.289 0,100 0,100 h -40 c 0,0 -15,-165 45,-145 36.008,12.003 0.211,0 0.211,0 24.605,3.487 52.645,36.926 78.429,50.695 5.343,2.853 10.589,4.861 15.687,5.584 l -10e-4,0.008 c 29.703,4.209 64.929,-38.055 104.929,-33.055 84.344,10.543 51.408,90.525 43.908,125.525 l -40.573,-1.351 c 0,0 31.601,-59.255 -8.399,-79.255" class="fill-red" fill="#ff5555" fill-rule="nonzero" opacity="1" stroke="none" id="path35"/>
            </g>
        </g>
        <g opacity="1" id="g45">
            <path d="m 665.775,203.472 c 29.703,4.209 74.835,-37.325 104.538,-33.117" fill="none" opacity="1" class="stroke-orange stroke-orange" stroke="#ffb86c" stroke-linecap="round" stroke-linejoin="round" stroke-width="4.86072" id="path36"/>
            <path d="m 707.741,185.501 c 0.581,-4.101 5.485,-6.797 10.953,-6.022 5.468,0.774 9.43,4.727 8.849,8.828 -0.581,4.101 -5.485,6.798 -10.953,6.023 -5.469,-0.775 -9.43,-4.727 -8.849,-8.829 z" class="fill-background" fill-rule="nonzero" opacity="1" stroke="none" id="path37"/>
            <path d="m 765.102,215.053 c -29.703,-4.209 -64.412,-52.07 -94.116,-56.279" fill="none" opacity="1" class="stroke-orange stroke-orange" stroke="#ffb86c" stroke-linecap="round" stroke-linejoin="round" stroke-width="4.86072" id="path38"/>
            <path d="m 765.101,215.061 c 29.703,4.209 74.835,-37.325 104.539,-33.116" fill="none" opacity="1" class="stroke-orange stroke-orange" stroke="#ffb86c" stroke-linecap="round" stroke-linejoin="round" stroke-width="4.86072" id="path39"/>
            <path d="m 807.067,197.091 c 0.581,-4.101 5.485,-6.798 10.953,-6.023 5.468,0.775 9.43,4.728 8.849,8.829 -0.581,4.101 -5.485,6.798 -10.953,6.023 -5.469,-0.775 -9.43,-4.728 -8.849,-8.829 z" class="fill-background" fill-rule="nonzero" opacity="1" stroke="none" id="path40"/>
            <path d="m 864.428,226.642 c -29.703,-4.208 -64.412,-52.069 -94.116,-56.278" fill="none" opacity="1" class="stroke-orange stroke-orange" stroke="#ffb86c" stroke-linecap="round" stroke-linejoin="round" stroke-width="4.86072" id="path41"/>
            <clipPath id="ClipPath_7">
                <path d="M 3.76895,21.076 H 978.159 l -17.106,289.479 -220.21,-17.615 -211.737,4.131 10.957,-12.502 -43.486,0.979 -9.42,10.514 -295.616,-3.645 -101.6059,5.25 -82.22547,32.581 z" id="path42"/>
            </clipPath>
            <g clip-path="url(#ClipPath_7)" id="g44">
                <path d="m 670.775,158.774 c -60,-20 -186.773,138.084 -186.773,138.084 l 45.621,0.515 c 0,0 101.151,-98.522 138.526,-93.73" fill="none" opacity="1" class="stroke-orange stroke-orange" stroke="#ffb86c" stroke-linecap="butt" stroke-linejoin="round" stroke-width="4.86072" id="path43"/>
                <path d="m 864.966,226.925 c 40,20 3.344,85.357 3.344,85.357 l 44.437,0.685 c 7.5,-35 41.627,-120.418 -42.717,-130.961" fill="none" opacity="1" class="stroke-orange stroke-orange" stroke="#ffb86c" stroke-linecap="round" stroke-linejoin="round" stroke-width="4.86072" id="path44"/>
            </g>
        </g>
    </g>
    <g clip-path="url(#ArtboardFrame_23)" id="Layer-10" vectornator:layerName="Layer 10" transform="translate(0,-2.0798398)">
        <g opacity="1" id="g51">
            <path d="m 224.603,144.857 c 4.63,-7.888 26.892,-14.227 30.498,-4.233 3.605,9.994 -12.839,19.934 -16.726,23.174 -2.446,2.038 -24.679,5.863 -30.113,-3.712 -4.685,-8.255 5.966,2.443 16.341,-15.229 z" class="fill-blue stroke-orange stroke-orange" fill="#8be9fd" fill-rule="nonzero" filter="url(#Filter_7)" stroke="#ffb86c" stroke-linecap="butt" stroke-linejoin="round" stroke-width="9.83584" vectornator:shadowAngle="2.09486" vectornator:shadowColor="#282a36" vectornator:shadowOffset="7.19178" vectornator:shadowOpacity="0.9" vectornator:shadowRadius="8.50685" id="path45"/>
            <path d="m 224.603,144.857 c 4.63,-7.888 26.892,-14.227 30.498,-4.233 3.605,9.994 -12.839,19.934 -16.726,23.174 -2.446,2.038 -24.679,5.863 -30.113,-3.712 -4.685,-8.255 5.966,2.443 16.341,-15.229 z" class="fill-blue stroke-orange stroke-orange" fill="#8be9fd" fill-rule="nonzero" filter="url(#Filter_8)" stroke="#ffb86c" stroke-linecap="butt" stroke-linejoin="round" stroke-width="9.83584" vectornator:shadowAngle="-1.01235" vectornator:shadowColor="#282a36" vectornator:shadowOffset="11.1301" vectornator:shadowOpacity="0.9" vectornator:shadowRadius="8.50685" id="path46"/>
            <path d="m 227.466,170.969 c -32.826,-4.653 -58.238,-24.971 -87.949,-20.812 l -0.001,-0.009 c -29.711,4.158 -44.0269,44.295 -91.2428,60.991 -21.139,7.476 36.1037,99.143 36.1037,99.143 l -36.5253,20.576 c 0,0 -70.3913,-167 -7.2013,-164.349 37.9222,1.591 0.2032,-0.059 0.2032,-0.059 24.6109,-3.444 60.7955,20.95 89.3795,27.062 5.923,1.266 11.519,1.748 16.619,1.034 l 0.001,0.009 c 29.711,-4.159 53.939,-61.154 93.764,-67.396 83.975,-13.162 -0.448,145.133 9.853,172.272 0,0 -62.72,31.207 -48.714,1.712 60.416,-127.231 50.042,-126.725 25.71,-130.174 z" class="fill-blue" fill="#8be9fd" fill-rule="nonzero" opacity="1" stroke="none" id="path47"/>
            <clipPath id="ClipPath_8">
                <path d="m 96.1579,191.909 c -7.3841,-25.696 10.5281,-56.636 35.4141,-63.787 24.886,-7.152 51.046,7.882 58.43,33.577 7.384,25.696 -6.804,52.324 -31.69,59.475 -24.886,7.152 -54.77,-3.57 -62.1541,-29.265 z" id="path48"/>
            </clipPath>
            <g clip-path="url(#ClipPath_8)" id="g50">
                <path d="m 245.515,178.252 c -29.71,4.159 -76.287,-32.254 -105.998,-28.095 l -0.001,-0.009 c -41.3849,8.065 -45.4459,47.256 -91.2428,60.991 -23.9462,7.182 27.6187,96.111 27.6187,96.111 l -38.4441,11.047 c 0,0 -59.9875,-154.439 3.2025,-151.788 37.9222,1.591 0.2032,-0.059 0.2032,-0.059 24.6109,-3.444 60.7955,20.95 89.3795,27.062 5.923,1.266 11.519,1.748 16.619,1.034 l 0.001,0.009 c 29.711,-4.159 51.894,-54.508 91.719,-60.75 83.975,-13.162 74.41,72.806 76.868,108.516 l -39.368,9.906 c 0,0 14.006,-65.678 -29.961,-73.852" class="fill-red" fill="#ff5555" fill-rule="nonzero" opacity="1" stroke="none" id="path49"/>
                <path d="m 225.232,130.899 -28.338,36.94 43.013,4.049 29.096,-37.952 z" fill="none" opacity="1" class="stroke-orange stroke-orange" stroke="#ffb86c" stroke-linecap="butt" stroke-linejoin="round" stroke-width="4.86072" id="path50"/>
            </g>
        </g>
        <g opacity="1" id="g60">
            <path d="m 48.208,211.169 c 29.5871,-4.96 60.065,-58.187 89.652,-63.147" fill="none" opacity="1" class="stroke-orange stroke-orange" stroke="#ffb86c" stroke-linecap="round" stroke-linejoin="round" stroke-width="4.86072" id="path51"/>
            <path d="m 82.7852,181.361 c -0.6849,-4.085 3.1754,-8.137 8.6222,-9.05 5.4469,-0.913 10.4176,1.658 11.1026,5.744 0.685,4.085 -3.1756,8.137 -8.6224,9.05 -5.4468,0.913 -10.4176,-1.658 -11.1024,-5.744 z" class="fill-background" fill-rule="nonzero" opacity="1" stroke="none" id="path52"/>
            <path d="m 146.393,192.205 c -29.587,4.96 -77.1316,-30.18 -106.7187,-25.22" fill="none" opacity="1" class="stroke-orange stroke-orange" stroke="#ffb86c" stroke-linecap="round" stroke-linejoin="round" stroke-width="4.86072" id="path53"/>
            <path d="m 146.395,192.214 c 29.587,-4.961 60.065,-58.187 89.652,-63.148" fill="none" opacity="1" class="stroke-orange stroke-orange" stroke="#ffb86c" stroke-linecap="round" stroke-linejoin="round" stroke-width="4.86072" id="path54"/>
            <path d="m 180.972,162.406 c -0.685,-4.085 3.176,-8.137 8.623,-9.05 5.446,-0.913 10.417,1.658 11.102,5.743 0.685,4.085 -3.176,8.137 -8.622,9.05 -5.447,0.914 -10.418,-1.658 -11.103,-5.743 z" class="fill-background" fill-rule="nonzero" opacity="1" stroke="none" id="path55"/>
            <path d="m 235.378,171.716 c -29.587,4.96 -67.93,-28.646 -97.517,-23.686" fill="none" opacity="1" class="stroke-orange stroke-orange" stroke="#ffb86c" stroke-linecap="round" stroke-linejoin="round" stroke-width="4.86072" id="path56"/>
            <clipPath id="ClipPath_9">
                <path d="M -637.969,237.266 357.782,4.20152 252.343,297.433 l -4.524,0.275 -0.265,-10.827 -36.474,-3.58 -7.088,15.9 -6.907,-0.141 -50.29,-25.279 c 0,0 -59.4081,35.679 -63.4183,37.065 -11.6865,4.038 -37.8934,5.373 -37.8934,5.373 l 3.3667,8.814 -6.6351,4.533 -419.2189,109.646 -95.274,35.696 -68.543,55.897 z" id="path57"/>
            </clipPath>
            <g clip-path="url(#ClipPath_9)" id="g59">
                <path d="m 39.4727,167.049 c -63.2385,-0.941 7.3959,159.633 7.3959,159.633 l 39.2732,-13.836 c 0,0 -62.3076,-96.246 -37.8423,-101.389" fill="none" opacity="1" class="stroke-orange stroke-orange" stroke="#ffb86c" stroke-linecap="butt" stroke-linejoin="round" stroke-width="4.86072" id="path58"/>
                <path d="m 235.449,171.58 c 35.832,-0.957 -33.895,126.614 -33.895,126.614 l 48.702,-2.034 c -3.423,-35.63 70.729,-183.219 -12.859,-167.791" fill="none" opacity="1" class="stroke-orange stroke-orange" stroke="#ffb86c" stroke-linecap="round" stroke-linejoin="round" stroke-width="4.86072" id="path59"/>
            </g>
        </g>
    </g>
</svg>
