<!-- Created with Vectornator (http://vectornator.io/) -->
<svg xmlns:inkscape="http://www.inkscape.org/namespaces/inkscape" xmlns:sodipodi="http://sodipodi.sourceforge.net/DTD/sodipodi-0.dtd" xmlns="http://www.w3.org/2000/svg" xmlns:svg="http://www.w3.org/2000/svg" xmlns:vectornator="http://vectornator.io" stroke-miterlimit="10" style="clip-rule:evenodd;fill-rule:nonzero;stroke-linecap:round;stroke-linejoin:round" version="1.1" viewBox="0 0 1000 820" xml:space="preserve" id="svg65" sodipodi:docname="slide_2.svg"><sodipodi:namedview id="namedview65" pagecolor="#ffffff" bordercolor="#000000" borderopacity="0.25" inkscape:showpageshadow="2" inkscape:pageopacity="0.0" inkscape:pagecheckerboard="0" inkscape:deskcolor="#d1d1d1"/>
    <defs id="defs1">
        <filter color-interpolation-filters="sRGB" filterUnits="userSpaceOnUse" height="61.910801" id="Filter" width="79.591599" x="186.957" y="388.48499">
            <feDropShadow dx="-3.59878" dy="6.2266" flood-color="#282a36" flood-opacity="0.9" in="SourceGraphic" result="Shadow" stdDeviation="4.25342"/>
        </filter>
        <filter color-interpolation-filters="sRGB" filterUnits="userSpaceOnUse" height="61.910801" id="Filter_2" width="79.591599" x="196.453" y="372.82001">
            <feDropShadow dx="5.89749" dy="-9.43925" flood-color="#282a36" flood-opacity="0.9" in="SourceGraphic" result="Shadow" stdDeviation="4.25342"/>
        </filter>
    </defs>
    <clipPath id="ArtboardFrame_18">
        <rect height="820" width="1000" x="0" y="0" id="rect1"/>
    </clipPath>
    <g clip-path="url(#ArtboardFrame_18)" id="Layer-1" vectornator:layerName="Layer 1" visibility="hidden">
        <path d="M -110.735,-138.315 H 1054.77 V 1059.06 H -110.735 Z" class="fill-background" fill-rule="nonzero" opacity="1" stroke="none" id="path1"/>
    </g>
    <g clip-path="url(#ArtboardFrame_18)" id="Layer-2" vectornator:layerName="Layer 2">
        <g opacity="1" id="g4">
            <clipPath id="ClipPath">
                <path d="M -6.69646,684.607 C -16.1712,625.683 36.4566,573.606 36.4566,573.606 l 8.2856,15.87 37.6225,-16.253 -5.3248,-14.095 40.7291,-9.182 2.044,16.052 50.514,-3.562 -2.641,-21.295 c 0,0 22.652,-1.646 30.45,-1.974 1.588,-0.067 5.68,21.832 5.68,21.832 l 45.028,-1.116 c 0,0 -3.781,-22.574 -1.39,-22.655 14.595,-0.5 47.654,-4.446 47.654,-4.446 l 10.473,-0.438 30.091,12.163 0.88,-12.621 c 0,0 15.596,-0.883 21.959,-0.956 3.333,-0.038 3.094,16.114 3.094,16.114 l 36.312,-2.949 c 0,0 -2.208,-21.939 1.74,-21.992 24.67,-0.33 124.224,-9.107 124.224,-9.107 0,0 -53.462,49.153 -40.173,29.492 13.289,-19.66 28.054,-1.906 28.054,-1.906 l 23.149,1.899 37.99,-19.092 c 0,0 21.122,0.324 40.482,2.181 3.586,0.344 3.792,13.543 3.792,13.543 l 26.003,3.692 11.863,-17.829 173.943,5.08 -23.26,20.294 39.952,1.186 8.997,-14.737 25.845,5.144 4.955,10.438 27.308,6.669 c 0,0 6.481,-14.906 6.943,-14.752 97.726,32.404 86.726,85.865 86.726,140.309 0,54.677 17.4,92.293 -81.048,124.696 -30.921,10.178 -774.147,24.988 -851.0464,0 C -25.344,776.906 2.77828,743.532 -6.69646,684.607 Z" id="path2"/>
            </clipPath>
            <g clip-path="url(#ClipPath)" id="g3">
                <path d="m 1.56854,692.43 c 0,-52.797 -10.88269,-92.231 85.88316,-123.411 55.0943,-17.753 458.3503,-14.845 682.8103,-8.118 82.379,2.469 140.675,5.452 148.836,8.118 95.492,31.184 79.205,67.606 79.205,120 0,52.618 16.997,88.817 -79.205,120 -30.217,9.794 -756.5,24.047 -831.6463,0 C -9.9752,777.842 1.56854,745.435 1.56854,692.43 Z" class="fill-blue stroke-orange stroke-orange" fill="#8be9fd" fill-rule="nonzero" opacity="1" stroke="#ffb86c" stroke-linecap="round" stroke-linejoin="round" stroke-width="4.86072" id="path3"/>
            </g>
        </g>
        <g opacity="1" id="g6">
            <clipPath id="ClipPath_2">
                <path d="m 394.458,96.369 c -5.315,-41.9091 24.211,-78.948 24.211,-78.948 l 7.708,-8.53805 5.809,2.23135 9.251,-3.9906 22.85,-6.531056 7.267,0.211214 7.942,-3.394958 12.796,-3.07859 c 0,0 12.709,-1.17059 17.084,-1.40383 0.891,-0.04748 11.346,0.01241 11.346,0.01241 0,0 11.507,16.94674 10.983,0.06779 -0.524,-16.87898 3.999,-1.4014 5.34,-1.4596 8.189,-0.35539 26.735,-3.16158 26.735,-3.16158 l 5.876,-0.3117 16.882,8.65048 0.494,-8.97658 c 0,0 8.75,-0.6276 12.32,-0.6795 1.869,-0.0272 1.735,11.46099 1.735,11.46099 l 20.373,-2.09753 c 0,0 -1.239,-15.60396 0.976,-15.64156 13.84,-0.2349 69.694,-6.4771 69.694,-6.4771 l -12.614,19.24431 21.092,-2.57982 19.024,-9.27309 c 0,0 11.85,0.2303 22.711,1.5515 2.012,0.2447 2.128,9.63183 2.128,9.63183 l 14.588,2.62587 6.656,-12.6806 97.587,3.6133 c 0,0 -6.027,30.0007 -9.998,14.65556 -3.97,-15.34516 16.6,-0.206399 16.6,-0.206399 l 7.811,-9.653351 14.5,3.65891 0.469,5.521777 15.082,3.167683 c 0,0 6.185,-7.12413 6.445,-7.01495 54.826,23.04737 48.659,61.07087 48.659,99.79347 0,38.888 1.586,76.548 -53.646,99.594 -17.348,7.239 -425.72,11.774 -468.863,-5.998 -55.934,-23.042 -40.587,-51.687 -45.903,-93.596 z" id="path4"/>
            </clipPath>
            <g clip-path="url(#ClipPath_2)" id="g5">
                <path d="m 399.095,101.932 c 0,-37.5503 -6.105,-65.5972 48.184,-87.774 30.909,-12.62657 257.149,-10.55817 383.079,-5.77354 46.217,1.75604 78.923,3.87794 83.502,5.77354 53.576,22.1795 44.436,48.084 44.436,85.3483 0,37.4237 9.536,63.1697 -44.436,85.3487 -16.953,6.966 -424.422,17.103 -466.581,0 -54.66,-22.174 -48.184,-45.223 -48.184,-82.923 z" class="fill-red stroke-orange stroke-orange" fill="#ff5555" fill-rule="nonzero" opacity="1" stroke="#ffb86c" stroke-linecap="round" stroke-linejoin="round" stroke-width="4.86072" id="path5"/>
            </g>
        </g>
    </g>
    <g id="Layer-7" vectornator:layerName="Layer 7">
        <g opacity="1" id="g8">
            <clipPath id="ClipPath_3">
                <path d="m 324.437,324.567 c -19.375,-18.424 -161.325,-7.493 -143.482,-26.257 17.843,-18.763 -94.6803,303.987 -75.306,322.411 19.374,18.423 297.731,-264.944 279.888,-246.18 -17.843,18.764 -41.726,-31.55 -61.1,-49.974 z" id="path6"/>
            </clipPath>
            <g clip-path="url(#ClipPath_3)" id="g7">
                <path d="m 450.462,232.611 c -23.519,18.625 -83.221,16.147 -106.74,34.771 l -0.005,-0.006 c -23.519,18.624 -25.392,89.807 -40.691,100.932 -32.48,23.618 -135.7,194.449 -135.7,194.449 0,0 -62.829,25.392 -50.801,2.996 113.253,-210.869 150.666,-228.111 150.666,-228.111 19.482,-15.428 62.723,-18.972 90.469,-28.169 5.749,-1.906 10.819,-4.323 14.856,-7.52 l 0.005,0.007 c 23.519,-18.625 19.212,-81.459 50.399,-107 23.94,-19.606 140.074,-162.116 235.561,-159.1477 99.057,3.0792 52.799,77.4627 65.642,96.2577 0,0 -16.316,10.956 -16.503,10.509 C 684.314,86.8412 747.54,80.3453 658.224,74.7571 613.75,71.9745 463.444,227.676 449.464,232.731" class="fill-blue" fill="#8be9fd" fill-rule="nonzero" opacity="1" stroke="none" id="path7"/>
            </g>
        </g>
        <g opacity="1" id="g10">
            <clipPath id="ClipPath_4">
                <path d="m 324.437,324.567 c -19.375,-18.424 -16.563,-53.403 1.28,-72.167 8.146,-8.566 -37.099,-42.135 1.882,-76.366 46.403,-40.748 119.096,-2.044 117.125,0.725 -1.971,2.769 123.505,17.429 104.53,51.557 -32.482,58.419 -142.113,78.958 -153.376,90.802 -17.843,18.764 -52.067,23.873 -71.441,5.449 z" id="path8"/>
            </clipPath>
            <g clip-path="url(#ClipPath_4)" id="g9">
                <path d="m 427.438,164.264 c -23.519,18.625 -60.197,84.494 -83.716,103.118 l -0.882,3.501 c -28.79,30.482 -15.261,72.195 -46.944,95.277 -20.206,14.721 72.467,68.91 72.467,68.91 l -27.565,28.987 c 0,0 -129.906,-102.832 -74.066,-132.53 33.511,-17.822 63.182,-12.857 90.928,-22.054 5.749,-1.906 10.819,-4.323 14.856,-7.52 l 0.005,0.007 C 396.04,283.335 451.226,208.661 482.41,174.798 539.99,112.272 594.665,42.1616 614.86,71.7152 L 561.666,40.0147 c 0,0 -26.294,24.4241 -68.351,39.6286" class="fill-red" fill="#ff5555" fill-rule="nonzero" opacity="1" stroke="none" id="path9"/>
            </g>
        </g>
        <g opacity="1" id="g14">
            <path d="m 374.991,300.52 c -22.624,19.702 -81.526,14.617 -104.15,34.319" fill="none" opacity="1" class="stroke-orange stroke-orange" stroke="#ffb86c" stroke-linecap="round" stroke-linejoin="round" stroke-width="4.86072" id="path10"/>
            <path d="m 315.105,324.545 c -2.721,-3.124 -1.55,-8.596 2.615,-12.223 4.165,-3.627 9.747,-4.035 12.467,-0.912 2.72,3.124 1.549,8.597 -2.616,12.224 -4.165,3.627 -9.746,4.035 -12.466,0.911 z" class="fill-background" fill-rule="nonzero" opacity="1" stroke="none" id="path11"/>
            <path d="m 301.223,368.035 c 19.235,-20.492 20.763,-81.009 43.386,-100.711" fill="none" opacity="1" class="stroke-orange stroke-orange" stroke="#ffb86c" stroke-linecap="round" stroke-linejoin="round" stroke-width="4.86072" id="path12"/>
            <path d="m 374.997,300.526 c 22.624,-19.702 64.654,-69.276 95.55,-111.423" fill="none" opacity="1" class="stroke-orange stroke-orange" stroke="#ffb86c" stroke-linecap="round" stroke-linejoin="round" stroke-width="4.86072" id="path13"/>
            <path d="m 420.815,170.805 c -22.624,19.702 -53.576,76.824 -76.2,96.526" fill="none" opacity="1" class="stroke-orange stroke-orange" stroke="#ffb86c" stroke-linecap="round" stroke-linejoin="round" stroke-width="4.86072" id="path14"/>
        </g>
        <g opacity="1" id="g17">
            <clipPath id="ClipPath_5">
                <path d="m 30.4096,97.0839 399.0504,76.5651 11.119,5.812 45.545,8.822 17.21,1.217 473.807,93.897 -17.106,289.479 -221.733,-11.696 c 0,0 -47.69,-2.956 -185.016,-3.087 -44.892,-0.042 -98.127,-1.173 -150.897,-1.656 -17.578,-0.161 -45.874,0.701 -62.731,1.555 -65.892,3.338 -149.135,-3.253 -149.135,-3.253 l -17.844,8.482 -54.093,2.929 -29.6688,-6.162 -82.22546,32.581 z" id="path15"/>
            </clipPath>
            <g clip-path="url(#ClipPath_5)" id="g16">
                <path d="m 272.276,333.912 c -56.002,38.144 -157.57,234.89 -157.57,234.89 l 53.8,-0.326 c 0,0 2.285,-5.411 6.547,-14.666 27.071,-58.783 104.858,-158.277 126.765,-186.416" fill="none" opacity="1" class="stroke-orange stroke-orange" stroke="#ffb86c" stroke-linecap="butt" stroke-linejoin="round" stroke-width="4.86072" id="path16"/>
            </g>
        </g>
    </g>
    <g clip-path="url(#ArtboardFrame_18)" id="Layer-3" vectornator:layerName="Layer 3">
        <g opacity="1" id="g19">
            <clipPath id="ClipPath_6">
                <path d="m 522.798,319.157 c -19.374,-18.423 -161.324,-7.493 -143.481,-26.256 17.843,-18.764 -94.681,303.986 -75.306,322.41 19.374,18.423 297.731,-264.944 279.888,-246.18 -17.843,18.764 -41.726,-31.55 -61.101,-49.974 z" id="path17"/>
            </clipPath>
            <g clip-path="url(#ClipPath_6)" id="g18">
                <path d="m 648.824,227.201 c -23.519,18.625 -83.222,16.147 -106.74,34.772 l -0.006,-0.007 c -23.518,18.624 -25.391,89.807 -40.69,100.932 -32.481,23.618 -135.7,194.449 -135.7,194.449 0,0 -62.829,25.392 -50.801,2.996 113.253,-210.869 150.666,-228.111 150.666,-228.111 19.482,-15.427 62.723,-18.972 90.468,-28.169 5.749,-1.905 10.82,-4.323 14.856,-7.52 l 0.006,0.007 c 23.519,-18.624 19.212,-81.459 50.399,-107 23.94,-19.606 140.073,-162.1159 235.561,-159.1476 99.057,3.0793 52.799,77.4636 65.642,96.2576 0,0 -16.317,10.956 -16.503,10.509 C 882.675,81.4313 945.902,74.9354 856.586,69.3472 812.112,66.5646 661.806,222.266 647.825,227.321" class="fill-blue" fill="#8be9fd" fill-rule="nonzero" opacity="1" stroke="none" id="path18"/>
            </g>
        </g>
        <g opacity="1" id="g21">
            <clipPath id="ClipPath_7">
                <path d="m 522.798,319.157 c -19.374,-18.423 -16.562,-53.403 1.281,-72.167 8.146,-8.566 -37.1,-42.135 1.882,-76.366 46.403,-40.748 119.096,-2.044 117.125,0.725 -1.971,2.769 123.504,17.429 104.529,51.557 -32.481,58.419 -142.113,78.958 -153.376,90.802 -17.843,18.764 -52.066,23.873 -71.441,5.449 z" id="path19"/>
            </clipPath>
            <g clip-path="url(#ClipPath_7)" id="g20">
                <path d="m 625.799,158.854 c -23.518,18.625 -60.197,84.494 -83.715,103.119 l -0.883,3.5 c -28.789,30.483 -15.261,72.195 -46.943,95.277 -20.206,14.721 72.466,68.911 72.466,68.911 l -27.564,28.986 c 0,0 -129.906,-102.832 -74.066,-132.53 33.511,-17.822 63.182,-12.857 90.927,-22.054 5.749,-1.905 10.82,-4.323 14.856,-7.52 l 0.006,0.007 C 594.402,277.926 649.587,203.251 680.772,169.388 738.352,106.862 793.027,36.7518 813.222,66.3054 L 760.028,34.6048 c 0,0 -26.294,24.4242 -68.352,39.6286" class="fill-red" fill="#ff5555" fill-rule="nonzero" opacity="1" stroke="none" id="path20"/>
            </g>
        </g>
        <g opacity="1" id="g25">
            <path d="m 573.353,295.11 c -22.624,19.702 -81.526,14.617 -104.15,34.319" fill="none" opacity="1" class="stroke-orange stroke-orange" stroke="#ffb86c" stroke-linecap="round" stroke-linejoin="round" stroke-width="4.86072" id="path21"/>
            <path d="m 513.466,319.135 c -2.72,-3.123 -1.549,-8.596 2.616,-12.223 4.165,-3.627 9.746,-4.035 12.467,-0.911 2.72,3.123 1.549,8.596 -2.616,12.223 -4.165,3.627 -9.746,4.035 -12.467,0.911 z" class="fill-background" fill-rule="nonzero" opacity="1" stroke="none" id="path22"/>
            <path d="m 499.585,362.625 c 19.235,-20.491 20.762,-81.009 43.386,-100.711" fill="none" opacity="1" class="stroke-orange stroke-orange" stroke="#ffb86c" stroke-linecap="round" stroke-linejoin="round" stroke-width="4.86072" id="path23"/>
            <path d="m 573.359,295.117 c 22.623,-19.702 56.728,-59.37 87.624,-101.517" fill="none" opacity="1" class="stroke-orange stroke-orange" stroke="#ffb86c" stroke-linecap="round" stroke-linejoin="round" stroke-width="4.86072" id="path24"/>
            <path d="m 595.276,193.505 c 0,0 -29.675,48.714 -52.299,68.416" fill="none" opacity="1" class="stroke-orange stroke-orange" stroke="#ffb86c" stroke-linecap="round" stroke-linejoin="round" stroke-width="4.86072" id="path25"/>
        </g>
        <g opacity="1" id="g28">
            <clipPath id="ClipPath_8">
                <path d="m 228.771,91.674 399.05,76.565 11.12,5.812 45.545,8.823 17.21,1.216 473.804,93.897 -17.1,289.479 -221.736,-11.696 c 0,0 -47.691,-2.956 -185.016,-3.086 -44.892,-0.043 -98.128,-1.173 -150.898,-1.657 -17.577,-0.161 -45.873,0.701 -62.73,1.555 -65.892,3.339 -149.135,-3.253 -149.135,-3.253 l -17.844,8.482 -54.094,2.213 -29.668,-5.445 -82.226,32.58 z" id="path26"/>
            </clipPath>
            <g clip-path="url(#ClipPath_8)" id="g27">
                <path d="m 470.637,328.502 c -56.002,38.145 -155.42,235.129 -155.42,235.129 l 51.651,-0.564 c 0,0 0.613,-6.368 4.875,-15.622 27.07,-58.784 106.53,-157.322 128.437,-185.46" fill="none" opacity="1" class="stroke-orange stroke-orange" stroke="#ffb86c" stroke-linecap="butt" stroke-linejoin="round" stroke-width="4.86072" id="path27"/>
            </g>
        </g>
    </g>
    <g clip-path="url(#ArtboardFrame_18)" id="Layer-4" vectornator:layerName="Layer 4">
        <g opacity="1" id="g30">
            <clipPath id="ClipPath_9">
                <path d="m 640.463,319.157 c -19.375,-18.423 -161.325,-7.493 -143.482,-26.256 17.843,-18.764 -94.68,303.986 -75.306,322.41 19.374,18.423 297.732,-264.944 279.889,-246.18 -17.843,18.764 -41.727,-31.55 -61.101,-49.974 z" id="path28"/>
            </clipPath>
            <g clip-path="url(#ClipPath_9)" id="g29">
                <path d="m 766.488,227.201 c -23.518,18.625 -83.221,16.147 -106.74,34.772 l -0.005,-0.007 c -23.519,18.624 -25.392,89.807 -40.691,100.932 -32.48,23.618 -134.648,195.15 -134.648,195.15 0,0 -63.881,24.691 -51.852,2.295 113.252,-210.869 150.665,-228.111 150.665,-228.111 19.482,-15.427 62.723,-18.972 90.469,-28.169 5.749,-1.905 10.819,-4.323 14.856,-7.52 l 0.006,0.007 c 23.518,-18.624 19.211,-81.459 50.399,-107 23.94,-19.606 140.073,-162.1159 235.56,-159.1476 99.053,3.0793 52.803,77.4636 65.643,96.2576 0,0 -16.32,10.956 -16.5,10.509 -23.31,-55.7377 39.92,-62.2336 -49.4,-67.8218 C 929.777,66.5646 779.47,222.266 765.49,227.321" class="fill-blue" fill="#8be9fd" fill-rule="nonzero" opacity="1" stroke="none" id="path29"/>
            </g>
        </g>
        <g opacity="1" id="g32">
            <clipPath id="ClipPath_10">
                <path d="m 640.463,319.157 c -19.375,-18.423 -16.563,-53.403 1.28,-72.167 8.146,-8.566 -37.099,-42.135 1.882,-76.366 46.403,-40.748 119.096,-2.044 117.125,0.725 -1.971,2.769 123.505,17.429 104.53,51.557 -17.003,30.581 -61.678,32.602 -95.786,46.609 -31.049,12.751 -52.223,38.549 -57.59,44.193 -17.843,18.764 -52.067,23.873 -71.441,5.449 z" id="path30"/>
            </clipPath>
            <g clip-path="url(#ClipPath_10)" id="g31">
                <path d="m 815.763,237.73 c -34.769,-33.358 -132.496,5.618 -156.015,24.243 l -0.882,3.5 c -28.79,30.483 -15.261,72.195 -46.944,95.277 -20.206,14.721 72.467,68.911 72.467,68.911 l -27.564,28.986 c 0,0 -129.906,-102.832 -74.067,-132.53 33.511,-17.822 63.182,-12.857 90.928,-22.054 5.749,-1.905 10.819,-4.323 14.856,-7.52 l 0.006,0.007 c 23.518,-18.624 64.223,-23.213 94.619,-25.098" class="fill-red" fill="#ff5555" fill-rule="nonzero" opacity="1" stroke="none" id="path31"/>
            </g>
        </g>
        <g opacity="1" id="g36">
            <path d="m 691.017,295.11 c -22.623,19.702 -81.526,14.617 -104.15,34.319" fill="none" opacity="1" class="stroke-orange stroke-orange" stroke="#ffb86c" stroke-linecap="round" stroke-linejoin="round" stroke-width="4.86072" id="path32"/>
            <path d="m 631.131,319.135 c -2.72,-3.123 -1.549,-8.596 2.616,-12.223 4.164,-3.627 9.746,-4.035 12.466,-0.911 2.721,3.123 1.549,8.596 -2.615,12.223 -4.165,3.627 -9.747,4.035 -12.467,0.911 z" class="fill-background" fill-rule="nonzero" opacity="1" stroke="none" id="path33"/>
            <path d="m 617.249,362.625 c 19.236,-20.491 20.763,-81.009 43.387,-100.711" fill="none" opacity="1" class="stroke-orange stroke-orange" stroke="#ffb86c" stroke-linecap="round" stroke-linejoin="round" stroke-width="4.86072" id="path34"/>
            <path d="m 691.023,295.117 c 22.22,-19.351 74.674,-22.703 75.226,-23.455" fill="none" opacity="1" class="stroke-orange stroke-orange" stroke="#ffb86c" stroke-linecap="round" stroke-linejoin="round" stroke-width="4.86072" id="path35"/>
            <path d="M 800.79,231.105 C 769.514,210.699 683.265,242.219 660.641,261.921" fill="none" opacity="1" class="stroke-orange stroke-orange" stroke="#ffb86c" stroke-linecap="round" stroke-linejoin="round" stroke-width="4.86072" id="path36"/>
        </g>
        <g opacity="1" id="g39">
            <clipPath id="ClipPath_11">
                <path d="m 346.436,91.674 399.05,76.565 11.119,5.812 45.545,8.823 17.21,1.216 473.81,93.897 -17.11,289.479 -221.73,-11.696 c 0,0 -47.69,-2.956 -185.018,-3.086 -44.891,-0.043 -98.127,-1.173 -150.897,-1.657 -17.577,-0.161 -45.874,0.701 -62.731,1.555 -65.892,3.339 -149.135,-3.253 -149.135,-3.253 l -17.843,8.482 -58.723,0.899 -25.04,-4.131 -82.225,32.58 z" id="path37"/>
            </clipPath>
            <g clip-path="url(#ClipPath_11)" id="g38">
                <path d="M 588.302,328.502 C 532.3,366.647 430.732,563.393 430.732,563.393 l 53.8,-0.326 c 0,0 2.286,-5.412 6.547,-14.666 27.071,-58.784 104.858,-158.278 126.765,-186.416" fill="none" opacity="1" class="stroke-orange stroke-orange" stroke="#ffb86c" stroke-linecap="butt" stroke-linejoin="round" stroke-width="4.86072" id="path38"/>
            </g>
        </g>
    </g>
    <g clip-path="url(#ArtboardFrame_18)" id="Layer-6" vectornator:layerName="Layer 6">
        <g opacity="1" id="g41">
            <clipPath id="ClipPath_12">
                <path d="M 752.413,322.769 C 733.039,304.345 591.088,315.276 608.931,296.512 626.774,277.748 514.251,600.499 533.625,618.922 553,637.346 831.357,353.979 813.514,372.743 795.671,391.507 771.787,341.192 752.413,322.769 Z" id="path39"/>
            </clipPath>
            <g clip-path="url(#ClipPath_12)" id="g40">
                <path d="m 878.438,230.813 c -23.518,18.625 -83.221,16.147 -106.739,34.771 l -0.006,-0.006 c -23.519,18.624 -25.392,89.807 -40.69,100.932 -32.481,23.617 -135.7,194.449 -135.7,194.449 0,0 -62.829,25.392 -50.801,2.996 113.252,-210.869 150.665,-228.111 150.665,-228.111 19.482,-15.428 62.724,-18.972 90.469,-28.169 5.749,-1.906 10.819,-4.323 14.856,-7.52 l 0.006,0.007 c 23.518,-18.625 19.211,-81.459 50.399,-107 23.94,-19.606 140.073,-162.1162 235.563,-159.1479 99.05,3.0792 52.8,77.4629 65.64,96.2579 0,0 -16.32,10.956 -16.5,10.509 -23.31,-55.7381 39.92,-62.234 -49.4,-67.8222 C 1041.73,70.1763 891.421,225.878 877.44,230.932" class="fill-blue" fill="#8be9fd" fill-rule="nonzero" opacity="1" stroke="none" id="path40"/>
            </g>
        </g>
        <g opacity="1" id="g43">
            <clipPath id="ClipPath_13">
                <path d="m 752.413,322.769 c -19.374,-18.424 -16.563,-53.403 1.28,-72.167 8.147,-8.566 -37.099,-42.135 1.883,-76.366 46.403,-40.749 119.096,-2.044 117.124,0.725 -1.971,2.769 123.505,17.429 104.53,51.556 -32.481,58.42 -142.113,78.958 -153.376,90.803 -17.843,18.764 -52.067,23.872 -71.441,5.449 z" id="path41"/>
            </clipPath>
            <g clip-path="url(#ClipPath_13)" id="g42">
                <path d="m 855.414,162.466 c -23.518,18.625 -50.577,71.792 -74.095,90.416 l -4.899,5.275 c -28.789,30.483 -20.865,83.123 -52.547,106.205 -20.207,14.721 72.466,68.91 72.466,68.91 l -27.564,28.987 c 0,0 -129.906,-102.832 -74.067,-132.53 33.511,-17.823 63.183,-12.857 90.928,-22.054 5.749,-1.906 10.819,-4.323 14.856,-7.52 l 0.006,0.007 C 824.016,281.537 879.202,206.863 910.386,173 967.966,110.474 1022.64,40.3634 1042.84,69.917 L 989.643,38.2165 c 0,0 -26.295,24.4241 -68.352,39.6286" class="fill-red" fill="#ff5555" fill-rule="nonzero" opacity="1" stroke="none" id="path42"/>
            </g>
        </g>
        <g opacity="1" id="g47">
            <path d="m 802.967,298.722 c -22.623,19.702 -81.526,14.617 -104.149,34.319" fill="none" opacity="1" class="stroke-orange stroke-orange" stroke="#ffb86c" stroke-linecap="round" stroke-linejoin="round" stroke-width="4.86072" id="path43"/>
            <path d="m 743.081,322.747 c -2.72,-3.124 -1.549,-8.596 2.616,-12.223 4.165,-3.627 9.746,-4.036 12.467,-0.912 2.72,3.124 1.549,8.596 -2.616,12.223 -4.165,3.627 -9.747,4.036 -12.467,0.912 z" class="fill-background" fill-rule="nonzero" opacity="1" stroke="none" id="path44"/>
            <path d="m 729.199,366.237 c 19.236,-20.492 22.925,-73.276 39.464,-95.387" fill="none" opacity="1" class="stroke-orange stroke-orange" stroke="#ffb86c" stroke-linecap="round" stroke-linejoin="round" stroke-width="4.86072" id="path45"/>
            <path d="m 802.973,298.728 c 22.624,-19.702 64.654,-69.276 95.55,-111.423" fill="none" opacity="1" class="stroke-orange stroke-orange" stroke="#ffb86c" stroke-linecap="round" stroke-linejoin="round" stroke-width="4.86072" id="path46"/>
            <path d="m 830.6,189.853 c -22.624,19.702 -7.926,22.541 -30.55,42.243" fill="none" opacity="1" class="stroke-orange stroke-orange" stroke="#ffb86c" stroke-linecap="round" stroke-linejoin="round" stroke-width="4.86072" id="path47"/>
        </g>
        <g opacity="1" id="g50">
            <clipPath id="ClipPath_14">
                <path d="m 458.386,95.2856 399.05,76.5654 11.119,5.812 45.546,8.822 17.21,1.217 473.809,93.897 -17.11,289.479 -221.73,-11.697 c 0,0 -47.69,-2.955 -185.017,-3.086 -44.892,-0.042 -98.128,-1.173 -150.898,-1.656 -17.577,-0.161 -45.873,0.701 -62.731,1.555 C 701.742,559.532 618.5,552.94 618.5,552.94 l -15.81,6.514 -55.103,-0.491 -30.693,-0.773 -82.226,32.581 z" id="path48"/>
            </clipPath>
            <g clip-path="url(#ClipPath_14)" id="g49">
                <path d="m 700.252,332.114 c -56.002,38.144 -157.57,234.89 -157.57,234.89 l 53.8,-0.326 c 0,0 2.286,-5.412 6.547,-14.666 C 630.1,493.229 707.887,393.735 729.794,365.596" fill="none" opacity="1" class="stroke-orange stroke-orange" stroke="#ffb86c" stroke-linecap="butt" stroke-linejoin="round" stroke-width="4.86072" id="path49"/>
            </g>
        </g>
    </g>
    <g clip-path="url(#ArtboardFrame_18)" id="Layer-5" vectornator:layerName="Layer 5">
        <g opacity="1" id="g56">
            <path d="m 223.585,407.178 c 4.631,-7.888 26.892,-14.227 30.498,-4.233 3.605,9.994 -12.839,19.934 -16.726,23.174 -2.446,2.038 -24.679,5.864 -30.113,-3.712 -4.685,-8.255 5.966,2.443 16.341,-15.229 z" class="fill-blue stroke-orange stroke-orange" fill="#8be9fd" fill-rule="nonzero" filter="url(#Filter)" stroke="#ffb86c" stroke-linecap="butt" stroke-linejoin="round" stroke-width="9.83584" vectornator:shadowAngle="2.09486" vectornator:shadowColor="#282a36" vectornator:shadowOffset="7.19178" vectornator:shadowOpacity="0.9" vectornator:shadowRadius="8.50685" id="path50"/>
            <path d="m 223.585,407.178 c 4.631,-7.888 26.892,-14.227 30.498,-4.233 3.605,9.994 -12.839,19.934 -16.726,23.174 -2.446,2.038 -24.679,5.864 -30.113,-3.712 -4.685,-8.255 5.966,2.443 16.341,-15.229 z" class="fill-blue stroke-orange stroke-orange" fill="#8be9fd" fill-rule="nonzero" filter="url(#Filter_2)" stroke="#ffb86c" stroke-linecap="butt" stroke-linejoin="round" stroke-width="9.83584" vectornator:shadowAngle="-1.01235" vectornator:shadowColor="#282a36" vectornator:shadowOffset="11.1301" vectornator:shadowOpacity="0.9" vectornator:shadowRadius="8.50685" id="path51"/>
            <path d="m 226.448,433.29 c -32.826,-4.652 -58.238,-24.971 -87.949,-20.812 l -0.001,-0.009 c -29.711,4.159 -44.0268,44.295 -91.2427,60.992 -21.139,7.475 36.1038,99.142 36.1038,99.142 l -36.5254,20.576 c 0,0 -70.3913,-167 -7.2013,-164.349 37.9222,1.591 0.2032,-0.058 0.2032,-0.058 24.6109,-3.445 60.7954,20.949 89.3794,27.061 5.923,1.266 11.519,1.748 16.619,1.034 l 0.001,0.009 c 29.711,-4.159 53.939,-61.154 93.764,-67.396 83.975,-13.162 -0.448,145.133 9.853,172.272 0,0 -62.72,31.207 -48.714,1.712 60.416,-127.231 50.043,-126.725 25.71,-130.174 z" class="fill-blue" fill="#8be9fd" fill-rule="nonzero" opacity="1" stroke="none" id="path52"/>
            <clipPath id="ClipPath_15">
                <path d="m 95.14,454.23 c -7.384,-25.696 10.528,-56.636 35.414,-63.787 24.886,-7.151 51.046,7.882 58.43,33.578 7.384,25.695 -6.804,52.323 -31.69,59.474 -24.886,7.152 -54.77,-3.569 -62.154,-29.265 z" id="path53"/>
            </clipPath>
            <g clip-path="url(#ClipPath_15)" id="g55">
                <path d="m 244.498,440.573 c -29.711,4.159 -76.288,-32.254 -105.999,-28.095 l -0.001,-0.009 c -41.3848,8.065 -45.4458,47.257 -91.2427,60.992 -23.9462,7.181 27.6187,96.11 27.6187,96.11 l -38.4441,11.047 c 0,0 -59.9875,-154.439 3.2025,-151.788 37.9222,1.591 0.2032,-0.058 0.2032,-0.058 24.6109,-3.445 60.7954,20.949 89.3794,27.061 5.923,1.266 11.519,1.748 16.619,1.034 l 0.001,0.009 c 29.711,-4.159 51.894,-54.508 91.719,-60.75 83.975,-13.162 74.41,72.806 76.868,108.516 l -39.368,9.907 c 0,0 14.007,-65.678 -29.961,-73.853" class="fill-red" fill="#ff5555" fill-rule="nonzero" opacity="1" stroke="none" id="path54"/>
                <path d="m 224.214,393.221 -28.338,36.94 43.013,4.048 29.097,-37.952 z" fill="none" opacity="1" class="stroke-orange stroke-orange" stroke="#ffb86c" stroke-linecap="butt" stroke-linejoin="round" stroke-width="4.86072" id="path55"/>
            </g>
        </g>
        <g opacity="1" id="g65">
            <path d="m 145.376,454.526 c -29.588,4.96 -77.1325,-30.18 -106.7196,-25.219" fill="none" opacity="1" class="stroke-orange stroke-orange" stroke="#ffb86c" stroke-linecap="round" stroke-linejoin="round" stroke-width="4.86072" id="path56"/>
            <path d="m 81.7673,443.683 c -0.6849,-4.086 3.1754,-8.137 8.6223,-9.051 5.4468,-0.913 10.4174,1.659 11.1024,5.744 0.685,4.085 -3.1755,8.137 -8.6223,9.05 -5.4468,0.913 -10.4176,-1.658 -11.1024,-5.743 z" class="fill-background" fill-rule="nonzero" opacity="1" stroke="none" id="path57"/>
            <path d="m 47.1901,473.49 c 29.5871,-4.96 60.0649,-58.187 89.6519,-63.147" fill="none" opacity="1" class="stroke-orange stroke-orange" stroke="#ffb86c" stroke-linecap="round" stroke-linejoin="round" stroke-width="4.86072" id="path58"/>
            <path d="m 234.36,434.037 c -29.587,4.961 -67.929,-28.646 -97.517,-23.686" fill="none" opacity="1" class="stroke-orange stroke-orange" stroke="#ffb86c" stroke-linecap="round" stroke-linejoin="round" stroke-width="4.86072" id="path59"/>
            <path d="m 179.954,424.727 c -0.685,-4.085 3.176,-8.137 8.623,-9.05 5.446,-0.913 10.417,1.658 11.102,5.743 0.685,4.086 -3.175,8.138 -8.622,9.051 -5.447,0.913 -10.418,-1.659 -11.103,-5.744 z" class="fill-background" fill-rule="nonzero" opacity="1" stroke="none" id="path60"/>
            <path d="m 145.377,454.535 c 29.587,-4.96 60.065,-58.187 89.652,-63.147" fill="none" opacity="1" class="stroke-orange stroke-orange" stroke="#ffb86c" stroke-linecap="round" stroke-linejoin="round" stroke-width="4.86072" id="path61"/>
            <clipPath id="ClipPath_16">
                <path d="m -638.987,499.587 995.752,-233.064 -105.44,293.232 -4.524,0.274 -0.265,-10.827 -36.473,-3.58 -7.089,15.9 -6.907,-0.14 -50.29,-25.279 c 0,0 -59.408,35.678 -63.4182,37.064 -11.6865,4.038 -37.8934,5.373 -37.8934,5.373 l 3.3667,8.814 -6.6351,4.533 -419.219,109.646 -95.274,35.696 -68.543,55.897 z" id="path62"/>
            </clipPath>
            <g clip-path="url(#ClipPath_16)" id="g64">
                <path d="m 38.4548,429.37 c -63.2385,-0.941 7.3959,159.633 7.3959,159.633 l 39.2732,-13.836 c 0,0 -62.3076,-96.245 -37.8423,-101.388" fill="none" opacity="1" class="stroke-orange stroke-orange" stroke="#ffb86c" stroke-linecap="butt" stroke-linejoin="round" stroke-width="4.86072" id="path63"/>
                <path d="m 234.431,433.901 c 35.832,-0.957 -33.895,126.615 -33.895,126.615 l 48.702,-2.034 C 245.815,522.851 319.967,375.263 236.379,390.69" fill="none" opacity="1" class="stroke-orange stroke-orange" stroke="#ffb86c" stroke-linecap="round" stroke-linejoin="round" stroke-width="4.86072" id="path64"/>
            </g>
        </g>
    </g>
</svg>
