<?xml version="1.0" encoding="UTF-8" standalone="no"?>
<!DOCTYPE svg PUBLIC "-//W3C//DTD SVG 1.1//EN" "http://www.w3.org/Graphics/SVG/1.1/DTD/svg11.dtd">
<!-- Created with Vectornator (http://vectornator.io/) -->
<svg   stroke-miterlimit="10" style="fill-rule:nonzero;clip-rule:evenodd;stroke-linecap:round;stroke-linejoin:round;" version="1.1" viewBox="0 0 1000 820"   xml:space="preserve" xmlns="http://www.w3.org/2000/svg" xmlns:vectornator="http://vectornator.io" xmlns:xlink="http://www.w3.org/1999/xlink">
<defs>
<filter color-interpolation-filters="sRGB" filterUnits="userSpaceOnUse" height="61.9108" id="Filter" width="79.5916" x="188.957" y="389.485">
<feDropShadow dx="-3.59878" dy="6.2266" flood-color="#282a36" flood-opacity="0.9" in="SourceGraphic" result="Shadow" stdDeviation="4.25342"/>
</filter>
<filter color-interpolation-filters="sRGB" filterUnits="userSpaceOnUse" height="61.9108" id="Filter_2" width="79.5916" x="198.453" y="373.82">
<feDropShadow dx="5.89749" dy="-9.43925" flood-color="#282a36" flood-opacity="0.9" in="SourceGraphic" result="Shadow" stdDeviation="4.25342"/>
</filter>
</defs>
<clipPath id="ArtboardFrame_20">
<rect height="820" width="1000" x="0" y="0"/>
</clipPath>
<g clip-path="url(#ArtboardFrame_20)" id="Layer-1" vectornator:layerName="Layer 1" visibility="hidden">
<path d="M-110.735-138.315L1054.77-138.315L1054.77 1059.06L-110.735 1059.06L-110.735-138.315Z" fill="#282a36" fill-rule="nonzero" opacity="1" stroke="none"/>
</g>
<g clip-path="url(#ArtboardFrame_20)" id="Layer-2" vectornator:layerName="Layer 2">
<g opacity="1">
<clipPath id="ClipPath">
<path d="M-4.69646 685.607C-14.1712 626.683 38.4566 574.606 38.4566 574.606L46.7422 590.476L84.3647 574.223L79.0399 560.128L119.769 550.946L121.813 566.998L172.327 563.436L169.686 542.141C169.686 542.141 192.338 540.495 200.136 540.167C201.724 540.1 205.816 561.999 205.816 561.999L250.844 560.883C250.844 560.883 247.063 538.309 249.454 538.228C264.049 537.728 297.108 533.782 297.108 533.782L307.581 533.344L337.672 545.507L338.552 532.886C338.552 532.886 354.148 532.003 360.511 531.93C363.844 531.892 363.605 548.044 363.605 548.044L399.917 545.095C399.917 545.095 397.709 523.156 401.657 523.103C426.327 522.773 525.881 513.996 525.881 513.996C525.881 513.996 472.419 563.149 485.708 543.488C498.997 523.828 513.762 541.582 513.762 541.582L536.911 543.481L574.901 524.389C574.901 524.389 596.023 524.713 615.383 526.57C618.969 526.914 619.175 540.113 619.175 540.113L645.178 543.805L657.041 525.976L830.984 531.056L807.724 551.35L847.676 552.536L856.673 537.799L882.518 542.943L887.473 553.381L914.781 560.05C914.781 560.05 921.262 545.144 921.724 545.298C1019.45 577.702 1008.45 631.163 1008.45 685.607C1008.45 740.284 1025.85 777.9 927.402 810.303C896.481 820.481 153.255 835.291 76.3556 810.303C-23.344 777.906 4.77828 744.532-4.69646 685.607Z"/>
</clipPath>
<g clip-path="url(#ClipPath)">
<path d="M3.56854 693.43C3.56854 640.633-7.31415 601.199 89.4517 570.019C144.546 552.266 547.802 555.174 772.262 561.901C854.641 564.37 912.937 567.353 921.098 570.019C1016.59 601.203 1000.3 637.625 1000.3 690.019C1000.3 742.637 1017.3 778.836 921.098 810.019C890.881 819.813 164.598 834.066 89.4517 810.019C-7.9752 778.842 3.56854 746.435 3.56854 693.43Z" fill="#8be9fd" fill-rule="nonzero" opacity="1" class="stroke-orange" stroke="#ffb86c" stroke-linecap="round" stroke-linejoin="round" stroke-width="4.86072"/>
</g>
</g>
<g opacity="1">
<clipPath id="ClipPath_2">
<path d="M396.458 97.369C391.143 55.4599 420.669 18.421 420.669 18.421L428.377 9.88295L434.186 12.1143L443.437 8.1237L466.287 1.59264L473.554 1.80386L481.496-1.5911L494.292-4.66969C494.292-4.66969 507.001-5.84028 511.376-6.07352C512.267-6.121 522.722-6.06111 522.722-6.06111C522.722-6.06111 534.229 10.8856 533.705-5.99332C533.181-22.8723 537.704-7.39472 539.045-7.45292C547.234-7.80831 565.78-10.6145 565.78-10.6145L571.656-10.9262L588.538-2.27572L589.032-11.2523C589.032-11.2523 597.782-11.8799 601.352-11.9318C603.221-11.959 603.087-0.470814 603.087-0.470814L623.46-2.56834C623.46-2.56834 622.221-18.1723 624.436-18.2099C638.276-18.4448 694.13-24.687 694.13-24.687L681.516-5.44269L702.608-8.02251L721.632-17.2956C721.632-17.2956 733.482-17.0653 744.343-15.7441C746.355-15.4994 746.471-6.11227 746.471-6.11227L761.059-3.4864L767.715-16.167L865.302-12.5537C865.302-12.5537 859.275 17.447 855.304 2.10186C851.334-13.2433 871.904 1.89546 871.904 1.89546L879.715-7.75789L894.215-4.09898L894.684 1.4228L909.766 4.59048C909.766 4.59048 915.951-2.53365 916.211-2.42447C971.037 20.6229 964.87 58.6464 964.87 97.369C964.87 136.257 966.456 173.917 911.224 196.963C893.876 204.202 485.504 208.737 442.361 190.965C386.427 167.923 401.774 139.278 396.458 97.369Z"/>
</clipPath>
<g clip-path="url(#ClipPath_2)">
<path d="M401.095 102.932C401.095 65.3817 394.99 37.3348 449.279 15.158C480.188 2.53143 706.428 4.59983 832.358 9.38446C878.575 11.1405 911.281 13.2624 915.86 15.158C969.436 37.3375 960.296 63.242 960.296 100.506C960.296 137.93 969.832 163.676 915.86 185.855C898.907 192.821 491.438 202.958 449.279 185.855C394.619 163.681 401.095 140.632 401.095 102.932Z" fill="#ff5555" fill-rule="nonzero" opacity="1" class="stroke-orange" stroke="#ffb86c" stroke-linecap="round" stroke-linejoin="round" stroke-width="4.86072"/>
</g>
</g>
</g>
<g id="Layer-7" vectornator:layerName="Layer 7">
<g opacity="1">
<clipPath id="ClipPath_3">
<path d="M326.437 325.567C307.062 307.143 165.112 318.074 182.955 299.31C200.798 280.547 88.2747 603.297 107.649 621.721C127.023 640.144 405.38 356.777 387.537 375.541C369.694 394.305 345.811 343.991 326.437 325.567Z"/>
</clipPath>
<g clip-path="url(#ClipPath_3)">
<path d="M452.462 233.611C428.943 252.236 369.241 249.758 345.722 268.382L345.717 268.376C322.198 287 320.325 358.183 305.026 369.308C272.546 392.926 169.326 563.757 169.326 563.757C169.326 563.757 106.497 589.149 118.525 566.753C231.778 355.884 269.191 338.642 269.191 338.642C288.673 323.214 331.914 319.67 359.66 310.473C365.409 308.567 370.479 306.15 374.516 302.953L374.521 302.96C398.04 284.335 393.733 221.501 424.92 195.96C448.86 176.354 564.994 33.844 660.481 36.8123C759.538 39.8915 713.28 114.275 726.123 133.07C726.123 133.07 709.807 144.026 709.62 143.579C686.314 87.8412 749.54 81.3453 660.224 75.7571C615.75 72.9745 465.444 228.676 451.464 233.731" fill="#8be9fd" fill-rule="nonzero" opacity="1" stroke="none"/>
</g>
</g>
<g opacity="1">
<clipPath id="ClipPath_4">
<path d="M326.437 325.567C307.062 307.143 309.874 272.164 327.717 253.4C335.863 244.834 290.618 211.265 329.599 177.034C376.002 136.286 448.695 174.99 446.724 177.759C444.753 180.528 570.229 195.188 551.254 229.316C518.772 287.735 409.141 308.274 397.878 320.118C380.035 338.882 345.811 343.991 326.437 325.567Z"/>
</clipPath>
<g clip-path="url(#ClipPath_4)">
<path d="M429.438 165.264C405.919 183.889 369.241 249.758 345.722 268.382L344.84 271.883C316.05 302.365 329.579 344.078 297.896 367.16C277.69 381.881 370.363 436.07 370.363 436.07L342.798 465.057C342.798 465.057 212.892 362.225 268.732 332.527C302.243 314.705 331.914 319.67 359.66 310.473C365.409 308.567 370.479 306.15 374.516 302.953L374.521 302.96C398.04 284.335 453.226 209.661 484.41 175.798C541.99 113.272 596.665 43.1616 616.86 72.7152L563.666 41.0147C563.666 41.0147 537.372 65.4388 495.315 80.6433" fill="#ff5555" fill-rule="nonzero" opacity="1" stroke="none"/>
</g>
</g>
<g opacity="1">
<path d="M376.991 301.52C354.367 321.222 295.465 316.137 272.841 335.839" fill="none" opacity="1" class="stroke-orange" stroke="#ffb86c" stroke-linecap="round" stroke-linejoin="round" stroke-width="4.86072"/>
<path d="M317.105 325.545C314.384 322.421 315.555 316.949 319.72 313.322C323.885 309.695 329.467 309.287 332.187 312.41C334.907 315.534 333.736 321.007 329.571 324.634C325.406 328.261 319.825 328.669 317.105 325.545Z" fill="#282a36" fill-rule="nonzero" opacity="1" stroke="none"/>
<path d="M303.223 369.035C322.458 348.543 323.986 288.026 346.609 268.324" fill="none" opacity="1" class="stroke-orange" stroke="#ffb86c" stroke-linecap="round" stroke-linejoin="round" stroke-width="4.86072"/>
<path d="M376.997 301.526C399.621 281.824 441.651 232.25 472.547 190.103" fill="none" opacity="1" class="stroke-orange" stroke="#ffb86c" stroke-linecap="round" stroke-linejoin="round" stroke-width="4.86072"/>
<path d="M422.815 171.805C400.191 191.507 369.239 248.629 346.615 268.331" fill="none" opacity="1" class="stroke-orange" stroke="#ffb86c" stroke-linecap="round" stroke-linejoin="round" stroke-width="4.86072"/>
</g>
<g opacity="1">
<clipPath id="ClipPath_5">
<path d="M32.4096 98.0839L431.46 174.649L442.579 180.461L488.124 189.283L505.334 190.5L979.141 284.397L962.035 573.876L740.302 562.18C740.302 562.18 692.612 559.224 555.286 559.093C510.394 559.051 457.159 557.92 404.389 557.437C386.811 557.276 358.515 558.138 341.658 558.992C275.766 562.33 192.523 555.739 192.523 555.739L174.679 564.221L120.586 567.15L90.9172 560.988L8.69174 593.569L32.4096 98.0839Z"/>
</clipPath>
<g clip-path="url(#ClipPath_5)">
<path d="M274.276 334.912C218.274 373.056 116.706 569.802 116.706 569.802L170.506 569.476C170.506 569.476 172.791 564.065 177.053 554.81C204.124 496.027 281.911 396.533 303.818 368.394" fill="none" opacity="1" class="stroke-orange" stroke="#ffb86c" stroke-linecap="butt" stroke-linejoin="round" stroke-width="4.86072"/>
</g>
</g>
</g>
<g clip-path="url(#ArtboardFrame_20)" id="Layer-3" vectornator:layerName="Layer 3">
<g opacity="1">
<clipPath id="ClipPath_6">
<path d="M524.798 320.157C505.424 301.734 363.474 312.664 381.317 293.901C399.16 275.137 286.636 597.887 306.011 616.311C325.385 634.734 603.742 351.367 585.899 370.131C568.056 388.895 544.173 338.581 524.798 320.157Z"/>
</clipPath>
<g clip-path="url(#ClipPath_6)">
<path d="M650.824 228.201C627.305 246.826 567.602 244.348 544.084 262.973L544.078 262.966C520.56 281.59 518.687 352.773 503.388 363.898C470.907 387.516 367.688 558.347 367.688 558.347C367.688 558.347 304.859 583.739 316.887 561.343C430.14 350.474 467.553 333.232 467.553 333.232C487.035 317.805 530.276 314.26 558.021 305.063C563.77 303.158 568.841 300.74 572.877 297.543L572.883 297.55C596.402 278.926 592.095 216.091 623.282 190.55C647.222 170.944 763.355 28.4341 858.843 31.4024C957.9 34.4817 911.642 108.866 924.485 127.66C924.485 127.66 908.168 138.616 907.982 138.169C884.675 82.4313 947.902 75.9354 858.586 70.3472C814.112 67.5646 663.806 223.266 649.825 228.321" fill="#8be9fd" fill-rule="nonzero" opacity="1" stroke="none"/>
</g>
</g>
<g opacity="1">
<clipPath id="ClipPath_7">
<path d="M524.798 320.157C505.424 301.734 508.236 266.754 526.079 247.99C534.225 239.424 488.979 205.855 527.961 171.624C574.364 130.876 647.057 169.58 645.086 172.349C643.115 175.118 768.59 189.778 749.615 223.906C717.134 282.325 607.502 302.864 596.239 314.708C578.396 333.472 544.173 338.581 524.798 320.157Z"/>
</clipPath>
<g clip-path="url(#ClipPath_7)">
<path d="M627.799 159.854C604.281 178.479 567.602 244.348 544.084 262.973L543.201 266.473C514.412 296.956 527.94 338.668 496.258 361.75C476.052 376.471 568.724 430.661 568.724 430.661L541.16 459.647C541.16 459.647 411.254 356.815 467.094 327.117C500.605 309.295 530.276 314.26 558.021 305.063C563.77 303.158 568.841 300.74 572.877 297.543L572.883 297.55C596.402 278.926 651.587 204.251 682.772 170.388C740.352 107.862 795.027 37.7518 815.222 67.3054L762.028 35.6048C762.028 35.6048 735.734 60.029 693.676 75.2334" fill="#ff5555" fill-rule="nonzero" opacity="1" stroke="none"/>
</g>
</g>
<g opacity="1">
<path d="M575.353 296.11C552.729 315.812 493.827 310.727 471.203 330.429" fill="none" opacity="1" class="stroke-orange" stroke="#ffb86c" stroke-linecap="round" stroke-linejoin="round" stroke-width="4.86072"/>
<path d="M515.466 320.135C512.746 317.012 513.917 311.539 518.082 307.912C522.247 304.285 527.828 303.877 530.549 307.001C533.269 310.124 532.098 315.597 527.933 319.224C523.768 322.851 518.187 323.259 515.466 320.135Z" fill="#282a36" fill-rule="nonzero" opacity="1" stroke="none"/>
<path d="M501.585 363.625C520.82 343.134 522.347 282.616 544.971 262.914" fill="none" opacity="1" class="stroke-orange" stroke="#ffb86c" stroke-linecap="round" stroke-linejoin="round" stroke-width="4.86072"/>
<path d="M575.359 296.117C597.982 276.415 632.087 236.747 662.983 194.6" fill="none" opacity="1" class="stroke-orange" stroke="#ffb86c" stroke-linecap="round" stroke-linejoin="round" stroke-width="4.86072"/>
<path d="M597.276 194.505C597.276 194.505 567.601 243.219 544.977 262.921" fill="none" opacity="1" class="stroke-orange" stroke="#ffb86c" stroke-linecap="round" stroke-linejoin="round" stroke-width="4.86072"/>
</g>
<g opacity="1">
<clipPath id="ClipPath_8">
<path d="M230.771 92.674L629.821 169.239L640.941 175.051L686.486 183.874L703.696 185.09L1177.5 278.987L1160.4 568.466L938.664 556.77C938.664 556.77 890.973 553.814 753.648 553.684C708.756 553.641 655.52 552.511 602.75 552.027C585.173 551.866 556.877 552.728 540.02 553.582C474.128 556.921 390.885 550.329 390.885 550.329L373.041 558.811L318.947 561.024L289.279 555.579L207.053 588.159L230.771 92.674Z"/>
</clipPath>
<g clip-path="url(#ClipPath_8)">
<path d="M472.637 329.502C416.635 367.647 317.217 564.631 317.217 564.631L368.868 564.067C368.868 564.067 369.481 557.699 373.743 548.445C400.813 489.661 480.273 391.123 502.18 362.985" fill="none" opacity="1" class="stroke-orange" stroke="#ffb86c" stroke-linecap="butt" stroke-linejoin="round" stroke-width="4.86072"/>
</g>
</g>
</g>
<g clip-path="url(#ArtboardFrame_20)" id="Layer-6" vectornator:layerName="Layer 6">
<g opacity="1">
<clipPath id="ClipPath_9">
<path d="M754.413 323.769C735.039 305.345 593.088 316.276 610.931 297.512C628.774 278.748 516.251 601.499 535.625 619.922C555 638.346 833.357 354.979 815.514 373.743C797.671 392.507 773.787 342.192 754.413 323.769Z"/>
</clipPath>
<g clip-path="url(#ClipPath_9)">
<path d="M880.438 231.813C856.92 250.438 797.217 247.96 773.699 266.584L773.693 266.578C750.174 285.202 748.301 356.385 733.003 367.51C700.522 391.127 597.303 561.959 597.303 561.959C597.303 561.959 534.474 587.351 546.502 564.955C659.754 354.086 697.167 336.844 697.167 336.844C716.649 321.416 759.891 317.872 787.636 308.675C793.385 306.769 798.455 304.352 802.492 301.155L802.498 301.162C826.016 282.537 821.709 219.703 852.897 194.162C876.837 174.556 992.97 32.0458 1088.46 35.0141C1187.51 38.0933 1141.26 112.477 1154.1 131.272C1154.1 131.272 1137.78 142.228 1137.6 141.781C1114.29 86.0429 1177.52 79.547 1088.2 73.9588C1043.73 71.1763 893.421 226.878 879.44 231.932" fill="#8be9fd" fill-rule="nonzero" opacity="1" stroke="none"/>
</g>
</g>
<g opacity="1">
<clipPath id="ClipPath_10">
<path d="M754.413 323.769C735.039 305.345 737.85 270.366 755.693 251.602C763.84 243.036 718.594 209.467 757.576 175.236C803.979 134.487 876.672 173.192 874.7 175.961C872.729 178.73 998.205 193.39 979.23 227.517C946.749 285.937 837.117 306.475 825.854 318.32C808.011 337.084 773.787 342.192 754.413 323.769Z"/>
</clipPath>
<g clip-path="url(#ClipPath_10)">
<path d="M857.414 163.466C833.896 182.091 806.837 235.258 783.319 253.882L778.42 259.157C749.631 289.64 757.555 342.28 725.873 365.362C705.666 380.083 798.339 434.272 798.339 434.272L770.775 463.259C770.775 463.259 640.869 360.427 696.708 330.729C730.219 312.906 759.891 317.872 787.636 308.675C793.385 306.769 798.455 304.352 802.492 301.155L802.498 301.162C826.016 282.537 881.202 207.863 912.386 174C969.966 111.474 1024.64 41.3634 1044.84 70.917L991.643 39.2165C991.643 39.2165 965.348 63.6406 923.291 78.8451" fill="#ff5555" fill-rule="nonzero" opacity="1" stroke="none"/>
</g>
</g>
<g opacity="1">
<path d="M804.967 299.722C782.344 319.424 723.441 314.339 700.818 334.041" fill="none" opacity="1" class="stroke-orange" stroke="#ffb86c" stroke-linecap="round" stroke-linejoin="round" stroke-width="4.86072"/>
<path d="M745.081 323.747C742.361 320.623 743.532 315.151 747.697 311.524C751.862 307.897 757.443 307.488 760.164 310.612C762.884 313.736 761.713 319.208 757.548 322.835C753.383 326.462 747.801 326.871 745.081 323.747Z" fill="#282a36" fill-rule="nonzero" opacity="1" stroke="none"/>
<path d="M731.199 367.237C750.435 346.745 754.124 293.961 770.663 271.85" fill="none" opacity="1" class="stroke-orange" stroke="#ffb86c" stroke-linecap="round" stroke-linejoin="round" stroke-width="4.86072"/>
<path d="M804.973 299.728C827.597 280.026 869.627 230.452 900.523 188.305" fill="none" opacity="1" class="stroke-orange" stroke="#ffb86c" stroke-linecap="round" stroke-linejoin="round" stroke-width="4.86072"/>
<path d="M832.6 190.853C822.961 206.171 816.471 218.709 770.485 272.036" fill="none" opacity="1" class="stroke-orange" stroke="#ffb86c" stroke-linecap="round" stroke-linejoin="round" stroke-width="4.86072"/>
</g>
<g opacity="1">
<clipPath id="ClipPath_11">
<path d="M460.386 96.2856L859.436 172.851L870.555 178.663L916.101 187.485L933.311 188.702L1407.12 282.599L1390.01 572.078L1168.28 560.381C1168.28 560.381 1120.59 557.426 983.263 557.295C938.371 557.253 885.135 556.122 832.365 555.639C814.788 555.478 786.492 556.34 769.634 557.194C703.742 560.532 620.5 553.94 620.5 553.94L604.69 560.454L549.587 559.963L518.894 559.19L436.668 591.771L460.386 96.2856Z"/>
</clipPath>
<g clip-path="url(#ClipPath_11)">
<path d="M702.252 333.114C646.25 371.258 544.682 568.004 544.682 568.004L598.482 567.678C598.482 567.678 600.768 562.266 605.029 553.012C632.1 494.229 709.887 394.735 731.794 366.596" fill="none" opacity="1" class="stroke-orange" stroke="#ffb86c" stroke-linecap="butt" stroke-linejoin="round" stroke-width="4.86072"/>
</g>
</g>
</g>
<g clip-path="url(#ArtboardFrame_20)" id="Layer-5" vectornator:layerName="Layer 5">
<g opacity="1">
<path d="M225.585 408.178C230.216 400.29 252.477 393.951 256.083 403.945C259.688 413.939 243.244 423.879 239.357 427.119C236.911 429.157 214.678 432.983 209.244 423.407C204.559 415.152 215.21 425.85 225.585 408.178Z" fill="#8be9fd" fill-rule="nonzero" filter="url(#Filter)" class="stroke-orange" stroke="#ffb86c" stroke-linecap="butt" stroke-linejoin="round" stroke-width="9.83584" vectornator:shadowAngle="2.09486" vectornator:shadowColor="#282a36" vectornator:shadowOffset="7.19178" vectornator:shadowOpacity="0.9" vectornator:shadowRadius="8.50685"/>
<path d="M225.585 408.178C230.216 400.29 252.477 393.951 256.083 403.945C259.688 413.939 243.244 423.879 239.357 427.119C236.911 429.157 214.678 432.983 209.244 423.407C204.559 415.152 215.21 425.85 225.585 408.178Z" fill="#8be9fd" fill-rule="nonzero" filter="url(#Filter_2)" class="stroke-orange" stroke="#ffb86c" stroke-linecap="butt" stroke-linejoin="round" stroke-width="9.83584" vectornator:shadowAngle="-1.01235" vectornator:shadowColor="#282a36" vectornator:shadowOffset="11.1301" vectornator:shadowOpacity="0.9" vectornator:shadowRadius="8.50685"/>
<path d="M228.448 434.29C195.622 429.638 170.21 409.319 140.499 413.478L140.498 413.469C110.787 417.628 96.4712 457.764 49.2553 474.461C28.1163 481.936 85.3591 573.603 85.3591 573.603L48.8337 594.179C48.8337 594.179-21.5576 427.179 41.6324 429.83C79.5546 431.421 41.8356 429.772 41.8356 429.772C66.4465 426.327 102.631 450.721 131.215 456.833C137.138 458.099 142.734 458.581 147.834 457.867L147.835 457.876C177.546 453.717 201.774 396.722 241.599 390.48C325.574 377.318 241.151 535.613 251.452 562.752C251.452 562.752 188.732 593.959 202.738 564.464C263.154 437.233 252.781 437.739 228.448 434.29Z" fill="#8be9fd" fill-rule="nonzero" opacity="1" stroke="none"/>
<clipPath id="ClipPath_12">
<path d="M97.14 455.23C89.756 429.534 107.668 398.594 132.554 391.443C157.44 384.292 183.6 399.325 190.984 425.021C198.368 450.716 184.18 477.344 159.294 484.495C134.408 491.647 104.524 480.926 97.14 455.23Z"/>
</clipPath>
<g clip-path="url(#ClipPath_12)">
<path d="M246.498 441.573C216.787 445.732 170.21 409.319 140.499 413.478L140.498 413.469C99.1132 421.534 95.0522 460.726 49.2553 474.461C25.3091 481.642 76.874 570.571 76.874 570.571L38.4299 581.618C38.4299 581.618-21.5576 427.179 41.6324 429.83C79.5546 431.421 41.8356 429.772 41.8356 429.772C66.4465 426.327 102.631 450.721 131.215 456.833C137.138 458.099 142.734 458.581 147.834 457.867L147.835 457.876C177.546 453.717 199.729 403.368 239.554 397.126C323.529 383.964 313.964 469.932 316.422 505.642L277.054 515.549C277.054 515.549 291.061 449.871 247.093 441.696" fill="#ff5555" fill-rule="nonzero" opacity="1" stroke="none"/>
<path d="M226.214 394.221L197.876 431.161L240.889 435.209L269.986 397.257L226.214 394.221Z" fill="none" opacity="1" class="stroke-orange" stroke="#ffb86c" stroke-linecap="butt" stroke-linejoin="round" stroke-width="4.86072"/>
</g>
</g>
<g opacity="1">
<path d="M147.376 455.526C117.788 460.486 70.2435 425.346 40.6564 430.307" fill="none" opacity="1" class="stroke-orange" stroke="#ffb86c" stroke-linecap="round" stroke-linejoin="round" stroke-width="4.86072"/>
<path d="M83.7673 444.683C83.0824 440.597 86.9427 436.546 92.3896 435.632C97.8364 434.719 102.807 437.291 103.492 441.376C104.177 445.461 100.317 449.513 94.8697 450.426C89.4229 451.339 84.4521 448.768 83.7673 444.683Z" fill="#282a36" fill-rule="nonzero" opacity="1" stroke="none"/>
<path d="M49.1901 474.49C78.7772 469.53 109.255 416.303 138.842 411.343" fill="none" opacity="1" class="stroke-orange" stroke="#ffb86c" stroke-linecap="round" stroke-linejoin="round" stroke-width="4.86072"/>
<path d="M236.36 435.037C206.773 439.998 168.431 406.391 138.843 411.351" fill="none" opacity="1" class="stroke-orange" stroke="#ffb86c" stroke-linecap="round" stroke-linejoin="round" stroke-width="4.86072"/>
<path d="M181.954 425.727C181.269 421.642 185.13 417.59 190.577 416.677C196.023 415.764 200.994 418.335 201.679 422.42C202.364 426.506 198.504 430.558 193.057 431.471C187.61 432.384 182.639 429.812 181.954 425.727Z" fill="#282a36" fill-rule="nonzero" opacity="1" stroke="none"/>
<path d="M147.377 455.535C176.964 450.575 207.442 397.348 237.029 392.388" fill="none" opacity="1" class="stroke-orange" stroke="#ffb86c" stroke-linecap="round" stroke-linejoin="round" stroke-width="4.86072"/>
<clipPath id="ClipPath_13">
<path d="M-636.987 500.587L358.765 267.523L253.325 560.755L248.801 561.029L248.536 550.202L212.063 546.622L204.974 562.522L198.067 562.382L147.777 537.103C147.777 537.103 88.369 572.781 84.3588 574.167C72.6723 578.205 46.4654 579.54 46.4654 579.54L49.8321 588.354L43.197 592.887L-376.022 702.533L-471.296 738.229L-539.839 794.126L-636.987 500.587Z"/>
</clipPath>
<g clip-path="url(#ClipPath_13)">
<path d="M40.4548 430.37C-22.7837 429.429 47.8507 590.003 47.8507 590.003L87.1239 576.167C87.1239 576.167 24.8163 479.922 49.2816 474.779" fill="none" opacity="1" class="stroke-orange" stroke="#ffb86c" stroke-linecap="butt" stroke-linejoin="round" stroke-width="4.86072"/>
<path d="M236.431 434.901C272.263 433.944 202.536 561.516 202.536 561.516L251.238 559.482C247.815 523.851 321.967 376.263 238.379 391.69" fill="none" opacity="1" class="stroke-orange" stroke="#ffb86c" stroke-linecap="round" stroke-linejoin="round" stroke-width="4.86072"/>
</g>
</g>
</g>
<g clip-path="url(#ArtboardFrame_20)" id="Layer-4" vectornator:layerName="Layer 4">
<g opacity="1">
<clipPath id="ClipPath_14">
<path d="M548.298 434.612C498.474 414.794 391.138 429.664 408.981 410.901C426.824 392.137 314.301 714.887 333.675 733.311C353.049 751.734 644.103 560.242 644.103 560.242C644.103 560.242 650.298 537.591 645.839 516.801C644.918 512.51 625.419 517.171 623.238 512.931C607.354 482.048 587.275 450.644 581.384 448.113C575.416 445.549 565.318 441.382 548.298 434.612Z"/>
</clipPath>
<g clip-path="url(#ClipPath_14)">
<path d="M622.134 515.077L647.29 515.843L641.737 559.108L638.73 573.452L587.136 566.512L622.134 515.077Z" fill="#8be9fd" fill-rule="nonzero" opacity="1" stroke="none"/>
<path d="M678.488 345.201C654.97 363.826 665.138 408.314 641.62 426.939L616.164 422.305C592.646 440.93 556.914 450.002 533.135 482.055C515.927 505.249 495.922 551.39 483.404 564.056C472.688 574.899 420.985 585.791 433.733 563.798C470.013 501.208 500.126 448.051 500.126 448.051C500.838 449.443 494.084 443.291 521.83 434.094C527.579 432.188 536.583 434.861 540.619 431.664C540.619 431.664 610.489 393.539 596.614 413.625C582.74 433.71 619.759 333.091 650.947 307.55C674.887 287.944 791.02 145.434 886.507 148.402C985.565 151.482 939.306 225.866 952.149 244.66C952.149 244.66 935.833 255.616 935.646 255.169C912.34 199.431 975.566 192.935 886.25 187.347C841.777 184.565 691.47 340.266 677.49 345.321" fill="#8be9fd" fill-rule="nonzero" opacity="1" stroke="none"/>
</g>
</g>
<g opacity="1">
<clipPath id="ClipPath_15">
<path d="M579.757 453.374C571.522 427.938 588.224 399.268 612.858 391.292C624.105 387.651 600.36 336.561 650.952 325.078C711.175 311.41 756.59 380.11 753.537 381.603C750.483 383.096 809.742 457.367 774.9 474.998C758.712 483.19 738.265 491.11 738.265 491.11C738.265 491.11 677.537 519.395 664.834 518.021C631.464 514.411 650.092 481.003 642.682 483.403C618.048 491.379 587.993 478.81 579.757 453.374Z"/>
</clipPath>
<g clip-path="url(#ClipPath_15)">
<path d="M653.218 513.316C678.98 460.368 633.646 410.106 622.095 415.937C560.761 446.898 571.227 471.87 532.37 477.037C507.588 480.332 563.173 572.174 563.173 572.174L525.118 584.496C525.118 584.496 460.022 432.139 523.265 432.685C561.219 433.012 584.926 451.534 613.697 456.69C619.659 457.759 625.268 458.054 630.341 457.171L630.343 457.179C649.947 462.937 649.176 489.658 648.866 511.586C648.857 512.213 653.218 513.316 653.218 513.316Z" fill="#ff5555" fill-rule="nonzero" opacity="1" stroke="none"/>
</g>
</g>
<g opacity="1">
<path d="M629.069 458.964C585.979 464.481 535.311 406.178 502.18 446.181" fill="none" opacity="1" class="stroke-orange" stroke="#ffb86c" stroke-linecap="round" stroke-linejoin="round" stroke-width="4.86072"/>
<path d="M565.443 448.224C564.751 444.14 568.605 440.082 574.05 439.16C579.495 438.238 584.47 440.801 585.162 444.885C585.854 448.969 582 453.027 576.554 453.949C571.109 454.871 566.134 452.308 565.443 448.224Z" fill="#282a36" fill-rule="nonzero" opacity="1" stroke="none"/>
<path d="M534.728 479.898C567.007 444.815 629.244 409.186 620.463 414.794" fill="none" opacity="1" class="stroke-orange" stroke="#ffb86c" stroke-linecap="round" stroke-linejoin="round" stroke-width="4.86072"/>
<path d="M623.189 514.999C695.549 536.57 650.043 409.794 620.464 414.803" fill="none" opacity="1" class="stroke-orange" stroke="#ffb86c" stroke-linecap="butt" stroke-linejoin="round" stroke-width="4.86072"/>
<path d="M643.268 521.608C641.051 519.61 641.276 515.627 643.77 512.712C646.263 509.797 650.082 509.054 652.298 511.052C654.515 513.051 654.29 517.034 651.796 519.949C649.303 522.864 645.485 523.606 643.268 521.608Z" fill="#282a36" fill-rule="nonzero" opacity="1" stroke="none"/>
<path d="M629.07 458.972C658.121 454.053 647 538 643.117 560.592" fill="none" opacity="1" class="stroke-orange" stroke="#ffb86c" stroke-linecap="butt" stroke-linejoin="round" stroke-width="4.86072"/>
</g>
<g opacity="1">
<clipPath id="ClipPath_16">
<path d="M348.436 92.674L747.486 169.239L758.605 175.051L804.15 183.874L821.36 185.09L1295.17 278.987L1278.06 568.466L1056.33 556.77C1056.33 556.77 1008.64 553.814 871.312 553.684C826.421 553.641 773.185 552.511 720.415 552.027C702.838 551.866 674.541 552.728 657.684 553.582C591.792 556.921 508.549 550.329 508.549 550.329L490.706 558.811L431.983 559.71L406.943 555.579L324.718 588.159L348.436 92.674Z"/>
</clipPath>
<g clip-path="url(#ClipPath_16)">
<path d="M501.781 445.489C467.717 496.747 432.732 564.393 432.732 564.393L486.532 564.067C486.532 564.067 488.078 558.277 493.079 549.401C526.114 490.769 534.353 479.657 534.477 479.243" fill="none" opacity="1" class="stroke-orange" stroke="#ffb86c" stroke-linecap="butt" stroke-linejoin="round" stroke-width="4.86072"/>
</g>
</g>
</g>
</svg>
