<?xml version="1.0" encoding="UTF-8" standalone="no"?>
<!DOCTYPE svg PUBLIC "-//W3C//DTD SVG 1.1//EN" "http://www.w3.org/Graphics/SVG/1.1/DTD/svg11.dtd">
<!-- Created with Vectornator (http://vectornator.io/) -->
<svg stroke-miterlimit="10" style="fill-rule:nonzero;clip-rule:evenodd;stroke-linecap:round;stroke-linejoin:round;"
    version="1.1" viewBox="0 0 1000 820" xml:space="preserve" xmlns="http://www.w3.org/2000/svg"
    xmlns:vectornator="http://vectornator.io" xmlns:xlink="http://www.w3.org/1999/xlink">
    <defs>
        <filter color-interpolation-filters="sRGB" filterUnits="userSpaceOnUse" height="61.9108" id="Filter"
            width="79.5916" x="185.838" y="387.038">
            <feDropShadow dx="-3.59878" dy="6.2266" flood-color="#282a36" flood-opacity="0.9" in="SourceGraphic"
                result="Shadow" stdDeviation="4.25342" />
        </filter>
        <filter color-interpolation-filters="sRGB" filterUnits="userSpaceOnUse" height="61.9108" id="Filter_2"
            width="79.5916" x="195.335" y="371.372">
            <feDropShadow dx="5.89749" dy="-9.43925" flood-color="#282a36" flood-opacity="0.9" in="SourceGraphic"
                result="Shadow" stdDeviation="4.25342" />
        </filter>
        <filter color-interpolation-filters="sRGB" filterUnits="userSpaceOnUse" height="98.0419" id="Filter_3"
            width="57.1071" x="630.2" y="460.317">
            <feDropShadow dx="-3.27529" dy="8.88105" flood-color="#282a36" flood-opacity="0.9" in="SourceGraphic"
                result="Shadow" stdDeviation="4.59589" />
        </filter>
        <filter color-interpolation-filters="sRGB" filterUnits="userSpaceOnUse" height="87.2342" id="Filter_4"
            width="52.2039" x="639.734" y="450.022">
            <feDropShadow dx="4.76037" dy="-6.54846" flood-color="#282a36" flood-opacity="0.9" in="SourceGraphic"
                result="Shadow" stdDeviation="3.82534" />
        </filter>
        <filter color-interpolation-filters="sRGB" filterUnits="userSpaceOnUse" height="57.9252" id="Filter_5"
            width="48.3081" x="646.795" y="402.947">
            <feDropShadow dx="4.76037" dy="-6.54846" flood-color="#282a36" flood-opacity="0.9" in="SourceGraphic"
                result="Shadow" stdDeviation="3.82534" />
        </filter>
        <filter color-interpolation-filters="sRGB" filterUnits="userSpaceOnUse" height="69.3636" id="Filter_6"
            width="54.9495" x="639.615" y="410.301">
            <feDropShadow dx="-3.27529" dy="8.88105" flood-color="#282a36" flood-opacity="0.9" in="SourceGraphic"
                result="Shadow" stdDeviation="4.59589" />
        </filter>
        <filter color-interpolation-filters="sRGB" filterUnits="userSpaceOnUse" height="89.6778" id="Filter_7"
            width="85.5645" x="554.752" y="418.811">
            <feDropShadow dx="3.2987" dy="3.93792" flood-color="#282a36" flood-opacity="0.9" in="SourceGraphic"
                result="Shadow" stdDeviation="4.25342" />
        </filter>
        <filter color-interpolation-filters="sRGB" filterUnits="userSpaceOnUse" height="89.6778" id="Filter_8"
            width="85.5645" x="547.976" y="409.783">
            <feDropShadow dx="-3.47731" dy="-5.08998" flood-color="#282a36" flood-opacity="0.9" in="SourceGraphic"
                result="Shadow" stdDeviation="4.25342" />
        </filter>
    </defs>
    <clipPath id="ArtboardFrame_22">
        <rect height="820" width="1000" x="0" y="0" />
    </clipPath>
    <g clip-path="url(#ArtboardFrame_22)" id="Layer-1" vectornator:layerName="Layer 1" visibility="hidden">
        <path d="M-110.735-138.315L1054.77-138.315L1054.77 1059.06L-110.735 1059.06L-110.735-138.315Z" fill="#282a36"
            fill-rule="nonzero" opacity="1" stroke="none" />
    </g>
    <g clip-path="url(#ArtboardFrame_22)" id="Layer-2" vectornator:layerName="Layer 2">
        <g opacity="1">
            <clipPath id="ClipPath">
                <path
                    d="M-7.81504 683.16C-17.2898 624.236 35.3381 572.159 35.3381 572.159L43.6237 588.029L81.2461 571.775L75.9214 557.681L116.65 548.498L118.694 564.551L169.208 560.989L166.567 539.694C166.567 539.694 189.219 538.048 197.018 537.72C198.605 537.653 202.698 559.552 202.698 559.552L247.725 558.435C247.725 558.435 243.945 535.862 246.335 535.78C260.931 535.281 293.989 531.335 293.989 531.335L304.463 530.897L334.553 543.06L335.434 530.438C335.434 530.438 351.029 529.556 357.392 529.483C360.725 529.445 360.486 545.597 360.486 545.597L396.799 542.648C396.799 542.648 394.59 520.709 398.538 520.656C423.208 520.326 522.762 511.549 522.762 511.549C522.762 511.549 469.301 560.701 482.59 541.041C495.878 521.38 508.468 552.187 508.468 552.187L533.792 541.034L571.782 521.942C571.782 521.942 592.904 522.265 612.264 524.123C615.851 524.467 616.056 537.665 616.056 537.665L642.059 541.357L653.922 523.528L827.865 528.609L804.605 548.903L844.557 550.088L853.554 535.352L879.399 540.496L884.354 550.934L911.663 557.603C911.663 557.603 918.143 542.697 918.606 542.85C1016.33 575.255 1005.34 628.716 1005.34 683.16C1005.34 737.837 1022.73 775.453 924.284 807.856C893.362 818.034 150.136 832.844 73.237 807.856C-26.4626 775.459 1.6597 742.084-7.81504 683.16Z" />
            </clipPath>
            <g clip-path="url(#ClipPath)">
                <path
                    d="M0.44996 690.982C0.44996 638.186-10.4327 598.752 86.3331 567.571C141.427 549.818 544.684 552.727 769.143 559.454C851.522 561.923 909.818 564.906 917.98 567.571C1013.48 598.756 997.184 635.178 997.184 687.571C997.184 740.189 1014.18 776.388 917.98 807.571C887.763 817.366 161.479 831.618 86.3331 807.571C-11.0938 776.394 0.44996 743.987 0.44996 690.982Z"
                    class="fill-blue stroke-orange stroke-orange" fill="#8be9fd" fill-rule="nonzero" opacity="1"
                    stroke="#ffb86c" stroke-linecap="round" stroke-linejoin="round" stroke-width="4.86072" />
            </g>
        </g>
        <g opacity="1">
            <clipPath id="ClipPath_2">
                <path
                    d="M393.34 94.9217C388.024 53.0127 417.55 15.9738 417.55 15.9738L425.258 7.43573L431.067 9.6671L440.319 5.67648L463.169-0.854578L470.435-0.643364L478.377-4.03832L491.174-7.11691C491.174-7.11691 503.882-8.2875 508.258-8.52075C509.148-8.56823 519.603-8.50833 519.603-8.50833C519.603-8.50833 531.111 8.43841 530.587-8.44054C530.063-25.3195 534.585-9.84194 535.926-9.90015C544.115-10.2555 562.662-13.0617 562.662-13.0617L568.538-13.3734L585.42-4.72294L585.914-13.6995C585.914-13.6995 594.663-14.3271 598.233-14.3791C600.103-14.4063 599.969-2.91804 599.969-2.91804L620.341-5.01556C620.341-5.01556 619.102-20.6195 621.317-20.6571C635.158-20.892 691.011-27.1342 691.011-27.1342L678.398-7.88992L699.49-10.4697L718.513-19.7428C718.513-19.7428 730.363-19.5125 741.225-18.1914C743.237-17.9466 743.352-8.55949 743.352-8.55949L757.941-5.93362L764.596-18.6142L862.184-15.001C862.184-15.001 856.156 14.9998 852.186-0.345365C848.216-15.6905 868.786-0.551761 868.786-0.551761L876.596-10.2051L891.096-6.5462L891.566-1.02442L906.647 2.14326C906.647 2.14326 912.833-4.98087 913.092-4.87169C967.919 18.1757 961.751 56.1992 961.751 94.9217C961.751 133.81 963.337 171.469 908.105 194.516C890.757 201.754 482.386 206.29 439.243 188.517C383.308 165.476 398.655 136.831 393.34 94.9217Z" />
            </clipPath>
            <g clip-path="url(#ClipPath_2)">
                <path
                    d="M397.977 100.485C397.977 62.9345 391.871 34.8876 446.16 12.7107C477.07 0.0842123 703.31 2.1526 829.239 6.93724C875.456 8.69326 908.162 10.8151 912.741 12.7107C966.317 34.8903 957.177 60.7947 957.177 98.0591C957.177 135.483 966.714 161.229 912.741 183.408C895.788 190.374 488.319 200.511 446.16 183.408C391.5 161.233 397.977 138.184 397.977 100.485Z"
                    class="fill-red stroke-orange stroke-orange" fill="#ff5555" fill-rule="nonzero" opacity="1"
                    stroke="#ffb86c" stroke-linecap="round" stroke-linejoin="round" stroke-width="4.86072" />
            </g>
        </g>
    </g>
    <g id="Layer-7" vectornator:layerName="Layer 7">
        <g opacity="1">
            <clipPath id="ClipPath_3">
                <path
                    d="M323.318 323.12C303.944 304.696 161.993 315.627 179.836 296.863C197.679 278.099 85.1561 600.85 104.53 619.273C123.905 637.697 402.262 354.33 384.419 373.094C366.576 391.858 342.692 341.543 323.318 323.12Z" />
            </clipPath>
            <g clip-path="url(#ClipPath_3)">
                <path
                    d="M449.343 231.164C425.825 249.789 366.122 247.311 342.604 265.935L342.598 265.929C319.079 284.553 317.206 355.736 301.908 366.861C269.427 390.478 166.208 561.31 166.208 561.31C166.208 561.31 103.379 586.702 115.407 564.306C228.659 353.437 266.072 336.195 266.072 336.195C285.554 320.767 328.796 317.223 356.541 308.026C362.29 306.12 367.36 303.703 371.397 300.506L371.403 300.513C394.921 281.888 390.614 219.054 421.802 193.513C445.742 173.907 561.875 31.3968 657.362 34.365C756.42 37.4443 710.161 111.828 723.004 130.623C723.004 130.623 706.688 141.579 706.501 141.132C683.195 85.3939 746.421 78.898 657.106 73.3098C612.632 70.5273 462.326 226.229 448.345 231.283"
                    class="fill-blue" fill="#8be9fd" fill-rule="nonzero" opacity="1" stroke="none" />
            </g>
        </g>
        <g opacity="1">
            <clipPath id="ClipPath_4">
                <path
                    d="M323.318 323.12C303.944 304.696 306.755 269.717 324.598 250.953C332.745 242.387 287.499 208.818 326.481 174.587C372.884 133.838 445.577 172.543 443.605 175.312C441.634 178.081 567.11 192.741 548.135 226.868C515.654 285.288 406.022 305.826 394.759 317.671C376.916 336.435 342.692 341.543 323.318 323.12Z" />
            </clipPath>
            <g clip-path="url(#ClipPath_4)">
                <path
                    d="M426.319 162.817C402.801 181.442 366.122 247.311 342.604 265.935L341.721 269.436C312.932 299.918 326.46 341.631 294.778 364.713C274.571 379.434 367.244 433.623 367.244 433.623L339.68 462.61C339.68 462.61 209.774 359.778 265.613 330.08C299.124 312.257 328.796 317.223 356.541 308.026C362.29 306.12 367.36 303.703 371.397 300.506L371.403 300.513C394.921 281.888 450.107 207.214 481.291 173.351C538.871 110.825 593.546 40.7144 613.741 70.268L560.548 38.5675C560.548 38.5675 534.253 62.9916 492.196 78.1961"
                    class="fill-red" fill="#ff5555" fill-rule="nonzero" opacity="1" stroke="none" />
            </g>
        </g>
        <g opacity="1">
            <path d="M373.872 299.073C351.249 318.775 292.346 313.69 269.723 333.392" fill="none" opacity="1"
                class="stroke-orange stroke-orange" stroke="#ffb86c" stroke-linecap="round" stroke-linejoin="round"
                stroke-width="4.86072" />
            <path
                d="M313.986 323.098C311.266 319.974 312.437 314.502 316.602 310.875C320.767 307.248 326.348 306.839 329.069 309.963C331.789 313.087 330.618 318.559 326.453 322.186C322.288 325.813 316.706 326.222 313.986 323.098Z"
                fill="#282a36" fill-rule="nonzero" opacity="1" stroke="none" />
            <path d="M300.104 366.588C319.34 346.096 320.867 285.579 343.491 265.877" fill="none" opacity="1"
                class="stroke-orange stroke-orange" stroke="#ffb86c" stroke-linecap="round" stroke-linejoin="round"
                stroke-width="4.86072" />
            <path d="M373.878 299.079C396.502 279.377 438.532 229.803 469.428 187.656" fill="none" opacity="1"
                class="stroke-orange stroke-orange" stroke="#ffb86c" stroke-linecap="round" stroke-linejoin="round"
                stroke-width="4.86072" />
            <path d="M419.696 169.357C397.072 189.059 366.12 246.182 343.497 265.884" fill="none" opacity="1"
                class="stroke-orange stroke-orange" stroke="#ffb86c" stroke-linecap="round" stroke-linejoin="round"
                stroke-width="4.86072" />
        </g>
        <g opacity="1">
            <clipPath id="ClipPath_5">
                <path
                    d="M29.291 95.6366L428.341 172.202L439.46 178.014L485.006 186.836L502.216 188.053L976.023 281.95L958.916 571.429L737.184 559.732C737.184 559.732 689.493 556.777 552.168 556.646C507.276 556.604 454.04 555.473 401.27 554.99C383.693 554.829 355.397 555.691 338.539 556.545C272.647 559.883 189.405 553.291 189.405 553.291L171.561 561.773L117.467 564.703L87.7987 558.541L5.57316 591.122L29.291 95.6366Z" />
            </clipPath>
            <g clip-path="url(#ClipPath_5)">
                <path
                    d="M271.157 332.465C215.155 370.609 113.587 567.355 113.587 567.355L167.387 567.029C167.387 567.029 169.673 561.617 173.934 552.363C201.005 493.58 278.792 394.086 300.699 365.947"
                    fill="none" opacity="1" class="stroke-orange stroke-orange" stroke="#ffb86c" stroke-linecap="butt"
                    stroke-linejoin="round" stroke-width="4.86072" />
            </g>
        </g>
    </g>
    <g clip-path="url(#ArtboardFrame_22)" id="Layer-6" vectornator:layerName="Layer 6">
        <g opacity="1">
            <clipPath id="ClipPath_6">
                <path
                    d="M751.294 321.322C731.92 302.898 589.97 313.829 607.813 295.065C625.656 276.301 630.696 574.548 650.07 592.971C669.444 611.395 724.859 552.623 707.016 571.386C689.173 590.15 770.669 339.745 751.294 321.322Z" />
            </clipPath>
            <g clip-path="url(#ClipPath_6)">
                <path
                    d="M877.32 229.366C853.801 247.99 794.099 245.512 770.58 264.137L770.574 264.13C747.056 282.755 751.761 350.55 728.565 363.744C665.038 399.878 686.086 490.904 671.911 558.966C658.064 625.455 645.011 581.614 644.509 556.197C641.359 396.708 694.049 334.397 694.049 334.397C713.531 318.969 756.772 315.424 784.518 306.228C790.267 304.322 795.337 301.905 799.374 298.708L799.379 298.715C822.898 280.09 818.591 217.255 849.778 191.714C873.718 172.109 989.852 29.5986 1085.34 32.5668C1184.4 35.6461 1138.14 110.03 1150.98 128.825C1150.98 128.825 1134.66 139.78 1134.48 139.334C1111.17 83.5957 1174.4 77.0998 1085.08 71.5116C1040.61 68.729 890.302 224.431 876.321 229.485"
                    class="fill-blue" fill="#8be9fd" fill-rule="nonzero" opacity="1" stroke="none" />
            </g>
        </g>
        <g opacity="1">
            <clipPath id="ClipPath_7">
                <path
                    d="M751.294 321.322C731.92 302.898 734.732 267.919 752.575 249.155C760.721 240.588 715.476 207.02 754.457 172.788C800.86 132.04 873.553 170.744 871.582 173.514C869.611 176.283 995.087 190.942 976.111 225.07C943.63 283.49 833.999 304.028 822.735 315.873C804.892 334.636 770.669 339.745 751.294 321.322Z" />
            </clipPath>
            <g clip-path="url(#ClipPath_7)">
                <path
                    d="M854.296 161.019C830.777 179.643 794.099 245.512 770.58 264.137L769.698 267.638C740.908 298.12 754.437 339.833 722.754 362.915C702.548 377.636 795.22 431.825 795.22 431.825L767.656 460.812C767.656 460.812 637.75 357.979 693.59 328.282C727.101 310.459 756.772 315.424 784.518 306.228C790.267 304.322 795.337 301.905 799.374 298.708L799.379 298.715C822.898 280.09 878.084 205.415 909.268 171.553C966.848 109.026 1021.52 38.9162 1041.72 68.4698L988.524 36.7693C988.524 36.7693 962.23 61.1934 920.172 76.3978"
                    class="fill-red" fill="#ff5555" fill-rule="nonzero" opacity="1" stroke="none" />
            </g>
        </g>
        <g opacity="1">
            <path d="M801.849 297.275C779.225 316.977 720.323 311.892 697.699 331.594" fill="none" opacity="1"
                class="stroke-orange stroke-orange" stroke="#ffb86c" stroke-linecap="round" stroke-linejoin="round"
                stroke-width="4.86072" />
            <path
                d="M741.962 321.3C739.242 318.176 740.413 312.703 744.578 309.076C748.743 305.449 754.325 305.041 757.045 308.165C759.765 311.289 758.594 316.761 754.429 320.388C750.264 324.015 744.683 324.423 741.962 321.3Z"
                fill="#282a36" fill-rule="nonzero" opacity="1" stroke="none" />
            <path d="M727.49 364.724C749.748 354.209 748.844 283.781 771.467 264.079" fill="none" opacity="1"
                class="stroke-orange stroke-orange" stroke="#ffb86c" stroke-linecap="round" stroke-linejoin="round"
                stroke-width="4.86072" />
            <path d="M801.855 297.281C824.479 277.579 866.509 228.004 897.405 185.858" fill="none" opacity="1"
                class="stroke-orange stroke-orange" stroke="#ffb86c" stroke-linecap="round" stroke-linejoin="round"
                stroke-width="4.86072" />
            <path d="M829.481 188.406C806.857 208.108 794.097 244.383 771.473 264.085" fill="none" opacity="1"
                class="stroke-orange stroke-orange" stroke="#ffb86c" stroke-linecap="round" stroke-linejoin="round"
                stroke-width="4.86072" />
        </g>
        <g opacity="1">
            <clipPath id="ClipPath_8">
                <path
                    d="M457.267 93.8384L856.318 170.404L867.437 176.216L912.982 185.038L930.192 186.255L1404 280.152L1386.89 569.63L1165.16 557.934C1165.16 557.934 1117.47 554.979 980.144 554.848C935.252 554.805 882.017 553.675 829.246 553.192C811.669 553.031 783.373 553.893 766.516 554.747C741.611 556.008 692.423 558.846 674.535 559.581C670.294 559.756 667.938 559.059 667.938 559.059L668.891 553.732C668.891 553.732 652.357 555.309 647.345 554.585C646.062 554.4 646.648 559.209 645.387 559.043C631.44 557.201 617.381 551.493 617.381 551.493L601.571 558.007L546.469 557.515L515.775 556.743L433.55 589.324L457.267 93.8384Z" />
            </clipPath>
            <g clip-path="url(#ClipPath_8)">
                <path
                    d="M699.133 330.666C646.905 366.241 644.272 535.244 644.117 558.116C644.106 559.768 668.329 567.852 670.638 557.929C684.89 496.675 668.254 386.22 728.676 364.149"
                    fill="none" opacity="1" class="stroke-orange stroke-orange" stroke="#ffb86c" stroke-linecap="butt"
                    stroke-linejoin="round" stroke-width="4.86072" />
            </g>
        </g>
    </g>
    <g clip-path="url(#ArtboardFrame_22)" id="Layer-5" vectornator:layerName="Layer 5">
        <g opacity="1">
            <path
                d="M222.466 405.731C227.097 397.843 249.359 391.503 252.964 401.498C256.57 411.492 240.126 421.432 236.238 424.672C233.793 426.71 211.559 430.535 206.125 420.96C201.441 412.705 212.092 423.403 222.466 405.731Z"
                class="fill-blue stroke-orange stroke-orange" fill="#8be9fd" fill-rule="nonzero" filter="url(#Filter)"
                stroke="#ffb86c" stroke-linecap="butt" stroke-linejoin="round" stroke-width="9.83584"
                vectornator:shadowAngle="2.09486" vectornator:shadowColor="#282a36" vectornator:shadowOffset="7.19178"
                vectornator:shadowOpacity="0.9" vectornator:shadowRadius="8.50685" />
            <path
                d="M222.466 405.731C227.097 397.843 249.359 391.503 252.964 401.498C256.57 411.492 240.126 421.432 236.238 424.672C233.793 426.71 211.559 430.535 206.125 420.96C201.441 412.705 212.092 423.403 222.466 405.731Z"
                class="fill-blue stroke-orange stroke-orange" fill="#8be9fd" fill-rule="nonzero" filter="url(#Filter_2)"
                stroke="#ffb86c" stroke-linecap="butt" stroke-linejoin="round" stroke-width="9.83584"
                vectornator:shadowAngle="-1.01235" vectornator:shadowColor="#282a36" vectornator:shadowOffset="11.1301"
                vectornator:shadowOpacity="0.9" vectornator:shadowRadius="8.50685" />
            <path
                d="M225.329 431.843C192.503 427.19 167.091 406.872 137.381 411.031L137.379 411.022C107.669 415.18 93.3526 455.317 46.1367 472.013C24.9977 479.489 82.2405 571.156 82.2405 571.156L45.7151 591.732C45.7151 591.732-24.6761 424.732 38.5138 427.383C76.436 428.974 38.717 427.324 38.717 427.324C63.3279 423.88 99.5127 448.274 128.097 454.386C134.019 455.652 139.616 456.134 144.715 455.42L144.717 455.429C174.427 451.27 198.655 394.275 238.48 388.033C322.455 374.871 238.033 533.166 248.334 560.305C248.334 560.305 185.613 591.512 199.619 562.017C260.036 434.786 249.662 435.292 225.329 431.843Z"
                class="fill-blue" fill="#8be9fd" fill-rule="nonzero" opacity="1" stroke="none" />
            <clipPath id="ClipPath_9">
                <path
                    d="M94.0214 452.783C86.6374 427.087 104.55 396.147 129.436 388.996C154.322 381.844 180.482 396.878 187.866 422.573C195.25 448.269 181.062 474.897 156.176 482.048C131.29 489.199 101.405 478.478 94.0214 452.783Z" />
            </clipPath>
            <g clip-path="url(#ClipPath_9)">
                <path
                    d="M243.379 439.126C213.669 443.285 167.091 406.872 137.381 411.031L137.379 411.022C95.9947 419.087 91.9336 458.278 46.1367 472.013C22.1905 479.195 73.7555 568.124 73.7555 568.124L35.3113 579.171C35.3113 579.171-24.6761 424.732 38.5138 427.383C76.436 428.974 38.717 427.324 38.717 427.324C63.3279 423.88 99.5127 448.274 128.097 454.386C134.019 455.652 139.616 456.134 144.715 455.42L144.717 455.429C174.427 451.27 196.61 400.921 236.435 394.679C320.41 381.517 310.846 467.485 313.304 503.195L273.936 513.101C273.936 513.101 287.942 447.423 243.974 439.249"
                    class="fill-red" fill="#ff5555" fill-rule="nonzero" opacity="1" stroke="none" />
                <path d="M223.096 391.773L194.758 428.713L237.77 432.762L266.867 394.81L223.096 391.773Z" fill="none"
                    opacity="1" class="stroke-orange stroke-orange" stroke="#ffb86c" stroke-linecap="butt"
                    stroke-linejoin="round" stroke-width="4.86072" />
            </g>
        </g>
        <g opacity="1">
            <path d="M144.257 453.079C114.67 458.039 67.1249 422.899 37.5378 427.859" fill="none" opacity="1"
                class="stroke-orange stroke-orange" stroke="#ffb86c" stroke-linecap="round" stroke-linejoin="round"
                stroke-width="4.86072" />
            <path
                d="M80.6487 442.235C79.9638 438.15 83.8241 434.098 89.271 433.185C94.7178 432.272 99.6885 434.843 100.373 438.928C101.058 443.014 97.1979 447.066 91.7511 447.979C86.3043 448.892 81.3336 446.32 80.6487 442.235Z"
                fill="#282a36" fill-rule="nonzero" opacity="1" stroke="none" />
            <path d="M46.0715 472.043C75.6586 467.083 106.136 413.856 135.723 408.896" fill="none" opacity="1"
                class="stroke-orange stroke-orange" stroke="#ffb86c" stroke-linecap="round" stroke-linejoin="round"
                stroke-width="4.86072" />
            <path d="M233.242 432.59C203.654 437.55 165.312 403.944 135.725 408.904" fill="none" opacity="1"
                class="stroke-orange stroke-orange" stroke="#ffb86c" stroke-linecap="round" stroke-linejoin="round"
                stroke-width="4.86072" />
            <path
                d="M178.836 423.28C178.151 419.195 182.011 415.143 187.458 414.23C192.905 413.317 197.876 415.888 198.56 419.973C199.245 424.058 195.385 428.11 189.938 429.023C184.491 429.937 179.521 427.365 178.836 423.28Z"
                fill="#282a36" fill-rule="nonzero" opacity="1" stroke="none" />
            <path d="M144.259 453.088C173.846 448.127 204.323 394.901 233.91 389.94" fill="none" opacity="1"
                class="stroke-orange stroke-orange" stroke="#ffb86c" stroke-linecap="round" stroke-linejoin="round"
                stroke-width="4.86072" />
            <clipPath id="ClipPath_10">
                <path
                    d="M-640.105 498.14L355.646 265.075L250.207 558.307L245.683 558.582L245.417 547.755L208.944 544.175L201.855 560.075L194.949 559.934L144.659 534.655C144.659 534.655 85.2504 570.334 81.2402 571.72C69.5537 575.758 43.3468 577.093 43.3468 577.093L46.7135 585.907L40.0785 590.44L-379.141 700.085L-474.414 735.782L-542.957 791.679L-640.105 498.14Z" />
            </clipPath>
            <g clip-path="url(#ClipPath_10)">
                <path
                    d="M37.3362 427.923C-25.9023 426.982 44.7322 587.556 44.7322 587.556L84.0054 573.72C84.0054 573.72 21.6977 477.474 46.163 472.331"
                    fill="none" opacity="1" class="stroke-orange stroke-orange" stroke="#ffb86c" stroke-linecap="butt"
                    stroke-linejoin="round" stroke-width="4.86072" />
                <path
                    d="M233.313 432.454C269.144 431.497 199.417 559.068 199.417 559.068L248.12 557.034C244.697 521.404 318.849 373.815 235.261 389.243"
                    fill="none" opacity="1" class="stroke-orange stroke-orange" stroke="#ffb86c" stroke-linecap="round"
                    stroke-linejoin="round" stroke-width="4.86072" />
            </g>
        </g>
    </g>
    <g clip-path="url(#ArtboardFrame_22)" id="Layer-3" vectornator:layerName="Layer 3">
        <g opacity="1">
            <path d="M654.702 466.792L648.831 513.682L674.034 534.122L675.226 480.791L654.702 466.792Z"
                class="fill-blue stroke-orange stroke-orange" fill="#8be9fd" fill-rule="nonzero" filter="url(#Filter_3)"
                stroke="#ffb86c" stroke-linecap="butt" stroke-linejoin="round" stroke-width="7.73265"
                vectornator:shadowAngle="1.92412" vectornator:shadowColor="#282a36" vectornator:shadowOffset="9.46575"
                vectornator:shadowOpacity="0.9" vectornator:shadowRadius="9.19178" />
            <path
                d="M654.956 468.564L646.968 514.859L673.446 531.811C673.446 531.811 676.765 479.912 674.23 482.905C671.696 485.899 666.422 478.582 666.422 478.582L654.956 468.564Z"
                class="fill-blue stroke-orange stroke-orange" fill="#8be9fd" fill-rule="nonzero" filter="url(#Filter_4)"
                stroke="#ffb86c" stroke-linecap="butt" stroke-linejoin="round" stroke-width="4.86072"
                vectornator:shadowAngle="-0.942214" vectornator:shadowColor="#282a36" vectornator:shadowOffset="8.09589"
                vectornator:shadowOpacity="0.9" vectornator:shadowRadius="7.65068" />
            <path
                d="M551.039 445.272C521.335 441.063 486.626 393.203 456.923 388.994L456.924 388.985C427.221 384.777 402.376 419.398 352.385 422.404C330.004 423.751 318.456 459.534 319.665 559.3C319.698 562.066 282.032 557.953 281.942 556.927C271.274 435.807 285.456 377.443 357.385 377.404C395.341 377.384 357.597 377.404 357.597 377.404C382.202 380.891 410.242 414.33 436.026 428.099C441.368 430.952 446.614 432.96 451.712 433.683L451.711 433.691C481.415 437.9 534.439 389.158 556.641 400.636C673.337 460.967 737.836 526.655 733.136 561.507L697.47 562.111C697.47 562.111 591.577 465.555 551.577 445.555"
                class="fill-blue" fill="#8be9fd" fill-rule="nonzero" opacity="1" stroke="none" />
            <clipPath id="ClipPath_11">
                <path
                    d="M408.489 414.031C408.489 387.296 429.479 365.622 455.373 365.622C481.266 365.622 502.256 387.296 502.256 414.031C502.256 440.767 481.266 462.44 455.373 462.44C429.479 462.44 408.489 440.767 408.489 414.031Z" />
            </clipPath>
            <g clip-path="url(#ClipPath_11)">
                <path
                    d="M551.039 445.272C521.335 441.063 486.626 393.203 456.923 388.994L456.924 388.985C414.922 385.307 400.194 421.852 352.385 422.404C327.387 422.693 352.385 522.404 352.385 522.404L312.385 522.404C312.385 522.404 297.385 357.404 357.385 377.404C393.393 389.407 357.597 377.404 357.597 377.404C382.202 380.891 410.242 414.33 436.026 428.099C441.368 430.952 446.614 432.96 451.712 433.683L451.711 433.691C481.415 437.9 516.641 395.636 556.641 400.636C640.985 411.179 608.049 491.161 600.549 526.161L559.976 524.81C559.976 524.81 591.577 465.555 551.577 445.555"
                    class="fill-red" fill="#ff5555" fill-rule="nonzero" opacity="1" stroke="none" />
            </g>
        </g>
        <g opacity="1">
            <path d="M350.048 422.938C379.751 427.147 424.883 385.613 454.586 389.822" fill="none" opacity="1"
                class="stroke-orange stroke-orange" stroke="#ffb86c" stroke-linecap="round" stroke-linejoin="round"
                stroke-width="4.86072" />
            <path
                d="M392.014 404.968C392.595 400.867 397.499 398.17 402.967 398.945C408.435 399.72 412.397 403.673 411.816 407.774C411.235 411.875 406.331 414.571 400.863 413.797C395.394 413.022 391.433 409.069 392.014 404.968Z"
                fill="#282a36" fill-rule="nonzero" opacity="1" stroke="none" />
            <path d="M449.375 434.519C419.672 430.31 384.963 382.45 355.259 378.241" fill="none" opacity="1"
                class="stroke-orange stroke-orange" stroke="#ffb86c" stroke-linecap="round" stroke-linejoin="round"
                stroke-width="4.86072" />
            <path d="M449.374 434.528C479.077 438.737 524.209 397.203 553.913 401.412" fill="none" opacity="1"
                class="stroke-orange stroke-orange" stroke="#ffb86c" stroke-linecap="round" stroke-linejoin="round"
                stroke-width="4.86072" />
            <path
                d="M491.34 416.558C491.921 412.456 496.825 409.76 502.293 410.535C507.761 411.309 511.723 415.262 511.142 419.363C510.561 423.465 505.657 426.161 500.189 425.386C494.721 424.611 490.759 420.659 491.34 416.558Z"
                fill="#282a36" fill-rule="nonzero" opacity="1" stroke="none" />
            <path d="M548.701 446.109C518.998 441.9 484.289 394.039 454.585 389.831" fill="none" opacity="1"
                class="stroke-orange stroke-orange" stroke="#ffb86c" stroke-linecap="round" stroke-linejoin="round"
                stroke-width="4.86072" />
            <clipPath id="ClipPath_12">
                <path
                    d="M-311.958 240.542L662.432 240.542L739.667 561.184L730.35 561.652L731.308 554.333L694.821 553.723L698.529 560.061L322.571 539.406L322.302 553.685C322.302 553.685 281.62 552.621 235.355 552.577C98.029 552.446-124.186 511.884-124.186 511.884L-225.792 517.134L-308.017 549.714L-311.958 240.542Z" />
            </clipPath>
            <g clip-path="url(#ClipPath_12)">
                <path
                    d="M355.048 378.241C251.387 362.565 282.874 556.067 282.874 556.067L320.006 555.887C320.006 555.887 313.274 424.625 350.048 423.241"
                    fill="none" opacity="1" class="stroke-orange stroke-orange" stroke="#ffb86c" stroke-linecap="butt"
                    stroke-linejoin="round" stroke-width="4.86072" />
                <path
                    d="M549.239 446.391C589.239 466.391 694.829 558.156 694.829 558.156L733.431 558.731C740.931 523.731 640.609 440.388 554.303 401.472"
                    fill="none" opacity="1" class="stroke-orange stroke-orange" stroke="#ffb86c" stroke-linecap="round"
                    stroke-linejoin="round" stroke-width="4.86072" />
            </g>
        </g>
        <g opacity="1">
            <path d="M656.721 421.489L654.029 455.427L678.349 448.973L676.033 429.154L656.721 421.489Z"
                class="fill-blue stroke-orange stroke-orange" fill="#8be9fd" fill-rule="nonzero" filter="url(#Filter_5)"
                stroke="#ffb86c" stroke-linecap="butt" stroke-linejoin="round" stroke-width="4.86072"
                vectornator:shadowAngle="-0.942214" vectornator:shadowColor="#282a36" vectornator:shadowOffset="8.09589"
                vectornator:shadowOpacity="0.9" vectornator:shadowRadius="7.65068" />
            <path d="M660.194 416.776L658.246 455.427L678.349 450.957L682.484 429.402L660.194 416.776Z"
                class="fill-blue stroke-orange stroke-orange" fill="#8be9fd" fill-rule="nonzero" filter="url(#Filter_6)"
                stroke="#ffb86c" stroke-linecap="butt" stroke-linejoin="round" stroke-width="7.73265"
                vectornator:shadowAngle="1.92412" vectornator:shadowColor="#282a36" vectornator:shadowOffset="9.46575"
                vectornator:shadowOpacity="0.9" vectornator:shadowRadius="9.19178" />
            <path d="M604.416 427.937L564.517 454.262L584.261 491.487L623.954 463.928L604.416 427.937Z"
                class="fill-red stroke-orange stroke-orange" fill="#ff5555" fill-rule="nonzero" filter="url(#Filter_7)"
                stroke="#ffb86c" stroke-linecap="butt" stroke-linejoin="round" stroke-width="4.86072"
                vectornator:shadowAngle="0.8735" vectornator:shadowColor="#282a36" vectornator:shadowOffset="5.13699"
                vectornator:shadowOpacity="0.9" vectornator:shadowRadius="8.50685" />
            <path d="M604.416 427.937L564.517 454.262L584.261 491.487L623.954 463.928L604.416 427.937Z"
                class="fill-red stroke-orange stroke-orange" fill="#ff5555" fill-rule="nonzero" filter="url(#Filter_8)"
                stroke="#ffb86c" stroke-linecap="butt" stroke-linejoin="round" stroke-width="4.86072"
                vectornator:shadowAngle="4.11305" vectornator:shadowColor="#282a36" vectornator:shadowOffset="6.16438"
                vectornator:shadowOpacity="0.9" vectornator:shadowRadius="8.50685" />
            <path
                d="M846.599 481.781C816.895 477.572 782.186 429.712 752.483 425.503L752.484 425.494C722.781 421.285 697.936 455.906 647.945 458.913C625.564 460.259 534.391 534.518 515.824 549.82C513.689 551.58 501.42 560.391 501.42 560.391L460.803 561.627C460.803 561.627 592.945 393.913 652.945 413.913C688.953 425.916 653.157 413.913 653.157 413.913C677.762 417.4 705.802 450.839 731.586 464.608C736.928 467.461 742.174 469.469 747.272 470.191L747.271 470.2C776.975 474.409 812.201 432.145 852.201 437.145C936.544 447.688 898.806 541.435 891.306 576.435L850.411 568.044C850.411 568.044 887.137 502.063 847.137 482.063"
                class="fill-blue" fill="#8be9fd" fill-rule="nonzero" opacity="1" stroke="none" />
            <clipPath id="ClipPath_13">
                <path
                    d="M704.049 450.54C704.049 423.804 725.039 402.131 750.932 402.131C776.826 402.131 797.816 423.804 797.816 450.54C797.816 477.275 776.826 498.949 750.932 498.949C725.039 498.949 704.049 477.275 704.049 450.54Z" />
            </clipPath>
            <g clip-path="url(#ClipPath_13)">
                <path
                    d="M846.599 481.781C816.895 477.572 782.186 429.712 752.483 425.503L752.484 425.494C710.482 421.815 695.754 458.361 647.945 458.913C622.947 459.202 647.945 558.913 647.945 558.913L607.945 558.913C607.945 558.913 592.945 393.913 652.945 413.913C688.953 425.916 653.157 413.913 653.157 413.913C677.762 417.4 705.802 450.839 731.586 464.608C736.928 467.461 742.174 469.469 747.272 470.191L747.271 470.2C776.975 474.409 812.201 432.145 852.201 437.145C936.544 447.688 903.609 527.67 896.109 562.67L855.536 561.318C855.536 561.318 887.137 502.063 847.137 482.063"
                    class="fill-red" fill="#ff5555" fill-rule="nonzero" opacity="1" stroke="none" />
            </g>
        </g>
        <g opacity="1">
            <path d="M647.945 458.61C677.649 462.819 722.781 421.285 752.484 425.494" fill="none" opacity="1"
                class="stroke-orange stroke-orange" stroke="#ffb86c" stroke-linecap="round" stroke-linejoin="round"
                stroke-width="4.86072" />
            <path
                d="M689.911 440.64C690.492 436.539 695.396 433.842 700.864 434.617C706.333 435.392 710.294 439.345 709.713 443.446C709.132 447.547 704.228 450.244 698.76 449.469C693.292 448.694 689.33 444.741 689.911 440.64Z"
                fill="#282a36" fill-rule="nonzero" opacity="1" stroke="none" />
            <path d="M747.272 470.191C717.569 465.982 682.86 418.122 653.157 413.913" fill="none" opacity="1"
                class="stroke-orange stroke-orange" stroke="#ffb86c" stroke-linecap="round" stroke-linejoin="round"
                stroke-width="4.86072" />
            <path d="M747.271 470.2C776.975 474.409 822.107 432.875 851.81 437.084" fill="none" opacity="1"
                class="stroke-orange stroke-orange" stroke="#ffb86c" stroke-linecap="round" stroke-linejoin="round"
                stroke-width="4.86072" />
            <path
                d="M789.237 452.23C789.818 448.129 794.722 445.432 800.191 446.207C805.659 446.982 809.621 450.934 809.039 455.036C808.458 459.137 803.554 461.833 798.086 461.058C792.618 460.284 788.656 456.331 789.237 452.23Z"
                fill="#282a36" fill-rule="nonzero" opacity="1" stroke="none" />
            <path d="M846.599 481.781C816.895 477.572 782.186 429.712 752.483 425.503" fill="none" opacity="1"
                class="stroke-orange stroke-orange" stroke="#ffb86c" stroke-linecap="round" stroke-linejoin="round"
                stroke-width="4.86072" />
            <clipPath id="ClipPath_14">
                <path
                    d="M-14.0606 276.215L960.33 276.215L943.223 565.693L892.536 567.605L893.876 560.714L858.257 556.316L854.326 565.456L723.014 548.078C723.014 548.078 686.019 547.621 606.405 549.755C590.848 550.173 527.795 557.169 527.795 557.169L504.057 556.877L513.164 548.211L473.108 548.446L466.476 557.137C466.476 557.137 173.712 547.556 173.712 547.556L72.1056 552.806L-10.1199 585.387L-14.0606 276.215Z" />
            </clipPath>
            <g clip-path="url(#ClipPath_14)">
                <path
                    d="M652.945 413.913C592.945 393.913 464.405 555.448 464.405 555.448L509.268 555.037C509.268 555.037 623.069 456.426 647.945 458.913"
                    fill="none" opacity="1" class="stroke-orange stroke-orange" stroke="#ffb86c" stroke-linecap="butt"
                    stroke-linejoin="round" stroke-width="4.86072" />
                <path
                    d="M847.137 482.063C887.137 502.063 850.481 567.421 850.481 567.421L894.917 568.105C902.417 533.105 936.544 447.688 852.201 437.145"
                    fill="none" opacity="1" class="stroke-orange stroke-orange" stroke="#ffb86c" stroke-linecap="round"
                    stroke-linejoin="round" stroke-width="4.86072" />
            </g>
        </g>
    </g>
</svg>