<?xml version="1.0" encoding="UTF-8" standalone="no"?>
<!DOCTYPE svg PUBLIC "-//W3C//DTD SVG 1.1//EN" "http://www.w3.org/Graphics/SVG/1.1/DTD/svg11.dtd">
<!-- Created with Vectornator (http://vectornator.io/) -->
<svg   stroke-miterlimit="10" style="fill-rule:nonzero;clip-rule:evenodd;stroke-linecap:round;stroke-linejoin:round;" version="1.1" viewBox="0 0 1000 820"   xml:space="preserve" xmlns="http://www.w3.org/2000/svg" xmlns:vectornator="http://vectornator.io" xmlns:xlink="http://www.w3.org/1999/xlink">
<defs>
<filter color-interpolation-filters="sRGB" filterUnits="userSpaceOnUse" height="61.9108" id="Filter" width="79.5916" x="186.957" y="388.485">
<feDropShadow dx="-3.59878" dy="6.2266" flood-color="#282a36" flood-opacity="0.9" in="SourceGraphic" result="Shadow" stdDeviation="4.25342"/>
</filter>
<filter color-interpolation-filters="sRGB" filterUnits="userSpaceOnUse" height="61.9108" id="Filter_2" width="79.5916" x="196.453" y="372.82">
<feDropShadow dx="5.89749" dy="-9.43925" flood-color="#282a36" flood-opacity="0.9" in="SourceGraphic" result="Shadow" stdDeviation="4.25342"/>
</filter>
</defs>
<clipPath id="ArtboardFrame_18">
<rect height="820" width="1000" x="0" y="0"/>
</clipPath>
<g clip-path="url(#ArtboardFrame_18)" id="Layer-1" vectornator:layerName="Layer 1" visibility="hidden">
<path d="M-110.735-138.315L1054.77-138.315L1054.77 1059.06L-110.735 1059.06L-110.735-138.315Z" fill="#282a36" fill-rule="nonzero" opacity="1" stroke="none"/>
</g>
<g clip-path="url(#ArtboardFrame_18)" id="Layer-2" vectornator:layerName="Layer 2">
<g opacity="1">
<clipPath id="ClipPath">
<path d="M-6.69646 684.607C-16.1712 625.683 36.4566 573.606 36.4566 573.606L44.7422 589.476L82.3647 573.223L77.0399 559.128L117.769 549.946L119.813 565.998L170.327 562.436L167.686 541.141C167.686 541.141 190.338 539.495 198.136 539.167C199.724 539.1 203.816 560.999 203.816 560.999L248.844 559.883C248.844 559.883 245.063 537.309 247.454 537.228C262.049 536.728 295.108 532.782 295.108 532.782L305.581 532.344L335.672 544.507L336.552 531.886C336.552 531.886 352.148 531.003 358.511 530.93C361.844 530.892 361.605 547.044 361.605 547.044L397.917 544.095C397.917 544.095 395.709 522.156 399.657 522.103C424.327 521.773 523.881 512.996 523.881 512.996C523.881 512.996 470.419 562.149 483.708 542.488C496.997 522.828 511.762 540.582 511.762 540.582L534.911 542.481L572.901 523.389C572.901 523.389 594.023 523.713 613.383 525.57C616.969 525.914 617.175 539.113 617.175 539.113L643.178 542.805L655.041 524.976L828.984 530.056L805.724 550.35L845.676 551.536L854.673 536.799L880.518 541.943L885.473 552.381L912.781 559.05C912.781 559.05 919.262 544.144 919.724 544.298C1017.45 576.702 1006.45 630.163 1006.45 684.607C1006.45 739.284 1023.85 776.9 925.402 809.303C894.481 819.481 151.255 834.291 74.3556 809.303C-25.344 776.906 2.77828 743.532-6.69646 684.607Z"/>
</clipPath>
<g clip-path="url(#ClipPath)">
<path d="M1.56854 692.43C1.56854 639.633-9.31415 600.199 87.4517 569.019C142.546 551.266 545.802 554.174 770.262 560.901C852.641 563.37 910.937 566.353 919.098 569.019C1014.59 600.203 998.303 636.625 998.303 689.019C998.303 741.637 1015.3 777.836 919.098 809.019C888.881 818.813 162.598 833.066 87.4517 809.019C-9.9752 777.842 1.56854 745.435 1.56854 692.43Z" fill="#8be9fd" fill-rule="nonzero" opacity="1" stroke="#ffb86c" stroke-linecap="round" stroke-linejoin="round" stroke-width="4.86072"/>
</g>
</g>
<g opacity="1">
<clipPath id="ClipPath_2">
<path d="M394.458 96.369C389.143 54.4599 418.669 17.421 418.669 17.421L426.377 8.88295L432.186 11.1143L441.437 7.1237L464.287 0.592644L471.554 0.803858L479.496-2.5911L492.292-5.66969C492.292-5.66969 505.001-6.84028 509.376-7.07352C510.267-7.121 520.722-7.06111 520.722-7.06111C520.722-7.06111 532.229 9.88563 531.705-6.99332C531.181-23.8723 535.704-8.39472 537.045-8.45292C545.234-8.80831 563.78-11.6145 563.78-11.6145L569.656-11.9262L586.538-3.27572L587.032-12.2523C587.032-12.2523 595.782-12.8799 599.352-12.9318C601.221-12.959 601.087-1.47081 601.087-1.47081L621.46-3.56834C621.46-3.56834 620.221-19.1723 622.436-19.2099C636.276-19.4448 692.13-25.687 692.13-25.687L679.516-6.44269L700.608-9.02251L719.632-18.2956C719.632-18.2956 731.482-18.0653 742.343-16.7441C744.355-16.4994 744.471-7.11227 744.471-7.11227L759.059-4.4864L765.715-17.167L863.302-13.5537C863.302-13.5537 857.275 16.447 853.304 1.10186C849.334-14.2433 869.904 0.895461 869.904 0.895461L877.715-8.75789L892.215-5.09898L892.684 0.422797L907.766 3.59048C907.766 3.59048 913.951-3.53365 914.211-3.42447C969.037 19.6229 962.87 57.6464 962.87 96.369C962.87 135.257 964.456 172.917 909.224 195.963C891.876 203.202 483.504 207.737 440.361 189.965C384.427 166.923 399.774 138.278 394.458 96.369Z"/>
</clipPath>
<g clip-path="url(#ClipPath_2)">
<path d="M399.095 101.932C399.095 64.3817 392.99 36.3348 447.279 14.158C478.188 1.53143 704.428 3.59983 830.358 8.38446C876.575 10.1405 909.281 12.2624 913.86 14.158C967.436 36.3375 958.296 62.242 958.296 99.5063C958.296 136.93 967.832 162.676 913.86 184.855C896.907 191.821 489.438 201.958 447.279 184.855C392.619 162.681 399.095 139.632 399.095 101.932Z" fill="#ff5555" fill-rule="nonzero" opacity="1" stroke="#ffb86c" stroke-linecap="round" stroke-linejoin="round" stroke-width="4.86072"/>
</g>
</g>
</g>
<g id="Layer-7" vectornator:layerName="Layer 7">
<g opacity="1">
<clipPath id="ClipPath_3">
<path d="M324.437 324.567C305.062 306.143 163.112 317.074 180.955 298.31C198.798 279.547 86.2747 602.297 105.649 620.721C125.023 639.144 403.38 355.777 385.537 374.541C367.694 393.305 343.811 342.991 324.437 324.567Z"/>
</clipPath>
<g clip-path="url(#ClipPath_3)">
<path d="M450.462 232.611C426.943 251.236 367.241 248.758 343.722 267.382L343.717 267.376C320.198 286 318.325 357.183 303.026 368.308C270.546 391.926 167.326 562.757 167.326 562.757C167.326 562.757 104.497 588.149 116.525 565.753C229.778 354.884 267.191 337.642 267.191 337.642C286.673 322.214 329.914 318.67 357.66 309.473C363.409 307.567 368.479 305.15 372.516 301.953L372.521 301.96C396.04 283.335 391.733 220.501 422.92 194.96C446.86 175.354 562.994 32.844 658.481 35.8123C757.538 38.8915 711.28 113.275 724.123 132.07C724.123 132.07 707.807 143.026 707.62 142.579C684.314 86.8412 747.54 80.3453 658.224 74.7571C613.75 71.9745 463.444 227.676 449.464 232.731" fill="#8be9fd" fill-rule="nonzero" opacity="1" stroke="none"/>
</g>
</g>
<g opacity="1">
<clipPath id="ClipPath_4">
<path d="M324.437 324.567C305.062 306.143 307.874 271.164 325.717 252.4C333.863 243.834 288.618 210.265 327.599 176.034C374.002 135.286 446.695 173.99 444.724 176.759C442.753 179.528 568.229 194.188 549.254 228.316C516.772 286.735 407.141 307.274 395.878 319.118C378.035 337.882 343.811 342.991 324.437 324.567Z"/>
</clipPath>
<g clip-path="url(#ClipPath_4)">
<path d="M427.438 164.264C403.919 182.889 367.241 248.758 343.722 267.382L342.84 270.883C314.05 301.365 327.579 343.078 295.896 366.16C275.69 380.881 368.363 435.07 368.363 435.07L340.798 464.057C340.798 464.057 210.892 361.225 266.732 331.527C300.243 313.705 329.914 318.67 357.66 309.473C363.409 307.567 368.479 305.15 372.516 301.953L372.521 301.96C396.04 283.335 451.226 208.661 482.41 174.798C539.99 112.272 594.665 42.1616 614.86 71.7152L561.666 40.0147C561.666 40.0147 535.372 64.4388 493.315 79.6433" fill="#ff5555" fill-rule="nonzero" opacity="1" stroke="none"/>
</g>
</g>
<g opacity="1">
<path d="M374.991 300.52C352.367 320.222 293.465 315.137 270.841 334.839" fill="none" opacity="1" stroke="#ffb86c" stroke-linecap="round" stroke-linejoin="round" stroke-width="4.86072"/>
<path d="M315.105 324.545C312.384 321.421 313.555 315.949 317.72 312.322C321.885 308.695 327.467 308.287 330.187 311.41C332.907 314.534 331.736 320.007 327.571 323.634C323.406 327.261 317.825 327.669 315.105 324.545Z" fill="#282a36" fill-rule="nonzero" opacity="1" stroke="none"/>
<path d="M301.223 368.035C320.458 347.543 321.986 287.026 344.609 267.324" fill="none" opacity="1" stroke="#ffb86c" stroke-linecap="round" stroke-linejoin="round" stroke-width="4.86072"/>
<path d="M374.997 300.526C397.621 280.824 439.651 231.25 470.547 189.103" fill="none" opacity="1" stroke="#ffb86c" stroke-linecap="round" stroke-linejoin="round" stroke-width="4.86072"/>
<path d="M420.815 170.805C398.191 190.507 367.239 247.629 344.615 267.331" fill="none" opacity="1" stroke="#ffb86c" stroke-linecap="round" stroke-linejoin="round" stroke-width="4.86072"/>
</g>
<g opacity="1">
<clipPath id="ClipPath_5">
<path d="M30.4096 97.0839L429.46 173.649L440.579 179.461L486.124 188.283L503.334 189.5L977.141 283.397L960.035 572.876L738.302 561.18C738.302 561.18 690.612 558.224 553.286 558.093C508.394 558.051 455.159 556.92 402.389 556.437C384.811 556.276 356.515 557.138 339.658 557.992C273.766 561.33 190.523 554.739 190.523 554.739L172.679 563.221L118.586 566.15L88.9172 559.988L6.69174 592.569L30.4096 97.0839Z"/>
</clipPath>
<g clip-path="url(#ClipPath_5)">
<path d="M272.276 333.912C216.274 372.056 114.706 568.802 114.706 568.802L168.506 568.476C168.506 568.476 170.791 563.065 175.053 553.81C202.124 495.027 279.911 395.533 301.818 367.394" fill="none" opacity="1" stroke="#ffb86c" stroke-linecap="butt" stroke-linejoin="round" stroke-width="4.86072"/>
</g>
</g>
</g>
<g clip-path="url(#ArtboardFrame_18)" id="Layer-3" vectornator:layerName="Layer 3">
<g opacity="1">
<clipPath id="ClipPath_6">
<path d="M522.798 319.157C503.424 300.734 361.474 311.664 379.317 292.901C397.16 274.137 284.636 596.887 304.011 615.311C323.385 633.734 601.742 350.367 583.899 369.131C566.056 387.895 542.173 337.581 522.798 319.157Z"/>
</clipPath>
<g clip-path="url(#ClipPath_6)">
<path d="M648.824 227.201C625.305 245.826 565.602 243.348 542.084 261.973L542.078 261.966C518.56 280.59 516.687 351.773 501.388 362.898C468.907 386.516 365.688 557.347 365.688 557.347C365.688 557.347 302.859 582.739 314.887 560.343C428.14 349.474 465.553 332.232 465.553 332.232C485.035 316.805 528.276 313.26 556.021 304.063C561.77 302.158 566.841 299.74 570.877 296.543L570.883 296.55C594.402 277.926 590.095 215.091 621.282 189.55C645.222 169.944 761.355 27.4341 856.843 30.4024C955.9 33.4817 909.642 107.866 922.485 126.66C922.485 126.66 906.168 137.616 905.982 137.169C882.675 81.4313 945.902 74.9354 856.586 69.3472C812.112 66.5646 661.806 222.266 647.825 227.321" fill="#8be9fd" fill-rule="nonzero" opacity="1" stroke="none"/>
</g>
</g>
<g opacity="1">
<clipPath id="ClipPath_7">
<path d="M522.798 319.157C503.424 300.734 506.236 265.754 524.079 246.99C532.225 238.424 486.979 204.855 525.961 170.624C572.364 129.876 645.057 168.58 643.086 171.349C641.115 174.118 766.59 188.778 747.615 222.906C715.134 281.325 605.502 301.864 594.239 313.708C576.396 332.472 542.173 337.581 522.798 319.157Z"/>
</clipPath>
<g clip-path="url(#ClipPath_7)">
<path d="M625.799 158.854C602.281 177.479 565.602 243.348 542.084 261.973L541.201 265.473C512.412 295.956 525.94 337.668 494.258 360.75C474.052 375.471 566.724 429.661 566.724 429.661L539.16 458.647C539.16 458.647 409.254 355.815 465.094 326.117C498.605 308.295 528.276 313.26 556.021 304.063C561.77 302.158 566.841 299.74 570.877 296.543L570.883 296.55C594.402 277.926 649.587 203.251 680.772 169.388C738.352 106.862 793.027 36.7518 813.222 66.3054L760.028 34.6048C760.028 34.6048 733.734 59.029 691.676 74.2334" fill="#ff5555" fill-rule="nonzero" opacity="1" stroke="none"/>
</g>
</g>
<g opacity="1">
<path d="M573.353 295.11C550.729 314.812 491.827 309.727 469.203 329.429" fill="none" opacity="1" stroke="#ffb86c" stroke-linecap="round" stroke-linejoin="round" stroke-width="4.86072"/>
<path d="M513.466 319.135C510.746 316.012 511.917 310.539 516.082 306.912C520.247 303.285 525.828 302.877 528.549 306.001C531.269 309.124 530.098 314.597 525.933 318.224C521.768 321.851 516.187 322.259 513.466 319.135Z" fill="#282a36" fill-rule="nonzero" opacity="1" stroke="none"/>
<path d="M499.585 362.625C518.82 342.134 520.347 281.616 542.971 261.914" fill="none" opacity="1" stroke="#ffb86c" stroke-linecap="round" stroke-linejoin="round" stroke-width="4.86072"/>
<path d="M573.359 295.117C595.982 275.415 630.087 235.747 660.983 193.6" fill="none" opacity="1" stroke="#ffb86c" stroke-linecap="round" stroke-linejoin="round" stroke-width="4.86072"/>
<path d="M595.276 193.505C595.276 193.505 565.601 242.219 542.977 261.921" fill="none" opacity="1" stroke="#ffb86c" stroke-linecap="round" stroke-linejoin="round" stroke-width="4.86072"/>
</g>
<g opacity="1">
<clipPath id="ClipPath_8">
<path d="M228.771 91.674L627.821 168.239L638.941 174.051L684.486 182.874L701.696 184.09L1175.5 277.987L1158.4 567.466L936.664 555.77C936.664 555.77 888.973 552.814 751.648 552.684C706.756 552.641 653.52 551.511 600.75 551.027C583.173 550.866 554.877 551.728 538.02 552.582C472.128 555.921 388.885 549.329 388.885 549.329L371.041 557.811L316.947 560.024L287.279 554.579L205.053 587.159L228.771 91.674Z"/>
</clipPath>
<g clip-path="url(#ClipPath_8)">
<path d="M470.637 328.502C414.635 366.647 315.217 563.631 315.217 563.631L366.868 563.067C366.868 563.067 367.481 556.699 371.743 547.445C398.813 488.661 478.273 390.123 500.18 361.985" fill="none" opacity="1" stroke="#ffb86c" stroke-linecap="butt" stroke-linejoin="round" stroke-width="4.86072"/>
</g>
</g>
</g>
<g clip-path="url(#ArtboardFrame_18)" id="Layer-4" vectornator:layerName="Layer 4">
<g opacity="1">
<clipPath id="ClipPath_9">
<path d="M640.463 319.157C621.088 300.734 479.138 311.664 496.981 292.901C514.824 274.137 402.301 596.887 421.675 615.311C441.049 633.734 719.407 350.367 701.564 369.131C683.721 387.895 659.837 337.581 640.463 319.157Z"/>
</clipPath>
<g clip-path="url(#ClipPath_9)">
<path d="M766.488 227.201C742.97 245.826 683.267 243.348 659.748 261.973L659.743 261.966C636.224 280.59 634.351 351.773 619.052 362.898C586.572 386.516 484.404 558.048 484.404 558.048C484.404 558.048 420.523 582.739 432.552 560.343C545.804 349.474 583.217 332.232 583.217 332.232C602.699 316.805 645.94 313.26 673.686 304.063C679.435 302.158 684.505 299.74 688.542 296.543L688.548 296.55C712.066 277.926 707.759 215.091 738.947 189.55C762.887 169.944 879.02 27.4341 974.507 30.4024C1073.56 33.4817 1027.31 107.866 1040.15 126.66C1040.15 126.66 1023.83 137.616 1023.65 137.169C1000.34 81.4313 1063.57 74.9354 974.25 69.3472C929.777 66.5646 779.47 222.266 765.49 227.321" fill="#8be9fd" fill-rule="nonzero" opacity="1" stroke="none"/>
</g>
</g>
<g opacity="1">
<clipPath id="ClipPath_10">
<path d="M640.463 319.157C621.088 300.734 623.9 265.754 641.743 246.99C649.889 238.424 604.644 204.855 643.625 170.624C690.028 129.876 762.721 168.58 760.75 171.349C758.779 174.118 884.255 188.778 865.28 222.906C848.277 253.487 803.602 255.508 769.494 269.515C738.445 282.266 717.271 308.064 711.904 313.708C694.061 332.472 659.837 337.581 640.463 319.157Z"/>
</clipPath>
<g clip-path="url(#ClipPath_10)">
<path d="M815.763 237.73C780.994 204.372 683.267 243.348 659.748 261.973L658.866 265.473C630.076 295.956 643.605 337.668 611.922 360.75C591.716 375.471 684.389 429.661 684.389 429.661L656.825 458.647C656.825 458.647 526.919 355.815 582.758 326.117C616.269 308.295 645.94 313.26 673.686 304.063C679.435 302.158 684.505 299.74 688.542 296.543L688.548 296.55C712.066 277.926 752.771 273.337 783.167 271.452" fill="#ff5555" fill-rule="nonzero" opacity="1" stroke="none"/>
</g>
</g>
<g opacity="1">
<path d="M691.017 295.11C668.394 314.812 609.491 309.727 586.867 329.429" fill="none" opacity="1" stroke="#ffb86c" stroke-linecap="round" stroke-linejoin="round" stroke-width="4.86072"/>
<path d="M631.131 319.135C628.411 316.012 629.582 310.539 633.747 306.912C637.911 303.285 643.493 302.877 646.213 306.001C648.934 309.124 647.762 314.597 643.598 318.224C639.433 321.851 633.851 322.259 631.131 319.135Z" fill="#282a36" fill-rule="nonzero" opacity="1" stroke="none"/>
<path d="M617.249 362.625C636.485 342.134 638.012 281.616 660.636 261.914" fill="none" opacity="1" stroke="#ffb86c" stroke-linecap="round" stroke-linejoin="round" stroke-width="4.86072"/>
<path d="M691.023 295.117C713.243 275.766 765.697 272.414 766.249 271.662" fill="none" opacity="1" stroke="#ffb86c" stroke-linecap="round" stroke-linejoin="round" stroke-width="4.86072"/>
<path d="M800.79 231.105C769.514 210.699 683.265 242.219 660.641 261.921" fill="none" opacity="1" stroke="#ffb86c" stroke-linecap="round" stroke-linejoin="round" stroke-width="4.86072"/>
</g>
<g opacity="1">
<clipPath id="ClipPath_11">
<path d="M346.436 91.674L745.486 168.239L756.605 174.051L802.15 182.874L819.36 184.09L1293.17 277.987L1276.06 567.466L1054.33 555.77C1054.33 555.77 1006.64 552.814 869.312 552.684C824.421 552.641 771.185 551.511 718.415 551.027C700.838 550.866 672.541 551.728 655.684 552.582C589.792 555.921 506.549 549.329 506.549 549.329L488.706 557.811L429.983 558.71L404.943 554.579L322.718 587.159L346.436 91.674Z"/>
</clipPath>
<g clip-path="url(#ClipPath_11)">
<path d="M588.302 328.502C532.3 366.647 430.732 563.393 430.732 563.393L484.532 563.067C484.532 563.067 486.818 557.655 491.079 548.401C518.15 489.617 595.937 390.123 617.844 361.985" fill="none" opacity="1" stroke="#ffb86c" stroke-linecap="butt" stroke-linejoin="round" stroke-width="4.86072"/>
</g>
</g>
</g>
<g clip-path="url(#ArtboardFrame_18)" id="Layer-6" vectornator:layerName="Layer 6">
<g opacity="1">
<clipPath id="ClipPath_12">
<path d="M752.413 322.769C733.039 304.345 591.088 315.276 608.931 296.512C626.774 277.748 514.251 600.499 533.625 618.922C553 637.346 831.357 353.979 813.514 372.743C795.671 391.507 771.787 341.192 752.413 322.769Z"/>
</clipPath>
<g clip-path="url(#ClipPath_12)">
<path d="M878.438 230.813C854.92 249.438 795.217 246.96 771.699 265.584L771.693 265.578C748.174 284.202 746.301 355.385 731.003 366.51C698.522 390.127 595.303 560.959 595.303 560.959C595.303 560.959 532.474 586.351 544.502 563.955C657.754 353.086 695.167 335.844 695.167 335.844C714.649 320.416 757.891 316.872 785.636 307.675C791.385 305.769 796.455 303.352 800.492 300.155L800.498 300.162C824.016 281.537 819.709 218.703 850.897 193.162C874.837 173.556 990.97 31.0458 1086.46 34.0141C1185.51 37.0933 1139.26 111.477 1152.1 130.272C1152.1 130.272 1135.78 141.228 1135.6 140.781C1112.29 85.0429 1175.52 78.547 1086.2 72.9588C1041.73 70.1763 891.421 225.878 877.44 230.932" fill="#8be9fd" fill-rule="nonzero" opacity="1" stroke="none"/>
</g>
</g>
<g opacity="1">
<clipPath id="ClipPath_13">
<path d="M752.413 322.769C733.039 304.345 735.85 269.366 753.693 250.602C761.84 242.036 716.594 208.467 755.576 174.236C801.979 133.487 874.672 172.192 872.7 174.961C870.729 177.73 996.205 192.39 977.23 226.517C944.749 284.937 835.117 305.475 823.854 317.32C806.011 336.084 771.787 341.192 752.413 322.769Z"/>
</clipPath>
<g clip-path="url(#ClipPath_13)">
<path d="M855.414 162.466C831.896 181.091 804.837 234.258 781.319 252.882L776.42 258.157C747.631 288.64 755.555 341.28 723.873 364.362C703.666 379.083 796.339 433.272 796.339 433.272L768.775 462.259C768.775 462.259 638.869 359.427 694.708 329.729C728.219 311.906 757.891 316.872 785.636 307.675C791.385 305.769 796.455 303.352 800.492 300.155L800.498 300.162C824.016 281.537 879.202 206.863 910.386 173C967.966 110.474 1022.64 40.3634 1042.84 69.917L989.643 38.2165C989.643 38.2165 963.348 62.6406 921.291 77.8451" fill="#ff5555" fill-rule="nonzero" opacity="1" stroke="none"/>
</g>
</g>
<g opacity="1">
<path d="M802.967 298.722C780.344 318.424 721.441 313.339 698.818 333.041" fill="none" opacity="1" stroke="#ffb86c" stroke-linecap="round" stroke-linejoin="round" stroke-width="4.86072"/>
<path d="M743.081 322.747C740.361 319.623 741.532 314.151 745.697 310.524C749.862 306.897 755.443 306.488 758.164 309.612C760.884 312.736 759.713 318.208 755.548 321.835C751.383 325.462 745.801 325.871 743.081 322.747Z" fill="#282a36" fill-rule="nonzero" opacity="1" stroke="none"/>
<path d="M729.199 366.237C748.435 345.745 752.124 292.961 768.663 270.85" fill="none" opacity="1" stroke="#ffb86c" stroke-linecap="round" stroke-linejoin="round" stroke-width="4.86072"/>
<path d="M802.973 298.728C825.597 279.026 867.627 229.452 898.523 187.305" fill="none" opacity="1" stroke="#ffb86c" stroke-linecap="round" stroke-linejoin="round" stroke-width="4.86072"/>
<path d="M830.6 189.853C807.976 209.555 822.674 212.394 800.05 232.096" fill="none" opacity="1" stroke="#ffb86c" stroke-linecap="round" stroke-linejoin="round" stroke-width="4.86072"/>
</g>
<g opacity="1">
<clipPath id="ClipPath_14">
<path d="M458.386 95.2856L857.436 171.851L868.555 177.663L914.101 186.485L931.311 187.702L1405.12 281.599L1388.01 571.078L1166.28 559.381C1166.28 559.381 1118.59 556.426 981.263 556.295C936.371 556.253 883.135 555.122 830.365 554.639C812.788 554.478 784.492 555.34 767.634 556.194C701.742 559.532 618.5 552.94 618.5 552.94L602.69 559.454L547.587 558.963L516.894 558.19L434.668 590.771L458.386 95.2856Z"/>
</clipPath>
<g clip-path="url(#ClipPath_14)">
<path d="M700.252 332.114C644.25 370.258 542.682 567.004 542.682 567.004L596.482 566.678C596.482 566.678 598.768 561.266 603.029 552.012C630.1 493.229 707.887 393.735 729.794 365.596" fill="none" opacity="1" stroke="#ffb86c" stroke-linecap="butt" stroke-linejoin="round" stroke-width="4.86072"/>
</g>
</g>
</g>
<g clip-path="url(#ArtboardFrame_18)" id="Layer-5" vectornator:layerName="Layer 5">
<g opacity="1">
<path d="M223.585 407.178C228.216 399.29 250.477 392.951 254.083 402.945C257.688 412.939 241.244 422.879 237.357 426.119C234.911 428.157 212.678 431.983 207.244 422.407C202.559 414.152 213.21 424.85 223.585 407.178Z" fill="#8be9fd" fill-rule="nonzero" filter="url(#Filter)" stroke="#ffb86c" stroke-linecap="butt" stroke-linejoin="round" stroke-width="9.83584" vectornator:shadowAngle="2.09486" vectornator:shadowColor="#282a36" vectornator:shadowOffset="7.19178" vectornator:shadowOpacity="0.9" vectornator:shadowRadius="8.50685"/>
<path d="M223.585 407.178C228.216 399.29 250.477 392.951 254.083 402.945C257.688 412.939 241.244 422.879 237.357 426.119C234.911 428.157 212.678 431.983 207.244 422.407C202.559 414.152 213.21 424.85 223.585 407.178Z" fill="#8be9fd" fill-rule="nonzero" filter="url(#Filter_2)" stroke="#ffb86c" stroke-linecap="butt" stroke-linejoin="round" stroke-width="9.83584" vectornator:shadowAngle="-1.01235" vectornator:shadowColor="#282a36" vectornator:shadowOffset="11.1301" vectornator:shadowOpacity="0.9" vectornator:shadowRadius="8.50685"/>
<path d="M226.448 433.29C193.622 428.638 168.21 408.319 138.499 412.478L138.498 412.469C108.787 416.628 94.4712 456.764 47.2553 473.461C26.1163 480.936 83.3591 572.603 83.3591 572.603L46.8337 593.179C46.8337 593.179-23.5576 426.179 39.6324 428.83C77.5546 430.421 39.8356 428.772 39.8356 428.772C64.4465 425.327 100.631 449.721 129.215 455.833C135.138 457.099 140.734 457.581 145.834 456.867L145.835 456.876C175.546 452.717 199.774 395.722 239.599 389.48C323.574 376.318 239.151 534.613 249.452 561.752C249.452 561.752 186.732 592.959 200.738 563.464C261.154 436.233 250.781 436.739 226.448 433.29Z" fill="#8be9fd" fill-rule="nonzero" opacity="1" stroke="none"/>
<clipPath id="ClipPath_15">
<path d="M95.14 454.23C87.756 428.534 105.668 397.594 130.554 390.443C155.44 383.292 181.6 398.325 188.984 424.021C196.368 449.716 182.18 476.344 157.294 483.495C132.408 490.647 102.524 479.926 95.14 454.23Z"/>
</clipPath>
<g clip-path="url(#ClipPath_15)">
<path d="M244.498 440.573C214.787 444.732 168.21 408.319 138.499 412.478L138.498 412.469C97.1132 420.534 93.0522 459.726 47.2553 473.461C23.3091 480.642 74.874 569.571 74.874 569.571L36.4299 580.618C36.4299 580.618-23.5576 426.179 39.6324 428.83C77.5546 430.421 39.8356 428.772 39.8356 428.772C64.4465 425.327 100.631 449.721 129.215 455.833C135.138 457.099 140.734 457.581 145.834 456.867L145.835 456.876C175.546 452.717 197.729 402.368 237.554 396.126C321.529 382.964 311.964 468.932 314.422 504.642L275.054 514.549C275.054 514.549 289.061 448.871 245.093 440.696" fill="#ff5555" fill-rule="nonzero" opacity="1" stroke="none"/>
<path d="M224.214 393.221L195.876 430.161L238.889 434.209L267.986 396.257L224.214 393.221Z" fill="none" opacity="1" stroke="#ffb86c" stroke-linecap="butt" stroke-linejoin="round" stroke-width="4.86072"/>
</g>
</g>
<g opacity="1">
<path d="M145.376 454.526C115.788 459.486 68.2435 424.346 38.6564 429.307" fill="none" opacity="1" stroke="#ffb86c" stroke-linecap="round" stroke-linejoin="round" stroke-width="4.86072"/>
<path d="M81.7673 443.683C81.0824 439.597 84.9427 435.546 90.3896 434.632C95.8364 433.719 100.807 436.291 101.492 440.376C102.177 444.461 98.3165 448.513 92.8697 449.426C87.4229 450.339 82.4521 447.768 81.7673 443.683Z" fill="#282a36" fill-rule="nonzero" opacity="1" stroke="none"/>
<path d="M47.1901 473.49C76.7772 468.53 107.255 415.303 136.842 410.343" fill="none" opacity="1" stroke="#ffb86c" stroke-linecap="round" stroke-linejoin="round" stroke-width="4.86072"/>
<path d="M234.36 434.037C204.773 438.998 166.431 405.391 136.843 410.351" fill="none" opacity="1" stroke="#ffb86c" stroke-linecap="round" stroke-linejoin="round" stroke-width="4.86072"/>
<path d="M179.954 424.727C179.269 420.642 183.13 416.59 188.577 415.677C194.023 414.764 198.994 417.335 199.679 421.42C200.364 425.506 196.504 429.558 191.057 430.471C185.61 431.384 180.639 428.812 179.954 424.727Z" fill="#282a36" fill-rule="nonzero" opacity="1" stroke="none"/>
<path d="M145.377 454.535C174.964 449.575 205.442 396.348 235.029 391.388" fill="none" opacity="1" stroke="#ffb86c" stroke-linecap="round" stroke-linejoin="round" stroke-width="4.86072"/>
<clipPath id="ClipPath_16">
<path d="M-638.987 499.587L356.765 266.523L251.325 559.755L246.801 560.029L246.536 549.202L210.063 545.622L202.974 561.522L196.067 561.382L145.777 536.103C145.777 536.103 86.369 571.781 82.3588 573.167C70.6723 577.205 44.4654 578.54 44.4654 578.54L47.8321 587.354L41.197 591.887L-378.022 701.533L-473.296 737.229L-541.839 793.126L-638.987 499.587Z"/>
</clipPath>
<g clip-path="url(#ClipPath_16)">
<path d="M38.4548 429.37C-24.7837 428.429 45.8507 589.003 45.8507 589.003L85.1239 575.167C85.1239 575.167 22.8163 478.922 47.2816 473.779" fill="none" opacity="1" stroke="#ffb86c" stroke-linecap="butt" stroke-linejoin="round" stroke-width="4.86072"/>
<path d="M234.431 433.901C270.263 432.944 200.536 560.516 200.536 560.516L249.238 558.482C245.815 522.851 319.967 375.263 236.379 390.69" fill="none" opacity="1" stroke="#ffb86c" stroke-linecap="round" stroke-linejoin="round" stroke-width="4.86072"/>
</g>
</g>
</g>
</svg>
