<?xml version="1.0" encoding="UTF-8" standalone="no"?>
<!DOCTYPE svg PUBLIC "-//W3C//DTD SVG 1.1//EN" "http://www.w3.org/Graphics/SVG/1.1/DTD/svg11.dtd">
<!-- Created with Vectornator (http://vectornator.io/) -->
<svg   stroke-miterlimit="10" style="fill-rule:nonzero;clip-rule:evenodd;stroke-linecap:round;stroke-linejoin:round;" version="1.1" viewBox="0 0 500 500"   xml:space="preserve" xmlns="http://www.w3.org/2000/svg" xmlns:vectornator="http://vectornator.io" xmlns:xlink="http://www.w3.org/1999/xlink">
<defs/>

<g clip-path="url(#ArtboardFrame_93)" id="Layer-1" vectornator:layerName="Layer 1">
<path d="M5.22564 3.74998L499.205 498.835" fill="none" opacity="1" stroke="#000000" stroke-linecap="round" stroke-linejoin="round" stroke-width="30"/>
</g>
<g clip-path="url(#ArtboardFrame_93)" id="Layer-3" vectornator:layerName="Layer 3">
<clipPath id="ClipPath">
<path d="M408.792 131.206L359.686 180.676L300.328 160.497L361.385 99.4401L140.278 99.9364L180.519 139.932L141.003 180.51L100.455 140.128L-77.6484 254.031L-51.0794 327.445L82.465 315.559L309.001 346.323L471.911 334.437L573.992 205.088L408.792 131.206Z"/>
</clipPath>
<g clip-path="url(#ClipPath)">
<path d="M0 250C79.1912 78.833 421.151 80.0499 500 250" fill="none" opacity="1" stroke="#000000" stroke-linecap="round" stroke-linejoin="round" stroke-width="30"/>
</g>
</g>
<g clip-path="url(#ArtboardFrame_93)" id="Layer-2" vectornator:layerName="Layer 2">
<clipPath id="ClipPath_2">
<path d="M450.763-0.268002L240.638 199.31L291.75 253.261L260.899 300.621L200.396 239.551L-30.7388 480.423L72.9236 631.959L518.627 613.32L610.18 500.386L605.246 189.545L594.281-13.2963L530.139-73.6005L450.763-0.268002Z"/>
</clipPath>
<g clip-path="url(#ClipPath_2)">
<path d="M-3.13995 500.108L498.795-2.75659" fill="none" opacity="1" stroke="#000000" stroke-linecap="butt" stroke-linejoin="round" stroke-width="30"/>
</g>
</g>
</svg>
